<svg xmlns="http://www.w3.org/2000/svg" width="172" height="104" fill="none"><rect x=".75" y=".75" width="170.5" height="102.5" rx="3.25" fill="#fff"/><rect x=".75" y=".75" width="170.5" height="102.5" rx="3.25" stroke="#8796a1" stroke-width="1.5"/><rect x="8.5" y="8.5" width="155" height="87" rx="2.5" fill="#fff" stroke="#58707f"/><g fill="#58707f"><path d="M17 15.5a1.5 1.5 0 1 1-3 0 1.5 1.5 0 1 1 3 0z"/><rect x="19" y="14.75" width="20" height="1.5" rx=".75"/><rect x="43" y="14.75" width="10" height="1.5" rx=".75"/><path d="M38.623 27.28h1.626c.271.022.543-.014.798-.107s.488-.239.681-.43a2.16 2.16 0 0 0 .488-1.512c.025-.517-.15-1.023-.488-1.415a1.82 1.82 0 0 0-1.398-.52 1.95 1.95 0 0 0-1.317.471 1.63 1.63 0 0 0-.418.572c-.096.219-.142.457-.135.696h-2.764a3.25 3.25 0 0 1 1.236-2.927 4.88 4.88 0 0 1 3.252-1.106 5.27 5.27 0 0 1 3.447 1.106 3.76 3.76 0 0 1 1.002 1.386 3.75 3.75 0 0 1 .283 1.687 3.25 3.25 0 0 1-.52 1.805 3.9 3.9 0 0 1-1.626 1.333 3.45 3.45 0 0 1 1.772 1.317 3.56 3.56 0 0 1 .715 2.081c.025.596-.088 1.189-.33 1.733s-.608 1.025-1.068 1.404c-1.026.791-2.299 1.194-3.593 1.138a5.36 5.36 0 0 1-3.349-1.073 3.48 3.48 0 0 1-1.415-3.057h2.732a1.85 1.85 0 0 0 .569 1.382 2.08 2.08 0 0 0 1.463.537 2.14 2.14 0 0 0 .828-.12 2.1 2.1 0 0 0 .716-.432 2.03 2.03 0 0 0 .553-1.512 2.19 2.19 0 0 0-.111-.869c-.095-.279-.245-.537-.442-.757a2.26 2.26 0 0 0-1.626-.537h-1.626l.065-2.276zm18.014 8.504h-9.56v-1.902l4.536-5.04a11.69 11.69 0 0 0 1.398-1.967 3.25 3.25 0 0 0 .374-1.512 2.23 2.23 0 0 0-.471-1.496 1.62 1.62 0 0 0-.605-.454c-.235-.102-.49-.147-.745-.131a1.73 1.73 0 0 0-.826.155c-.259.119-.483.3-.654.527a2.94 2.94 0 0 0-.504 1.821h-2.699a4.44 4.44 0 0 1 1.236-3.252c.455-.46 1.001-.819 1.603-1.054s1.247-.341 1.893-.312c1.242-.07 2.462.35 3.398 1.171a4.01 4.01 0 0 1 1.219 3.024 4.39 4.39 0 0 1-.699 2.423 23.41 23.41 0 0 1-2.293 2.927l-2.504 2.78h5.902v2.292zm2.151-13.373a1.16 1.16 0 0 1 .188-.692.71.71 0 0 1 .247-.206.6.6 0 0 1 .298-.062.62.62 0 0 1 .307.059.73.73 0 0 1 .257.209 1.16 1.16 0 0 1 .188.692 1.14 1.14 0 0 1-.188.692.71.71 0 0 1-.247.206c-.094.046-.196.068-.297.062a.62.62 0 0 1-.307-.059.72.72 0 0 1-.257-.209 1.14 1.14 0 0 1-.188-.692zm.413 0c-.026.132-.026.27 0 .402a.31.31 0 0 0 .113.122c.046.027.098.039.15.034.047.005.093-.007.134-.035s.072-.07.092-.121c.066-.119.099-.259.094-.402a.91.91 0 0 0-.056-.335c-.023-.052-.058-.095-.102-.123s-.093-.039-.143-.033c-.047-.005-.093.007-.134.035s-.072.07-.092.121c-.061.121-.094.26-.094.402l.038-.067zm4.285 1.941c.009.205-.018.411-.079.603a1.53 1.53 0 0 1-.278.513c-.291.281-.659.424-1.034.402a1.15 1.15 0 0 1-.585-.112 1.36 1.36 0 0 1-.486-.402 1.81 1.81 0 0 1-.32-.596 2.04 2.04 0 0 1-.094-.698v-.848c-.017-.476.125-.942.395-1.295a1.46 1.46 0 0 1 1.052-.47 1.46 1.46 0 0 1 1.052.47c.129.14.23.314.295.507a1.62 1.62 0 0 1 .081.609h-.714a1.14 1.14 0 0 0-.169-.67c-.073-.08-.159-.141-.253-.18a.61.61 0 0 0-.292-.043c-.093.017-.181.057-.259.119a.72.72 0 0 0-.192.238c-.135.245-.2.534-.188.826v.848a1.42 1.42 0 0 0 .207.826c.064.099.147.178.241.233a.59.59 0 0 0 .303.08.53.53 0 0 0 .275-.042.63.63 0 0 0 .232-.181 1.01 1.01 0 0 0 .169-.647l.639-.089zm-4.698 7.567a1.16 1.16 0 0 1 .188-.692.71.71 0 0 1 .247-.206.6.6 0 0 1 .298-.062.62.62 0 0 1 .307.059.73.73 0 0 1 .257.209 1.16 1.16 0 0 1 .188.692 1.14 1.14 0 0 1-.188.692.71.71 0 0 1-.247.206.6.6 0 0 1-.297.062.62.62 0 0 1-.307-.059.73.73 0 0 1-.257-.209 1.14 1.14 0 0 1-.188-.692zm.413 0c-.026.132-.026.27 0 .402a.31.31 0 0 0 .113.122c.046.027.098.039.15.034.047.005.093-.008.134-.035s.072-.07.092-.121c.066-.119.099-.259.094-.402a.91.91 0 0 0-.056-.335c-.023-.052-.058-.095-.102-.123s-.093-.039-.143-.033c-.047-.005-.093.007-.134.035s-.072.07-.092.121c-.061.121-.094.26-.094.402l.038-.067zm3.814 1.65h-1.448v1.853h-.724v-4.465h2.497v.692h-1.773v1.228h1.52l-.072.692zm-29.458-1.828a4.18 4.18 0 0 1-4.175 4.178H18.668a4.79 4.79 0 0 1 0-9.577h.132a4.56 4.56 0 0 1 1.394-2.303c.686-.61 1.54-.998 2.451-1.114a4.56 4.56 0 0 1 2.652.464 4.55 4.55 0 0 1 1.927 1.88 3.07 3.07 0 0 1 .692-.08 3.04 3.04 0 0 1 3 2.678c.776.308 1.443.842 1.913 1.532a4.19 4.19 0 0 1 .727 2.341h0z"/><rect x="86" y="14" width="14" height="1.5" rx=".75"/><rect x="101.5" y="14" width="20" height="1.5" rx=".75"/><rect x="86" y="19.125" width="12" height="1.5" rx=".75"/><rect x="99.5" y="19.125" width="16" height="1.5" rx=".75"/><rect x="86" y="24.25" width="10" height="1.5" rx=".75"/><rect x="97.5" y="24.25" width="14" height="1.5" rx=".75"/><rect x="86" y="29.375" width="12" height="1.5" rx=".75"/><rect x="99.5" y="29.375" width="14" height="1.5" rx=".75"/><rect x="86" y="34.5" width="14" height="1.5" rx=".75"/><rect x="101.5" y="34.5" width="14" height="1.5" rx=".75"/><rect x="132.5" y="14" width="10" height="1.5" rx=".75"/><rect x="144" y="14" width="14" height="1.5" rx=".75"/><rect x="127.5" y="19.125" width="14" height="1.5" rx=".75"/><rect x="143" y="19.125" width="15" height="1.5" rx=".75"/><rect x="128.5" y="24.25" width="12" height="1.5" rx=".75"/><rect x="142" y="24.25" width="16" height="1.5" rx=".75"/><rect x="131.5" y="29.375" width="12" height="1.5" rx=".75"/><rect x="145" y="29.375" width="13" height="1.5" rx=".75"/><rect x="130.5" y="34.5" width="15" height="1.5" rx=".75"/><rect x="147" y="34.5" width="11" height="1.5" rx=".75"/><rect x="68" y="34" width="10" height="1.5" rx=".75"/></g><rect x="14" y="40" width="144" height="1" rx=".5" fill="#b7c0c7"/><rect x="15" y="45" width="24" height="3" rx="1.5" fill="#58707f"/><rect x="15" y="50" width="24" height="1" rx=".5" fill="#8796a1" fill-opacity=".8"/><g fill="#abb6bd"><rect x="43" y="45" width="25" height="3" rx="1.5"/><rect x="72" y="45" width="14" height="3" rx="1.5"/><rect x="90" y="45" width="18" height="3" rx="1.5"/><rect x="112" y="45" width="18" height="3" rx="1.5"/></g><g fill-rule="evenodd"><path d="M15 59.514s13.482-1.887 20.286-1.521c4.347.234 14.425 4.113 24.633 4.057 10.201-.056 17.33-4.234 27.531-4.347 8.506-.094 14.678 2.734 23.184 2.898 9.684.187 14.947-2.024 24.632-2.173 8.562-.132 21.735 2.898 21.735 2.898v4.492c0 1.366 0 2.049-.424 2.474s-1.108.424-2.474.424H17.898c-1.366 0-2.049 0-2.474-.424S15 67.183 15 65.817v-6.303z" fill="#58707f"/><path d="M15 60.528s13.482-1.887 20.286-1.521c4.56.245 14.425 4.113 24.633 4.057 10.201-.056 16.766-4.145 27.531-4.347 7.941-.149 14.678 2.734 23.184 2.898 9.684.187 14.947-2.024 24.632-2.173 8.562-.132 21.735 2.898 21.735 2.898v7.39H15v-9.201z" fill="#dee2e5"/></g><g fill="#58707f"><circle cx="114" cy="61" r="2"/><circle cx="137" cy="58.8" r="2"/><circle cx="88" cy="58" r="2"/><circle cx="61" cy="62.7" r="2"/><circle cx="35" cy="58.4" r="2"/><rect x="17" y="74.729" width="12" height="2" rx="1"/><use href="#C"/><rect x="14" y="88.729" width="18" height="2" rx="1"/><rect x="42.2" y="74.729" width="12" height="2" rx="1"/><use href="#C" x="25.2"/><rect x="39.2" y="88.729" width="18" height="2" rx="1"/><rect x="67.4" y="74.729" width="12" height="2" rx="1"/><use href="#C" x="50.4"/><rect x="64.4" y="88.729" width="18" height="2" rx="1"/><rect x="92.6" y="74.729" width="12" height="2" rx="1"/><use href="#C" x="75.6"/><rect x="89.6" y="88.729" width="18" height="2" rx="1"/><rect x="117.8" y="74.729" width="12" height="2" rx="1"/><use href="#C" x="100.8"/><rect x="114.8" y="88.729" width="18" height="2" rx="1"/><rect x="143" y="74.729" width="12" height="2" rx="1"/><use href="#C" x="126"/><rect x="140" y="88.729" width="18" height="2" rx="1"/></g><g clip-path="url(#A)"><path d="M158.249 84.904c-.001.179.07.351.196.478s.298.199.478.199.351-.071.478-.197l2.153-2.156c.127-.127.198-.3.197-.48v-.022a.67.67 0 0 0-.196-.499l-2.155-2.15c-.172-.163-.417-.225-.645-.161s-.408.242-.471.471-.002.474.162.645l1.698 1.698-1.698 1.698a.67.67 0 0 0-.197.477h0z" fill="#58707f"/></g><g clip-path="url(#B)"><path d="M13.751 84.904c.001.179-.07.351-.197.478s-.298.199-.477.199-.351-.071-.478-.197l-2.153-2.156c-.127-.127-.198-.3-.197-.48v-.022a.67.67 0 0 1 .197-.499l2.155-2.15c.172-.163.417-.225.645-.161s.407.242.47.471.002.474-.162.645l-1.698 1.698 1.698 1.698c.127.126.197.298.197.477h0z" fill="#58707f"/></g><defs><clipPath id="A"><path fill="#fff" transform="translate(157 79.729)" d="M0 0h6v6H0z"/></clipPath><clipPath id="B"><path fill="#fff" transform="matrix(-1 0 0 1 15 79.7288)" d="M0 0h6v6H0z"/></clipPath><path id="C" d="M26 82.729a3 3 0 1 1-6 0 3 3 0 1 1 6 0z"/></defs></svg>