<svg xmlns="http://www.w3.org/2000/svg" width="120" height="80" xmlns:v="https://vecta.io/nano"><style><![CDATA[.P{fill:#58707f}.Q{fill:#fff}.R{stroke:#58707f}.S{fill:#9fabb4}.T{stroke-width:1.5}.U{fill-rule:evenodd}.V{stroke-linecap:round}.W{stroke-linejoin:round}]]></style><defs><mask id="A" x="9" y="49" width="102" height="11" maskUnits="userSpaceOnUse"><path d="M10 50h100v10H10V50z" class="Q"/></mask><mask id="B" x="9" y="39" width="102" height="11" maskUnits="userSpaceOnUse"><path d="M10 44c0-1.89 0-2.83.59-3.41S12.12 40 14 40h92c1.89 0 2.83 0 3.41.59s.59 1.53.59 3.41v6H10v-6z" class="Q"/></mask><mask id="C" x="89.75" y="19.75" width="14.5" height="8.81" maskUnits="userSpaceOnUse"><path d="M90.47 20a.47.47 0 0 0-.47.47v5.6a.47.47 0 0 0 .47.47h5.1l1.24 1.68c.1.13.29.13.39 0l1.24-1.68h5.1a.47.47 0 0 0 .47-.47v-5.6a.47.47 0 0 0-.47-.47H90.47z" class="Q U"/></mask><linearGradient id="D" x1="92.68" y1="21.53" x2="94.45" y2="24.6" gradientUnits="userSpaceOnUse"><stop offset="0" stop-color="#f3f7fe"/><stop offset=".45" stop-color="#f3f7fe"/><stop offset="1" stop-color="#deeafb"/></linearGradient><linearGradient id="E" x1="93.12" y1="23.23" x2="94.08" y2="24.89" gradientUnits="userSpaceOnUse"><stop offset="0" stop-color="#f7b23b"/><stop offset=".45" stop-color="#f7b23b"/><stop offset="1" stop-color="#f59e0b"/></linearGradient><path id="F" d="M13.6 28.3h4.8a.6.6 0 0 1 .6.6h0a.6.6 0 0 1-.6.6h-4.8a.6.6 0 0 1-.6-.6h0a.6.6 0 0 1 .6-.6z"/><path id="G" d="M13.75,31.25h8.5c.41,0,.75.34.75.75h0c0,.41-.34.75-.75.75h-8.5c-.41,0-.75-.34-.75-.75h0c0-.41.34-.75.75-.75Z"/><path id="H" d="M30.75,44.25h3.5c.41,0,.75.34.75.75h0c0,.41-.34.75-.75.75h-3.5c-.41,0-.75-.34-.75-.75h0c0-.41.34-.75.75-.75Z"/><path id="I" d="M72.75,44.25h4.5c.41,0,.75.34.75.75h0c0,.41-.34.75-.75.75h-4.5c-.41,0-.75-.34-.75-.75h0c0-.41.34-.75.75-.75Z"/><path id="J" d="M30.75,54.25h3.5c.41,0,.75.34.75.75h0c0,.41-.34.75-.75.75h-3.5c-.41,0-.75-.34-.75-.75h0c0-.41.34-.75.75-.75Z"/><path id="K" d="M72.75,54.25h4.5c.41,0,.75.34.75.75h0c0,.41-.34.75-.75.75h-4.5c-.41,0-.75-.34-.75-.75h0c0-.41.34-.75.75-.75Z"/><path id="L" d="M30.75,64.25h3.5c.41,0,.75.34.75.75h0c0,.41-.34.75-.75.75h-3.5c-.41,0-.75-.34-.75-.75h0c0-.41.34-.75.75-.75Z"/><path id="M" d="M72.75,64.25h4.5c.41,0,.75.34.75.75h0c0,.41-.34.75-.75.75h-4.5c-.41,0-.75-.34-.75-.75h0c0-.41.34-.75.75-.75Z"/></defs><rect x=".75" y=".75" width="118.5" height="78.5" rx="2.25" class="Q"/><rect x=".75" y=".75" width="118.5" height="78.5" rx="2.25" fill="none" stroke="#8796a1" class="T"/><g class="P U"><path d="M88.77 14.43l.09-.05c.09-.05.14-.09.14-.14 0-.09 0-.19-.09-.23-.05-.05-.09-.05-.19-.09v-.05s0-.05.05-.05c.14 0 .23-.05.37-.05s.28-.14.37-.23c.05-.05.05-.09.09-.14.05-.05.05-.09 0-.14q-.05-.09.05-.14c.14-.05.14-.09.05-.23v-.05l.05-.05c.14-.09.28-.14.46-.23l.65-.14c.05 0 .05-.05.09-.05v-.05s-.05 0-.09-.05c-.23 0-.46-.05-.7 0h-.23s-.09 0-.09-.05c-.05-.05-.14-.09-.23-.09-.42-.14-.79-.19-1.16-.14-.19.05-.42.09-.6.05-.32-.05-.65 0-.97.09h-.32c-.23 0-.51 0-.74.05-.46.05-.97.05-1.44.19-.05 0-.09 0-.14.05-.14 0-.23.05-.37.05-.05 0-.14.05-.14.14 0 .05-.09.05-.09.05-.19.05-.42.05-.6.09h-.09c-.09.05-.19 0-.28.09.05.09.05.19.09.28 0 .05.05.05.09.05.09.05.23.09.32.05.23-.05.46 0 .65.05.28.05.42.28.37.56 0 .05-.05.09-.05.14s0 .09.05.09c.09 0 .14.05.23.05.05 0 .09.05.05.09h-.05c-.19 0-.23.05-.09.23 0 0 0 .05.05.05.05.05 0 .09-.05.09s-.09 0-.14.05a.45.45 0 0 0-.37.46c0 .23.05.46.09.7 0 .09.09.23.14.32s.09.14.23.14c.14-.05.23 0 .28.09q0 0 .09.09s.14.05.19 0c.14-.14.32-.23.37-.46 0-.05.05-.09.09-.09.14-.05.23-.19.28-.32.05-.05.09-.09.09-.14.05-.05.14-.09.19-.09.09 0 .19 0 .23-.05.09-.05.19.05.23 0h.05c.23-.05.46-.14.65-.32.09-.09.23-.19.37-.14h.09c.32-.05.65-.14.93-.23.19 0 .32-.05.37-.14zM74.96 25c-.19 0-.32.05-.46.14-.09.05-.19.14-.23.23v.09h.05c.09 0 .19-.05.23-.09.14-.05.23-.05.37 0 .09.05.19.05.23.09.14.05.28.09.37.19.05.05.09.09.14.19 0 .09.05.09.14.09s.19 0 .28.05h.19s.09 0 .14-.05a.14.14 0 0 0 0-.19c-.05-.05-.14-.09-.19-.09-.14-.09-.28-.14-.42-.28-.23-.19-.51-.28-.79-.37.05 0 0 0-.05 0z"/><path d="M75.38 13.27h.05c.14 0 .28 0 .42-.05.09-.05.19-.09.32-.05-.05.05-.14.09-.19.09s-.05.05-.09.05v.05s.05.05.09.05a3.61 3.61 0 0 0 1.39 0c.09 0 .14-.05.19-.14 0-.05 0-.09-.05-.09h-.14c-.09-.09-.14-.09-.23-.05-.05.05-.09.05-.09.09a.14.14 0 0 1-.19 0c-.14-.09-.32-.09-.42-.23 0 0-.05-.05-.09-.05h-.19c-.28 0-.56.09-.83.14h-.05q.05.14.09.19s-.05 0 0 0zm4.08-.19h-.09c-.09-.05-.14-.05-.23 0-.05 0-.05.05-.05.05s0 .05.05.05q0 0 .09.05c.09 0 .19 0 .23-.05h.05s-.05-.05-.05-.09z"/><path d="M79.5 13.22h0c.05 0 0-.05 0 0zM76.4 26.3c.19.05.37.09.6.05.19-.05.32-.09.51-.09q0 0 .09-.05v-.09c-.14-.14-.32-.14-.51-.23-.14.05-.28 0-.42 0-.05 0-.09.05-.05.09 0 .05.05.09.09.19-.09 0-.19.05-.28.05q0 0-.05.05c-.09 0-.05.05 0 .05zm12.61-10.53c.09.05.19 0 .28-.05.14-.05.28-.09.42-.19.14 0 .23-.05.28-.14.05-.05.05-.09 0-.09-.09-.09-.14-.23-.32-.19h-.14c-.09 0-.14 0-.19.05-.09 0-.23-.05-.32 0s-.19 0-.28-.05-.23-.05-.32.05c0 .09-.05.09-.05.19 0 .05.09.05.14.05h.09l.05.05c-.05.09 0 .19 0 .28.09 0 .23.05.37.05zm-10.2-2.45s.05-.05.05-.09-.05-.05-.09-.05c-.19-.05-.42 0-.56.14-.05-.09-.14-.14-.28-.14q0 0-.09.05s0 .09.05.09c.05.05.14.05.23.05h.09c.09.14.23.09.42.05.05 0 .09-.09.19-.09zm29.9 15.15c-.05-.09-.09-.19-.23-.19-.09.09-.09.19-.09.28-.05.23 0 .42.09.6q.05.09.14.09s.09 0 .09-.05c.19-.14.23-.23.14-.46l-.14-.28zM78.58 12.85c.09.09.23.09.32.14.09 0 .14 0 .19-.05s.05-.14 0-.14c-.09-.05-.23-.09-.32-.09-.05 0-.09 0-.14.05-.09-.05-.09.05-.05.09z"/><path d="M79.5 13.04s.14 0 .19-.05c0 0 .05 0 .05-.05 0 0 0-.05-.05-.05-.09-.05-.19-.05-.28-.09-.05 0-.09 0-.09.05-.05.05 0 .09.05.09 0 .05.05.09.14.09zm-2.32 0s.09.05.14.05c.09 0 .14 0 .23-.09.05 0 0-.05 0-.09-.14-.05-.28-.05-.42.05q0 0 .05.09zm.7 13.16s-.05.05-.05.09.05.09.09.09h.05c.09 0 .19-.05.19-.09s-.09-.09-.19-.09c-.05-.05-.09-.05-.09 0zm-2.04-1.34c.05-.09 0-.19-.09-.23h-.05l-.05.05c-.05.09-.05.19.05.23.14 0 .14-.05.14-.05zm17.66 4.82s.05.05 0 0q0 0 .05-.05l-.05.05z"/><path d="M93.5 29.82s.05 0 .05-.05v-.05s-.05 0-.05.09q0 0 0 0zm-17.38-5.24s0-.05-.05-.05c0 0-.05 0-.05.05 0 0 .05.05.09 0zm25.95 8.97c.03.05.06.1.06.17v.1c0 .09.02.15-.05.22.05.09.05.23-.05.32a.53.53 0 0 0-.14.37c0 .14-.05.28-.09.42l-1.21.51c.14-.23.23-.46.14-.7-.05-.14 0-.28.09-.42.05-.05.09-.09.18-.14.03-.03.04-.04.05-.04h.04c.23-.05.42-.23.51-.42.05-.09.09-.19.14-.23.05-.05.09-.14.14-.23.05-.05.14-.05.14 0 .01.02.03.05.04.07zm-18.4-2.11c.14.14.28.23.46.28.14.05.19.14.14.23.14.37.09.74-.14 1.02l-.25.35-.25.35c-.09.14-.14.32-.09.51.09.23.05.51-.05.74-.05.09-.05.14-.05.23l-6.26.37c0-.14 0-.23-.05-.37 0-.06-.03-.1-.07-.14-.02-.03-.05-.06-.07-.09-.19-.19-.37-.32-.65-.42-.32-.09-.46-.28-.6-.56l-.25-.49-.25-.49c-.07-.07-.11-.17-.15-.25-.01-.03-.02-.05-.03-.07-.09-.19-.19-.37-.37-.46-.05-.05-.09-.09-.09-.14 0-.09 0-.14-.05-.23 0-.09 0-.14.05-.23.05-.05.05-.09-.14-.05 0-.01.01-.02.02-.03.04-.07.07-.12-.02-.25-.09-.14-.09-.32 0-.46.05-.05.09-.09.09-.14 0-.14.05-.23.19-.28.05 0 .09-.05.09-.09.05-.09.09-.19.14-.23.28-.28.28-.6.19-.93-.02-.06-.05-.11-.08-.16-.03-.06-.06-.11-.06-.16 0-.09-.14-.14-.19-.14-.09 0-.14.05-.14.14 0 .14-.14.19-.28.09-.09-.09-.19-.14-.28-.14-.02-.02-.06-.05-.09-.07s-.07-.05-.09-.07c-.09-.14-.19-.23-.32-.28-.09-.05-.14-.14-.09-.23.05-.05.05-.09-.05-.14-.06 0-.08-.04-.1-.08-.01-.02-.02-.04-.04-.06-.05-.14-.19-.23-.37-.23-.05 0-.14 0-.19-.05a.43.43 0 0 0-.32-.14.78.78 0 0 1-.19-.14c-.02-.05-.06-.08-.09-.12-.03-.03-.07-.07-.09-.12-.09-.09-.23-.14-.37-.09-.19.05-.37.05-.51-.05-.05 0-.09 0-.09-.05-.02 0-.05-.01-.07-.02s-.05-.02-.07-.02c-.05 0-.09-.05-.09-.05q0 0-.09-.05l-.07-.03c-.08-.04-.18-.08-.25-.15-.02 0-.03-.01-.05-.02-.01-.01-.02-.02-.05-.02-.12-.06-.22-.14-.31-.21l-.15-.11c-.19-.14-.23-.28-.19-.46 0-.02.01-.03.02-.05.01-.01.02-.02.02-.05a.28.28 0 0 0 0-.28l-.04-.09c-.02-.04-.03-.07-.05-.1 0-.02-.01-.03-.02-.05-.01-.01-.02-.02-.02-.05-.09-.19-.19-.32-.32-.42-.05-.05-.09-.09-.09-.14 0-.18-.08-.33-.17-.48-.02-.04-.05-.08-.07-.12a.95.95 0 0 1-.14-.51v-.14s-.05-.09-.09-.09c-.08-.04-.09-.01-.12.05 0 .01-.01.03-.02.04 0 .09 0 .19.05.23.14.17.2.39.26.61.02.08.04.15.07.23.05.19.09.32.19.46.05.09.05.14.05.23q0 0-.05.09s-.05.05-.09 0c-.02-.02-.05-.06-.07-.09s-.05-.07-.07-.09c-.19-.09-.28-.23-.23-.42.05-.05 0-.09-.05-.09 0 0-.05-.05-.09-.05a.39.39 0 0 1-.19-.19c-.05-.09-.05-.14.05-.23q.14-.14.05-.23c-.09-.14-.14-.23-.14-.37 0-.07-.01-.15-.02-.23l-.02-.23c0-.23-.14-.37-.32-.42-.14-.05-.19-.09-.19-.23-.05-.19-.05-.37-.05-.56a.37.37 0 0 0-.02-.09.37.37 0 0 1-.02-.09c0-.03 0-.06-.01-.09-.01-.06-.02-.12.01-.19-.04-.11.01-.19.06-.26l.03-.06.14-.28c.03-.08.07-.13.11-.18a.36.36 0 0 0 .07-.1c.07-.12.15-.22.23-.32a3.71 3.71 0 0 0 .23-.32c.09-.14.19-.28.23-.46.05-.09.05-.19-.05-.23-.09-.09-.14-.19-.14-.28s0-.14.05-.14c.09 0 .09-.05.09-.14 0-.05 0-.09.05-.14.05-.14.05-.23.05-.37 0-.09 0-.19.05-.28.07-.07.06-.14.05-.21v-.07c0-.05 0-.14-.05-.19v-.23s-.05-.05-.09-.05c-.03 0-.04-.02-.05-.04 0-.02-.02-.03-.04-.05-.05-.09-.09-.19-.19-.23a1.26 1.26 0 0 1-.27-.04c-.1-.02-.21-.05-.34-.05-.05 0-.14-.05-.19-.09-.14-.05-.23-.05-.32.05-.09.14-.23.19-.42.23-.11 0-.19.03-.29.06-.03 0-.05.02-.08.03-.05.05-.09 0-.14-.05-.03-.07-.07-.06-.1-.05h-.03c-.05 0-.09.05-.05.09l-.7.28a3.11 3.11 0 0 1-.59.26l-.16.06c-.05.02-.1.05-.16.07a1.26 1.26 0 0 0-.16.07c-.1.07-.21.06-.31.05h-.1c-.05 0-.09 0-.09-.05-.05-.05 0-.09.05-.09.07-.02.13-.06.19-.09s.12-.07.19-.09c.19-.09.32-.19.46-.28.02 0 .03-.01.05-.02.01-.01.02-.02.05-.02.05 0 .05-.05.05-.05h-.32s-.09 0-.09-.05c0-.06-.03-.1-.07-.14-.02-.03-.05-.06-.07-.09v-.14s0-.05.05-.05.05-.05.05-.05c.05-.14.19-.23.32-.28l.29-.12c.26-.11.51-.22.82-.25-.09-.09-.14-.09-.23-.09-.05.05-.14.05-.19.05s-.09-.05-.09-.09c.05-.05.05-.09.05-.14 0-.14.09-.19.19-.23.14 0 .28 0 .42-.05s.23-.05.37 0h.14s.09-.09.05-.14c-.02-.02-.03-.06-.05-.09-.01-.03-.02-.07-.05-.09-.05-.05-.05-.09.05-.14.09-.05.19-.09.23-.14.19 0 .32-.05.46-.09h.05c.37-.14.74-.23 1.11-.23.14 0 .23 0 .37-.05h.19a.6.6 0 0 1 .2.03c.05.01.09.02.13.02l.83.14h.6c.11.08.21.1.32.12a.73.73 0 0 1 .24.07.09.09 0 0 1 .05.01c.03.01.06.02.09-.01l.28-.05c.09-.01.19-.02.28-.05.05 0 .09-.01.14-.02s.09-.02.14-.02c.14-.05.23-.05.32-.05s.19 0 .28.05c.09-.05.14-.05.19.05.05.09.09.09.19.05h.42c.14 0 .28 0 .37.09.09.05.14.05.23.05s.14 0 .14-.09c0-.05 0-.09.05-.09.11-.04.1-.14.1-.22v-.06c-.19 0-.32.05-.46.09-.14.05-.28.05-.37-.05-.09-.05-.09-.19 0-.23.32-.19.65-.37 1.02-.42.03 0 .06 0 .09-.01.05 0 .09-.02.15.01h.09c.14.05.23.05.37.05.09 0 .19.05.23.14.05.05.09.09.19.09h.1c.08.01.16.02.23 0 .05-.03.09 0 .13.01.03.02.06.03.1.03.28-.23.32-.23.51-.05.03.03.02.06.01.09 0 .02-.01.03-.01.05-.05.05-.05.14-.05.28v.04c0 .01.02.03.04.05.05 0 .09.05.09.05.09.09.05.19-.05.23-.09.05-.19.09-.23.14-.05.05-.09.05-.19.05-.05 0-.09 0-.14-.01-.07 0-.13-.02-.19.01.09.05.19.05.28.05.14-.05.28-.05.42-.05.05 0 .09-.05.05-.09 0-.05 0-.09.05-.09.06-.06.14-.08.21-.1.04-.01.08-.02.11-.04.03-.03.06-.02.09-.01.02 0 .03.01.05.01.02.02.04.03.06.04.04.02.08.04.08.1 0 .09-.09.09-.14.09 0 .03.02.02.04.01.02 0 .03-.01.05-.01.02-.02.04-.03.07-.04.04-.02.09-.04.12-.1v-.05c-.09-.14-.05-.23.05-.32v-.05a.59.59 0 0 1-.42-.14c-.09-.05-.05-.14 0-.19h.09s.09 0 .14-.09c0-.09.09-.14.19-.14h.37c.09 0 .14.05.09.14 0 .02-.02.04-.03.05a.34.34 0 0 0-.06.22c-.05.05-.05.09 0 .09 0 .05.05 0 .05 0 0-.02.01-.03.02-.05.01-.01.02-.02.02-.05.07-.15.17-.2.28-.27l.09-.06c.05-.05.09-.05.14-.05-.05-.05-.05-.14-.05-.19h.05c.09-.05.19-.05.28-.05s.14.05.09.14q0 0-.05.09l.11.03c.05 0 .1.01.13.07h.09c.19-.05.42-.09.65-.05h.28v-.05c-.19-.09-.42-.09-.65-.09-.14 0-.23 0-.32-.05-.09 0-.09-.05-.05-.09.05-.05.09-.09.14-.19q0 0 .09-.05c.09-.05.19-.05.28.05.02 0 .03.01.05.02.01.01.02.02.05.02s.02-.01.02-.03 0-.04.02-.06c.06-.06.14-.08.21-.1.04-.01.08-.02.11-.04s.06-.03.09-.04c.06-.02.12-.04.19-.1-.06-.03-.1-.02-.15-.01-.03 0-.05.01-.09.01-.05.05-.14.05-.19.05h-.06c-.07 0-.15-.01-.22.1-.09-.09-.09-.19.05-.23.11-.07.25-.12.38-.16.03 0 .06-.02.08-.03.09-.05.14-.05.23 0 .14.05.23.09.37.19.05.05.05.09 0 .14s-.09.05-.14.05c-.09 0-.19 0-.28.05.23.05.42 0 .56-.09.06-.06.06-.1.07-.14 0-.03 0-.06.03-.09l-.1-.03c-.09-.02-.19-.05-.23-.15.05-.05.14-.05.19-.05l.83-.14c.32-.05.65-.09.97 0h.7c.14-.05.32-.05.46-.05a.39.39 0 0 1 .24 0h.09c.05 0 .14 0 .14.05 0 .09-.09.09-.14.09l-.65.16-.65.16c-.05.09-.14.09-.23.09-.07 0-.15.01-.23.02l-.23.02c0 .05-.05.05-.09.05-.14.09-.32.14-.51.19-.09 0-.19.05-.28.14-.05.05-.09.05-.14.05h-.28s-.09 0-.09.05c.05.05.05.09 0 .14-.07.07-.14.09-.22.11-.03 0-.07.02-.1.03-.05.02-.08.02-.11.02s-.05 0-.08.02v.05c.08 0 .09.03.12.13 0 .02.01.03.02.05v-.14s.05-.09.09-.09a.39.39 0 0 1 .24 0h.09q.19.05.23.23v.05c.14.09.28.14.46.19.09 0 .14.05.19.09.05.05.14.14.14.23 0 .07-.02.11-.06.17-.01.02-.02.04-.04.07.05.05.1.07.16.09s.12.05.16.09c.09.05.14.14.14.28 0 .04-.03.04-.14.07-.03 0-.06.01-.09.02-.05.02-.08.06-.12.09-.03.03-.07.07-.12.09-.14.09-.19.09-.32-.09l-.09-.09c-.05-.09-.09-.09-.19 0 .05 0 .09.05.14.09.09.14.09.23.05.37-.09.14-.19.19-.32.19h-.09v.09s0 .07-.01.09c-.03 0-.05.02-.08.04h-.05c-.2 0-.33-.07-.48-.15l-.06-.03c0-.04-.03-.07-.06-.1-.01 0-.03-.01-.04-.02v-.03c-.04-.12-.12-.17-.23-.18l-.05-.05c-.05-.05-.09-.09-.19-.05-.03.03-.08.02-.14.01-.03 0-.06-.01-.1-.01a.37.37 0 0 1-.09-.02c-.02 0-.04-.01-.06-.02 0-.01 0-.03.02-.05s.04-.04.05-.06c.06-.07.11-.13.22-.13.05 0 .11.02.15.03.03 0 .06.02.08.02.14.05.28 0 .37-.14.02-.02.06-.05.09-.07s.07-.05.09-.07c.05 0 .09-.05.14-.09.05-.05.05-.09 0-.14l-.05-.05a.39.39 0 0 1-.19-.19c-.02 0-.05-.01-.07-.02s-.05-.02-.07-.02h-.56c0 .14-.05.23-.14.28-.05 0-.05.05-.05.09-.07.13-.18.2-.3.25-.04.02-.08.04-.12.07-.09.05-.19.05-.23.05s-.09 0-.09.05a1.28 1.28 0 0 1 .23.32c.01.02.02.04.02.06-.03.04-.05.08-.07.12h-.04c-.09.05-.14.05-.19 0-.14-.05-.23 0-.32.05-.02 0-.05.01-.07.02s-.05.02-.07.02h-.19l-.14-.14c-.03-.05 0-.07.01-.1.02-.02.03-.04.03-.08-.19.05-.37.14-.51.23s-.28.19-.46.19a1.08 1.08 0 0 0-.42.19c-.14.09-.28.19-.42-.05-.03 0-.04.02-.05.04 0 .02-.02.03-.04.05-.05.05-.07.07-.07.09s.02.05.07.09v.09c-.05.09-.05.14-.05.19s.05.05.05.05c.19-.05.37.05.51.19a.76.76 0 0 0 .56.23c.05 0 .14 0 .23.05q0 0 .05.09l-.04.09c-.02.04-.03.07-.05.1-.05.05-.09.14-.14.23v.14c.05.09.09.14.23.09.09-.05.14-.14.19-.23s.09-.23.09-.32.05-.14.14-.19c.07-.02.14-.06.21-.09s.14-.07.21-.09c.09-.05.19-.09.23-.19.09-.09.14-.19.05-.32-.05-.09 0-.19.09-.23.02 0 .03-.01.05-.02.01-.01.02-.02.05-.02.14-.05.19-.09.19-.23a.49.49 0 0 1 .04-.19c.05-.02.07-.06.07-.12 0-.01.02-.03.03-.04.02-.02.03-.04.05-.07.05-.09.14-.09.28-.09h.03c0 .06.04.09.11.09s.15.01.23.02l.23.02h.05s.02.02.02.03c.06.07.13.15.21.19.01.05.05.11.09.11.02.02.02.05 0 .08 0 .02-.01.05-.02.07s-.02.05-.02.07c0 .09 0 .14.05.19s.09.09.19.05c.02 0 .03-.01.05-.02.01-.01.02-.02.05-.02.05-.02.09-.06.14-.09s.09-.07.14-.09l.05-.05c.04 0 .06-.01.08-.04.06-.05.15 0 .15.05.08.16.12.34.16.51 0 .03.02.06.02.09.03.07.02.13 0 .18v.05c.05.14.09.23.23.28 0 0 .05.05.09.05.05.05.09.09.09.14s.05.09.05.09c.19.14.14.32.05.51 0 .02-.01.03-.02.05-.01.01-.02.02-.02.05 0 .09-.05.19-.09.28 0 .09 0 .14.09.14h.19s.09.05.09.14c-.02.02-.03.06-.05.09-.01.03-.02.07-.05.09-.05.05-.05.09 0 .14s.09.09.05.14c-.01.01-.02.02-.03.04-.04.05-.08.1-.15.1-.09.05-.19 0-.28-.05-.14-.09-.23-.09-.37-.09h-.42s-.09-.05-.05-.09c0-.05 0-.09.05-.09.19-.11.32-.29.44-.46l.07-.1.09-.09s-.05-.05-.09-.05c-.02 0-.03.01-.05.02-.01.01-.02.02-.05.02-.19.19-.42.23-.7.23h-.7s-.14 0-.19.05q0 0 .09.05c.09 0 .19 0 .23.05.09.05.14.14.05.23l-.09.09s-.09.14-.09.19c0 .14.05.23.19.28l.14.05c.05.01.09.02.14.05q0 0 .05.09s0 .09-.05.09l-.42.14c-.14.05-.28.09-.37.19-.05.05-.14.09-.19.09-.09 0-.14-.05-.14-.14s.05-.14.09-.19c-.03-.03-.04-.02-.05-.01 0 0-.02.01-.04.01l-.65.28c-.19.09-.32.19-.32.37 0 .09-.05.14-.09.14a.37.37 0 0 0-.09.02.37.37 0 0 1-.09.02c-.19.05-.37.14-.56.28 0 .03-.02.04-.04.05-.02 0-.03.02-.05.04l-.28.28-.14.14s-.09.14-.09.23c0 .19-.05.32-.19.42 0 .02-.01.03-.02.05-.01.01-.02.02-.02.05-.05.05-.09.09-.14.09-.09 0-.23.05-.28.14 0 .05-.05.05-.05.05-.17.06-.31.17-.44.28-.08.07-.16.13-.25.18-.02.02-.03.05-.05.07-.01.02-.02.05-.05.07 0 .02-.01.04-.02.05-.04.11-.07.2-.03.32.05.19.09.42.09.65a.28.28 0 0 1-.14.37c-.09.09-.19.09-.23 0a1.15 1.15 0 0 1-.23-.7v-.14c0-.09-.09-.19-.19-.14-.09 0-.19 0-.23-.09-.05-.09-.14-.09-.23-.09a.6.6 0 0 0-.2.03c-.05.01-.09.02-.13.02-.09 0-.19.05-.19.14s-.09.09-.14.09l-.28-.05c-.09-.01-.19-.02-.28-.05-.12-.04-.21-.01-.32.03-.02 0-.03.01-.05.02-.19.09-.37.19-.56.32-.14.09-.19.19-.19.32.04.12-.02.24-.07.33 0 .01-.01.03-.02.04-.19.37-.19.7-.09 1.07.05.14.14.28.28.37.01 0 .03.01.04.02.07.04.12.07.24.03h.32c.19 0 .23 0 .28-.19l.05-.14c.01-.05.02-.09.05-.14l.14-.14c.19-.05.42-.09.6-.09.03.03.04.04.05.04h.04c.05.05.09.09.05.19-.07.1-.08.17-.11.26 0 .04-.02.07-.03.11l-.14.28c-.09.14-.14.32-.19.51.05.05.09.05.14.05s.09-.02.12-.03c.02 0 .04-.02.06-.02.23-.09.46 0 .65.14.03.03.04.04.04.05v.04c0 .14 0 .23-.05.37l-.14.51c-.05.14 0 .28.14.37l.09.09c.14.09.23.14.37.05 0-.05.05-.05.05-.05.19-.09.32-.09.51 0 .05.05.09.09.14.09.07 0 .11-.05.15-.1.01-.01.02-.03.03-.04 0-.02.01-.05.02-.07s.02-.05.02-.07c.05-.19.19-.28.37-.32.04 0 .07-.02.1-.02.13-.03.24-.05.31-.16.05-.05.09-.05.14-.05.09 0 .14.05.19.14v.05s.09 0 .05-.14c.02-.02.03-.03.04-.03.02 0 .04 0 .1.03.05.04.11.07.16.09a.77.77 0 0 1 .21.14c.05.05.09.05.14.05.14 0 .23.05.32.09a.14.14 0 0 0 .19 0c.14-.09.28-.09.42-.09h.28c.14 0 .14.05.14.14v.09q0 .23.23.32c.09.05.19.14.23.23a.78.78 0 0 0 .14.19c.14.14.28.19.46.19.16 0 .3.05.43.09.06.02.11.04.17.05l.11.1c.13.11.27.23.3.41.05.14.09.28.14.37.05.05.05.09.05.19 0 .14.05.23.19.23.05 0 .08.03.12.07.03.03.07.07.12.07l.14.05c.05.01.09.02.14.05a1.01 1.01 0 0 0 .15.07c.1.04.21.08.27.21q0 0 .09.05c.14 0 .23.05.32.09a1.21 1.21 0 0 0 .42.05.14.14 0 0 1 .19 0 .85.85 0 0 1 .32.23zm-5.1-17.45s-.03.02-.05.02c0 0-.05.05-.05.09.05 0 .05.05.05.09v.23c0 .09 0 .14.09.14.19 0 .19.05.19.28v.05c.19-.09.32-.19.42-.37-.03-.06-.08-.08-.12-.1-.03-.01-.05-.02-.07-.04-.09-.05-.14-.14-.09-.23 0-.05.05-.09.09-.14.05-.05.14-.14.23-.19v-.05s-.03.01-.05.02c-.01.01-.02.02-.05.02a.78.78 0 0 1-.42.14c-.08-.04-.12-.01-.19.02zm-3.66.71s-.12-.03-.18 0c0 .04 0 .07.01.08.01.02.03.03.08.05.09-.05.19-.05.28-.05-.02-.02-.05-.03-.07-.05-.02-.01-.05-.02-.07-.05h-.05z"/><path d="M109.54 13.92l-.45-.04-.89-.1c-.09 0-.18 0-.28.05s-.14.05-.23.05h-.05v-.05l.12-.07c.03-.02.07-.05.12-.07.09-.05.09-.14 0-.23-.07-.07-.14-.09-.22-.11-.03 0-.07-.02-.1-.03-.18-.05-.32-.05-.51-.05l-.37-.07-.37-.07c.28-.19.05-.19-.09 0l-.05.05h-.19c-.08-.03-.17 0-.25.02-.06.01-.11.03-.17.03-.28.05-.56.09-.79.19-.05 0-.09.05-.09.09 0 .09-.05.09-.14.09-.14 0-.23 0-.37.05h-.14c-.09 0-.09.09-.05.19q0 .09-.05.09c-.09 0-.18 0-.23.05-.06.03-.11.02-.14 0h-.04c-.09-.05-.14-.09-.14-.09q0 0-.09.05l-.07.12c-.02.03-.05.07-.07.12h-.05l-.05-.09c0-.09-.05-.14-.14-.19s-.23-.05-.33 0c-.09 0-.18 0-.18.14 0 .07-.03.11-.06.17-.01.02-.02.04-.04.07-.05.05-.05.09 0 .14s.09.09.09.19v.04h-.04c-.02 0-.05-.01-.07-.02s-.05-.02-.07-.02c-.23-.09-.42-.09-.65-.09-.05 0-.09.05-.09.09v.05s-.06 0-.09-.01c-.05 0-.09-.02-.15.01-.04 0-.08 0-.13.02-.06.01-.12.03-.2.03a.36.36 0 0 1-.32 0c-.09-.05-.14-.05-.23 0l-.56.14c-.09 0-.14.05-.19.14s-.09.09-.14.05q-.09-.05-.05-.14c.03-.05.04-.08.03-.1 0-.01-.01-.02-.03-.04-.02 0-.03-.01-.05-.02-.01-.01-.02-.02-.05-.02h-.1c-.1 0-.21-.02-.31.05.05.09.05.14.05.23 0 .04 0 .07-.01.08-.01.02-.03.03-.08.05a1.85 1.85 0 0 0-.23.09h0s.05-.14 0-.23c-.05-.05-.09-.09-.14-.09-.23-.09-.46-.19-.7-.23l-.32-.07-.32-.07c-.05 0-.09 0-.14-.05-.05-.09-.14-.09-.19-.09-.32-.05-.6-.05-.93-.05-.05 0-.14 0-.19.05-.14.09-.28.14-.46.09-.09 0-.14 0-.23.09s-.19.19-.32.23c-.05 0-.09.05-.09.09-.06.09-.14.16-.23.24a1.66 1.66 0 0 0-.14.13l-.03.03a.24.24 0 0 0-.11.21c-.09.09-.19.19-.28.23-.04 0-.07 0-.11.02-.04.01-.09.03-.17.03-.05 0-.14.05-.19.09-.07.02-.13.06-.19.09s-.12.07-.19.09c-.09.05-.14.09-.14.23 0 .23.05.42.14.6.05.09.14.14.23.14.14 0 .23-.05.32-.09.04-.02.07-.04.09-.07.04-.04.08-.07.14-.07s.11.07.14.12c.02.02.03.05.04.06.02.05.06.09.09.14s.07.09.09.14c.05.05 0 .09-.05.09s-.09.05-.09.05q-.09.05-.09.19v.14h-.05c-.09 0-.19-.09-.14-.19a.55.55 0 0 0 .07-.24c0-.05 0-.1.03-.13 0-.05 0-.09-.05-.09h-.09s-.14.09-.19.09c-.14.09-.23.28-.14.46 0 .05.05.09.05.09.05.09 0 .14-.09.19l-.26.07-.25.07c-.05 0-.14.05-.14.09-.09.19-.23.28-.42.37h-.09l-.09-.09s.09-.09.09-.19c.05-.05 0-.09-.05-.14-.14-.05-.23-.14-.28-.32v-.05c-.08-.05-.13-.13-.18-.22a.95.95 0 0 0-.15-.2c.19-.23.14-.32-.14-.37 0-.02 0-.03.01-.05.01-.03.02-.06-.01-.09-.14-.09-.28-.05-.37.09l-.14.14s-.05.09-.05.14c.05.09.05.19.05.28 0 0 .05.05.05.09.04.04.05.05 0 .08-.01 0-.02 0-.03-.01-.02-.01-.05-.02-.07-.02v.04c-.03 0-.05-.01-.07-.02-.03-.01-.07-.02-.12-.02-.09 0-.19 0-.28.09-.05.05-.09.09-.19.09-.14.05-.19.09-.14.23v.05.09l-.09.09-.05.05c.05.14.14.23.28.14l.09-.06c.06-.04.12-.08.19-.08.14 0 .19-.09.23-.23 0-.05 0-.14.05-.19.08-.08.09-.16.09-.24h.05.05.04c.11 0 .13.06.16.13 0 .02.02.04.02.06.05.09 0 .14-.05.14-.02.01-.04.02-.07.03-.08.03-.15.05-.07.16l-.05.05q-.09.09.05.19l.05.05s-.06.06-.1.09c-.05.03-.11.07-.13.14v.05l.05.05c.05 0 .14 0 .19-.05.09-.05.19-.05.28-.05.14 0 .23 0 .37-.05.09 0 .14 0 .23-.05 0 0 .05 0 .05.05v.05a.39.39 0 0 1-.19.1c-.03.01-.06.02-.09.04h-.09s-.03-.01-.05-.02c-.01-.01-.02-.02-.05-.02-.09 0-.14 0-.14.09q-.05.14-.14.09h-.23s-.09 0-.14.05l-.05.05c0 .09.05.14.14.19.05 0 .09 0 .14.05.19.09.32.23.37.46.05.19 0 .32-.14.51l.23-.15h2.91l-.03-.03c-.09-.09-.09-.14 0-.28.05 0 .14 0 .19.05.02.02.05.04.08.06.04.03.1.07.15.12a.27.27 0 0 0 .07.08l1.41-.03 7.65.08v4.7c.08.01.16.02.23.05.23.05.51.05.74 0 .07 0 .13-.01.19-.02s.12-.02.19-.02c.05 0 .09 0 .14.05.06.12.17.21.27.29l.15.13.03.03a.24.24 0 0 1 .11.21c0 .05.05.09.05.09.05.02.08.06.12.09.03.03.07.07.12.09.05.09.14.14.23.09a.37.37 0 0 0 .09-.02c.04-.01.07-.02.09-.02.05 0 .09 0 .09.05v.09c0 .15.03.28.07.42 0 .03.02.06.02.09.05.32.19.65.37.93.05.05.09.14.09.19.06.22.16.43.27.65l.15.32c.01.02.02.04.03.05.03.06.04.09.11.13.09.09.18.14.28 0 .14-.14.23-.23.32-.42v-.02l.01-.02c.05-.07.07-.11.03-.19-.03-.06-.02-.12-.01-.19 0-.04.01-.08.01-.14-.05-.19-.05-.28-.05-.42v-.23c-.05-.14 0-.19.09-.28.09-.05.23-.14.28-.23 0-.05.05-.05.09-.05.06-.03.1-.08.15-.14.03-.03.05-.06.08-.1.09-.14.23-.28.37-.37.09-.05.14-.14.14-.23s.05-.14.14-.19l-.28-11.59zm-15.16 5.79s-.01-.03-.02-.05c-.01-.01-.02-.02-.02-.05q0 0 .05.09zm4.15-4.47l.02-.02c.03-.01.06-.03.09-.04-.03.03-.07.05-.12.07zm-.34.04c.07 0 .14.02.22-.01.04 0 .08 0 .11-.02-.04.04-.07.08-.07.11a.37.37 0 0 1-.09-.02.37.37 0 0 0-.09-.02l-.09-.03zm-.14-.02c.04-.01.08 0 .14.02h-.01l-.13-.01zm0 0s-.06.08-.1.19c-.09.05-.14-.05-.14-.09s0-.09.05-.09h.19zm5.9 9.93l-.02.73h-4.01s.07.07.12.09c.01.02.02.05.04.07.03.05.06.1.06.17.02.02.03.04.04.07.02.04.04.09.1.12.14.09.19.23.19.42 0 .11.03.19.06.29 0 .03.02.05.03.08.14.05.14.14.09.23q0 0-.09-.05l-.18-.19c-.05-.09-.14-.14-.23-.19-.19-.05-.28-.19-.32-.42 0-.19-.09-.32-.23-.37-.09-.05-.14-.19-.19-.32l-9.18.08v-3.83c-.05.09-.14.19-.28.23-.28.14-.42.37-.46.7 0 .14-.05.28-.19.37l-.09.06c-.1.07-.18.13-.33.17-.09 0-.14.05-.14.14s-.05.19-.14.23c-.09.05-.19.14-.19.23v.14s-.05.14-.09.14a.39.39 0 0 0-.19.19c-.09.14-.19.32-.23.51v.07c0 .07-.02.14.05.21 0 0 .05.05.05.09v.21c0 .21.02.42-.05.63-.02.05-.05.1-.07.16s-.05.12-.07.16c-.05.09-.05.14 0 .23.05.05.05.14.05.23-.05.14 0 .28.14.37.02.02.05.03.07.05.02.01.05.02.07.05.23.19.42.42.51.7 0 .02.01.05.02.07s.02.05.02.07c.02.02.03.04.04.05.02.02.03.04.05.04a.51.51 0 0 1 .28.23c0 .05.05.05.09.05.07.07.15.13.23.19l.23.19c.09.09.19.09.32.05l.42-.14c.09-.05.14-.05.23 0s.23.05.32.05c.03.03.09.02.13 0h.05c.07-.02.15-.06.23-.09l.23-.09c.19-.09.37-.14.51-.14.23 0 .32.05.42.28 0 .05.05.09.09.14 0 .05.05.05.09.05.06.03.12.02.19.01.03 0 .06-.01.09-.01h.28l.05.05c.14.09.19.23.14.42q0 0-.05.09s0 .06-.01.09c0 .05-.02.09.01.15 0 .14 0 .23-.09.32-.05.09-.05.19 0 .23.03.1.09.17.15.26l.08.11.14.19c.05.06.09.12.14.19.05.05.09.14.09.23 0 .14.05.23.09.32.05.09.09.19.14.32-.05.19-.05.42.09.6q0 0 .05.09c.05.14 0 .28-.09.37-.13.13-.18.33-.22.51v.05c.17.32.17.51.17.7 0 .09 0 .19.09.28l.14.28 5-.17c.1-.11.2-.22.33-.3h.04v-.04c.09-.03.16-.08.22-.12.04-.03.07-.05.11-.07.18-.14.28-.37.23-.6 0-.09 0-.14-.05-.23 0-.14 0-.28-.05-.37 0-.03 0-.06.01-.09 0-.05.02-.09-.01-.15 0-.09-.05-.14-.09-.19a.43.43 0 0 1-.14-.32c0-.13 0-.23.05-.37.05-.09 0-.14-.09-.14a.14.14 0 0 1 0-.19l.07-.14c.07-.15.15-.32.26-.46l.14-.14c.14-.09.23-.23.33-.37.05-.09.14-.19.23-.28.09-.14.19-.23.33-.28a1.17 1.17 0 0 0 .42-.37 2.96 2.96 0 0 0 .37-.65c.07-.12.13-.24.19-.37l.19-.37c.07-.14.06-.28.05-.42v-.14-.05s-.05-.05-.09-.05c-.02 0-.05.01-.07.02s-.05.02-.07.02c-.09.05-.23.09-.37.14-.09 0-.23 0-.32.09-.03.03-.06.02-.09.01-.01 0-.03-.01-.05-.01h-.04c-.05 0-.11-.02-.15.05h-.09c-.09 0-.19-.05-.23-.14-.05-.09-.05-.19-.05-.32.03 0 .06 0 .09.01.06.01.12.02.19-.01.02 0 .04-.02.06-.03.09-.05.2-.11.31-.11.02 0 .05-.01.07-.02s.05-.02.07-.02c.06-.04.13-.06.21-.08.11-.03.22-.07.3-.15.02-.02.05-.02.07-.02s.05 0 .07-.02c.09 0 .18-.05.28-.09.03 0 .04-.02.06-.04 0-.02.02-.03.04-.05.05 0 .05-.05.05-.09 0-.09.09-.19.18-.19h.08l.02-.02c.13-.04.29-.09.41-.21.1-.03.16-.09.21-.16.02-.02.04-.05.07-.07.09 0 .19-.05.19-.14s.05-.19.09-.23c.09-.09.14-.23.19-.37v-.14c-.07-.07-.11-.14-.17-.22zm-13.74-3.48l.09-1.58.7.05c-.23-.05-.46-.05-.7-.05-.14 0-.28.05-.37.09l-.04.04v.09c.05.28 0 .51-.09.74 0 .05-.05.09-.05.09 0 .02 0 .04-.01.05 0 .02-.02.04.01.04.06.06.06.11.07.17 0 .04 0 .07.03.11 0 .08.03.09.09.12.01 0 .03.01.05.02h.23zm4.22-4.13c-.09-.05-.14-.05-.19-.05-.02 0-.03 0-.04.01-.02 0-.03.02-.05-.01q0 0 .05.05c.09 0 .19.05.23.09.04.07.1.06.15.05h.04l.23-.07.23-.07c.03 0 .07 0 .1-.01.06 0 .11-.02.14.01.09.05.19 0 .23-.05.02-.02.03-.05.05-.07.01-.02.02-.05.05-.07 0-.09 0-.19.05-.28.05-.19.14-.23.32-.19 0 0 .05.05.09.05s.05-.05.05-.05v-.14s-.05-.14 0-.19c0-.05.09-.09.14-.09.09-.03.16-.02.24-.01.04 0 .08.01.13.01.09.05.14 0 .19-.14h-.23s-.05.05-.09.05h-.14c-.19.09-.37.09-.56.05-.09 0-.19-.09-.19-.19 0-.02-.01-.05-.02-.07s-.02-.05-.02-.07c-.05-.19-.05-.28.14-.42a.85.85 0 0 0 .32-.23c0-.02.01-.05.02-.07s.02-.05.02-.07h-.32l-.05.04c-.02.02-.04.03-.04.05 0 .14-.09.23-.19.28-.07.07-.17.11-.25.15-.03.01-.05.02-.07.03-.09.05-.14.14-.14.23v.14a.93.93 0 0 1 .23.19c.05.05.05.09 0 .19a.39.39 0 0 1-.19.19c-.05 0-.09.05-.14.09 0 .07-.01.13-.02.19s-.02.12-.02.19c0 .09-.05.14-.14.14-.05 0-.09.05-.14.09-.05.05-.14.05-.19.05z"/></g><rect x="10.5" y="10.5" width="47" height="25" rx="1.5" class="Q R"/><path d="M13.75,13h7.5c.41,0,.75.34.75.75h0c0,.41-.34.75-.75.75h-7.5c-.41,0-.75-.34-.75-.75h0c0-.41.34-.75.75-.75Z" class="P"/><path d="M13.75,15.5h4.5c.41,0,.75.34.75.75h0c0,.41-.34.75-.75.75h-4.5c-.41,0-.75-.34-.75-.75h0c0-.41.34-.75.75-.75Z" class="S"/><path d="M43.75,13h10.5c.41,0,.75.34.75.75h0c0,.41-.34.75-.75.75h-10.5c-.41,0-.75-.34-.75-.75h0c0-.41.34-.75.75-.75Z" class="P"/><path d="M47.75,15.5h6.5c.41,0,.75.34.75.75h0c0,.41-.34.75-.75.75h-6.5c-.41,0-.75-.34-.75-.75h0c0-.41.34-.75.75-.75Z" class="S"/><path d="M23.34 21.96h.61c.1.01.21 0 .31-.05a.63.63 0 0 0 .26-.2c.13-.2.19-.44.18-.69 0-.23-.06-.46-.18-.64-.07-.08-.16-.15-.25-.19s-.19-.06-.29-.05a.71.71 0 0 0-.51.21c-.07.07-.12.16-.15.26a1.06 1.06 0 0 0-.05.31h-1.05c-.01-.25.03-.49.11-.71s.21-.42.38-.57c.35-.34.8-.53 1.25-.51.48-.03.96.15 1.34.5.16.17.29.39.37.63a1.92 1.92 0 0 1 .1.75 1.65 1.65 0 0 1-.22.82c-.15.27-.36.48-.61.61.28.11.52.32.68.61a1.78 1.78 0 0 1 .24.94 2.16 2.16 0 0 1-.12.8 1.66 1.66 0 0 1-.42.64c-.39.36-.88.55-1.38.52-.46.02-.91-.15-1.28-.49a1.5 1.5 0 0 1-.41-.62 1.85 1.85 0 0 1-.11-.78h1c0 .12.01.23.05.34s.1.21.17.29a.7.7 0 0 0 .56.25c.11 0 .22-.01.32-.06s.19-.12.27-.21.14-.2.17-.32a1.18 1.18 0 0 0 .05-.37c.02-.14 0-.28-.03-.41-.04-.13-.1-.25-.18-.35s-.18-.17-.29-.22c-.11-.04-.23-.06-.34-.04h-.61l.06-1.02zm6.94 3.89h-3.67v-.87l1.74-2.31a5.11 5.11 0 0 0 .54-.9 1.74 1.74 0 0 0 .16-.68c0-.25-.06-.49-.19-.69a.66.66 0 0 0-.23-.21c-.09-.05-.19-.06-.29-.06a.6.6 0 0 0-.32.07.64.64 0 0 0-.25.24 1.69 1.69 0 0 0-.19.83h-1.05a2.5 2.5 0 0 1 .11-.82c.08-.26.21-.5.37-.7.17-.21.38-.38.61-.49s.48-.16.73-.14c.48-.03.95.16 1.31.53.16.18.28.41.36.65a2.21 2.21 0 0 1 .11.77c0 .39-.08.78-.26 1.11-.27.47-.57.92-.89 1.34l-1 1.28h2.3v1.02zm1.08-6.3c0-.11.02-.22.08-.3.03-.04.07-.07.11-.09s.09-.03.13-.03c.05 0 .09 0 .13.03.04.02.08.05.11.09.06.09.09.19.08.3 0 .11-.02.22-.08.3-.03.04-.07.07-.11.09s-.09.03-.13.03c-.05 0-.09 0-.13-.03s-.08-.05-.11-.09c-.06-.09-.09-.19-.08-.3zm.18 0c-.01.06-.01.12 0 .18a.12.12 0 0 0 .05.05c.02.01.04.02.07.02.02 0 .04 0 .06-.02.02-.01.03-.03.04-.05.03-.05.04-.11.04-.18 0-.05 0-.1-.02-.15 0-.02-.03-.04-.04-.05-.02-.01-.04-.02-.06-.01-.02 0-.04 0-.06.02-.02.01-.03.03-.04.05-.03.05-.04.11-.04.18l.02-.03zm1.88.85c0 .09 0 .18-.03.26s-.07.16-.12.23c-.13.12-.29.19-.45.18-.09 0-.18-.01-.26-.05s-.15-.1-.21-.18a.72.72 0 0 1-.14-.26c-.03-.1-.05-.2-.04-.31v-.37c0-.21.05-.41.17-.57.13-.13.29-.21.46-.21s.33.07.46.21a.61.61 0 0 1 .13.22c.03.08.04.18.04.27h-.31c0-.11-.02-.21-.07-.29-.03-.04-.07-.06-.11-.08s-.08-.02-.13-.02c-.04 0-.08.03-.11.05-.03.03-.06.06-.08.1-.06.11-.09.23-.08.36v.37c0 .13.03.26.09.36.03.04.06.08.11.1.04.02.09.04.13.03.04 0 .08 0 .12-.02s.07-.04.1-.08c.06-.08.08-.18.07-.28l.28-.04z" class="P"/><g class="S"><path d="M35.36 19.55c0-.11.02-.22.08-.3.03-.04.07-.07.11-.09s.09-.03.13-.03c.05 0 .09 0 .13.03.04.02.08.05.11.09.06.09.09.19.08.3 0 .11-.02.22-.08.3-.03.04-.07.07-.11.09s-.09.03-.13.03c-.05 0-.09 0-.13-.03-.04-.02-.08-.05-.11-.09-.06-.09-.09-.19-.08-.3zm.18 0c-.01.06-.01.12 0 .18a.12.12 0 0 0 .05.05c.02.01.04.02.07.01.02 0 .04 0 .06-.02s.03-.03.04-.05c.03-.05.04-.11.04-.18 0-.05 0-.1-.02-.15 0-.02-.03-.04-.04-.05-.02-.01-.04-.02-.06-.01-.02 0-.04 0-.06.02-.02.01-.03.03-.04.05-.03.05-.04.11-.04.18l.02-.03zm1.67.72h-.63v.81h-.32v-1.96h1.1v.3h-.78v.54h.67l-.03.3z"/><rect x="34.36" y="19.13" width=".25" height="2" rx=".13"/></g><path d="M21.18 24.22c0 .46-.18.91-.51 1.23-.33.33-.77.51-1.23.51h-4.48a1.99 1.99 0 0 1-1.38-.6c-.36-.37-.57-.88-.57-1.4a2 2 0 0 1 .57-1.4 1.99 1.99 0 0 1 1.38-.6h.06a1.91 1.91 0 0 1 .58-.96c.29-.25.64-.42 1.02-.47s.77.02 1.11.19.62.45.81.79c.09-.02.19-.03.29-.03a1.29 1.29 0 0 1 .84.32c.23.21.38.49.42.8.32.13.6.35.8.64s.3.63.3.98h0zm22.57-3.32h10.5c.41 0 .75.34.75.75h0c0 .41-.34.75-.75.75h-10.5c-.41 0-.75-.34-.75-.75h0c0-.41.34-.75.75-.75z" class="P"/><g class="S"><path d="M47.5,23.4h7c.28,0,.5.22.5.5h0c0,.28-.22.5-.5.5h-7c-.28,0-.5-.22-.5-.5h0c0-.28.22-.5.5-.5Z"/><use href="#F"/></g><g class="P"><use href="#G"/><path d="M25,31h0c.55,0,1,.45,1,1h0c0,.55-.45,1-1,1h0c-.55,0-1-.45-1-1h0c0-.55.45-1,1-1Z"/></g><use href="#F" x="17.5" y="0.25" class="S"/><use href="#G" x="17.5" class="P"/><use href="#F" x="32" y="0.25" class="S"/><use href="#G" x="32" class="P"/><g class="R"><rect x="62.5" y="10.5" width="47" height="25" rx="1.5" fill="none"/><rect x="10.5" y="40.5" width="99" height="29" rx="1.5" class="Q"/></g><path d="M10 50h100v10H10V50z" class="Q"/><g mask="url(#A)" class="P"><path d="M10 50v-1H9v1h1zm100 0h1v-1h-1v1zM10 51h100v-2H10v2zm99-1v10h2V50h-2zM11 60V50H9v10h2z"/></g><g class="Q"><path d="M10.5 60.5h99V66l-.07 2.13c-.07.49-.19.75-.37.93s-.44.3-.93.37c-.5.07-1.17.07-2.13.07H14c-.96 0-1.62 0-2.13-.07-.49-.07-.75-.19-.93-.37s-.3-.44-.37-.93c-.07-.5-.07-1.17-.07-2.13v-5.5z" class="R"/><path d="M10 44c0-1.89 0-2.83.59-3.41S12.12 40 14 40h92c1.89 0 2.83 0 3.41.59s.59 1.53.59 3.41v6H10v-6z"/></g><g mask="url(#B)" class="P"><path d="M9 42c0-1.66 1.34-3 3-3h96c1.66 0 3 1.34 3 3h-2c0-.55-.45-1-1-1H12c-.55 0-1 .45-1 1H9zm101 8H10h100zM9 50v-8c0-1.66 1.34-3 3-3v2c-.55 0-1 .45-1 1v8H9zm99-11c1.66 0 3 1.34 3 3v8h-2v-8c0-.55-.45-1-1-1v-2z"/></g><g class="P"><path d="M14.75,44.25h6.5c.41,0,.75.34.75.75h0c0,.41-.34.75-.75.75h-6.5c-.41,0-.75-.34-.75-.75h0c0-.41.34-.75.75-.75Z"/><use href="#H"/><use href="#H" x="6"/><path d="M55 45.72c0 .34-.14.67-.38.91s-.57.38-.91.38h-3.29c-.38 0-.75-.17-1.02-.44a1.45 1.45 0 0 1-.42-1.03 1.47 1.47 0 0 1 .42-1.03 1.49 1.49 0 0 1 1.02-.44h.04c.07-.27.22-.52.43-.71s.47-.31.75-.34c.28-.04.56.01.81.14s.46.33.59.58c.07-.02.14-.02.21-.02.23 0 .45.09.62.24a.95.95 0 0 1 .31.59c.24.09.44.26.59.47a1.3 1.3 0 0 1 .22.72h0zm2.75-1.47h5.5c.41 0 .75.34.75.75h0c0 .41-.34.75-.75.75h-5.5c-.41 0-.75-.34-.75-.75h0c0-.41.34-.75.75-.75z"/><use href="#I"/><use href="#I" x="14"/></g><path d="M100,43.5l3,3,3-3" fill="none" class="R T V W"/><g class="P"><path d="M14.75,54.25h6.5c.41,0,.75.34.75.75h0c0,.41-.34.75-.75.75h-6.5c-.41,0-.75-.34-.75-.75h0c0-.41.34-.75.75-.75Z"/><use href="#J"/><use href="#J" x="6"/><path d="M55 55.72c0 .34-.14.67-.38.91s-.57.38-.91.38h-3.29c-.38 0-.75-.17-1.02-.44a1.45 1.45 0 0 1-.42-1.03 1.47 1.47 0 0 1 .42-1.03 1.49 1.49 0 0 1 1.02-.44h.04c.07-.27.22-.52.43-.71s.47-.31.75-.34c.28-.04.56.01.81.14s.46.33.59.58c.07-.02.14-.02.21-.02.23 0 .45.09.62.24a.95.95 0 0 1 .31.59c.24.09.44.26.59.47a1.3 1.3 0 0 1 .22.72h0zm2.75-1.47h5.5c.41 0 .75.34.75.75h0c0 .41-.34.75-.75.75h-5.5c-.41 0-.75-.34-.75-.75h0c0-.41.34-.75.75-.75z"/><use href="#K"/><use href="#K" x="14"/></g><path d="M100,53.5l3,3,3-3" fill="none" class="R T V W"/><g class="P"><path d="M14.75,64.25h6.5c.41,0,.75.34.75.75h0c0,.41-.34.75-.75.75h-6.5c-.41,0-.75-.34-.75-.75h0c0-.41.34-.75.75-.75Z"/><use href="#L"/><use href="#L" x="6"/><path d="M55 65.72c0 .34-.14.67-.38.91s-.57.38-.91.38h-3.29c-.38 0-.75-.17-1.02-.44a1.45 1.45 0 0 1-.42-1.03 1.47 1.47 0 0 1 .42-1.03 1.49 1.49 0 0 1 1.02-.44h.04c.07-.27.22-.52.43-.71s.47-.31.75-.34c.28-.04.56.01.81.14s.46.33.59.58c.07-.02.14-.02.21-.02.23 0 .45.09.62.24a.95.95 0 0 1 .31.59c.24.09.44.26.59.47a1.3 1.3 0 0 1 .22.72h0zm2.75-1.47h5.5c.41 0 .75.34.75.75h0c0 .41-.34.75-.75.75h-5.5c-.41 0-.75-.34-.75-.75h0c0-.41.34-.75.75-.75z"/><use href="#M"/><use href="#M" x="14"/></g><path d="M100,63.5l3,3,3-3" fill="none" class="R T V W"/><path d="M90.47 20a.47.47 0 0 0-.47.47v5.6a.47.47 0 0 0 .47.47h5.1l1.24 1.68c.1.13.29.13.39 0l1.24-1.68h5.1a.47.47 0 0 0 .47-.47v-5.6a.47.47 0 0 0-.47-.47H90.47z" class="Q U"/><g mask="url(#C)"><path d="M95.56 26.53l.2-.15-.07-.1h-.13v.25zm1.25 1.68l.2-.15h0l-.2.15zm.38 0l-.2-.15.2.15zm1.25-1.68v-.25h-.13l-.07.1.2.15zm-8.19-6.06c0-.12.1-.22.22-.22v-.5c-.4 0-.72.32-.72.72h.5zm0 5.6v-5.6h-.5v5.6h.5zm.22.21c-.12 0-.22-.1-.22-.22h-.5c0 .4.32.72.72.72v-.5zm5.09 0h-5.1v.5h5.1v-.5zm1.45 1.78l-1.24-1.68-.4.3 1.24 1.68.4-.3zm-.02 0l-.4.3a.5.5 0 0 0 .79 0l-.4-.3zm1.25-1.68L97 28.06l.4.3 1.24-1.68-.4-.3zm5.29-.1h-5.1v.5h5.1v-.5zm.22-.21c0 .12-.1.22-.22.22v.5c.4 0 .72-.32.72-.72h-.5zm0-5.6v5.6h.5v-5.6h-.5zm-.22-.22c.12 0 .22.1.22.22h.5c0-.4-.32-.72-.72-.72v.5zm-13.06 0h13.07v-.5H90.47v.5z" fill="#647580"/></g><g class="P"><path d="M102.26 22.94a.63.63 0 0 1-.33-.09.59.59 0 0 1-.23-.24.63.63 0 0 1-.09-.33.63.63 0 0 1 .09-.33c.06-.1.14-.18.23-.24a.63.63 0 0 1 .33-.09.63.63 0 0 1 .33.09.69.69 0 0 1 .24.24.63.63 0 0 1 .09.33.63.63 0 0 1-.09.33.69.69 0 0 1-.24.24.63.63 0 0 1-.33.09zm0-.38a.23.23 0 0 0 .14-.04c.04-.02.07-.06.1-.1.02-.04.04-.09.04-.14a.23.23 0 0 0-.04-.14c-.02-.04-.06-.07-.1-.1-.04-.02-.09-.04-.14-.04a.23.23 0 0 0-.14.04c-.04.02-.07.06-.1.1a.23.23 0 0 0-.04.14.23.23 0 0 0 .04.14c.02.04.06.07.1.1.04.02.09.04.14.04zm-2.05 1.84c-.19 0-.35-.03-.5-.1a.89.89 0 0 1-.35-.28c-.09-.12-.13-.26-.13-.42h.56c0 .11.05.19.13.26s.18.1.29.1c.09 0 .17-.02.24-.06s.12-.1.16-.17.06-.16.06-.25-.02-.18-.06-.25a.46.46 0 0 0-.17-.17c-.07-.04-.15-.06-.24-.06-.08 0-.16.02-.23.05s-.13.08-.17.13l-.51-.09.13-1.43h1.66v.47h-1.19l-.07.68h.02a.56.56 0 0 1 .22-.17c.1-.04.2-.07.32-.07a.83.83 0 0 1 .44.12.77.77 0 0 1 .3.32c.07.13.11.29.11.46 0 .18-.04.35-.13.49-.08.14-.2.25-.36.33a1.12 1.12 0 0 1-.53.12z"/><path d="M97.76 24.4c-.2 0-.37-.03-.53-.1-.15-.07-.28-.16-.36-.28-.09-.12-.13-.26-.14-.42h.58c0 .07.03.12.07.17s.09.09.16.12.14.04.23.04.16-.02.23-.05.12-.07.16-.13c.04-.05.06-.12.06-.19s-.02-.14-.06-.19a.37.37 0 0 0-.17-.13c-.07-.03-.16-.05-.27-.05h-.25v-.42h.25c.09 0 .16-.01.23-.04s.12-.07.16-.12.06-.12.06-.19-.02-.13-.05-.18-.08-.09-.14-.12a.42.42 0 0 0-.2-.04c-.08 0-.15.01-.21.04a.48.48 0 0 0-.16.12.28.28 0 0 0-.06.18h-.55c0-.16.05-.29.13-.41a.89.89 0 0 1 .35-.28c.15-.07.31-.1.5-.1s.35.03.49.1.25.16.33.28c.08.11.12.24.12.39s-.05.28-.14.38-.22.17-.37.19v.02c.2.03.35.09.46.21.11.11.16.25.16.42 0 .15-.04.29-.13.41s-.21.21-.37.28-.34.1-.54.1z"/></g><g stroke-miterlimit="10" stroke-width=".05"><path d="M95.23 22.55h-.03a1.14 1.14 0 0 0-.09-.77c-.12-.24-.32-.42-.57-.53a1.13 1.13 0 0 0-.77-.03c-.25.08-.47.25-.61.47-.11-.07-.24-.1-.37-.1s-.26.03-.37.1-.21.16-.28.27-.1.24-.1.37c0 .04 0 .08.01.12-.19.04-.37.15-.49.31s-.17.36-.16.55c.02.2.11.38.26.51s.34.21.53.21h.05 2.98a.75.75 0 0 0 .75-.75.75.75 0 0 0-.75-.75z" fill="url(#D)" stroke="#e6effc"/><path d="M93.47,23.03l-.43,1.28h.43l-.21,1.06,1.06-1.49h-.64l.43-.85h-.64Z" fill="url(#E)" stroke="#f6a823"/></g></svg>