<svg xmlns="http://www.w3.org/2000/svg" width="120" height="80" fill="none" xmlns:v="https://vecta.io/nano"><style><![CDATA[.B{fill:#58707f}.C{fill:#fff}.D{fill:#9fabb4}.E{stroke:#8796a1}.F{stroke-width:.5}.G{fill-rule:evenodd}.H{stroke:#58707f}]]></style><rect x=".75" y=".75" width="118.5" height="78.5" rx="2.25" class="C"/><rect x=".75" y=".75" width="118.5" height="78.5" rx="2.25" stroke-width="1.5" class="E"/><g class="B G"><path d="M78.761 13.362h0zm10.013 1.066c0-.046.093-.046.093-.046.093-.046.139-.093.139-.139 0-.093 0-.185-.093-.232-.046-.046-.093-.046-.185-.093v-.046s0-.046.046-.046c.139 0 .232-.046.371-.046s.278-.139.371-.232c.046-.046.046-.093.093-.139s.046-.093 0-.139c-.046-.093-.046-.093.046-.139.139-.046.139-.093.046-.232v-.046l.046-.046c.139-.093.278-.139.464-.232l.649-.139c.046 0 .046-.046.093-.046v-.046c-.046 0-.046 0-.093-.046-.232 0-.464-.046-.695 0h-.232c-.046 0-.093 0-.093-.046-.046-.046-.139-.093-.232-.093-.417-.139-.788-.185-1.159-.139-.185.046-.417.093-.603.046-.325-.046-.649 0-.974.093h-.185-.139c-.232 0-.51 0-.742.046-.463.046-.973.046-1.437.185-.046 0-.093 0-.139.046-.139 0-.232.046-.371.046-.046 0-.139.046-.139.139 0 .046-.093.046-.093.046-.186.046-.417.046-.603.093h-.093c-.093.046-.185 0-.278.093.046.093.046.185.093.278 0 .046.046.046.093.046.093.046.232.093.324.046.232-.046.464 0 .649.046.278.046.417.278.371.556 0 .046-.046.093-.046.139s0 .093.046.093c.093 0 .139.046.232.046.046 0 .093.046.046.093h-.046c-.185 0-.232.046-.093.232 0 0 0 .046.046.046.046.046 0 .093-.046.093s-.093 0-.139.046a.45.45 0 0 0-.371.463c0 .232.046.464.093.695 0 .093.093.232.139.325s.093.139.232.139c.139-.046.232 0 .278.093l.093.093c.046.046.139.046.186 0 .139-.139.325-.232.371-.464a.1.1 0 0 1 .093-.093c.139-.046.232-.185.278-.325.046-.046.093-.093.093-.139.046-.046.139-.093.185-.093.093 0 .185 0 .232-.046.093-.046.185.046.232 0h.046c.232-.046.464-.139.649-.324.093-.093.232-.186.371-.139h.093a5.37 5.37 0 0 0 .927-.232c.185 0 .325-.046.371-.139zM74.959 24.997c-.185 0-.325.046-.463.139a.56.56 0 0 0-.232.232v.093h.046a.35.35 0 0 0 .232-.093.51.51 0 0 1 .371 0c.093.046.185.046.232.093.139.046.278.093.371.185a.64.64 0 0 1 .139.185c0 .093.046.093.139.093s.185 0 .278.046h.185c.046 0 .093 0 .139-.046s.046-.139 0-.185-.139-.093-.185-.093c-.139-.093-.278-.139-.417-.278-.232-.186-.51-.278-.788-.371.046 0 0 0-.046 0zm.418-11.728h.046c.139 0 .278 0 .417-.046.093-.046.185-.093.325-.046-.046.046-.139.093-.185.093s-.046.046-.093.046v.046c.046 0 .046.046.093.046a3.51 3.51 0 0 0 1.391 0c.093 0 .139-.046.185-.139 0-.046 0-.093-.046-.093h-.139c-.093-.093-.139-.093-.232-.046-.046.046-.093.046-.093.093-.046.046-.139.046-.185 0-.139-.093-.325-.093-.417-.232 0 0-.046-.046-.093-.046h-.185c-.278 0-.556.093-.834.139h-.046c.046.139.046.139.093.185-.046 0-.046 0 0 0zm4.079-.185h-.093a.21.21 0 0 0-.232 0c-.046 0-.046.046-.046.046s0 .046.046.046c.046.046.046.046.093.046.093 0 .185 0 .232-.046h.046s-.046-.046-.046-.093z"/><path d="M79.502 13.223h0c.046 0 0-.046 0 0zm-3.105 13.072c.185.046.371.093.603.046.186-.046.325-.093.51-.093.046 0 .046 0 .093-.046v-.093c-.139-.139-.325-.139-.51-.232-.139.046-.278 0-.417 0-.046 0-.093.046-.046.093 0 .046.046.093.093.185-.093 0-.185.046-.278.046-.046 0-.046 0-.046.046-.093 0-.046.046 0 .046zm12.609-10.523c.093.046.185 0 .278-.046.139-.046.278-.093.417-.185.139 0 .232-.046.278-.139.046-.046.046-.093 0-.093-.093-.093-.139-.232-.325-.185h-.139c-.093 0-.139 0-.185.046-.093 0-.232-.046-.325 0s-.186 0-.278-.046-.232-.046-.325.046c0 .093-.046.093-.046.185 0 .046.093.046.139.046h.093l.046.046c-.046.093 0 .185 0 .278.093 0 .232.046.371.046zm-10.199-2.457c.046-.046.046-.046.046-.093s-.046-.046-.093-.046c-.185-.046-.417 0-.556.139-.046-.093-.139-.139-.278-.139-.046 0-.046 0-.093.046 0 .046 0 .093.046.093.046.046.139.046.232.046h.093c.093.139.232.093.417.046.046 0 .093-.093.186-.093zm29.9 15.159c-.046-.093-.092-.185-.232-.185-.092.093-.092.185-.092.278-.047.232 0 .417.092.603.047.093.047.093.14.093.046 0 .092 0 .092-.046.186-.139.232-.232.139-.464l-.139-.278z"/><path d="M78.575 12.852c.093.093.232.093.325.139.093 0 .139 0 .185-.046s.046-.139 0-.139a.86.86 0 0 0-.325-.093c-.046 0-.093 0-.139.046-.093-.046-.093.046-.046.093zm.927.185c.046 0 .139 0 .185-.046 0 0 .046 0 .046-.046 0 0 0-.046-.046-.046-.093-.046-.185-.046-.278-.093-.046 0-.093 0-.093.046-.046.046 0 .093.046.093 0 .046.046.093.139.093zm-2.317 0c.046.046.093.046.139.046.093 0 .139 0 .232-.093.046 0 0-.046 0-.093a.45.45 0 0 0-.417.046c0 .046 0 .046.046.093zm.695 13.166c-.046 0-.046.046-.046.093a.1.1 0 0 0 .093.093h.046c.093 0 .186-.046.186-.093s-.093-.093-.186-.093c-.046-.046-.093-.046-.093 0zm-2.04-1.345c.046-.093 0-.185-.093-.232h-.046l-.046.046c-.046.093-.046.185.046.232.139 0 .139-.046.139-.046zm17.662 4.821c.046.046.046.046 0 0 .046 0 .046 0 .046-.046-.046 0-.046.046-.046.046zm0 .139c.046 0 .046 0 .046-.046v-.046c-.046 0-.046 0-.046.093 0-.046 0-.046 0 0zM76.118 24.58c0-.046 0-.046-.046-.046 0 0-.046 0-.046.046 0 0 .046.046.093 0zm25.95 8.967c.032.055.057.098.057.165a1.08 1.08 0 0 0 .006.103c.008.086.015.154-.053.222.047.093.047.232-.046.325s-.139.232-.139.371-.047.278-.093.417l-1.205.51c.139-.232.232-.464.139-.695-.046-.139 0-.278.093-.417.046-.046.092-.093.185-.139.027-.027.038-.038.052-.043s.021-.004.041-.004c.232-.046.417-.232.51-.417.046-.093.092-.185.139-.232s.092-.139.139-.232c.046-.046.139-.046.139 0l.036.066z"/><path d="M83.675 31.441c.139.139.278.232.464.278.139.046.185.139.139.232.139.371.093.742-.139 1.02l-.255.348-.255.348c-.093.139-.139.325-.093.51.093.232.046.51-.046.742-.046.093-.046.139-.046.232l-6.258.371c0-.139 0-.232-.046-.371 0-.056-.034-.095-.071-.138-.024-.028-.05-.057-.068-.094a1.57 1.57 0 0 0-.649-.417c-.325-.093-.463-.278-.603-.556l-.255-.487-.255-.487c-.071-.071-.115-.169-.152-.252l-.034-.072c-.093-.185-.185-.371-.371-.464-.046-.046-.093-.093-.093-.139 0-.093 0-.139-.046-.232 0-.093 0-.139.046-.232.046-.046.046-.093-.139-.046l.016-.03c.039-.074.066-.125-.016-.248a.42.42 0 0 1 0-.464c.046-.046.093-.093.093-.139 0-.139.046-.232.185-.278a.1.1 0 0 0 .093-.093c.046-.093.093-.185.139-.232.278-.278.278-.603.186-.927-.02-.061-.05-.113-.076-.16-.034-.06-.063-.112-.063-.164 0-.093-.139-.139-.185-.139-.093 0-.139.046-.139.139 0 .139-.139.185-.278.093-.093-.093-.185-.139-.278-.139-.023-.023-.058-.046-.093-.069a.65.65 0 0 1-.093-.07c-.093-.139-.185-.232-.325-.278-.093-.046-.139-.139-.093-.232.046-.046.046-.093-.046-.139-.062 0-.082-.041-.103-.083a.21.21 0 0 0-.036-.057c-.046-.139-.185-.232-.371-.232-.046 0-.139 0-.185-.046a.42.42 0 0 0-.325-.139.64.64 0 0 1-.185-.139c-.023-.046-.058-.081-.093-.116s-.069-.069-.093-.116a.36.36 0 0 0-.371-.093c-.185.046-.371.046-.51-.046-.046 0-.093 0-.093-.046-.023 0-.046-.012-.07-.023s-.046-.023-.07-.023c-.046 0-.093-.046-.093-.046-.046 0-.046 0-.093-.046l-.072-.033c-.084-.037-.181-.081-.252-.152-.023 0-.035-.012-.046-.023s-.023-.023-.046-.023c-.119-.059-.219-.138-.312-.211l-.152-.114c-.185-.139-.232-.278-.185-.463 0-.023.012-.035.023-.046s.023-.023.023-.046c.046-.093.046-.186 0-.278-.018-.035-.029-.064-.038-.088-.015-.04-.026-.068-.055-.097 0-.023-.011-.035-.023-.046s-.023-.023-.023-.046c-.093-.186-.185-.325-.325-.417-.046-.046-.093-.093-.093-.139 0-.181-.085-.334-.166-.48l-.066-.123c-.093-.139-.139-.324-.139-.51v-.139a.1.1 0 0 0-.093-.093c-.078-.039-.09-.012-.12.053l-.019.04c0 .093 0 .185.046.232.136.171.198.391.257.607l.067.228c.046.185.093.325.185.463.046.093.046.139.046.232 0 .046 0 .046-.046.093s-.046.046-.093 0a.63.63 0 0 1-.07-.093c-.023-.035-.046-.069-.07-.093-.185-.093-.278-.232-.232-.417.046-.046 0-.093-.046-.093 0 0-.046-.046-.093-.046a.36.36 0 0 1-.185-.185c-.046-.093-.046-.139.046-.232.139-.139.139-.139.046-.232-.093-.139-.139-.232-.139-.371a1.74 1.74 0 0 0-.023-.232l-.023-.232c0-.232-.139-.371-.325-.417-.139-.046-.185-.093-.185-.232-.046-.185-.046-.371-.046-.556 0-.023-.012-.058-.023-.093s-.023-.07-.023-.093c0-.031-.005-.062-.01-.093-.01-.062-.021-.124.01-.185-.036-.109.013-.189.058-.264l.035-.061.139-.278a.49.49 0 0 1 .112-.179c.028-.032.054-.062.073-.099.069-.116.151-.22.232-.325l.232-.325c.093-.139.185-.278.232-.464.046-.093.046-.185-.046-.232-.093-.093-.139-.185-.139-.278s0-.139.046-.139c.093 0 .093-.046.093-.139 0-.046 0-.093.046-.139.046-.139.046-.232.046-.371 0-.093 0-.185.046-.278.069-.07.061-.139.052-.209l-.006-.07c0-.046 0-.139-.046-.185v-.139-.093c0-.046-.046-.046-.093-.046-.029 0-.04-.018-.055-.042-.009-.015-.02-.033-.038-.051-.046-.093-.093-.185-.185-.232-.088 0-.175-.021-.267-.043-.103-.024-.213-.05-.335-.05-.046 0-.139-.046-.185-.093-.139-.046-.232-.046-.325.046-.093.139-.232.185-.417.232-.11 0-.191.029-.289.064l-.082.029c-.046.046-.093 0-.139-.046-.035-.07-.07-.061-.104-.052-.012.003-.023.006-.035.006-.046 0-.093.046-.046.093l-.695.278a3.76 3.76 0 0 1-.585.264l-.156.061c-.046.023-.104.046-.162.07l-.162.07c-.104.069-.209.061-.313.052l-.104-.006c-.046 0-.093 0-.093-.046-.046-.046 0-.093.046-.093.069-.023.127-.058.185-.093s.116-.07.185-.093c.185-.093.325-.185.464-.278.023 0 .035-.012.046-.023s.023-.023.046-.023c.046 0 .046-.046.046-.046h-.046-.139-.139c-.046 0-.093 0-.093-.046 0-.056-.034-.095-.071-.138-.024-.028-.05-.057-.068-.094v-.139s0-.046.046-.046.046-.046.046-.046c.046-.139.185-.232.325-.278l.293-.119c.26-.11.515-.218.819-.252-.093-.093-.139-.093-.232-.093-.046.046-.139.046-.186.046a.1.1 0 0 1-.093-.093c.046-.046.046-.093.046-.139 0-.139.093-.185.185-.232.139 0 .278 0 .417-.046a.51.51 0 0 1 .371 0h.139c.046-.046.093-.093.046-.139-.023-.023-.035-.058-.046-.093s-.023-.07-.046-.093c-.046-.046-.046-.093.046-.139a1.01 1.01 0 0 0 .232-.139c.186 0 .325-.046.464-.093h.046c.371-.139.742-.232 1.112-.232.139 0 .232 0 .371-.046h.185c.077 0 .139.014.195.027.046.01.088.02.129.02l.834.139h.464.139c.106.079.212.098.318.117.079.014.159.028.239.068.015 0 .031.005.046.01.031.01.062.021.093-.01.093-.023.185-.035.278-.046l.278-.046a.58.58 0 0 0 .139-.023.58.58 0 0 1 .139-.023c.139-.046.232-.046.325-.046s.186 0 .278.046c.093-.046.139-.046.185.046s.093.093.185.046h.186.232c.139 0 .278 0 .371.093.093.046.139.046.232.046s.139 0 .139-.093c0-.046 0-.093.046-.093.112-.037.104-.135.096-.22l-.004-.058c-.185 0-.325.046-.463.093s-.278.046-.371-.046c-.093-.046-.093-.185 0-.232.325-.185.649-.371 1.02-.417.033 0 .06-.006.085-.011.046-.01.087-.019.146.011h.093a1.02 1.02 0 0 0 .371.046c.093 0 .185.046.232.139.046.046.093.093.185.093.029 0 .063.005.099.009.077.011.162.022.225-.009.054-.027.092-.007.133.015.029.015.06.032.099.032.278-.232.325-.232.51-.046.031.031.021.062.01.093-.005.016-.01.031-.01.046-.046.046-.046.139-.046.278 0 .02 0 .031.004.041s.016.025.043.052c.046 0 .093.046.093.046.093.093.046.185-.046.232s-.185.093-.232.139-.093.046-.185.046a.95.95 0 0 1-.135-.012c-.071-.01-.13-.018-.189.012.093.046.185.046.278.046.139-.046.278-.046.417-.046.046 0 .093-.046.046-.093 0-.046 0-.093.046-.093.059-.059.138-.081.211-.101.041-.011.08-.022.113-.038.031-.031.062-.021.093-.01.015.005.031.01.046.01.015.016.036.026.057.036.041.021.082.041.082.103 0 .093-.093.093-.139.093 0 .029.018.022.042.013.015-.006.033-.013.05-.013.017-.017.041-.028.066-.04.043-.019.09-.041.119-.099v-.046c-.093-.139-.046-.232.046-.325v-.046c-.185 0-.325-.046-.417-.139-.093-.046-.046-.139 0-.185h.093c.046 0 .093 0 .139-.093 0-.093.093-.139.185-.139h.371c.093 0 .139.046.093.139l-.029.053c-.035.063-.064.115-.064.225-.046.046-.046.093 0 .093 0 .046.046 0 .046 0 0-.023.012-.035.023-.046s.023-.023.023-.046c.072-.145.173-.205.28-.269l.09-.056c.046-.046.093-.046.139-.046-.046-.046-.046-.139-.046-.186h.046c.093-.046.185-.046.278-.046s.139.046.093.139c-.046.046-.046.046-.046.093.036.018.073.022.106.026.052.006.097.011.126.067h.093c.185-.046.417-.093.649-.046h.278v-.046c-.185-.093-.417-.093-.649-.093-.139 0-.232 0-.325-.046-.093 0-.093-.046-.046-.093a.64.64 0 0 0 .139-.185c.046-.046.046-.046.093-.046.093-.046.185-.046.278.046.023 0 .035.012.046.023s.023.023.046.023.023-.012.023-.029 0-.04.023-.064c.059-.059.138-.081.211-.101.041-.011.08-.022.114-.038s.062-.026.093-.036c.062-.021.124-.041.185-.103-.06-.03-.1-.021-.147-.011-.025.005-.052.011-.085.011-.046.046-.139.046-.185.046-.019 0-.037-.002-.056-.004-.074-.007-.148-.015-.223.096-.093-.093-.093-.185.046-.232.112-.075.255-.12.379-.158l.085-.027a.21.21 0 0 1 .232 0c.139.046.232.093.371.186.046.046.046.093 0 .139s-.093.046-.139.046c-.093 0-.185 0-.278.046.232.046.417 0 .556-.093.056-.056.061-.095.067-.138.004-.028.008-.057.026-.094a.57.57 0 0 0-.098-.033c-.09-.025-.194-.053-.227-.152.046-.046.139-.046.186-.046l.834-.139c.325-.046.649-.093.974 0h.695c.139-.046.325-.046.464-.046.095-.032.168-.02.235-.01a.57.57 0 0 0 .09.01c.046 0 .139 0 .139.046 0 .093-.093.093-.139.093l-.649.162-.649.162c-.046.093-.139.093-.232.093-.07 0-.151.012-.232.023l-.232.023c0 .046-.046.046-.093.046-.139.093-.324.139-.51.185-.093 0-.185.046-.278.139-.046.046-.093.046-.139.046h-.185-.093c-.046 0-.093 0-.093.046.046.046.046.093 0 .139a.43.43 0 0 1-.222.109l-.103.03c-.046.023-.081.023-.11.023s-.052 0-.075.023v.046c.08 0 .091.034.122.133l.017.052v-.139a.1.1 0 0 1 .093-.093c.095-.032.168-.02.235-.009a.57.57 0 0 0 .09.009c.185.046.185.046.232.232v.046c.139.093.278.139.464.185.093 0 .139.046.185.093s.139.139.139.232c0 .068-.025.111-.056.165l-.036.066c.046.046.104.07.162.093s.116.046.162.093c.093.046.139.139.139.278 0 .037-.03.045-.14.07l-.092.022c-.046.023-.081.058-.116.093s-.07.069-.116.093c-.139.093-.185.093-.325-.093l-.093-.093c-.046-.093-.093-.093-.185 0 .046 0 .093.046.139.093a.36.36 0 0 1 .046.371c-.093.139-.185.186-.325.186h-.093v.093a.24.24 0 0 1-.014.094c-.025.005-.051.022-.076.044l-.05.001c-.198 0-.328-.068-.478-.145l-.06-.031c-.005-.042-.035-.072-.065-.102-.014-.005-.028-.011-.042-.017-.003-.011-.004-.021-.004-.029-.041-.123-.119-.174-.233-.184l-.045-.048c-.046-.046-.093-.093-.185-.046-.03.03-.079.021-.135.011-.031-.005-.064-.011-.096-.011-.023 0-.058-.012-.093-.023l-.063-.019c.002-.015.008-.032.017-.05l.053-.057c.063-.07.115-.128.225-.128.054 0 .109.016.154.029a.33.33 0 0 0 .078.017c.139.046.278 0 .371-.139.023-.023.058-.046.093-.07s.07-.046.093-.069c.046 0 .093-.046.139-.093s.046-.093 0-.139l-.046-.046a.36.36 0 0 1-.185-.185c-.023 0-.046-.012-.07-.023s-.046-.023-.07-.023h-.556c0 .139-.046.232-.139.278-.046 0-.046.046-.046.093-.067.135-.184.196-.295.255l-.122.069c-.093.046-.185.046-.232.046s-.093 0-.093.046a1.41 1.41 0 0 1 .232.325c.01.021.016.042.018.061-.026.038-.051.076-.069.117-.012.004-.026.007-.041.007-.093.046-.139.046-.185 0-.139-.046-.232 0-.325.046-.023 0-.046.012-.07.023s-.046.023-.07.023h-.185l-.139-.139c-.026-.052-.008-.075.012-.101.016-.021.034-.043.034-.084a1.71 1.71 0 0 0-.51.232c-.139.093-.278.185-.463.185-.186.046-.278.093-.417.185s-.278.185-.417-.046c-.029 0-.04.018-.055.042-.009.015-.02.033-.038.051-.046.046-.07.069-.07.093s.023.046.07.093v.093c-.046.093-.046.139-.046.185s.046.046.046.046c.185-.046.371.046.51.185s.325.232.556.232c.046 0 .139 0 .232.046.046.046.046.046.046.093-.018.035-.029.064-.038.088-.015.04-.026.068-.055.097-.046.046-.093.139-.139.232v.139c.046.093.093.139.232.093.093-.046.139-.139.185-.232a.86.86 0 0 0 .093-.325c0-.093.046-.139.139-.185a1.64 1.64 0 0 0 .209-.093l.209-.093c.093-.046.185-.093.232-.185.093-.093.139-.185.046-.325-.046-.093 0-.185.093-.232.023 0 .035-.012.046-.023s.023-.023.046-.023c.139-.046.185-.093.185-.232 0-.077.016-.138.041-.192.047-.017.074-.063.069-.117l.028-.04.047-.068c.046-.093.139-.093.278-.093.008 0 .018.002.029.004-.009.059.036.089.11.089s.151.012.232.023l.232.023.045.002.023.026c.062.07.129.145.214.187.013.048.05.11.088.11l.018.009c.003.023-.002.05-.018.083 0 .023-.012.046-.023.07s-.023.046-.023.069c0 .093 0 .139.046.185s.093.093.185.046c.023 0 .035-.012.046-.023s.023-.023.046-.023c.046-.023.093-.058.139-.093s.093-.069.139-.093l.05-.047c.036-.003.062-.012.076-.044.06-.048.153-.001.153.045.078.155.123.343.163.509l.023.093c.033.067.019.133.008.183-.004.019-.008.036-.008.049.046.139.093.232.232.278 0 0 .046.046.093.046.046.046.093.093.093.139s.046.093.046.093c.185.139.139.325.046.51 0 .023-.012.035-.023.046s-.023.023-.023.046c0 .093-.046.185-.093.278 0 .093 0 .139.093.139h.185c.046 0 .093.046.093.139-.023.023-.035.058-.046.093s-.023.07-.046.093c-.046.046-.046.093 0 .139s.093.093.046.139c-.011.011-.022.024-.034.039-.037.046-.081.1-.152.1-.093.046-.185 0-.278-.046-.139-.093-.232-.093-.371-.093h-.417c-.046 0-.093-.046-.046-.093 0-.046 0-.093.046-.093.192-.115.32-.293.437-.457l.073-.1.093-.093c-.046-.046-.046-.046-.093-.046-.023 0-.035.012-.046.023s-.023.023-.046.023c-.185.186-.417.232-.695.232h-.695c-.046 0-.139 0-.185.046.046.046.046.046.093.046.093 0 .185 0 .232.046.093.046.139.139.046.232l-.093.093c-.046.046-.093.139-.093.185 0 .139.046.232.186.278.046.023.093.035.139.046s.093.023.139.046c.046.046.046.046.046.093s0 .093-.046.093l-.417.139c-.139.046-.278.093-.371.185-.046.046-.139.093-.185.093-.093 0-.139-.046-.139-.139s.046-.139.093-.185c-.029-.029-.04-.022-.055-.012-.009.006-.02.012-.038.012l-.649.278c-.185.093-.325.186-.325.371 0 .093-.046.139-.093.139-.023 0-.058.012-.093.023s-.07.023-.093.023c-.185.046-.371.139-.556.278 0 .029-.018.04-.042.055-.015.009-.033.02-.05.038l-.278.278-.139.139c-.046.046-.093.139-.093.232 0 .185-.046.325-.185.417 0 .023-.012.035-.023.046s-.023.023-.023.046c-.046.046-.093.093-.139.093-.093 0-.232.046-.278.139 0 .046-.046.046-.046.046-.173.058-.31.169-.445.279l-.251.185c-.023.023-.035.046-.046.07s-.023.046-.046.07l-.018.052c-.039.112-.069.198-.029.319.046.185.093.417.093.649.046.186 0 .278-.139.371-.093.093-.185.093-.232 0a1.14 1.14 0 0 1-.232-.695v-.139c0-.093-.093-.185-.186-.139-.093 0-.185 0-.232-.093s-.139-.093-.232-.093a.85.85 0 0 0-.195.027.59.59 0 0 1-.129.02c-.093 0-.185.046-.185.139s-.093.093-.139.093c-.093-.023-.185-.035-.278-.046l-.278-.046c-.121-.04-.207-.01-.319.029l-.052.018c-.185.093-.371.185-.556.324-.139.093-.185.185-.185.325.04.12-.024.241-.072.331l-.021.04c-.185.371-.185.695-.093 1.066a.72.72 0 0 0 .278.371l.039.02c.07.038.121.065.239.026h.325c.185 0 .232 0 .278-.185.023-.046.035-.093.046-.139s.023-.093.046-.139l.139-.139a2.71 2.71 0 0 1 .603-.093c.027.027.038.038.052.043s.021.003.041.003c.046.046.093.093.046.186-.065.098-.084.172-.106.256l-.033.115-.139.278c-.093.139-.139.325-.185.51.046.046.093.046.139.046.054 0 .093-.016.125-.029.022-.009.042-.017.061-.017.232-.093.463 0 .649.139.027.027.038.038.043.052s.004.021.004.041c0 .139 0 .232-.046.371l-.139.51a.31.31 0 0 0 .139.371l.093.093c.139.093.232.139.371.046 0-.046.046-.046.046-.046a.5.5 0 0 1 .51 0c.046.046.093.093.139.093.071 0 .115-.054.152-.1l.033-.039c0-.023.012-.046.023-.07s.023-.046.023-.07c.046-.185.185-.278.371-.325l.104-.023c.134-.028.238-.05.313-.162.046-.046.093-.046.139-.046.093 0 .139.046.185.139v.046c.046 0 .093 0 .046-.139.019-.019.031-.031.044-.034.019-.005.041.007.095.034a1.9 1.9 0 0 0 .162.094c.08.043.153.082.209.138.046.046.093.046.139.046.139 0 .232.046.325.093.046.046.139.046.185 0 .139-.093.278-.093.417-.093h.278c.139 0 .139.046.139.139v.093c0 .232 0 .232.232.325a.56.56 0 0 1 .232.232.64.64 0 0 0 .139.185c.139.139.278.185.463.185.162 0 .302.045.434.088l.169.051c.033.033.072.067.113.102.127.11.269.232.305.408l.139.371c.046.046.046.093.046.185 0 .139.046.232.185.232.046 0 .081.035.116.07s.07.07.116.07a.66.66 0 0 0 .139.046c.046.012.093.023.139.046.046.031.098.052.149.072.103.041.206.082.268.206.046.046.046.046.093.046a.67.67 0 0 1 .325.093c.139.046.278.046.417.046.046-.046.139-.046.185 0 .139.046.232.139.325.232zm-5.1-17.454l-.045.024s-.046.046-.046.093c.046 0 .046.046.046.093v.232c0 .093 0 .139.093.139.186 0 .186.046.186.278v.046c.185-.093.325-.185.417-.371-.029-.058-.076-.08-.119-.099-.025-.012-.049-.023-.066-.04-.093-.046-.139-.139-.093-.232 0-.046.046-.093.093-.139s.139-.139.232-.185v-.046c-.023 0-.035.012-.046.023s-.023.023-.046.023c-.139.093-.278.139-.417.139-.076-.038-.121-.013-.186.022zm-3.664.712c-.049-.011-.116-.025-.183.008 0 .044 0 .068.01.085s.034.03.083.055c.093-.046.185-.046.278-.046-.023-.023-.046-.035-.07-.046a.24.24 0 0 1-.07-.046c-.013 0-.03-.004-.049-.008z"/><path d="M109.542 13.918l-.452-.035-.893-.104c-.092 0-.185 0-.278.046s-.139.046-.232.046h-.046v-.046c.046-.023.081-.046.116-.069s.069-.046.116-.07c.093-.046.093-.139 0-.232-.068-.068-.136-.086-.222-.109l-.103-.03c-.185-.046-.324-.046-.51-.046l-.37-.069-.371-.07c.278-.185.046-.185-.093 0l-.046.046h-.186c-.083-.028-.167-.006-.25.017-.056.015-.111.03-.167.03-.278.046-.556.093-.788.185-.046 0-.093.046-.093.093 0 .093-.046.093-.139.093-.139 0-.232 0-.371.046h-.139c-.092 0-.092.093-.046.185 0 .093 0 .093-.047.093-.092 0-.185 0-.231.046-.065.032-.107.02-.142.009-.016-.005-.03-.009-.044-.009-.092-.046-.139-.093-.139-.093-.046 0-.046 0-.092.046-.024.046-.047.081-.07.116l-.07.116h-.046c-.046-.046-.046-.093-.046-.093 0-.093-.047-.139-.139-.185s-.232-.046-.325 0c-.093 0-.185 0-.185.139 0 .068-.025.111-.057.165l-.036.066c-.046.046-.046.093 0 .139s.093.093.093.185c0 .023 0 .035-.006.041s-.017.006-.041.006-.046-.012-.069-.023-.047-.023-.07-.023c-.231-.093-.417-.093-.649-.093a.1.1 0 0 0-.092.093v.046c-.033 0-.06-.006-.086-.011-.046-.01-.086-.019-.146.011-.042 0-.084.009-.129.02-.057.013-.119.027-.196.027-.092.046-.231.046-.324 0a.21.21 0 0 0-.232 0l-.556.139c-.093 0-.139.046-.185.139s-.093.093-.139.046c-.093-.046-.093-.046-.046-.139.027-.054.038-.077.034-.095-.003-.013-.015-.024-.034-.044-.023 0-.035-.012-.046-.023s-.023-.023-.046-.023c-.035 0-.07-.003-.104-.006-.104-.009-.209-.017-.313.052.046.093.046.139.046.232 0 .044 0 .067-.01.085s-.034.03-.083.054c-.094.031-.167.063-.233.094l.002-.002c.046-.046.046-.139 0-.232-.046-.046-.093-.093-.139-.093-.232-.093-.464-.185-.695-.232l-.325-.07-.325-.069c-.046 0-.093 0-.139-.046-.046-.093-.139-.093-.185-.093-.325-.046-.603-.046-.927-.046-.046 0-.139 0-.186.046-.139.093-.278.139-.463.093-.093 0-.139 0-.232.093s-.185.185-.325.232a.1.1 0 0 0-.093.093c-.061.091-.141.162-.228.239l-.143.132a.49.49 0 0 1-.03.027c-.048.04-.109.092-.109.205-.093.093-.185.185-.278.232-.042 0-.074.009-.11.02-.044.013-.092.027-.169.027-.046 0-.139.046-.185.093-.07.023-.127.058-.185.093s-.116.069-.185.093c-.093.046-.139.093-.139.232 0 .232.046.417.139.603.046.093.139.139.232.139.139 0 .232-.046.324-.093.037-.018.066-.044.094-.068.043-.037.082-.071.138-.071.065 0 .107.068.142.124.015.025.029.047.043.061.023.046.058.093.093.139s.07.093.093.139c.046.046 0 .093-.046.093s-.093.046-.093.046c-.093.046-.093.046-.093.185v.139h-.046c-.093 0-.185-.093-.139-.185.055-.082.061-.164.067-.237.004-.05.007-.096.026-.134 0-.046 0-.093-.046-.093h-.093c-.046.046-.139.093-.185.093-.139.093-.232.278-.139.464 0 .046.046.093.046.093.046.093 0 .139-.093.186l-.255.07-.255.069c-.046 0-.139.046-.139.093-.093.186-.232.278-.417.371h-.093l-.093-.093c.046-.046.093-.093.093-.185.046-.046 0-.093-.046-.139-.139-.046-.232-.139-.278-.325v-.046c-.077-.051-.125-.131-.177-.215a1.04 1.04 0 0 0-.148-.202c.185-.232.139-.325-.139-.371 0-.015.005-.031.01-.046.01-.031.021-.062-.01-.093-.139-.093-.278-.046-.371.093l-.139.139c-.046.046-.046.093-.046.139.046.093.046.186.046.278 0 0 .046.046.046.093.043.043.046.046.008.084-.011-.004-.021-.009-.032-.015-.023-.012-.046-.023-.069-.023v.042a.45.45 0 0 1-.069-.019c-.035-.012-.07-.023-.116-.023-.093 0-.186 0-.278.093-.046.046-.093.093-.185.093-.139.046-.185.093-.139.232v.046c.046.046 0 .093 0 .093l-.093.093-.046.046c.046.139.139.232.278.139.031-.016.062-.036.093-.057.062-.041.124-.082.185-.082.139 0 .186-.093.232-.232 0-.046 0-.139.046-.185a.31.31 0 0 0 .092-.236.26.26 0 0 0 .047.004h.046l.008-.009c.013.005.025.009.038.009.11 0 .133.058.161.128l.025.057c.046.093 0 .139-.046.139-.02.01-.043.018-.065.026-.078.027-.146.051-.074.159l-.046.046c-.093.093-.093.093.046.185l.046.046c-.02.04-.058.063-.097.087-.052.032-.108.066-.135.145v.046c0 .046.046.046.046.046.046 0 .139 0 .185-.046.093-.046.185-.046.278-.046.139 0 .232 0 .371-.046.093 0 .139 0 .232-.046 0 0 .046 0 .046.046v.046c-.062.062-.124.082-.186.103l-.093.036h-.093c-.023 0-.035-.012-.046-.023s-.023-.023-.046-.023c-.093 0-.139 0-.139.093-.046.139-.046.139-.139.093h-.232c-.046 0-.093 0-.139.046l-.046.046c0 .093.046.139.139.185.046 0 .093 0 .139.046.185.093.325.232.371.464.046.185 0 .325-.139.51l.232-.15h2.909l-.035-.035c-.093-.093-.093-.139 0-.278.046 0 .139 0 .185.046.019.019.046.038.078.061.045.032.099.07.154.125a.48.48 0 0 0 .069.081l1.414-.035 7.648.077v4.697a1.34 1.34 0 0 1 .232.046 2 2 0 0 0 .742 0c.07 0 .127-.012.185-.023s.116-.023.186-.023c.046 0 .093 0 .139.046.062.124.165.206.268.288l.149.129.03.027c.048.04.109.092.109.205 0 .046.047.093.047.093.046.023.081.058.115.093s.07.07.116.093c.047.093.139.139.232.093.023 0 .058-.012.093-.023s.069-.023.093-.023c.046 0 .092 0 .092.046v.093c0 .154.032.275.069.418l.024.092c.046.325.185.649.371.927.046.046.093.139.093.185.061.216.164.433.267.649l.15.324.025.055c.026.058.041.095.114.131.093.093.185.139.278 0 .139-.139.232-.232.324-.417l.009-.017.005-.009.011-.019c.035-.065.06-.11.022-.186-.03-.059-.022-.118-.012-.189.006-.04.012-.085.012-.135-.047-.185-.047-.278-.047-.417v-.232c-.046-.139 0-.185.093-.278.093-.046.232-.139.278-.232 0-.046.047-.046.093-.046.06-.03.1-.079.147-.135l.085-.096c.093-.139.232-.278.371-.371.092-.046.139-.139.139-.232s.046-.139.139-.185l-.278-11.589zm-15.159 5.795c0-.023-.012-.035-.023-.046s-.023-.023-.023-.046c.046.046.046.046.046.093zm4.148-4.472l.025-.025.091-.045c-.027.026-.068.052-.116.07zm-.34.034c.072.009.14.016.225-.013.039 0 .079-.008.115-.021-.037.038-.068.076-.068.114-.023 0-.058-.012-.093-.023a.36.36 0 0 0-.093-.023l-.086-.034zm-.139-.013c.04-.018.078-.01.139.013l-.014-.002-.125-.011zm0 0c-.034.023-.057.08-.099.185-.093.046-.139-.046-.139-.093s0-.093.046-.093h.185.007zm5.9 9.93l-.02.732h-4.009c.035.035.07.07.116.093l.036.066c.031.055.056.098.056.165.017.017.028.041.04.066.019.043.041.09.099.119.139.093.186.232.186.417 0 .11.029.191.064.289l.028.082c.14.046.14.139.093.232-.046 0-.046 0-.093-.046l-.185-.186c-.046-.093-.139-.139-.232-.185-.185-.046-.278-.185-.324-.417 0-.185-.093-.325-.232-.371-.093-.046-.139-.185-.186-.325L90.211 26V22.17c-.046.093-.139.186-.278.232-.278.139-.417.371-.464.695 0 .139-.046.278-.185.371l-.09.063c-.097.07-.184.133-.328.169-.093 0-.139.046-.139.139s-.046.185-.139.232-.185.139-.185.232v.139c0 .046-.046.139-.093.139a.36.36 0 0 0-.185.185c-.093.139-.185.325-.232.51 0 .023-.003.046-.006.069-.009.07-.017.139.052.209 0 0 .046.046.046.093l.006.209c.009.209.017.417-.052.626a2.27 2.27 0 0 0-.07.162l-.07.162c-.046.093-.046.139 0 .232.046.046.046.139.046.232a.31.31 0 0 0 .139.371c.023.023.046.035.07.046s.046.023.069.046c.232.185.417.417.51.695 0 .023.012.046.023.07s.023.046.023.07c.018.018.029.035.038.05.015.024.026.042.055.042.139.046.232.139.278.232 0 .046.046.046.093.046.07.07.151.127.232.185s.162.116.232.185c.093.093.185.093.325.046l.417-.139c.093-.046.139-.046.232 0s.232.046.325.046c.032.032.087.02.133.009.02-.005.038-.009.052-.009.07-.023.151-.058.232-.093l.232-.093c.185-.093.371-.139.51-.139.232 0 .325.046.417.278 0 .046.046.093.093.139 0 .046.046.046.093.046.062.031.124.021.185.01.031-.005.062-.01.093-.01h.093.186l.046.046c.139.093.185.232.139.417 0 .046 0 .046-.046.093 0 .033-.006.06-.011.085-.01.046-.019.087.011.147 0 .139 0 .232-.093.325-.046.093-.046.185 0 .232.032.098.088.172.15.256l.082.115c.046.07.093.128.139.186l.139.185c.046.046.093.139.093.232a.67.67 0 0 0 .093.324c.046.093.093.185.139.325-.046.185-.046.417.093.603 0 .046 0 .046.046.093a.36.36 0 0 1-.093.371c-.127.127-.176.33-.219.505l-.013.051c.185.325.185.51.185.695 0 .093 0 .185.093.278l.139.278 4.997-.167c.098-.106.201-.216.334-.296.023 0 .035 0 .041-.006s.006-.017.006-.04c.087-.029.156-.077.219-.119l.106-.066c.185-.139.278-.371.231-.603 0-.093 0-.139-.046-.232 0-.139 0-.278-.046-.371 0-.033.005-.06.011-.085.01-.046.019-.087-.011-.147 0-.093-.047-.139-.093-.185a.42.42 0 0 1-.139-.324c0-.139 0-.232.046-.371.047-.093 0-.139-.093-.139-.046-.046-.046-.139 0-.185l.068-.142c.072-.153.151-.32.256-.461l.139-.139c.139-.093.232-.232.325-.371.046-.093.139-.185.231-.278.093-.139.186-.232.325-.278a1.1 1.1 0 0 0 .417-.371 2.97 2.97 0 0 0 .371-.649c.069-.116.127-.243.185-.371l.186-.371c.069-.139.061-.278.052-.417l-.006-.139v-.046c-.046-.046-.046-.046-.093-.046-.023 0-.046.012-.069.023s-.047.023-.07.023a3.07 3.07 0 0 1-.371.139c-.092 0-.231 0-.324.093-.031.031-.062.021-.093.01a.15.15 0 0 0-.046-.01c-.011 0-.023-.002-.037-.005-.049-.009-.113-.021-.149.051h-.092c-.093 0-.186-.046-.232-.139s-.046-.185-.046-.325c.03 0 .061.005.092.01.062.01.124.021.186-.01l.056-.03c.088-.048.201-.109.315-.109.023 0 .046-.012.069-.023s.046-.023.07-.023c.058-.039.133-.061.21-.085.107-.032.219-.066.3-.147.023-.023.046-.023.069-.023s.046 0 .07-.023c.092 0 .185-.046.278-.093.028 0 .039-.018.055-.042.009-.015.02-.033.038-.051.046 0 .046-.046.046-.093a.2.2 0 0 1 .185-.185h.047l.029-.01.023-.008c.131-.042.289-.093.411-.215.103-.034.156-.094.213-.161l.065-.071c.093 0 .186-.046.186-.139s.046-.185.092-.232c.093-.093.14-.232.186-.371v-.139c-.068-.068-.111-.136-.166-.222zm-13.741-3.487l.093-1.576.695.046c-.232-.046-.464-.046-.695-.046-.139 0-.278.046-.371.093-.02.02-.031.031-.037.045s-.009.041-.009.094a1.32 1.32 0 0 1-.093.742c0 .046-.046.093-.046.093 0 .018-.007.035-.013.05-.009.024-.016.042.013.042.056.056.061.111.067.167.004.037.008.074.026.111 0 .076.031.09.093.117l.046.022h.232zm4.218-4.126c-.093-.046-.139-.046-.185-.046-.018 0-.029.007-.038.012-.015.009-.026.016-.055-.012 0 .046 0 .046.046.046.093 0 .185.046.232.093.036.072.1.06.148.051.014-.003.027-.005.037-.005l.232-.07.232-.069c.033 0 .066-.006.097-.011.056-.01.105-.019.135.011.093.046.185 0 .232-.046.023-.023.035-.046.046-.07a.24.24 0 0 1 .046-.07c0-.093 0-.185.046-.278.046-.185.139-.232.325-.185 0 0 .046.046.093.046s.046-.046.046-.046v-.139c-.046-.046-.046-.139 0-.185 0-.046.093-.093.139-.093.091-.03.162-.021.239-.011l.132.011c.093.046.139 0 .185-.139h-.232c0 .046-.046.046-.093.046h-.139c-.185.093-.371.093-.556.046a.2.2 0 0 1-.185-.185c0-.023-.012-.046-.023-.069s-.023-.046-.023-.07c-.046-.185-.046-.278.139-.417.139-.046.232-.139.325-.232 0-.023.012-.046.023-.07s.023-.046.023-.069h-.325c-.018.018-.035.029-.05.038-.025.015-.042.026-.042.055 0 .139-.093.232-.185.278-.071.071-.169.115-.252.152l-.072.034c-.093.046-.139.139-.139.232v.139c.093.046.185.139.232.185s.046.093 0 .185a.36.36 0 0 1-.186.185c-.046 0-.093.046-.139.093 0 .07-.012.128-.023.185s-.023.116-.023.186c0 .093-.046.139-.139.139-.046 0-.093.046-.139.093s-.139.046-.186.046z"/></g><rect x="10.5" y="10.5" width="47" height="25" rx="1.5" class="C H"/><rect x="13" y="13" width="9" height="1.5" rx=".75" class="B"/><rect x="13" y="15.5" width="6" height="1.5" rx=".75" class="D"/><rect x="43" y="13" width="12" height="1.5" rx=".75" class="B"/><rect x="47" y="15.5" width="8" height="1.5" rx=".75" class="D"/><path d="M23.341 21.963h.61a.61.61 0 0 0 .309-.049.71.71 0 0 0 .261-.201 1.16 1.16 0 0 0 .18-.689 1.07 1.07 0 0 0-.18-.642c-.071-.083-.155-.147-.249-.188a.6.6 0 0 0-.292-.05.69.69 0 0 0-.51.214c-.065.073-.117.162-.151.26a.9.9 0 0 0-.049.31h-1.05a1.77 1.77 0 0 1 .114-.713c.086-.224.215-.419.377-.571.351-.345.796-.526 1.251-.511.483-.032.959.146 1.341.499a1.75 1.75 0 0 1 .368.626 1.99 1.99 0 0 1 .102.753c-.001.294-.077.58-.22.82-.152.265-.364.475-.61.606a1.38 1.38 0 0 1 .68.606 1.81 1.81 0 0 1 .24.939 2.02 2.02 0 0 1-.125.796 1.73 1.73 0 0 1-.415.642c-.395.361-.883.546-1.381.523-.461.018-.914-.154-1.281-.487-.179-.16-.321-.372-.412-.615s-.128-.51-.109-.775h1.001a.96.96 0 0 0 .052.343.84.84 0 0 0 .168.287c.152.167.353.257.56.25a.66.66 0 0 0 .319-.056.77.77 0 0 0 .272-.206.92.92 0 0 0 .173-.316 1.04 1.04 0 0 0 .047-.373 1.04 1.04 0 0 0-.026-.409.91.91 0 0 0-.179-.35.73.73 0 0 0-.293-.216.63.63 0 0 0-.343-.035h-.61l.06-1.022zm6.935 3.887h-3.672v-.868l1.741-2.306c.205-.279.386-.581.54-.903a1.77 1.77 0 0 0 .16-.678c.006-.249-.061-.493-.19-.689a.64.64 0 0 0-.234-.205c-.09-.045-.189-.065-.287-.056a.56.56 0 0 0-.319.068.69.69 0 0 0-.252.241 1.67 1.67 0 0 0-.19.832h-1.051a2.41 2.41 0 0 1 .108-.819c.083-.262.209-.501.372-.702.174-.211.383-.377.614-.485s.479-.158.727-.145c.479-.033.95.159 1.311.535a1.91 1.91 0 0 1 .365.653 2.17 2.17 0 0 1 .105.774 2.29 2.29 0 0 1-.26 1.106c-.269.473-.566.922-.891 1.343l-1.001 1.284h2.302v1.022zm1.081-6.303a.51.51 0 0 1 .082-.303.31.31 0 0 1 .108-.09c.041-.02.086-.03.13-.027a.27.27 0 0 1 .135.026c.043.02.081.052.113.091a.51.51 0 0 1 .082.303.5.5 0 0 1-.082.303.31.31 0 0 1-.108.09c-.041.02-.086.03-.13.027a.27.27 0 0 1-.135-.026c-.043-.02-.081-.052-.113-.091-.058-.085-.088-.194-.082-.303zm.181 0c-.011.058-.011.118 0 .176.012.023.029.041.05.053s.043.017.066.015.041-.003.059-.015.032-.031.04-.053c.029-.052.044-.114.041-.176a.4.4 0 0 0-.025-.147.12.12 0 0 0-.045-.054c-.019-.012-.041-.017-.063-.014s-.041.003-.059.015-.032.031-.04.053a.39.39 0 0 0-.041.176l.016-.029zm1.88.852c.004.09-.008.18-.035.264a.67.67 0 0 1-.122.225.6.6 0 0 1-.453.176.5.5 0 0 1-.256-.049c-.081-.039-.154-.099-.213-.176s-.109-.164-.14-.262a.9.9 0 0 1-.041-.306V19.9c-.008-.209.055-.413.173-.568a.64.64 0 0 1 .462-.206.64.64 0 0 1 .461.206.62.62 0 0 1 .129.222.71.71 0 0 1 .035.267h-.313a.5.5 0 0 0-.074-.294c-.032-.035-.07-.062-.111-.079a.27.27 0 0 0-.128-.019.22.22 0 0 0-.114.052.3.3 0 0 0-.084.105c-.059.107-.088.234-.082.362v.372c-.007.13.025.258.091.362.028.043.064.078.106.102a.26.26 0 0 0 .133.035.23.23 0 0 0 .121-.019c.039-.017.073-.044.102-.079a.44.44 0 0 0 .074-.284l.28-.039z" class="B"/><g class="D"><path d="M35.36 19.547a.51.51 0 0 1 .082-.303.31.31 0 0 1 .108-.09c.041-.02.086-.03.13-.027a.27.27 0 0 1 .135.026c.043.02.081.052.113.091a.51.51 0 0 1 .082.303.5.5 0 0 1-.082.303.31.31 0 0 1-.109.09c-.041.02-.086.03-.13.027a.27.27 0 0 1-.135-.026c-.043-.02-.081-.052-.113-.091-.058-.085-.088-.194-.082-.303zm.181 0a.46.46 0 0 0 0 .176c.012.023.029.041.05.054s.043.017.066.015.041-.003.059-.015.032-.031.04-.053c.029-.052.044-.114.041-.176.001-.05-.007-.101-.025-.147a.12.12 0 0 0-.045-.054c-.019-.012-.041-.017-.062-.014s-.041.003-.059.015-.032.031-.04.053a.39.39 0 0 0-.041.176l.017-.029zm1.673.724h-.635v.812h-.317v-1.958h1.095v.303h-.778v.538h.666l-.032.303z"/><rect x="34.359" y="19.126" width=".25" height="2.001" rx=".125"/></g><g class="B"><path d="M21.18 24.219a1.75 1.75 0 0 1-1.746 1.748h-4.481c-.522-.013-1.019-.23-1.384-.604S13 24.487 13 23.964s.204-1.024.569-1.399.861-.591 1.384-.604h.055c.093-.372.296-.708.583-.963s.644-.417 1.025-.466.767.019 1.109.194.623.449.806.786a1.28 1.28 0 0 1 .289-.033 1.27 1.27 0 0 1 1.255 1.12 1.75 1.75 0 0 1 1.105 1.62h0z"/><rect x="43" y="20.9" width="12" height="1.5" rx=".75"/></g><g class="D"><rect x="47" y="23.4" width="8" height="1" rx=".5"/><rect x="13" y="28.3" width="6" height="1.2" rx=".6"/></g><g class="B"><rect x="13" y="31.25" width="10" height="1.5" rx=".75"/><rect x="24" y="31" width="2" height="2" rx="1"/></g><rect x="30.5" y="28.55" width="6" height="1.2" rx=".6" class="D"/><rect x="30.5" y="31.25" width="10" height="1.5" rx=".75" class="B"/><rect x="45" y="28.55" width="6" height="1.2" rx=".6" class="D"/><rect x="45" y="31.25" width="10" height="1.5" rx=".75" class="B"/><g class="H"><rect x="62.5" y="10.5" width="47" height="25" rx="1.5"/><rect x="10.5" y="40.5" width="99" height="29" rx="1.5" class="C"/></g><g class="G"><path d="M11 58h98v.75H11V58z" class="D"/><path d="M11 61.95s9.304-1.303 14-1.05c3 .161 9.955 2.839 17 2.8s11.96-2.922 19-3c5.871-.065 10.13 1.887 16 2 6.683.129 10.316-1.397 17-1.5 5.909-.091 15 2 15 2v3.1c0 .943 0 1.414-.293 1.707s-.764.293-1.707.293H13c-.943 0-1.414 0-1.707-.293S11 67.243 11 66.3v-4.35z" class="B"/><path d="M11 62.65s9.304-1.303 14-1.05c3.147.169 9.955 2.839 17 2.8s11.571-2.861 19-3c5.48-.103 10.13 1.887 16 2 6.683.129 10.316-1.397 17-1.5 5.909-.091 15 2 15 2V67c0 .943 0 1.414-.293 1.707S107.943 69 107 69H13c-.943 0-1.414 0-1.707-.293S11 67.943 11 67v-4.35z" fill="#dee2e5"/></g><g class="B"><rect x="13" y="43" width="12" height="2" rx="1"/><rect x="46" y="50.5" width="7" height="2" rx="1"/></g><mask id="A" class="C"><path d="M90.467 20c-.258 0-.467.209-.467.467v5.6c0 .258.209.467.467.467h5.096l1.244 1.676a.24.24 0 0 0 .385 0l1.244-1.676h5.096c.258 0 .467-.209.467-.467v-5.6c0-.258-.209-.467-.467-.467H90.467z" class="G"/></mask><path d="M90.467 20c-.258 0-.467.209-.467.467v5.6c0 .258.209.467.467.467h5.096l1.244 1.676a.24.24 0 0 0 .385 0l1.244-1.676h5.096c.258 0 .467-.209.467-.467v-5.6c0-.258-.209-.467-.467-.467H90.467z" class="C G"/><path d="M95.563 26.533l.201-.149-.075-.101h-.126v.25zm1.244 1.676l.201-.149h0l-.201.149zm.385 0l-.201-.149.201.149zm1.244-1.676v-.25h-.126l-.075.101.201.149zm-8.187-6.067c0-.12.097-.217.217-.217v-.5c-.396 0-.717.321-.717.717h.5zm0 5.6v-5.6h-.5v5.6h.5zm.217.217c-.12 0-.217-.097-.217-.217h-.5c0 .396.321.717.717.717v-.5zm5.096 0h-5.096v.5h5.096v-.5zm1.445 1.777l-1.244-1.676-.402.298 1.244 1.676.401-.298zm-.016 0l-.385.298a.49.49 0 0 0 .787 0l-.401-.298zm1.244-1.676l-1.244 1.676.401.298 1.244-1.676-.402-.298zm5.297-.101h-5.096v.5h5.096v-.5zm.217-.217c0 .12-.097.217-.217.217v.5c.396 0 .717-.321.717-.717h-.5zm0-5.6v5.6h.5v-5.6h-.5zm-.217-.217c.12 0 .217.097.217.217h.5c0-.396-.321-.717-.717-.717v.5zm-13.066 0h13.066v-.5H90.467v.5z" fill="#647580" mask="url(#A)"/><path d="M102.258 22.936a.64.64 0 0 1-.329-.087.67.67 0 0 1-.234-.236.63.63 0 0 1-.088-.329.62.62 0 0 1 .088-.326c.058-.099.136-.178.234-.236a.63.63 0 0 1 .329-.089c.12 0 .23.03.328.089a.66.66 0 0 1 .236.236.63.63 0 0 1 .087.326.64.64 0 0 1-.087.329c-.059.098-.137.177-.236.236a.63.63 0 0 1-.328.087zm0-.377a.26.26 0 0 0 .139-.037c.041-.025.075-.058.099-.099s.037-.088.037-.139a.27.27 0 0 0-.037-.138c-.024-.042-.057-.075-.099-.099s-.087-.037-.139-.037a.26.26 0 0 0-.138.037c-.042.025-.074.058-.099.099a.26.26 0 0 0-.037.138c0 .051.012.098.037.139s.058.075.099.099.088.037.138.037zm-2.052 1.845c-.187 0-.355-.034-.501-.103a.87.87 0 0 1-.347-.285.73.73 0 0 1-.134-.416h.557a.34.34 0 0 0 .133.256.46.46 0 0 0 .293.098.47.47 0 0 0 .239-.06.44.44 0 0 0 .163-.168.51.51 0 0 0 .059-.249.51.51 0 0 0-.061-.252.43.43 0 0 0-.165-.17.49.49 0 0 0-.243-.062.57.57 0 0 0-.232.049.42.42 0 0 0-.174.134l-.51-.091.129-1.432h1.659v.469h-1.186l-.07.68h.016c.048-.067.12-.123.217-.167a.77.77 0 0 1 .323-.066c.164 0 .309.039.438.115a.83.83 0 0 1 .303.317c.074.133.111.287.11.461.001.183-.041.346-.127.488a.9.9 0 0 1-.357.334c-.152.08-.329.121-.53.121zm-2.449 0c-.198 0-.374-.034-.529-.102s-.275-.164-.365-.284a.71.71 0 0 1-.136-.419h.578a.3.3 0 0 0 .065.175.4.4 0 0 0 .162.115c.067.027.143.041.227.041a.55.55 0 0 0 .232-.046.38.38 0 0 0 .158-.129c.038-.055.057-.118.057-.19s-.02-.137-.061-.192a.39.39 0 0 0-.172-.133.67.67 0 0 0-.265-.048h-.253v-.422h.253a.55.55 0 0 0 .229-.045.37.37 0 0 0 .156-.125c.037-.054.056-.117.056-.188s-.016-.128-.049-.179a.34.34 0 0 0-.135-.122.44.44 0 0 0-.202-.044c-.078 0-.149.014-.213.042s-.116.067-.155.118a.31.31 0 0 0-.062.18h-.55a.71.71 0 0 1 .134-.414.87.87 0 0 1 .35-.28 1.18 1.18 0 0 1 .5-.102 1.12 1.12 0 0 1 .492.102.81.81 0 0 1 .328.276.66.66 0 0 1 .117.387.53.53 0 0 1-.142.38.65.65 0 0 1-.37.194v.021c.2.026.352.095.456.208s.157.253.156.422a.66.66 0 0 1-.134.412c-.09.12-.213.215-.37.284s-.338.103-.541.103z" class="B"/><g stroke-width=".053" stroke-miterlimit="10"><path d="M95.227 22.546h-.034c.063-.258.031-.53-.089-.767s-.32-.424-.565-.526-.518-.114-.771-.034-.469.249-.609.475c-.113-.067-.242-.103-.373-.104s-.261.032-.375.097-.209.159-.275.272-.101.242-.102.373a.76.76 0 0 0 .011.121.8.8 0 0 0-.641.858.8.8 0 0 0 .79.723.43.43 0 0 0 .053 0h2.98c.198 0 .387-.079.527-.218s.218-.329.218-.527-.078-.387-.218-.527-.329-.218-.527-.218z" fill="url(#B)" stroke="#e6effc"/><path d="M93.471 23.025l-.426 1.277h.426l-.213 1.064 1.064-1.49h-.639l.426-.851h-.639z" fill="url(#C)" stroke="#f6a823"/></g><rect x="13.25" y="47.25" width="27.5" height="8.5" rx=".25" class="C F H"/><g class="B"><path d="M19.933 52.704h.228a.27.27 0 0 0 .115-.015c.037-.013.07-.035.098-.062.048-.061.072-.137.067-.215.003-.072-.021-.144-.067-.2-.026-.026-.058-.046-.093-.059s-.072-.018-.109-.016c-.07-.002-.137.022-.191.067-.024.023-.044.05-.056.081s-.019.063-.018.097h-.393c-.004-.076.011-.152.043-.222a.48.48 0 0 1 .141-.178.71.71 0 0 1 .468-.159c.181-.01.359.045.501.155.06.054.107.12.137.195s.044.154.038.234a.44.44 0 0 1-.082.255c-.057.083-.136.148-.228.188.103.034.193.1.254.189a.49.49 0 0 1 .09.292c.004.085-.012.17-.047.248a.54.54 0 0 1-.155.2.8.8 0 0 1-.516.163c-.172.006-.342-.048-.479-.152a.49.49 0 0 1-.154-.191c-.034-.076-.048-.159-.041-.241h.374c-.001.037.005.073.02.107s.036.064.063.089c.057.052.132.08.21.078a.29.29 0 0 0 .119-.017c.038-.014.073-.036.102-.064s.05-.062.065-.098.02-.077.018-.116a.27.27 0 0 0-.01-.127c-.013-.041-.036-.078-.067-.109s-.068-.054-.109-.067a.28.28 0 0 0-.128-.011h-.228l.022-.318z"/><path d="M22.525 53.913h-1.373v-.27l.651-.717a1.7 1.7 0 0 0 .202-.281.49.49 0 0 0 .06-.211.33.33 0 0 0-.071-.215.23.23 0 0 0-.087-.064c-.034-.014-.07-.02-.107-.018-.041-.003-.082.004-.119.021s-.07.043-.094.075a.45.45 0 0 0-.071.259h-.393c-.004-.087.01-.173.041-.255a.64.64 0 0 1 .139-.218.66.66 0 0 1 .229-.151c.086-.034.179-.049.272-.045a.69.69 0 0 1 .49.166c.06.057.106.127.136.203a.57.57 0 0 1 .039.241c.002.122-.032.241-.097.344a3.61 3.61 0 0 1-.333.418l-.374.399h.86v.318zm.339-1.927c-.002-.041.011-.082.037-.115a.14.14 0 0 1 .049-.034c.019-.008.039-.011.059-.01s.042.002.061.01a.14.14 0 0 1 .051.035c.026.032.04.073.037.115s-.011.082-.037.115a.14.14 0 0 1-.049.034c-.019.008-.039.011-.059.01s-.042-.002-.061-.01-.037-.019-.051-.035a.16.16 0 0 1-.037-.115zm.082 0c-.005.022-.005.045 0 .067.005.009.013.016.022.02s.02.007.03.006.018-.001.027-.006.014-.012.018-.02a.11.11 0 0 0 .019-.067c0-.019-.003-.038-.011-.055-.005-.009-.012-.016-.02-.02s-.019-.007-.028-.005-.019.001-.027.006-.014.012-.018.02a.13.13 0 0 0-.019.066l.008-.011zm.854.321c.002.034-.003.068-.016.1s-.031.061-.055.085c-.058.047-.131.07-.206.067a.27.27 0 0 1-.116-.018c-.037-.015-.07-.038-.097-.067s-.049-.062-.064-.099-.02-.076-.019-.116v-.14c-.003-.079.025-.156.079-.214a.32.32 0 0 1 .419 0c.026.023.046.052.059.084a.23.23 0 0 1 .016.101h-.142a.16.16 0 0 0-.034-.111c-.014-.013-.032-.023-.05-.03s-.038-.009-.058-.007a.13.13 0 0 0-.052.02c-.015.01-.029.024-.038.04a.22.22 0 0 0-.037.137v.141c-.003.049.011.098.041.137.013.016.029.03.048.038s.04.014.06.013.037-.001.055-.007.033-.017.046-.03a.15.15 0 0 0 .034-.107l.127-.015zm-.936 1.009c-.002-.041.011-.081.038-.114.014-.015.031-.026.049-.034s.039-.011.06-.01.042.002.062.01.037.019.051.034c.026.032.04.072.038.114s-.011.082-.038.114a.14.14 0 0 1-.05.034c-.019.008-.039.011-.06.01s-.042-.002-.062-.01-.037-.019-.051-.034c-.027-.032-.04-.072-.038-.114zm.083 0c-.005.022-.005.044 0 .066.006.009.013.016.023.02a.08.08 0 0 0 .03.006c.01 0 .019-.001.027-.006s.014-.011.018-.02c.013-.02.02-.043.019-.066s-.003-.038-.011-.055c-.005-.009-.012-.016-.02-.02s-.019-.007-.029-.005-.019.001-.027.006-.015.011-.018.02a.13.13 0 0 0-.019.066l.008-.011z"/><use href="#D"/><path d="M19.058 53.323c0 .173-.069.339-.191.462s-.288.191-.462.192H16.73a.75.75 0 0 1-.73-.749.75.75 0 0 1 .73-.749h.021a.71.71 0 0 1 .601-.534.71.71 0 0 1 .716.367c.035-.008.072-.013.108-.013.116.001.227.044.314.121s.142.183.155.298c.121.048.226.132.299.24s.113.235.114.366h0z"/><rect x="16" y="49" width="6" height="1.2" rx=".6"/></g><rect x="32" y="50" width="6" height="1.2" rx=".6" class="D"/><rect x="27" y="52.5" width="11" height="1.5" rx=".75" class="B"/><rect x="43.95" y="47.25" width="13.3" height="8.5" rx=".25" class="C E F"/><g class="B"><path d="M50.633 52.704h.228a.27.27 0 0 0 .115-.015c.037-.013.07-.035.098-.062.048-.061.072-.137.067-.215.003-.072-.021-.144-.067-.2-.026-.026-.058-.046-.093-.059s-.072-.018-.109-.016c-.07-.002-.137.022-.191.067-.024.023-.044.05-.056.081s-.019.063-.018.097h-.393c-.004-.076.011-.152.042-.222a.48.48 0 0 1 .141-.178.71.71 0 0 1 .468-.159c.18-.01.359.045.501.155.06.054.107.12.138.195a.53.53 0 0 1 .038.234.44.44 0 0 1-.082.255c-.057.083-.136.148-.228.188a.5.5 0 0 1 .254.189.49.49 0 0 1 .09.292c.004.085-.012.17-.047.248a.54.54 0 0 1-.155.2c-.148.112-.33.17-.516.163-.172.006-.342-.048-.479-.152a.49.49 0 0 1-.154-.191c-.034-.076-.048-.159-.041-.241h.374c-.001.037.005.073.02.107s.036.064.063.089c.057.052.132.08.209.078a.29.29 0 0 0 .119-.017c.038-.014.073-.036.102-.064s.05-.062.065-.098.02-.077.018-.116c.007-.042.004-.086-.01-.127s-.036-.078-.067-.109-.068-.054-.109-.067a.28.28 0 0 0-.128-.011h-.228l.022-.318z"/><path d="M53.225 53.913h-1.373v-.27l.651-.717a1.7 1.7 0 0 0 .202-.281.49.49 0 0 0 .06-.211.33.33 0 0 0-.071-.215c-.024-.028-.054-.05-.087-.064s-.071-.02-.107-.018c-.041-.003-.082.004-.119.021s-.07.043-.094.075a.45.45 0 0 0-.071.259h-.393c-.004-.087.01-.173.041-.255a.64.64 0 0 1 .139-.218.66.66 0 0 1 .229-.151c.086-.034.179-.049.272-.045a.69.69 0 0 1 .49.166c.06.057.106.127.136.203a.57.57 0 0 1 .039.241c.002.122-.032.241-.097.344a3.62 3.62 0 0 1-.333.418l-.374.399h.86v.318zm.339-1.927c-.002-.041.011-.082.037-.115.014-.015.031-.026.049-.034s.039-.011.059-.01.042.002.061.01.037.019.051.035c.026.032.04.073.037.115s-.011.082-.037.115a.14.14 0 0 1-.049.034c-.019.008-.039.011-.059.01s-.042-.002-.061-.01-.037-.019-.051-.035c-.026-.032-.04-.073-.037-.115zm.082 0c-.005.022-.005.045 0 .067.005.009.013.016.022.02s.02.007.03.006.019-.001.027-.006.014-.012.018-.02a.11.11 0 0 0 .019-.067c0-.019-.003-.038-.011-.055-.005-.009-.011-.016-.02-.02s-.019-.007-.028-.005-.019.001-.027.006-.014.012-.018.02a.13.13 0 0 0-.019.066l.008-.011zm.854.321c.002.034-.003.068-.016.1s-.031.061-.055.085c-.058.047-.131.07-.206.067a.27.27 0 0 1-.116-.018c-.037-.015-.07-.038-.097-.067s-.05-.062-.064-.099-.02-.076-.019-.116v-.14c-.004-.079.025-.156.078-.214a.32.32 0 0 1 .419 0c.026.023.046.052.059.084a.23.23 0 0 1 .016.101h-.142a.16.16 0 0 0-.034-.111.17.17 0 0 0-.05-.03c-.018-.007-.038-.009-.058-.007s-.036.01-.052.02-.029.024-.038.04a.22.22 0 0 0-.037.137v.141c-.003.049.011.098.041.137.013.016.029.03.048.038s.04.014.06.013.037-.001.055-.007.033-.017.046-.03a.15.15 0 0 0 .034-.107l.127-.015zm-.936 1.009c-.002-.041.011-.081.038-.114a.14.14 0 0 1 .05-.034c.019-.008.039-.011.06-.01s.042.002.062.01.037.019.051.034c.026.032.04.072.038.114s-.011.082-.038.114a.14.14 0 0 1-.05.034c-.019.008-.039.011-.06.01s-.042-.002-.062-.01-.037-.019-.051-.034c-.027-.032-.04-.072-.038-.114zm.083 0c-.005.022-.005.044 0 .066.005.009.013.016.023.02a.08.08 0 0 0 .03.006c.01 0 .019-.001.027-.006s.015-.011.018-.02c.013-.02.02-.043.019-.066s-.004-.038-.011-.055c-.005-.009-.012-.016-.02-.02s-.019-.007-.029-.005-.019.001-.027.006-.015.011-.018.02a.13.13 0 0 0-.019.066l.008-.011z"/><path d="M54.411 53.587h-.29v.304h-.145v-.733h.5v.114h-.355v.201h.304l-.014.113zm-4.653-.264c0 .173-.069.339-.191.462s-.288.191-.461.192H47.43a.75.75 0 0 1-.73-.749.75.75 0 0 1 .73-.749h.021a.71.71 0 0 1 1.317-.167.5.5 0 0 1 .108-.013.48.48 0 0 1 .314.121.47.47 0 0 1 .155.298.65.65 0 0 1 .299.24.66.66 0 0 1 .114.366h0z"/><rect x="46.7" y="49" width="6" height="1.2" rx=".6"/></g><rect x="60.45" y="47.25" width="13.3" height="8.5" rx=".25" class="C E F"/><g class="B"><use href="#E"/><use href="#F"/><use href="#G"/><use href="#H"/><use href="#I"/><use href="#D" x="47.2"/><path d="M66.258 53.323c0 .173-.069.339-.191.462s-.288.191-.462.192H63.93a.75.75 0 0 1-.73-.749.75.75 0 0 1 .73-.749h.021a.71.71 0 0 1 .601-.534.71.71 0 0 1 .716.367c.035-.008.072-.013.108-.013.116.001.227.044.314.121s.142.183.155.298c.121.048.226.132.299.24s.113.235.114.366h0z"/><rect x="63.2" y="49" width="6" height="1.2" rx=".6"/></g><rect x="76.95" y="47.25" width="13.3" height="8.5" rx=".25" class="C E F"/><g class="B"><use href="#E" x="16.5"/><use href="#F" x="16.5"/><use href="#G" x="16.5"/><use href="#H" x="16.5"/><use href="#I" x="16.5"/><use href="#D" x="63.7"/><path d="M82.758 53.323c0 .173-.069.339-.191.462s-.288.191-.462.192H80.43a.75.75 0 0 1-.73-.749.75.75 0 0 1 .73-.749h.021a.71.71 0 0 1 .601-.534.71.71 0 0 1 .716.367c.035-.008.072-.013.108-.013.116.001.227.044.314.121s.142.183.155.298c.121.048.226.132.299.24s.113.235.114.366h0z"/><rect x="79.7" y="49" width="6" height="1.2" rx=".6"/></g><rect x="93.45" y="47.25" width="13.3" height="8.5" rx=".25" class="C E F"/><g class="B"><path d="M100.133 52.704h.228a.27.27 0 0 0 .214-.078c.048-.061.072-.137.067-.215.003-.072-.021-.144-.067-.2-.027-.026-.059-.046-.093-.059s-.072-.018-.109-.016c-.07-.002-.138.022-.191.067-.024.023-.044.05-.057.081s-.019.063-.018.097h-.393c-.004-.076.011-.152.043-.222a.48.48 0 0 1 .141-.178.71.71 0 0 1 .467-.159.75.75 0 0 1 .501.155.54.54 0 0 1 .138.195c.03.074.043.154.038.234a.44.44 0 0 1-.082.255c-.057.083-.136.148-.228.188a.5.5 0 0 1 .254.189c.06.086.092.188.09.292a.54.54 0 0 1-.202.447c-.148.112-.33.17-.516.163-.173.006-.342-.048-.479-.152a.49.49 0 0 1-.154-.191c-.034-.076-.048-.159-.041-.241h.374c-.001.037.006.073.02.107s.036.064.063.089c.057.052.132.08.209.078a.29.29 0 0 0 .221-.081c.028-.028.05-.062.065-.098a.27.27 0 0 0 .017-.116c.007-.042.004-.086-.009-.127a.29.29 0 0 0-.067-.109c-.031-.031-.068-.054-.11-.067s-.085-.017-.128-.011h-.228l.022-.318z"/><path d="M102.725 53.913h-1.372v-.27l.651-.717c.076-.087.144-.181.201-.281a.46.46 0 0 0 .06-.211.33.33 0 0 0-.071-.215c-.023-.028-.053-.05-.087-.064s-.071-.02-.107-.018c-.041-.003-.082.004-.119.021s-.07.043-.094.075a.44.44 0 0 0-.071.259h-.393c-.004-.087.009-.173.04-.255a.64.64 0 0 1 .139-.218c.065-.066.143-.117.23-.151s.179-.049.272-.045a.69.69 0 0 1 .489.166.57.57 0 0 1 .176.444.61.61 0 0 1-.097.344 3.6 3.6 0 0 1-.333.418l-.374.399h.86v.318zm.339-1.927a.17.17 0 0 1 .038-.115.13.13 0 0 1 .049-.034.14.14 0 0 1 .059-.01.14.14 0 0 1 .061.01c.019.008.037.019.051.035a.17.17 0 0 1 .038.115c.002.041-.011.082-.038.115a.13.13 0 0 1-.049.034c-.019.008-.039.011-.059.01s-.042-.002-.061-.01-.037-.019-.051-.035c-.027-.032-.04-.073-.038-.115zm.083 0a.15.15 0 0 0 0 .067c.005.009.013.016.022.02s.02.007.03.006.019-.001.027-.006.014-.012.018-.02c.013-.02.02-.043.019-.067s-.004-.038-.012-.055c-.004-.009-.011-.016-.02-.02s-.018-.007-.028-.005-.019.001-.027.006-.014.012-.018.02a.13.13 0 0 0-.019.066l.008-.011zm.852.321c.002.034-.003.068-.015.1a.23.23 0 0 1-.056.085c-.058.047-.131.07-.205.067a.27.27 0 0 1-.117-.018c-.037-.015-.07-.038-.097-.067s-.049-.062-.063-.099-.021-.076-.019-.116v-.14a.3.3 0 0 1 .079-.214.32.32 0 0 1 .209-.078c.077 0 .152.028.21.078.025.023.045.052.058.084s.019.066.016.101h-.142c.003-.04-.009-.079-.033-.111-.015-.013-.032-.023-.051-.03a.14.14 0 0 0-.058-.007c-.018.003-.036.01-.051.02s-.029.024-.039.04c-.026.04-.039.088-.037.137v.141c-.003.049.011.098.041.137.013.016.029.03.048.038s.04.014.061.013.037-.001.054-.007a.13.13 0 0 0 .047-.03c.025-.03.037-.069.033-.107l.127-.015zm-.935 1.009c-.002-.041.012-.081.038-.114.014-.015.031-.026.05-.034s.039-.011.059-.01a.15.15 0 0 1 .062.01c.019.008.037.019.051.034.027.032.04.072.038.114s-.011.082-.038.114c-.014.015-.031.026-.049.034s-.04.011-.06.01-.042-.002-.061-.01-.038-.019-.052-.034c-.027-.032-.04-.072-.038-.114zm.083 0c-.005.022-.005.044 0 .066.006.009.014.016.023.02s.02.006.03.006.019-.001.027-.006.014-.011.018-.02c.013-.02.02-.043.019-.066a.13.13 0 0 0-.011-.055c-.005-.009-.012-.016-.021-.02s-.018-.007-.028-.005-.019.001-.027.006-.015.011-.018.02a.12.12 0 0 0-.019.066l.007-.011z"/><path d="M103.911 53.587h-.29v.304h-.145v-.733h.501v.114h-.356v.201h.305l-.015.113zm-4.653-.264c0 .173-.069.339-.191.462s-.288.191-.462.192H96.93a.75.75 0 0 1-.73-.749.75.75 0 0 1 .73-.749h.021a.71.71 0 0 1 1.317-.167.49.49 0 0 1 .108-.013.48.48 0 0 1 .314.121.47.47 0 0 1 .155.298.65.65 0 0 1 .299.24.66.66 0 0 1 .114.366h0z"/><rect x="96.2" y="49" width="6" height="1.2" rx=".6"/><circle cx="24.5" cy="61.2" r="1.5"/><circle cx="42.5" cy="64" r="1.5"/><circle cx="59.5" cy="61" r="1.5"/><circle cx="77.5" cy="63" r="1.5"/><circle cx="94.5" cy="61.5" r="1.5"/></g><defs><linearGradient id="B" x1="92.679" y1="21.531" x2="94.45" y2="24.6" gradientUnits="userSpaceOnUse"><stop stop-color="#f3f7fe"/><stop offset=".45" stop-color="#f3f7fe"/><stop offset="1" stop-color="#deeafb"/></linearGradient><linearGradient id="C" x1="93.124" y1="23.225" x2="94.084" y2="24.89" gradientUnits="userSpaceOnUse"><stop stop-color="#f7b23b"/><stop offset=".45" stop-color="#f7b23b"/><stop offset="1" stop-color="#f59e0b"/></linearGradient><path id="D" d="M23.711 53.587h-.29v.304h-.145v-.733h.5v.114h-.355v.201h.305l-.014.113z"/><path id="E" d="M67.133 52.704h.228a.27.27 0 0 0 .115-.015c.037-.013.07-.035.098-.062.048-.061.072-.137.067-.215.003-.072-.021-.144-.067-.2-.026-.026-.058-.046-.093-.059s-.072-.018-.109-.016c-.07-.002-.138.022-.191.067-.024.023-.044.05-.056.081s-.019.063-.018.097h-.393c-.004-.076.011-.152.043-.222a.48.48 0 0 1 .141-.178.71.71 0 0 1 .468-.159c.18-.01.359.045.501.155.06.054.107.12.138.195a.53.53 0 0 1 .038.234.44.44 0 0 1-.082.255c-.057.083-.136.148-.228.188a.5.5 0 0 1 .254.189.49.49 0 0 1 .09.292c.004.085-.012.17-.047.248a.54.54 0 0 1-.155.2c-.148.112-.33.17-.516.163-.172.006-.342-.048-.479-.152a.49.49 0 0 1-.154-.191c-.034-.076-.048-.159-.041-.241h.374c-.001.037.005.073.02.107s.036.064.063.089c.057.052.132.08.21.078a.29.29 0 0 0 .119-.017c.038-.014.073-.036.102-.064s.05-.062.065-.098.02-.077.018-.116c.007-.042.004-.086-.01-.127s-.036-.078-.067-.109-.068-.054-.109-.067a.28.28 0 0 0-.128-.011h-.228l.022-.318z"/><path id="F" d="M69.725 53.913h-1.373v-.27l.651-.717a1.7 1.7 0 0 0 .202-.281c.036-.065.056-.137.06-.211a.33.33 0 0 0-.071-.215c-.024-.028-.054-.05-.087-.064s-.07-.02-.107-.018c-.041-.003-.082.004-.119.021s-.07.043-.094.075a.45.45 0 0 0-.071.259h-.393c-.004-.087.01-.173.041-.255a.64.64 0 0 1 .139-.218.66.66 0 0 1 .229-.151c.086-.034.179-.049.272-.045a.69.69 0 0 1 .49.166c.06.057.106.127.136.203a.57.57 0 0 1 .039.241c.002.122-.032.241-.097.344a3.62 3.62 0 0 1-.333.418l-.374.399h.86v.318z"/><path id="G" d="M70.064 51.986c-.002-.041.011-.082.037-.115.014-.015.031-.026.049-.034s.039-.011.059-.01.042.002.061.01.037.019.051.035c.026.032.04.073.037.115s-.011.082-.037.115c-.014.015-.031.026-.049.034s-.039.011-.059.01-.042-.002-.061-.01-.037-.019-.051-.035c-.026-.032-.04-.073-.037-.115zm.082 0c-.005.022-.005.045 0 .067.005.009.013.016.022.02s.02.007.03.006.019-.001.027-.006.014-.012.018-.02a.11.11 0 0 0 .019-.067c0-.019-.003-.038-.011-.055-.005-.009-.011-.016-.02-.02s-.019-.007-.028-.005-.018.001-.027.006-.014.012-.018.02c-.012.02-.019.043-.019.066l.007-.011z"/><path id="H" d="M71 52.307c.002.034-.004.068-.016.1s-.031.061-.055.085c-.058.047-.131.07-.206.067a.27.27 0 0 1-.116-.018c-.037-.015-.07-.038-.097-.067s-.05-.062-.064-.099-.021-.076-.019-.116v-.14c-.004-.079.025-.156.079-.214a.32.32 0 0 1 .419 0c.026.023.046.052.059.084s.019.066.016.101h-.142c.003-.04-.009-.079-.034-.111-.014-.013-.032-.023-.05-.03s-.038-.009-.058-.007-.036.01-.051.02-.029.024-.038.04c-.027.04-.04.088-.037.137v.141c-.003.049.012.098.041.137.013.016.029.03.048.038s.04.014.06.013.037-.001.055-.007.033-.017.046-.03c.025-.03.037-.069.034-.107l.127-.015z"/><path id="I" d="M70.064 53.316c-.002-.041.011-.081.038-.114a.14.14 0 0 1 .05-.034c.019-.008.039-.011.06-.01s.042.002.062.01.037.019.051.034c.026.032.04.072.038.114s-.011.082-.038.114a.14.14 0 0 1-.05.034c-.019.008-.039.011-.06.01s-.042-.002-.062-.01-.037-.019-.051-.034c-.027-.032-.04-.072-.038-.114zm.083 0c-.005.022-.005.044 0 .066.005.009.013.016.023.02s.02.006.03.006.019-.001.027-.006.015-.011.018-.02c.013-.02.02-.043.019-.066s-.004-.038-.011-.055c-.005-.009-.012-.016-.02-.02s-.019-.007-.029-.005-.019.001-.027.006-.014.011-.018.02c-.012.02-.019.043-.019.066l.008-.011z"/></defs></svg>