<svg xmlns="http://www.w3.org/2000/svg" width="120" height="80" fill="none" xmlns:v="https://vecta.io/nano"><rect x=".75" y=".75" width="118.5" height="78.5" rx="2.25" fill="#fff"/><rect x=".75" y=".75" width="118.5" height="78.5" rx="2.25" stroke="#8796a1" stroke-width="1.5"/><rect x="10.5" y="10.5" width="99" height="59" rx="1.5" fill="#fff" stroke="#58707f"/><g fill="#58707f"><rect x="60" y="16.19" width="7" height="1.5" rx=".75"/><rect x="68" y="16.19" width="6" height="1.5" rx=".75"/><rect x="60" y="20.565" width="7" height="1.5" rx=".75"/><rect x="68" y="20.565" width="12" height="1.5" rx=".75"/><rect x="60" y="24.94" width="7" height="1.5" rx=".75"/><rect x="68" y="24.94" width="8" height="1.5" rx=".75"/><rect x="60" y="29.315" width="7" height="1.5" rx=".75"/><rect x="68" y="29.315" width="7" height="1.5" rx=".75"/><rect x="60" y="33.69" width="7" height="1.5" rx=".75"/><rect x="68" y="33.69" width="11" height="1.5" rx=".75"/><rect x="85" y="16.19" width="7" height="1.5" rx=".75"/><rect x="93" y="16.19" width="6" height="1.5" rx=".75"/><rect x="85" y="20.565" width="7" height="1.5" rx=".75"/><rect x="93" y="20.565" width="12" height="1.5" rx=".75"/><rect x="85" y="24.94" width="7" height="1.5" rx=".75"/><rect x="93" y="24.94" width="8" height="1.5" rx=".75"/><rect x="85" y="29.315" width="7" height="1.5" rx=".75"/><rect x="93" y="29.315" width="7" height="1.5" rx=".75"/><rect x="85" y="33.69" width="7" height="1.5" rx=".75"/><rect x="93" y="33.69" width="11" height="1.5" rx=".75"/><rect x="15" y="38.19" width="10" height="2" rx="1"/></g><g fill="#abb6bd"><rect x="27" y="38.19" width="10" height="2" rx="1"/><rect x="39" y="38.19" width="10" height="2" rx="1"/></g><g fill-rule="evenodd"><path d="M15 46.348s8.545-1.196 12.857-.964c2.755.148 9.143 2.607 15.612 2.571s10.984-2.684 17.449-2.755c5.391-.06 9.303 1.733 14.694 1.837 6.138.118 9.474-1.283 15.612-1.378C96.651 45.576 105 47.496 105 47.496v2.847c0 .866 0 1.299-.269 1.568s-.702.269-1.568.269H16.837c-.866 0-1.299 0-1.568-.269S15 51.209 15 50.343v-3.995z" fill="#58707f"/><path d="M15 46.978s8.545-1.196 12.857-.964c2.89.156 9.143 2.607 15.612 2.571s10.627-2.627 17.449-2.755c5.033-.094 9.303 1.733 14.694 1.837 6.138.119 9.474-1.283 15.612-1.377C96.651 46.206 105 48.126 105 48.126v4.684H15v-5.832z" fill="#dee2e5"/></g><g fill="#58707f"><circle cx="28.05" cy="45.72" r="1.35"/><circle cx="44.25" cy="48.24" r="1.35"/><circle cx="59.55" cy="45.54" r="1.35"/><circle cx="75.75" cy="47.34" r="1.35"/><circle cx="91.05" cy="45.99" r="1.35"/><rect x="16" y="56.81" width="8" height="1" rx=".5"/><use href="#B"/><rect x="15" y="62.81" width="10" height="1" rx=".5"/><rect x="31.5" y="56.81" width="9" height="1" rx=".5"/><use href="#B" x="16"/><rect x="31" y="62.81" width="10" height="1" rx=".5"/><rect x="48.5" y="56.81" width="7" height="1" rx=".5"/><use href="#B" x="32"/><rect x="47" y="62.81" width="10" height="1" rx=".5"/><rect x="64.5" y="56.81" width="7" height="1" rx=".5"/><use href="#B" x="48"/><rect x="63" y="62.81" width="10" height="1" rx=".5"/><rect x="80.5" y="56.81" width="7" height="1" rx=".5"/><use href="#B" x="64"/><rect x="79" y="62.81" width="10" height="1" rx=".5"/><rect x="96.5" y="56.81" width="7" height="1" rx=".5"/><use href="#B" x="80"/><rect x="95" y="62.81" width="10" height="1" rx=".5"/><path d="M27.394 16.19H15.94c-.519 0-.94.448-.94 1s.421 1 .94 1h11.454c.519 0 .94-.448.94-1s-.421-1-.94-1zm16 0H31.94c-.519 0-.94.448-.94 1s.421 1 .94 1h11.454c.519 0 .94-.448.94-1s-.421-1-.94-1zm-8.632 10.541h1.146a1.35 1.35 0 0 0 .58-.076 1.34 1.34 0 0 0 .491-.314 1.58 1.58 0 0 0 .338-1.078 1.48 1.48 0 0 0-.338-1.003 1.31 1.31 0 0 0-.467-.294 1.33 1.33 0 0 0-.548-.078 1.44 1.44 0 0 0-.958.334 1.2 1.2 0 0 0-.284.406 1.18 1.18 0 0 0-.092.485h-1.973a2.37 2.37 0 0 1 .213-1.114c.16-.349.403-.655.708-.892a3.56 3.56 0 0 1 2.349-.799 3.79 3.79 0 0 1 2.518.78c.302.27.538.605.691.978s.219.776.192 1.177a2.21 2.21 0 0 1-.413 1.282c-.286.415-.683.743-1.146.947.519.169.968.502 1.278.948a2.47 2.47 0 0 1 .451 1.468c.022.427-.058.854-.235 1.244a2.73 2.73 0 0 1-.78 1.003c-.741.564-1.659.853-2.593.818-.867.028-1.717-.241-2.406-.762a2.46 2.46 0 0 1-.773-.962 2.43 2.43 0 0 1-.204-1.212h1.879a1.27 1.27 0 0 0 .098.537 1.29 1.29 0 0 0 .315.448c.285.261.664.401 1.052.39a1.47 1.47 0 0 0 .599-.087 1.45 1.45 0 0 0 .51-.322c.143-.14.253-.309.325-.494a1.38 1.38 0 0 0 .089-.583 1.36 1.36 0 0 0-.048-.638 1.37 1.37 0 0 0-.335-.547c-.154-.154-.342-.27-.55-.338a1.41 1.41 0 0 0-.645-.055H34.65l.113-1.598zm13.024 6.075h-6.897V31.45l3.27-3.604a8.53 8.53 0 0 0 1.015-1.412c.181-.325.284-.688.301-1.059a1.66 1.66 0 0 0-.357-1.078c-.118-.14-.269-.25-.439-.321a1.18 1.18 0 0 0-.538-.088 1.23 1.23 0 0 0-.598.106 1.22 1.22 0 0 0-.473.377 2.26 2.26 0 0 0-.357 1.3H40.74a3.18 3.18 0 0 1 .203-1.281 3.21 3.21 0 0 1 .699-1.097 3.31 3.31 0 0 1 1.153-.759 3.34 3.34 0 0 1 1.366-.226c.9-.051 1.784.249 2.462.836a2.9 2.9 0 0 1 .685 1.02 2.87 2.87 0 0 1 .198 1.209c.012.611-.158 1.212-.489 1.728a18.03 18.03 0 0 1-1.673 2.099l-1.879 2.006h4.322v1.598zm1.703-9.683a.85.85 0 0 1 .188-.576.71.71 0 0 1 .247-.172.7.7 0 0 1 .297-.052.72.72 0 0 1 .307.049c.097.038.185.098.257.174a.85.85 0 0 1 .188.576.83.83 0 0 1-.188.576.71.71 0 0 1-.247.172.7.7 0 0 1-.297.051.72.72 0 0 1-.307-.049c-.097-.038-.185-.098-.257-.174a.83.83 0 0 1-.188-.576zm.413 0c-.026.11-.026.224 0 .334a.28.28 0 0 0 .113.102c.046.023.098.033.15.029.047.004.093-.006.134-.03s.072-.058.092-.101a.56.56 0 0 0 .094-.334c.002-.096-.017-.191-.056-.279-.023-.044-.058-.079-.102-.103s-.093-.033-.142-.027c-.046-.004-.093.006-.134.03a.22.22 0 0 0-.092.101.65.65 0 0 0-.094.334l.038-.056zm4.286 1.616a1.23 1.23 0 0 1-.079.502 1.22 1.22 0 0 1-.278.427 1.53 1.53 0 0 1-1.034.334 1.35 1.35 0 0 1-.585-.093 1.33 1.33 0 0 1-.486-.334 1.6 1.6 0 0 1-.32-.496c-.072-.185-.103-.383-.094-.581v-.706c-.017-.397.124-.784.395-1.078a1.61 1.61 0 0 1 2.105 0 1.15 1.15 0 0 1 .295.422 1.14 1.14 0 0 1 .081.507h-.714a.83.83 0 0 0-.169-.557.72.72 0 0 0-.545-.186.65.65 0 0 0-.259.099c-.078.051-.144.119-.192.198a1.14 1.14 0 0 0-.188.687v.706a1.03 1.03 0 0 0 .207.687.69.69 0 0 0 .241.194.68.68 0 0 0 .304.067.63.63 0 0 0 .275-.035.62.62 0 0 0 .232-.15.74.74 0 0 0 .169-.539l.639-.074zm-4.699 5.069a.83.83 0 0 1 .189-.57.7.7 0 0 1 .249-.17.71.71 0 0 1 .299-.051.74.74 0 0 1 .309.049.72.72 0 0 1 .258.172.83.83 0 0 1 .189.57c.012.206-.055.41-.189.57a.7.7 0 0 1-.249.17.72.72 0 0 1-.3.051.74.74 0 0 1-.309-.049.72.72 0 0 1-.258-.172.81.81 0 0 1-.189-.57zm.416 0a.71.71 0 0 0 0 .331.28.28 0 0 0 .114.101.29.29 0 0 0 .151.028c.047.004.094-.006.135-.029s.073-.058.092-.1a.54.54 0 0 0 .095-.331.63.63 0 0 0-.057-.276c-.023-.043-.058-.079-.102-.102s-.094-.032-.144-.027c-.047-.004-.094.006-.135.029s-.073.058-.092.1a.63.63 0 0 0-.095.331l.038-.055zm3.84 1.36h-1.457v1.527h-.728v-3.68h2.513v.57h-1.785v1.012h1.53l-.073.57zm-23.379-1.325a3.29 3.29 0 0 1-.961 2.32 3.28 3.28 0 0 1-2.319.963h-8.418c-.981-.025-1.914-.432-2.599-1.135S15 30.345 15 29.364a3.76 3.76 0 0 1 1.069-2.627c.686-.703 1.618-1.11 2.599-1.135h.104a3.58 3.58 0 0 1 6.618-.842c.178-.042.36-.063.543-.063a2.39 2.39 0 0 1 1.577.606c.434.387.712.92.781 1.498a3.29 3.29 0 0 1 2.075 3.043h0z"/></g><defs ><path id="B" d="M21.5 60.31a1.5 1.5 0 1 1-3 0 1.5 1.5 0 1 1 3 0z"/></defs></svg>