<svg xmlns="http://www.w3.org/2000/svg" width="120" height="80" fill="none" xmlns:v="https://vecta.io/nano"><rect x=".75" y=".75" width="118.5" height="78.5" rx="2.25" fill="#fff"/><rect x=".75" y=".75" width="118.5" height="78.5" rx="2.25" stroke="#8796a1" stroke-width="1.5"/><g stroke="#58707f"><rect x="10.5" y="10.5" width="99" height="31" rx="1.5" fill="#fff"/><rect x="50.5" y="20.5" width="29" height="21" rx=".5"/></g><g fill="#58707f"><rect x="52.5" y="23" width="2" height="2" rx="1"/><rect x="55.5" y="23.25" width="8" height="1.5" rx=".75"/><rect x="69.5" y="23.25" width="8" height="1.5" rx=".75"/><rect x="82.5" y="23" width="2" height="2" rx="1"/><rect x="85.5" y="23.25" width="8" height="1.5" rx=".75"/><rect x="99.5" y="23.25" width="8" height="1.5" rx=".75"/><path fill-rule="evenodd" d="M50 27h59v1H50v-1z"/><rect x="52.5" y="30" width="2" height="2" rx="1"/><rect x="55.5" y="30.25" width="6" height="1.5" rx=".75"/><rect x="67.5" y="30.25" width="10" height="1.5" rx=".75"/><rect x="82.5" y="30" width="2" height="2" rx="1"/><rect x="85.5" y="30.25" width="6" height="1.5" rx=".75"/><rect x="97.5" y="30.25" width="10" height="1.5" rx=".75"/><path fill-rule="evenodd" d="M50 34h59v1H50v-1z"/><rect x="52.5" y="37" width="2" height="2" rx="1"/><rect x="55.5" y="37.25" width="8" height="1.5" rx=".75"/><rect x="69.5" y="37.25" width="8" height="1.5" rx=".75"/><rect x="82.5" y="37" width="2" height="2" rx="1"/><rect x="85.5" y="37.25" width="8" height="1.5" rx=".75"/><rect x="99.5" y="37.25" width="8" height="1.5" rx=".75"/><path fill-opacity=".2" d="M11 11h98v10H11z"/><path d="M10 20h99v1H10z"/><path d="M50 10h1v10h-1z"/><rect x="22" y="14.5" width="16" height="2" rx="1"/><rect x="72.5" y="14.5" width="16" height="2" rx="1"/><path d="M30.17 30.156h.896a.89.89 0 0 0 .453-.071c.145-.063.276-.164.384-.295a1.7 1.7 0 0 0 .264-1.011c.012-.342-.082-.677-.264-.942a1.02 1.02 0 0 0-.365-.276.88.88 0 0 0-.428-.073c-.274-.008-.54.104-.749.314a1.14 1.14 0 0 0-.221.381 1.3 1.3 0 0 0-.072.456h-1.541a2.62 2.62 0 0 1 .167-1.046c.125-.328.315-.615.553-.838.515-.506 1.167-.772 1.835-.75.709-.046 1.407.214 1.967.732a2.56 2.56 0 0 1 .54.918 2.92 2.92 0 0 1 .15 1.105 2.37 2.37 0 0 1-.323 1.203 2.28 2.28 0 0 1-.895.889c.406.159.756.471.998.889a2.65 2.65 0 0 1 .352 1.378 2.97 2.97 0 0 1-.183 1.168c-.138.367-.347.69-.609.942-.579.529-1.296.801-2.026.767-.677.026-1.341-.226-1.879-.715a2.28 2.28 0 0 1-.604-.903 2.69 2.69 0 0 1-.159-1.137h1.468c-.005.172.021.344.077.504a1.23 1.23 0 0 0 .246.42c.223.245.518.377.822.366a.97.97 0 0 0 .468-.082c.149-.066.285-.169.399-.302s.198-.29.254-.464.079-.361.069-.547a1.53 1.53 0 0 0-.038-.599c-.052-.193-.142-.37-.262-.514s-.267-.253-.43-.317-.335-.082-.504-.052h-.896l.088-1.5zm10.172 5.702h-5.387v-1.273l2.554-3.383a8.19 8.19 0 0 0 .793-1.325 2.6 2.6 0 0 0 .235-.994c.009-.365-.09-.723-.279-1.011a.94.94 0 0 0-.343-.301c-.133-.067-.277-.095-.421-.083-.16-.014-.321.02-.467.099s-.273.201-.369.354c-.194.364-.291.79-.279 1.221h-1.541a3.55 3.55 0 0 1 .159-1.202 3.14 3.14 0 0 1 .546-1.03 2.6 2.6 0 0 1 .9-.712 2.22 2.22 0 0 1 1.067-.212c.703-.048 1.393.234 1.923.785a2.8 2.8 0 0 1 .535.958 3.19 3.19 0 0 1 .155 1.135c.009.573-.124 1.137-.382 1.622a16.94 16.94 0 0 1-1.306 1.97l-1.468 1.883h3.376v1.5zm1.659-8.679a.91.91 0 0 1 .147-.541c.054-.07.12-.125.193-.161a.47.47 0 0 1 .233-.048.48.48 0 0 1 .24.046.57.57 0 0 1 .201.163c.103.153.155.345.147.541.01.196-.043.389-.147.541-.054.07-.12.125-.193.161a.46.46 0 0 1-.232.048.48.48 0 0 1-.24-.046c-.076-.036-.145-.092-.2-.163a.89.89 0 0 1-.147-.541zm.323 0a.83.83 0 0 0 0 .314.24.24 0 0 0 .088.095c.036.021.077.031.117.027.036.004.073-.006.104-.028s.057-.055.072-.094c.052-.093.078-.203.073-.314a.71.71 0 0 0-.044-.262.21.21 0 0 0-.079-.096.17.17 0 0 0-.111-.026c-.036-.004-.073.006-.104.028a.2.2 0 0 0-.072.094c-.048.095-.073.203-.073.314l.029-.052zm3.347 1.517a1.35 1.35 0 0 1-.062.471c-.048.15-.122.287-.217.401a1.07 1.07 0 0 1-.807.314.9.9 0 0 1-.457-.087 1.06 1.06 0 0 1-.38-.314 1.41 1.41 0 0 1-.25-.466 1.59 1.59 0 0 1-.073-.545v-.663c-.014-.372.097-.736.308-1.011a1.14 1.14 0 0 1 .822-.367 1.14 1.14 0 0 1 .822.367 1.11 1.11 0 0 1 .231.396c.051.151.072.314.063.476h-.558c.01-.188-.037-.373-.132-.523a.55.55 0 0 0-.197-.14.47.47 0 0 0-.228-.034.46.46 0 0 0-.202.093.56.56 0 0 0-.15.186c-.105.191-.157.417-.147.645v.663a1.11 1.11 0 0 0 .161.645.56.56 0 0 0 .189.182.46.46 0 0 0 .237.062.42.42 0 0 0 .215-.033c.069-.03.131-.078.181-.141a.79.79 0 0 0 .132-.506l.499-.07zm-3.67 4.555a.91.91 0 0 1 .147-.541c.054-.07.12-.125.193-.161a.46.46 0 0 1 .232-.048.48.48 0 0 1 .24.046.57.57 0 0 1 .201.163c.103.153.155.345.147.541.01.196-.043.389-.147.541-.054.07-.12.125-.193.161a.47.47 0 0 1-.233.048.48.48 0 0 1-.24-.046.57.57 0 0 1-.201-.163.89.89 0 0 1-.147-.541zm.323 0a.83.83 0 0 0 0 .314.24.24 0 0 0 .088.095.19.19 0 0 0 .117.027c.036.004.073-.006.104-.028a.2.2 0 0 0 .072-.094.6.6 0 0 0 .073-.314.71.71 0 0 0-.044-.262.21.21 0 0 0-.079-.096.17.17 0 0 0-.111-.026c-.036-.004-.073.006-.105.028a.2.2 0 0 0-.072.094.7.7 0 0 0-.073.314l.029-.052zm2.98 1.289h-1.131v1.447h-.566V32.5h1.951v.541h-1.385V34h1.187l-.057.541zM27 33.465a2.56 2.56 0 0 1-.751 1.811 2.57 2.57 0 0 1-1.811.752h-6.574A2.94 2.94 0 0 1 15 33.091a2.94 2.94 0 0 1 2.864-2.938h.081a2.79 2.79 0 0 1 .856-1.413c.422-.374.945-.612 1.504-.683s1.126.028 1.627.285.913.659 1.182 1.153c.139-.032.282-.049.424-.049a1.87 1.87 0 0 1 1.232.473 1.86 1.86 0 0 1 .61 1.17A2.57 2.57 0 0 1 27 33.465h0z"/></g><g stroke="#58707f"><rect x="10.5" y="47.5" width="99" height="22" rx="1.5" fill="#fff"/><rect x="28.5" y="47.5" width="29" height="22" rx=".5"/></g><mask id="A" fill="#fff"><path d="M28 49c0-.943 0-1.414.293-1.707S29.057 47 30 47h11c.943 0 1.414 0 1.707.293S43 48.057 43 49v19c0 .943 0 1.414-.293 1.707S41.943 70 41 70H30c-.943 0-1.414 0-1.707-.293S28 68.943 28 68V49z"/></mask><path d="M28 47h15-15zm15 23H28h15zm-15 0V47v23zm14-23a2 2 0 0 1 2 2v19a2 2 0 0 1-2 2v-1-21-1z" fill="#58707f" mask="url(#A)"/><mask id="B" fill="#fff"><path d="M57 49c0-.943 0-1.414.293-1.707S58.057 47 59 47h13.667c.943 0 1.414 0 1.707.293s.293.764.293 1.707v19c0 .943 0 1.414-.293 1.707S73.61 70 72.667 70H59c-.943 0-1.414 0-1.707-.293S57 68.943 57 68V49z"/></mask><path d="M57 47h17.667H57zm17.667 23H57h17.667zM57 70V47v23zm16.667-23a2 2 0 0 1 2 2v19a2 2 0 0 1-2 2v-1-21-1z" fill="#58707f" mask="url(#B)"/><mask id="C" fill="#fff"><path d="M74 49c0-.943 0-1.414.293-1.707S75.057 47 76 47h13.667c.943 0 1.414 0 1.707.293s.293.764.293 1.707v19c0 .943 0 1.414-.293 1.707S90.61 70 89.667 70H76c-.943 0-1.414 0-1.707-.293S74 68.943 74 68V49z"/></mask><g fill="#58707f"><path d="M74 47h17.667H74zm17.667 23H74h17.667zM74 70V47v23zm16.667-23a2 2 0 0 1 2 2v19a2 2 0 0 1-2 2v-1-21-1z" mask="url(#C)"/><rect x="30.5" y="58" width="2" height="2" rx="1"/><rect x="33.5" y="58.25" width="6" height="1.5" rx=".75"/><rect x="44.5" y="58.25" width="8" height="1.5" rx=".75"/><rect x="59.5" y="58.25" width="8" height="1.5" rx=".75"/><rect x="76" y="58.25" width="8" height="1.5" rx=".75"/><rect x="93.5" y="58.25" width="9" height="1.5" rx=".75"/><rect x="105.138" y="57.888" width="1" height="2" rx=".5" transform="rotate(20.792 105.138 57.888)"/><rect x="30.5" y="65" width="2" height="2" rx="1"/><rect x="33.5" y="65.25" width="6" height="1.5" rx=".75"/><rect x="44.5" y="65.25" width="8" height="1.5" rx=".75"/><rect x="59.5" y="65.25" width="10" height="1.5" rx=".75"/><rect x="76" y="65.25" width="10" height="1.5" rx=".75"/><rect x="93.5" y="65.25" width="9" height="1.5" rx=".75"/><rect x="105.138" y="64.888" width="1" height="2" rx=".5" transform="rotate(20.792 105.138 64.888)"/><path fill-rule="evenodd" d="M10 62h99v1H10v-1z"/><path d="M11 49a2 2 0 0 1 2-2h94a2 2 0 0 1 2 2v7H11v-7z" fill-opacity=".2"/><path d="M10 55h99v1H10z"/><path fill-opacity=".2" d="M11 55h18v14H11z"/><path d="M28 47h1v22h-1z"/><rect x="13" y="50.5" width="10" height="2" rx="1"/><rect x="32" y="50.5" width="7" height="2" rx="1"/><rect x="46" y="50.5" width="7" height="2" rx="1"/><rect x="13" y="58" width="8" height="2" rx="1"/><rect x="13" y="65" width="12" height="2" rx="1"/><rect x="59.5" y="50.5" width="11" height="2" rx="1"/><rect x="76.17" y="50.5" width="10" height="2" rx="1"/><rect x="93.17" y="50.5" width="10" height="2" rx="1"/></g></svg>