<svg xmlns="http://www.w3.org/2000/svg" width="120" height="80" fill="none" xmlns:v="https://vecta.io/nano"><rect x=".75" y=".75" width="118.5" height="78.5" rx="2.25" fill="#fff"/><rect x=".75" y=".75" width="118.5" height="78.5" rx="2.25" stroke="#8796a1" stroke-width="1.5"/><mask id="A" fill="#fff"><path d="M10.732 10.586C10 11.172 10 12.114 10 14v52c0 1.886 0 2.828.732 3.414S12.643 70 15 70h90c2.357 0 3.536 0 4.268-.586S110 67.886 110 66V19c0-.943 0-1.414-.293-1.707S108.943 17 108 17H30v-7H15c-2.357 0-3.536 0-4.268.586z"/></mask><path d="M10.732 10.586C10 11.172 10 12.114 10 14v52c0 1.886 0 2.828.732 3.414S12.643 70 15 70h90c2.357 0 3.536 0 4.268-.586S110 67.886 110 66V19c0-.943 0-1.414-.293-1.707S108.943 17 108 17H30v-7H15c-2.357 0-3.536 0-4.268.586z" fill="#fff" stroke="#58707f" stroke-width="2" mask="url(#A)"/><g clip-path="url(#B)" fill="#58707f"><path d="M83.407 28.055c.09.09.207.134.324.134a.46.46 0 0 0 .324-.782l-.648-.648a.46.46 0 0 0-.648 0 .46.46 0 0 0 0 .648l.648.648zM83.25 30c0-.253-.205-.417-.458-.417h-.917c-.253 0-.458.163-.458.417s.205.417.458.417h.917c.253 0 .458-.164.458-.417zM86 27.25c.253 0 .417-.205.417-.458v-.917c0-.253-.163-.458-.417-.458s-.417.205-.417.458v.917c0 .253.163.458.417.458zm2.269.94a.46.46 0 0 0 .324-.134l.648-.648a.46.46 0 0 0 0-.648.46.46 0 0 0-.648 0l-.648.648a.46.46 0 0 0 0 .648c.09.09.207.134.324.134z"/><path d="M86 27.708c-1.263 0-2.292 1.028-2.292 2.292s1.028 2.292 2.292 2.292 2.292-1.028 2.292-2.292-1.028-2.292-2.292-2.292zm-2.593 4.237l-.648.648a.46.46 0 0 0 0 .648c.09.09.207.134.324.134a.46.46 0 0 0 .324-.134l.648-.648a.46.46 0 0 0 0-.648.46.46 0 0 0-.648 0h0zm5.186 0a.46.46 0 0 0-.648 0 .46.46 0 0 0 0 .648l.648.648c.09.09.207.134.324.134a.46.46 0 0 0 .324-.782l-.648-.648zm1.532-2.362h-.917c-.253 0-.458.163-.458.417s.205.417.458.417h.917c.253 0 .458-.164.458-.417s-.205-.417-.458-.417z"/><path d="M86 32.75c-.253 0-.417.205-.417.458v.917c0 .253.163.458.417.458s.417-.205.417-.458v-.917c0-.253-.163-.458-.417-.458z"/></g><path d="M29 10h16v8H29v-8z" fill="#58707f"/><path d="M28 10h1v8h-1v-8z" fill="#fff"/><path d="M46 10h16v7H46v-7z" fill="#58707f"/><path d="M62 10h1v7h-1v-7zm-17 0h1v7h-1v-7z" fill="#fff"/><g fill="#58707f"><path d="M63 10h14c.943 0 1.414 0 1.707.293S79 11.057 79 12v5H63v-7z"/><rect x="16" y="23" width="28" height="1.5" rx=".75"/><use href="#C"/><use href="#C" x="12"/><rect x="15" y="14" width="9" height="2" rx="1"/><path d="M11 11h17v1H11z"/></g><g fill="#fff"><rect x="33.5" y="13" width="7" height="2" rx="1"/><rect x="50" y="13" width="8" height="2" rx="1"/><rect x="67" y="13" width="8" height="2" rx="1"/></g><rect x="16" y="44" width="10" height="1.5" rx=".75" fill="#9fabb4"/><rect x="27" y="44" width="10" height="1.5" rx=".75" fill="#58707f"/><path d="M73.99 39c.951-2.587 2.677-4.82 4.943-6.398a13.53 13.53 0 0 1 15.459 0c2.267 1.578 3.992 3.811 4.943 6.398" stroke="#58707f" stroke-width="1.5" stroke-miterlimit="10" stroke-linecap="round"/><rect x="70.5" y="41" width="7" height="1.5" rx=".75" fill="#9fabb4"/><rect x="69" y="43.5" width="10" height="1.5" rx=".75" fill="#58707f"/><rect x="95.5" y="41" width="7" height="1.5" rx=".75" fill="#9fabb4"/><rect x="94" y="43.5" width="10" height="1.5" rx=".75" fill="#58707f"/><rect x="16.5" y="50.5" width="87" height="14" rx=".5" stroke="#58707f"/><g fill="#58707f"><path fill-rule="evenodd" d="M16 57h87v1H16v-1z"/><path d="M59 50h1v14h-1z"/><rect x="19.5" y="53" width="2" height="2" rx="1"/><rect x="22.5" y="53.25" width="8" height="1.5" rx=".75"/><rect x="48.5" y="53.25" width="8" height="1.5" rx=".75"/><rect x="19.5" y="60" width="2" height="2" rx="1"/><rect x="22.5" y="60.25" width="6" height="1.5" rx=".75"/><rect x="46.5" y="60.25" width="10" height="1.5" rx=".75"/><rect x="62.5" y="53" width="2" height="2" rx="1"/><rect x="65.5" y="53.25" width="9" height="1.5" rx=".75"/><rect x="92.5" y="53.25" width="8" height="1.5" rx=".75"/><rect x="62.5" y="60" width="2" height="2" rx="1"/><rect x="65.5" y="60.25" width="11" height="1.5" rx=".75"/><rect x="91.5" y="60.25" width="9" height="1.5" rx=".75"/><path d="M31.169 35.156h.896a.89.89 0 0 0 .453-.071c.145-.063.276-.164.384-.295a1.7 1.7 0 0 0 .264-1.011c.012-.342-.082-.677-.264-.942a1.02 1.02 0 0 0-.365-.276.88.88 0 0 0-.428-.073c-.273-.008-.54.104-.749.314a1.14 1.14 0 0 0-.222.381 1.3 1.3 0 0 0-.072.456h-1.541a2.62 2.62 0 0 1 .167-1.046c.125-.328.315-.615.553-.838.515-.506 1.167-.772 1.835-.75.709-.046 1.407.214 1.967.732a2.56 2.56 0 0 1 .54.918 2.94 2.94 0 0 1 .15 1.105c-.001.431-.114.851-.323 1.203a2.28 2.28 0 0 1-.895.889c.406.159.756.471.998.889a2.66 2.66 0 0 1 .352 1.378 2.97 2.97 0 0 1-.183 1.168c-.138.367-.347.69-.609.942-.579.529-1.296.801-2.026.767-.677.026-1.341-.226-1.879-.715a2.28 2.28 0 0 1-.604-.903 2.69 2.69 0 0 1-.159-1.137h1.468c-.005.172.021.344.077.504a1.23 1.23 0 0 0 .246.42c.223.245.518.377.822.366.159.012.318-.016.468-.082s.285-.169.398-.302a1.35 1.35 0 0 0 .254-.464c.056-.174.079-.361.069-.547a1.52 1.52 0 0 0-.038-.599c-.052-.193-.142-.37-.262-.514s-.267-.253-.43-.317-.335-.082-.504-.052h-.895l.088-1.5zm10.173 5.702h-5.387v-1.273l2.554-3.383c.301-.409.567-.853.793-1.325a2.6 2.6 0 0 0 .235-.994c.009-.365-.09-.723-.279-1.011a.94.94 0 0 0-.343-.301c-.133-.067-.277-.095-.421-.083-.16-.014-.321.02-.467.099s-.273.201-.369.354c-.194.364-.291.79-.279 1.221h-1.541a3.55 3.55 0 0 1 .159-1.202 3.14 3.14 0 0 1 .546-1.03c.254-.31.561-.553.9-.712a2.22 2.22 0 0 1 1.067-.212c.703-.048 1.393.234 1.923.785a2.8 2.8 0 0 1 .535.958 3.19 3.19 0 0 1 .155 1.135 3.35 3.35 0 0 1-.382 1.622 17.04 17.04 0 0 1-1.306 1.971l-1.468 1.883h3.376v1.5zm2.111-8.679a.91.91 0 0 1 .147-.541c.054-.07.12-.125.193-.161a.47.47 0 0 1 .232-.048.48.48 0 0 1 .24.046c.076.036.145.092.2.163.103.153.155.345.147.541.01.196-.043.389-.147.541-.054.07-.12.125-.193.161a.47.47 0 0 1-.233.048.48.48 0 0 1-.24-.046.57.57 0 0 1-.201-.163.89.89 0 0 1-.147-.541zm.323 0a.83.83 0 0 0 0 .314c.021.041.052.074.088.095a.19.19 0 0 0 .117.027c.036.004.073-.006.104-.028a.2.2 0 0 0 .072-.094c.052-.093.078-.203.073-.314a.71.71 0 0 0-.044-.262.21.21 0 0 0-.079-.096.17.17 0 0 0-.111-.026c-.036-.004-.073.006-.105.028a.2.2 0 0 0-.072.094.7.7 0 0 0-.073.314l.029-.052zm3.347 1.517a1.35 1.35 0 0 1-.062.471c-.048.15-.122.287-.217.401-.227.219-.515.331-.807.314a.9.9 0 0 1-.457-.087 1.06 1.06 0 0 1-.38-.314c-.109-.133-.194-.292-.25-.466a1.59 1.59 0 0 1-.073-.545v-.663a1.58 1.58 0 0 1 .308-1.011 1.14 1.14 0 0 1 .822-.367 1.14 1.14 0 0 1 .822.367 1.11 1.11 0 0 1 .231.396c.051.151.072.314.063.476h-.558a.89.89 0 0 0-.132-.523.55.55 0 0 0-.197-.14.47.47 0 0 0-.228-.034.46.46 0 0 0-.202.093.56.56 0 0 0-.15.186c-.105.191-.157.417-.147.645v.663a1.11 1.11 0 0 0 .161.645.56.56 0 0 0 .189.182.46.46 0 0 0 .237.062.42.42 0 0 0 .215-.033c.069-.03.131-.078.181-.141a.79.79 0 0 0 .132-.506l.499-.07zm3.46-1.517a.91.91 0 0 1 .147-.541c.054-.07.12-.125.193-.161a.47.47 0 0 1 .233-.048.48.48 0 0 1 .24.046.57.57 0 0 1 .201.163c.103.153.155.345.147.541.01.196-.043.389-.147.541-.054.07-.12.125-.193.161a.46.46 0 0 1-.232.048.48.48 0 0 1-.24-.046c-.076-.036-.145-.092-.2-.163a.89.89 0 0 1-.147-.541zm.323 0a.83.83 0 0 0 0 .314.24.24 0 0 0 .088.095.19.19 0 0 0 .117.027c.036.004.073-.006.104-.028a.2.2 0 0 0 .072-.094c.052-.093.078-.203.073-.314a.71.71 0 0 0-.044-.262.21.21 0 0 0-.079-.096.17.17 0 0 0-.111-.026c-.036-.004-.073.006-.104.028a.2.2 0 0 0-.072.094.7.7 0 0 0-.073.314l.029-.052zm2.98 1.289h-1.131v1.447h-.566v-3.488h1.951v.54h-1.385v.959h1.187l-.057.541z"/><rect x="48.8" y="31.428" width=".446" height="3.565" rx=".223"/><path d="M28 38.465c0 .679-.27 1.331-.751 1.811s-1.132.751-1.811.752h-6.574A2.94 2.94 0 0 1 16 38.091a2.94 2.94 0 0 1 2.864-2.938h.081c.136-.546.434-1.039.856-1.413s.945-.612 1.504-.684 1.126.028 1.627.285.913.659 1.182 1.153c.139-.032.282-.049.424-.049.454.002.892.171 1.232.473s.556.719.61 1.17A2.57 2.57 0 0 1 28 38.465h0z"/></g><defs><clipPath id="B"><path fill="#fff" transform="translate(81 25)" d="M0 0h10v10H0z"/></clipPath><path id="C" d="M25.295 26.5h-8.59c-.389 0-.705.336-.705.75s.316.75.705.75h8.59c.389 0 .705-.336.705-.75s-.316-.75-.705-.75z"/></defs></svg>