<svg width="14" height="14" viewBox="0 0 14 14" fill="none" xmlns="http://www.w3.org/2000/svg">
<path d="M8.94031 5.26416C9.1051 5.56631 9.38112 5.79254 9.72058 5.86377C10.0658 5.93604 10.4195 5.83494 10.6864 5.59033C11.368 4.96555 12.0488 4.34009 12.7303 3.71533C12.5091 5.47312 12.2895 7.23099 12.0682 8.98877H1.94421C1.72291 7.23059 1.50146 5.47254 1.28015 3.71436C1.96218 4.33955 2.6441 4.96521 3.32605 5.59033C3.59292 5.83496 3.94569 5.93599 4.29089 5.86377C4.6306 5.79264 4.90728 5.56645 5.07214 5.26416L7.00574 1.71826L8.94031 5.26416Z" stroke="white" stroke-width="1.18518"/>
<path d="M12.0076 12.9942H2.00378C1.68221 12.9942 1.42151 12.6756 1.42151 12.2826V10.7192H12.5899V12.2826C12.5899 12.6756 12.3292 12.9942 12.0076 12.9942Z" fill="white"/>
</svg>
