<svg width="16" height="16" viewBox="0 0 16 16" fill="none" xmlns="http://www.w3.org/2000/svg"><path d="M8.173 5.027a4.58 4.58 0 0 0 3.852 3.852l.985.147-.985.148a4.58 4.58 0 0 0-3.852 3.851l-.147.986-.147-.986a4.58 4.58 0 0 0-3.852-3.851l-.985-.148.985-.147a4.58 4.58 0 0 0 3.852-3.852l.147-.985zm-.131-3.86c2.11 0 3.857 1.53 4.192 3.546a.3.3 0 0 0 .081.158.14.14 0 0 0 .102.046c2.027 0 3.5 1.651 3.5 3.625 0 .976-.303 1.695-.69 2.29a2.8 2.8 0 0 1-1.62 1.132.501.501 0 0 1-.254-.968 1.8 1.8 0 0 0 1.036-.712c.306-.468.528-1 .528-1.742 0-1.476-1.078-2.625-2.5-2.625-.638 0-1.081-.51-1.17-1.04a3.246 3.246 0 0 0-3.205-2.71 3.245 3.245 0 0 0-3.205 2.71c-.089.53-.532 1.04-1.17 1.04-.726 0-1.387.295-1.859.767-.437.437-.641 1.076-.641 1.858 0 .53.126.955.362 1.321.24.373.614.716 1.152 1.051a.501.501 0 0 1-.528.85c-.618-.384-1.12-.823-1.465-1.36-.35-.543-.521-1.159-.521-1.862 0-.943.247-1.878.934-2.565a3.63 3.63 0 0 1 2.566-1.06c.03 0 .065-.011.101-.046a.3.3 0 0 0 .082-.158 4.245 4.245 0 0 1 4.192-3.546" fill="#f26c0d"/></svg>