<svg width="16" height="16" viewBox="0 0 16 16" fill="none" xmlns="http://www.w3.org/2000/svg"><path d="M2.172 13.711a.5.5 0 0 1 .63.324 1.031 1.031 0 1 0 .98-1.348H.5a.5.5 0 0 1 0-1h3.283a2.032 2.032 0 0 1 0 4.063 2.03 2.03 0 0 1-1.934-1.41.5.5 0 0 1 .323-.629m5.203 1.539V4.219a.5.5 0 0 1 1 0v3.707l2.523-2.5a.5.5 0 0 1 .704.71L8.375 9.333v1.386h2.813a3.563 3.563 0 0 0 2.544-6.055.5.5 0 0 1-.142-.328 3.5 3.5 0 0 0-5.437-2.749.5.5 0 0 1-.556 0 3.496 3.496 0 0 0-4.872.999.5.5 0 0 1-.836-.547A4.496 4.496 0 0 1 7.875.584a4.5 4.5 0 0 1 6.7 3.517 4.563 4.563 0 0 1-3.388 7.617H8.376v3.532a.5.5 0 0 1-1 0m-2-6.062a.5.5 0 0 1 0 1H.5a.5.5 0 0 1 0-1zm-.562-3.533A1.03 1.03 0 0 0 2.8 5.34a.5.5 0 0 1-.952-.305 2.03 2.03 0 1 1 1.933 2.653H.5a.5.5 0 0 1 0-1h3.282c.568 0 1.03-.463 1.03-1.033" fill="#f26c0d"/></svg>