<svg width="16" height="16" viewBox="0 0 16 16" fill="none" xmlns="http://www.w3.org/2000/svg"><g clip-path="url(#a)"><path d="M8.439 10.969c0-.559-.457-1.016-1.016-1.016s-1.016.457-1.016 1.016.457 1.015 1.016 1.015 1.016-.457 1.016-1.015m-5.366-.497a.5.5 0 1 1 .707.707l-1.01 1.008a.5.5 0 0 1-.707-.707zM1.894 6.626a.5.5 0 0 1 0 1H.468a.5.5 0 0 1 0-1zm.17-4.561a.5.5 0 0 1 .707 0L3.78 3.074a.5.5 0 1 1-.707.707l-1.01-1.009a.5.5 0 0 1 0-.707m9.415 0a.5.5 0 0 1 .707.707l-1.008 1.009a.5.5 0 1 1-.708-.707zm-4.854-.17V.47a.5.5 0 0 1 1 0v1.427a.5.5 0 0 1-1 0m5.777 11.574c0 .24.197.437.438.437a.44.44 0 0 0 .437-.437.44.44 0 0 0-.437-.438.44.44 0 0 0-.438.438m-2.963-2.5a2.02 2.02 0 0 1-2.482 1.96 4.36 4.36 0 0 0 3.723 2.102 4.3 4.3 0 0 0 1.521-.276 1.438 1.438 0 0 1 .639-2.724 1.44 1.44 0 0 1 1.405 1.137 4.33 4.33 0 0 0-.214-5.261 1.44 1.44 0 0 1-1.385 1.06 1.44 1.44 0 0 1-1.438-1.437c0-.431.192-.818.493-1.082a4.3 4.3 0 0 0-1.021-.122 4.365 4.365 0 0 0-4.064 2.796 2.02 2.02 0 0 1 2.822 1.847m6.593-.29a5.36 5.36 0 0 1-5.352 5.352 5.363 5.363 0 0 1-5.353-5.353l.001-.063A3.93 3.93 0 0 1 3.2 7.126a3.933 3.933 0 0 1 3.926-3.925 3.93 3.93 0 0 1 3.487 2.126l.068-.001a5.36 5.36 0 0 1 5.352 5.352m-3.824-3.15a.44.44 0 0 0 .438.438.44.44 0 0 0 .437-.437.44.44 0 0 0-.437-.438.44.44 0 0 0-.438.438M4.2 7.127a2.93 2.93 0 0 0 1.254 2.398 5.37 5.37 0 0 1 4.067-4.07A2.93 2.93 0 0 0 7.125 4.2 2.933 2.933 0 0 0 4.2 7.126" fill="#f26c0d"/></g><defs><clipPath id="a"><path fill="#fff" d="M0 0h16v16H0z"/></clipPath></defs></svg>