<svg width="244" height="128" viewBox="0 0 244 128" fill="none" xmlns="http://www.w3.org/2000/svg"><g clip-path="url(#a)"><path d="M109.64 59.49c-.34-3.36-.78-6.7-1.29-10.03s-1.09-6.64-1.77-9.94c-.34-1.65-1.84-8.2-2.24-9.83-.79-3.27-1.62-6.52-2.45-9.78-.08-.3.11-.61.41-.68.28-.07.57.09.67.36 1.11 3.2 2.04 6.46 2.84 9.75.4 1.65.75 3.3 1.08 4.96s.61 3.33.88 5c.54 3.34.99 6.7 1.33 10.06s.56 6.74.7 10.11c0 .04-.03.08-.07.08s-.07-.03-.08-.07zm10.07-7.06c.12-2.21.31-4.41.6-6.61s.67-4.38 1.12-6.55.95-4.34 1.64-6.46c.69-2.11 1.45-4.2 2.39-6.22.13-.28.47-.4.75-.27.26.12.38.42.3.68-.66 2.09-1.37 4.16-2.01 6.26-.64 2.09-1.32 4.17-1.9 6.29a115 115 0 0 0-1.55 6.4c-.46 2.15-.87 4.32-1.19 6.5 0 .04-.04.07-.09.06-.04 0-.07-.04-.06-.08m-22.88.4c-1.4-3.51-2.99-6.92-4.8-10.2-.91-1.64-1.9-3.23-2.85-4.84s-1.95-3.19-2.92-4.8a.564.564 0 0 1 .19-.77c.24-.15.55-.09.72.12 1.22 1.47 2.29 3.05 3.29 4.67s1.84 3.34 2.63 5.07c1.59 3.46 2.9 7.04 3.87 10.7.01.04-.01.08-.05.09-.04 0-.08-.01-.09-.04zm29.93 5.26c.91-2.83 2-5.61 3.3-8.29s2.79-5.28 4.45-7.77c.83-1.24 1.69-2.47 2.62-3.65a53 53 0 0 1 2.91-3.43c2.03-2.2 4.25-4.24 6.65-6.03a.56.56 0 0 1 .72.86c-2.17 1.99-4.28 4.03-6.26 6.18-1.99 2.15-3.89 4.39-5.64 6.75-1.76 2.36-3.33 4.85-4.77 7.42a68 68 0 0 0-3.82 8c-.02.04-.06.06-.1.04-.04-.01-.06-.06-.04-.09zm-32.09 7.33c-1.61-2.36-3.39-4.6-5.29-6.72s-3.93-4.11-6.08-5.95c-2.16-1.84-4.45-3.5-6.78-5.1s-4.77-3.04-7.25-4.41a.563.563 0 0 1 .5-1.01c2.66 1.14 5.18 2.58 7.59 4.18s4.64 3.47 6.75 5.45c2.1 1.98 4.07 4.11 5.86 6.36 1.79 2.26 3.4 4.65 4.85 7.12.02.04 0 .08-.03.1s-.08 0-.1-.02zm62.2-48.7-1.16 4.62 3.15 3.57-4.75.34-2.42 4.1-1.79-4.42-4.65-1.04 3.65-3.06-.45-4.74 4.04 2.52zm-49.73-.41-6.21-1.9-5.08 4.03-.11-6.49-5.4-3.6 6.14-2.1L98.22 0l3.9 5.19 6.49-.27-3.73 5.31zm-50.7 16.46 4.8 1.3 3.79-3.21.25 4.96 4.23 2.61-4.64 1.77-1.18 4.84-3.12-3.88-4.96.38 2.72-4.17zm92.52 12.92c0-1.71 1.39-3.1 3.1-3.1s3.1 1.39 3.1 3.1-1.39 3.1-3.1 3.1-3.1-1.39-3.1-3.1M71.29 58.11c0-1.19.97-2.16 2.16-2.16s2.16.97 2.16 2.16-.97 2.16-2.16 2.16-2.16-.97-2.16-2.16M0 94.55c0-1.71 1.39-3.1 3.1-3.1s3.1 1.39 3.1 3.1-1.39 3.1-3.1 3.1S0 96.26 0 94.55m178.39-50.19c0-1.19.97-2.16 2.16-2.16s2.16.97 2.16 2.16-.97 2.16-2.16 2.16-2.16-.97-2.16-2.16M131.64 97.4c0-1.19.97-2.16 2.16-2.16s2.16.97 2.16 2.16-.97 2.16-2.16 2.16-2.16-.97-2.16-2.16M8.4 53.46a2.16 2.16 0 1 0 0-4.32 2.16 2.16 0 0 0 0 4.32m230.67 46.27c0-1.19.97-2.16 2.16-2.16s2.16.97 2.16 2.16-.97 2.16-2.16 2.16-2.16-.97-2.16-2.16m-81.62 13.29a2.16 2.16 0 1 0 0-4.32 2.16 2.16 0 0 0 0 4.32m54.92-4.179c0-1.19.97-2.16 2.16-2.16s2.16.97 2.16 2.16-.97 2.16-2.16 2.16-2.16-.97-2.16-2.16m-189.05 1a2.16 2.16 0 1 0-.001-4.321 2.16 2.16 0 0 0 .001 4.321M231.63 53.82a2.16 2.16 0 1 0 0-4.32 2.16 2.16 0 0 0 0 4.32m-185.2 1.74c0-1.71 1.39-3.1 3.1-3.1s3.1 1.39 3.1 3.1-1.39 3.1-3.1 3.1-3.1-1.39-3.1-3.1m51.61 49.41c0-1.71 1.39-3.1 3.1-3.1s3.1 1.39 3.1 3.1-1.39 3.1-3.1 3.1-3.1-1.39-3.1-3.1M208.06 50.4l.22 3.77 3.22 1.96-3.51 1.37-.87 3.67-2.39-2.92-3.76.31 2.04-3.18-1.46-3.48 3.65.96zM50.58 98.42l.22 3.77 3.23 1.96-3.52 1.37-.87 3.68-2.39-2.93-3.76.31 2.04-3.17-1.46-3.48 3.65.96zm133.34-2.17 2.52 2.81 3.75-.48-1.9 3.26 1.62 3.41-3.69-.79-2.75 2.59-.38-3.75-3.32-1.81 3.45-1.53zM75.48 121.74c0-1.19.97-2.16 2.16-2.16s2.16.97 2.16 2.16-.97 2.16-2.16 2.16-2.16-.97-2.16-2.16m41.72-4.66 2.52 2.81 3.74-.48-1.89 3.26 1.61 3.42-3.69-.8-2.74 2.6-.39-3.76-3.31-1.81 3.45-1.53z" fill="#cd9f52"/><path d="M238.54 84.01c-.41.19-1.36.62-1.46 1.57-.08.72.34 1.42.93 1.74.55.3 1.1.18 1.54.09.41-.09 1.04-.2 1.42-.72.53-.71.55-2.04-.22-2.7-.76-.64-1.81-.17-2.21.02m2.73-25.91c-.61-.45-1.58-.6-2.5-.38-.65.15-1.13.47-1.33.86-.11.22-.12.58-.12 1.46 0 .55 0 .83.03 1.34.07 1.08.71 14.86.76 18.68 0 .37.02 1.36.67 1.78.22.14.49.21.77.21.39 0 .8-.14 1.07-.39.44-.41.44-1.04.44-1.26-.01-3.76.3-7.57.6-11.26.19-2.35.39-4.79.5-7.19v-.12c.07-1.38.15-2.94-.89-3.71zm-56.26 9.63c.16.06.33.09.5.09.48 0 .95-.22 1.24-.48.56-.5.6-1.2.65-2.02.07-1.28.14-2.5-.69-2.99-.71-.42-1.89-.14-2.52.6-.59.69-.49 1.55-.41 2.31.08.74.24 2.13 1.23 2.5z" fill="#f26c0d"/><path d="M231.59 82.98c-1.72-1.51-3.5-3.06-4.14-5.75-.29-1.22-.24-2.18.15-3.05.76-1.69 2.86-3 4.01-2.49.89.39 1.44.89 1.85 1.67.16.3.46.35.7.26.26-.1.48-.37.4-.72-.17-.71-.72-2.45-2.16-3.24-2.01-1.1-5.08-.43-7.01 1.54-1.94 1.98-1.86 4.91-1.85 5.44 0 .15 0 .38.04.69.24 2 1.41 3.4 1.89 3.96.12.14.25.28.38.42-1 1.36-2.39 2.81-4.16 3.61-.48.21-.72.26-.94.16-.76-.33-.62-2.33-.37-5.64.04-.53.08-1.09.12-1.69.43-6.21.26-7.98-.8-8.62-.74-.44-1.64-.18-2.23-.01-1.47.43-2.83 1.72-5.71 7.2 0-.16 0-.3.01-.47 0-.21.02-.43.03-.68.16-3.09.22-5.88-.69-6.09-.17-.04-.5 0-.93.03-.68.06-1.05.1-1.33.28-.64.41-.59 1.42-.57 1.76.08 1.39.03 2.8-.02 4.17 0 .17 0 .35-.01.53a6.6 6.6 0 0 1-2.36.79c-.59-4.15-2.74-7.3-5.26-7.69-2.39-.37-3.85.85-3.87.86l-.82 1.01c-2.23.66-3.95 2.57-4.72 5.25-.55 1.89-.55 3.91-.1 5.72-.6.74-1.23 1.45-1.93 2.08-1.47 1.33-1.93 1.31-2.03 1.27-.31-.12-.61-.66-.55-3.77.03-1.79.16-3.04.31-4.5.05-.48.1-.99.15-1.55.49-5.24.11-5.91-.39-6.2-.74-.43-1.93 0-2.54.65-.56.6-.62 1.38-.64 1.67-.24 3.06-.31 5.74-.32 7.5a16.6 16.6 0 0 1-2.74 3.15c-.98.86-2.8 2.48-3.81 1.96-.78-.39-.78-1.98-.77-2.65.01-4.67.06-8.31.12-11.12.45-.02.88-.05 1.27-.06 3.31-.16 4.31-.21 4.77-1.07.37-.69.23-1.69-.29-2.09-.49-.38-1.2-.14-1.95.11-.1.03-.21.07-.31.1-1.01.33-2.22.61-3.43.83.12-4.61.27-6.22.27-6.25.07-.7.14-2.35-.59-2.65-.25-.1-.63 0-1.48.24-.5.14-.76.21-.93.33-.71.5-.69 1.6-.69 1.98.01 1.21-.05 4.05-.12 6.85-.78.08-1.41.12-1.79.13-.27 0-1 0-1.22.45-.12.23-.05.49 0 .62.2.51 1.11.66 2.48.66h.47c-.01.64-.25 6.08-.27 7.7-.01.74-.01 1.84.03 3.19-.42.34-.85.68-1.28 1-2.36 1.76-2.94 1.84-3.18 1.72-.62-.3-.52-1.77-.43-3.09.5-7.24.72-11.36-.47-11.79-.35-.13-1.02 0-1.4.08-.39.09-.8.18-1.09.46-.23.21-.34.49-.39.76-.83-.67-1.94-1.28-3.34-1.37-.13 0-.25-.01-.37-.01-2.76 0-4.61 2.1-5.24 2.81-2.14 2.42-3.1 6.31-2.46 9.91.02.12.05.24.08.36-2.73 2.96-3.82 3.35-4.25 3.11-.09-.05-.3-.17-.47-1.84-.14-1.45-.15-2.91 0-4.34 2.53-3.45 4.32-7.18 5.31-11.08 1.41-5.52.38-8-.36-8.98-.22-.29-.79-1.06-1.79-1.34-1.63-.47-3.24.71-3.77 1.09-1.52 1.11-3 3.6-3 20.47 0 .66 0 1.44.04 2.24-.71.89-1.43 1.7-2.15 2.37-.27.25-.84.78-1.2.64-.46-.18-.47-1.39-.47-1.79 0-1.12.08-2.87.16-4.71.14-3.1.31-6.61.12-8.16-.02-.16-.08-.64-.45-.93-.29-.23-.76-.3-1.27-.21-.7.14-1.33.55-1.64 1.08-.31.54-.24 1.11-.22 1.35.05.55.03 3.1 0 8.19 0 .57-.02 1.03-.03 1.3-.71.98-1.51 1.85-2.43 2.57-.63.49-2.56 1.98-3.35 1.46-.43-.28-.4-1.42-.3-3.71.15-3.51.25-7.34.4-9.76.04-.72.11-1.91-.55-2.28-.56-.31-1.4.11-1.83.47-.71.6-.88 1.46-.93 1.74-.44 2.32-.51 5.6-.54 6.84-.01.43-.03.85-.04 1.28-.75 1.06-1.59 2.02-2.53 2.86-.98.86-2.81 2.47-3.81 1.96-.78-.39-.78-1.98-.77-2.65.01-4.67.06-8.31.12-11.12.45-.02.88-.05 1.27-.06 3.31-.16 4.31-.21 4.77-1.07.37-.69.23-1.69-.29-2.09-.49-.38-1.2-.14-1.95.11-.1.03-.21.07-.31.1-1.01.33-2.22.61-3.43.83.12-4.61.27-6.22.27-6.25.06-.7.14-2.35-.59-2.65-.25-.1-.63 0-1.47.23-.5.14-.76.21-.94.34-.71.5-.69 1.61-.69 1.98.01 1.21-.05 4.06-.12 6.85-.78.08-1.41.12-1.79.13-.27 0-1 0-1.22.45-.12.23-.05.49 0 .62.2.51 1.11.66 2.48.66h.47c-.02.95-.14 4.42-.18 5.19-.06 1.26-.17 3.52-.06 5.7-.42.34-.85.68-1.28 1-2.36 1.76-2.94 1.84-3.18 1.72-.62-.3-.52-1.77-.43-3.09.5-7.24.72-11.36-.47-11.79-.35-.13-1.02 0-1.4.08-.41.09-.8.18-1.09.46-.23.21-.34.49-.39.76-.83-.67-1.94-1.28-3.34-1.37-2.96-.2-4.96 2.05-5.62 2.79-2.14 2.42-3.1 6.31-2.46 9.91.04.21.08.4.13.6-2.12 2.51-2.88 2.75-3.14 2.61s-.2-.96.01-3.7l.03-.38c.35-4.6.41-5.82-.35-6.24-.3-.17-.57-.1-.98 0-.33.09-.79.2-1.49.25-.77.05-1.54 0-2.3-.14.77-1.05 2.21-3.29 1.7-4.8a1.4 1.4 0 0 0-.25-.45c-.79-.99-2.88-.96-4.14.05-.64.51-.91 1.17-1.02 1.45-.56 1.4-.36 3.12.5 4.39.19.28.42.52.66.75-1.29 1.66-2.55 3.3-3.75 4.88.15-2.81.33-6.15.54-10.04.02-.4.09-1.6-.53-1.91-.17-.09-.35-.07-.67-.04-.43.05-1.23.13-1.68.67-.26.31-.32.69-.34.97-.85-.77-2.06-1.52-3.62-1.63-2.98-.21-4.96 2.09-5.62 2.84-2.15 2.48-3.11 6.46-2.45 10.14l.06.27c-.89 1-1.99 1.95-3.3 2.54-.48.21-.72.26-.94.16-.76-.33-.62-2.33-.37-5.63.04-.53.08-1.09.12-1.69.43-6.21.26-7.98-.8-8.62-.74-.44-1.64-.18-2.23-.01-1.47.43-2.83 1.72-5.71 7.2.01-.26.03-.65.05-1.14.19-5.54-.42-6.03-.69-6.09-.17-.04-.5 0-.93.03-.68.06-1.05.1-1.34.28-.64.41-.59 1.42-.57 1.76.08 1.38.03 2.8-.02 4.16 0 .16 0 .33-.01.49-.12.06-.22.14-.34.2-.63.29-1.31.49-2 .6-.3-2.07-.99-3.9-1.92-5.25-.61-.89-1.64-2.08-3.36-2.44-.26-.05-2.38-.46-3.91.89-.4.35-.65.72-.8.99-2.23.67-3.96 2.59-4.73 5.26-.28.98-.41 1.99-.42 3-1.4 1.85-3.85 4.2-7.6 4.92-3.88.74-6.39-.27-7.81-1.24-5.33-3.67-4.61-12.8-2.04-17.98.36-.72 2.37-4.44 6.54-6.49 1-.49 3.52-1.52 5.22-.43 1.54.99 2.65 3.68 1.69 5.3-.53.89-.11 1.78.57 2.2.64.39 1.59.41 2.16-.49 1.31-2.08 1.65-3.98 1.01-5.63-.42-1.07-1.08-1.73-1.36-2.01-1.93-1.92-4.5-2.1-5.47-2.16-3.24-.22-5.67 1.12-6.71 1.69-4.84 2.66-9.93 9.15-9.66 17.11.2 5.85 2.29 10.24 5.89 12.37 1.63.97 3.51 1.45 5.59 1.45.61 0 1.24-.04 1.89-.13 4.89-.64 8.26-3.9 10.24-6.54.29 1.71.97 3.29 2.01 4.47 1.27 1.43 2.96 2.03 4.65 2.03 1.52 0 3.03-.49 4.22-1.28 2.34-1.57 3.88-4.43 4.15-7.67.79-.16 1.54-.43 2.26-.8v.25c0 1.46.05 2.94.09 4.37.04 1.25.08 2.54.09 3.81 0 .23 0 .83.44 1.13.17.12.39.16.6.16.63 0 1.31-.37 1.35-.39 1.23-.67 1.16-2.29 1.04-5.22-.03-.66-.05-1.4-.07-2.2a95 95 0 0 1 3.24-4.68c.81-1.09 1.56-2.07 1.87-2.07.32.11.22 1.23.07 2.78-.13 1.46-.32 3.45-.35 5.96-.03 2.88.18 4.59 1.4 5.42.63.43 1.32.47 1.72.47h.12c2.21-.03 4.25-1.68 5.74-3.31.55 1.32 1.35 2.32 2.32 2.85.69.38 1.54.57 2.43.57.72 0 1.46-.13 2.16-.38 1.63-.6 2.49-1.79 3.49-3.17.1-.13.18-.28.27-.41l-.06 1.62c-2.99 4.07-5.45 7.61-7.06 10.18-.82 1.3-2.52 4.02-1.65 6.69.42 1.28 1.25 2.07 1.68 2.47.87.82 2.02 1.17 3.18 1.17 1.21 0 2.42-.38 3.31-1.01.68-.48 1.05-1.02 1.38-1.5 1.05-1.55 1.26-3.09 1.44-5.1.24-2.69.36-4.05.33-5.46-.02-.82.11-3.65.38-8.8 1.6-2.35 3.25-4.68 4.91-6.99 1.11.58 2.49.77 3.86.45-.18 1.89-.35 3.86-.5 5.88-.1 1.24-.22 2.77.67 3.41.47.34 1.26.42 1.43.44 0 0 1.11-.07 1.33-.11 1.24-.21 3.25-2.56 3.33-2.66.06-.08.12-.16.19-.23.55 1.22 1.32 2.14 2.25 2.64.69.37 1.54.56 2.43.56.72 0 1.46-.12 2.15-.37 1.63-.59 2.5-1.76 3.5-3.11.07-.09.12-.19.19-.28.05 1.94.12 3.13 1 3.66.3.18.62.24.95.24.54 0 1.08-.17 1.49-.3 1.51-.48 2.36-1.38 4.06-3.16.35-.37.7-.74 1.06-1.11.1.88.25 1.7.47 2.36.09.27.36 1.07 1.11 1.55.43.27.92.37 1.38.37.73 0 1.41-.23 1.78-.35 1.81-.61 2.99-1.8 4.04-2.97.62-.69 1.22-1.42 1.8-2.17-.02 1.92.09 3.79.73 4.63.16.21.35.37.45.45 0 .03.08.06.08.06.64.23 1.29.34 1.92.34.18 0 .35 0 .53-.03 2.18-.22 3.59-1.77 5.09-3.41.28-.31.56-.63.82-.96 0 2.85.21 3.7.91 4.13.37.23.78.29 1.15.29.26 0 .49-.03.68-.05 1.24-.16 2.08-.9 2.83-1.65.61-.61 1.21-1.28 1.79-1.98.26 1.64.8 3.1 1.98 3.62.42.19.79.19 1.04.2h.09c2.27 0 4.23-2.05 5.42-3.65.55 1.45 1.4 2.56 2.45 3.12.69.37 1.54.56 2.43.56.72 0 1.46-.12 2.15-.37 1.63-.59 2.49-1.76 3.5-3.11.07-.09.12-.19.19-.28.05 1.94.12 3.13 1 3.66.29.18.62.24.95.24.54 0 1.08-.17 1.49-.3 1.51-.48 2.36-1.38 4.06-3.16.35-.37.71-.74 1.06-1.11.1.88.25 1.7.47 2.36.09.27.36 1.07 1.11 1.55.43.27.92.37 1.38.37.73 0 1.41-.23 1.78-.35 1.81-.61 2.99-1.8 4.04-2.97.73-.81 1.42-1.66 2.09-2.54l.03 1.35c.04 2.55.06 3.72.98 4.26.34.2.79.3 1.33.3.33 0 .7-.04 1.09-.12.94-.19 1.63-.66 2.18-1.09 1.1-.85 2.01-1.89 2.75-2.89.35.88.82 1.68 1.41 2.35 1.26 1.43 2.95 2.02 4.62 2.02 1.51 0 3.02-.48 4.2-1.28 2.34-1.57 3.88-4.43 4.14-7.67q1.2-.24 2.28-.81v.28c0 1.46.05 2.94.09 4.37.04 1.25.08 2.54.09 3.81 0 .23 0 .84.44 1.14.17.12.39.16.6.16.63 0 1.31-.37 1.35-.39 1.22-.68 1.16-2.29 1.04-5.22-.03-.66-.05-1.4-.07-2.2 1.04-1.59 2.12-3.16 3.24-4.68.81-1.09 1.55-2.07 1.87-2.07.32.11.22 1.23.07 2.78-.13 1.46-.32 3.45-.35 5.96-.03 2.88.18 4.59 1.4 5.42.63.43 1.32.47 1.72.47h.12c3.07-.04 5.82-3.21 7.19-5.09.4.37.8.73 1.2 1.09 1.39 1.24 2.82 2.51 3.71 3.94 1.25 1.99.89 5.2-.79 7.15-.9 1.05-2.2 1.71-3.85 1.98-.74.12-2.69.43-4.34-.79-.54-.4-.99-.92-1.33-1.54.59-.06 1.15-.25 1.62-.55 1.22-.77 2.18-2.43 1.69-3.87-.04-.13-.46-1.26-1.54-1.54-.98-.27-1.83.35-2.11.55-1.66 1.2-1.58 3.68-1.53 4.32-.5.06-.98.02-1.43-.09-.22-.06-.43-.14-.62-.21-.43-.16-.8-.3-1.07-.08a.52.52 0 0 0-.19.35c-.04.69 1.68 1.14 1.87 1.19.55.14 1.13.19 1.72.13.12.26.26.5.42.74 0 0 .63.96 1.58 1.72 1 .79 2.77 1.58 4.85 1.59 2.9.02 4.88-1.48 5.42-1.9.61-.47 2.64-2.25 3.25-5.19.31-1.49.14-2.7.08-3.04-.49-2.72-2.29-4.3-4.04-5.83zm-190.2 1.44c-1.38.14-2.53-.67-3.34-2.33-1.4-2.88-1.08-6.09.79-8.31 0 1.5.46 2.73 1.38 3.66 1.3 1.32 3.53 1.98 6.3 1.89-.67 2.27-2.88 4.86-5.13 5.09m.79-8.48c-.58-.59-1.51-1.73-1.16-2.73.23-.67.86-1.19 1.67-1.39.24-.06.48-.09.71-.09.61 0 1.18.2 1.58.57 1.37 1.25 1.83 3.41 1.8 5.07-1.91.24-3.42-.23-4.61-1.43zm37.66 5.9c-.68 1.08-1.68 2.15-3.09 2.62-.44.14-1.24.41-2.09.12-1.95-.67-2.43-3.7-2.53-4.61-.35-3.15 1.08-7.97 4.1-8.33 1.56-.19 2.97.84 3.9 1.76-.05 1.89-.15 4.89-.28 8.44zm117.62-8.64c.24-.68.87-1.2 1.7-1.41q.36-.09.72-.09c.62 0 1.2.2 1.6.57 1.38 1.26 1.84 3.45 1.81 5.12-1.93.25-3.46-.22-4.66-1.44-.59-.6-1.52-1.75-1.17-2.76zm5.57 6.1c-.66 2.29-2.9 4.93-5.17 5.15-1.38.14-2.56-.67-3.37-2.35-1.42-2.92-1.08-6.18.85-8.41-.02 1.53.44 2.78 1.37 3.72 1.3 1.32 3.54 1.99 6.32 1.88zm-39.12-.64c-.06 1.04-.12 2.11-.14 3.17-.68.98-1.62 1.92-2.93 2.35-.43.14-1.24.41-2.09.12-1.95-.66-2.43-3.63-2.53-4.52-.35-3.09 1.08-7.82 4.1-8.18 1.46-.18 2.8.7 3.72 1.56.09 1.84-.01 3.69-.12 5.5zm-16.15-4.79c.08-11.7 1.57-12.95 2.03-13.05.03 0 .16-.03.34-.03.2 0 .45.03.71.16.55.27.79.85.88 1.06 1.54 3.72-1.9 11.25-1.94 11.32a39 39 0 0 1-2.03 3.8v-3.26zm-39.2 4.79a66 66 0 0 0-.14 3.17c-.68.98-1.62 1.92-2.93 2.35-.43.14-1.24.41-2.1.12-1.96-.66-2.43-3.63-2.53-4.52-.35-3.09 1.08-7.82 4.1-8.18 1.47-.17 2.8.7 3.72 1.55.09 1.84-.01 3.69-.12 5.5zm-20.25-7.84c.18 0 .35.04.48.13.19.13.32.43.38.84.18 1.3-.58 2.51-1.1 3.17-.35-.27-.89-.8-1.14-1.61-.12-.41-.38-1.26.1-1.89.31-.4.83-.64 1.27-.64zm-8.92 22.61c.04 1.69 0 3.38-.13 5.04-.14 1.79-.29 2.68-.91 3.53-.68.94-1.4 1.43-2.14 1.43-1.17 0-2.02-1.22-2.12-1.36-1.47-2.2 1.32-6.79 5.12-12.57.12-.17.23-.35.35-.52l-.18 4.45zm143.34-3.07c.06 0 .63.02.9.41.35.52-.07 1.3-.21 1.53-.61 1-1.92 1.15-2.36 1.17-.1-.42-.23-1.28.25-2.08.41-.68.9-1.04 1.42-1.04z" fill="#f26c0d"/></g><defs><clipPath id="a"><path fill="#fff" d="M0 0h243.38v127.89H0z"/></clipPath></defs></svg>