<svg width="16" height="16" viewBox="0 0 16 16" fill="none" xmlns="http://www.w3.org/2000/svg"><path d="M12.75 0a.5.5 0 0 1 .5.5v.791a3 3 0 0 1 2.5 2.959v8.5a3 3 0 0 1-3 3H3a3 3 0 0 1-3-3v-8.5a3 3 0 0 1 2.5-2.959V.5a.5.5 0 0 1 1 0v.75h3.875V.5a.5.5 0 0 1 1 0v.75h3.875V.5a.5.5 0 0 1 .5-.5M3 2.25a2 2 0 0 0-2 2v8.5a2 2 0 0 0 2 2h9.75a2 2 0 0 0 2-2v-8.5a2 2 0 0 0-2-2zm2.375 9.875a.625.625 0 1 1 0 1.25.625.625 0 0 1 0-1.25m2.5 0a.625.625 0 1 1 0 1.25.625.625 0 0 1 0-1.25m2.5 0a.625.625 0 1 1 0 1.25.625.625 0 0 1 0-1.25m-2.5-8.5c1.127 0 2.132.322 2.861.977.64.575 1.028 1.374 1.118 2.334.768.19 1.521.831 1.521 1.939 0 .47-.186.951-.473 1.317-.285.365-.729.683-1.277.683H4.75A2.375 2.375 0 0 1 2.375 8.5c0-1.055.805-2.083 2.017-2.255.265-.671.639-1.283 1.154-1.749.604-.547 1.38-.871 2.329-.871m0 1c-.702 0-1.238.232-1.658.612-.43.389-.76.954-.993 1.643a.5.5 0 0 1-.474.34c-.84 0-1.375.66-1.375 1.28 0 .76.616 1.375 1.375 1.375h6.875c.142 0 .323-.086.49-.299.166-.21.26-.48.26-.701 0-.659-.516-1-1-1a.5.5 0 0 1-.5-.5c0-.914-.311-1.583-.808-2.03-.503-.452-1.248-.72-2.192-.72" fill="#e9510c"/></svg>