<svg width="16" height="16" viewBox="0 0 16 16" fill="none" xmlns="http://www.w3.org/2000/svg"><path d="M12.186 10.321a2.453 2.453 0 0 0-4.906 0v.01c.293.275.516.623.64 1.015a2.37 2.37 0 0 1 2.684 1.269 2.45 2.45 0 0 0 1.582-2.294m.61 3.063a.5.5 0 0 1 .706 0l.684.684a.5.5 0 0 1-.707.707l-.684-.684a.5.5 0 0 1 0-.707M15.53 9.82a.5.5 0 1 1 0 1h-.967a.5.5 0 0 1 0-1zM7.5 4.234a3.266 3.266 0 1 0-6.531 0 3.266 3.266 0 0 0 6.531 0m5.98 1.634a.5.5 0 1 1 .707.707l-.685.684a.5.5 0 0 1-.707-.708zM9.233 5.49v-.967a.5.5 0 0 1 1 0v.967a.5.5 0 0 1-1 0m-5.64-3.115a.5.5 0 0 1 1 0V3.75H5.5a.5.5 0 0 1 0 1H4.094a.5.5 0 0 1-.5-.5zm.688 9.688q.002.257.089.485a.5.5 0 0 1-.51.674l-.077-.003a.906.906 0 1 0 0 1.812h4.686a1.375 1.375 0 1 0-.688-2.565.5.5 0 0 1-.75-.425 1.375 1.375 0 0 0-2.75.021m8.905-1.742c0 1.52-.981 2.808-2.344 3.27l.002.065a2.375 2.375 0 0 1-2.375 2.375H3.783a1.906 1.906 0 0 1-.491-3.748 2.375 2.375 0 0 1 3.03-2.5 3.454 3.454 0 0 1 6.864.538M8.5 4.234a4.266 4.266 0 1 1-8.531 0 4.266 4.266 0 0 1 8.531 0" fill="#f26c0d"/></svg>