<svg class="setup-wizard-bg" width="1745" height="479" viewBox="0 0 1760 479" fill="none" xmlns="http://www.w3.org/2000/svg"><g opacity=".3" clip-path="url(#a)"><path d="M1766.49-20.993c-74.03.77-135.47 50.062-150.19 115.25-1.22-.032-2.44-.068-3.66-.056-43.69.455-80.41 29.766-92.71 69.858a65 65 0 0 0-24.96-4.681c-36.48.38-65.77 30.623-65.42 67.552a67.4 67.4 0 0 0 3.86 21.892c-19.47 3.87-36.85 13.548-50.33 27.184-15.99-20.469-40.81-33.507-68.58-33.219-30.48.317-57.1 16.605-72.23 40.916-30.41-28.714-72.71-46.315-119.35-45.829-49.21.511-93.22 21.052-123.292 53.252-17.695-16.475-41.366-26.448-67.311-26.178-21.931.227-42.109 7.73-58.324 20.215-10.902-13.61-27.603-22.246-46.261-22.052-26.435.275-48.626 18.169-55.8 42.548-25.762-14.911-56.204-23.387-88.758-23.05-44.661.466-85.037 17.426-114.6 44.627-18.166-23.067-46.245-37.741-77.651-37.414a96.9 96.9 0 0 0-30.784 5.357c-6.637-64.917-61.125-115.214-126.885-114.531a125 125 0 0 0-37.009 5.99c-11.851-18.764-32.687-31.117-56.314-30.871-13.362.138-25.748 4.298-36.077 11.311-18.131-20.453-44.106-33.143-72.846-32.844-4.336.046-8.592.415-12.773 1.031C109.997 66.985 54.561 12.372-16.573.348v305.638c22.156-3.839 42.769-11.772 60.893-22.953 16.276 33.932 49.944 57.069 88.634 56.666 30.498-.317 132.934 97.542 202.723 96.815 22.862-.238 44.228-6.639 62.628-17.581 12.6 40.62 50.263 69.894 94.499 69.433a96.8 96.8 0 0 0 32.73-6.047c2.927 9.294 6.777 18.21 11.415 26.681h295.053c12.033-21.788 18.748-46.546 18.5-72.757a147 147 0 0 0-1.84-21.778c17.2 29.638 49.134 49.403 85.534 49.023 13.49-.14 26.315-3.034 37.964-8.145 9.562 20.622 23.791 38.871 41.39 53.655h221.06c29-24.257 48.89-57.824 54.21-95.651a85.2 85.2 0 0 0 27.33 4.201c19.99-.207 38.3-7.291 52.82-18.984 17.47 28.471 48.77 47.283 84.31 46.913 54.15-.563 320.86-176.333 323.29-176.464V-20.759c-3.34-.167-6.69-.27-10.08-.234" fill="#ffe8d3"/><path d="M1777.42 90.716c-1-.035-1.99-.076-2.99-.076-40.87 0-74.72 29.98-80.64 69.087-2.14-.115-4.29-.184-6.46-.184-43.43 0-81.22 23.158-100.72 57.309-7.37-3.094-15.5-4.821-24.06-4.821-33.2 0-60.12 25.846-60.12 57.727q0 2.94.3 5.808c-32.69 5.19-59.89 25.967-73.07 54.122-15.6-19.204-39.91-31.566-67.24-31.566-27.03 0-51.11 12.099-66.73 30.949-8.11-15.257-24.62-25.711-43.69-25.711-18.87 0-35.25 10.252-43.44 25.267a118.9 118.9 0 0 0-37.87-6.168c-17.44 0-33.96 3.751-48.76 10.43-11.74-23.697-36.89-40.083-66.04-40.083-29.61 0-55.09 16.923-66.573 41.237-7.631-4.704-16.703-7.445-26.445-7.445-20.806 0-38.57 12.448-45.689 30.005-14.145-6.986-30.171-10.955-47.172-10.955-33.482 0-63.228 15.307-82.101 39.017-7.551-6.816-17.709-10.999-28.889-10.999a43.5 43.5 0 0 0-17.055 3.458c-10.425-21.875-33.407-37.081-60.101-37.081-22.353 0-42.098 10.667-54.055 26.977-19.3-14.133-43.39-22.539-69.538-22.539-14.255 0-27.895 2.513-40.488 7.072-5.135-16.813-21.312-29.096-40.486-29.096-9.504 0-18.273 3.019-25.327 8.108-9.469-18.402-26.744-32.422-47.678-38.098a56 56 0 0 0 1.001-10.443c0-31.881-26.92-57.727-60.125-57.727-29.593 0-54.174 20.533-59.178 47.564-13.837-7.214-29.691-11.312-46.543-11.312-9.993 0-19.631 1.448-28.71 4.125-8.67-52.624-56.117-92.865-113.366-92.865-15.06 0-29.427 2.814-42.604 7.874-7.58-34.067-36.576-60.098-72.19-63.297v161.937l.097-.006c-.043 1.233-.097 2.464-.097 3.707 0 60.871 51.394 110.215 114.794 110.215 17.412 0 33.908-3.741 48.693-10.402 12.248 38.358 49.419 66.253 93.383 66.253 34.305 0 64.458-16.995 81.88-42.679 13.834 18.653 36.524 30.833 62.193 30.833 30.029 0 55.995-16.658 68.452-40.869a42.6 42.6 0 0 0 6.978 4.086c-9.821 16.244-15.471 35.1-15.471 55.233 0 12.765 2.285 25.011 6.443 36.413h216.722a106 106 0 0 0 5.79-24.837c3.081.423 6.229.654 9.432.654 19.915 0 37.757-8.471 49.871-21.85 7.358 5.997 16.878 9.62 27.285 9.62 2.789 0 5.512-.267 8.149-.763 1.265 13.334 5.303 25.893 11.516 37.176h182.678c7.611-13.819 11.942-29.565 11.942-46.286a95.6 95.6 0 0 0-3.207-24.597c11.039-1.566 20.869-6.668 28.226-14.064 13.373 16.411 34.183 26.974 57.573 26.974h.01c.09 21.295 6.49 41.151 17.47 57.971h194.63c11.06-16.943 17.48-36.965 17.48-58.435 0-7.94-.9-15.677-2.56-23.139 12.35 30.591 43.27 52.291 79.5 52.291 32.17 0 60.16-17.112 74.68-42.368 17.45 25.511 47.5 42.368 81.67 42.368 53.94 0 97.67-41.983 97.67-93.769 0-4.168-.32-8.265-.87-12.29 19.66 15.135 44.6 24.208 71.75 24.208 36.54 0 69.07-16.412 90.09-41.952z" fill="#ffdab6"/><path d="M1777.42 182.483c-21.74.38-40.04 16.615-41.94 38.21-.21 2.402-.2 4.773-.01 7.101a188.4 188.4 0 0 0-34.19-3.108c-66.15 0-123.49 34.136-151.75 84.019a38.9 38.9 0 0 0-12.82-3.442c-20.53-1.898-38.63 12.483-40.95 32.282-1.83-.258-3.68-.479-5.54-.651-33.53-3.1-64.86 8.511-87.35 29.378-6.34-4.612-14.02-7.643-22.45-8.422-18.74-1.732-35.74 8.164-43.55 23.614a88 88 0 0 0-12.17-2.003c-31.2-2.886-59.88 11.088-76.65 34.245a112.1 112.1 0 0 0-33.89-16.25c-35.39-10.154-71.33-1.95-97.36 18.87-25.07-14.58-54.9-23.038-86.9-23.038-42.791 0-81.675 15.117-110.519 39.769-12.044-15.819-30.648-26.813-52.277-28.813-30.672-2.837-58.521 13.227-71.524 38.385-17.914-15.844-41.707-25.5-67.815-25.5-18.941 0-36.655 5.092-51.798 13.931-11.442-10.244-26.258-17.084-42.859-18.619-15.476-1.43-30.226 1.962-42.724 8.891-7.225-13.981-22.085-23.579-39.257-23.579-8.128 0-15.733 2.158-22.263 5.904-28.497-23.107-66.126-37.162-107.381-37.162-29.951 0-57.986 7.413-82.009 20.313-17.518-29.074-49.937-48.608-87.06-48.608-4.611 0-9.139.328-13.584.912-5.611-33.63-35.565-59.309-71.693-59.309-14.617 0-28.216 4.219-39.612 11.451-26.733-24.746-63.106-40.91-103.62-43.499-5.117-15.877-19.608-28.066-37.634-29.732a45 45 0 0 0-2.846-.162v265.42H1777.42z" fill="#ffc793"/></g><defs><clipPath id="a"><path fill="#fff" d="M0 0h1760v479H0z"/></clipPath></defs></svg>