<svg width="14" height="14" viewBox="0 0 14 14" fill="none" xmlns="http://www.w3.org/2000/svg"><path d="M11.376 6.14a.62.62 0 0 0-.622.622v4.499a.474.474 0 0 1-.474.473H2.156a.474.474 0 0 1-.474-.473V3.136c0-.26.213-.473.474-.473H8.82a.623.623 0 0 0 0-1.245H2.156A1.72 1.72 0 0 0 .437 3.136v8.125a1.72 1.72 0 0 0 1.719 1.718h8.124A1.72 1.72 0 0 0 12 11.26v-4.5a.62.62 0 0 0-.623-.622" fill="#f26c0d"/><path d="M12.499 1.205 5.576 8.153 3.797 6.368a.622.622 0 0 0-.882.878l1.978 1.985a.96.96 0 0 0 .683.284h.001a.96.96 0 0 0 .684-.284l7.12-7.148a.622.622 0 1 0-.882-.878" fill="#f26c0d"/></svg>