<svg width="16" height="16" viewBox="0 0 16 16" fill="none" xmlns="http://www.w3.org/2000/svg"><path d="M10.407 10.766a2.407 2.407 0 1 0-4.814 0 2.407 2.407 0 0 0 4.814 0M.125 9.382a2.79 2.79 0 0 1 1.555-2.51 2.6 2.6 0 0 1-.209-1.03c0-1.437 1.152-2.613 2.586-2.613q.241 0 .47.043A4.87 4.87 0 0 1 8.758.806c2.31 0 4.239 1.621 4.752 3.792a3.95 3.95 0 0 1 2.366 3.629 3.95 3.95 0 0 1-2.293 3.596.5.5 0 0 1-.417-.91 2.95 2.95 0 0 0 1.71-2.686 2.94 2.94 0 0 0-1.963-2.79.5.5 0 0 1-.33-.385c-.325-1.85-1.919-3.246-3.825-3.246a3.88 3.88 0 0 0-3.519 2.266.5.5 0 0 1-.63.258 1.6 1.6 0 0 0-.551-.101 1.6 1.6 0 0 0-1.586 1.613c0 .376.126.72.337.994a.5.5 0 0 1-.29.794 1.785 1.785 0 0 0-1.393 1.752 1.78 1.78 0 0 0 1.59 1.783.5.5 0 1 1-.097.995C1.213 12.023.125 10.827.125 9.382m11.282 1.384c0 .864-.322 1.653-.852 2.254l1.322 1.322a.5.5 0 0 1-.707.707l-1.382-1.382a3.407 3.407 0 1 1 1.62-2.9" fill="#f26c0d"/></svg>