<svg width="14" height="16" viewBox="0 0 14 16" fill="none" xmlns="http://www.w3.org/2000/svg"><path d="M12.375 6.656A5.687 5.687 0 1 0 1 6.656c0 .756.248 1.665.677 2.625a15.3 15.3 0 0 0 1.662 2.797c.647.873 1.34 1.632 1.968 2.167.313.268.601.471.85.605.256.138.43.181.53.181s.275-.043.531-.18c.249-.135.537-.339.85-.606.627-.535 1.321-1.294 1.968-2.167a15.3 15.3 0 0 0 1.662-2.797c.429-.96.677-1.869.677-2.625m-6.187 4.828v-2.53a.5.5 0 0 1 1 0v2.53a.5.5 0 0 1-1 0m-1.875-1.421v-1.11a.5.5 0 0 1 1 0v1.11a.5.5 0 0 1-1 0m3.75 0v-1.11a.5.5 0 0 1 1 0v1.11a.5.5 0 0 1-1 0m-4.89-5.015A2.548 2.548 0 0 1 7.743 3.5q.19-.038.392-.038a2.067 2.067 0 1 1 0 4.135H5.72a2.55 2.55 0 0 1-2.548-2.549m10.202 1.608c0 .953-.306 2.008-.764 3.032a16.3 16.3 0 0 1-1.772 2.985c-.68.918-1.425 1.737-2.122 2.332a6 6 0 0 1-1.024.725c-.321.173-.668.301-1.005.301-.338 0-.685-.127-1.006-.301a6 6 0 0 1-1.024-.725c-.697-.595-1.441-1.414-2.122-2.332A16.3 16.3 0 0 1 .764 9.688C.306 8.664 0 7.608 0 6.656a6.687 6.687 0 1 1 13.375 0M4.173 5.048c0 .855.693 1.549 1.548 1.549h2.414a1.067 1.067 0 1 0-.413-2.053.5.5 0 0 1-.635-.225 1.548 1.548 0 0 0-2.914.73" fill="#f26c0d"/></svg>