<svg width="16" height="16" viewBox="0 0 16 16" fill="none" xmlns="http://www.w3.org/2000/svg"><path d="M3.406 14.594a.438.438 0 1 0-.875 0 .438.438 0 0 0 .875 0m3.75 0a.438.438 0 1 0-.875 0 .438.438 0 0 0 .875 0m3.75 0a.438.438 0 1 0-.875 0 .438.438 0 0 0 .875 0m1.563-5.219A1.844 1.844 0 0 0 9.32 8.071a.5.5 0 0 1-.707-.707 2.84 2.84 0 0 1 1.48-.783 3.406 3.406 0 0 0-6.78.413l.001.037c.001.465.096.93.285 1.363a.5.5 0 0 1-.917.4 4.4 4.4 0 0 1-.33-1.205 1.845 1.845 0 0 0 .46 3.63h7.812a1.844 1.844 0 0 0 1.844-1.844m.985-2.233a.5.5 0 0 1 .708 0l.441.442a.5.5 0 0 1-.707.707l-.442-.442a.5.5 0 0 1 0-.707m2.077-2.798a.5.5 0 1 1 0 1h-.625a.5.5 0 0 1 0-1zM7.71 1.396a.5.5 0 0 1 .707 0l.442.442a.5.5 0 1 1-.707.707l-.442-.441a.5.5 0 0 1 0-.708m6.188 0a.5.5 0 0 1 .707.708l-.442.441a.5.5 0 1 1-.707-.707zm-3.24-.302V.469a.5.5 0 0 1 1 0v.625a.5.5 0 1 1-1 0m-6.25 13.5a1.437 1.437 0 1 1-2.876 0 1.437 1.437 0 0 1 2.875 0m3.75 0a1.437 1.437 0 1 1-2.876 0 1.437 1.437 0 0 1 2.875 0m3.75 0a1.437 1.437 0 1 1-2.876 0 1.437 1.437 0 0 1 2.875 0m.937-9.75a1.688 1.688 0 0 0-3.062-.979 4.4 4.4 0 0 1 1.313 2.664l.061.002c.932 0 1.688-.755 1.688-1.687m1 0a2.69 2.69 0 0 1-1.39 2.353 2.844 2.844 0 0 1-1.829 5.022h-7.81a2.844 2.844 0 0 1-.477-5.648A4.407 4.407 0 0 1 8.99 3.255a2.688 2.688 0 0 1 4.854 1.589" fill="#f26c0d"/></svg>