<svg xmlns="http://www.w3.org/2000/svg" width="172" height="104" fill="none" xmlns:v="https://vecta.io/nano"><style><![CDATA[.B{fill:#58707f}.C{fill:#fff}.D{stroke:#58707f}.E{fill:#9fabb4}.F{stroke-width:.975}.G{fill-rule:evenodd}]]></style><rect x=".6" y=".6" width="170.8" height="102.8" rx="2.4" class="C"/><rect x=".6" y=".6" width="170.8" height="102.8" rx="2.4" stroke="#8796a1" stroke-width="1.2"/><rect x="8.5" y="6.9" width="75" height="36" rx="2.367" class="C D"/><rect x="12" y="10.4" width="12.9" height="2.15" rx="1.075" class="B"/><rect x="12" y="13.983" width="8.6" height="2.15" rx="1.075" class="E"/><rect x="62.8" y="10.4" width="17.2" height="2.15" rx="1.075" class="B"/><rect x="68.533" y="13.983" width="11.467" height="2.15" rx="1.075" class="E"/><path d="M26.822 23.414h.875a.87.87 0 0 0 .443-.07 1.02 1.02 0 0 0 .375-.288 1.66 1.66 0 0 0 .258-.988c.012-.334-.08-.661-.258-.92a1 1 0 0 0-.356-.269.86.86 0 0 0-.418-.071.99.99 0 0 0-.732.307c-.093.105-.167.232-.216.373s-.073.293-.07.445h-1.506a2.56 2.56 0 0 1 .163-1.022 2.17 2.17 0 0 1 .54-.818c.503-.494 1.14-.754 1.793-.733.692-.045 1.375.209 1.922.716a2.5 2.5 0 0 1 .527.897c.117.342.167.711.147 1.08-.001.421-.111.832-.316 1.176a2.23 2.23 0 0 1-.875.869c.396.155.739.46.975.869a2.59 2.59 0 0 1 .344 1.346 2.9 2.9 0 0 1-.179 1.141c-.135.358-.339.674-.596.92-.566.517-1.266.782-1.979.75-.662.026-1.31-.221-1.836-.699a2.23 2.23 0 0 1-.59-.882 2.63 2.63 0 0 1-.156-1.111h1.434a1.36 1.36 0 0 0 .075.492 1.2 1.2 0 0 0 .241.411c.218.24.506.368.803.358a.94.94 0 0 0 .457-.08c.146-.065.278-.165.389-.295a1.31 1.31 0 0 0 .248-.454 1.5 1.5 0 0 0 .068-.535 1.48 1.48 0 0 0-.037-.585 1.33 1.33 0 0 0-.256-.502 1.05 1.05 0 0 0-.42-.31c-.159-.063-.327-.08-.492-.051h-.875l.086-1.465zm9.94 5.571h-5.264v-1.244l2.496-3.305c.294-.399.554-.833.774-1.295a2.54 2.54 0 0 0 .23-.971 1.72 1.72 0 0 0-.273-.988.92.92 0 0 0-.335-.294c-.13-.065-.27-.093-.411-.081a.8.8 0 0 0-.457.097c-.143.078-.267.197-.361.346a2.4 2.4 0 0 0-.272 1.193h-1.506a3.46 3.46 0 0 1 .155-1.175 3.07 3.07 0 0 1 .533-1.006c.249-.303.548-.54.88-.696a2.17 2.17 0 0 1 1.042-.207c.687-.047 1.361.229 1.879.767a2.74 2.74 0 0 1 .523.936c.116.353.168.731.151 1.109a3.28 3.28 0 0 1-.373 1.585 16.47 16.47 0 0 1-1.277 1.925l-1.434 1.84h3.299v1.465zm1.55-9.034a.73.73 0 0 1 .118-.435c.043-.056.096-.1.156-.129s.123-.042.187-.039a.38.38 0 0 1 .193.037c.061.029.116.074.161.131a.73.73 0 0 1 .118.435.71.71 0 0 1-.118.435c-.043.056-.096.1-.155.13a.37.37 0 0 1-.187.039.38.38 0 0 1-.193-.037c-.061-.029-.116-.074-.161-.131-.084-.122-.126-.277-.118-.435zm.26 0a.67.67 0 0 0 0 .252.19.19 0 0 0 .071.077.15.15 0 0 0 .094.021c.029.003.059-.005.084-.022a.16.16 0 0 0 .058-.076.48.48 0 0 0 .059-.252.57.57 0 0 0-.035-.21c-.014-.033-.037-.06-.064-.078s-.059-.025-.09-.021c-.029-.003-.059.005-.084.022a.16.16 0 0 0-.058.076c-.039.076-.059.164-.059.253l.024-.042zm2.693 1.221c.006.129-.011.258-.05.379a.96.96 0 0 1-.175.323c-.183.176-.414.266-.65.252a.72.72 0 0 1-.368-.07c-.117-.056-.221-.142-.306-.252a1.14 1.14 0 0 1-.201-.375 1.27 1.27 0 0 1-.059-.439v-.533a1.27 1.27 0 0 1 .248-.814.92.92 0 0 1 .662-.295c.244 0 .478.105.661.295a.89.89 0 0 1 .186.319 1.02 1.02 0 0 1 .051.383h-.449c.008-.151-.03-.3-.106-.421a.44.44 0 0 0-.159-.113c-.059-.024-.122-.034-.184-.027s-.114.036-.163.075a.45.45 0 0 0-.121.15 1 1 0 0 0-.118.519v.533a.89.89 0 0 0 .13.519.45.45 0 0 0 .152.146.37.37 0 0 0 .191.05c.059.007.118-.002.173-.027a.39.39 0 0 0 .146-.114c.079-.114.117-.26.106-.407l.402-.056z" class="B"/><g class="E"><path d="M44.049 19.951a.73.73 0 0 1 .118-.435c.043-.056.096-.1.155-.13a.37.37 0 0 1 .187-.039.38.38 0 0 1 .193.037c.061.029.116.074.161.131a.73.73 0 0 1 .118.435.71.71 0 0 1-.118.435c-.043.056-.096.1-.156.129s-.123.042-.187.039a.38.38 0 0 1-.193-.037c-.061-.029-.116-.074-.161-.131-.084-.122-.126-.277-.118-.435zm.26 0c-.016.083-.016.169 0 .253.017.033.042.059.071.077s.062.025.094.021c.029.003.059-.005.084-.022a.16.16 0 0 0 .058-.076.48.48 0 0 0 .059-.253.57.57 0 0 0-.035-.21.17.17 0 0 0-.064-.078c-.028-.018-.059-.025-.09-.021-.029-.003-.059.005-.084.022a.16.16 0 0 0-.058.076.56.56 0 0 0-.059.252l.024-.042zm2.398 1.037h-.91v1.165h-.455v-2.806h1.569v.435h-1.115v.772h.955l-.046.435z"/><rect x="42.614" y="19.347" width=".359" height="2.869" rx=".179"/></g><g class="B"><path d="M23.725 26.648c-.001.664-.264 1.3-.734 1.77s-1.106.734-1.769.735h-6.423A2.87 2.87 0 0 1 12 26.282a2.87 2.87 0 0 1 2.799-2.871h.079a2.73 2.73 0 0 1 2.305-2.048 2.73 2.73 0 0 1 2.745 1.405c.136-.032.275-.048.415-.048a1.82 1.82 0 0 1 1.799 1.605 2.51 2.51 0 0 1 1.583 2.322h0z"/><rect x="62.8" y="21.89" width="17.2" height="2.15" rx="1.075"/></g><g class="E"><rect x="68.533" y="25.473" width="11.467" height="1.433" rx=".717"/><rect x="12.3" y="32.663" width="8.6" height="1.72" rx=".86"/></g><g class="B"><rect x="12.3" y="36.892" width="14.333" height="2.15" rx="1.075"/><rect x="28.067" y="36.533" width="2.867" height="2.867" rx="1.433"/></g><rect x="40.983" y="33.022" width="8.6" height="1.72" rx=".86" class="E"/><rect x="40.983" y="36.892" width="14.333" height="2.15" rx="1.075" class="B"/><rect x="65.367" y="33.022" width="8.6" height="1.72" rx=".86" class="E"/><g class="B"><rect x="65.367" y="36.892" width="14.333" height="2.15" rx="1.075"/><g class="G"><path d="M119.024 11.219h0zm14.352 1.528c0-.066.133-.066.133-.066.133-.066.199-.133.199-.199 0-.133 0-.266-.133-.332-.066-.066-.133-.066-.266-.133v-.066s0-.066.067-.066c.199 0 .332-.066.531-.066s.399-.199.532-.332c.066-.066.066-.133.133-.199s.066-.133 0-.199c-.067-.133-.067-.133.066-.199.2-.066.2-.133.067-.332v-.066l.066-.066c.199-.133.399-.199.665-.332l.93-.199c.066 0 .066-.066.133-.066v-.066c-.067 0-.067 0-.133-.066-.332 0-.665-.066-.997 0h-.332c-.067 0-.133 0-.133-.066a.51.51 0 0 0-.332-.133c-.598-.199-1.13-.266-1.661-.199-.266.066-.598.133-.864.066-.465-.066-.93 0-1.395.133h-.266-.2c-.332 0-.73 0-1.063.066-.664.066-1.395.066-2.059.266-.067 0-.133 0-.2.066-.199 0-.332.066-.531.066-.067 0-.2.066-.2.199 0 .066-.133.066-.133.066-.265.066-.598.066-.863.133h-.133c-.133.066-.266 0-.399.133.066.133.066.266.133.399 0 .066.066.066.133.066.133.066.332.133.465.066.332-.066.664 0 .93.066.399.066.598.399.532.797 0 .066-.067.133-.067.199s0 .133.067.133c.133 0 .199.067.332.067.066 0 .133.066.066.133h-.066c-.266 0-.332.066-.133.332 0 0 0 .066.067.066.066.066 0 .133-.067.133s-.133 0-.199.067c-.332.066-.532.332-.532.664s.067.665.133.997c0 .133.133.332.199.465s.133.199.333.199c.199-.066.332 0 .398.133l.133.133c.067.067.2.067.266 0 .199-.199.465-.332.532-.664 0-.067.066-.133.132-.133.2-.066.333-.266.399-.465.067-.066.133-.133.133-.199.066-.066.199-.133.266-.133.133 0 .266 0 .332-.066.133-.066.266.066.332 0h.067c.332-.066.664-.199.93-.465.133-.133.332-.266.531-.199h.133c.465-.066.931-.199 1.329-.332.266 0 .465-.066.532-.199zm-19.801 15.149a1.12 1.12 0 0 0-.664.199.8.8 0 0 0-.332.332v.133h.066a.51.51 0 0 0 .332-.133.73.73 0 0 1 .532 0c.133.066.266.066.332.133.199.066.399.133.532.266.066.067.132.133.199.266 0 .133.066.133.199.133s.266 0 .399.066h.266c.066 0 .133 0 .199-.066s.066-.199 0-.266-.199-.133-.266-.133c-.199-.133-.398-.199-.598-.399-.332-.266-.731-.399-1.129-.532.066 0 0 0-.067 0zm.598-16.81h.067c.199 0 .398 0 .598-.066.133-.066.265-.133.465-.066a.51.51 0 0 1-.266.133c-.066 0-.066.066-.133.066v.066c.067 0 .067.066.133.066a5.03 5.03 0 0 0 1.993 0c.133 0 .2-.066.266-.199 0-.066 0-.133-.066-.133h-.2c-.133-.133-.199-.133-.332-.066-.066.066-.133.066-.133.133-.066.066-.199.066-.266 0-.199-.133-.465-.133-.598-.332 0 0-.066-.066-.132-.066h-.266c-.399 0-.798.133-1.196.199h-.067c.067.199.067.199.133.266-.066 0-.066 0 0 0zm5.847-.266h-.133a.3.3 0 0 0-.332 0c-.066 0-.066.066-.066.066s0 .066.066.066c.067.066.067.066.133.066.133 0 .266 0 .332-.066h.067s-.067-.066-.067-.133z"/><path d="M120.087 11.019h0c.066 0 0-.066 0 0zm-4.452 18.738c.266.066.532.133.864.066.266-.066.465-.133.731-.133.066 0 .066 0 .133-.066v-.133c-.2-.199-.466-.199-.731-.332-.2.066-.399 0-.598 0-.067 0-.133.066-.067.133 0 .066.067.133.133.266-.133 0-.266.066-.399.066-.066 0-.066 0-.066.066-.133 0-.066.066 0 .066zm18.073-15.083c.133.066.266 0 .399-.066.199-.066.398-.133.598-.266.199 0 .332-.066.398-.199.067-.066.067-.133 0-.133-.133-.133-.199-.332-.465-.266h-.199c-.133 0-.199 0-.266.067-.133 0-.332-.067-.465 0s-.266 0-.399-.067a.41.41 0 0 0-.465.067c0 .133-.066.133-.066.266 0 .066.133.066.199.066h.133l.066.067c-.066.133 0 .266 0 .399.133 0 .333.066.532.066zm-14.618-3.522c.067-.066.067-.066.067-.133s-.067-.066-.133-.066c-.266-.066-.598 0-.798.199-.066-.133-.199-.199-.398-.199-.067 0-.067 0-.133.066 0 .066 0 .133.066.133.067.066.2.066.332.066h.133c.133.199.333.133.598.066.067 0 .133-.133.266-.133zm42.857 21.728c-.066-.133-.133-.266-.332-.266-.133.133-.133.266-.133.399-.066.332 0 .598.133.864.066.133.066.133.199.133.067 0 .133 0 .133-.066.266-.199.332-.332.199-.665l-.199-.399zm-43.189-22.392c.133.133.332.133.465.199.133 0 .199 0 .266-.066s.066-.199 0-.199a1.24 1.24 0 0 0-.465-.133c-.067 0-.133 0-.2.066-.133-.066-.133.066-.066.133z"/><path d="M120.087 10.753c.066 0 .199 0 .266-.066 0 0 .066 0 .066-.066 0 0 0-.066-.066-.066-.133-.066-.266-.066-.399-.133-.067 0-.133 0-.133.066-.066.066 0 .133.066.133 0 .066.067.133.2.133zm-3.322 0c.066.067.132.067.199.067.133 0 .199 0 .332-.133.067 0 0-.066 0-.133-.199-.066-.399-.066-.598.066 0 .066 0 .066.067.133zm.996 18.871c-.066 0-.066.066-.066.133s.066.133.133.133h.066c.133 0 .266-.067.266-.133s-.133-.133-.266-.133c-.066-.066-.133-.066-.133 0zm-2.923-1.927c.066-.133 0-.266-.133-.332h-.067l-.066.066c-.067.133-.067.266.066.332.2 0 .2-.066.2-.066zm25.315 6.91c.067.066.067.066 0 0 .067 0 .067 0 .067-.066-.067 0-.067.066-.067.066zm0 .2c.067 0 .067 0 .067-.066v-.066c-.067 0-.067 0-.067.133 0-.066 0-.066 0 0zm-24.917-7.509c0-.066 0-.066-.066-.066 0 0-.067 0-.067.066 0 0 .067.066.133 0zm37.195 12.853c.045.078.081.14.081.237 0 .053.005.102.009.147.012.123.022.221-.076.318.067.133.067.332-.066.465s-.199.332-.199.532-.067.399-.133.598l-1.728.731c.2-.332.332-.664.2-.997-.067-.199 0-.399.132-.598.067-.066.133-.133.266-.199.038-.038.055-.054.074-.061s.031-.005.059-.005c.332-.066.598-.332.731-.598.066-.133.133-.266.199-.332s.133-.199.2-.332c.066-.066.199-.066.199 0l.052.095z"/><path d="M126.067 37.132c.199.199.399.332.664.399.2.066.266.199.2.332.199.532.133 1.063-.2 1.462l-.365.498-.366.498c-.133.199-.199.465-.133.731.133.332.067.731-.066 1.063-.066.133-.066.199-.066.332l-8.97.532c0-.199 0-.332-.067-.532 0-.08-.049-.136-.102-.198-.034-.04-.071-.082-.097-.134-.266-.266-.532-.465-.93-.598-.466-.133-.665-.399-.864-.797l-.366-.698-.365-.698c-.102-.102-.164-.242-.218-.362l-.048-.103c-.133-.266-.266-.532-.531-.664-.067-.066-.133-.133-.133-.199 0-.133 0-.199-.067-.332 0-.133 0-.199.067-.332.066-.067.066-.133-.2-.067l.023-.044c.056-.106.095-.179-.023-.355-.133-.199-.133-.465 0-.665.067-.066.133-.133.133-.199 0-.199.067-.332.266-.399.066 0 .133-.066.133-.133.066-.133.133-.266.199-.332.399-.399.399-.864.266-1.329-.029-.087-.071-.162-.109-.23-.048-.086-.09-.161-.09-.236 0-.133-.2-.199-.266-.199-.133 0-.199.066-.199.199 0 .199-.2.266-.399.133-.133-.133-.266-.199-.399-.199a.9.9 0 0 0-.133-.1.96.96 0 0 1-.133-.1c-.132-.199-.265-.332-.465-.399-.133-.066-.199-.199-.133-.332.067-.066.067-.133-.066-.199-.089 0-.118-.059-.148-.118-.014-.03-.029-.059-.051-.081-.067-.199-.266-.332-.532-.332-.066 0-.199 0-.266-.066-.133-.133-.266-.199-.465-.199-.133-.066-.199-.133-.266-.199-.033-.066-.083-.116-.133-.166s-.099-.1-.132-.166c-.133-.133-.333-.199-.532-.133-.266.066-.532.066-.731-.066-.066 0-.133 0-.133-.067-.033 0-.066-.017-.099-.033s-.067-.033-.1-.033c-.067 0-.133-.067-.133-.067-.066 0-.066 0-.133-.066l-.103-.048c-.12-.053-.26-.116-.362-.218-.033 0-.05-.017-.066-.033s-.034-.033-.067-.033c-.17-.085-.313-.198-.447-.302l-.217-.163c-.266-.199-.333-.399-.266-.664 0-.033.017-.05.033-.067s.033-.033.033-.066a.42.42 0 0 0 0-.399 1.27 1.27 0 0 1-.054-.127c-.022-.057-.037-.098-.079-.139 0-.033-.016-.05-.033-.066s-.033-.033-.033-.066c-.133-.266-.266-.465-.465-.598-.067-.066-.133-.133-.133-.199 0-.259-.121-.478-.238-.688l-.094-.176c-.133-.199-.2-.465-.2-.731v-.199c0-.066-.066-.133-.132-.133-.112-.056-.13-.018-.173.076l-.027.057c0 .133 0 .266.067.332.195.244.283.561.368.87l.097.326c.066.266.133.465.266.665.066.133.066.199.066.332 0 .067 0 .067-.066.133s-.067.066-.133 0c-.034-.033-.067-.083-.1-.133s-.066-.1-.1-.133c-.265-.133-.398-.332-.332-.598.067-.066 0-.133-.066-.133 0 0-.067-.066-.133-.066-.133-.067-.2-.133-.266-.266s-.066-.199.066-.332c.2-.199.2-.199.067-.332-.133-.199-.199-.332-.199-.532a2.44 2.44 0 0 0-.034-.332l-.033-.332a.58.58 0 0 0-.465-.598c-.199-.066-.266-.133-.266-.332-.066-.266-.066-.532-.066-.797 0-.033-.017-.083-.033-.133s-.034-.1-.034-.133c0-.044-.007-.089-.014-.133-.015-.089-.03-.177.014-.266-.052-.156.018-.271.083-.378l.05-.087.2-.399a.69.69 0 0 1 .161-.257.67.67 0 0 0 .104-.142c.1-.166.216-.316.333-.465l.332-.465c.133-.199.266-.399.332-.664.066-.133.066-.266-.066-.332-.133-.133-.2-.266-.2-.399s0-.199.067-.199c.133 0 .133-.066.133-.199 0-.066 0-.133.066-.199.066-.199.066-.332.066-.532 0-.133 0-.266.067-.399.1-.1.087-.199.075-.299l-.009-.1c0-.066 0-.199-.066-.266v-.199-.133c0-.066-.067-.066-.133-.066-.041 0-.057-.025-.078-.061-.014-.022-.029-.047-.055-.072-.066-.133-.133-.266-.266-.332-.125 0-.251-.03-.383-.061-.148-.035-.305-.072-.48-.072-.067 0-.2-.067-.266-.133-.2-.066-.332-.066-.465.066-.133.199-.333.266-.598.332-.158 0-.274.042-.415.092l-.117.041c-.066.067-.133 0-.199-.066-.05-.1-.1-.087-.15-.075a.2.2 0 0 1-.05.008c-.066 0-.132.067-.066.133l-.997.399c-.26.156-.561.271-.839.378l-.224.087c-.066.033-.149.066-.233.1l-.233.1c-.15.1-.299.087-.449.075l-.149-.008c-.067 0-.133 0-.133-.066-.067-.066 0-.133.066-.133.1-.033.183-.083.266-.133a1.32 1.32 0 0 1 .266-.133c.266-.133.465-.266.664-.399.033 0 .05-.017.067-.033s.033-.033.066-.033c.066 0 .066-.067.066-.067h-.066-.199-.199c-.067 0-.133 0-.133-.066 0-.081-.049-.137-.102-.198-.035-.04-.071-.082-.097-.134v-.199s0-.066.067-.066.066-.066.066-.066c.066-.199.266-.332.465-.399l.42-.171c.372-.158.738-.312 1.174-.361-.133-.133-.199-.133-.332-.133-.066.066-.199.066-.266.066s-.133-.066-.133-.133c.067-.066.067-.133.067-.199 0-.199.133-.266.266-.332.199 0 .398 0 .598-.067a.73.73 0 0 1 .531 0h.2c.066-.066.132-.133.066-.199-.033-.033-.05-.083-.066-.133s-.034-.1-.067-.133c-.066-.066-.066-.133.067-.199s.265-.133.332-.199c.266 0 .465-.066.664-.133h.067c.531-.199 1.063-.332 1.594-.332.2 0 .333 0 .532-.066h.266c.109 0 .199.02.28.038.065.015.125.028.185.028l1.196.199h.664.2c.151.114.303.141.455.168.114.02.228.041.342.098.022 0 .044.007.066.015.045.015.089.03.133-.015.133-.033.266-.05.399-.066l.399-.066c.066 0 .132-.017.199-.033s.133-.033.199-.033c.2-.066.332-.066.465-.066s.266 0 .399.066c.133-.066.199-.066.266.066s.133.133.266.066h.265.333c.199 0 .398 0 .531.133.133.067.2.067.332.067s.2 0 .2-.133c0-.066 0-.133.066-.133.161-.054.149-.194.138-.316l-.005-.083c-.266 0-.465.066-.664.133s-.399.066-.532-.066a.19.19 0 0 1 0-.332c.465-.266.93-.531 1.462-.598a.55.55 0 0 0 .122-.016c.066-.014.124-.027.21.016h.133c.199.067.332.067.532.067.132 0 .265.066.332.199.066.066.133.133.266.133.042 0 .09.007.142.014.11.015.232.032.323-.014.077-.039.132-.01.191.021.042.022.085.045.141.045.399-.332.465-.332.731-.066.044.044.029.089.015.133a.2.2 0 0 0-.015.066c-.067.066-.067.199-.067.399 0 .028 0 .044.005.059.007.02.024.036.062.074.066 0 .133.066.133.066.133.133.066.266-.067.332s-.266.133-.332.199-.133.066-.266.066c-.072 0-.136-.009-.194-.017-.101-.014-.186-.026-.271.017.133.066.266.066.399.066.199-.066.398-.066.598-.066.066 0 .133-.066.066-.133 0-.066 0-.133.067-.133.085-.085.197-.116.302-.144a.89.89 0 0 0 .163-.055c.044-.044.088-.03.133-.015.022.007.044.015.066.015.022.022.052.037.081.052.059.029.118.059.118.148 0 .133-.132.133-.199.133 0 .041.025.031.061.018.021-.008.047-.018.072-.018.025-.025.059-.04.095-.057.061-.028.129-.059.171-.143v-.066c-.133-.199-.067-.332.066-.465v-.066c-.266 0-.465-.066-.598-.199-.133-.066-.066-.199 0-.266h.133c.067 0 .133 0 .199-.133 0-.133.133-.199.266-.199h.532c.133 0 .199.066.133.199l-.041.076a.56.56 0 0 0-.092.322c-.067.066-.067.133 0 .133 0 .066.066 0 .066 0 0-.033.017-.05.033-.067s.034-.033.034-.066c.104-.208.248-.294.402-.385l.129-.08c.067-.066.133-.066.2-.066-.067-.066-.067-.199-.067-.266h.067c.132-.066.265-.066.398-.066s.2.066.133.199c-.066.067-.066.067-.066.133.052.026.104.032.152.037.074.008.139.015.18.096h.133c.266-.066.598-.133.93-.066h.399v-.066c-.266-.133-.598-.133-.931-.133-.199 0-.332 0-.465-.066-.133 0-.133-.066-.066-.133s.133-.133.199-.266c.067-.066.067-.066.133-.066.133-.066.266-.066.399.066.033 0 .05.017.066.033s.033.033.067.033.033-.017.033-.042 0-.058.033-.091c.085-.085.198-.116.303-.144.058-.016.115-.031.162-.055s.089-.037.133-.052c.089-.03.177-.059.266-.148-.086-.043-.144-.03-.21-.016-.036.008-.075.016-.122.016-.067.066-.2.066-.266.066-.027 0-.053-.003-.08-.005-.106-.011-.212-.021-.319.138-.133-.133-.133-.266.067-.332.161-.107.365-.171.543-.227l.121-.039a.3.3 0 0 1 .332 0c.2.066.333.133.532.266.066.066.066.133 0 .199s-.133.066-.199.066c-.133 0-.266 0-.399.066.332.067.598 0 .797-.133.081-.08.088-.136.096-.198.005-.04.011-.082.037-.134-.038-.019-.088-.033-.14-.047-.13-.036-.278-.077-.325-.218.066-.066.199-.066.266-.066l1.196-.199c.465-.066.93-.133 1.395 0h.997c.199-.066.465-.066.664-.066a.65.65 0 0 1 .337-.014.82.82 0 0 0 .128.014c.067 0 .2 0 .2.066 0 .133-.133.133-.2.133l-.93.233-.93.233c-.067.133-.199.133-.332.133-.1 0-.216.017-.333.033l-.332.033c0 .066-.066.066-.133.066-.199.133-.465.199-.731.266-.132 0-.265.066-.398.199-.067.066-.133.066-.2.066h-.265-.133c-.067 0-.133 0-.133.066.066.066.066.133 0 .199-.097.097-.195.123-.318.156l-.147.043c-.067.033-.116.033-.158.033s-.075 0-.108.033v.066c.115 0 .13.05.175.191l.024.075v-.199c0-.066.067-.133.133-.133a.65.65 0 0 1 .337-.014c.044.007.086.014.128.014.266.066.266.066.333.332v.066c.199.133.398.199.664.266.133 0 .199.066.266.133s.199.199.199.332a.43.43 0 0 1-.081.237l-.052.095c.067.066.15.1.233.133s.166.066.232.133c.133.067.2.199.2.399 0 .054-.044.064-.201.101l-.132.032a.66.66 0 0 0-.166.133.63.63 0 0 1-.166.133c-.199.133-.266.133-.465-.133l-.133-.133c-.066-.133-.133-.133-.266 0 .067 0 .133.066.2.133.133.199.133.332.066.532a.5.5 0 0 1-.465.266h-.133v.133c0 .062-.006.105-.019.135-.037.007-.073.031-.109.063-.021.002-.045.002-.071.002-.284 0-.471-.097-.685-.208l-.086-.044c-.007-.061-.05-.103-.093-.146-.021-.007-.041-.015-.06-.025-.004-.015-.006-.03-.006-.042-.059-.177-.17-.249-.334-.263l-.065-.069c-.066-.066-.133-.133-.266-.066-.043.043-.113.03-.194.016-.044-.008-.091-.016-.138-.016-.033 0-.083-.017-.133-.033l-.091-.027c.003-.021.011-.045.025-.072l.076-.082c.09-.101.165-.184.322-.184.078 0 .156.023.221.042.045.013.084.025.112.025.199.066.398 0 .531-.199a.9.9 0 0 1 .133-.1.9.9 0 0 0 .133-.1c.066 0 .133-.066.199-.133s.067-.133 0-.199l-.066-.066c-.133-.066-.2-.133-.266-.266-.033 0-.066-.017-.1-.033s-.066-.033-.099-.033h-.798c0 .199-.066.332-.199.399-.066 0-.066.066-.066.133-.097.193-.264.281-.424.366l-.174.1c-.133.066-.266.066-.333.066s-.133 0-.133.066a2.04 2.04 0 0 1 .333.465c.015.03.023.06.025.088a1.12 1.12 0 0 0-.099.168c-.018.006-.038.01-.059.01-.133.066-.2.066-.266 0-.199-.066-.332 0-.465.066-.033 0-.067.017-.1.033s-.066.033-.099.033h-.266l-.2-.199c-.037-.075-.011-.107.018-.145.023-.03.049-.062.049-.121a2.45 2.45 0 0 0-.731.332c-.199.133-.399.266-.664.266-.266.066-.399.133-.598.266s-.399.266-.598-.066c-.042 0-.057.025-.079.061-.013.022-.029.047-.054.072-.067.066-.1.1-.1.133s.033.066.1.133v.133c-.067.133-.067.199-.067.266s.067.066.067.066c.265-.066.531.067.731.266a1.1 1.1 0 0 0 .797.332c.066 0 .199 0 .332.066.067.066.067.066.067.133-.026.051-.042.092-.055.127-.022.057-.037.098-.078.139-.067.066-.133.199-.2.332v.199c.067.133.133.199.333.133.132-.067.199-.199.265-.332s.133-.332.133-.465.067-.199.2-.266c.099-.033.199-.083.299-.133l.299-.133c.132-.067.265-.133.332-.266.133-.133.199-.266.066-.465-.066-.133 0-.266.133-.332.033 0 .05-.017.067-.033s.033-.033.066-.033c.199-.066.266-.133.266-.332 0-.11.022-.197.059-.276.067-.024.105-.09.099-.168l.04-.057.068-.098c.066-.133.199-.133.398-.133a.19.19 0 0 1 .042.006c-.012.085.051.127.158.127a2.5 2.5 0 0 1 .332.033l.332.033.065.003.033.037c.089.1.185.208.307.268.018.069.072.158.127.158l.026.013c.004.033-.003.072-.026.12 0 .033-.017.066-.034.1s-.033.066-.033.1c0 .133 0 .199.067.266s.132.133.265.066c.034 0 .05-.017.067-.033s.033-.033.066-.033c.067-.033.133-.083.2-.133s.132-.1.199-.133l.071-.068c.052-.004.088-.017.109-.063.086-.068.219-.002.219.065.111.223.176.492.233.73l.032.134c.048.096.027.191.012.262-.006.028-.012.052-.012.07.067.199.133.332.333.399 0 0 .066.066.132.066.067.066.133.133.133.199s.067.133.067.133c.266.199.199.465.066.731 0 .033-.016.05-.033.066s-.033.033-.033.067c0 .133-.067.266-.133.399 0 .133 0 .199.133.199h.266c.066 0 .132.066.132.199-.033.033-.049.083-.066.133s-.033.1-.066.133c-.067.066-.067.133 0 .199s.132.133.066.199c-.016.016-.031.035-.048.055-.053.066-.116.144-.218.144-.133.066-.266 0-.398-.067-.2-.133-.333-.133-.532-.133h-.598c-.066 0-.133-.067-.066-.133 0-.067 0-.133.066-.133.275-.165.459-.421.627-.655l.104-.143.133-.133c-.067-.066-.067-.066-.133-.066-.033 0-.05.017-.067.033s-.033.033-.066.033c-.266.266-.598.332-.997.332h-.996c-.067 0-.2 0-.266.066.066.066.066.066.133.066.133 0 .266 0 .332.066.133.067.199.199.066.332l-.132.133c-.067.067-.133.199-.133.266 0 .199.066.332.265.399.067.033.133.05.2.066s.133.033.199.066c.067.066.067.066.067.133s0 .133-.067.133l-.598.199c-.199.066-.399.133-.531.266a.51.51 0 0 1-.266.133c-.133 0-.2-.066-.2-.199s.067-.199.133-.266c-.041-.041-.056-.031-.078-.018-.013.008-.029.018-.055.018l-.93.399c-.266.133-.465.266-.465.532 0 .133-.066.199-.133.199-.033 0-.083.017-.133.033a.5.5 0 0 1-.133.033c-.265.067-.531.199-.797.399 0 .041-.025.057-.06.078a.38.38 0 0 0-.073.055l-.398.399-.2.199a.51.51 0 0 0-.133.332c0 .266-.066.465-.265.598 0 .033-.017.05-.034.067s-.033.033-.033.066c-.066.066-.133.133-.199.133-.133 0-.332.066-.399.199 0 .066-.066.066-.066.066-.248.083-.445.242-.638.399l-.359.265a.34.34 0 0 0-.066.1c-.017.033-.034.066-.067.1l-.025.074c-.056.16-.099.284-.041.457.066.266.133.598.133.93.066.266 0 .399-.2.531-.133.133-.266.133-.332 0-.199-.266-.332-.598-.332-.997v-.199c0-.133-.133-.266-.266-.199-.133 0-.266 0-.332-.133s-.2-.133-.332-.133a1.21 1.21 0 0 0-.28.038.86.86 0 0 1-.186.028c-.132 0-.265.067-.265.199s-.133.133-.2.133c-.133-.033-.265-.05-.398-.066l-.399-.066c-.174-.058-.297-.015-.457.041l-.075.025c-.265.133-.531.266-.797.465a.5.5 0 0 0-.266.465c.058.172-.034.345-.103.474l-.03.057c-.265.532-.265.997-.133 1.528a1.04 1.04 0 0 0 .399.532l.056.029c.1.054.173.094.343.037h.465c.266 0 .332 0 .399-.266.033-.067.049-.133.066-.199s.033-.133.067-.199l.199-.199c.266-.067.598-.133.864-.133.038.038.054.054.074.061.014.005.03.005.059.005.066.067.132.133.066.266a1.06 1.06 0 0 0-.152.367l-.047.164-.2.399c-.133.199-.199.465-.265.731.066.067.132.067.199.067a.43.43 0 0 0 .178-.042c.033-.013.06-.025.088-.025.332-.133.664 0 .93.199.038.038.054.054.061.074.005.014.005.031.005.059 0 .199 0 .332-.066.532l-.199.731c-.067.199 0 .399.199.532l.133.133c.199.133.332.199.531.066 0-.066.067-.066.067-.066a.72.72 0 0 1 .731 0c.066.066.133.133.199.133.101 0 .164-.078.218-.144l.048-.056c0-.033.016-.066.033-.1a.23.23 0 0 0 .033-.1c.067-.266.266-.399.532-.465l.149-.034c.193-.041.342-.072.449-.232.066-.066.133-.066.199-.066.133 0 .199.066.266.199v.066c.066 0 .133 0 .066-.199.028-.028.044-.044.063-.048.027-.007.059.009.137.048.078.052.157.095.231.134.115.061.22.117.3.198.067.066.133.066.2.066.199 0 .332.066.465.133.066.066.199.066.265 0 .2-.133.399-.133.598-.133h.399c.199 0 .199.066.199.199v.133c0 .332 0 .332.333.465.133.066.265.199.332.332s.133.199.199.266c.2.199.399.266.665.266.232 0 .432.065.622.127l.241.073c.048.048.104.096.162.146.182.157.386.333.436.585l.2.532c.066.066.066.133.066.266 0 .199.067.332.266.332.066 0 .116.05.166.1s.1.1.166.1c.067.033.133.05.2.066s.132.033.199.066c.066.044.14.074.214.103.148.059.295.118.384.295.066.066.066.066.133.066.199 0 .332.066.465.133.199.066.399.066.598.066.066-.066.199-.066.266 0 .199.067.332.199.465.332zm-7.31-25.018l-.066.035s-.066.066-.066.133c.066 0 .066.066.066.133v.332c0 .133 0 .199.133.199.266 0 .266.067.266.399v.066c.266-.133.465-.266.598-.531-.042-.083-.109-.114-.171-.143-.036-.017-.07-.032-.095-.057-.133-.066-.199-.199-.133-.332 0-.066.067-.133.133-.199s.2-.199.333-.266v-.066c-.034 0-.05.017-.067.033s-.033.033-.066.033c-.2.133-.399.199-.598.199-.11-.055-.174-.019-.267.032zm-5.252 1.02c-.071-.015-.166-.036-.262.011 0 .064 0 .097.014.121s.05.043.119.078c.133-.066.266-.066.399-.066-.034-.033-.067-.05-.1-.066s-.067-.033-.1-.066c-.018 0-.042-.005-.07-.011z"/><path d="M163.143 12.016l-.647-.051-1.28-.149c-.133 0-.266 0-.398.066s-.2.066-.333.066h-.066v-.066c.066-.033.116-.066.166-.1l.166-.1c.133-.066.133-.199 0-.332-.097-.097-.194-.123-.318-.156l-.147-.043c-.266-.066-.465-.066-.731-.066l-.531-.1-.532-.1c.399-.266.066-.266-.133 0l-.066.066h-.266c-.12-.04-.239-.008-.359.024-.08.021-.159.043-.239.043-.399.066-.798.133-1.13.266-.066 0-.133.066-.133.133 0 .133-.066.133-.199.133-.199 0-.332 0-.532.066h-.199c-.133 0-.133.133-.066.266 0 .133 0 .133-.067.133-.133 0-.266 0-.332.066-.093.046-.153.028-.204.013-.022-.007-.042-.013-.062-.013-.133-.066-.199-.133-.199-.133-.067 0-.067 0-.133.066a1.33 1.33 0 0 1-.1.166l-.099.166h-.067c-.066-.066-.066-.133-.066-.133 0-.133-.067-.199-.2-.266a.57.57 0 0 0-.465 0c-.133 0-.265 0-.265.199 0 .097-.036.159-.081.237l-.052.095c-.067.066-.067.133 0 .199s.133.133.133.266c0 .033 0 .05-.009.058s-.025.008-.058.008-.066-.017-.1-.033-.066-.033-.099-.033c-.332-.133-.598-.133-.93-.133-.067 0-.133.066-.133.133v.067a.55.55 0 0 1-.122-.016c-.067-.014-.125-.027-.211.016a.86.86 0 0 0-.185.028 1.21 1.21 0 0 1-.28.038.57.57 0 0 1-.465 0 .3.3 0 0 0-.332 0l-.797.199c-.133 0-.2.066-.266.199s-.133.133-.199.066c-.133-.066-.133-.066-.067-.199.039-.078.055-.11.049-.137-.005-.019-.021-.035-.049-.063-.033 0-.05-.017-.066-.033s-.034-.033-.067-.033c-.05 0-.099-.004-.149-.008-.15-.013-.299-.025-.449.075.067.133.067.199.067.332 0 .063 0 .097-.015.121s-.049.043-.118.078a2.91 2.91 0 0 0-.335.135l.003-.002c.066-.067.066-.199 0-.332-.067-.067-.133-.133-.2-.133-.332-.133-.664-.266-.996-.332l-.466-.1-.465-.1c-.066 0-.133 0-.199-.066-.066-.133-.199-.133-.266-.133-.465-.066-.864-.066-1.329-.066-.066 0-.199 0-.265.066-.2.133-.399.199-.665.133-.133 0-.199 0-.332.133s-.266.266-.465.332c-.067 0-.133.066-.133.133-.087.13-.202.232-.327.343l-.205.189c-.012.012-.027.025-.042.038-.069.058-.157.132-.157.294-.133.133-.266.266-.399.332-.059 0-.106.013-.157.028-.062.018-.132.038-.241.038-.067 0-.2.066-.266.133-.1.033-.183.083-.266.133s-.166.1-.266.133c-.133.066-.199.133-.199.332 0 .332.066.598.199.864.067.133.2.199.332.199.2 0 .333-.066.466-.133.052-.026.094-.063.134-.098.061-.053.117-.102.198-.102.092 0 .153.097.203.178.022.035.042.068.063.088.033.066.083.133.132.199s.1.133.133.199c.067.066 0 .133-.066.133s-.133.066-.133.066c-.133.066-.133.066-.133.266v.199h-.066c-.133 0-.266-.133-.2-.266.079-.118.088-.236.096-.34.005-.072.01-.137.037-.192 0-.067 0-.133-.066-.133h-.133c-.067.066-.199.133-.266.133-.199.133-.332.399-.199.664 0 .066.066.133.066.133.067.133 0 .199-.133.266l-.365.1-.366.1c-.066 0-.199.067-.199.133-.133.266-.332.399-.598.532h-.133l-.133-.133c.067-.067.133-.133.133-.266.067-.066 0-.133-.066-.199-.2-.067-.332-.199-.399-.465v-.067c-.11-.073-.18-.187-.253-.308-.06-.098-.123-.201-.212-.29.266-.332.199-.465-.199-.532 0-.022.007-.044.014-.067.015-.044.03-.089-.014-.133-.2-.133-.399-.066-.532.133l-.199.199c-.067.067-.067.133-.067.199.067.133.067.266.067.399 0 0 .066.067.066.133.062.062.066.066.012.121a.57.57 0 0 1-.045-.021c-.033-.017-.066-.033-.1-.033v.061c-.036-.006-.068-.017-.099-.027-.05-.017-.1-.033-.166-.033-.133 0-.266 0-.399.133-.067.066-.133.133-.266.133-.199.066-.266.133-.199.332v.066c.066.067 0 .133 0 .133l-.133.133-.067.067c.067.199.2.332.399.199a1.3 1.3 0 0 0 .133-.081c.089-.059.177-.118.266-.118.199 0 .266-.133.332-.332 0-.066 0-.199.066-.266.113-.113.13-.225.133-.338.021.004.043.006.067.006h.066l.012-.012c.018.007.037.012.055.012.157 0 .19.083.23.184l.035.082c.067.133 0 .199-.066.199-.029.015-.062.026-.094.037-.111.039-.209.073-.105.229l-.067.067c-.133.133-.133.133.067.266l.066.067c-.029.058-.082.09-.139.125-.075.045-.155.094-.193.207v.066c0 .066.066.066.066.066.067 0 .2 0 .266-.066.133-.066.266-.066.399-.066.199 0 .332 0 .531-.066.133 0 .2 0 .333-.066 0 0 .066 0 .066.066v.066c-.089.089-.177.118-.266.148l-.133.052h-.133c-.033 0-.049-.017-.066-.033s-.033-.033-.066-.033c-.133 0-.2 0-.2.133-.066.199-.066.199-.199.133h-.332c-.067 0-.133 0-.2.066l-.066.067c0 .133.066.199.199.266.067 0 .133 0 .2.066.265.133.465.332.531.664.067.266 0 .465-.199.731l.332-.216h4.17l-.05-.05c-.133-.133-.133-.199 0-.399.066 0 .199 0 .265.066.028.028.067.055.112.087.065.046.143.101.221.178a.64.64 0 0 0 .099.117l2.027-.05 10.963.111v6.733a1.93 1.93 0 0 1 .332.066c.333.066.731.066 1.064 0a1.29 1.29 0 0 0 .265-.033 1.29 1.29 0 0 1 .266-.033c.067 0 .133 0 .199.066.089.177.237.295.384.413l.215.184c.012.012.027.025.042.038.069.058.157.132.157.294 0 .066.066.133.066.133.067.033.117.083.166.133s.1.1.167.133c.066.133.199.199.332.133.033 0 .083-.017.133-.033a.5.5 0 0 1 .133-.033c.066 0 .132 0 .132.066v.133c0 .22.046.395.099.599l.034.132c.067.465.266.93.532 1.329.066.066.133.199.133.266.088.31.236.62.384.93l.214.465.036.079c.037.083.059.135.163.187.133.133.266.199.399 0 .199-.199.332-.332.465-.598l.012-.024.007-.013.015-.027c.052-.093.087-.158.032-.267-.042-.085-.03-.169-.016-.271.008-.058.016-.121.016-.194-.066-.266-.066-.399-.066-.598v-.332c-.067-.199 0-.266.133-.399.133-.067.332-.199.398-.332 0-.066.067-.066.133-.066.086-.043.144-.113.21-.194l.123-.138a2.01 2.01 0 0 1 .531-.532c.133-.066.199-.199.199-.332s.067-.199.2-.266l-.399-16.611zm-21.727 8.306c0-.033-.017-.05-.034-.067s-.033-.033-.033-.066c.067.066.067.066.067.133zm5.944-6.409l.036-.036.13-.064c-.038.038-.097.075-.166.1zm-.486.049c.103.013.2.023.322-.018.057 0 .113-.012.164-.031-.052.054-.097.109-.097.164-.033 0-.083-.017-.133-.033s-.1-.033-.133-.033l-.123-.048zm-.2-.018c.057-.026.111-.014.2.018l-.02-.003-.18-.016zm0 0c-.049.033-.082.115-.142.266-.133.066-.199-.067-.199-.133s0-.133.066-.133h.266.009zm8.458 14.234l-.029 1.049h-5.747c.05.05.099.1.166.133l.052.095c.045.078.081.14.081.237.025.025.04.059.057.095.028.061.059.129.142.171.199.133.266.332.266.598a1.13 1.13 0 0 0 .092.414l.041.117c.199.066.199.199.133.332-.067 0-.067 0-.133-.067l-.266-.266c-.066-.133-.199-.199-.332-.266-.266-.067-.399-.266-.465-.598 0-.266-.133-.465-.333-.532-.132-.066-.199-.266-.265-.465l-13.156.108v-5.49c-.067.133-.2.266-.399.332-.399.199-.598.532-.665.997 0 .199-.066.399-.265.531l-.129.09c-.138.1-.264.191-.469.242-.133 0-.2.066-.2.199s-.066.266-.199.332-.266.199-.266.332v.199c0 .066-.066.199-.133.199-.133.066-.199.133-.265.266a2.47 2.47 0 0 0-.333.731c0 .033-.004.066-.008.1-.012.1-.025.199.075.299 0 0 .066.066.066.133l.009.299c.012.299.024.598-.075.897-.033.066-.067.15-.1.233l-.1.233a.3.3 0 0 0 0 .332c.067.066.067.199.067.332-.067.199 0 .399.199.532.033.033.067.05.1.066s.066.033.1.067c.332.266.598.598.73.997 0 .033.017.067.034.1s.033.066.033.1c.025.025.041.051.054.072.022.035.038.061.079.061.199.066.332.199.398.332 0 .066.067.066.133.066.1.1.216.183.333.266s.232.166.332.266c.133.133.266.133.465.066l.598-.199a.3.3 0 0 1 .332 0c.133.066.332.066.465.066.047.046.125.028.191.013.029-.007.055-.013.075-.013.1-.033.216-.083.332-.133l.332-.133c.266-.133.532-.199.731-.199.333 0 .465.067.598.399 0 .066.067.133.133.199 0 .066.067.066.133.066.089.044.177.029.266.015.044-.007.089-.015.133-.015h.133.265l.067.066c.199.133.266.332.199.598 0 .066 0 .066-.066.133 0 .047-.009.086-.016.122-.015.066-.027.124.016.21 0 .199 0 .332-.133.465-.067.133-.067.266 0 .332.047.14.126.247.215.367l.117.164a3.99 3.99 0 0 0 .199.266l.2.266a.51.51 0 0 1 .133.332c0 .199.066.332.133.465s.132.266.199.465c-.067.266-.067.598.133.864 0 .066 0 .066.066.133.067.199 0 .399-.133.532-.181.181-.252.473-.314.725l-.018.073c.266.465.266.731.266.997 0 .133 0 .266.133.399l.199.399 7.163-.24c.14-.152.287-.31.478-.425.034 0 .05 0 .058-.008s.009-.025.009-.058c.125-.042.224-.11.313-.171l.152-.095c.266-.199.399-.532.332-.864 0-.133 0-.199-.066-.332 0-.199 0-.399-.067-.532 0-.047.009-.086.016-.122.015-.066.027-.124-.016-.21 0-.133-.066-.199-.133-.266a.6.6 0 0 1-.199-.465c0-.199 0-.332.066-.532.067-.133 0-.199-.132-.199-.067-.066-.067-.199 0-.266l.097-.203c.104-.22.217-.459.368-.661l.199-.199c.199-.133.332-.332.465-.532.067-.133.199-.266.332-.399.133-.199.266-.332.465-.399a1.56 1.56 0 0 0 .598-.532c.2-.266.399-.598.532-.93.1-.166.183-.349.266-.532l.266-.531c.099-.199.087-.399.074-.598l-.008-.199v-.066c-.066-.066-.066-.066-.133-.066-.033 0-.066.017-.1.033s-.066.033-.099.033a4.55 4.55 0 0 1-.532.199c-.133 0-.332 0-.465.133-.044.044-.088.03-.133.015-.022-.007-.044-.015-.066-.015-.015 0-.033-.003-.054-.007-.069-.013-.16-.03-.212.073h-.133c-.133 0-.266-.066-.332-.199s-.067-.266-.067-.465a.8.8 0 0 1 .133.015c.089.015.178.029.266-.015l.081-.043c.126-.069.288-.157.451-.157.033 0 .066-.017.099-.033s.067-.033.1-.033c.084-.056.191-.088.301-.122.154-.046.314-.095.43-.211.033-.033.066-.033.1-.033s.066 0 .099-.033c.133 0 .266-.066.399-.133.041 0 .057-.025.078-.061.014-.022.029-.047.055-.072.066 0 .066-.067.066-.133 0-.133.133-.266.266-.266h.066l.042-.014.034-.011c.187-.06.414-.133.589-.308.148-.049.223-.135.305-.23l.094-.102c.132 0 .265-.066.265-.199a.51.51 0 0 1 .133-.332c.133-.133.2-.332.266-.532v-.199c-.097-.097-.159-.195-.237-.318zm-19.696-4.998l.132-2.259.997.066c-.332-.066-.664-.066-.997-.066a1.25 1.25 0 0 0-.531.133c-.028.028-.045.045-.054.064-.013.026-.013.059-.013.135.067.399 0 .731-.132 1.063 0 .066-.067.133-.067.133 0 .025-.01.051-.018.072-.013.035-.023.06.018.06.08.08.088.16.096.239a.42.42 0 0 0 .037.159c0 .109.044.128.133.168l.066.031h.333zm6.046-5.914c-.133-.066-.199-.066-.266-.066-.025 0-.041.01-.054.018-.022.013-.038.023-.079-.018 0 .066 0 .066.067.066.133 0 .266.066.332.133.052.103.143.086.212.073l.054-.007.332-.1.332-.1c.047 0 .094-.008.139-.016.08-.014.151-.027.194.016.132.066.265 0 .332-.066.033-.033.05-.066.066-.1s.033-.066.067-.1c0-.133 0-.266.066-.399.067-.266.199-.332.465-.266 0 0 .067.066.133.066s.067-.066.067-.066v-.199c-.067-.067-.067-.199 0-.266 0-.066.132-.133.199-.133.13-.043.232-.03.343-.016l.188.016c.133.066.2 0 .266-.199h-.332c0 .066-.066.066-.133.066h-.199c-.266.133-.532.133-.798.067-.132 0-.265-.133-.265-.266 0-.033-.017-.066-.034-.1s-.033-.066-.033-.1c-.066-.266-.066-.399.2-.598.199-.066.332-.199.465-.332 0-.033.016-.066.033-.1s.033-.066.033-.1h-.465c-.025.025-.051.041-.072.054-.036.022-.061.037-.061.079 0 .199-.133.332-.266.399-.101.102-.242.164-.361.218l-.104.048c-.133.067-.199.199-.199.332v.199c.133.066.266.199.332.266s.067.133 0 .266-.133.199-.266.266c-.066 0-.133.067-.199.133 0 .1-.017.183-.033.266s-.034.166-.034.266c0 .133-.066.199-.199.199-.066 0-.133.066-.199.133s-.2.066-.266.066z"/></g></g><rect x="88.5" y="6.9" width="75" height="36" rx="2.367" class="D"/><mask id="A" class="C"><path d="M135.936 20.2a.67.67 0 0 0-.669.669v8.027a.67.67 0 0 0 .669.669h7.304l1.784 2.402c.137.185.415.185.552 0l1.783-2.402h7.305a.67.67 0 0 0 .669-.669v-8.027a.67.67 0 0 0-.669-.669h-18.728z" class="G"/></mask><path d="M135.936 20.2a.67.67 0 0 0-.669.669v8.027a.67.67 0 0 0 .669.669h7.304l1.784 2.402c.137.185.415.185.552 0l1.783-2.402h7.305a.67.67 0 0 0 .669-.669v-8.027a.67.67 0 0 0-.669-.669h-18.728z" class="C G"/><path d="M143.24 29.565l.288-.214-.107-.145h-.181v.358zm1.784 2.402l.288-.214h0l-.288.214zm.552 0l-.288-.214h0l.288.214zm1.783-2.402v-.358h-.18l-.107.145.287.214zm-11.734-8.696a.31.31 0 0 1 .311-.311v-.717a1.03 1.03 0 0 0-1.028 1.027h.717zm0 8.027v-8.027h-.717v8.027h.717zm.311.31a.31.31 0 0 1-.311-.31h-.717a1.03 1.03 0 0 0 1.028 1.027v-.717zm7.304 0h-7.304v.717h7.304v-.717zm2.072 2.547l-1.784-2.402-.575.427 1.783 2.403.576-.427zm-.024 0c.019-.004.021-.003.022-.002l-.574.429c.281.378.847.378 1.128 0l-.576-.427zm1.784-2.402l-1.784 2.402.576.427 1.783-2.403-.575-.427zm7.592-.145h-7.305v.717h7.305v-.717zm.311-.31a.31.31 0 0 1-.311.31v.717a1.03 1.03 0 0 0 1.028-1.027h-.717zm0-8.027v8.027h.717v-8.027h-.717zm-.311-.311a.31.31 0 0 1 .311.311h.717a1.03 1.03 0 0 0-1.028-1.027v.717zm-18.728 0h18.728v-.717h-18.728v.717z" fill="#647580" mask="url(#A)"/><path d="M152.837 24.409a.91.91 0 0 1-.471-.125.97.97 0 0 1-.337-.338c-.083-.142-.125-.299-.125-.471s.042-.327.125-.467a.95.95 0 0 1 .337-.338.9.9 0 0 1 .471-.127.89.89 0 0 1 .469.127c.142.084.255.196.338.338s.126.296.126.467a.91.91 0 0 1-.126.471.95.95 0 0 1-.338.338.9.9 0 0 1-.469.125zm0-.54a.38.38 0 0 0 .34-.196.4.4 0 0 0 .053-.2.38.38 0 0 0-.053-.198c-.035-.06-.081-.107-.141-.142a.38.38 0 0 0-.199-.053.38.38 0 0 0-.198.053c-.059.035-.107.083-.142.142a.38.38 0 0 0-.054.198c0 .073.018.14.054.2s.083.107.142.143.126.053.198.053zm-2.942 2.643a1.67 1.67 0 0 1-.718-.148 1.25 1.25 0 0 1-.498-.409 1.05 1.05 0 0 1-.192-.597h.798c.009.151.072.273.19.367s.258.141.42.141c.129 0 .243-.029.342-.085a.61.61 0 0 0 .234-.241.73.73 0 0 0 .085-.357c0-.137-.029-.257-.087-.361a.62.62 0 0 0-.237-.243c-.102-.058-.218-.088-.348-.089a.83.83 0 0 0-.333.07.61.61 0 0 0-.249.192l-.731-.131.184-2.052h2.379v.673h-1.701l-.1.975h.023c.068-.096.171-.176.309-.239a1.1 1.1 0 0 1 .464-.095c.234 0 .443.055.627.165s.329.262.435.454a1.32 1.32 0 0 1 .158.661c.001.262-.06.495-.183.699a1.29 1.29 0 0 1-.511.479 1.6 1.6 0 0 1-.76.173zm-3.51 0a1.87 1.87 0 0 1-.758-.146 1.29 1.29 0 0 1-.523-.407 1.02 1.02 0 0 1-.195-.6h.828a.43.43 0 0 0 .093.251.57.57 0 0 0 .232.165.86.86 0 0 0 .325.059.79.79 0 0 0 .332-.067c.096-.045.172-.106.227-.184a.47.47 0 0 0 .081-.272c0-.104-.029-.196-.087-.276s-.139-.144-.247-.19a.96.96 0 0 0-.38-.068h-.363v-.604h.363a.79.79 0 0 0 .329-.065.53.53 0 0 0 .224-.179c.053-.077.08-.167.08-.27a.46.46 0 0 0-.265-.431c-.082-.042-.178-.063-.288-.063a.75.75 0 0 0-.306.061c-.093.039-.167.096-.223.169a.45.45 0 0 0-.089.258h-.789c.004-.224.068-.422.192-.593s.292-.305.502-.401a1.71 1.71 0 0 1 .716-.146c.266 0 .504.049.705.146a1.16 1.16 0 0 1 .47.395.95.95 0 0 1 .167.555.76.76 0 0 1-.203.545.93.93 0 0 1-.531.277v.03c.287.037.505.136.654.298s.226.362.224.604a.94.94 0 0 1-.192.591 1.28 1.28 0 0 1-.53.407c-.226.099-.484.148-.775.148z" class="B"/><g stroke-width=".076" stroke-miterlimit="10"><path d="M142.759 23.85h-.049c.09-.37.045-.76-.127-1.099a1.6 1.6 0 0 0-1.916-.802 1.6 1.6 0 0 0-.872.681 1.07 1.07 0 0 0-.535-.149c-.188-.002-.373.046-.537.139s-.3.227-.395.39a1.07 1.07 0 0 0-.146.535c.001.058.006.116.016.174-.279.055-.527.211-.697.438s-.249.51-.223.792a1.15 1.15 0 0 0 .367.737c.209.192.482.299.766.3a.64.64 0 0 0 .076 0h4.272c.283 0 .555-.112.755-.313a1.07 1.07 0 0 0 0-1.51 1.07 1.07 0 0 0-.755-.313z" fill="url(#B)" stroke="#e6effc"/><path d="M140.242 24.536l-.61 1.831h.61l-.305 1.525 1.525-2.136h-.915l.61-1.22h-.915z" fill="url(#C)" stroke="#f6a823"/></g><rect x="8" y="49.4" width="20.8" height="2.6" rx="1.3" class="B"/><rect x="8" y="53.3" width="20.8" height="1.3" rx=".65" fill="#8796a1" fill-opacity=".8"/><g fill="#abb6bd"><rect x="34" y="49.4" width="15.6" height="2.6" rx="1.3"/><rect x="54.8" y="49.4" width="14.3" height="2.6" rx="1.3"/><rect x="74.3" y="49.4" width="20.8" height="2.6" rx="1.3"/></g><g class="B"><rect x="10.6" y="57.2" width="10.4" height="1.95" rx=".975"/><use href="#D"/><rect x="8" y="68.25" width="15.6" height="1.95" rx=".975"/><rect x="38.68" y="57.2" width="10.4" height="1.95" rx=".975"/><use href="#D" x="28.08"/><rect x="36.08" y="68.25" width="15.6" height="1.95" rx=".975"/><rect x="66.76" y="57.2" width="10.4" height="1.95" rx=".975"/><use href="#E"/><rect x="64.16" y="68.25" width="15.6" height="1.95" rx=".975"/><rect x="94.84" y="57.2" width="10.4" height="1.95" rx=".975"/><use href="#E" x="28.08"/><rect x="92.24" y="68.25" width="15.6" height="1.95" rx=".975"/><rect x="122.92" y="57.2" width="10.4" height="1.95" rx=".975"/><use href="#E" x="56.16"/><rect x="120.32" y="68.25" width="15.6" height="1.95" rx=".975"/><rect x="151" y="57.2" width="10.4" height="1.95" rx=".975"/><use href="#E" x="84.24"/><rect x="148.4" y="68.25" width="15.6" height="1.95" rx=".975"/></g><rect x="8.488" y="76.688" width="25.025" height="21.025" rx="1.463" class="C"/><rect x="8.488" y="76.688" width="25.025" height="21.025" rx="1.463" class="D F"/><g class="B"><use href="#F"/><use href="#G"/><use href="#H"/><use href="#I"/><use href="#J"/><use href="#K"/><use href="#L"/><use href="#M"/><use href="#N"/><rect x="14.5" y="88.311" width="13" height="1.95" rx=".975"/><rect x="17.1" y="91.939" width="7.8" height="1.95" rx=".975"/></g><rect x="40.988" y="76.688" width="25.025" height="21.025" rx="1.463" class="C"/><rect x="40.988" y="76.688" width="25.025" height="21.025" rx="1.463" class="D F"/><g class="B"><path d="M56.75 84.538a1.39 1.39 0 0 1-1.388 1.389h-3.561a1.59 1.59 0 0 1-1.552-1.591 1.59 1.59 0 0 1 1.552-1.591h.044c.074-.296.235-.563.463-.765s.512-.332.814-.37.61.015.881.154.495.357.64.625c.075-.018.153-.026.23-.027a1.01 1.01 0 0 1 .997.89 1.39 1.39 0 0 1 .878 1.287h0z"/><rect x="47" y="87.226" width="13" height="1.95" rx=".975"/><rect x="49.6" y="90.854" width="7.8" height="1.95" rx=".975"/></g><rect x="73.488" y="76.688" width="25.025" height="21.025" rx="1.463" class="C"/><rect x="73.488" y="76.688" width="25.025" height="21.025" rx="1.463" class="D F"/><g class="B"><use href="#F" x="65"/><use href="#G" x="65"/><use href="#H" x="65"/><use href="#I" x="65"/><use href="#J" x="65"/><use href="#K" x="65"/><use href="#L" x="65"/><use href="#M" x="65"/><use href="#N" x="65"/><rect x="79.5" y="88.311" width="13" height="1.95" rx=".975"/><rect x="82.1" y="91.939" width="7.8" height="1.95" rx=".975"/></g><rect x="105.988" y="76.688" width="25.025" height="21.025" rx="1.463" class="C"/><rect x="105.988" y="76.688" width="25.025" height="21.025" rx="1.463" class="D F"/><g class="B"><path d="M121.75 84.538a1.39 1.39 0 0 1-1.388 1.389h-3.56a1.59 1.59 0 0 1-1.552-1.591 1.59 1.59 0 0 1 1.552-1.591h.044a1.51 1.51 0 0 1 .463-.765c.228-.203.512-.332.814-.37s.61.015.882.154a1.52 1.52 0 0 1 .64.625c.076-.018.153-.026.23-.027a1.01 1.01 0 0 1 .667.256c.184.164.301.389.33.634a1.39 1.39 0 0 1 .636.509c.157.229.241.5.242.778h0z"/><rect x="112" y="87.226" width="13" height="1.95" rx=".975"/><rect x="114.6" y="90.854" width="7.8" height="1.95" rx=".975"/></g><rect x="138.488" y="76.688" width="25.025" height="21.025" rx="1.463" class="C"/><rect x="138.488" y="76.688" width="25.025" height="21.025" rx="1.463" class="D F"/><g class="B"><path d="M152.701 84.463c.39-.942-.058-2.021-.999-2.411s-2.021.057-2.411.999.057 2.021.998 2.411 2.022-.057 2.412-.999zm-1.687-2.979c.163 0 .3-.136.3-.3v-.373c0-.164-.137-.3-.3-.3s-.3.127-.3.3v.373c0 .164.136.3.3.3zm-2.037.654c.118.118.309.118.428 0a.3.3 0 0 0 0-.427l-.264-.264a.302.302 0 1 0-.427.427l.263.264zm-.254 1.6c0-.164-.137-.3-.3-.3h-.373c-.164 0-.3.136-.3.3s.136.3.3.3h.373c.163.009.3-.127.3-.3zm.227 1.619l-.264.264c-.118.118-.118.309 0 .427s.309.118.428 0l.263-.264c.118-.118.118-.309 0-.427a.3.3 0 0 0-.427 0z"/><path d="M150.977 86.038c-.163 0-.3.136-.3.3v.373c0 .164.137.3.3.3s.3-.136.3-.3v-.373c.009-.164-.127-.3-.3-.3zm2.046-.654c-.118-.118-.309-.118-.428 0a.3.3 0 0 0 0 .427l.264.264c.118.118.309.118.427 0a.3.3 0 0 0 0-.427l-.263-.264zm.927-1.909h-.373c-.163 0-.3.136-.3.3s.137.3.3.3h.373c.164 0 .3-.136.3-.3s-.136-.3-.3-.3zm-.9-1.309l.264-.264c.118-.118.118-.309 0-.427s-.309-.118-.428 0l-.263.264c-.118.118-.118.309 0 .427a.3.3 0 0 0 .427 0z"/><rect x="144.5" y="88.311" width="13" height="1.95" rx=".975"/><rect x="147.1" y="91.939" width="7.8" height="1.95" rx=".975"/></g><defs><linearGradient id="B" x1="139.107" y1="22.394" x2="141.645" y2="26.794" gradientUnits="userSpaceOnUse"><stop stop-color="#f3f7fe"/><stop offset=".45" stop-color="#f3f7fe"/><stop offset="1" stop-color="#deeafb"/></linearGradient><linearGradient id="C" x1="139.744" y1="24.823" x2="141.12" y2="27.209" gradientUnits="userSpaceOnUse"><stop stop-color="#f7b23b"/><stop offset=".45" stop-color="#f7b23b"/><stop offset="1" stop-color="#f59e0b"/></linearGradient><path id="D" d="M18.4 63.7a2.6 2.6 0 0 1-5.2 0 2.6 2.6 0 0 1 5.2 0z"/><path id="E" d="M74.56 63.7a2.6 2.6 0 1 1-5.2 0 2.6 2.6 0 1 1 5.2 0z"/><path id="F" d="M22.701 84.463c.39-.942-.057-2.021-.999-2.411s-2.021.057-2.411.999.057 2.021.999 2.411 2.021-.057 2.411-.999z"/><path id="G" d="M21.014 81.484c.164 0 .3-.136.3-.3v-.373c0-.164-.136-.3-.3-.3s-.3.127-.3.3v.373c0 .164.136.3.3.3z"/><path id="H" d="M18.977 82.138c.118.118.309.118.427 0s.118-.309 0-.427l-.264-.264c-.118-.118-.309-.118-.427 0s-.118.309 0 .427l.264.264z"/><path id="I" d="M18.723 83.738c0-.164-.136-.3-.3-.3h-.373c-.164 0-.3.136-.3.3s.136.3.3.3h.373c.164.009.3-.127.3-.3z"/><path id="J" d="M18.95 85.357l-.264.264c-.118.118-.118.309 0 .427s.309.118.427 0l.264-.264c.118-.118.118-.309 0-.427s-.309-.118-.427 0z"/><path id="K" d="M20.977 86.038c-.164 0-.3.136-.3.3v.373c0 .164.136.3.3.3s.3-.136.3-.3v-.373c.009-.164-.127-.3-.3-.3z"/><path id="L" d="M23.023 85.384c-.118-.118-.309-.118-.427 0s-.118.309 0 .427l.264.264c.118.118.309.118.427 0s.118-.309 0-.427l-.264-.264z"/><path id="M" d="M23.95 83.475h-.373c-.164 0-.3.136-.3.3s.136.3.3.3h.373c.164 0 .3-.136.3-.3s-.136-.3-.3-.3z"/><path id="N" d="M23.05 82.166l.264-.264c.118-.118.118-.309 0-.427s-.309-.118-.427 0l-.264.264c-.118.118-.118.309 0 .427s.309.118.427 0z"/></defs></svg>