<svg xmlns="http://www.w3.org/2000/svg" width="172" height="104" fill="none" xmlns:v="https://vecta.io/nano"><style><![CDATA[.B{fill:#fff}.C{fill:#58707f}.D{stroke:#58707f}.E{fill-rule:evenodd}]]></style><rect x=".6" y=".6" width="170.8" height="102.8" rx="2.4" class="B"/><rect x=".6" y=".6" width="170.8" height="102.8" rx="2.4" stroke="#8796a1" stroke-width="1.2"/><rect x="12.5" y="7.5" width="105" height="27" rx="1.5" class="B"/><rect x="12.5" y="7.5" width="105" height="27" rx="1.5" class="D"/><rect x="16" y="11.05" width="20.8" height="2.6" rx="1.3" class="C"/><rect x="16" y="14.95" width="20.8" height="1.3" rx=".65" fill="#8796a1" fill-opacity=".8"/><g fill="#abb6bd"><rect x="42" y="11.05" width="15.6" height="2.6" rx="1.3"/><rect x="62.8" y="11.05" width="14.3" height="2.6" rx="1.3"/><rect x="82.3" y="11.05" width="20.8" height="2.6" rx="1.3"/></g><g class="C"><rect x="18.6" y="18.85" width="10.4" height="1.95" rx=".975"/><path d="M26.4 24.9a2.6 2.6 0 0 1-5.2 0 2.6 2.6 0 0 1 5.2 0z"/><rect x="16" y="29" width="15.6" height="1.95" rx=".975"/><rect x="39.2" y="18.85" width="10.4" height="1.95" rx=".975"/><use href="#D"/><rect x="36.6" y="29" width="15.6" height="1.95" rx=".975"/><rect x="59.8" y="18.85" width="10.4" height="1.95" rx=".975"/><path d="M67.6 24.9a2.6 2.6 0 1 1-5.2 0 2.6 2.6 0 0 1 5.2 0z"/><rect x="57.2" y="29" width="15.6" height="1.95" rx=".975"/><rect x="80.4" y="18.85" width="10.4" height="1.95" rx=".975"/><use href="#D" x="41.2"/><rect x="77.8" y="29" width="15.6" height="1.95" rx=".975"/><rect x="101" y="18.85" width="10.4" height="1.95" rx=".975"/><use href="#D" x="61.8"/><rect x="98.4" y="29" width="15.6" height="1.95" rx=".975"/></g><rect x="12.5" y="38.5" width="60" height="58" rx="1.5" class="B"/><rect x="12.5" y="38.5" width="60" height="58" rx="1.5" class="D"/><g class="C"><rect x="16" y="43.041" width="16" height="2.5" rx="1.25"/><rect x="51.791" y="43" width="17.209" height="2.581" rx="1.291"/><rect x="16" y="51.14" width="10.326" height="1.721" rx=".86"/><use href="#E"/><rect x="53.512" y="51.14" width="6.884" height="1.721" rx=".86"/><rect x="62.116" y="51.14" width="6.884" height="1.721" rx=".86"/><rect x="16" y="58.64" width="13.767" height="1.721" rx=".86"/><use href="#E" y="7.5"/><rect x="53.512" y="58.64" width="6.884" height="1.721" rx=".86"/><rect x="62.116" y="58.64" width="6.884" height="1.721" rx=".86"/><rect x="16" y="66.14" width="12.047" height="1.721" rx=".86"/><use href="#E" y="15"/><rect x="53.512" y="66.14" width="6.884" height="1.721" rx=".86"/><rect x="62.116" y="66.14" width="6.884" height="1.721" rx=".86"/><rect x="16" y="73.64" width="12.047" height="1.721" rx=".86"/><use href="#E" y="22.5"/><rect x="53.512" y="73.64" width="6.884" height="1.721" rx=".86"/><rect x="62.116" y="73.64" width="6.884" height="1.721" rx=".86"/><rect x="16" y="81.14" width="12.047" height="1.721" rx=".86"/><use href="#E" y="30"/><rect x="53.512" y="81.14" width="6.884" height="1.721" rx=".86"/><rect x="62.116" y="81.14" width="6.884" height="1.721" rx=".86"/><rect x="16" y="88.64" width="12.047" height="1.721" rx=".86"/><use href="#E" y="37.5"/><rect x="53.512" y="88.64" width="6.884" height="1.721" rx=".86"/><rect x="62.116" y="88.64" width="6.884" height="1.721" rx=".86"/></g><rect x="76.5" y="79.5" width="18" height="17" rx="1.45" class="B"/><rect x="76.5" y="79.5" width="18" height="17" rx="1.45" class="D"/><g class="C"><use href="#F"/><use href="#G"/><use href="#H"/><use href="#I"/><use href="#J"/><use href="#K"/><use href="#L"/><use href="#M"/><use href="#N"/><rect x="79" y="88.45" width="13" height="1.95" rx=".975"/><rect x="81.6" y="91.9" width="7.8" height="1.95" rx=".975"/></g><rect x="98.167" y="79.5" width="18" height="17" rx="1.45" class="B"/><rect x="98.167" y="79.5" width="18" height="17" rx="1.45" class="D"/><g class="C"><use href="#F" x="21.667"/><use href="#G" x="21.666"/><use href="#O"/><use href="#P"/><use href="#Q"/><use href="#K" x="21.666"/><use href="#R"/><use href="#M" x="21.667"/><use href="#S"/><rect x="100.667" y="88.45" width="13" height="1.95" rx=".975"/><rect x="103.267" y="91.9" width="7.8" height="1.95" rx=".975"/></g><rect x="119.833" y="79.5" width="18" height="17" rx="1.45" class="B"/><rect x="119.833" y="79.5" width="18" height="17" rx="1.45" class="D"/><g class="C"><use href="#T"/><use href="#G" x="43.333"/><use href="#U"/><use href="#I" x="43.334"/><use href="#V"/><use href="#K" x="43.333"/><use href="#W"/><use href="#X"/><use href="#Y"/><rect x="122.333" y="88.45" width="13" height="1.95" rx=".975"/><rect x="124.933" y="91.9" width="7.8" height="1.95" rx=".975"/></g><rect x="141.5" y="79.5" width="18" height="17" rx="1.45" class="B"/><rect x="141.5" y="79.5" width="18" height="17" rx="1.45" class="D"/><g class="C"><use href="#F" x="65"/><use href="#Z"/><use href="#H" x="65"/><use href="#a"/><use href="#J" x="65"/><use href="#b"/><use href="#L" x="65"/><use href="#c"/><use href="#N" x="65"/><rect x="144" y="88.45" width="13" height="1.95" rx=".975"/><rect x="146.6" y="91.9" width="7.8" height="1.95" rx=".975"/></g><rect x="76.5" y="59" width="18" height="17" rx="1.45" class="B"/><rect x="76.5" y="59" width="18" height="17" rx="1.45" class="D"/><g class="C"><use href="#F" y="-20.5"/><use href="#G" y="-20.5"/><use href="#H" y="-20.5"/><use href="#I" y="-20.501"/><use href="#J" y="-20.5"/><use href="#K" y="-20.5"/><use href="#L" y="-20.5"/><use href="#M" y="-20.5"/><use href="#N" y="-20.5"/><rect x="79" y="67.95" width="13" height="1.95" rx=".975"/><rect x="81.6" y="71.4" width="7.8" height="1.95" rx=".975"/></g><rect x="98.167" y="59" width="18" height="17" rx="1.45" class="B"/><rect x="98.167" y="59" width="18" height="17" rx="1.45" class="D"/><g class="C"><use href="#F" x="21.667" y="-20.5"/><use href="#G" x="21.666" y="-20.5"/><use href="#O" y="-20.5"/><use href="#P" y="-20.501"/><use href="#Q" y="-20.5"/><use href="#K" x="21.666" y="-20.5"/><use href="#R" y="-20.5"/><use href="#M" x="21.667" y="-20.5"/><use href="#S" y="-20.5"/><rect x="100.667" y="67.95" width="13" height="1.95" rx=".975"/><rect x="103.267" y="71.4" width="7.8" height="1.95" rx=".975"/></g><rect x="119.833" y="59" width="18" height="17" rx="1.45" class="B"/><rect x="119.833" y="59" width="18" height="17" rx="1.45" class="D"/><g class="C"><use href="#T" y="-20.5"/><use href="#G" x="43.333" y="-20.5"/><use href="#U" y="-20.5"/><use href="#I" x="43.334" y="-20.501"/><use href="#V" y="-20.5"/><use href="#K" x="43.333" y="-20.5"/><use href="#W" y="-20.5"/><use href="#X" y="-20.5"/><use href="#Y" y="-20.5"/><rect x="122.333" y="67.95" width="13" height="1.95" rx=".975"/><rect x="124.933" y="71.4" width="7.8" height="1.95" rx=".975"/></g><rect x="141.5" y="59" width="18" height="17" rx="1.45" class="B"/><rect x="141.5" y="59" width="18" height="17" rx="1.45" class="D"/><g class="C"><use href="#F" x="65" y="-20.5"/><use href="#Z" y="-20.5"/><use href="#H" x="65" y="-20.5"/><use href="#a" y="-20.501"/><use href="#J" x="65" y="-20.5"/><use href="#b" y="-20.5"/><use href="#L" x="65" y="-20.5"/><use href="#c" y="-20.5"/><use href="#N" x="65" y="-20.5"/><rect x="144" y="67.95" width="13" height="1.95" rx=".975"/><rect x="146.6" y="71.4" width="7.8" height="1.95" rx=".975"/></g><rect x="76.5" y="38.5" width="18" height="17" rx="1.45" class="B"/><rect x="76.5" y="38.5" width="18" height="17" rx="1.45" class="D"/><g class="C"><use href="#F" y="-41"/><use href="#G" y="-41"/><use href="#H" y="-41"/><use href="#I" y="-41"/><use href="#J" y="-41"/><use href="#K" y="-41"/><use href="#L" y="-41"/><use href="#M" y="-41"/><use href="#N" y="-41"/><rect x="79" y="47.45" width="13" height="1.95" rx=".975"/><rect x="81.6" y="50.9" width="7.8" height="1.95" rx=".975"/></g><rect x="99.5" y="38.5" width="18" height="17" rx="1.45" class="B"/><rect x="99.5" y="38.5" width="18" height="17" rx="1.45" class="D"/><g class="C"><use href="#F" x="23" y="-41"/><use href="#Z" x="-42" y="-41"/><use href="#H" x="23" y="-41"/><use href="#a" x="-42" y="-41"/><use href="#J" x="23" y="-41"/><use href="#b" x="-42" y="-41"/><use href="#L" x="23" y="-41"/><use href="#c" x="-42" y="-41"/><use href="#N" x="23" y="-41"/><rect x="102" y="47.45" width="13" height="1.95" rx=".975"/><rect x="104.6" y="50.9" width="7.8" height="1.95" rx=".975"/></g><rect x="120.5" y="7.5" width="39" height="48" rx="2.367" class="D"/><g class="C"><g class="E"><path d="M144.736 10.928h0zm-8.173 25.016c-.399 0-.698.1-.997.299a1.2 1.2 0 0 0-.498.498v.199h.099c.2 0 .399-.1.499-.199.299-.1.498-.1.797 0 .199.1.399.1.498.199.299.1.598.199.798.399.099.1.199.199.299.399 0 .199.099.199.299.199s.398 0 .598.1h.398c.1 0 .2 0 .299-.1s.1-.299 0-.399-.299-.199-.398-.199c-.299-.199-.598-.299-.897-.598-.499-.399-1.097-.598-1.695-.797.1 0 0 0-.099 0zm.897-25.216h.099c.299 0 .598 0 .897-.1.2-.1.399-.199.698-.1-.1.1-.299.199-.399.199s-.099.1-.199.1v.1c.1 0 .1.1.199.1a7.55 7.55 0 0 0 2.99 0c.2 0 .299-.1.399-.299 0-.1 0-.199-.1-.199h-.299c-.199-.199-.299-.199-.498-.1-.1.1-.199.1-.199.199-.1.1-.299.1-.399 0-.299-.199-.698-.199-.897-.498 0 0-.1-.1-.199-.1h-.399c-.598 0-1.196.199-1.794.299h-.1c.1.299.1.299.2.399-.1 0-.1 0 0 0zm8.771-.398h-.2a.45.45 0 0 0-.498 0c-.1 0-.1.1-.1.1s0 .1.1.1c.1.1.1.1.199.1.2 0 .399 0 .499-.1h.099s-.099-.1-.099-.199z"/><path d="M146.33 10.629h0c.1 0 0-.1 0 0zm-6.678 28.106c.399.1.798.199 1.296.1.399-.1.698-.199 1.096-.199.1 0 .1 0 .2-.1v-.199c-.299-.299-.698-.299-1.097-.498-.299.1-.598 0-.897 0-.099 0-.199.1-.099.199 0 .1.099.199.199.399-.199 0-.399.1-.598.1-.1 0-.1 0-.1.1-.199 0-.099.1 0 .1zm5.183-27.907c.1-.1.1-.1.1-.199s-.1-.1-.199-.1c-.399-.1-.897 0-1.196.299-.1-.199-.299-.299-.598-.299-.1 0-.1 0-.2.1 0 .1 0 .199.1.199.1.1.299.1.498.1h.2c.199.299.498.199.897.1.099 0 .199-.199.398-.199zm-.498-.997c.199.199.498.199.698.299.199 0 .299 0 .398-.1s.1-.299 0-.299c-.199-.1-.498-.199-.697-.199-.1 0-.2 0-.299.1-.2-.1-.2.1-.1.199z"/><path d="M146.33 10.23c.1 0 .299 0 .399-.1 0 0 .1 0 .1-.1 0 0 0-.1-.1-.1-.199-.1-.399-.1-.598-.199-.1 0-.199 0-.199.1-.1.1 0 .199.099.199 0 .1.1.199.299.199zm-4.983 0c.099.1.199.1.299.1.199 0 .299 0 .498-.199.1 0 0-.1 0-.199-.299-.1-.598-.1-.897.1 0 .1 0 .1.1.199zm1.495 28.306c-.1 0-.1.1-.1.199s.1.199.2.199h.099c.2 0 .399-.1.399-.199s-.199-.199-.399-.199c-.099-.1-.199-.1-.199 0zm-4.386-2.891c.1-.199 0-.399-.199-.498h-.1l-.099.1c-.1.199-.1.399.099.498.299 0 .299-.1.299-.1zm.598-.598c0-.1 0-.1-.099-.1 0 0-.1 0-.1.1 0 0 .1.1.199 0zm5.281-22.776l-.098.052s-.099.1-.099.199c.099 0 .099.1.099.199v.498c0 .199 0 .299.2.299.398 0 .398.1.398.598v.1c.399-.199.698-.399.897-.797-.062-.125-.164-.172-.256-.214-.054-.025-.105-.048-.142-.085-.2-.1-.299-.299-.2-.498 0-.1.1-.199.2-.299s.299-.299.498-.399v-.1c-.05 0-.075.025-.1.05s-.05.05-.099.05c-.299.199-.598.299-.897.299-.165-.082-.261-.029-.401.048zm-7.878 1.53c-.106-.023-.249-.055-.393.017 0 .095 0 .145.022.182s.074.065.178.117c.199-.1.398-.1.598-.1-.05-.05-.1-.075-.15-.1a.52.52 0 0 1-.149-.1c-.028 0-.064-.008-.106-.017z"/></g><path d="M155.4 9.336c-.004.097-.199.097-.199.097-.157.039-.33.063-.506.084l-.491.116c-.1.199-.299.199-.498.199-.15 0-.324.025-.499.05l-.072.01c.073.179.082.359.172.538 0 .1.1.1.199.1.2.1.499.199.698.1.498-.1.997 0 1.395.1.598.1.897.598.798 1.196 0 .1-.1.199-.1.299s0 .199.1.199c.199 0 .299.1.498.1.1 0 .199.1.1.199h-.1c-.399 0-.498.1-.199.498 0 0 0 .1.099.1.1.1 0 .199-.099.199s-.2 0-.299.1c-.499.1-.798.498-.798.997s.1.997.2 1.495c0 .199.199.498.299.698s.199.299.498.299c.299-.1.498 0 .598.199l.199.199c.1.1.299.1.399 0 .299-.299.698-.498.797-.997 0-.1.1-.199.2-.199.299-.1.498-.399.598-.698.099-.1.199-.199.199-.299L159.5 8.47l-2.211.241c.003.007.005.015.005.024 0 .199-.2.199-.299.199l-1.396.349-.199.052z"/><path d="M156.496 8.934c.1-.1.2-.1.299-.1l.494-.124c-.03-.075-.204-.075-.294-.075a1.23 1.23 0 0 1-.193-.02c-.143-.023-.301-.048-.505.02-.299 0-.698 0-.997.1h-1.495c-.697-.199-1.395-.1-2.093 0l-1.794.299c-.099 0-.299 0-.398.1.07.213.293.274.487.328.079.022.153.042.21.071-.039.079-.047.142-.055.202a.43.43 0 0 1-.144.297c-.299.199-.698.299-1.196.199.199-.1.399-.1.598-.1.1 0 .199 0 .299-.1s.1-.199 0-.299a2.98 2.98 0 0 0-.797-.399.45.45 0 0 0-.499 0l-.182.058c-.267.083-.573.179-.814.34-.299.1-.299.299-.1.498.159-.239.319-.223.478-.207l.12.008c.1 0 .299 0 .399-.1.07 0 .128-.013.183-.024.099-.021.186-.04.315.024-.133.133-.266.177-.399.222l-.199.078c-.072.036-.156.059-.244.083-.157.043-.326.089-.454.216-.05.05-.05.1-.05.137s0 .062-.049.062-.075-.025-.1-.05-.05-.05-.1-.05c-.199-.199-.398-.199-.598-.1-.099 0-.099 0-.199.1-.1.199-.199.299-.299.399s-.1.199.1.199c.199.1.398.1.697.1.499 0 .997 0 1.396.199v.1h-.598c-.499-.1-.997 0-1.396.1h-.199c-.061-.121-.158-.132-.27-.144-.072-.008-.15-.016-.228-.055 0-.1 0-.1.099-.199.1-.199 0-.299-.199-.299s-.399 0-.598.1h-.1c0 .1 0 .299.1.399-.1 0-.199 0-.299.1l-.194.12c-.231.137-.448.266-.603.578 0 .05-.025.075-.05.1s-.05.05-.05.1c0 0-.1.1-.1 0-.099 0-.099-.1 0-.199 0-.237.063-.348.138-.483l.062-.115c.099-.199 0-.299-.2-.299h-.797c-.199 0-.399.1-.399.299-.099.199-.199.199-.299.199h-.199c-.1.1-.2.299 0 .399.199.199.498.299.897.299v.1c-.199.199-.299.399-.1.698v.1c-.062.125-.164.172-.256.214-.054.025-.105.048-.142.085-.039 0-.077.014-.109.027-.053.02-.091.035-.091-.027.1 0 .299 0 .299-.199 0-.133-.088-.177-.177-.222-.044-.022-.089-.044-.122-.077-.033 0-.066-.011-.1-.022-.066-.022-.132-.044-.199.022-.071.036-.156.059-.244.083-.157.043-.326.089-.454.216-.099 0-.099.1-.099.199.099.1 0 .199-.1.199-.299 0-.598 0-.897.1-.199 0-.399 0-.598-.1.127-.063.254-.046.407-.025.087.012.182.025.291.025.199 0 .299 0 .398-.1s.299-.199.499-.299.299-.299.099-.498c0 0-.099-.1-.199-.1-.057-.057-.082-.082-.092-.111-.008-.022-.008-.046-.008-.088 0-.299 0-.498.1-.598 0-.033.011-.066.022-.1.022-.066.045-.133-.022-.199-.399-.399-.498-.399-1.096.1-.083 0-.149-.035-.212-.068-.088-.046-.17-.09-.287-.032-.136.068-.319.043-.484.021l-.213-.021c-.2 0-.299-.1-.399-.199-.1-.199-.299-.299-.498-.299-.299 0-.499 0-.798-.1h-.199c-.129-.064-.216-.046-.315-.024a.83.83 0 0 1-.183.024c-.798.1-1.495.498-2.193.897-.199.1-.199.399 0 .498.199.199.498.199.797.1s.598-.199.997-.199c0 .038.004.081.008.124.016.183.034.393-.207.474-.1 0-.1.1-.1.199 0 .199-.1.199-.299.199s-.299 0-.498-.1c-.2-.199-.499-.199-.798-.199h-.498-.399c-.199.1-.299.1-.398-.1s-.2-.199-.399-.1c-.199-.1-.399-.1-.598-.1s-.399 0-.698.1c-.099 0-.199.025-.299.05s-.199.05-.299.05a4.98 4.98 0 0 1-.598.1l-.598.1c-.066.067-.132.044-.199.022-.033-.011-.066-.022-.1-.022-.17-.085-.341-.116-.512-.146-.228-.041-.456-.081-.684-.252h-.299-.996l-1.794-.299c-.09 0-.179-.02-.278-.042-.121-.027-.255-.057-.42-.057h-.399c-.299.1-.498.1-.797.1-.797 0-1.595.199-2.392.498h-.1l.1 4.286c.199-.199.399-.199.698-.1.099.1.299.199.398.199.263 0 .499.056.721.108.199.047.387.091.575.091.199.1.299.299.399.498.038.038.061.076.081.109.033.053.056.091.118.091.1 0 .199 0 .199.1v.199.299c.1.1.1.299.1.399 0 .05.006.1.012.149.019.15.038.299-.112.449-.099.199-.099.399-.099.598 0 .299 0 .498-.1.797-.1.1-.1.199-.1.299 0 .199 0 .299-.199.299-.1 0-.1.1-.1.299s.1.399.299.598c.2.1.2.299.1.498-.1.399-.299.698-.498.997a7.05 7.05 0 0 1-.499.698l-.498.698c-.04.081-.097.145-.157.213a1.06 1.06 0 0 0-.242.385l-.299.598c-.021.043-.048.087-.075.131-.097.16-.202.333-.124.567-.066.133-.044.266-.022.399.011.066.022.133.022.199 0 .05.025.125.05.199s.05.149.05.199c0 .399 0 .797.099 1.196 0 .299.1.399.399.498a.87.87 0 0 1 .698.897c0 .149.025.324.05.498l.049.498c0 .299.1.498.299.797.2.199.2.199-.099.498-.2.199-.2.299-.1.498s.199.299.399.399c.099 0 .199.1.199.1.1 0 .199.1.1.199-.1.399.099.698.498.897.05.05.1.125.15.199s.099.15.149.199c.1.1.1.1.199 0s.1-.1.1-.199c0-.199 0-.299-.1-.498-.199-.299-.299-.598-.398-.997l-.145-.49c-.128-.463-.26-.938-.553-1.304-.1-.1-.1-.299-.1-.498l.041-.086c.064-.14.09-.197.258-.113.1 0 .2.1.2.199v.299c0 .399.099.797.299 1.096l.141.264c.175.315.357.643.357 1.032 0 .1.1.199.199.299.299.199.499.498.698.897 0 .05.025.075.05.1s.05.05.05.1c.061.062.085.123.117.208l.082.19c.1.199.1.399 0 .598 0 .05-.025.075-.05.1s-.05.05-.05.1c-.099.399 0 .698.399.997.107.072.215.156.327.244.2.157.414.326.67.454.05 0 .074.025.099.05s.05.05.1.05c.152.152.363.246.543.327l.155.072c.099.1.099.1.199.1 0 0 .1.1.199.1.05 0 .1.025.15.05s.1.05.149.05c0 .1.1.1.2.1.299.199.697.199 1.096.1.299-.1.598 0 .797.199.05.1.125.174.2.249s.149.149.199.249c.1.1.199.199.399.299a.9.9 0 0 1 .697.299c.1.1.299.1.399.1.399 0 .698.199.797.498.034.033.056.078.078.122.044.089.089.177.221.177.2.1.2.199.1.299-.1.199 0 .399.199.498.299.1.499.299.698.598.05.05.125.1.199.15s.15.1.2.149c.199 0 .398.1.598.299.299.199.598.1.598-.199a.26.26 0 0 1 .299-.299c.099 0 .398.1.398.299 0 .112.063.224.136.353a1.9 1.9 0 0 1 .163.344c.2.698.2 1.395-.398 1.993-.1.1-.2.299-.299.498 0 .1-.1.199-.2.199-.299.1-.398.299-.398.598 0 .1-.1.199-.2.299-.199.299-.199.698 0 .997.177.265.119.373.035.533l-.035.066c.399-.1.399 0 .299.1-.099.199-.099.299-.099.498.099.199.099.299.099.498 0 .1.1.199.2.299.398.199.598.598.797.997l.072.155c.08.18.175.39.327.542l.548 1.046.548 1.047 16.744.498c-.099-.399 0-.797.2-1.096l.548-.748.548-.747c.498-.598.598-1.395.299-2.193.1-.199 0-.399-.299-.498-.399-.1-.698-.299-.997-.598-.199-.199-.398-.399-.697-.498-.1-.1-.299-.1-.399 0-.299 0-.598 0-.897-.1-.199-.1-.399-.199-.698-.199-.099 0-.099 0-.199-.1-.133-.266-.354-.354-.576-.443a1.72 1.72 0 0 1-.321-.155c-.1-.05-.199-.075-.299-.1s-.199-.05-.299-.1c-.1 0-.175-.075-.249-.15s-.15-.15-.249-.15c-.299 0-.399-.199-.399-.498 0-.199 0-.299-.1-.399-.099-.199-.199-.498-.299-.797-.075-.379-.381-.642-.655-.878l-.242-.218-.362-.109c-.285-.093-.585-.19-.933-.19-.399 0-.698-.1-.997-.399-.1-.1-.199-.199-.299-.399s-.299-.399-.498-.498c-.499-.199-.499-.199-.499-.698v-.199c0-.199 0-.299-.299-.299h-.598c-.299 0-.598 0-.897.199-.099.1-.299.1-.398 0-.2-.1-.399-.199-.698-.199-.1 0-.2 0-.299-.1-.121-.121-.278-.205-.45-.297l-.348-.202c-.116-.058-.164-.083-.204-.073-.029.007-.053.031-.095.073.1.299 0 .299-.099.299v-.1c-.1-.199-.2-.299-.399-.299-.1 0-.199 0-.299.1-.16.24-.384.287-.673.348l-.224.05c-.399.1-.698.299-.797.698 0 .05-.025.1-.05.149s-.05.1-.05.15a1.29 1.29 0 0 0-.072.083c-.08.099-.174.216-.327.216-.099 0-.199-.1-.299-.199-.398-.199-.697-.199-1.096 0 0 0-.1 0-.1.1-.299.199-.498.1-.797-.1l-.199-.199c-.299-.199-.399-.498-.299-.797a16.97 16.97 0 0 0 .299-1.096c.099-.299.099-.498.099-.797 0-.042 0-.067-.007-.088-.011-.029-.035-.054-.092-.111-.399-.299-.897-.498-1.396-.299-.041 0-.082.017-.13.037-.069.028-.151.063-.268.063-.1 0-.2 0-.299-.1.099-.399.199-.797.398-1.096l.299-.598.071-.246a1.61 1.61 0 0 1 .228-.551c.1-.199 0-.299-.099-.399-.043 0-.067 0-.089-.008-.029-.01-.053-.035-.111-.092-.398 0-.897.1-1.295.199l-.299.299c-.05.1-.075.199-.1.299s-.05.199-.1.299c-.099.399-.199.399-.598.399h-.697c-.255.085-.365.025-.515-.056l-.083-.044c-.299-.199-.499-.498-.598-.797-.2-.797-.2-1.495.199-2.292l.045-.086c.103-.194.241-.453.154-.711 0-.299.1-.498.399-.698.399-.299.797-.498 1.196-.698l.111-.038c.241-.084.426-.148.686-.062.2.05.399.075.598.1l.598.1c.1 0 .299 0 .299-.199s.2-.299.399-.299c.09 0 .179-.02.278-.042.121-.027.255-.057.42-.057.199 0 .398 0 .498.199s.299.199.498.199c.2-.1.399.1.399.299v.299c0 .598.199 1.096.498 1.495.1.199.299.199.499 0 .299-.199.398-.399.299-.797 0-.498-.1-.997-.2-1.395-.086-.26-.022-.445.062-.686l.038-.111c.05-.05.075-.1.1-.149s.05-.1.099-.149c.189-.113.363-.255.539-.398.29-.235.585-.475.956-.599 0 0 .1 0 .1-.1.1-.199.399-.299.598-.299.1 0 .199-.1.299-.199 0-.05.025-.075.05-.1s.05-.05.05-.1c.299-.199.398-.498.398-.897a.76.76 0 0 1 .2-.498l.299-.299.598-.598c.038-.038.076-.062.108-.082.053-.032.091-.056.091-.118.399-.299.798-.498 1.196-.598.05 0 .125-.025.2-.05s.149-.05.199-.05c.1 0 .199-.1.199-.299 0-.399.299-.598.698-.797s.897-.399 1.395-.598c.038 0 .062-.015.082-.027.032-.02.056-.035.118.027-.1.1-.2.199-.2.399a.26.26 0 0 0 .299.299c.1 0 .299-.1.399-.199.199-.199.498-.299.797-.399l.897-.299c.1 0 .1-.1.1-.199s0-.1-.1-.199c-.099-.05-.199-.075-.299-.1s-.199-.05-.299-.1c-.299-.1-.398-.299-.398-.598 0-.1.099-.299.199-.399l.199-.199c.2-.199.1-.399-.099-.498-.1-.1-.299-.1-.499-.1-.099 0-.099 0-.199-.1.1-.1.299-.1.399-.1h1.495c.598 0 1.096-.1 1.495-.498.049 0 .074-.025.099-.05s.05-.05.1-.05c.1 0 .1 0 .199.1l-.199.199-.156.214c-.253.351-.528.735-.94.982-.1 0-.1.1-.1.199-.1.1 0 .199.1.199h.897c.299 0 .498 0 .797.199.199.1.399.199.598.1.152 0 .246-.116.327-.216l.072-.083c.099-.1 0-.199-.1-.299s-.1-.199 0-.299c.05-.05.075-.125.1-.199s.049-.149.099-.199c0-.199-.099-.299-.199-.299h-.399c-.199 0-.199-.1-.199-.299.1-.199.199-.399.199-.598 0-.05.025-.075.05-.1s.05-.05.05-.1c.199-.399.299-.797-.1-1.096 0 0-.099-.1-.099-.199s-.1-.199-.2-.299c-.099 0-.199-.1-.199-.1-.299-.1-.399-.299-.498-.598 0-.028.007-.064.017-.105.023-.106.054-.25-.017-.393l-.049-.201c-.086-.357-.183-.761-.35-1.095 0-.1-.199-.199-.299-.1a.15.15 0 0 0-.029.003c-.031.069-.085.089-.164.095l-.106.102c-.1.05-.199.125-.299.199s-.199.149-.299.199c-.05 0-.075.025-.1.05s-.05.05-.099.05c-.2.1-.299 0-.399-.1s-.1-.199-.1-.399c0-.05.025-.1.05-.149s.05-.1.05-.149a.32.32 0 0 0 .04-.179l-.04-.02c-.082 0-.163-.134-.19-.237-.183-.09-.327-.252-.461-.402l-.049-.055-.097-.004c-.15 0-.324-.025-.499-.05l-.498-.05c-.159 0-.255-.064-.236-.191-.024-.005-.045-.009-.063-.009-.299 0-.498 0-.598.199l-.102.147-.059.085c.009.116-.049.216-.15.252a.96.96 0 0 0-.088.413c0 .299-.099.399-.398.498-.05 0-.075.025-.1.05s-.05.05-.1.05c-.199.1-.299.299-.199.498.199.299.1.498-.1.698-.099.199-.299.299-.498.399-.15.05-.299.125-.449.199l-.448.199c-.199.1-.299.199-.299.399s-.1.498-.199.698-.2.399-.399.498c-.299.1-.399 0-.499-.199v-.299c.1-.199.2-.399.299-.498.062-.062.086-.123.118-.208l.082-.19c0-.1 0-.1-.1-.199-.199-.1-.399-.1-.498-.1a1.65 1.65 0 0 1-1.196-.498c-.299-.299-.698-.498-1.097-.399 0 0-.099 0-.099-.1s0-.199.099-.399v-.199c-.099-.1-.149-.149-.149-.199s.05-.1.149-.199c.039-.038.062-.076.082-.109.033-.053.056-.091.118-.091.299.498.598.299.897.1a2.46 2.46 0 0 1 .897-.399c.398 0 .697-.199.997-.399s.697-.399 1.096-.498c0 .087-.038.136-.073.181-.044.057-.083.106-.027.218l.299.299h.399c.05 0 .1-.025.149-.05s.1-.05.15-.05c.199-.1.399-.199.698-.1.099.1.199.1.398 0 .032 0 .062-.005.088-.015a1.73 1.73 0 0 1 .15-.252.38.38 0 0 0-.038-.132c-.1-.199-.299-.498-.499-.698 0-.1.1-.1.2-.1s.299 0 .498-.1a2.95 2.95 0 0 1 .262-.149c.24-.127.49-.259.635-.548 0-.1 0-.199.1-.199.199-.1.299-.299.299-.598h1.196c.049 0 .099.025.149.05s.1.05.15.05c.099.199.199.299.398.399l.1.1c.1.1.1.199 0 .299s-.199.199-.299.199c-.05.05-.125.1-.199.149s-.15.1-.2.149c-.199.299-.498.399-.797.299-.041 0-.1-.017-.168-.037-.097-.028-.214-.062-.33-.062-.237 0-.349.125-.484.276l-.114.123c-.021.04-.033.076-.037.108a1.5 1.5 0 0 1 .136.041c.075.025.15.05.2.05a1.2 1.2 0 0 1 .207.024c.121.021.227.04.291-.024.199-.1.299 0 .399.1l.097.104a.52.52 0 0 1 .501.395.25.25 0 0 0 .009.062.71.71 0 0 0 .09.037c.064.064.129.128.14.219l.129.067c.321.167.601.312 1.027.312l.106-.002c.055-.047.109-.084.164-.095.019-.044.029-.108.029-.202v-.199h.199c.299 0 .499-.1.698-.399.1-.299.1-.498-.1-.797-.099-.1-.199-.199-.299-.199.2-.199.299-.199.399 0l.199.199c.299.399.399.399.698.199.1-.05.174-.125.249-.199s.15-.149.249-.199l.197-.048c.236-.056.302-.071.302-.152 0-.299-.1-.498-.299-.598-.1-.1-.225-.149-.349-.199s-.249-.1-.349-.199l.078-.143c.068-.117.121-.21.121-.356 0-.199-.199-.399-.299-.498s-.199-.199-.398-.199c-.399-.1-.698-.199-.997-.399v-.1c-.1-.399-.1-.399-.498-.498a1.23 1.23 0 0 1-.193-.021c-.143-.023-.301-.048-.505.021-.1 0-.199.1-.199.199v.299l-.037-.112c-.067-.213-.09-.287-.262-.287v-.1c.049-.05.099-.05.162-.05s.137 0 .236-.05l.221-.065c.185-.05.331-.089.477-.235.1-.1.1-.199 0-.299 0-.1.1-.1.199-.1h.2.398c.1 0 .2 0 .299-.1.2-.199.399-.299.598-.299.399-.1.798-.199 1.097-.399.099 0 .199 0 .199-.1.129 0 .276-.018.426-.04l-.027-.06c.199-.199.398-.1.598-.199h.199c.242-.06.52-.084.79-.116l.705-.181v-.003c0-.199.199-.299.299-.299.299 0 .498-.1.797-.1zm-10.863 2.99c-.299.199-.598.299-.897.299-.165-.082-.261-.029-.401.048l-.098.052s-.099.1-.099.199c.099 0 .099.1.099.199v.498c0 .199 0 .299.2.299.398 0 .398.1.398.598v.1c.399-.199.698-.399.897-.797-.062-.125-.164-.172-.256-.214-.054-.025-.105-.048-.142-.085-.2-.1-.299-.299-.2-.498 0-.1.1-.199.2-.299s.299-.299.498-.399v-.1c-.05 0-.075.025-.1.05s-.05.05-.099.05zm-9.369 2.193c.199-.1.398-.1.598-.1-.05-.05-.1-.075-.15-.1a.52.52 0 0 1-.149-.1c-.028 0-.064-.008-.106-.017-.106-.023-.249-.055-.393.017 0 .095 0 .145.022.182s.074.065.178.117z" class="E"/></g><mask id="A" class="B"><path d="M123.669 18a.67.67 0 0 0-.669.669v8.027a.67.67 0 0 0 .669.669h7.305l1.783 2.403c.138.185.415.185.552 0l1.784-2.402h7.305a.67.67 0 0 0 .669-.669v-8.027a.67.67 0 0 0-.669-.669h-18.729z" class="E"/></mask><path d="M123.669 18a.67.67 0 0 0-.669.669v8.027a.67.67 0 0 0 .669.669h7.305l1.783 2.403c.138.185.415.185.552 0l1.784-2.402h7.305a.67.67 0 0 0 .669-.669v-8.027a.67.67 0 0 0-.669-.669h-18.729z" class="B E"/><path d="M130.974 27.364l.288-.213-.108-.145h-.18v.358zm1.783 2.403l.288-.214h0l-.288.214zm.552 0l-.287-.214h0l.287.214zm1.784-2.402v-.358h-.181l-.107.145.288.213zm-11.735-8.695a.31.31 0 0 1 .311-.311v-.717c-.567 0-1.027.46-1.027 1.027h.716zm0 8.027v-8.027h-.716v8.027h.716zm.311.311a.31.31 0 0 1-.311-.311h-.716c0 .567.46 1.027 1.027 1.027v-.717zm7.305 0h-7.305v.717h7.305v-.717zm2.071 2.547l-1.783-2.402-.576.427 1.783 2.403.576-.427zm-.023 0c.019-.004.02-.003.021-.002l-.574.429c.281.378.847.378 1.128 0l-.575-.427zm1.783-2.402l-1.783 2.402.575.427 1.783-2.402-.575-.427zm7.593-.145h-7.305v.717h7.305v-.717zm.31-.311a.31.31 0 0 1-.31.311v.717c.567 0 1.027-.46 1.027-1.027h-.717zm0-8.027v8.027h.717v-8.027h-.717zm-.31-.311a.31.31 0 0 1 .31.311h.717c0-.567-.46-1.027-1.027-1.027v.717zm-18.729 0h18.729v-.717h-18.729v.717z" fill="#647580" mask="url(#A)"/><path d="M140.57 22.209a.91.91 0 0 1-.471-.125.96.96 0 0 1-.336-.338.91.91 0 0 1-.126-.471.89.89 0 0 1 .126-.467c.084-.14.195-.255.336-.338a.9.9 0 0 1 .471-.127c.172 0 .329.042.47.127a.95.95 0 0 1 .338.338.9.9 0 0 1 .125.467.92.92 0 0 1-.125.471.97.97 0 0 1-.338.338.9.9 0 0 1-.47.125zm0-.54a.39.39 0 0 0 .34-.196c.036-.059.054-.126.054-.2s-.018-.138-.054-.198a.39.39 0 0 0-.34-.196c-.074 0-.138.018-.197.053a.4.4 0 0 0-.143.143c-.035.06-.053.125-.053.198a.39.39 0 0 0 .053.2.4.4 0 0 0 .143.143c.06.036.125.053.197.053zm-2.941 2.643a1.67 1.67 0 0 1-.719-.148 1.25 1.25 0 0 1-.498-.409 1.06 1.06 0 0 1-.192-.597h.799a.48.48 0 0 0 .19.367.65.65 0 0 0 .42.141c.129 0 .243-.029.342-.085a.6.6 0 0 0 .233-.241.73.73 0 0 0 .086-.357c0-.137-.029-.257-.088-.361a.62.62 0 0 0-.237-.243c-.101-.058-.217-.088-.348-.089a.82.82 0 0 0-.332.07c-.107.047-.19.111-.249.192l-.732-.131.184-2.052h2.38v.673h-1.701l-.101.975h.023a.75.75 0 0 1 .31-.239 1.1 1.1 0 0 1 .463-.095 1.19 1.19 0 0 1 .627.165c.184.11.329.262.436.454a1.32 1.32 0 0 1 .157.661c.002.262-.059.495-.182.699a1.29 1.29 0 0 1-.511.479c-.218.115-.472.173-.76.173zm-3.511 0c-.283 0-.536-.049-.758-.146a1.26 1.26 0 0 1-.522-.407 1.02 1.02 0 0 1-.196-.601h.828a.43.43 0 0 0 .093.251.58.58 0 0 0 .232.165c.097.039.205.059.325.059.126 0 .237-.022.333-.067a.55.55 0 0 0 .226-.184.47.47 0 0 0 .082-.272.46.46 0 0 0-.088-.276c-.058-.08-.139-.144-.247-.19a.96.96 0 0 0-.38-.068h-.363v-.604h.363a.79.79 0 0 0 .329-.065.53.53 0 0 0 .224-.179c.053-.077.08-.167.08-.27s-.024-.183-.07-.257a.47.47 0 0 0-.194-.175.63.63 0 0 0-.289-.063.75.75 0 0 0-.306.061.53.53 0 0 0-.222.169c-.056.074-.086.16-.09.258h-.788c.004-.224.068-.422.192-.593s.291-.305.501-.401.451-.146.717-.146.503.049.705.146.358.229.469.395a.94.94 0 0 1 .167.555c.002.218-.066.4-.203.545a.93.93 0 0 1-.53.277v.03c.286.037.504.136.654.298s.225.362.224.604a.95.95 0 0 1-.192.591 1.3 1.3 0 0 1-.53.407c-.225.099-.484.148-.776.148z" class="C"/><g stroke-width=".076" stroke-miterlimit="10"><path d="M130.492 21.65h-.049c.09-.37.045-.76-.127-1.099a1.6 1.6 0 0 0-1.916-.802c-.362.116-.671.357-.872.681-.162-.096-.346-.148-.534-.149a1.07 1.07 0 0 0-.538.139c-.163.093-.3.227-.395.39a1.07 1.07 0 0 0-.145.535c0 .058.005.116.015.174-.279.055-.527.211-.697.438a1.14 1.14 0 0 0 .144 1.529c.21.192.483.299.766.3a.66.66 0 0 0 .077 0h4.271c.283 0 .555-.113.755-.313a1.07 1.07 0 0 0 0-1.51 1.07 1.07 0 0 0-.755-.313z" fill="url(#B)" stroke="#e6effc"/><path d="M127.975 22.336l-.61 1.831h.61l-.305 1.526 1.525-2.136h-.915l.61-1.22h-.915z" fill="url(#C)" stroke="#f6a823"/></g><defs><linearGradient id="B" x1="126.84" y1="20.194" x2="129.379" y2="24.594" gradientUnits="userSpaceOnUse"><stop stop-color="#f3f7fe"/><stop offset=".45" stop-color="#f3f7fe"/><stop offset="1" stop-color="#deeafb"/></linearGradient><linearGradient id="C" x1="127.478" y1="22.623" x2="128.854" y2="25.009" gradientUnits="userSpaceOnUse"><stop stop-color="#f7b23b"/><stop offset=".45" stop-color="#f7b23b"/><stop offset="1" stop-color="#f59e0b"/></linearGradient><path id="D" d="M47 24.9a2.6 2.6 0 1 1-5.2 0 2.6 2.6 0 1 1 5.2 0z"/><path id="E" d="M44.14 52a2.5 2.5 0 1 1-5 0 2.5 2.5 0 1 1 5 0z"/><path id="F" d="M86.808 85.19a1.42 1.42 0 0 0-.768-1.855 1.42 1.42 0 0 0-1.855.768 1.42 1.42 0 0 0 .768 1.855 1.42 1.42 0 0 0 1.855-.768z"/><path id="G" d="M85.511 82.898c.126 0 .231-.105.231-.231v-.287c0-.126-.105-.231-.231-.231s-.231.098-.231.231v.287c0 .126.105.231.231.231z"/><path id="H" d="M83.944 83.402c.091.091.238.091.329 0s.091-.238 0-.329l-.203-.203c-.091-.091-.238-.091-.329 0s-.091.238 0 .329l.203.203z"/><path id="I" d="M83.748 84.633c0-.126-.105-.231-.231-.231h-.287c-.126 0-.231.105-.231.231s.105.231.231.231h.287c.126.007.231-.098.231-.231z"/><path id="J" d="M83.923 85.877l-.203.203c-.091.091-.091.238 0 .329s.238.091.329 0l.203-.203c.091-.091.091-.238 0-.329s-.238-.091-.329 0z"/><path id="K" d="M85.483 86.402c-.126 0-.231.105-.231.231v.287c0 .126.105.231.231.231s.231-.105.231-.231v-.287c.007-.126-.098-.231-.231-.231z"/><path id="L" d="M87.056 85.898c-.091-.091-.238-.091-.329 0s-.091.238 0 .329l.203.203c.091.091.238.091.329 0s.091-.238 0-.329l-.203-.203z"/><path id="M" d="M87.769 84.43h-.287c-.126 0-.231.105-.231.231s.105.231.231.231h.287c.126 0 .231-.105.231-.231s-.105-.231-.231-.231z"/><path id="N" d="M87.077 83.423l.203-.203c.091-.091.091-.238 0-.329s-.238-.091-.329 0l-.203.203c-.091.091-.091.238 0 .329s.238.091.329 0z"/><path id="O" d="M105.611 83.402c.091.091.237.091.328 0s.091-.238 0-.329l-.202-.203c-.091-.091-.238-.091-.329 0s-.091.238 0 .329l.203.203z"/><path id="P" d="M105.415 84.633c0-.126-.105-.231-.231-.231h-.287c-.125 0-.23.105-.23.231s.105.231.23.231h.287c.126.007.231-.098.231-.231z"/><path id="Q" d="M105.59 85.877l-.203.203c-.091.091-.091.238 0 .329s.238.091.329 0l.202-.203c.091-.091.091-.238 0-.329s-.237-.091-.328 0z"/><path id="R" d="M108.723 85.898c-.091-.091-.238-.091-.329 0s-.091.238 0 .329l.203.203c.091.091.237.091.328 0s.091-.238 0-.329l-.202-.203z"/><path id="S" d="M108.744 83.423l.202-.203c.091-.091.091-.238 0-.329s-.237-.091-.328 0l-.203.203c-.091.091-.091.238 0 .329s.238.091.329 0z"/><path id="T" d="M130.141 85.19a1.42 1.42 0 0 0-.768-1.855 1.42 1.42 0 0 0-1.855.768 1.42 1.42 0 0 0 .769 1.855 1.42 1.42 0 0 0 1.854-.768z"/><path id="U" d="M127.277 83.402c.091.091.238.091.329 0s.091-.238 0-.329l-.203-.203c-.091-.091-.238-.091-.328 0s-.091.238 0 .329l.202.203z"/><path id="V" d="M127.256 85.877l-.202.203c-.091.091-.091.238 0 .329s.237.091.328 0l.203-.203c.091-.091.091-.238 0-.329s-.238-.091-.329 0z"/><path id="W" d="M130.389 85.898c-.091-.091-.238-.091-.328 0s-.091.238 0 .329l.202.203c.091.091.238.091.329 0s.091-.238 0-.329l-.203-.203z"/><path id="X" d="M131.103 84.43h-.287c-.126 0-.231.105-.231.231s.105.231.231.231h.287c.125 0 .23-.105.23-.231s-.105-.231-.23-.231z"/><path id="Y" d="M130.41 83.423l.203-.203c.091-.091.091-.238 0-.329s-.238-.091-.329 0l-.202.203c-.091.091-.091.238 0 .329s.237.091.328 0z"/><path id="Z" d="M150.51 82.898c.126 0 .231-.105.231-.231v-.287c0-.126-.105-.231-.231-.231s-.23.098-.23.231v.287c0 .126.105.231.23.231z"/><path id="a" d="M148.748 84.633c0-.126-.105-.231-.231-.231h-.286c-.126 0-.231.105-.231.231s.105.231.231.231h.286c.126.007.231-.098.231-.231z"/><path id="b" d="M150.482 86.402c-.125 0-.23.105-.23.231v.287c0 .126.105.231.23.231s.231-.105.231-.231v-.287c.007-.126-.098-.231-.231-.231z"/><path id="c" d="M152.769 84.43h-.286c-.126 0-.231.105-.231.231s.105.231.231.231h.286c.126 0 .231-.105.231-.231s-.105-.231-.231-.231z"/></defs></svg>