<svg xmlns="http://www.w3.org/2000/svg" width="172" height="104" fill="none" xmlns:v="https://vecta.io/nano"><style><![CDATA[.B{fill:#fff}.C{fill:#58707f}.D{stroke:#58707f}.E{fill-rule:evenodd}]]></style><rect x=".6" y=".6" width="170.8" height="102.8" rx="2.4" class="B"/><rect x=".6" y=".6" width="170.8" height="102.8" rx="2.4" stroke="#8796a1" stroke-width="1.2"/><rect x="12.5" y="7.5" width="147" height="27" rx="1.5" class="B"/><rect x="12.5" y="7.5" width="147" height="27" rx="1.5" class="D"/><rect x="16" y="11.05" width="20.8" height="2.6" rx="1.3" class="C"/><rect x="16" y="14.95" width="20.8" height="1.3" rx=".65" fill="#8796a1" fill-opacity=".8"/><g fill="#abb6bd"><rect x="42" y="11.05" width="15.6" height="2.6" rx="1.3"/><rect x="62.8" y="11.05" width="14.3" height="2.6" rx="1.3"/><rect x="82.3" y="11.05" width="20.8" height="2.6" rx="1.3"/></g><g class="C"><rect x="18.6" y="18.85" width="10.4" height="1.95" rx=".975"/><use href="#D"/><rect x="16" y="29" width="15.6" height="1.95" rx=".975"/><rect x="39.334" y="18.85" width="10.4" height="1.95" rx=".975"/><use href="#D" x="20.733"/><rect x="36.733" y="29" width="15.6" height="1.95" rx=".975"/><rect x="60.066" y="18.85" width="10.4" height="1.95" rx=".975"/><use href="#E"/><rect x="57.467" y="29" width="15.6" height="1.95" rx=".975"/><rect x="80.8" y="18.85" width="10.4" height="1.95" rx=".975"/><use href="#E" x="20.733"/><rect x="78.2" y="29" width="15.6" height="1.95" rx=".975"/><rect x="101.533" y="18.85" width="10.4" height="1.95" rx=".975"/><use href="#E" x="41.466"/><rect x="98.933" y="29" width="15.6" height="1.95" rx=".975"/><rect x="122.267" y="18.85" width="10.4" height="1.95" rx=".975"/><use href="#E" x="62.2"/><rect x="119.667" y="29" width="15.6" height="1.95" rx=".975"/><rect x="143" y="18.85" width="10.4" height="1.95" rx=".975"/><use href="#E" x="82.933"/><rect x="140.4" y="29" width="15.6" height="1.95" rx=".975"/></g><rect x="83.5" y="38.5" width="55" height="37" rx="1.5" class="B"/><rect x="83.5" y="38.5" width="55" height="37" rx="1.5" class="D"/><g class="C"><rect x="87" y="42.041" width="16" height="2.5" rx="1.25"/><rect x="117.791" y="42" width="17.209" height="2.581" rx="1.291"/><rect x="87" y="49.39" width="10.326" height="1.721" rx=".86"/><use href="#F"/><rect x="119.512" y="49.39" width="6.884" height="1.721" rx=".86"/><rect x="128.116" y="49.39" width="6.884" height="1.721" rx=".86"/><rect x="87" y="55.89" width="13.767" height="1.721" rx=".86"/><use href="#F" y="6.5"/><rect x="119.512" y="55.89" width="6.884" height="1.721" rx=".86"/><rect x="128.116" y="55.89" width="6.884" height="1.721" rx=".86"/><rect x="87" y="62.39" width="12.047" height="1.721" rx=".86"/><use href="#F" y="13"/><rect x="119.512" y="62.39" width="6.884" height="1.721" rx=".86"/><rect x="128.116" y="62.39" width="6.884" height="1.721" rx=".86"/><rect x="87" y="68.89" width="12.047" height="1.721" rx=".86"/><use href="#F" y="19.5"/><rect x="119.512" y="68.89" width="6.884" height="1.721" rx=".86"/><rect x="128.116" y="68.89" width="6.884" height="1.721" rx=".86"/><g class="E"><path d="M36.024 43.819h0zm14.352 1.528c0-.067.133-.067.133-.067.133-.066.199-.133.199-.199 0-.133 0-.266-.133-.332-.066-.066-.133-.066-.266-.133v-.067s0-.066.066-.066c.199 0 .332-.066.532-.066s.399-.199.531-.332c.067-.066.067-.133.133-.199s.066-.133 0-.199c-.066-.133-.066-.133.066-.199.199-.066.199-.133.066-.332v-.066l.066-.066c.199-.133.399-.199.665-.332l.93-.199c.066 0 .066-.066.133-.066v-.067c-.066 0-.066 0-.133-.066-.332 0-.664-.067-.997 0h-.332c-.066 0-.133 0-.133-.067a.51.51 0 0 0-.332-.133c-.598-.199-1.13-.266-1.661-.199-.266.067-.598.133-.864.067-.465-.067-.93 0-1.395.133h-.266-.199c-.332 0-.731 0-1.063.066-.664.066-1.395.066-2.06.266-.066 0-.133 0-.199.066-.199 0-.332.066-.532.066-.066 0-.199.066-.199.199 0 .066-.133.066-.133.066-.266.066-.598.066-.864.133h-.133c-.133.066-.266 0-.399.133.066.133.066.266.133.399 0 .066.066.066.133.066.133.066.332.133.465.066.332-.066.664 0 .93.066.399.066.598.399.532.797 0 .066-.067.133-.067.199s0 .133.067.133c.133 0 .199.066.332.066.066 0 .133.066.066.133h-.066c-.266 0-.332.067-.133.332 0 0 0 .066.066.066.067.066 0 .133-.066.133s-.133 0-.199.066c-.332.067-.532.332-.532.665s.066.664.133.997c0 .133.133.332.199.465s.133.199.332.199c.199-.066.332 0 .399.133l.133.133c.066.066.199.066.266 0 .199-.199.465-.332.532-.664 0-.066.066-.133.133-.133.199-.066.332-.266.399-.465.066-.066.133-.133.133-.199.066-.066.199-.133.266-.133.133 0 .266 0 .332-.066.133-.066.266.066.332 0h.066c.332-.066.664-.199.93-.465.133-.133.332-.266.532-.199h.133c.465-.066.93-.199 1.329-.332.266 0 .465-.067.532-.199zM30.575 60.496a1.12 1.12 0 0 0-.664.199.8.8 0 0 0-.332.332v.133h.067c.133 0 .266-.066.332-.133a.74.74 0 0 1 .532 0c.133.066.266.066.332.133.199.066.399.133.532.266.066.066.133.133.199.266 0 .133.066.133.199.133s.266 0 .399.066h.266c.066 0 .133 0 .199-.066s.067-.199 0-.266-.199-.133-.266-.133c-.199-.133-.399-.199-.598-.399-.332-.266-.731-.399-1.13-.532.066 0 0 0-.067 0zm.598-16.81h.066c.199 0 .399 0 .598-.066.133-.066.266-.133.465-.066-.066.066-.199.133-.266.133s-.066.066-.133.066v.066c.067 0 .067.066.133.066.665.133 1.329.133 1.993 0 .133 0 .199-.066.266-.199 0-.066 0-.133-.066-.133h-.199c-.133-.133-.199-.133-.332-.066-.066.066-.133.066-.133.133-.066.066-.199.066-.266 0-.199-.133-.465-.133-.598-.332 0 0-.067-.066-.133-.066h-.266c-.399 0-.797.133-1.196.199h-.067c.067.199.067.199.133.266-.066 0-.066 0 0 0zm5.847-.266h-.133a.3.3 0 0 0-.332 0c-.067 0-.067.066-.067.066s0 .066.067.066c.066.066.066.066.133.066.133 0 .266 0 .332-.066h.066s-.066-.066-.066-.133zm.067.199h0c.067 0 0-.066 0 0zm-4.452 18.738c.266.066.532.133.864.066.266-.066.465-.133.731-.133.066 0 .066 0 .133-.066v-.133c-.199-.199-.465-.199-.731-.332-.199.066-.399 0-.598 0-.067 0-.133.066-.067.133 0 .066.067.133.133.266-.133 0-.266.066-.399.066-.067 0-.067 0-.067.066-.133 0-.066.066 0 .066zm18.073-15.083c.133.066.266 0 .399-.066.199-.066.399-.133.598-.266.199 0 .332-.066.399-.199.066-.066.066-.133 0-.133-.133-.133-.199-.332-.465-.266h-.199c-.133 0-.199 0-.266.066-.133 0-.332-.066-.465 0s-.266 0-.399-.066a.41.41 0 0 0-.465.066c0 .133-.066.133-.066.266 0 .066.133.066.199.066h.133l.066.066c-.066.133 0 .266 0 .399.133 0 .332.066.532.066zM36.09 43.752c.066-.066.066-.066.066-.133s-.066-.066-.133-.066c-.266-.066-.598 0-.797.199-.066-.133-.199-.199-.399-.199-.066 0-.066 0-.133.066 0 .066 0 .133.066.133.066.066.199.066.332.066h.133c.133.199.332.133.598.066.066 0 .133-.133.266-.133zM78.947 65.48c-.066-.133-.133-.266-.332-.266-.133.133-.133.266-.133.399-.066.332 0 .598.133.864.066.133.066.133.199.133.067 0 .133 0 .133-.066.266-.199.332-.332.199-.664l-.199-.399zM35.758 43.088c.133.133.332.133.465.199.133 0 .199 0 .266-.066s.067-.199 0-.199a1.24 1.24 0 0 0-.465-.133c-.066 0-.133 0-.199.066-.133-.066-.133.066-.066.133z"/><path d="M37.087 43.353c.067 0 .199 0 .266-.066 0 0 .066 0 .066-.066 0 0 0-.066-.066-.066-.133-.066-.266-.066-.399-.133-.066 0-.133 0-.133.066-.066.066 0 .133.067.133 0 .066.066.133.199.133zm-3.322 0c.066.066.133.066.199.066.133 0 .199 0 .332-.133.066 0 0-.066 0-.133-.199-.066-.399-.066-.598.066 0 .066 0 .066.067.133zm.996 18.871c-.066 0-.066.066-.066.133s.066.133.133.133h.066c.133 0 .266-.066.266-.133s-.133-.133-.266-.133c-.066-.066-.133-.066-.133 0zm-2.923-1.927c.066-.133 0-.266-.133-.332h-.066l-.066.067c-.066.133-.066.266.066.332.199 0 .199-.066.199-.066zm25.315 6.91c.066.067.066.067 0 0 .066 0 .066 0 .066-.066-.066 0-.066.066-.066.066zm0 .2c.066 0 .066 0 .066-.066v-.066c-.066 0-.066 0-.066.133 0-.066 0-.066 0 0zm-24.917-7.509c0-.067 0-.067-.066-.067 0 0-.066 0-.066.067 0 0 .066.066.133 0zm37.195 12.853c.045.078.081.14.081.237 0 .053.005.102.009.147.012.123.022.221-.076.318a.41.41 0 0 1-.066.465c-.133.133-.199.332-.199.532s-.066.399-.133.598l-1.728.731c.199-.332.332-.664.199-.997-.067-.199 0-.399.133-.598.066-.066.133-.133.266-.199.038-.038.054-.054.074-.061.014-.005.031-.005.059-.005.332-.066.598-.332.731-.598.066-.133.133-.266.199-.332s.133-.199.199-.332c.067-.066.199-.066.199 0l.052.095z"/><path d="M43.067 69.732c.199.199.399.332.664.399.199.066.266.199.199.332.199.532.133 1.063-.199 1.462l-.365.498-.366.498c-.133.199-.199.465-.133.731.133.332.066.731-.066 1.063-.066.133-.066.199-.066.332l-8.97.532c0-.199 0-.332-.067-.532 0-.081-.049-.137-.102-.198-.035-.04-.071-.082-.097-.134-.266-.266-.532-.465-.93-.598-.465-.133-.665-.399-.864-.797l-.365-.698-.365-.698c-.102-.102-.164-.242-.218-.362l-.048-.104c-.133-.266-.266-.532-.532-.664-.067-.066-.133-.133-.133-.199 0-.133 0-.199-.067-.332 0-.133 0-.199.067-.332.066-.066.066-.133-.199-.066l.023-.044c.056-.106.095-.179-.023-.355-.133-.199-.133-.465 0-.664.066-.066.133-.133.133-.199 0-.199.067-.332.266-.399.066 0 .133-.066.133-.133.066-.133.133-.266.199-.332.399-.399.399-.864.266-1.329-.029-.087-.071-.162-.109-.23-.049-.086-.09-.161-.09-.236 0-.133-.199-.199-.266-.199-.133 0-.199.067-.199.199 0 .199-.199.266-.399.133-.133-.133-.266-.199-.399-.199-.033-.033-.083-.066-.133-.1s-.1-.066-.133-.1c-.133-.199-.266-.332-.465-.399-.133-.066-.199-.199-.133-.332.067-.066.067-.133-.066-.199-.089 0-.118-.059-.148-.118-.015-.029-.03-.059-.052-.081-.066-.199-.266-.332-.532-.332-.067 0-.199 0-.266-.066-.133-.133-.266-.199-.465-.199-.133-.066-.199-.133-.266-.199-.033-.067-.083-.116-.133-.166s-.1-.1-.133-.166c-.133-.133-.332-.199-.532-.133-.266.066-.532.066-.731-.067-.067 0-.133 0-.133-.066-.033 0-.067-.017-.1-.033s-.066-.033-.1-.033c-.067 0-.133-.066-.133-.066-.067 0-.067 0-.133-.066l-.103-.048c-.12-.054-.26-.116-.362-.218-.033 0-.05-.017-.066-.033s-.033-.033-.066-.033c-.17-.085-.313-.198-.447-.303l-.218-.163c-.266-.199-.332-.399-.266-.664 0-.033.017-.05.033-.066s.033-.033.033-.066c.066-.133.066-.266 0-.399-.025-.051-.041-.092-.055-.127-.022-.057-.037-.098-.078-.139 0-.033-.017-.05-.033-.066s-.033-.033-.033-.066c-.133-.266-.266-.465-.465-.598-.066-.066-.133-.133-.133-.199 0-.259-.121-.478-.238-.688l-.094-.176c-.133-.199-.199-.465-.199-.731v-.199c0-.066-.067-.133-.133-.133-.112-.056-.13-.018-.172.075l-.027.057c0 .133 0 .266.066.332.196.244.283.561.369.87l.096.326c.067.266.133.465.266.665.066.133.066.199.066.332 0 .066 0 .066-.066.133s-.066.066-.133 0c-.033-.033-.066-.083-.1-.133s-.066-.1-.1-.133c-.266-.133-.399-.332-.332-.598.066-.067 0-.133-.067-.133 0 0-.066-.066-.133-.066a.52.52 0 0 1-.266-.266c-.066-.133-.066-.199.066-.332.199-.199.199-.199.066-.332-.133-.199-.199-.332-.199-.532 0-.1-.017-.216-.033-.332l-.033-.332a.58.58 0 0 0-.465-.598c-.199-.066-.266-.133-.266-.332-.066-.266-.066-.532-.066-.797 0-.033-.017-.083-.033-.133s-.033-.1-.033-.133c0-.044-.007-.089-.015-.133-.015-.089-.029-.177.015-.266-.052-.156.018-.271.083-.378l.05-.087.199-.399c.04-.119.103-.19.161-.257.04-.045.078-.088.105-.142.1-.166.216-.316.332-.465l.332-.465c.133-.199.266-.399.332-.664.067-.133.067-.266-.066-.332-.133-.133-.199-.266-.199-.399s0-.199.066-.199c.133 0 .133-.066.133-.199 0-.066 0-.133.066-.199.067-.199.067-.332.067-.532 0-.133 0-.266.066-.399.1-.1.087-.199.075-.299l-.008-.1c0-.067 0-.199-.067-.266v-.199-.133c0-.067-.066-.067-.133-.067-.041 0-.057-.025-.078-.06-.013-.022-.029-.047-.054-.072-.067-.133-.133-.266-.266-.332a1.69 1.69 0 0 1-.384-.061c-.148-.035-.305-.072-.48-.072-.067 0-.199-.066-.266-.133-.199-.066-.332-.066-.465.066-.133.199-.332.266-.598.332-.158 0-.274.042-.414.092l-.117.041c-.066.066-.133 0-.199-.066-.05-.1-.1-.087-.149-.075-.017.004-.033.008-.05.008-.067 0-.133.067-.067.133l-.997.399c-.26.156-.561.271-.839.378l-.224.087c-.066.033-.149.066-.232.1l-.233.1c-.149.1-.299.087-.448.075l-.149-.008c-.066 0-.133 0-.133-.066-.066-.066 0-.133.066-.133a1.32 1.32 0 0 0 .266-.133c.083-.05.166-.1.266-.133.266-.133.465-.266.665-.399.033 0 .05-.017.066-.033s.033-.033.067-.033c.066 0 .066-.066.066-.066h-.066-.199-.199c-.066 0-.133 0-.133-.067 0-.08-.049-.136-.102-.198a.65.65 0 0 1-.097-.134v-.199s0-.066.066-.066.066-.066.066-.066c.066-.199.266-.332.465-.399l.42-.171c.373-.157.738-.312 1.175-.361-.133-.133-.199-.133-.332-.133-.066.066-.199.066-.266.066s-.133-.066-.133-.133c.066-.066.066-.133.066-.199 0-.199.133-.266.266-.332.199 0 .399 0 .598-.066s.332-.066.531 0h.199c.066-.066.133-.133.066-.199-.033-.033-.05-.083-.066-.133s-.033-.1-.066-.133c-.066-.066-.066-.133.066-.199s.266-.133.332-.199c.266 0 .465-.066.665-.133h.066c.532-.199 1.063-.332 1.595-.332.199 0 .332 0 .531-.066h.266c.11 0 .199.02.28.038.066.015.126.028.185.028l1.196.199h.665.199c.152.114.304.141.456.168.114.02.228.041.342.098.022 0 .044.007.066.015.044.015.089.029.133-.015.133-.033.266-.05.399-.066l.399-.066c.066 0 .133-.017.199-.033s.133-.033.199-.033c.199-.066.332-.066.465-.066s.266 0 .399.066c.133-.066.199-.066.266.067s.133.133.266.066h.266.332c.199 0 .399 0 .532.133.133.066.199.066.332.066s.199 0 .199-.133c0-.066 0-.133.066-.133.161-.054.149-.194.138-.316l-.005-.083c-.266 0-.465.066-.664.133s-.399.066-.532-.067a.19.19 0 0 1 0-.332c.465-.266.93-.532 1.462-.598.047 0 .086-.008.122-.016.066-.014.124-.027.21.016h.133c.199.066.332.066.532.066.133 0 .266.066.332.199.066.066.133.133.266.133a1.11 1.11 0 0 1 .142.014c.11.015.232.032.323-.014.077-.039.132-.01.191.021.042.022.086.045.141.045.399-.332.465-.332.731-.066.044.044.029.089.015.133-.007.022-.015.044-.015.066-.066.066-.066.199-.066.399 0 .028 0 .044.005.059.007.02.023.036.061.074.066 0 .133.066.133.066.133.133.066.266-.067.332s-.266.133-.332.199-.133.066-.266.066c-.072 0-.136-.009-.194-.017-.102-.014-.187-.026-.271.017.133.066.266.066.399.066.199-.066.399-.066.598-.066.066 0 .133-.066.066-.133 0-.066 0-.133.067-.133.085-.085.198-.116.302-.144.059-.016.115-.031.163-.055.044-.044.089-.03.133-.015.022.007.044.015.066.015.022.022.052.037.081.052.059.029.118.059.118.148 0 .133-.133.133-.199.133 0 .041.025.031.06.018.022-.008.047-.018.072-.018.025-.025.059-.04.095-.057.061-.028.129-.059.171-.142v-.067c-.133-.199-.066-.332.066-.465v-.066c-.266 0-.465-.066-.598-.199-.133-.066-.066-.199 0-.266h.133c.066 0 .133 0 .199-.133 0-.133.133-.199.266-.199h.532c.133 0 .199.066.133.199l-.041.076c-.05.09-.092.165-.092.322-.066.066-.066.133 0 .133 0 .066.066 0 .066 0 0-.033.017-.05.033-.066s.033-.033.033-.066c.104-.208.249-.294.402-.385l.129-.08c.066-.066.133-.066.199-.066-.066-.066-.066-.199-.066-.266h.066c.133-.066.266-.066.399-.066s.199.066.133.199c-.067.066-.067.066-.067.133.052.026.104.032.152.037.075.008.14.015.18.096h.133c.266-.066.598-.133.93-.066h.399v-.066c-.266-.133-.598-.133-.93-.133-.199 0-.332 0-.465-.066-.133 0-.133-.066-.067-.133s.133-.133.199-.266c.066-.066.066-.066.133-.066a.31.31 0 0 1 .399.066c.033 0 .05.017.066.033s.033.033.066.033.033-.017.033-.041 0-.058.033-.091c.085-.085.198-.116.303-.144.059-.016.115-.031.163-.055s.089-.037.133-.052c.089-.029.177-.059.266-.148-.086-.043-.144-.03-.21-.016-.036.008-.075.016-.122.016-.066.066-.199.066-.266.066a.79.79 0 0 1-.08-.005c-.106-.011-.213-.021-.319.138-.133-.133-.133-.266.066-.332.161-.107.365-.171.543-.227l.122-.039a.3.3 0 0 1 .332 0c.199.066.332.133.532.266.066.066.066.133 0 .199s-.133.066-.199.066c-.133 0-.266 0-.399.066a1.03 1.03 0 0 0 .797-.133c.081-.081.088-.137.096-.198.005-.04.011-.082.037-.134-.038-.019-.088-.033-.14-.047-.13-.036-.278-.077-.325-.218.066-.066.199-.066.266-.066l1.196-.199c.465-.066.93-.133 1.395 0h.997c.199-.066.465-.066.664-.066a.65.65 0 0 1 .337-.014c.044.007.086.014.128.014.067 0 .199 0 .199.066 0 .133-.133.133-.199.133l-.93.233-.93.233c-.066.133-.199.133-.332.133a2.5 2.5 0 0 0-.332.033l-.332.033c0 .066-.066.066-.133.066-.199.133-.465.199-.731.266-.133 0-.266.066-.399.199-.066.066-.133.066-.199.066h-.266-.133c-.066 0-.133 0-.133.066.066.066.066.133 0 .199-.097.097-.194.123-.318.156l-.147.043c-.066.033-.116.033-.158.033s-.075 0-.108.033v.066c.115 0 .13.05.175.191l.024.075v-.199c0-.066.066-.133.133-.133.136-.045.241-.029.337-.014.044.007.086.014.128.014.266.066.266.066.332.332v.066c.199.133.399.199.665.266.133 0 .199.066.266.133s.199.199.199.332c0 .097-.036.159-.081.237l-.052.095a.65.65 0 0 0 .233.133c.083.033.166.066.233.133.133.066.199.199.199.399 0 .054-.043.064-.201.101l-.131.032a.65.65 0 0 0-.166.133.65.65 0 0 1-.166.133c-.199.133-.266.133-.465-.133l-.133-.133c-.067-.133-.133-.133-.266 0 .067 0 .133.066.199.133.133.199.133.332.067.532a.5.5 0 0 1-.465.266h-.133v.133c0 .062-.006.105-.02.135-.036.007-.072.031-.109.063-.021.002-.045.002-.071.002-.284 0-.471-.097-.685-.208l-.086-.044c-.007-.061-.05-.103-.093-.146a.47.47 0 0 1-.06-.025c-.004-.015-.006-.029-.006-.041-.059-.177-.17-.249-.334-.263l-.065-.069c-.066-.066-.133-.133-.266-.066-.043.043-.114.03-.194.016-.044-.008-.091-.016-.138-.016-.033 0-.083-.017-.133-.033l-.091-.027c.003-.021.011-.046.025-.072l.076-.082c.09-.101.165-.184.322-.184.078 0 .156.023.22.042a.47.47 0 0 0 .112.025c.199.066.399 0 .532-.199a.91.91 0 0 1 .133-.1c.05-.033.1-.066.133-.1.066 0 .133-.066.199-.133s.066-.133 0-.199l-.066-.066a.52.52 0 0 1-.266-.266c-.033 0-.066-.017-.1-.033s-.066-.033-.1-.033h-.797c0 .199-.066.332-.199.399-.066 0-.066.066-.066.133-.096.193-.263.281-.424.365l-.174.1c-.133.066-.266.066-.332.066s-.133 0-.133.066c.133.133.266.332.332.465a.24.24 0 0 1 .025.088c-.038.055-.073.109-.099.168-.018.006-.037.01-.059.01-.133.066-.199.066-.266 0-.199-.066-.332 0-.465.066-.033 0-.066.017-.1.033s-.066.033-.1.033h-.266l-.199-.199c-.037-.075-.012-.107.018-.145.023-.029.049-.062.049-.12-.266.066-.532.199-.731.332s-.399.266-.664.266a1.64 1.64 0 0 0-.598.266c-.199.133-.399.266-.598-.066-.041 0-.057.025-.079.06-.013.022-.029.047-.054.072-.066.066-.1.1-.1.133s.033.066.1.133v.133c-.066.133-.066.199-.066.266s.066.066.066.066c.266-.066.532.066.731.266a1.1 1.1 0 0 0 .797.332c.066 0 .199 0 .332.066.066.067.066.067.066.133-.025.051-.041.092-.054.127-.022.057-.037.098-.078.139-.066.066-.133.199-.199.332v.199a.22.22 0 0 0 .332.133c.133-.066.199-.199.266-.332s.133-.332.133-.465.066-.199.199-.266c.1-.033.199-.083.299-.133l.299-.133c.133-.067.266-.133.332-.266.133-.133.199-.266.066-.465-.066-.133 0-.266.133-.332.033 0 .05-.017.066-.033s.033-.033.066-.033c.199-.066.266-.133.266-.332a.64.64 0 0 1 .059-.276c.067-.024.106-.09.099-.168l.04-.057.068-.098c.066-.133.199-.133.399-.133.012 0 .026.002.042.006-.013.085.051.127.157.127.1 0 .216.017.332.033l.332.033.065.003.033.037c.089.1.186.208.307.268.018.069.072.158.127.158l.026.013a.21.21 0 0 1-.026.12c0 .033-.017.066-.033.1s-.033.066-.033.1c0 .133 0 .199.066.266s.133.133.266.066c.033 0 .05-.017.066-.033s.033-.033.066-.033c.066-.033.133-.083.199-.133s.133-.1.199-.133l.071-.068c.052-.004.089-.017.109-.063.086-.068.219-.002.219.065.111.223.176.492.233.73l.033.134c.048.096.027.191.011.262-.006.028-.011.052-.011.07.066.199.133.332.332.399 0 0 .067.066.133.066.067.067.133.133.133.199s.066.133.066.133c.266.199.199.465.067.731 0 .033-.017.05-.033.066s-.033.033-.033.066c0 .133-.066.266-.133.399 0 .133 0 .199.133.199h.266c.066 0 .133.066.133.199-.033.033-.05.083-.066.133s-.033.1-.066.133c-.066.066-.066.133 0 .199s.133.133.066.199c-.016.016-.031.035-.048.056-.053.066-.116.144-.218.144-.133.066-.266 0-.399-.067-.199-.133-.332-.133-.531-.133h-.598c-.066 0-.133-.066-.066-.133 0-.066 0-.133.066-.133.275-.165.459-.421.627-.655l.104-.143.133-.133c-.066-.066-.066-.066-.133-.066-.033 0-.05.017-.067.033s-.033.033-.066.033c-.266.266-.598.332-.997.332h-.997c-.066 0-.199 0-.266.066.066.066.066.066.133.066.133 0 .266 0 .332.066.133.066.199.199.066.332l-.133.133c-.066.066-.133.199-.133.266 0 .199.066.332.266.399.066.033.133.05.199.067s.133.033.199.066c.066.067.066.067.066.133s0 .133-.066.133l-.598.199c-.199.067-.399.133-.532.266-.066.066-.199.133-.266.133-.133 0-.199-.066-.199-.199s.066-.199.133-.266c-.041-.041-.057-.031-.079-.018-.013.008-.029.018-.054.018l-.93.399c-.266.133-.465.266-.465.532 0 .133-.066.199-.133.199-.033 0-.083.017-.133.033s-.1.033-.133.033c-.266.066-.532.199-.797.399 0 .041-.025.057-.06.078a.37.37 0 0 0-.072.054l-.399.399-.199.199a.51.51 0 0 0-.133.332c0 .266-.066.465-.266.598 0 .033-.017.05-.033.066s-.033.033-.033.067c-.066.066-.133.133-.199.133-.133 0-.332.066-.399.199 0 .066-.066.066-.066.066-.248.083-.444.242-.637.399l-.359.265c-.033.033-.05.066-.066.1s-.033.066-.066.1l-.025.074c-.056.161-.099.284-.041.457.066.266.133.598.133.93.066.266 0 .399-.199.532-.133.133-.266.133-.332 0a1.63 1.63 0 0 1-.332-.997v-.199c0-.133-.133-.266-.266-.199-.133 0-.266 0-.332-.133s-.199-.133-.332-.133c-.11 0-.199.02-.28.038-.066.015-.125.028-.185.028-.133 0-.266.066-.266.199s-.133.133-.199.133a3.33 3.33 0 0 0-.399-.066l-.399-.066c-.174-.058-.297-.015-.457.041l-.074.026c-.266.133-.532.266-.797.465-.199.133-.266.266-.266.465.058.172-.034.345-.103.474l-.03.057c-.266.531-.266.997-.133 1.528.066.199.199.399.399.532l.056.029c.1.054.173.094.343.037h.465c.266 0 .332 0 .399-.266a.93.93 0 0 0 .067-.199c.017-.066.033-.133.066-.199l.199-.199c.266-.066.598-.133.864-.133.038.038.054.054.074.061.014.005.031.005.059.005.067.066.133.133.067.266a1.06 1.06 0 0 0-.152.367l-.047.164-.199.399c-.133.199-.199.465-.266.731.067.066.133.066.199.066.078 0 .133-.023.178-.042.032-.013.06-.025.087-.025.332-.133.664 0 .93.199.038.038.054.055.061.074.005.014.005.031.005.059 0 .199 0 .332-.066.532l-.199.731c-.066.199 0 .399.199.532l.133.133c.199.133.332.199.532.067 0-.067.067-.067.067-.067.266-.133.465-.133.731 0 .066.067.133.133.199.133.102 0 .164-.078.218-.144l.048-.055c0-.033.017-.067.033-.1s.033-.066.033-.1c.067-.266.266-.399.532-.465l.15-.034c.192-.041.342-.072.448-.232.066-.066.133-.066.199-.066.133 0 .199.066.266.199v.067c.066 0 .133 0 .066-.199.028-.028.044-.044.063-.048.027-.007.059.01.137.048.079.052.157.094.232.134.114.061.219.117.3.198.066.066.133.066.199.066.199 0 .332.067.465.133.066.066.199.066.266 0 .199-.133.399-.133.598-.133h.399c.199 0 .199.067.199.199v.133c0 .332 0 .332.332.465a.8.8 0 0 1 .332.332c.067.133.133.199.199.266a.85.85 0 0 0 .664.266c.232 0 .432.065.622.127l.242.073c.048.048.103.096.161.146.182.157.386.333.437.585l.199.531c.066.067.066.133.066.266 0 .199.066.332.266.332.066 0 .116.05.166.1s.1.1.166.1c.066.033.133.05.199.066s.133.033.199.067c.066.044.14.074.214.103.148.059.295.118.384.295.066.067.066.067.133.067.199 0 .332.066.465.133.199.066.399.066.598.066.066-.066.199-.066.266 0 .199.066.332.199.465.332zm-7.31-25.018l-.065.035s-.066.066-.066.133c.066 0 .066.066.066.133v.332c0 .133 0 .199.133.199.266 0 .266.066.266.399v.066c.266-.133.465-.266.598-.532-.042-.083-.11-.114-.171-.142a.32.32 0 0 1-.095-.057c-.133-.066-.199-.199-.133-.332 0-.066.066-.133.133-.199s.199-.199.332-.266v-.066c-.033 0-.05.017-.066.033s-.033.033-.067.033c-.199.133-.399.199-.598.199-.109-.055-.174-.019-.267.032zm-5.252 1.02c-.071-.015-.166-.036-.262.011 0 .064 0 .097.015.121s.049.043.118.078c.133-.066.266-.066.399-.066a.35.35 0 0 0-.1-.066c-.033-.017-.067-.033-.1-.067-.019 0-.043-.005-.07-.011z"/><path d="M80.143 44.616l-.648-.051-1.279-.149c-.133 0-.266 0-.399.066s-.199.066-.332.066h-.066v-.066c.066-.033.116-.066.166-.1l.166-.1c.133-.066.133-.199 0-.332-.097-.097-.195-.123-.318-.156l-.147-.043c-.266-.066-.465-.066-.731-.066l-.532-.1-.531-.1c.399-.266.066-.266-.133 0l-.067.066h-.266c-.12-.04-.239-.008-.359.024-.08.021-.159.042-.239.042-.399.066-.797.133-1.13.266-.066 0-.133.066-.133.133 0 .133-.066.133-.199.133-.199 0-.332 0-.532.066h-.199c-.133 0-.133.133-.066.266 0 .133 0 .133-.066.133-.133 0-.266 0-.332.066a.24.24 0 0 1-.204.013c-.022-.007-.042-.013-.062-.013-.133-.066-.199-.133-.199-.133-.066 0-.066 0-.133.067-.033.066-.067.116-.1.166l-.1.166h-.066c-.067-.066-.067-.133-.067-.133 0-.133-.066-.199-.199-.266a.57.57 0 0 0-.465 0c-.133 0-.266 0-.266.199 0 .097-.036.159-.081.237l-.052.095c-.066.066-.066.133 0 .199s.133.133.133.266c0 .033 0 .05-.008.058s-.025.008-.058.008-.067-.017-.1-.033-.067-.033-.1-.033c-.332-.133-.598-.133-.93-.133-.066 0-.133.066-.133.133v.066c-.047 0-.086-.008-.122-.016-.066-.014-.124-.027-.21.016-.06 0-.12.014-.185.028-.081.018-.17.038-.28.038a.57.57 0 0 1-.465 0 .3.3 0 0 0-.332 0l-.797.199c-.133 0-.199.066-.266.199s-.133.133-.199.067c-.133-.067-.133-.067-.066-.199.039-.078.055-.11.048-.137-.005-.019-.021-.035-.048-.063-.033 0-.05-.017-.066-.033s-.033-.033-.067-.033c-.05 0-.1-.004-.15-.008-.149-.012-.299-.025-.448.075.067.133.067.199.067.332 0 .064 0 .097-.014.121s-.049.043-.118.078a2.86 2.86 0 0 0-.334.135l.002-.002c.066-.066.066-.199 0-.332-.066-.066-.133-.133-.199-.133-.332-.133-.664-.266-.997-.332l-.465-.1-.465-.1c-.066 0-.133 0-.199-.066-.066-.133-.199-.133-.266-.133-.465-.067-.864-.067-1.329-.067-.066 0-.199 0-.266.067-.199.133-.399.199-.664.133-.133 0-.199 0-.332.133s-.266.266-.465.332c-.066 0-.133.066-.133.133-.087.13-.202.232-.327.343l-.205.189a.68.68 0 0 1-.043.038c-.069.058-.157.132-.157.294-.133.133-.266.266-.399.332a.53.53 0 0 0-.157.028c-.062.018-.132.038-.242.038-.066 0-.199.066-.266.133-.1.033-.183.083-.266.133s-.166.1-.266.133c-.133.066-.199.133-.199.332a1.84 1.84 0 0 0 .199.864c.066.133.199.199.332.199.199 0 .332-.066.465-.133a.65.65 0 0 0 .134-.097c.061-.053.117-.102.198-.102.093 0 .153.097.203.178.022.035.042.068.062.088.033.066.083.133.133.199s.1.133.133.199c.067.067 0 .133-.066.133s-.133.067-.133.067c-.133.066-.133.066-.133.266v.199h-.066c-.133 0-.266-.133-.199-.266.079-.118.087-.236.095-.34.005-.072.01-.138.038-.192 0-.067 0-.133-.066-.133h-.133c-.066.066-.199.133-.266.133-.199.133-.332.399-.199.664 0 .066.066.133.066.133.066.133 0 .199-.133.266l-.365.1-.365.1c-.066 0-.199.066-.199.133-.133.266-.332.399-.598.532h-.133l-.133-.133c.066-.066.133-.133.133-.266.066-.066 0-.133-.067-.199-.199-.066-.332-.199-.399-.465v-.066c-.11-.073-.18-.187-.254-.308-.06-.098-.122-.201-.212-.29.266-.332.199-.465-.199-.532 0-.022.007-.044.015-.066.015-.044.029-.089-.015-.133-.199-.133-.399-.066-.532.133l-.199.199c-.066.067-.066.133-.066.199.066.133.066.266.066.399 0 0 .066.066.066.133.062.062.066.066.012.121-.015-.006-.03-.014-.045-.021-.033-.017-.066-.033-.1-.033v.061c-.036-.006-.068-.017-.099-.027a.49.49 0 0 0-.166-.033c-.133 0-.266 0-.399.133-.066.067-.133.133-.266.133-.199.066-.266.133-.199.332v.066c.066.066 0 .133 0 .133l-.133.133-.066.066c.066.199.199.332.399.199a1.3 1.3 0 0 0 .133-.081c.089-.059.177-.118.266-.118.199 0 .266-.133.332-.332 0-.066 0-.199.066-.266.113-.113.13-.225.132-.338.021.004.043.006.067.006h.066l.012-.012c.018.007.036.012.054.012.158 0 .191.083.23.184l.035.082c.066.133 0 .199-.066.199-.029.015-.062.026-.094.037-.111.039-.209.073-.106.229l-.066.066c-.133.133-.133.133.066.266l.066.066c-.029.058-.082.09-.139.125-.075.045-.155.094-.193.207v.066c0 .066.066.066.066.066.066 0 .199 0 .266-.066.133-.066.266-.066.399-.066.199 0 .332 0 .532-.066.133 0 .199 0 .332-.066 0 0 .067 0 .067.066v.066c-.089.089-.177.118-.266.148l-.133.052h-.133c-.033 0-.05-.017-.066-.033s-.033-.033-.067-.033c-.133 0-.199 0-.199.133-.066.199-.066.199-.199.133h-.332c-.066 0-.133 0-.199.066l-.066.067c0 .133.066.199.199.266.066 0 .133 0 .199.067.266.133.465.332.532.664.066.266 0 .465-.199.731l.332-.216h4.17l-.05-.05c-.133-.133-.133-.199 0-.399.067 0 .199 0 .266.066a.9.9 0 0 0 .112.087c.064.046.142.101.22.178a.7.7 0 0 0 .099.117l2.027-.05 10.963.111v6.733a1.96 1.96 0 0 1 .332.066 2.86 2.86 0 0 0 1.063 0 1.29 1.29 0 0 0 .266-.033c.083-.017.166-.033.266-.033.066 0 .133 0 .199.066.089.177.236.295.384.413l.214.185c.012.012.027.025.043.038.069.058.157.132.157.294 0 .066.066.133.066.133.067.033.116.083.166.133a.65.65 0 0 0 .166.133c.067.133.199.199.332.133.033 0 .083-.017.133-.033s.1-.033.133-.033c.067 0 .133 0 .133.066v.133c0 .22.046.395.099.599l.034.132c.067.465.266.93.532 1.329.066.066.133.199.133.266.089.31.236.62.384.93l.214.465.036.078c.037.084.059.135.163.187.133.133.266.199.399 0 .199-.199.332-.332.465-.598l.012-.025.007-.013.015-.027c.051-.093.087-.158.032-.267-.042-.085-.031-.169-.017-.271a1.37 1.37 0 0 0 .017-.194c-.066-.266-.066-.399-.066-.598v-.332c-.067-.199 0-.266.133-.399.133-.066.332-.199.399-.332 0-.066.066-.066.133-.066.086-.043.144-.114.21-.194l.122-.138c.133-.199.332-.399.532-.532.133-.066.199-.199.199-.332s.066-.199.199-.266l-.399-16.611zm-21.728 8.306c0-.033-.017-.05-.033-.067s-.033-.033-.033-.066c.066.066.066.066.066.133zm5.945-6.41l.035-.036.131-.064a.48.48 0 0 1-.166.1zm-.487.049c.103.013.2.023.323-.018a.48.48 0 0 0 .164-.031c-.053.055-.098.109-.098.164-.033 0-.083-.017-.133-.033s-.1-.033-.133-.033l-.123-.048zm-.199-.018c.057-.026.111-.014.199.018l-.02-.003-.179-.016zm0 0c-.049.032-.082.115-.142.266-.133.066-.199-.066-.199-.133s0-.133.066-.133h.266.01zm8.458 14.234l-.029 1.049h-5.748a.65.65 0 0 0 .166.133l.052.095c.045.078.081.14.081.237.025.025.04.059.057.095.028.061.059.129.142.171.199.133.266.332.266.598 0 .158.042.274.092.414l.041.117c.199.067.199.199.133.332-.066 0-.066 0-.133-.066l-.266-.266c-.066-.133-.199-.199-.332-.266-.266-.067-.399-.266-.465-.598 0-.266-.133-.465-.332-.532-.133-.066-.199-.266-.266-.465l-13.156.108v-5.49a.68.68 0 0 1-.399.332c-.399.199-.598.532-.664.997 0 .199-.067.399-.266.532l-.128.09c-.139.1-.264.191-.47.242-.133 0-.199.066-.199.199s-.066.266-.199.332-.266.199-.266.332v.199c0 .067-.066.199-.133.199-.133.066-.199.133-.266.266-.133.199-.266.465-.332.731 0 .033-.004.066-.008.1-.012.1-.025.199.075.299 0 0 .066.066.066.133l.008.299c.013.299.025.598-.075.897a3.26 3.26 0 0 0-.1.233l-.1.233a.3.3 0 0 0 0 .332c.066.066.066.199.066.332-.066.199 0 .399.199.532.033.033.066.05.1.066s.066.033.1.066c.332.266.598.598.731.997 0 .033.017.067.033.1s.033.066.033.1a.37.37 0 0 1 .055.073c.022.035.037.06.078.06a.68.68 0 0 1 .399.332c0 .066.066.066.133.066.1.1.216.183.332.266s.232.166.332.266c.133.133.266.133.465.066l.598-.199a.3.3 0 0 1 .332 0c.133.066.332.066.465.066.046.046.125.028.191.013a.37.37 0 0 1 .075-.013c.1-.033.216-.083.332-.133l.332-.133c.266-.133.532-.199.731-.199.332 0 .465.066.598.399 0 .066.066.133.133.199 0 .066.066.066.133.066.089.044.177.029.266.015a.81.81 0 0 1 .133-.015h.133.266l.066.066c.199.133.266.332.199.598 0 .066 0 .066-.066.133 0 .047-.008.086-.016.122-.014.066-.027.124.016.21 0 .199 0 .332-.133.465-.066.133-.066.266 0 .332.047.14.126.247.215.367l.117.164c.066.1.133.183.199.266l.199.266a.51.51 0 0 1 .133.332c0 .199.066.332.133.465a3.24 3.24 0 0 1 .199.465c-.067.266-.067.598.133.864 0 .067 0 .067.066.133.066.199 0 .399-.133.532-.181.181-.253.473-.314.724l-.018.073c.266.465.266.731.266.997 0 .133 0 .266.133.399l.199.399 7.162-.24c.141-.152.288-.31.479-.425.033 0 .05 0 .058-.008s.008-.025.008-.058a1.24 1.24 0 0 0 .313-.171l.152-.095c.266-.199.399-.532.332-.864 0-.133 0-.199-.066-.332 0-.199 0-.399-.067-.531 0-.047.008-.086.016-.122.014-.066.027-.124-.016-.21 0-.133-.066-.199-.133-.266-.133-.133-.199-.266-.199-.465s0-.332.067-.532c.066-.133 0-.199-.133-.199-.066-.067-.066-.199 0-.266l.098-.203c.104-.22.216-.459.367-.66l.199-.199c.199-.133.332-.332.465-.532.067-.133.199-.266.332-.399.133-.199.266-.332.465-.399a1.57 1.57 0 0 0 .598-.532c.199-.266.399-.598.532-.93a5.27 5.27 0 0 0 .266-.532l.266-.531c.1-.199.087-.399.075-.598l-.008-.199v-.066c-.066-.066-.066-.066-.133-.066-.033 0-.067.017-.1.033s-.067.033-.1.033a4.58 4.58 0 0 1-.532.199c-.133 0-.332 0-.465.133-.044.044-.089.03-.133.015-.022-.007-.044-.015-.066-.015-.015 0-.033-.003-.053-.007-.07-.013-.161-.029-.212.073h-.133c-.133 0-.266-.066-.332-.199s-.066-.266-.066-.465a.81.81 0 0 1 .133.015c.089.015.177.029.266-.015l.081-.043c.126-.069.289-.157.451-.157.033 0 .067-.017.1-.033s.066-.033.1-.033c.084-.056.191-.088.301-.122.153-.046.314-.095.429-.211.033-.033.067-.033.1-.033s.066 0 .1-.033c.133 0 .266-.066.399-.133.041 0 .057-.025.079-.061a.37.37 0 0 1 .054-.072c.066 0 .066-.067.066-.133 0-.133.133-.266.266-.266h.066l.042-.014.033-.011c.188-.06.414-.133.589-.308.148-.049.223-.135.306-.23l.093-.102c.133 0 .266-.066.266-.199s.066-.266.133-.332c.133-.133.199-.332.266-.532v-.199c-.097-.097-.159-.195-.237-.318zm-19.696-4.998l.133-2.259.997.066c-.332-.066-.664-.066-.997-.066a1.25 1.25 0 0 0-.532.133c-.028.028-.044.044-.054.064-.013.026-.013.059-.013.135.066.399 0 .731-.133 1.063 0 .066-.067.133-.067.133 0 .025-.01.051-.018.072-.013.035-.023.06.018.06.08.08.088.16.096.239.005.053.011.106.037.16 0 .108.044.128.133.168l.066.031h.332zm6.047-5.914c-.133-.066-.199-.066-.266-.066-.025 0-.041.01-.054.018-.022.013-.037.023-.078-.018 0 .066 0 .066.067.066a.51.51 0 0 1 .332.133c.051.103.143.086.212.073.02-.004.038-.007.053-.007l.332-.1.332-.1a.8.8 0 0 0 .138-.016c.08-.014.151-.027.194.016.133.066.266 0 .332-.066a.35.35 0 0 0 .066-.1c.017-.033.033-.067.066-.1 0-.133 0-.266.066-.399.066-.266.199-.332.465-.266 0 0 .066.066.133.066s.066-.066.066-.066v-.199c-.066-.066-.066-.199 0-.266 0-.067.133-.133.199-.133.13-.043.232-.03.343-.016l.189.016c.133.066.199 0 .266-.199h-.332c0 .066-.066.066-.133.066h-.199c-.266.133-.532.133-.797.066-.133 0-.266-.133-.266-.266 0-.033-.017-.066-.033-.1s-.033-.066-.033-.1c-.066-.266-.066-.399.199-.598.199-.066.332-.199.465-.332 0-.033.017-.066.033-.1s.033-.066.033-.1h-.465a.37.37 0 0 1-.072.054c-.035.022-.06.037-.06.078 0 .199-.133.332-.266.399-.102.102-.242.164-.362.218l-.103.048c-.133.066-.199.199-.199.332v.199c.133.066.266.199.332.266s.066.133 0 .266a.52.52 0 0 1-.266.266c-.066 0-.133.066-.199.133 0 .1-.017.183-.033.266s-.033.166-.033.266c0 .133-.066.199-.199.199-.066 0-.133.066-.199.133s-.199.066-.266.066z"/></g></g><rect x="12.5" y="38.5" width="68" height="37" rx="2.367" class="D"/><mask id="A" class="B"><path d="M52.936 52.8a.67.67 0 0 0-.669.669v8.027a.67.67 0 0 0 .669.669h7.305l1.783 2.402c.137.185.415.185.552 0l1.783-2.402h7.305a.67.67 0 0 0 .669-.669v-8.027a.67.67 0 0 0-.669-.669H52.936z" class="E"/></mask><path d="M52.936 52.8a.67.67 0 0 0-.669.669v8.027a.67.67 0 0 0 .669.669h7.305l1.783 2.402c.137.185.415.185.552 0l1.783-2.402h7.305a.67.67 0 0 0 .669-.669v-8.027a.67.67 0 0 0-.669-.669H52.936z" class="B E"/><path d="M60.24 62.165l.288-.214-.107-.145h-.18v.358zm1.783 2.402l.288-.214h0l-.288.214zm.552 0l-.288-.214h0l.288.214zm1.783-2.402v-.358h-.18l-.108.145.288.214zm-11.734-8.696a.31.31 0 0 1 .311-.31v-.717c-.567 0-1.027.46-1.027 1.027h.717zm0 8.027v-8.027h-.717v8.027h.717zm.311.311a.31.31 0 0 1-.311-.311h-.717c0 .567.46 1.027 1.027 1.027v-.717zm7.305 0h-7.305v.717h7.305v-.717zm2.071 2.547l-1.783-2.402-.575.427 1.783 2.402.575-.427zm-.023 0c.019-.004.02-.003.021-.002l-.574.429c.281.378.847.378 1.128 0l-.575-.427zm1.783-2.402l-1.783 2.402.575.427 1.783-2.402-.575-.427zm7.593-.145h-7.305v.717h7.305v-.717zm.311-.311a.31.31 0 0 1-.311.311v.717c.567 0 1.027-.46 1.027-1.027h-.717zm0-8.027v8.027h.717v-8.027h-.717zm-.311-.31a.31.31 0 0 1 .311.31h.717c0-.567-.46-1.027-1.027-1.027v.717zm-18.729 0h18.729v-.717H52.936v.717z" fill="#647580" mask="url(#A)"/><path d="M69.837 57.009a.91.91 0 0 1-.471-.125.96.96 0 0 1-.336-.338.91.91 0 0 1-.125-.471.9.9 0 0 1 .125-.467c.083-.14.196-.255.336-.338a.9.9 0 0 1 .471-.127.89.89 0 0 1 .469.127.94.94 0 0 1 .338.338c.084.141.126.296.126.467a.91.91 0 0 1-.126.471.96.96 0 0 1-.338.338.9.9 0 0 1-.469.125zm0-.54a.39.39 0 0 0 .341-.195.39.39 0 0 0 .053-.2.38.38 0 0 0-.053-.198.39.39 0 0 0-.341-.195.38.38 0 0 0-.198.053c-.059.035-.107.083-.142.142a.38.38 0 0 0-.053.198.39.39 0 0 0 .053.2c.035.06.083.107.142.142a.38.38 0 0 0 .198.053zm-2.942 2.643c-.269 0-.508-.049-.718-.148a1.25 1.25 0 0 1-.498-.409 1.05 1.05 0 0 1-.192-.597h.798c.009.151.072.273.19.367s.258.141.42.141c.129 0 .243-.028.342-.085a.61.61 0 0 0 .234-.241.73.73 0 0 0 .085-.357c0-.137-.029-.257-.087-.361a.62.62 0 0 0-.237-.243.7.7 0 0 0-.348-.089c-.114 0-.225.023-.333.07a.6.6 0 0 0-.249.192l-.732-.131.184-2.052h2.379v.673h-1.701l-.101.975h.023a.75.75 0 0 1 .31-.239 1.1 1.1 0 0 1 .464-.095c.234 0 .443.055.627.165a1.19 1.19 0 0 1 .435.454 1.33 1.33 0 0 1 .158.661c.001.262-.059.495-.182.699a1.29 1.29 0 0 1-.511.479c-.219.117-.471.173-.76.173zm-3.51 0a1.87 1.87 0 0 1-.758-.146 1.27 1.27 0 0 1-.523-.407 1.02 1.02 0 0 1-.196-.6h.829a.43.43 0 0 0 .093.251.57.57 0 0 0 .232.165.86.86 0 0 0 .325.059.78.78 0 0 0 .333-.067c.097-.045.172-.106.226-.184s.082-.169.082-.272a.46.46 0 0 0-.087-.276.56.56 0 0 0-.247-.19.96.96 0 0 0-.38-.068h-.363v-.604h.363a.79.79 0 0 0 .329-.065.53.53 0 0 0 .224-.179c.053-.077.08-.167.08-.27s-.023-.183-.07-.257a.48.48 0 0 0-.194-.175.63.63 0 0 0-.289-.063.75.75 0 0 0-.306.061c-.093.041-.167.096-.222.169s-.086.16-.089.258h-.789c.004-.224.068-.422.192-.593a1.24 1.24 0 0 1 .502-.401c.211-.096.45-.146.716-.146a1.6 1.6 0 0 1 .705.146c.202.098.358.229.469.395a.95.95 0 0 1 .167.555c.001.218-.066.4-.203.545a.93.93 0 0 1-.53.277v.03c.286.037.504.136.654.298s.225.362.224.604a.95.95 0 0 1-.192.591c-.128.172-.305.308-.53.407a1.91 1.91 0 0 1-.775.148z" class="C"/><g stroke-width=".076" stroke-miterlimit="10"><path d="M59.759 56.45h-.049a1.6 1.6 0 0 0-.937-1.853 1.6 1.6 0 0 0-1.978.633 1.07 1.07 0 0 0-1.072-.01c-.164.093-.3.227-.395.39a1.07 1.07 0 0 0-.146.535 1.1 1.1 0 0 0 .015.174c-.279.055-.527.211-.697.438s-.249.51-.223.792.157.545.367.737.482.298.766.3c.026.002.051.002.076 0h4.271a1.07 1.07 0 0 0 .755-.313c.2-.2.313-.472.313-.755s-.113-.555-.313-.755a1.07 1.07 0 0 0-.755-.313z" fill="url(#B)" stroke="#e6effc"/><path d="M57.242 57.136l-.61 1.831h.61l-.305 1.526 1.526-2.136h-.915l.61-1.22h-.915z" fill="url(#C)" stroke="#f6a823"/></g><rect x="141.5" y="38.5" width="18" height="17" rx="1.45" class="B"/><rect x="141.5" y="38.5" width="18" height="17" rx="1.45" class="D"/><g class="C"><use href="#G"/><use href="#H"/><use href="#I"/><use href="#J"/><use href="#K"/><use href="#L"/><use href="#M"/><use href="#N"/><use href="#O"/><rect x="144" y="47.45" width="13" height="1.95" rx=".975"/><rect x="146.6" y="50.9" width="7.8" height="1.95" rx=".975"/></g><rect x="141.5" y="58.5" width="18" height="17" rx="1.45" class="B"/><rect x="141.5" y="58.5" width="18" height="17" rx="1.45" class="D"/><g class="C"><use href="#G" y="19.999"/><use href="#H" y="20"/><use href="#I" y="20"/><use href="#J" y="20"/><use href="#K" y="20"/><use href="#L" y="20"/><use href="#M" y="20"/><use href="#N" y="20"/><use href="#O" y="20"/><rect x="144" y="67.45" width="13" height="1.95" rx=".975"/><rect x="146.6" y="70.9" width="7.8" height="1.95" rx=".975"/></g><rect x="12.5" y="79.5" width="18" height="17" rx="1.45" class="B"/><rect x="12.5" y="79.5" width="18" height="17" rx="1.45" class="D"/><g class="C"><use href="#G" x="-129" y="41"/><use href="#P"/><use href="#I" x="-129" y="41"/><use href="#Q"/><use href="#K" x="-129" y="41"/><use href="#R"/><use href="#M" x="-129" y="41"/><use href="#S"/><use href="#T"/><rect x="15" y="88.45" width="13" height="1.95" rx=".975"/><rect x="17.6" y="91.9" width="7.8" height="1.95" rx=".975"/></g><rect x="34" y="79.5" width="18" height="17" rx="1.45" class="B"/><rect x="34" y="79.5" width="18" height="17" rx="1.45" class="D"/><g class="C"><use href="#G" x="-107.5" y="41"/><use href="#P" x="21.5"/><use href="#I" x="-107.5" y="41"/><use href="#Q" x="21.5"/><use href="#K" x="-107.5" y="41"/><use href="#R" x="21.5"/><use href="#M" x="-107.5" y="41"/><use href="#S" x="21.5"/><use href="#T" x="21.5"/><rect x="36.5" y="88.45" width="13" height="1.95" rx=".975"/><rect x="39.1" y="91.9" width="7.8" height="1.95" rx=".975"/></g><rect x="55.5" y="79.5" width="18" height="17" rx="1.45" class="B"/><rect x="55.5" y="79.5" width="18" height="17" rx="1.45" class="D"/><g class="C"><use href="#G" x="-86" y="41"/><use href="#P" x="43"/><use href="#I" x="-86" y="41"/><use href="#Q" x="43"/><use href="#K" x="-86" y="41"/><use href="#R" x="43"/><use href="#M" x="-86" y="41"/><use href="#S" x="43"/><use href="#T" x="43"/><rect x="58" y="88.45" width="13" height="1.95" rx=".975"/><rect x="60.6" y="91.9" width="7.8" height="1.95" rx=".975"/></g><rect x="77" y="79.5" width="18" height="17" rx="1.45" class="B"/><rect x="77" y="79.5" width="18" height="17" rx="1.45" class="D"/><g class="C"><use href="#G" x="-64.5" y="41"/><use href="#P" x="64.5"/><use href="#I" x="-64.5" y="41"/><use href="#Q" x="64.5"/><use href="#K" x="-64.5" y="41"/><use href="#R" x="64.5"/><use href="#M" x="-64.5" y="41"/><use href="#S" x="64.5"/><use href="#T" x="64.5"/><rect x="79.5" y="88.45" width="13" height="1.95" rx=".975"/><rect x="82.1" y="91.9" width="7.8" height="1.95" rx=".975"/></g><rect x="98.5" y="79.5" width="18" height="17" rx="1.45" class="B"/><rect x="98.5" y="79.5" width="18" height="17" rx="1.45" class="D"/><g class="C"><use href="#G" x="-43" y="41"/><use href="#H" x="-43" y="41"/><use href="#I" x="-43" y="41"/><use href="#J" x="-43" y="41"/><use href="#K" x="-43" y="41"/><use href="#L" x="-43" y="41"/><use href="#M" x="-43" y="41"/><use href="#N" x="-43" y="41"/><use href="#O" x="-43" y="41"/><rect x="101" y="88.45" width="13" height="1.95" rx=".975"/><rect x="103.6" y="91.9" width="7.8" height="1.95" rx=".975"/></g><rect x="120" y="79.5" width="18" height="17" rx="1.45" class="B"/><rect x="120" y="79.5" width="18" height="17" rx="1.45" class="D"/><g class="C"><use href="#G" x="-21.5" y="41"/><use href="#H" x="-21.5" y="41"/><use href="#I" x="-21.5" y="41"/><use href="#J" x="-21.5" y="41"/><use href="#K" x="-21.5" y="41"/><use href="#L" x="-21.5" y="41"/><use href="#M" x="-21.5" y="41"/><use href="#N" x="-21.5" y="41"/><use href="#O" x="-21.5" y="41"/><rect x="122.5" y="88.45" width="13" height="1.95" rx=".975"/><rect x="125.1" y="91.9" width="7.8" height="1.95" rx=".975"/></g><rect x="141.5" y="79.5" width="18" height="17" rx="1.45" class="B"/><rect x="141.5" y="79.5" width="18" height="17" rx="1.45" class="D"/><g class="C"><use href="#G" y="41"/><use href="#H" y="41"/><use href="#I" y="41"/><use href="#J" y="41"/><use href="#K" y="41"/><use href="#L" y="41"/><use href="#M" y="41"/><use href="#N" y="41"/><use href="#O" y="41"/><rect x="144" y="88.45" width="13" height="1.95" rx=".975"/><rect x="146.6" y="91.9" width="7.8" height="1.95" rx=".975"/></g><defs><linearGradient id="B" x1="56.107" y1="54.994" x2="58.645" y2="59.394" gradientUnits="userSpaceOnUse"><stop stop-color="#f3f7fe"/><stop offset=".45" stop-color="#f3f7fe"/><stop offset="1" stop-color="#deeafb"/></linearGradient><linearGradient id="C" x1="56.744" y1="57.423" x2="58.12" y2="59.809" gradientUnits="userSpaceOnUse"><stop stop-color="#f7b23b"/><stop offset=".45" stop-color="#f7b23b"/><stop offset="1" stop-color="#f59e0b"/></linearGradient><path id="D" d="M26.4 24.9a2.6 2.6 0 0 1-5.2 0 2.6 2.6 0 0 1 5.2 0z"/><path id="E" d="M67.867 24.9a2.6 2.6 0 1 1-5.2 0 2.6 2.6 0 1 1 5.2 0z"/><path id="F" d="M112.39 50.25a2.25 2.25 0 1 1-4.5 0 2.25 2.25 0 1 1 4.5 0z"/><path id="G" d="M151.808 44.19a1.42 1.42 0 0 0-.768-1.855 1.42 1.42 0 0 0-1.855.768 1.42 1.42 0 0 0 .768 1.855 1.42 1.42 0 0 0 1.855-.768z"/><path id="H" d="M150.511 41.898c.125 0 .23-.105.23-.231v-.287c0-.126-.105-.231-.23-.231s-.231.098-.231.231v.287c0 .126.105.231.231.231z"/><path id="I" d="M148.944 42.402c.091.091.238.091.329 0s.091-.238 0-.329l-.203-.203c-.091-.091-.238-.091-.329 0s-.091.238 0 .329l.203.203z"/><path id="J" d="M148.748 43.632c0-.126-.105-.231-.231-.231h-.286c-.126 0-.231.105-.231.231s.105.231.231.231h.286c.126.007.231-.098.231-.231z"/><path id="K" d="M148.923 44.877l-.203.203c-.091.091-.091.238 0 .329s.238.091.329 0l.203-.203c.091-.091.091-.238 0-.329s-.238-.091-.329 0z"/><path id="L" d="M150.482 45.402c-.125 0-.23.105-.23.231v.287c0 .126.105.231.23.231s.231-.105.231-.231v-.287c.007-.126-.098-.231-.231-.231z"/><path id="M" d="M152.056 44.898c-.091-.091-.238-.091-.329 0s-.091.238 0 .329l.203.203c.091.091.238.091.329 0s.091-.238 0-.329l-.203-.203z"/><path id="N" d="M152.769 43.43h-.287c-.125 0-.23.105-.23.231s.105.231.23.231h.287c.126 0 .231-.105.231-.231s-.105-.231-.231-.231z"/><path id="O" d="M152.077 42.423l.203-.203c.09-.091.09-.238 0-.329s-.238-.091-.329 0l-.203.203c-.091.091-.091.238 0 .329s.238.091.329 0z"/><path id="P" d="M21.511 82.898c.126 0 .231-.105.231-.231v-.287c0-.126-.105-.231-.231-.231s-.231.098-.231.231v.287c0 .126.105.231.231.231z"/><path id="Q" d="M19.748 84.632c0-.126-.105-.231-.231-.231h-.287c-.126 0-.231.105-.231.231s.105.231.231.231h.287c.126.007.231-.098.231-.231z"/><path id="R" d="M21.483 86.402c-.126 0-.231.105-.231.231v.287c0 .126.105.231.231.231s.231-.105.231-.231v-.287c.007-.126-.098-.231-.231-.231z"/><path id="S" d="M23.769 84.43h-.287c-.126 0-.231.105-.231.231s.105.231.231.231h.287c.126 0 .231-.105.231-.231s-.105-.231-.231-.231z"/><path id="T" d="M23.077 83.423l.203-.203c.091-.091.091-.238 0-.329s-.238-.091-.329 0l-.203.203c-.091.091-.091.238 0 .329s.238.091.329 0z"/></defs></svg>