<svg xmlns="http://www.w3.org/2000/svg" width="105" height="172" fill="none" xmlns:v="https://vecta.io/nano"><rect x="1.429" y=".6" width="102.8" height="170.8" rx="2.4" fill="#fff"/><rect x="1.429" y=".6" width="102.8" height="170.8" rx="2.4" stroke="#8796a1" stroke-width="1.2"/><rect x="7.329" y="6.5" width="91" height="159" rx="2.5" fill="#fff" stroke="#58707f"/><g fill="#58707f"><path d="M17.829 14.5a2.5 2.5 0 1 1-5 0 2.5 2.5 0 1 1 5 0z"/><rect x="18.829" y="13.5" width="20" height="2" rx="1"/><rect x="78.829" y="13.5" width="14" height="2" rx="1"/><path d="M40.206 38.413c-.001 1.55-.617 3.036-1.713 4.133s-2.581 1.713-4.131 1.716H19.364c-1.748-.044-3.41-.77-4.631-2.022s-1.904-2.932-1.904-4.681.683-3.428 1.904-4.681a6.7 6.7 0 0 1 4.631-2.022h.185a6.38 6.38 0 0 1 1.952-3.224c.96-.853 2.156-1.397 3.431-1.559s2.568.064 3.712.649 2.084 1.503 2.697 2.631a4.29 4.29 0 0 1 .968-.112 4.25 4.25 0 0 1 4.2 3.749 5.86 5.86 0 0 1 3.697 5.422h0zm6.453-5.653h1.432a1.43 1.43 0 0 0 .725-.114c.232-.101.441-.263.614-.472a2.72 2.72 0 0 0 .423-1.618c.019-.547-.131-1.083-.423-1.506a1.63 1.63 0 0 0-.584-.441 1.41 1.41 0 0 0-.684-.117 1.62 1.62 0 0 0-1.198.502 1.85 1.85 0 0 0-.355.61c-.082.23-.12.479-.115.729h-2.465a4.19 4.19 0 0 1 .267-1.673 3.57 3.57 0 0 1 .884-1.34c.824-.809 1.867-1.235 2.935-1.2 1.133-.074 2.251.342 3.147 1.172.377.406.672.908.863 1.468a4.7 4.7 0 0 1 .24 1.768 3.79 3.79 0 0 1-.517 1.925c-.358.623-.853 1.115-1.433 1.423.649.254 1.21.754 1.597 1.423.378.646.576 1.417.563 2.204a4.75 4.75 0 0 1-.293 1.869c-.22.587-.554 1.103-.975 1.507-.926.847-2.073 1.281-3.24 1.228-1.083.042-2.145-.362-3.006-1.144-.42-.376-.752-.873-.966-1.444s-.301-1.197-.255-1.82h2.348a2.25 2.25 0 0 0 .123.806c.089.255.223.484.394.672.357.392.829.603 1.315.586a1.55 1.55 0 0 0 .748-.131c.239-.106.456-.27.637-.483a2.17 2.17 0 0 0 .406-.743 2.46 2.46 0 0 0 .111-.876 2.44 2.44 0 0 0-.06-.959c-.083-.31-.227-.591-.419-.822a1.73 1.73 0 0 0-.687-.508c-.259-.103-.536-.131-.806-.083h-1.432l.141-2.399zm16.336 9.351h-8.742v-2.066l4.145-5.491a13.27 13.27 0 0 0 1.286-2.151 4.22 4.22 0 0 0 .381-1.613 2.87 2.87 0 0 0-.453-1.642c-.15-.213-.341-.38-.556-.489a1.27 1.27 0 0 0-.682-.134 1.34 1.34 0 0 0-.759.161 1.62 1.62 0 0 0-.599.575 3.99 3.99 0 0 0-.453 1.981h-2.501a5.72 5.72 0 0 1 .258-1.951c.197-.623.498-1.192.886-1.672a4.22 4.22 0 0 1 1.461-1.156 3.6 3.6 0 0 1 1.731-.344c1.141-.078 2.261.38 3.121 1.274a4.55 4.55 0 0 1 .869 1.555 5.17 5.17 0 0 1 .251 1.842 5.44 5.44 0 0 1-.619 2.632c-.639 1.127-1.348 2.196-2.12 3.198l-2.382 3.057h5.479v2.434zm1.713-14.798a1.45 1.45 0 0 1 .235-.865c.086-.112.191-.2.309-.258s.244-.084.371-.077a.76.76 0 0 1 .383.074c.121.058.231.147.321.261.164.245.248.552.235.865a1.42 1.42 0 0 1-.235.865.87.87 0 0 1-.309.257.75.75 0 0 1-.372.077.76.76 0 0 1-.383-.074c-.121-.058-.231-.147-.321-.261a1.42 1.42 0 0 1-.235-.865zm.516 0c-.032.165-.032.337 0 .502.034.065.083.118.141.153s.123.049.187.043c.058.006.117-.009.167-.044s.091-.088.115-.151a.96.96 0 0 0 .117-.502 1.14 1.14 0 0 0-.07-.418.34.34 0 0 0-.127-.154c-.054-.035-.117-.049-.178-.041-.058-.006-.117.009-.167.044a.32.32 0 0 0-.115.151c-.077.152-.117.325-.117.502l.047-.084zm5.823 2.427a2.15 2.15 0 0 1-.099.754 1.91 1.91 0 0 1-.347.641c-.364.351-.824.53-1.291.502a1.43 1.43 0 0 1-.731-.14c-.232-.111-.439-.283-.608-.502a2.26 2.26 0 0 1-.399-.745 2.54 2.54 0 0 1-.117-.873v-1.06c-.022-.596.156-1.177.493-1.618.364-.379.831-.587 1.315-.587s.951.209 1.315.587c.162.176.288.392.369.634s.116.502.101.761h-.892a1.43 1.43 0 0 0-.211-.837.88.88 0 0 0-.316-.225.76.76 0 0 0-.365-.054.73.73 0 0 0-.324.149.9.9 0 0 0-.24.298 1.98 1.98 0 0 0-.235 1.032v1.06c-.02.37.072.735.258 1.032.08.124.183.223.302.291s.248.102.379.1a.66.66 0 0 0 .344-.053.78.78 0 0 0 .29-.226c.157-.226.233-.517.211-.809l.798-.112z"/></g><g fill="#9fa9af"><rect x="72.829" y="26.111" width=".889" height="5.53" rx=".444"/><path d="M75.497 27.312c-.013-.312.07-.619.235-.864a.88.88 0 0 1 .309-.257c.118-.058.244-.084.371-.077a.76.76 0 0 1 .383.074c.121.058.231.147.32.261a1.45 1.45 0 0 1 .235.864c.015.313-.068.621-.235.864a.89.89 0 0 1-.309.257c-.118.058-.244.084-.371.077a.76.76 0 0 1-.383-.074c-.121-.058-.231-.147-.32-.261a1.42 1.42 0 0 1-.235-.864zm.516 0a1.32 1.32 0 0 0 0 .502c.034.065.083.118.141.152s.123.049.187.043c.058.006.117-.009.167-.044s.09-.088.115-.151c.083-.148.124-.324.117-.502.003-.144-.021-.286-.07-.418a.34.34 0 0 0-.127-.154c-.055-.035-.117-.049-.178-.041-.058-.006-.117.009-.167.044a.32.32 0 0 0-.115.151c-.077.152-.117.325-.117.502l.047-.084zm5.161 2.034h-1.793v2.294h-.896v-5.529h3.092v.857h-2.196v1.52h1.882l-.09.857z"/></g><g fill="#58707f"><rect x="64.829" y="40" width="10" height="2" rx="1"/><rect x="77.829" y="40" width="10" height="2" rx="1"/><rect x="12.829" y="48" width="52" height="2" rx="1"/><rect x="12.829" y="58" width="38" height="14" rx="1.5"/></g><g fill="#fff"><use href="#B"/><rect x="26.829" y="62.25" width="16" height="2" rx="1"/><rect x="26.829" y="65.75" width="10" height="2" rx="1"/></g><rect x="54.829" y="58" width="38" height="14" rx="1.5" fill="#58707f"/><g fill="#fff"><path d="M65.829 65a3 3 0 0 1-6 0 3 3 0 0 1 6 0z"/><rect x="68.829" y="62.25" width="16" height="2" rx="1"/><rect x="68.829" y="65.75" width="10" height="2" rx="1"/></g><g fill="#58707f"><rect x="12.829" y="111" width="12" height="2" rx="1"/><rect x="12.829" y="116" width="15" height="2" rx="1"/><rect x="80.829" y="111" width="12" height="2" rx="1"/><rect x="77.829" y="116" width="15" height="2" rx="1"/></g><g clip-path="url(#A)" fill="#58707f"><path d="M66.199 81.278a.64.64 0 1 0 .907-.907l-.907-.907a.641.641 0 1 0-.907.907l.907.907zM65.979 84c0-.354-.287-.583-.642-.583h-1.283c-.355 0-.642.229-.642.583s.287.583.642.583h1.283c.355 0 .642-.229.642-.583zm3.85-3.85c.355 0 .583-.287.583-.642v-1.283c0-.354-.229-.642-.583-.642s-.583.287-.583.642v1.283c0 .354.229.642.583.642zm3.176 1.316a.64.64 0 0 0 .454-.188l.907-.907a.641.641 0 1 0-.907-.907l-.907.907a.64.64 0 0 0 .454 1.095zm-3.176-.674c-1.769 0-3.208 1.439-3.208 3.208s1.439 3.208 3.208 3.208 3.208-1.439 3.208-3.208-1.439-3.208-3.208-3.208zm-3.63 5.93l-.907.907a.64.64 0 1 0 .908.907l.907-.907a.641.641 0 1 0-.907-.907h0zm7.26 0a.641.641 0 1 0-.907.907l.907.907a.64.64 0 1 0 .907-.907l-.907-.907zm2.145-3.305h-1.283c-.355 0-.642.229-.642.583s.287.583.642.583h1.283c.355 0 .642-.229.642-.583s-.287-.583-.642-.583zm-5.775 4.433c-.355 0-.583.287-.583.642v1.283c0 .354.229.642.583.642s.583-.287.583-.642v-1.283c0-.354-.229-.642-.583-.642z"/></g><g fill="#58707f"><path d="M87.409 110.5c.784 0 1.424-.636 1.381-1.419-.191-3.521-1.091-6.99-2.664-10.253-1.784-3.7-4.399-7.063-7.695-9.895s-7.21-5.079-11.517-6.611S57.991 80 53.329 80s-9.278.789-13.585 2.322-8.22 3.779-11.517 6.611-5.911 6.195-7.695 9.895c-1.573 3.263-2.473 6.732-2.664 10.253-.042.783.597 1.419 1.382 1.419h0c.784 0 1.416-.636 1.462-1.419.189-3.2 1.014-6.352 2.444-9.319 1.641-3.404 4.047-6.498 7.08-9.103s6.633-4.673 10.596-6.083 8.209-2.136 12.499-2.136 8.536.726 12.498 2.136 7.563 3.477 10.596 6.083 5.438 5.699 7.08 9.103c1.43 2.967 2.256 6.119 2.444 9.319.046.783.678 1.419 1.462 1.419h0z"/><rect x="12.829" y="125" width="28" height="3" rx="1.5"/><rect x="72.829" y="125" width="20" height="3" rx="1.5"/><rect x="12.829" y="133" width="12" height="12" rx="2"/></g><use href="#B" x="-2" y="74" fill="#fff"/><g fill="#58707f"><rect x="28.829" y="136" width="12" height="2" rx="1"/><rect x="28.829" y="140" width="18" height="2" rx="1"/><rect x="80.829" y="136" width="1" height="6" rx=".5"/><rect x="84.829" y="136" width="8" height="2" rx="1"/><rect x="84.829" y="140" width="8" height="2" rx="1"/><rect x="12.829" y="148" width="12" height="12" rx="2"/></g><use href="#B" x="-2" y="89" fill="#fff"/><g fill="#58707f"><rect x="28.829" y="151" width="15" height="2" rx="1"/><rect x="28.829" y="155" width="20" height="2" rx="1"/><rect x="80.829" y="151" width="1" height="6" rx=".5"/><rect x="84.829" y="151" width="8" height="2" rx="1"/><rect x="84.829" y="155" width="8" height="2" rx="1"/></g><defs><clipPath id="A"><path fill="#fff" transform="translate(62.829 77)" d="M0 0h14v14H0z"/></clipPath><path id="B" d="M23.829 65a3 3 0 1 1-6 0 3 3 0 1 1 6 0z"/></defs></svg>