<svg xmlns="http://www.w3.org/2000/svg" width="320" height="188" fill="none" xmlns:v="https://vecta.io/nano"><rect x=".5" y=".5" width="319" height="187" rx="3.5" fill="#0350b1"/><rect x=".5" y=".5" width="319" height="187" rx="3.5" stroke="#0f488e"/><g fill="#fff"><path d="M18.992 31.392a1.35 1.35 0 0 1 .4-.992 1.38 1.38 0 0 1 .96-.384h3.264a1.21 1.21 0 0 1 .928.4 1.42 1.42 0 0 1 .368.976c0 .384-.112.704-.352.976s-.56.4-.928.4h-3.264c-.368 0-.688-.128-.96-.4a1.33 1.33 0 0 1-.416-.976zm4.576 11.088c0-.368.128-.688.368-.976l2.352-2.288c.24-.256.56-.368.944-.368s.704.128.96.368.384.544.384.912a1.51 1.51 0 0 1-.384 1.024l-2.272 2.272c-.656.512-1.312.512-1.968 0a1.29 1.29 0 0 1-.384-.944zm0-22.144c0-.368.128-.688.368-.976.32-.272.656-.4 1.024-.4.352 0 .672.128.944.384l2.288 2.352c.256.24.384.56.384.944s-.128.704-.384.96-.576.384-.96.384-.704-.128-.944-.384l-2.336-2.288c-.256-.256-.384-.592-.384-.976zm4.08 11.056c0-1.488.368-2.88 1.12-4.16s1.76-2.304 3.056-3.056 2.672-1.12 4.16-1.12a8.07 8.07 0 0 1 3.232.672c1.024.448 1.92 1.04 2.656 1.792.752.752 1.344 1.632 1.776 2.656s.656 2.112.656 3.232a8.09 8.09 0 0 1-1.12 4.176 8.39 8.39 0 0 1-3.04 3.04 8.09 8.09 0 0 1-4.176 1.12 8.09 8.09 0 0 1-4.176-1.12 8.39 8.39 0 0 1-3.04-3.04 8.5 8.5 0 0 1-1.104-4.192zm2.72 0a5.43 5.43 0 0 0 1.648 4c1.088 1.104 2.416 1.664 3.984 1.664s2.896-.56 4-1.664 1.664-2.432 1.664-4c0-1.536-.56-2.848-1.664-3.952a5.48 5.48 0 0 0-4-1.632c-1.552 0-2.88.544-3.968 1.632a5.33 5.33 0 0 0-1.664 3.952zm4.256 12.448c0-.384.128-.704.4-.96s.592-.384.96-.384c.384 0 .72.128.976.384s.384.576.384.96v3.184a1.35 1.35 0 0 1-.4.992c-.272.272-.592.4-.96.4a1.28 1.28 0 0 1-.96-.4 1.35 1.35 0 0 1-.4-.992V43.84zm0-24.8v-3.264c0-.368.128-.688.4-.96A1.33 1.33 0 0 1 36 14.4a1.28 1.28 0 0 1 .96.4c.272.272.4.592.4.96v3.28a1.21 1.21 0 0 1-.4.928 1.34 1.34 0 0 1-.96.368c-.368 0-.704-.128-.96-.368s-.416-.56-.416-.928zm8.832 21.088a1.18 1.18 0 0 1 .368-.896c.24-.256.544-.368.896-.368.384 0 .704.128.96.368l2.336 2.288a1.39 1.39 0 0 1 .384.976 1.29 1.29 0 0 1-.384.944c-.64.496-1.28.496-1.92 0l-2.272-2.272c-.24-.288-.368-.624-.368-1.04zm0-17.472c0-.4.128-.72.368-.944l2.272-2.352c.272-.256.592-.384.944-.384.384 0 .704.128.96.4.272.272.4.592.4.96 0 .4-.128.736-.384.992l-2.336 2.288a1.41 1.41 0 0 1-.96.384 1.16 1.16 0 0 1-.896-.384c-.24-.256-.368-.576-.368-.96zm3.616 8.736a1.43 1.43 0 0 1 .384-.992c.256-.256.56-.384.912-.384H51.6c.368 0 .688.144.96.416s.416.592.416.96-.144.688-.416.96-.592.4-.96.4h-3.232c-.368 0-.688-.128-.928-.4a1.38 1.38 0 0 1-.368-.96zm39.584-.224a11.21 11.21 0 0 1 .896-4.4 11.2 11.2 0 0 1 2.416-3.616c1.008-1.008 2.224-1.824 3.632-2.432s2.88-.912 4.4-.912h1.824c.256.064.368.224.368.448l.08 1.408c.064 2.032.784 3.76 2.192 5.184s3.104 2.192 5.104 2.272l1.312.112a.33.33 0 0 1 .384.368v1.568a11.02 11.02 0 0 1-1.488 5.696c-1.008 1.744-2.368 3.12-4.112 4.144-1.728 1.008-3.632 1.52-5.68 1.52-1.552 0-3.04-.304-4.448-.896a11.2 11.2 0 0 1-3.616-2.416c-1.008-1.008-1.808-2.224-2.4-3.616-.56-1.408-.864-2.88-.864-4.432zm2.928 0c0 1.216.24 2.368.72 3.456.48 1.072 1.12 1.984 1.904 2.72a8.68 8.68 0 0 0 2.704 1.728c1.008.432 2.048.64 3.104.64.928 0 1.872-.176 2.816-.544s1.824-.88 2.64-1.536 1.504-1.488 2.096-2.512.96-2.128 1.136-3.344c-2.608-.544-4.704-1.664-6.272-3.36s-2.48-3.68-2.72-5.984c-1.536.096-2.912.56-4.176 1.408-1.248.848-2.224 1.92-2.912 3.232s-1.04 2.672-1.04 4.096zm53.296 3.856c0 1.424.352 2.752 1.056 3.968a7.73 7.73 0 0 0 2.864 2.88c1.216.704 2.528 1.072 3.968 1.072h17.296c1.424 0 2.752-.352 3.968-1.072s2.176-1.68 2.88-2.88a7.81 7.81 0 0 0 1.072-3.968c0-1.024-.224-2.08-.672-3.2 1.216-1.488 1.808-3.248 1.808-5.28 0-1.52-.368-2.928-1.104-4.208s-1.76-2.304-3.04-3.056-2.688-1.12-4.208-1.12c-2.384 0-4.448.928-6.192 2.784-1.216-.688-2.656-1.04-4.304-1.04-2.256 0-4.24.688-5.968 2.08s-2.832 3.168-3.328 5.36a7.49 7.49 0 0 0-4.384 2.752c-1.136 1.44-1.712 3.088-1.712 4.928zm2.736 0c0-1.328.448-2.48 1.328-3.456.896-.976 2.016-1.536 3.36-1.696l1.088-.048.112-1.152c.224-1.728.976-3.184 2.256-4.336 1.28-1.168 2.784-1.744 4.496-1.744 1.744 0 3.28.592 4.576 1.76s2.032 2.608 2.208 4.336l.16 1.2h2.848c1.408 0 2.624.512 3.648 1.52a4.91 4.91 0 0 1 1.536 3.616c0 1.44-.512 2.672-1.52 3.712a4.91 4.91 0 0 1-3.648 1.552h-17.296c-1.392 0-2.592-.512-3.616-1.552-1.024-1.056-1.536-2.288-1.536-3.712zm19.248-12.528a5.45 5.45 0 0 1 3.904-1.584c1.584 0 2.928.544 4.032 1.648a5.43 5.43 0 0 1 1.664 4.016c0 .992-.272 1.968-.832 2.944-1.536-1.552-3.392-2.32-5.584-2.32h-.496c-.432-1.776-1.328-3.344-2.688-4.704zm39.76 12.544a7.71 7.71 0 0 1 1.696-4.928 7.49 7.49 0 0 1 4.384-2.752 9.35 9.35 0 0 1 2.24-4.32c1.12-1.232 2.48-2.112 4.048-2.64.992-.336 2.016-.512 3.088-.512 1.296 0 2.56.256 3.76.768.448-.752.976-1.408 1.584-1.952s1.232-.976 1.872-1.264 1.28-.512 1.888-.656a7.81 7.81 0 0 1 1.792-.208 8.11 8.11 0 0 1 1.968.256l1.312.4c.224.096.288.208.224.352l-.224.96c-.112.496-.16.96-.16 1.376a5.1 5.1 0 0 0 .24 1.52c.16.512.384 1.008.704 1.504.304.496.736.928 1.28 1.328a6 6 0 0 0 1.84.912l.992.352c.16.048.24.128.24.256 0 .032-.016.064-.032.112l-.288 1.072c-.432 1.728-1.248 3.088-2.4 4.112a7.74 7.74 0 0 1 1.04 3.584c.016.08.016.192.016.368 0 1.424-.352 2.752-1.072 3.968a7.89 7.89 0 0 1-2.88 2.88 7.81 7.81 0 0 1-3.968 1.072h-17.296c-1.424 0-2.752-.352-3.968-1.072a7.97 7.97 0 0 1-2.864-2.88c-.704-1.2-1.056-2.528-1.056-3.968zm2.736 0c0 1.424.512 2.656 1.536 3.696s2.224 1.568 3.616 1.568h17.296c1.424 0 2.64-.512 3.648-1.552s1.52-2.272 1.52-3.712c0-1.408-.512-2.608-1.536-3.616s-2.24-1.52-3.648-1.52h-2.848l-.16-1.2a6.47 6.47 0 0 0-2.016-4.144c-1.184-1.136-2.592-1.776-4.208-1.92-.048 0-.128 0-.24-.016s-.176-.016-.24-.016c-.816 0-1.632.16-2.464.464v-.032c-1.168.448-2.16 1.184-2.944 2.192-.8 1.008-1.28 2.16-1.44 3.472l-.112 1.152-1.088.048c-1.344.16-2.464.72-3.36 1.696s-1.312 2.112-1.312 3.44zm18.8-12.976c1.696 1.456 2.752 3.152 3.152 5.088h.512c1.984 0 3.68.624 5.072 1.888a5.32 5.32 0 0 0 1.216-1.712 7.92 7.92 0 0 1-3.456-3.152c-.832-1.408-1.264-2.896-1.264-4.448v-.384c-.08-.016-.208-.016-.384-.016-.928-.016-1.84.208-2.72.704a5.52 5.52 0 0 0-2.128 2.032zm41.216 12.944c0-1.84.576-3.472 1.728-4.912s2.608-2.368 4.384-2.768c.496-2.192 1.632-3.984 3.376-5.392s3.76-2.112 6.016-2.112c2.208 0 4.176.688 5.904 2.048s2.848 3.12 3.36 5.264h.528a7.96 7.96 0 0 1 3.984 1.04c1.216.688 2.192 1.648 2.896 2.864s1.072 2.528 1.072 3.968c0 1.408-.336 2.72-1.008 3.92s-1.6 2.16-2.768 2.88-2.464 1.104-3.856 1.152h-17.936a7.79 7.79 0 0 1-5.44-2.448c-1.488-1.52-2.24-3.36-2.24-5.504zm2.736 0c0 1.392.48 2.592 1.44 3.616s2.128 1.568 3.504 1.648h17.904c1.376-.064 2.544-.624 3.504-1.648.976-1.024 1.456-2.24 1.456-3.616 0-1.408-.528-2.608-1.568-3.632s-2.272-1.536-3.712-1.536h-2.56c-.176 0-.272-.096-.272-.288l-.112-.912a6.54 6.54 0 0 0-2.24-4.352c-1.312-1.168-2.832-1.76-4.576-1.76a6.57 6.57 0 0 0-4.56 1.76c-1.296 1.168-2.032 2.624-2.192 4.352l-.128.912c0 .192-.112.288-.32.288h-.848c-1.344.16-2.464.736-3.36 1.712s-1.36 2.128-1.36 3.456zm-250.736 62c0-1.84.576-3.472 1.728-4.912s2.608-2.368 4.384-2.768c.496-2.192 1.632-3.984 3.376-5.392s3.76-2.112 6.016-2.112c2.208 0 4.176.688 5.904 2.048s2.848 3.12 3.36 5.264h.528a7.96 7.96 0 0 1 3.984 1.04c1.216.688 2.192 1.648 2.896 2.864s1.072 2.528 1.072 3.968c0 1.408-.336 2.72-1.008 3.92s-1.6 2.16-2.768 2.88-2.464 1.104-3.856 1.152H27.056a7.79 7.79 0 0 1-5.44-2.448c-1.488-1.52-2.24-3.36-2.24-5.504zm2.736 0c0 1.392.48 2.592 1.44 3.616s2.128 1.568 3.504 1.648H44.96c1.376-.064 2.544-.624 3.504-1.648.976-1.024 1.456-2.24 1.456-3.616 0-1.408-.528-2.608-1.568-3.632S46.08 91.84 44.64 91.84h-2.56c-.176 0-.272-.096-.272-.288l-.112-.912a6.54 6.54 0 0 0-2.24-4.352c-1.312-1.168-2.832-1.76-4.576-1.76a6.57 6.57 0 0 0-4.56 1.76c-1.296 1.168-2.032 2.624-2.192 4.352l-.128.912c0 .192-.112.288-.32.288h-.848c-1.344.16-2.464.736-3.36 1.712s-1.36 2.128-1.36 3.456zm58.112 1.152a6.59 6.59 0 0 1 1.488-4.24c.992-1.232 2.256-2.032 3.808-2.384.416-1.872 1.36-3.424 2.848-4.608 1.488-1.2 3.2-1.792 5.152-1.792a7.92 7.92 0 0 1 5.056 1.744c1.488 1.168 2.448 2.656 2.88 4.48h.432c1.888 0 3.488.656 4.816 1.984s2 2.928 2 4.8c0 1.888-.672 3.488-2 4.816s-2.928 2-4.816 2H87.056c-.928 0-1.808-.176-2.64-.544s-1.584-.816-2.192-1.424-1.088-1.344-1.456-2.176-.544-1.744-.544-2.656zm2.32 0c0 1.216.448 2.272 1.312 3.136s1.936 1.312 3.184 1.312h14.848c1.232 0 2.304-.432 3.184-1.312s1.328-1.92 1.328-3.136-.432-2.272-1.328-3.136c-.88-.864-1.936-1.312-3.184-1.312h-2.224c-.16 0-.24-.08-.24-.24l-.112-.784c-.16-1.504-.8-2.768-1.904-3.76s-2.416-1.488-3.92-1.488-2.816.496-3.936 1.504c-1.12.992-1.744 2.256-1.888 3.744l-.112.672c0 .16-.08.24-.256.24l-.72.112a4.3 4.3 0 0 0-2.896 1.424c-.736.848-1.136 1.856-1.136 3.024zm14.16-13.952c-.16.144-.128.256.112.336.688.304 1.264.592 1.728.88.176.048.304.032.352-.048.976-.912 2.096-1.376 3.392-1.376s2.4.432 3.36 1.296c.944.864 1.472 1.936 1.584 3.2l.144 1.024h2.272a3.66 3.66 0 0 1 2.688 1.12c.752.752 1.12 1.632 1.12 2.656 0 .96-.336 1.792-.992 2.512s-1.472 1.12-2.448 1.232c-.16 0-.24.08-.24.256v1.808c0 .176.08.256.24.256a5.91 5.91 0 0 0 4.08-1.904c1.104-1.168 1.664-2.56 1.664-4.16a5.83 5.83 0 0 0-1.792-4.32 5.88 5.88 0 0 0-4.32-1.792h-.24c-.416-1.6-1.296-2.912-2.64-3.952-1.328-1.04-2.832-1.552-4.48-1.552-2.24-.016-4.112.832-5.584 2.528zm46.72 12.832c0 2.128.736 3.952 2.224 5.488a7.79 7.79 0 0 0 5.44 2.448c.176 0 .272-.096.272-.272v-2.144c0-.176-.096-.272-.272-.272-1.376-.064-2.528-.608-3.488-1.632s-1.44-2.224-1.44-3.616c0-1.328.448-2.464 1.344-3.456.896-.976 2.016-1.552 3.344-1.712l.848-.048c.208 0 .32-.096.32-.304l.096-.848c.176-1.728.896-3.184 2.192-4.336 1.296-1.168 2.816-1.744 4.56-1.744s3.264.576 4.56 1.744 2.032 2.608 2.224 4.336l.128.928c0 .176.096.272.288.272h2.576c1.424 0 2.656.512 3.696 1.536s1.568 2.224 1.568 3.632c0 1.392-.48 2.592-1.44 3.616s-2.128 1.568-3.488 1.632c-.208 0-.32.096-.32.272v2.144c0 .176.112.272.32.272 1.392-.032 2.672-.416 3.84-1.136s2.096-1.68 2.768-2.88 1.008-2.512 1.008-3.904c0-1.424-.352-2.752-1.072-3.952a7.73 7.73 0 0 0-2.896-2.848c-1.216-.688-2.56-1.056-3.984-1.056h-.512c-.512-2.144-1.648-3.888-3.36-5.248a9.22 9.22 0 0 0-5.888-2.048c-2.256 0-4.256.704-6 2.096s-2.864 3.184-3.36 5.36c-1.776.416-3.232 1.328-4.368 2.768s-1.728 3.072-1.728 4.912zm8.72 11.52a1.38 1.38 0 0 0 .736.736c.32.16.656.176.992.032.352-.144.576-.384.72-.72.16-.352.176-.688.032-1.024-.128-.336-.384-.56-.72-.704a1.05 1.05 0 0 0-.976-.048c-.336.144-.576.384-.736.752-.176.272-.176.592-.048.976zm1.008-4.512c0 .256.08.496.24.72.16.24.416.4.736.512.304.176.64.192.992.016.352-.16.592-.48.704-.96l1.44-5.408c.096-.4.064-.752-.128-1.072s-.464-.512-.848-.576a1.58 1.58 0 0 0-.384-.048c-.256 0-.512.08-.752.24s-.416.4-.512.704l-1.408 5.424c-.064.256-.08.4-.08.448zm2.976 8.944c0 .192.032.352.096.464.144.352.384.592.72.72.144.08.32.128.528.128.096 0 .256-.032.48-.096a1.24 1.24 0 0 0 .752-.72 1.22 1.22 0 0 0 0-1.056c-.16-.352-.4-.592-.72-.736s-.64-.144-.992 0c-.304.128-.512.32-.656.576s-.208.496-.208.72zm1.168-4.176c0 .592.336.976 1.008 1.168.176.048.304.064.384.064.24 0 .448-.048.608-.128.336-.128.56-.432.672-.912l2.672-10.064c.096-.384.064-.72-.096-1.04-.16-.304-.432-.512-.784-.608-.128-.032-.272-.048-.432-.048-.256 0-.512.08-.768.24s-.416.4-.48.704l-2.736 10.144-.048.48zm5.488-.736c0 .192.032.368.128.512.128.304.368.544.704.704.176.064.368.112.56.112.096 0 .256-.032.48-.096.336-.128.592-.368.736-.704.112-.352.112-.688-.016-1.008a1.34 1.34 0 0 0-.672-.72c-.368-.176-.704-.192-1.04-.048s-.576.384-.736.752c-.096.16-.144.32-.144.496zm1.168-4.112c0 .224.08.464.256.72s.416.432.72.528l.432.08c.144 0 .352-.048.592-.16.32-.144.528-.432.64-.832l1.44-5.344.048-.416a1.3 1.3 0 0 0-.24-.736c-.16-.24-.4-.4-.72-.496-.144-.032-.288-.048-.416-.048-.256 0-.512.08-.752.24s-.4.4-.496.72l-1.44 5.376-.064.368zm40.624-6.736c0 1.808.528 3.408 1.6 4.816s2.464 2.368 4.192 2.88c.16.016.288-.016.4-.128l1.808-2.336c-1.424 0-2.656-.512-3.696-1.536a4.99 4.99 0 0 1-1.552-3.696 5.18 5.18 0 0 1 1.376-3.584c.912-1.008 2.064-1.568 3.424-1.68l.832-.112c.176 0 .256-.08.256-.224l.112-.896a6.74 6.74 0 0 1 2.256-4.416c1.312-1.184 2.848-1.776 4.608-1.776 1.776 0 3.328.592 4.656 1.76s2.08 2.624 2.24 4.384l.112.944c.032.176.144.272.336.272h2.608c1.44 0 2.672.528 3.712 1.568 1.04 1.056 1.568 2.304 1.568 3.76 0 1.344-.448 2.528-1.36 3.536s-2.032 1.568-3.36 1.696c-.768 0-1.248.144-1.456.448l-3.488 3.84a1.2 1.2 0 0 0-.304.992c.048.368.208.72.496 1.008.208.272.528.4.944.368s.736-.24.96-.608l3.168-3.312c1.312-.128 2.528-.56 3.648-1.312 1.104-.752 1.984-1.712 2.64-2.88s.96-2.432.96-3.776c0-1.008-.224-2.112-.688-3.328 1.232-1.568 1.84-3.328 1.84-5.312 0-1.568-.384-2.992-1.136-4.304a8.33 8.33 0 0 0-3.104-3.088c-1.312-.752-2.736-1.12-4.288-1.12-2.512 0-4.592.912-6.24 2.736a9.86 9.86 0 0 0-4.432-1.04c-2.288 0-4.32.704-6.064 2.128a9.56 9.56 0 0 0-3.376 5.488c-1.824.416-3.312 1.344-4.464 2.8s-1.744 3.136-1.744 5.04zm6.08 12c0 .224.032.4.08.512a1.18 1.18 0 0 0 .704.704c.368.16.72.176 1.088.032.368-.128.608-.384.72-.72.16-.352.176-.704.032-1.072s-.384-.608-.736-.736a1.5 1.5 0 0 0-1.056 0c-.336.128-.592.368-.752.72-.048.128-.08.32-.08.56zm2.944-3.904c0 .368.176.72.512 1.072.688.576 1.344.496 2.016-.24l3.504-3.904c.24-.272.336-.608.288-.976a1.37 1.37 0 0 0-.496-.912c-.288-.224-.624-.304-1.008-.256a1.56 1.56 0 0 0-.944.464l-3.52 3.808c-.24.336-.352.656-.352.944zm1.024 7.888c0 .192.048.368.128.512.144.368.352.608.656.736a1.5 1.5 0 0 0 .592.112c.112 0 .288-.032.512-.096.336-.144.576-.384.704-.72.16-.32.176-.656.032-1.024-.128-.368-.368-.608-.72-.736-.352-.176-.704-.192-1.056-.048-.336.144-.608.4-.784.768-.032.16-.064.32-.064.496zm2.672-3.824v.208c.032.384.192.704.512.96.224.288.544.416.96.384.4-.032.72-.24.96-.608l6.752-7.856c.256-.288.352-.624.32-1.024-.032-.384-.224-.688-.56-.912a1.31 1.31 0 0 0-.96-.304c-.368.032-.672.192-.928.48l-6.752 7.872c-.208.208-.304.464-.304.8zm5.808 1.328c-.112.368-.112.688 0 .992a1.5 1.5 0 0 0 .72.784c.176.08.368.112.576.112.096 0 .256-.032.48-.096.368-.144.608-.384.736-.736a1.35 1.35 0 0 0 .048-1.056 1.18 1.18 0 0 0-.704-.704c-.368-.176-.72-.192-1.056-.048-.352.144-.624.4-.8.752zm3.84-26.272c1.088-1.088 2.416-1.632 3.968-1.632 1.616 0 2.976.56 4.096 1.68s1.68 2.496 1.68 4.096c0 .992-.272 1.968-.832 2.912-1.552-1.568-3.456-2.336-5.68-2.336h-.496c-.4-1.824-1.312-3.392-2.736-4.72z"/><path d="M262.496 97.008c0 2.128.736 3.952 2.224 5.488s3.296 2.336 5.44 2.448c.176 0 .272-.096.272-.272v-2.144c0-.192-.096-.288-.272-.288-1.36-.064-2.512-.608-3.472-1.632s-1.424-2.224-1.424-3.6a4.95 4.95 0 0 1 1.344-3.472c.896-.976 2.016-1.536 3.36-1.696l.8-.064c.208 0 .32-.096.32-.288l.096-.848c.176-1.728.896-3.184 2.192-4.336 1.296-1.168 2.816-1.744 4.576-1.744 1.744 0 3.28.576 4.576 1.744s2.032 2.608 2.192 4.336l.112.912a.25.25 0 0 0 .288.288h2.672c1.408 0 2.608.512 3.632 1.536s1.536 2.224 1.536 3.632a4.98 4.98 0 0 1-1.44 3.552c-.96 1.008-2.112 1.568-3.456 1.68-.176 0-.272.096-.272.288v2.144c0 .176.096.272.272.272 1.408-.032 2.672-.416 3.84-1.152s2.08-1.68 2.736-2.88c.672-1.2.992-2.496.992-3.904 0-1.136-.224-2.192-.656-3.136 1.216-1.504 1.808-3.248 1.808-5.248 0-1.136-.224-2.224-.656-3.264s-1.04-1.92-1.792-2.672c-.736-.752-1.632-1.344-2.656-1.776a8.15 8.15 0 0 0-3.264-.656c-2.416 0-4.448.88-6.096 2.656-1.264-.688-2.72-1.024-4.368-1.024-2.256 0-4.256.704-6 2.096s-2.832 3.184-3.312 5.36a7.82 7.82 0 0 0-4.432 2.752 7.68 7.68 0 0 0-1.712 4.912zm8.656 10.72a1.54 1.54 0 0 0 .256.848c.176.288.416.464.72.576s.64.08.976-.096c.352-.176.576-.464.704-.88l.4-1.68c.112-.336.08-.656-.112-.992s-.464-.56-.816-.672a1.44 1.44 0 0 0-1.072.128c-.32.176-.512.48-.592.848l-.448 1.584-.016.336zm2.096-7.552c0 .608.336 1.024 1.024 1.264.352.128.688.096 1.024-.08s.544-.464.656-.848l.384-1.648c.112-.336.08-.656-.112-.992-.176-.336-.448-.56-.816-.672-.384-.096-.752-.064-1.072.128s-.512.464-.592.832l-.48 1.632-.016.384zM275.2 112.8c0 .256.096.528.272.8s.448.464.784.576a.93.93 0 0 1 .16.016 1.38 1.38 0 0 0 .24.016c.224 0 .416-.032.592-.112.304-.128.528-.432.656-.928l.432-1.584c.112-.368.08-.72-.112-1.04s-.464-.544-.816-.64c-.368-.112-.72-.08-1.04.112s-.544.464-.64.816l-.448 1.632c-.064.144-.08.256-.08.336zm.736-35.312c0 .4.128.736.4.992l1.056 1.04c.544.544 1.168.544 1.872 0a1.39 1.39 0 0 0 .384-.976 1.42 1.42 0 0 0-.384-.976l-1.008-1.056c-.256-.256-.576-.384-.96-.384-.368 0-.688.128-.96.4-.272.256-.4.576-.4.96zm1.424 27.648a1.48 1.48 0 0 0 .256.816c.176.272.416.448.752.56a1.33 1.33 0 0 0 1.024-.08c.304-.16.528-.464.64-.896l.384-1.616c.112-.368.08-.72-.096-1.04a1.36 1.36 0 0 0-.8-.656c-.4-.112-.768-.064-1.088.128s-.528.48-.592.848l-.448 1.648c-.032.048-.032.144-.032.288zm4.448 2.752c.032.608.368 1.04 1.008 1.328l.4.064c.256 0 .512-.08.752-.256s.416-.432.512-.8l.464-1.616c.096-.384.048-.736-.144-1.056s-.48-.528-.848-.592c-.336-.112-.656-.08-.992.112a1.38 1.38 0 0 0-.656.816l-.432 1.632c-.016.032-.016.08-.032.128s-.016.096-.032.128 0 .08 0 .112zm2.24-7.616c0 .256.08.512.24.768s.4.432.72.512l.4.048c.304 0 .592-.096.832-.288s.384-.448.448-.752l.432-1.584c.112-.384.08-.72-.112-1.04-.176-.32-.448-.528-.816-.624-.368-.112-.72-.08-1.024.096-.32.176-.528.448-.624.8l-.48 1.696-.016.368zm.528-15.776a5.31 5.31 0 0 1 3.84-1.536 5.48 5.48 0 0 1 4.016 1.664 5.48 5.48 0 0 1 1.664 4.016c0 .896-.256 1.84-.752 2.816-1.536-1.536-3.376-2.288-5.552-2.288h-.544c-.416-1.824-1.312-3.376-2.672-4.672zm2.464-8.368c0 .4.128.72.384.976s.576.384.976.384.72-.128.976-.384.384-.576.384-.976v-3.232c0-.4-.128-.736-.384-.992s-.576-.384-.976-.384-.72.128-.976.384-.384.592-.384.992v3.232zm8.88 3.664c0 .4.128.72.368.976.336.272.656.4.992.4.304 0 .608-.128.944-.4l2.288-2.288a1.47 1.47 0 0 0 .384-1.008c0-.384-.128-.704-.384-.96a1.29 1.29 0 0 0-.944-.384 1.42 1.42 0 0 0-.976.384l-2.304 2.288c-.24.288-.368.608-.368.992zm1.264 18.928c0 .368.144.704.416 1.008l.992 1.024c.336.336.656.496.992.496.304 0 .624-.16.928-.496.288-.288.432-.624.416-.976-.016-.368-.144-.688-.416-.96l-1.04-1.056c-.256-.256-.56-.384-.912-.384-.384 0-.704.128-.976.4-.256.256-.4.576-.4.944zm2.352-10.096a1.28 1.28 0 0 0 1.312 1.312h3.264c.416 0 .752-.128 1.008-.368.256-.256.384-.56.384-.944 0-.4-.128-.736-.4-.992s-.592-.384-.992-.384h-3.264c-.368 0-.688.128-.944.4a1.45 1.45 0 0 0-.368.976zM14.496 159.04c0 2.128.736 3.952 2.224 5.488a7.79 7.79 0 0 0 5.44 2.448c.176 0 .272-.096.272-.272v-2.192c0-.192-.096-.288-.272-.288-1.392-.112-2.56-.656-3.504-1.664-.944-.992-1.424-2.176-1.424-3.536 0-1.344.448-2.512 1.36-3.504s2.016-1.552 3.36-1.664l.832-.128c.208 0 .32-.096.32-.272l.096-.816c.176-1.728.896-3.184 2.192-4.336 1.296-1.168 2.816-1.744 4.576-1.744 1.744 0 3.264.576 4.56 1.744 1.296 1.152 2.032 2.608 2.224 4.352l.112.928c0 .176.096.272.304.272h2.56c1.456 0 2.688.512 3.712 1.52a4.93 4.93 0 0 1 1.536 3.648c0 1.36-.48 2.544-1.424 3.536s-2.112 1.552-3.504 1.664c-.208 0-.32.096-.32.288v2.192c0 .176.112.272.32.272 2.128-.064 3.936-.88 5.408-2.416s2.208-3.376 2.208-5.52c0-1.088-.256-2.192-.752-3.312a7.96 7.96 0 0 0 1.888-5.232c0-1.136-.224-2.224-.672-3.264s-1.04-1.92-1.792-2.672-1.648-1.344-2.672-1.792c-1.04-.432-2.112-.656-3.248-.656-2.464 0-4.544.928-6.208 2.768-1.376-.656-2.784-.992-4.24-.992-2.272 0-4.272.688-6.016 2.08s-2.864 3.184-3.36 5.392a7.71 7.71 0 0 0-4.368 2.768c-1.152 1.44-1.728 3.072-1.728 4.912zm12 18.032h.48l8.512-12.56c.064-.064.08-.144.032-.224s-.112-.112-.224-.112h-3.488l3.68-6.736c.112-.224.048-.352-.224-.352H30.56c-.128 0-.24.08-.352.224l-3.456 9.152c-.032.224.032.336.224.336h3.472l-3.952 10.272zm1.408-37.728c0 .4.128.736.384.992l1.056 1.04c.672.512 1.312.512 1.936 0a1.48 1.48 0 0 0 .384-1.024 1.29 1.29 0 0 0-.384-.944l-1.024-1.04a1.43 1.43 0 0 0-.992-.4c-.368 0-.688.128-.96.4a1.34 1.34 0 0 0-.4.976zm8.544 7.088c1.088-1.088 2.416-1.632 3.968-1.632 1.568 0 2.896.56 3.984 1.664 1.104 1.104 1.648 2.448 1.648 4.032 0 .976-.272 1.936-.816 2.896-1.568-1.504-3.408-2.256-5.536-2.256H39.2c-.416-1.824-1.344-3.392-2.752-4.704zm2.592-8.464c0 .4.128.736.384.992s.576.384.976.384c.384 0 .688-.128.944-.384s.368-.592.368-.992v-3.264c0-.384-.128-.688-.368-.944-.256-.256-.56-.368-.944-.368s-.704.128-.96.368-.4.56-.4.944v3.264zm8.832 3.712c0 .368.144.688.432.96s.592.4.88.4c.256 0 .592-.128.992-.4l2.304-2.288c.272-.288.4-.624.4-1.008s-.128-.72-.4-.976-.592-.384-.96-.384a1.26 1.26 0 0 0-.928.4l-2.288 2.288c-.288.304-.432.64-.432 1.008zm1.296 18.912a1.42 1.42 0 0 0 .384.976l1.04 1.056a1.28 1.28 0 0 0 .928.384c.384 0 .704-.128.96-.4.272-.272.4-.608.4-1.008 0-.368-.128-.672-.4-.912l-.992-1.056a1.47 1.47 0 0 0-.992-.368 1.29 1.29 0 0 0-1.328 1.328zm2.32-10.096c0 .352.144.656.416.912.272.272.592.4.96.4h3.264c.384 0 .704-.128.976-.384a1.22 1.22 0 0 0 .4-.944 1.33 1.33 0 0 0-.416-.976c-.272-.272-.592-.4-.96-.4h-3.264c-.368 0-.688.128-.96.4-.272.288-.416.608-.416.992zm29.024 8.56c0 2.128.736 3.968 2.224 5.488s3.296 2.352 5.44 2.448c.176 0 .272-.096.272-.272v-2.192c0-.192-.096-.288-.272-.288-1.392-.112-2.56-.656-3.504-1.664-.944-.992-1.424-2.176-1.424-3.536 0-1.328.448-2.464 1.344-3.456s2.016-1.552 3.36-1.712l.848-.112c.208 0 .32-.096.32-.272l.112-.832c.176-1.728.896-3.184 2.192-4.336 1.296-1.168 2.816-1.744 4.56-1.744s3.264.576 4.56 1.744a6.52 6.52 0 0 1 2.224 4.352l.128.928a.25.25 0 0 0 .288.288h2.576c1.44 0 2.672.512 3.712 1.52 1.024 1.008 1.552 2.224 1.552 3.648 0 1.36-.48 2.544-1.424 3.536a5.3 5.3 0 0 1-3.504 1.664c-.208 0-.32.096-.32.288v2.192c0 .176.112.272.32.272 2.128-.064 3.936-.88 5.408-2.416s2.208-3.376 2.208-5.52c0-1.392-.352-2.688-1.04-3.888 1.296-1.168 2.144-2.56 2.528-4.192v-.208l.304-1.264-1.216-.336c-1.296-.384-2.304-1.12-3.024-2.16-.72-1.056-1.072-2.144-1.072-3.248 0-.416.048-.832.128-1.248l.32-1.28-1.36-.4-.24-.064c-.752-.144-1.408-.224-2-.224a7.88 7.88 0 0 0-1.824.208c-.624.144-1.264.352-1.92.656-.672.304-1.312.72-1.92 1.28s-1.152 1.216-1.6 1.968c-1.184-.528-2.448-.784-3.776-.784-2.256 0-4.256.704-6 2.096s-2.832 3.184-3.312 5.376a7.82 7.82 0 0 0-4.432 2.752 7.68 7.68 0 0 0-1.744 4.944zm8.64 10.832a1.29 1.29 0 0 0 .24.72c.16.24.4.416.72.528.352.112.688.096 1.024-.08s.544-.448.656-.816l.448-1.696c.112-.336.08-.656-.112-.992a1.38 1.38 0 0 0-.816-.656 1.38 1.38 0 0 0-1.04.128c-.32.176-.544.48-.672.848l-.368 1.584-.08.432zm2.08-7.568a1.21 1.21 0 0 0 .16.576c.112.272.4.48.848.608.384.096.736.064 1.056-.096.304-.16.528-.448.64-.832l.448-1.648c.112-.368.08-.72-.112-1.024a1.33 1.33 0 0 0-.816-.624c-.384-.096-.752-.064-1.072.112s-.528.448-.64.832l-.432 1.616c-.048.208-.08.368-.08.48zm2 12.56a1.45 1.45 0 0 0 .24.784c.16.256.4.432.72.528.176.048.288.08.368.08.144 0 .336-.048.608-.16.32-.128.544-.432.688-.88l.48-1.68a1.19 1.19 0 0 0-.112-1.008 1.38 1.38 0 0 0-.816-.656c-.384-.096-.752-.064-1.072.128a1.41 1.41 0 0 0-.656.848l-.4 1.616a1.71 1.71 0 0 0-.048.4zm2.128-7.632a1.29 1.29 0 0 0 .24.72c.16.24.4.416.736.528a1.27 1.27 0 0 0 1.024-.096c.32-.176.528-.448.64-.832l.432-1.664c.112-.336.08-.672-.096-.992a1.33 1.33 0 0 0-.784-.656 1.5 1.5 0 0 0-1.088.128c-.336.176-.56.48-.672.848l-.384 1.6-.048.416zm4.496 2.816c0 .608.336.992 1.024 1.2.144.032.272.048.384.048.24 0 .432-.032.592-.112.336-.128.576-.432.704-.912l.432-1.632c.096-.4.064-.752-.128-1.072s-.464-.512-.848-.592c-.368-.112-.72-.08-1.024.112a1.48 1.48 0 0 0-.64.816l-.432 1.664c0 .032-.016.112-.032.24-.032.112-.032.192-.032.24zm2.224-7.696a1.3 1.3 0 0 0 .24.736c.16.24.416.416.736.512l.368.08c.144 0 .336-.048.608-.16.336-.128.56-.432.704-.88l.448-1.664c.096-.352.048-.688-.128-1.008s-.48-.528-.848-.64c-.352-.112-.688-.08-1.008.112a1.4 1.4 0 0 0-.64.832l-.416 1.696c-.048.144-.064.288-.064.384zm.048-16.272c.512-.896 1.216-1.6 2.128-2.096s1.872-.752 2.896-.752h.336c-.016.144-.016.336-.016.608 0 1.52.416 2.96 1.248 4.336s2 2.416 3.472 3.136c-.352.688-.768 1.28-1.248 1.76-1.488-1.296-3.232-1.936-5.2-1.936h-.512c-.4-1.904-1.424-3.584-3.104-5.056zm40.464 12.96c0 2.128.736 3.968 2.224 5.488s3.296 2.352 5.44 2.448c.176 0 .272-.096.272-.272v-2.192c0-.192-.096-.288-.272-.288-1.392-.112-2.56-.656-3.504-1.664-.944-.992-1.424-2.176-1.424-3.536 0-1.344.448-2.512 1.36-3.504s2.016-1.552 3.36-1.664l.848-.112c.208 0 .32-.096.32-.272l.112-.832c.176-1.728.896-3.184 2.192-4.336 1.296-1.168 2.816-1.744 4.56-1.744s3.264.576 4.56 1.744c1.296 1.152 2.032 2.608 2.224 4.352l.112.928a.25.25 0 0 0 .288.288h2.576c1.456 0 2.688.512 3.712 1.52a4.93 4.93 0 0 1 1.536 3.648c0 1.36-.48 2.544-1.424 3.536s-2.112 1.552-3.504 1.664c-.208 0-.32.096-.32.288v2.192c0 .176.112.272.32.272 2.128-.064 3.936-.88 5.408-2.416s2.208-3.376 2.208-5.52a7.67 7.67 0 0 0-1.088-3.968c1.28-1.152 2.112-2.528 2.48-4.128l.24-1.152c.016-.016.016-.048.016-.112 0-.112-.08-.208-.256-.256l-.928-.272a5.46 5.46 0 0 1-2.32-1.312c-.64-.624-1.088-1.28-1.36-1.968a5.69 5.69 0 0 1-.4-2.112c0-.384.048-.816.144-1.264l.224-.992c.048-.144-.032-.272-.224-.352l-1.264-.384c-.704-.176-1.36-.256-2-.256a7.91 7.91 0 0 0-1.792.208 9.98 9.98 0 0 0-1.904.656c-.656.288-1.296.72-1.92 1.28s-1.152 1.2-1.6 1.952c-1.136-.48-2.368-.72-3.728-.72-2.256 0-4.256.704-6 2.096s-2.864 3.184-3.36 5.36c-1.76.416-3.216 1.344-4.368 2.784-1.2 1.424-1.776 3.056-1.776 4.896zm12.272 7.44c-.08.224 0 .352.224.352h3.456l-2.096 6.624h.48l6.672-8.944c.064-.064.08-.144.048-.224s-.096-.112-.208-.112h-3.52l3.696-6.736c.112-.224.032-.352-.224-.352h-4.704c-.128 0-.24.08-.352.224l-3.472 9.168zm9.296-20.4c.528-.912 1.232-1.6 2.128-2.08.88-.48 1.808-.72 2.752-.72a2.35 2.35 0 0 1 .432.032v.496c0 1.536.416 2.992 1.248 4.368s1.984 2.416 3.472 3.136c-.256.592-.656 1.168-1.2 1.712-1.472-1.264-3.184-1.888-5.152-1.888h-.512c-.464-2.016-1.52-3.696-3.168-5.056zm45.776 8.96a1.15 1.15 0 0 1 .32-.8c.208-.224.464-.336.768-.336a1.04 1.04 0 0 1 .784.336c.208.224.32.48.32.8a1.05 1.05 0 0 1-.32.768c-.208.208-.48.32-.768.32s-.56-.112-.768-.32a1 1 0 0 1-.336-.768zm3.168 0a1.15 1.15 0 0 1 .32-.8c.208-.224.464-.336.768-.336h5.168l-3.648-3.648a.95.95 0 0 1-.336-.752c0-.304.112-.56.336-.784s.48-.336.784-.336.56.112.784.336l3.632 3.632v-5.136a1.1 1.1 0 0 1 .336-.8c.224-.224.48-.336.8-.336.304 0 .56.112.768.336s.32.48.32.8v5.168l3.664-3.68c.224-.224.48-.336.768-.336s.56.112.784.336c.192.224.288.48.288.784s-.096.56-.288.752l-3.648 3.648h5.168c.288 0 .544.112.752.336s.32.48.32.8a1.04 1.04 0 0 1-1.072 1.072h-5.168l3.664 3.664c.192.192.288.448.288.752s-.096.56-.288.784c-.224.224-.496.336-.784.336a1.03 1.03 0 0 1-.768-.336l-3.664-3.68v5.184c0 .304-.112.576-.32.784a1.05 1.05 0 0 1-.768.32 1.15 1.15 0 0 1-.8-.32 1.04 1.04 0 0 1-.336-.784v-5.152l-3.632 3.632c-.224.224-.48.336-.784.336s-.56-.112-.784-.336-.336-.48-.336-.784.112-.544.336-.752l3.68-3.664h-5.184a1.05 1.05 0 0 1-.768-.32c-.256-.176-.352-.432-.352-.72zm.016 7.744a1.03 1.03 0 0 1 .336-.768.95.95 0 0 1 .752-.336c.304 0 .56.112.784.336s.336.48.336.768a1.03 1.03 0 0 1-.336.768c-.224.224-.48.336-.784.336a.95.95 0 0 1-.752-.336c-.224-.208-.336-.464-.336-.768zm0-15.536a1.03 1.03 0 0 1 .336-.768.95.95 0 0 1 .752-.336c.304 0 .56.112.784.336s.336.48.336.768-.112.56-.336.784-.48.336-.784.336a.95.95 0 0 1-.752-.336c-.224-.224-.336-.496-.336-.784zM220.88 166c0-.288.112-.544.336-.752s.48-.32.8-.32a1.05 1.05 0 0 1 .768.32 1.04 1.04 0 0 1 .32.752c0 .304-.112.576-.32.784a1.05 1.05 0 0 1-.768.32 1.15 1.15 0 0 1-.8-.32c-.224-.208-.336-.464-.336-.784zm0-21.936a1.04 1.04 0 0 1 .336-.784c.224-.208.48-.32.8-.32a1.05 1.05 0 0 1 .768.32c.208.208.32.48.32.784a1.04 1.04 0 0 1-.32.752 1.05 1.05 0 0 1-.768.32 1.15 1.15 0 0 1-.8-.32c-.224-.208-.336-.464-.336-.752zm7.792 18.736a1.03 1.03 0 0 1 .336-.768.95.95 0 0 1 .752-.336c.304 0 .56.112.784.336s.336.48.336.768a1.03 1.03 0 0 1-.336.768c-.224.224-.48.336-.784.336a.95.95 0 0 1-.752-.336c-.224-.208-.336-.464-.336-.768zm0-15.536a1.03 1.03 0 0 1 .336-.768.95.95 0 0 1 .752-.336c.304 0 .56.112.784.336s.336.48.336.768-.112.56-.336.784-.48.336-.784.336a.95.95 0 0 1-.752-.336c-.224-.224-.336-.496-.336-.784zm3.2 7.792a1.15 1.15 0 0 1 .32-.8 1.04 1.04 0 0 1 .784-.336c.288 0 .544.112.752.336s.32.48.32.8a1.04 1.04 0 0 1-1.072 1.072c-.304 0-.576-.112-.784-.32a1.04 1.04 0 0 1-.32-.752zm35.568 1.744a1.23 1.23 0 0 1 .368-.896 1.28 1.28 0 0 1 .912-.352h19.328c.352 0 .64.112.864.352s.352.544.352.912c0 .352-.112.64-.352.864a1.18 1.18 0 0 1-.864.352H268.72c-.352 0-.672-.112-.912-.352-.256-.24-.368-.528-.368-.88zm3.856-4.64c0-.352.128-.64.368-.88a1.23 1.23 0 0 1 .896-.368h19.344c.336 0 .624.128.864.368a1.18 1.18 0 0 1 .352.88c0 .352-.112.64-.352.896-.24.24-.528.368-.864.368h-19.328a1.23 1.23 0 0 1-.896-.368c-.24-.24-.384-.544-.384-.896zm2.592 9.184c0-.336.128-.624.384-.864a1.18 1.18 0 0 1 .864-.352h19.36c.352 0 .656.112.896.352.24.224.352.512.352.864a1.23 1.23 0 0 1-1.264 1.264h-19.344c-.352 0-.64-.128-.896-.368s-.352-.544-.352-.896zm16.928-4.544c0-.368.112-.672.352-.912s.544-.352.912-.352h7.232c.368 0 .672.112.912.352s.352.544.352.896-.112.64-.352.864-.544.352-.896.352h-7.232c-.368 0-.672-.112-.912-.352-.256-.208-.368-.496-.368-.848z"/></g></svg>