<svg xmlns="http://www.w3.org/2000/svg" width="320" height="188" fill="none" xmlns:v="https://vecta.io/nano"><style><![CDATA[.B{stroke-linecap:round}.C{stroke-miterlimit:10}.D{stroke-linejoin:round}.E{stroke-width:1.5}.F{stroke-width:2.25}.G{stroke:#e5e7eb}.H{fill:#fff}.I{stroke:#f59e0b}.J{stroke:#2885c7}.K{stroke:#72b9d5}]]></style><rect x=".5" y=".5" width="319" height="187" rx="3.5" fill="#0350b1"/><rect x=".5" y=".5" width="319" height="187" rx="3.5" stroke="#0f488e"/><g class="F"><path d="M36 19.783v-4.657m0 33.75v-4.657m8.64-20.857l3.292-3.293M24.068 43.933l3.293-3.292m0-17.25l-3.293-3.293m23.865 23.835L44.64 40.64M23.783 32h-4.657m33.75 0h-4.657m-4.343 0c0 1.557-.462 3.08-1.327 4.375s-2.095 2.304-3.534 2.9-3.022.752-4.55.448-2.931-1.054-4.032-2.155-1.851-2.505-2.155-4.032-.148-3.111.448-4.55 1.605-2.669 2.901-3.534 2.818-1.327 4.375-1.327c2.089 0 4.092.83 5.569 2.307s2.307 3.48 2.307 5.569z" class="B C I"/><path d="M108.995 35.15c-1.641.012-3.269-.3-4.79-.917s-2.906-1.529-4.074-2.681a12.49 12.49 0 0 1-2.738-4.037c-.638-1.512-.973-3.136-.983-4.777.003-1.051.142-2.097.413-3.113a12.42 12.42 0 0 0-10.076 7.909 12.42 12.42 0 0 0 2.271 12.606 12.42 12.42 0 0 0 12.203 3.895 12.42 12.42 0 0 0 9.154-8.96l-1.38.075z" class="D K"/></g><mask id="A" maskUnits="userSpaceOnUse" x="139" y="15" width="22" height="20"><path d="M145 34.25l-3.96-3.157-1.5-4.5.75-5.25 3-3.75 3.75-2.25h4.5l3.75.75 2.25 2.25L160.75 23l-4.5 3h-4.5l-2.25 2.25v3l-3 1.5-1.5 1.5z" class="H"/></mask><g mask="url(#A)" class="B C E I"><path d="M150.25 19.753v-2.378m0 17.25v-2.377m4.417-10.665l1.68-1.68m-12.195 12.195l1.68-1.68m0-8.835l-1.68-1.68m12.195 12.195l-1.68-1.68M141.625 26h2.378m14.872 0h-2.378m-2.872 0c0 .668-.198 1.32-.569 1.875a3.38 3.38 0 0 1-1.514 1.243c-.617.255-1.296.322-1.95.192s-1.256-.452-1.728-.924-.794-1.073-.924-1.728a3.37 3.37 0 0 1 1.435-3.465c.555-.371 1.207-.569 1.875-.569a3.37 3.37 0 0 1 2.389.986 3.37 3.37 0 0 1 .986 2.389z"/></g><use href="#H" class="D F G"/><mask id="B" maskUnits="userSpaceOnUse" x="201" y="15" width="22" height="20"><path d="M207 34.25l-3.96-3.157-1.5-4.5.75-5.25 3-3.75 3.75-2.25h4.5l3.75.75 2.25 2.25L222.75 23l-4.5 3h-4.5l-2.25 2.25v3l-3 1.5-1.5 1.5z" class="H"/></mask><g mask="url(#B)" class="D E K"><path d="M219.997 28.01c-1.045.007-2.081-.192-3.049-.586a7.96 7.96 0 0 1-2.593-1.708 7.95 7.95 0 0 1-1.742-2.57c-.406-.963-.619-1.996-.626-3.041a7.88 7.88 0 0 1 .263-1.98 7.9 7.9 0 0 0-3.906 1.626c-1.13.887-1.997 2.065-2.508 3.407a7.9 7.9 0 0 0-.392 4.213 7.91 7.91 0 0 0 1.837 3.811c.947 1.08 2.171 1.881 3.54 2.318s2.83.492 4.228.161a7.91 7.91 0 0 0 5.826-5.704 8.61 8.61 0 0 1-.878.053z"/></g><g class="D F G"><use href="#H" x="62"/><use href="#H" x="124"/><path d="M46.875 93.625h-.24a7.87 7.87 0 0 0-10.043-9.348 7.87 7.87 0 0 0-4.289 3.348 5.25 5.25 0 0 0-7.927 4.5 5.41 5.41 0 0 0 .075.855c-1.369.268-2.59 1.035-3.425 2.153s-1.225 2.506-1.094 3.895.773 2.679 1.802 3.621 2.372 1.468 3.767 1.476a3.35 3.35 0 0 0 .375 0h21a5.25 5.25 0 1 0 0-10.5zm62 0h-.24a7.87 7.87 0 0 0-4.608-9.112c-1.726-.723-3.653-.806-5.436-.236a7.87 7.87 0 0 0-4.289 3.348 5.25 5.25 0 0 0-7.927 4.5 5.41 5.41 0 0 0 .075.855c-1.369.268-2.59 1.035-3.425 2.153s-1.225 2.506-1.094 3.895.773 2.679 1.802 3.621 2.372 1.468 3.767 1.476a3.35 3.35 0 0 0 .375 0h21c1.392 0 2.728-.553 3.712-1.538s1.538-2.32 1.538-3.712a5.25 5.25 0 0 0-5.25-5.25z"/><use href="#I" class="B"/></g><g class="C E J B"><use href="#J"/><use href="#J" x="5.25"/><use href="#J" x="10.5"/></g><use href="#I" x="62" class="B D F G"/><g class="C E J B"><use href="#J" x="62"/><use href="#J" x="67.25"/><use href="#J" x="72.5"/></g><mask id="C" maskUnits="userSpaceOnUse" x="263" y="77" width="22" height="20"><path d="M269 96.25l-3.96-3.157-1.5-4.5.75-5.25 3-3.75 3.75-2.25h4.5l3.75.75 2.25 2.25L284.75 85l-4.5 3h-4.5l-2.25 2.25v3l-3 1.5-1.5 1.5z" class="H"/></mask><g mask="url(#C)" class="B C E I"><path d="M274.25 81.753v-2.377m0 17.25v-2.377m4.417-10.665l1.68-1.68m-12.195 12.195l1.68-1.68m0-8.835l-1.68-1.68m12.195 12.195l-1.68-1.68M265.625 88h2.378m14.872 0h-2.378m-2.872 0c0 .668-.198 1.32-.569 1.875a3.38 3.38 0 0 1-1.514 1.243c-.617.255-1.296.322-1.95.192s-1.256-.452-1.728-.924-.794-1.073-.924-1.728a3.37 3.37 0 0 1 1.435-3.465c.555-.371 1.207-.569 1.875-.569a3.37 3.37 0 0 1 2.389.986 3.37 3.37 0 0 1 .986 2.389z"/></g><g class="B"><use href="#I" x="124" class="D F G"/><g class="C E J"><use href="#J" x="124"/><use href="#J" x="129.25"/><use href="#J" x="134.5"/></g></g><mask id="D" maskUnits="userSpaceOnUse" x="15" y="139" width="22" height="20"><path d="M21 158.25l-3.96-3.157-1.5-4.5.75-5.25 3-3.75 3.75-2.25h4.5l3.75.75 2.25 2.25L36.75 147l-4.5 3h-4.5l-2.25 2.25v3l-3 1.5-1.5 1.5z" class="H"/></mask><g mask="url(#D)" class="B C E I"><path d="M26.25 143.753v-2.378m0 17.25v-2.377m4.418-10.665l1.68-1.681m-12.195 12.196l1.68-1.681m0-8.834l-1.68-1.681m12.195 12.196l-1.68-1.681M17.625 150h2.378m14.872 0h-2.377m-2.873 0c0 .668-.198 1.32-.569 1.875a3.37 3.37 0 0 1-3.465 1.435c-.655-.13-1.256-.452-1.728-.924s-.793-1.073-.924-1.728-.063-1.333.192-1.95a3.38 3.38 0 0 1 1.243-1.514c.555-.371 1.208-.569 1.875-.569a3.37 3.37 0 0 1 2.389.986 3.37 3.37 0 0 1 .986 2.389z"/></g><g class="B"><path d="M44.752 166.125h2.122a5.25 5.25 0 0 0 5.25-5.25 5.25 5.25 0 0 0-5.25-5.25h-.24a7.87 7.87 0 0 0-4.608-9.112c-1.726-.722-3.653-.806-5.436-.236s-3.303 1.758-4.289 3.348a5.25 5.25 0 0 0-2.628-.734c-.925-.009-1.836.227-2.641.684a5.25 5.25 0 0 0-1.941 1.917c-.467.799-.714 1.708-.717 2.633a5.41 5.41 0 0 0 .075.855c-1.369.268-2.59 1.036-3.425 2.153s-1.225 2.506-1.094 3.895.773 2.679 1.802 3.621 2.372 1.468 3.767 1.476a3.35 3.35 0 0 0 .375 0" class="D F G"/><g class="C E J"><use href="#J" x="-124" y="62"/><use href="#J" x="-118.75" y="62"/><use href="#J" x="-113.5" y="62"/></g></g><mask id="E" maskUnits="userSpaceOnUse" x="77" y="139" width="22" height="20"><path d="M83 158.25l-3.96-3.157-1.5-4.5.75-5.25 3-3.75 3.75-2.25h4.5l3.75.75 2.25 2.25L98.75 147l-4.5 3h-4.5l-2.25 2.25v3l-3 1.5-1.5 1.5z" class="H"/></mask><g mask="url(#E)" class="D E K"><path d="M95.997 152.01a7.95 7.95 0 0 1-3.049-.586c-.968-.393-1.849-.973-2.593-1.708s-1.336-1.607-1.742-2.57-.619-1.996-.626-3.041c.003-.668.091-1.334.263-1.98-1.426.177-2.776.739-3.906 1.626s-1.997 2.065-2.508 3.407-.646 2.799-.392 4.213.89 2.732 1.837 3.812 2.171 1.881 3.54 2.318a7.91 7.91 0 0 0 4.228.16 7.9 7.9 0 0 0 5.826-5.703l-.877.052z"/></g><g class="B"><path d="M106.752 166.125h2.123c1.392 0 2.728-.553 3.712-1.538s1.538-2.32 1.538-3.712-.553-2.728-1.538-3.712-2.32-1.538-3.712-1.538h-.24a7.87 7.87 0 0 0-4.608-9.112 7.87 7.87 0 0 0-5.436-.236c-1.782.571-3.303 1.758-4.289 3.348a5.25 5.25 0 0 0-2.628-.734c-.925-.009-1.837.227-2.641.684a5.25 5.25 0 0 0-1.941 1.917c-.467.799-.714 1.708-.717 2.633a5.41 5.41 0 0 0 .075.855c-1.369.268-2.59 1.036-3.425 2.153s-1.225 2.506-1.094 3.895.773 2.679 1.802 3.621 2.372 1.468 3.767 1.476a3.35 3.35 0 0 0 .375 0" class="D F G"/><g class="C E J"><use href="#J" x="-62" y="62"/><use href="#J" x="-56.75" y="62"/><use href="#J" x="-51.5" y="62"/></g><use href="#K" class="D F G"/></g><path d="M158.5 159l-3 9h3l-1.5 7.5 7.5-10.5H160l3-6h-4.5z" fill="#f59e0b"/><mask id="F" maskUnits="userSpaceOnUse" x="201" y="139" width="22" height="20"><path d="M207 158.25l-3.96-3.157-1.5-4.5.75-5.25 3-3.75 3.75-2.25h4.5l3.75.75 2.25 2.25 3.21 4.657-4.5 3h-4.5l-2.25 2.25v3l-3 1.5-1.5 1.5z" class="H"/></mask><g mask="url(#F)" class="B C E I"><path d="M212.25 143.753v-2.378m0 17.25v-2.377m4.417-10.665l1.68-1.681m-12.195 12.196l1.68-1.681m0-8.834l-1.68-1.681m12.195 12.196l-1.68-1.681M203.625 150h2.378m14.872 0h-2.378m-2.872 0c0 .668-.198 1.32-.569 1.875s-.898.988-1.514 1.243-1.296.322-1.95.192-1.256-.452-1.728-.924-.794-1.073-.924-1.728-.064-1.333.192-1.95.688-1.143 1.243-1.514 1.207-.569 1.875-.569c.443-.001.883.086 1.293.255s.782.418 1.096.731.562.686.731 1.096.256.85.255 1.293z"/></g><use href="#K" x="62" class="B D F G"/><g class="C"><g stroke="#72b8d4" stroke-width=".75"><use href="#L"/><use href="#M" class="B"/><use href="#L" x="-5.25"/><use href="#M" x="-5.25" class="B"/><use href="#L" x="5.25"/><use href="#M" x="5.25" class="B"/></g><path d="M272.75 156h22.5m-22.5 5.25h22.5m-22.5-10.5h22.5" class="F G B"/></g><defs ><path id="H" d="M170.875 31.625h-.24a7.87 7.87 0 0 0-4.608-9.112 7.87 7.87 0 0 0-9.725 3.112 5.25 5.25 0 0 0-5.269-.05 5.25 5.25 0 0 0-2.658 4.55 5.33 5.33 0 0 0 .075.855c-1.369.268-2.59 1.036-3.425 2.153s-1.225 2.506-1.094 3.895.773 2.68 1.802 3.622 2.372 1.468 3.767 1.476a3.17 3.17 0 0 0 .375 0h21a5.25 5.25 0 0 0 5.25-5.25 5.25 5.25 0 0 0-5.25-5.25z"/><path id="I" d="M168.752 104.125h2.123c1.392 0 2.728-.553 3.712-1.538s1.538-2.32 1.538-3.712a5.25 5.25 0 0 0-5.25-5.25h-.24a7.87 7.87 0 0 0-4.608-9.112 7.87 7.87 0 0 0-9.725 3.112 5.25 5.25 0 0 0-5.269-.05 5.25 5.25 0 0 0-2.658 4.55 5.33 5.33 0 0 0 .075.855c-1.369.268-2.59 1.035-3.425 2.153s-1.225 2.506-1.094 3.895.773 2.679 1.802 3.621 2.372 1.468 3.767 1.476a3.35 3.35 0 0 0 .375 0"/><path id="J" d="M154.293 102.272l-.585 3.705"/><path id="K" d="M168.752 166.125h2.123c1.392 0 2.728-.553 3.712-1.538s1.538-2.32 1.538-3.712-.553-2.728-1.538-3.712-2.32-1.538-3.712-1.538h-.24a7.87 7.87 0 0 0-4.608-9.112c-1.726-.722-3.653-.806-5.436-.236s-3.303 1.758-4.289 3.348a5.25 5.25 0 0 0-2.627-.734c-.926-.009-1.837.227-2.642.684a5.25 5.25 0 0 0-1.941 1.917c-.467.799-.714 1.708-.717 2.633.002.287.027.572.075.855-1.369.268-2.59 1.036-3.425 2.153s-1.225 2.506-1.094 3.895.773 2.679 1.802 3.621 2.372 1.468 3.767 1.476a3.35 3.35 0 0 0 .375 0"/><path id="L" d="M221.25 166.688a.94.94 0 0 0 .938-.938.94.94 0 0 0-.938-.938.94.94 0 0 0-.938.938.94.94 0 0 0 .938.938z"/><path id="M" d="M222.878 166.688l-.818-.473m-1.62-.93l-.817-.473m1.627-.937v.937m0 2.813v-.937m-.81-.473l-.817.473m3.255-1.876l-.818.473"/></defs></svg>