<svg xmlns="http://www.w3.org/2000/svg" width="320" height="188" fill="none" xmlns:v="https://vecta.io/nano"><rect x=".5" y=".5" width="319" height="187" rx="3.5" fill="#0350b1"/><rect x=".5" y=".5" width="319" height="187" rx="3.5" stroke="#0f488e"/><g fill="#fff"><path d="M36 20.5c-6.35 0-11.5 5.15-11.5 11.5S29.65 43.5 36 43.5 47.5 38.35 47.5 32 42.35 20.5 36 20.5zm0 21.25c-5.35 0-9.75-4.35-9.75-9.75A9.73 9.73 0 0 1 36 22.25c5.35 0 9.75 4.4 9.75 9.75s-4.4 9.75-9.75 9.75zm-.65-24.35h1.3c.15 0 .25-.1.25-.25V11c0-.15-.1-.25-.25-.25h-1.3c-.15 0-.25.1-.25.25v6.2c0 .1.15.2.25.2zm1.3 29.2h-1.3c-.15 0-.25.1-.25.25V53c0 .15.1.25.25.25h1.3c.15 0 .25-.1.25-.25v-6.15c0-.15-.15-.25-.25-.25zM57 31.1h-6.15c-.15 0-.25.1-.25.25v1.3c0 .15.1.25.25.25H57c.15 0 .25-.1.25-.25v-1.3c0-.1-.1-.25-.25-.25zm-35.85 0H15c-.15 0-.25.1-.25.25v1.3c0 .15.1.25.25.25h6.2c.15 0 .25-.1.25-.25v-1.3c-.05-.1-.15-.25-.3-.25z"/><use href="#B"/><use href="#B" x="-24.55" y="24.6"/><path d="M47.4 42.15c-.1-.1-.25-.1-.35 0l-.9.9c-.1.1-.1.25 0 .35l2.95 2.95c.1.1.25.1.35 0l.9-.9c.1-.1.1-.25 0-.35l-2.95-2.95zM24.55 21.8c.1.1.25.1.35 0l.9-.9c.1-.1.1-.25 0-.35l-2.95-2.95c-.1-.1-.25-.1-.35 0l-.9.9c-.1.1-.1.25 0 .35l2.95 2.95zm83.3 12.5a7.95 7.95 0 0 1-6.15.25 8.18 8.18 0 0 1-4.6-4.25c-1.2-2.55-.7-5.9 1.25-8.55l.45-.6c.25-.35 0-.9-.45-.85l-.75.05c-1.4.1-2.9.5-4.35 1.2-2.8 1.3-4.95 3.65-6.05 6.55-1.05 2.95-.9 6.1.4 8.9s3.65 4.95 6.55 6.05c1.3.45 2.65.7 4 .7 1.7 0 3.35-.35 4.9-1.1s2.9-1.8 4.05-3.1c1.05-1.25 1.85-2.8 2.35-4.45l.25-.9c.15-.5-.4-.85-.8-.6l-1.05.7zm-2.1 4.1c-.95 1.1-2.15 2-3.45 2.65-2.35 1.1-5.05 1.2-7.6.3-2.5-.9-4.45-2.75-5.55-5.15-1.1-2.35-1.2-5.05-.3-7.6.9-2.5 2.75-4.45 5.15-5.55.65-.3 1.3-.55 1.9-.7-1.45 2.85-1.6 6.1-.4 8.65 1.1 2.35 3.15 4.2 5.6 5.15 1.9.7 4 .8 5.95.3-.4.75-.8 1.4-1.3 1.95zm74.65-4.7a11.8 11.8 0 0 0-6.4-5.1c-.05 0-.05 0-.1-.05a8.61 8.61 0 0 0 0-3.2c-.25-1.3-.9-2.5-1.95-3.6-1-1-2.2-1.7-3.5-2.05-1.4-.35-2.8-.35-4.05.05-1.35.4-2.55 1.15-3.45 2.15-.6.7-1.1 1.5-1.4 2.35l-1.75-.75c-3.2-1.3-6.75-1.4-10-.25-3.25 1.1-6.05 3.3-7.8 6.25-1.75 2.9-2.45 6.4-1.9 9.85.55 3.4 2.25 6.5 4.9 8.75 2.6 2.25 5.95 3.45 9.35 3.45h18c2.85 0 5.55-1 7.6-2.8 2.15-1.75 3.55-4.3 4-7.1s-.1-5.6-1.55-7.95zm-18.15-10.55c.7-.75 1.6-1.35 2.65-1.65.95-.3 2.05-.3 3.15-.05 1 .25 1.9.8 2.7 1.55.8.8 1.25 1.75 1.5 2.75.15.8.2 1.65.05 2.45-2.1-.35-4.3-.1-6.3.7-.4.15-.75.3-1.1.5-.95-1.6-2.25-3-3.8-4.1.2-.8.6-1.55 1.15-2.15zm18 18.2c-.35 2.4-1.6 4.5-3.4 6.05-1.75 1.55-4.05 2.4-6.45 2.4h-18c-3 0-5.95-1.1-8.25-3.05-2.3-2-3.85-4.7-4.3-7.65-.5-3.1.05-6.1 1.65-8.7 1.55-2.6 4-4.55 6.9-5.5 1.3-.45 2.7-.7 4.05-.7a13.12 13.12 0 0 1 4.75.9c2.6 1.05 4.75 2.9 6.15 5.2-1.3.95-2.4 2.25-3.25 3.7-.1.2-.05.4.15.5l.9.45c.2.1.4 0 .5-.15 1.1-2 2.85-3.5 4.95-4.35 2.2-.9 4.65-.95 6.9-.25 2.25.75 4.2 2.25 5.45 4.35 1.2 2.05 1.65 4.45 1.3 6.8zm-14.45-22.8h1.25c.15 0 .25-.1.25-.25v-4.7c0-.15-.1-.25-.25-.25h-1.25c-.15 0-.25.1-.25.25v4.7c.05.15.15.25.25.25zm9.55 8.2V28c0 .15.1.25.25.25h4.65c.15 0 .25-.1.25-.25v-1.25c0-.15-.1-.25-.25-.25h-4.65c-.15 0-.25.15-.25.25z"/><use href="#C"/><use href="#D"/><path d="M242.4 33.7a11.8 11.8 0 0 0-6.4-5.1c-.45-.15-.9-.25-1.35-.35.65-.85 1.15-1.8 1.45-2.75l.25-.9c.1-.4-.3-.75-.65-.55l-1 .5c-1.3.6-2.65.65-3.9.15-1.25-.4-2.25-1.35-2.85-2.6-.75-1.6-.45-3.7.8-5.3l.55-.75c.25-.35 0-.8-.45-.75l-.95.1c-1 .1-2 .4-2.9.8-1.85.85-3.4 2.45-4.1 4.45-.35 1-.55 2-.45 3.1l-.65-.3c-3.2-1.3-6.75-1.4-10-.25s-6.05 3.35-7.8 6.3c-1.75 2.9-2.45 6.4-1.9 9.85.55 3.4 2.25 6.5 4.9 8.75 2.6 2.25 5.95 3.45 9.35 3.45h18c2.85 0 5.55-1 7.6-2.8 2.15-1.75 3.55-4.3 4-7.1s-.1-5.6-1.55-7.95zm-19.85-12.4c.6-1.55 1.75-2.8 3.2-3.45.2-.1.35-.15.55-.25-.7 1.75-.7 3.65.05 5.25.75 1.7 2.15 2.95 3.85 3.5 1.1.4 2.25.5 3.45.3-.15.25-.3.45-.5.7s-.4.45-.65.65c-1.55 0-3.1.25-4.55.85-.4.15-.75.3-1.1.5-1.1-1.85-2.65-3.4-4.45-4.6-.3-1.15-.25-2.35.15-3.45zm19.7 20.05c-.35 2.4-1.6 4.5-3.4 6.05-1.75 1.55-4.05 2.4-6.45 2.4h-18c-3 0-5.95-1.1-8.25-3.05-2.3-2-3.85-4.7-4.3-7.65-.5-3.1.05-6.1 1.65-8.7 1.55-2.6 4-4.55 6.9-5.5 1.3-.45 2.7-.7 4.05-.7a13.12 13.12 0 0 1 4.75.9c2.6 1.05 4.75 2.9 6.15 5.2-1.35 1-2.45 2.3-3.3 3.8-.05.15 0 .3.1.35l1.1.55c.1.05.25 0 .35-.1 1.1-2.05 2.9-3.6 5-4.4 2.2-.9 4.65-.95 6.9-.25 2.25.75 4.2 2.25 5.45 4.35 1.2 2 1.65 4.4 1.3 6.75zM289 51.1h-14.9c-2.85 0-5.65-1-7.8-2.85-2.2-1.85-3.65-4.4-4.1-7.3-.5-2.9.05-5.85 1.55-8.25a11.8 11.8 0 0 1 6.5-5.2c2.65-.9 5.6-.8 8.35.2 2.4 1 4.45 2.65 5.8 4.8l.9-.4c2.1-.85 4.5-.95 6.8-.2 2.2.7 4.1 2.25 5.35 4.25s1.7 4.4 1.3 6.7a9.94 9.94 0 0 1-3.35 5.95c-1.75 1.4-4.05 2.3-6.4 2.3zm-14.9-22.5c-1.1 0-2.2.2-3.25.55-2.35.8-4.35 2.4-5.6 4.45-1.3 2.05-1.75 4.55-1.35 7.05.35 2.45 1.6 4.65 3.5 6.2 1.85 1.6 4.25 2.45 6.7 2.45H289c1.9 0 3.8-.7 5.2-1.95 1.5-1.25 2.45-2.95 2.75-4.9a8.17 8.17 0 0 0-1.1-5.5c-1-1.65-2.6-2.9-4.35-3.45-1.9-.6-3.85-.55-5.6.2-1.7.7-3.1 1.9-4 3.5-.1.15-.25.2-.4.1l-1-.55c-.15-.1-.2-.25-.15-.45.65-1.15 1.5-2.15 2.55-2.95a10.22 10.22 0 0 0-4.95-4.1c-1.25-.4-2.55-.65-3.85-.65zm26.2-1.65h-8.1c-1.65 0-3.3-.6-4.5-1.65a6.87 6.87 0 0 1-2.35-4.2 7.16 7.16 0 0 1 .9-4.7c.85-1.4 2.1-2.45 3.7-3 1.55-.5 3.25-.5 4.8.1 1.3.55 2.4 1.4 3.15 2.5 1.2-.6 2.7-.7 4.15-.2 1.3.4 2.4 1.3 3.15 2.5s1 2.55.75 3.9c-.25 1.4-.9 2.6-1.95 3.45-1.05.8-2.35 1.3-3.7 1.3zm-8.1-12.25c-.55 0-1.15.1-1.65.25-1.2.45-2.15 1.25-2.8 2.25-.65 1.05-.85 2.3-.7 3.6.15 1.15.8 2.25 1.75 3.1.9.8 2.1 1.25 3.4 1.25h8.1c.95 0 1.85-.35 2.6-.95.7-.6 1.15-1.45 1.35-2.45.15-.9-.05-1.85-.55-2.7-.5-.8-1.25-1.45-2.15-1.7-.95-.3-1.95-.3-2.75.05-.75.3-1.4.85-1.9 1.55-.1.15-.3.2-.45.15l-.9-.5c-.2-.1-.25-.3-.15-.5.3-.5.65-.9 1.05-1.3-.55-.8-1.35-1.45-2.3-1.8-.65-.15-1.3-.3-1.95-.3z"/><path d="M290.45 32.9l-1.2-1.25a5.68 5.68 0 0 0 1.6-2.6c.25-1 .3-1.9.1-2.8l1.7-.4c.3 1.15.25 2.4-.1 3.7a7.93 7.93 0 0 1-2.1 3.35zm-12.5-4c-.25-1.2-.2-2.45.1-3.6 1.05-3.6 4.55-5.85 8.2-5.35L286 21.7c-2.8-.4-5.45 1.3-6.3 4.1-.25.85-.25 1.85-.1 2.8l-1.65.3z"/><use href="#E"/><use href="#E" x="-21.45" y="-6.25"/><path d="M279.95 19.3l-1.75-3.05c-.1-.15-.05-.35.1-.4l1-.55c.15-.1.35-.05.4.1l1.75 3.05c.1.15.05.35-.1.4l-1 .55c-.15.1-.35.05-.4-.1zM44.05 93.85c-.75-.25-1.45-.35-2.2-.45a8.4 8.4 0 0 0 1.1-2.35l.25-.8c.1-.4-.3-.8-.7-.6l-1 .5c-1.2.6-2.65.65-3.95.15-1.3-.45-2.35-1.45-2.9-2.7-.8-1.65-.45-3.8.8-5.45l.55-.7c.25-.35 0-.85-.45-.8l-.85.1a9.84 9.84 0 0 0-3 .8c-2 .9-3.5 2.5-4.2 4.55-.35.9-.5 1.8-.5 2.75-1.6-.1-3.15.1-4.65.6-2.75.9-5.1 2.8-6.5 5.2-1.5 2.4-2.05 5.35-1.55 8.25.45 2.85 1.9 5.45 4.1 7.3 2.15 1.85 4.95 2.85 7.8 2.85H41c2.35 0 4.65-.85 6.35-2.35a9.8 9.8 0 0 0 3.35-5.95c.4-2.3-.1-4.7-1.3-6.7-1.2-1.95-3.15-3.45-5.35-4.2zm-15-7.1c.55-1.6 1.75-2.85 3.3-3.55.2-.1.4-.2.65-.25-.75 1.8-.75 3.8.05 5.45.75 1.65 2.15 3 3.9 3.6 1.15.4 2.4.55 3.55.35-.15.25-.35.55-.6.8-.1.15-.25.25-.35.4-.8.1-1.55.3-2.3.6-.3.1-.6.25-.9.4-1.35-2.15-3.35-3.8-5.8-4.8-.65-.25-1.3-.4-1.95-.55a10.09 10.09 0 0 1 .45-2.45zM49 104.5c-.3 1.95-1.25 3.6-2.75 4.9-1.4 1.25-3.3 1.95-5.2 1.95H26.1c-2.45 0-4.85-.85-6.7-2.45-1.9-1.55-3.15-3.75-3.5-6.2-.4-2.5.05-5 1.35-7.05 1.25-2.1 3.2-3.65 5.6-4.45 1.05-.35 2.15-.55 3.25-.55 1.3 0 2.6.25 3.85.7 2.05.85 3.8 2.3 4.95 4.1-1 .8-1.85 1.75-2.55 2.9-.1.15-.05.35.15.45l1 .5c.15.1.35 0 .45-.15a7.72 7.72 0 0 1 4-3.45c1.75-.7 3.7-.75 5.6-.2 1.8.6 3.4 1.85 4.35 3.45 1 1.7 1.4 3.65 1.1 5.55zm8.2-24.3c-.7-1.2-1.8-2.05-3.15-2.5-1.45-.45-2.95-.4-4.15.2-.75-1.1-1.85-1.95-3.15-2.5-1.55-.6-3.25-.6-4.8-.1-1.6.6-2.85 1.65-3.7 3-.85 1.4-1.15 3-.9 4.7a6.87 6.87 0 0 0 2.35 4.2c1.25 1.05 2.85 1.65 4.5 1.65h8.1A5.63 5.63 0 0 0 56 87.5c1.05-.85 1.7-2.05 1.95-3.45.25-1.3 0-2.65-.75-3.85zm-.95 3.6a3.99 3.99 0 0 1-1.35 2.45c-.75.6-1.65.95-2.6.95h-8.1a5.28 5.28 0 0 1-3.4-1.25c-.95-.85-1.6-1.95-1.75-3.1-.2-1.3.05-2.55.7-3.6s1.6-1.85 2.8-2.25c.55-.2 1.1-.25 1.65-.25.65 0 1.3.1 1.95.35.95.4 1.75 1 2.3 1.8-.45.4-.8.85-1.15 1.4-.05.1 0 .25.1.3l1.15.65c.1.05.2 0 .25-.1.5-.8 1.15-1.4 2-1.7.8-.35 1.8-.35 2.75-.05a4.03 4.03 0 0 1 2.15 1.7c.5.85.7 1.8.55 2.7zm53.65 9.45c-2.5-.8-5.1-.7-7.6.25l-1.1.5c-1.55-2.5-3.8-4.45-6.5-5.5-3-1.2-6.3-1.25-9.35-.25-3.15 1.1-5.65 3.1-7.3 5.9s-2.3 6.05-1.75 9.2c.5 3.15 2.15 6.05 4.6 8.15 2.4 2.05 5.5 3.2 8.75 3.2h16.8c2.65 0 5.15-.9 7.15-2.6 2-1.65 3.3-4 3.75-6.65.45-2.6-.1-5.25-1.45-7.5-1.35-2.2-3.5-3.85-6-4.7zm5.75 11.95c-.35 2.2-1.5 4.2-3.15 5.55-1.7 1.45-3.8 2.2-6.05 2.2h-16.8c-2.85 0-5.55-1-7.65-2.8-2.15-1.85-3.55-4.4-4-7.15-.45-2.7.1-5.55 1.55-8 1.45-2.4 3.65-4.2 6.4-5.1a11.78 11.78 0 0 1 3.75-.6 12.08 12.08 0 0 1 4.4.85c2.35.95 4.35 2.6 5.7 4.8-1.2.9-2.2 2-2.9 3.3-.1.2-.05.45.15.55l.85.45c.2.1.4 0 .5-.15 1-1.75 2.6-3.15 4.55-3.95 2.1-.85 4.3-.9 6.4-.25 2.1.7 3.9 2.1 5 3.95 1.2 1.95 1.65 4.2 1.3 6.35zm3.15-28.15c-.95-1.65-2.4-2.8-4.25-3.45-1.8-.55-3.7-.5-5.45.2-1.45.6-2.7 1.6-3.55 2.9-.1-.05-.25-.1-.35-.15-1.4-.6-3-.65-4.45-.2-1.5.45-2.7 1.4-3.55 2.8-.8 1.3-1.1 2.85-.85 4.4.25 1.5 1 2.85 2.2 3.9 1.2 1 2.65 1.55 4.2 1.55H112c1.95 0 3.75-.65 5.1-1.85 1.45-1.2 2.45-2.85 2.7-4.7.35-1.9 0-3.8-1-5.4zm-.7 5.05a5.59 5.59 0 0 1-2.1 3.65c-1.05.9-2.45 1.45-3.95 1.45h-9.3c-1.15 0-2.2-.4-3.1-1.15-.85-.75-1.45-1.75-1.6-2.8-.15-1.1.05-2.25.65-3.2.6-1 1.5-1.7 2.55-2 .45-.15.95-.25 1.45-.25.6 0 1.25.1 1.8.35.95.4 1.7 1 2.2 1.85.1.2.3.25.5.15l.9-.45c.2-.1.3-.35.15-.55-.35-.6-.8-1.1-1.3-1.55.7-1 1.65-1.75 2.75-2.25a6.21 6.21 0 0 1 4.25-.15c1.4.5 2.55 1.4 3.3 2.7.8 1.3 1.1 2.8.85 4.2zm49.6 31.5h-16.75c-3.25 0-6.4-1.15-8.75-3.2-2.45-2.1-4.05-5-4.6-8.15-.55-3.2.1-6.45 1.75-9.25 1.65-2.75 4.2-4.8 7.3-5.9 3.05-1 6.35-.9 9.35.25 2.7 1.05 5 3 6.5 5.5.35-.2.7-.35 1.05-.5 2.5-1 5.1-1.1 7.6-.25 2.5.8 4.6 2.5 6 4.75s1.9 4.9 1.45 7.5-1.75 4.95-3.75 6.65c-2 1.65-4.5 2.6-7.15 2.6zm-16.75-25.4a12.01 12.01 0 0 0-3.75.6 11.69 11.69 0 0 0-6.35 5.1c-1.45 2.45-2 5.3-1.55 8 .45 2.75 1.9 5.3 4 7.15 2.05 1.8 4.8 2.8 7.65 2.8h16.75c2.25 0 4.3-.75 6.05-2.2 1.65-1.4 2.8-3.35 3.15-5.55.35-2.15-.1-4.4-1.25-6.3s-2.95-3.3-5-3.95c-2.1-.7-4.3-.6-6.4.25-1.95.8-3.6 2.2-4.6 4-.1.15-.25.2-.45.15l-1-.5c-.15-.1-.25-.3-.15-.45.75-1.35 1.75-2.5 2.95-3.4-1.35-2.2-3.3-3.85-5.65-4.8-1.4-.65-2.9-.9-4.4-.9zm10.95-9.15c-1.9-.8-4.1-.9-6.1-.25a8.26 8.26 0 0 0-2.1 1.05c-.65.45-1.25 1-1.8 1.6l-.55.75c-.1.15-.2.25-.25.4-.15.2-.05.5.15.6l.9.4c.2.1.4.05.5-.15.15-.2.25-.4.3-.45.25-.35.5-.65.8-.9a8.51 8.51 0 0 1 1.95-1.35c.2-.1.45-.2.65-.25 1.6-.55 3.35-.5 4.9.2a7.07 7.07 0 0 1 3.45 2.95c.1.2.35.25.55.15l.85-.45c.2-.1.25-.35.15-.55-1.05-1.75-2.6-3.05-4.35-3.75z"/><path d="M178.6 93.25l-.7-.8c-.15-.15-.1-.35.05-.5 1.5-1.4 2.5-3.2 2.85-5.25s-.05-4.25-1.2-6.15c-1.15-1.85-2.9-3.25-4.9-3.9-2.1-.7-4.3-.65-6.3.2a8.69 8.69 0 0 0-4.55 4V81l-.25.25-.6-.6h-.9v-.2l.1-.2c1.2-2.3 3.2-4.1 5.55-5 2.35-.95 5-1.05 7.5-.2a10.97 10.97 0 0 1 5.85 4.65c1.35 2.3 1.85 4.9 1.4 7.35-.4 2.4-1.6 4.6-3.4 6.25-.15.1-.4.1-.5-.05zm63.25-5.7c-1.4-2.3-3.6-4.05-6.15-4.95-2.6-.85-5.35-.75-7.9.25a6.72 6.72 0 0 0-1.2.6c-1.6-2.6-4-4.6-6.8-5.75-3.1-1.25-6.55-1.35-9.7-.25-3.25 1.1-5.9 3.25-7.6 6.1-1.75 2.95-2.4 6.35-1.8 9.55.6 3.35 2.25 6.3 4.8 8.45 2.45 2.05 5.5 3.25 8.7 3.35a.45.45 0 0 0 .45-.45v-.9c0-.25-.2-.4-.4-.4a12.08 12.08 0 0 1-7.55-2.95c-2.25-1.9-3.7-4.45-4.2-7.45-.6-2.75 0-5.75 1.5-8.3 1.45-2.5 3.8-4.35 6.65-5.3 2.75-.95 5.75-.85 8.5.25 2.45 1 4.55 2.75 6 5.05-1.2.95-2.2 2.1-3 3.45-.1.2-.05.45.2.6l.8.4c.2.1.45 0 .55-.2 1.05-1.9 2.75-3.35 4.75-4.15 2.2-.9 4.5-.95 6.7-.25 2.2.75 4.05 2.2 5.25 4.15 1.2 2 1.65 4.3 1.3 6.55-.35 2.3-1.55 4.35-3.3 5.85-1.6 1.4-3.65 2.2-5.85 2.3-.25 0-.4.2-.4.4v.9a.45.45 0 0 0 .45.45c2.6-.1 5.1-1.05 6.95-2.7 2.1-1.7 3.45-4.15 3.9-6.9.35-2.65-.2-5.4-1.6-7.75z"/><use href="#F"/><use href="#G"/><use href="#F" x="-4.6"/><use href="#G" x="-4.6"/><use href="#F" x="-9.2"/><use href="#G" x="-9.2"/><path d="M284.2 99.3c-.1-.15-.3-.15-.4 0l-.5.65c-.6.75-5.9 7.65-5.9 11 .05 2.3 1.3 4.4 3.35 5.55 1 .6 2.1.85 3.25.85s2.2-.3 3.25-.85c2.05-1.15 3.3-3.25 3.35-5.55 0-3.35-5.3-10.2-5.9-11l-.5-.65zm2.1 15.7c-1.4.75-3.15.8-4.55 0-1.55-.85-2.5-2.4-2.55-4.1 0-2.05 3.05-6.55 4.8-9 1.8 2.4 4.8 6.95 4.85 9-.05 1.7-1 3.25-2.55 4.1zm18.1-22.95a11.8 11.8 0 0 0-6.4-5.1l-.5-.15c.2-1.05.2-2.15-.05-3.2-.25-1.3-.9-2.5-1.95-3.6-1-1-2.2-1.7-3.5-2.05-1.4-.35-2.8-.35-4.05.05-1.35.4-2.55 1.15-3.45 2.15-.6.7-1.1 1.45-1.4 2.3l-.8-.45c-2.85-1.3-6.2-1.6-9.35-.85A14.77 14.77 0 0 0 265 86.2c-2 2.55-3.1 5.6-3.15 8.85s1 6.45 2.95 8.95c1.85 2.45 4.4 4.25 7.4 5.15.2.05.45-.05.5-.3l.25-.9c.05-.2-.05-.45-.3-.5-2.65-.8-4.85-2.35-6.5-4.55-1.75-2.25-2.6-4.95-2.55-7.85.05-2.85 1-5.55 2.75-7.75a12.91 12.91 0 0 1 6.95-4.45c2.8-.65 5.7-.4 8.2.75 2.45 1.15 4.4 2.9 5.65 5.05-1.25.95-2.35 2.15-3.15 3.6-.1.2-.05.45.25.6l.75.4c.2.1.45.05.55-.15 1.1-1.95 2.85-3.5 4.9-4.3 2.2-.9 4.65-.95 6.9-.25 2.25.75 4.2 2.25 5.45 4.35 1.25 2 1.7 4.45 1.35 6.8-.35 2.4-1.6 4.5-3.4 6.05-1.65 1.45-3.8 2.3-6.1 2.4-.2 0-.4.2-.4.4v.95c0 .25.2.4.4.4 2.7-.1 5.25-1.1 7.2-2.8 2.15-1.75 3.55-4.3 4-7.1.55-2.75 0-5.6-1.45-7.95zm-14.45-4.8c-.4.15-.8.35-1.2.55-1.05-1.7-2.4-3.15-4.05-4.35.25-.75.65-1.5 1.2-2.1.7-.75 1.6-1.35 2.65-1.65.95-.3 2.05-.3 3.15-.05 1 .25 1.9.8 2.7 1.55.8.8 1.25 1.75 1.5 2.75.15.85.2 1.65 0 2.5-2.05-.2-4.1.05-5.95.8zm-.6-10.5h1.3c.15 0 .25-.1.25-.25v-4.65c0-.15-.1-.25-.25-.25h-1.3c-.15 0-.25.1-.25.25v4.65c0 .15.15.25.25.25zM298.9 85v1.3c0 .15.1.25.25.25h4.75c.15 0 .25-.1.25-.25V85c0-.15-.1-.25-.25-.25h-4.75c-.15 0-.25.15-.25.25z"/><use href="#C" x="123.6" y="58.2"/><use href="#D" x="123.55" y="58.25"/><path d="M55.85 154.45c-1.4-2.3-3.6-4.05-6.15-4.95-.05 0-.15-.05-.2-.05.15-1 .1-2-.15-2.9a7.22 7.22 0 0 0-1.9-3.4 7.81 7.81 0 0 0-3.35-1.95 7.19 7.19 0 0 0-3.85 0c-1.25.35-2.4 1.05-3.3 2a6.83 6.83 0 0 0-1.5 2.25l-1.7-.85c-3.1-1.25-6.55-1.35-9.7-.25-3.2 1.1-5.85 3.25-7.55 6.1-1.75 2.95-2.4 6.35-1.8 9.55.6 3.35 2.25 6.3 4.8 8.45 2.45 2.05 5.5 3.25 8.7 3.35.25 0 .45-.2.45-.4v-.9c0-.25-.2-.4-.4-.4a12.08 12.08 0 0 1-7.55-2.95c-2.25-1.9-3.7-4.45-4.2-7.45-.6-2.8 0-5.8 1.5-8.35 1.45-2.5 3.8-4.35 6.65-5.3 2.75-.95 5.75-.85 8.5.25 2.45 1 4.55 2.75 6 5.05a11.97 11.97 0 0 0-2.95 3.4c-.1.2-.05.5.2.6l.75.4c.2.1.45.05.6-.2 1.05-1.9 2.75-3.35 4.75-4.15 2.2-.9 4.5-.95 6.7-.25 2.2.75 4.05 2.2 5.25 4.15 1.2 2 1.65 4.3 1.3 6.55-.35 2.3-1.55 4.35-3.3 5.85-1.6 1.4-3.65 2.2-5.85 2.3a.45.45 0 0 0-.45.45v.85a.45.45 0 0 0 .45.45c2.6-.1 5.05-1.05 6.95-2.7 2.1-1.7 3.45-4.15 3.9-6.9.35-2.6-.2-5.35-1.6-7.7zm-14.1-4.65a6.72 6.72 0 0 0-1.2.6 14.28 14.28 0 0 0-3.6-3.95c.25-.7.7-1.4 1.25-2 .7-.75 1.55-1.25 2.5-1.5s2-.25 2.95 0 1.85.8 2.55 1.45c.7.7 1.2 1.6 1.4 2.55a5.83 5.83 0 0 1 .1 2.1c-1.95-.3-4-.05-5.95.75zm0-10h.95c.2 0 .4-.2.4-.4v-4.25c0-.2-.2-.4-.4-.4h-.95c-.2 0-.4.2-.4.4v4.25c.05.2.2.4.4.4zm9.1 8.1v.95c0 .2.2.4.4.4h4.25c.2 0 .4-.2.4-.4v-.95c0-.2-.2-.4-.4-.4h-4.25c-.2 0-.4.2-.4.4zm-2.15-5.25c.15.15.4.15.55 0l3-3c.15-.15.15-.4 0-.55l-.65-.65c-.15-.15-.4-.15-.55 0l-3 3c-.15.15-.15.4 0 .55l.65.65zm-13.45 0c.15.15.4.15.55 0l.65-.65c.15-.15.15-.4 0-.55l-3-3c-.15-.15-.4-.15-.55 0l-.65.65c-.15.15-.15.4 0 .55l3 3zm5.5 32.3l-.9-.4c-.2-.1-.4 0-.5.2l-.85 1.8c-.1.2 0 .4.2.5l.9.4c.2.1.4 0 .5-.2l.85-1.85c.1-.15 0-.35-.2-.45z"/><use href="#H"/><use href="#I"/><use href="#H" x="-4.6"/><use href="#I" x="-4.6"/><path d="M34.3 168.9l-.9-.4c-.2-.1-.4 0-.5.2l-1.9 4.1c-.1.2 0 .4.2.5l.9.4c.2.1.4 0 .5-.2l1.9-4.15c.1-.15 0-.35-.2-.45zm63.9-7.45a.43.43 0 0 0-.65 0l-.35.45c-.6.75-5.9 7.65-5.9 11 .05 2.3 1.3 4.4 3.35 5.55 1 .6 2.1.85 3.25.85 1.1 0 2.2-.3 3.25-.85 2.05-1.15 3.3-3.25 3.35-5.55 0-3.35-5.3-10.2-5.9-11l-.4-.45zm1.95 15.55c-1.4.8-3.15.8-4.55 0-1.55-.85-2.5-2.4-2.55-4.1 0-2.05 3.05-6.55 4.85-9 1.8 2.4 4.8 6.95 4.8 9-.05 1.7-1 3.25-2.55 4.1zm18.1-22.95a11.8 11.8 0 0 0-6.4-5.1c-.45-.15-.85-.25-1.3-.35a8 8 0 0 0 1.5-2.9l.25-.9c.1-.4-.3-.75-.65-.55l-1 .5c-1.2.6-2.55.65-3.9.15-1.25-.4-2.25-1.35-2.85-2.6-.75-1.6-.45-3.7.8-5.3l.55-.75c.25-.35 0-.8-.45-.75l-.95.1c-1 .1-2 .4-2.9.8-1.85.85-3.4 2.45-4.1 4.45-.4 1.05-.55 2.2-.45 3.4l-.3-.15c-2.85-1.3-6.2-1.6-9.35-.85a14.77 14.77 0 0 0-7.95 5.05c-2 2.55-3.1 5.6-3.15 8.85s1 6.45 2.95 8.9c1.85 2.45 4.4 4.2 7.35 5.15a.4.4 0 0 0 .55-.3l.2-.8c.05-.25-.05-.5-.3-.55-2.6-.8-4.85-2.35-6.45-4.5-1.6-2.2-2.5-4.95-2.45-7.85.05-2.85 1-5.55 2.75-7.75A12.91 12.91 0 0 1 87.2 145c2.8-.65 5.7-.4 8.25.75 2.4 1.1 4.35 2.85 5.65 5-1.3.95-2.35 2.2-3.15 3.65-.1.15-.05.4.25.5l.85.45c.15.1.35 0 .45-.15 1.1-2 2.85-3.55 4.95-4.35 2.2-.9 4.65-.95 6.9-.25 2.25.75 4.2 2.25 5.45 4.35 1.25 2 1.7 4.45 1.35 6.8-.35 2.4-1.6 4.5-3.4 6.05-1.7 1.5-3.9 2.3-6.2 2.4-.15 0-.3.15-.3.3v1.15c0 .15.15.3.3.3 2.7-.05 5.3-1.05 7.3-2.8 2.15-1.75 3.55-4.3 4-7.1.4-2.8-.15-5.65-1.6-8zm-14.45-4.8c-.4.15-.8.35-1.2.55a14.79 14.79 0 0 0-4.1-4.35c-.4-1.35-.35-2.7.1-3.9.6-1.55 1.75-2.8 3.2-3.45l.55-.25c-.7 1.75-.7 3.65.05 5.25.8 1.65 2.2 2.95 3.85 3.5 1.15.4 2.3.5 3.45.35a3.21 3.21 0 0 1-.5.65c-.25.3-.5.55-.75.75-1.65.05-3.2.3-4.65.9zm63.3 12.25h-3.6c-.25 0-.4-.2-.4-.45l1.4-9.35c.05-.4-.45-.6-.7-.3l-11.35 15.35c-.2.25 0 .6.3.6h3.6c.25 0 .4.2.4.45l-1.45 9.35c-.05.4.45.6.7.3l11.35-15.35c.2-.2.05-.6-.25-.6zm-3.2 2.4l-5.1 6.85c-.25.3-.75.1-.7-.3l.65-4.4c.05-.25-.15-.45-.4-.45h-2.15c-.3 0-.5-.35-.3-.6l5.1-6.85c.25-.3.75-.1.7.3l-.65 4.4c-.05.25.15.45.4.45h2.15c.3-.05.5.35.3.6zm16.5-17a11.8 11.8 0 0 0-6.4-5.1c-2.6-.85-5.5-.75-8.1.25-.4.15-.8.35-1.2.55-1.5-2.45-3.7-4.45-6.4-5.65-2.85-1.3-6.2-1.6-9.35-.85a14.77 14.77 0 0 0-7.95 5.05c-2 2.55-3.1 5.6-3.15 8.85s1 6.45 2.95 8.95c1.85 2.45 4.45 4.25 7.45 5.15.2.05.4-.05.5-.25l.25-.95c.05-.2-.05-.4-.25-.45-2.65-.8-4.9-2.35-6.55-4.55-1.75-2.25-2.6-4.95-2.55-7.85.05-2.85 1-5.55 2.75-7.75a12.91 12.91 0 0 1 6.95-4.45c2.8-.65 5.7-.4 8.25.75 2.4 1.1 4.35 2.85 5.65 5a12.13 12.13 0 0 0-3.15 3.6c-.1.2-.05.45.15.55l.85.45c.2.1.4.05.5-.15 1.1-1.95 2.85-3.5 4.9-4.3 2.2-.9 4.65-.95 6.9-.25 2.25.75 4.2 2.25 5.45 4.35 1.25 2 1.7 4.45 1.35 6.8-.35 2.4-1.6 4.5-3.4 6.05-1.65 1.45-3.85 2.3-6.1 2.4-.2 0-.35.15-.35.4v1c0 .2.2.4.4.4 2.7-.1 5.25-1.1 7.2-2.8 2.15-1.75 3.55-4.3 4-7.1.45-2.9-.1-5.75-1.55-8.1zm54.45 10.8l-5.75 1.5-2.75-1.6v-2.9l2.8-1.6 5.7 1.5c.05 0 .15.05.2.05.4 0 .75-.25.85-.65.1-.45-.15-.95-.6-1.05l-4-1.05 2.75-1.6c.4-.25.55-.8.3-1.2s-.8-.55-1.2-.3l-2.8 1.6 1.05-4.05c.1-.45-.15-.95-.6-1.05s-.95.15-1.05.6l-1.5 5.7-2.75 1.55-2.6-1.5v-3.15l4.15-4.2c.35-.35.35-.9 0-1.25s-.9-.35-1.25 0l-2.9 2.95v-3.2c0-.5-.4-.9-.9-.9s-.9.4-.9.9v3.25l-2.95-2.95c-.35-.35-.9-.35-1.25 0s-.35.9 0 1.25l4.2 4.2v3.2l-2.6 1.5-2.75-1.55-1.55-5.75c-.15-.45-.6-.75-1.05-.6s-.75.6-.6 1.05l1.1 4.05-2.8-1.6c-.4-.25-.95-.1-1.2.3-.2.35-.05.85.35 1.1l2.75 1.6-3.95 1.05c-.45.1-.75.6-.6 1.05.1.4.45.65.85.65.05 0 .15 0 .2-.05l5.65-1.5 2.8 1.6v2.9l-2.8 1.6-5.65-1.55c-.45-.15-.95.15-1.05.6s.15.95.6 1.05l4 1.1-2.8 1.75c-.4.25-.55.8-.3 1.2.15.3.45.45.75.45.15 0 .3-.05.45-.1l2.85-1.65-1.05 4c-.1.45.15.95.6 1.05.1 0 .15.05.25.05.4 0 .75-.25.85-.65l1.5-5.7 2.8-1.6 2.5 1.45v3.3L217 168c-.35.35-.35.9 0 1.25.15.15.4.25.6.25s.45-.1.6-.25l2.95-2.95v3.25c0 .5.4.9.9.9s.9-.4.9-.9v-3.25l2.9 2.9c.35.35.9.35 1.25 0s.35-.9 0-1.25l-4.15-4.15v-3.3l2.5-1.45 2.85 1.65 1.5 5.65c.1.4.45.65.85.65.05 0 .15 0 .2-.05.45-.1.75-.6.6-1.05l-1.05-3.9 2.75 1.6c.15.1.3.1.45.1.3 0 .6-.15.75-.45.25-.4.1-.95-.3-1.2l-2.8-1.65 4.05-1.05c.45-.1.75-.6.6-1.05s-.6-.7-1.05-.6zm-10.25-.1l-2.55 1.45-2.55-1.4v-2.9l2.55-1.5 2.55 1.45v2.9zm76.05-13.3h-30.9c-.2 0-.4-.2-.4-.4v-.95c0-.2.2-.4.4-.4h30.9c.2 0 .4.2.4.4v.95c0 .25-.2.4-.4.4zm-4.3 6.3h-21.7c-.2 0-.4-.2-.4-.4v-.95c0-.2.2-.4.4-.4h21.7c.2 0 .4.2.4.4v.95c0 .25-.2.4-.4.4zm3 6.3h-29.5c-.2 0-.4-.2-.4-.4v-1c0-.2.2-.4.4-.4h29.5c.2 0 .4.2.4.4v1c0 .2-.2.4-.4.4zm1.3 12.5h-28.7c-.2 0-.4-.2-.4-.4v-.95c0-.2.2-.4.4-.4h28.7c.2 0 .4.2.4.4v.95c0 .25-.2.4-.4.4zm-8.8-6.3h-24.5c-.2 0-.4-.2-.4-.4v-.95c0-.2.2-.4.4-.4h24.5c.2 0 .4.2.4.4v.95c0 .25-.2.4-.4.4z"/></g><defs ><path id="B" d="M49.45 17.6c-.1-.1-.25-.1-.35 0l-2.95 2.95c-.1.1-.1.25 0 .35l.9.9c.1.1.25.1.35 0l2.95-2.95c.1-.1.1-.25 0-.35l-.9-.9z"/><path id="C" d="M173.15 21.6c.1.1.25.1.35 0l3.35-3.35c.1-.1.1-.25 0-.35l-.9-.9c-.1-.1-.25-.1-.35 0l-3.35 3.35c-.1.1-.1.25 0 .35l.9.9z"/><path id="D" d="M159.35 21.55c.1.1.25.1.35 0l.9-.9c.1-.1.1-.25 0-.35l-3.3-3.3c-.1-.1-.25-.1-.35 0l-.9.9c-.1.1-.1.25 0 .35l3.3 3.3z"/><path id="E" d="M297.45 31.85l-3.35-1c-.15-.05-.25-.2-.2-.4l.3-1.1c.05-.15.2-.25.4-.2l3.35 1c.15.05.25.2.2.4l-.3 1.1c-.05.15-.25.25-.4.2z"/><path id="F" d="M226.7 108.05l-.8-.4c-.2-.1-.45 0-.55.2l-.8 1.75c-.1.2 0 .45.2.55l.8.4c.2.1.45 0 .55-.2l.8-1.75c.1-.2 0-.45-.2-.55z"/><path id="G" d="M229.45 102l-.8-.35c-.2-.1-.45 0-.55.2l-1.85 4.1c-.1.2 0 .45.2.55l.8.35c.2.1.45 0 .55-.2l1.85-4.1c.1-.2 0-.45-.2-.55z"/><path id="H" d="M43.5 168.9l-.9-.4c-.2-.1-.4 0-.5.2l-1.9 4.15c-.1.2 0 .4.2.5l.9.4c.2.1.4 0 .5-.2l1.9-4.15c.1-.2 0-.4-.2-.5z"/><path id="I" d="M36.15 174.95l-.9-.4c-.2-.1-.4 0-.5.2l-.85 1.85c-.1.2 0 .4.2.5l.9.4c.2.1.4 0 .5-.2l.85-1.85c.1-.2 0-.4-.2-.5z"/></defs></svg>