<svg xmlns="http://www.w3.org/2000/svg" width="320" height="188" fill="none" xmlns:v="https://vecta.io/nano"><rect x=".5" y=".5" width="319" height="187" rx="3.5" fill="#0350b1"/><rect x=".5" y=".5" width="319" height="187" rx="3.5" stroke="#0f488e"/><g fill="#fff"><path d="M45.429 35.934c2.145-5.179-.314-11.117-5.493-13.262s-11.117.314-13.262 5.493.314 11.117 5.493 13.262 11.117-.314 13.262-5.493zM36.15 19.55c.9 0 1.65-.75 1.65-1.65v-2.05c0-.9-.75-1.65-1.65-1.65a1.63 1.63 0 0 0-1.65 1.65v2.05c0 .9.75 1.65 1.65 1.65zm-11.2 3.6a1.662 1.662 0 1 0 2.35-2.35l-1.45-1.45a1.662 1.662 0 1 0-2.35 2.35l1.45 1.45zm-1.4 8.8c0-.9-.75-1.65-1.65-1.65h-2.05c-.9 0-1.65.75-1.65 1.65s.75 1.65 1.65 1.65h2.05c.9.05 1.65-.7 1.65-1.65zm1.25 8.9l-1.45 1.45a1.662 1.662 0 1 0 2.35 2.35l1.45-1.45a1.662 1.662 0 1 0-2.35-2.35zm11.15 3.75c-.9 0-1.65.75-1.65 1.65v2.05c0 .9.75 1.65 1.65 1.65s1.65-.75 1.65-1.65v-2.05c.05-.9-.7-1.65-1.65-1.65zM47.2 41a1.662 1.662 0 1 0-2.35 2.35l1.45 1.45a1.662 1.662 0 1 0 2.35-2.35L47.2 41zm5.1-10.5h-2.05c-.9 0-1.65.75-1.65 1.65s.75 1.65 1.65 1.65h2.05c.9 0 1.65-.75 1.65-1.65s-.75-1.65-1.65-1.65zm-4.95-7.2l1.45-1.45a1.662 1.662 0 1 0-2.35-2.35L45 20.95a1.662 1.662 0 1 0 2.35 2.35zm61.75 8.1h-.1-.05-.05c0 .05-.05.05-.05.05-1.25.75-2.7 1.2-4.3 1.2a8.28 8.28 0 0 1-8.3-8.3c0-1.1.25-2.2.65-3.2.05-.05.05-.05.05-.1v-.1c0-.25-.2-.4-.4-.4h-.1a11.5 11.5 0 0 0-9.95 11.4c0 6.35 5.15 11.5 11.5 11.5s11.5-5.15 11.5-11.5v-.1-.15c-.05-.2-.2-.3-.4-.3zm60.75 5.95c-.45-5.2-4.8-9.35-10.15-9.35-3.8 0-7.05 2.05-8.85 5.1-.95-.8-2.2-1.25-3.55-1.25-3.1 0-5.65 2.5-5.65 5.65-2.85.7-5 3.3-5 6.35 0 3.6 2.95 6.55 6.55 6.55h26.6c3.6 0 6.55-2.95 6.55-6.55a6.62 6.62 0 0 0-6.5-6.5zm1.3-1.35a8.51 8.51 0 0 1 2.25.75c2.55-1.75 4.05-4.85 3.65-8.15-.55-4.75-4.9-8.2-9.65-7.65-3.35.4-6.05 2.65-7.15 5.6 5.35.25 9.9 4.25 10.9 9.45z"/><use href="#B"/><path d="M156.65 22l1.4 1.1c.6.5 1.5.4 2-.25.5-.6.4-1.5-.25-2l-1.4-1.1c-.6-.5-1.5-.4-2 .25s-.4 1.55.25 2zm23.5 15.2l-1.4-1.1c-.6-.5-1.5-.4-2 .25-.5.6-.4 1.5.25 2l1.4 1.1c.6.5 1.5.4 2-.25s.4-1.55-.25-2z"/><use href="#C"/><use href="#D"/><path d="M232.15 37.45c-.45-5.3-4.9-9.45-10.3-9.45-3.85 0-7.15 2.1-8.95 5.2-1-.8-2.25-1.3-3.6-1.3a5.7 5.7 0 0 0-5.7 5.7c-2.9.7-5.1 3.35-5.1 6.45 0 3.65 3 6.65 6.65 6.65h26.95c3.65 0 6.65-3 6.65-6.65-.05-3.6-3-6.6-6.6-6.6zm13-11h-.1-.05s-.05 0-.05.05c-1.1.65-2.4 1.05-3.8 1.05a7.26 7.26 0 0 1-7.25-7.25c0-1 .2-1.95.55-2.85 0 0 0-.05.05-.05v-.05a.34.34 0 0 0-.35-.35h-.1c-4.95.65-8.75 4.85-8.75 10 4.1 1.25 7.3 4.75 8.15 9.05 1 .15 1.9.5 2.75 1A10.09 10.09 0 0 0 245.5 27v-.15-.15a.33.33 0 0 0-.35-.25zM291.2 38.3c-.4-4.8-4.4-8.6-9.35-8.6a9.29 9.29 0 0 0-8.1 4.7c-.9-.7-2.05-1.15-3.25-1.15-2.85 0-5.2 2.3-5.2 5.2-2.65.65-4.6 3-4.6 5.85a6.02 6.02 0 0 0 6 6h24.45a6.02 6.02 0 0 0 6-6c0-3.3-2.7-6-5.95-6z"/><use href="#E"/><path d="M279.85 28.45c.65-.15 1.35-.2 2.05-.2 4.8 0 8.95 3.2 10.35 7.6 2.2-1 3.95-2.95 4.65-5.3h-1.65a3.96 3.96 0 0 1-3.95-3.95c0-1.45.8-2.75 2.05-3.45a3.86 3.86 0 0 1 1.1-1.7c-1.65-1.5-3.85-2.4-6.25-2.3-4.8.2-8.55 4.25-8.35 9.05-.05.1 0 .2 0 .25zm8.3-11.3h.05a1.47 1.47 0 0 0 1.35-1.45l-.05-1.85a1.47 1.47 0 0 0-1.45-1.35H288a1.47 1.47 0 0 0-1.35 1.45l.05 1.85c.05.8.7 1.4 1.45 1.35zm-9.45 3.5c.55.5 1.45.5 2-.1l.05-.05c.5-.55.5-1.45-.1-2l-1.35-1.25c-.55-.5-1.45-.5-2 .1l-.05.05c-.5.55-.5 1.45.1 2l1.35 1.25zm-4.1 9.15l1.8-.05h.1a1.22 1.22 0 0 0 1.05-.6c.15-.25.25-.5.25-.85v-.1c-.05-.75-.65-1.35-1.45-1.3l-1.9.1c-.75.05-1.35.65-1.3 1.4v.1c.05.75.65 1.35 1.45 1.3zm23.8 5.4c-.55-.5-1.45-.5-2 .1l-.05.05c-.5.55-.5 1.45.1 2l1.35 1.25c.55.5 1.45.5 2-.1l.05-.05c.5-.55.5-1.45-.1-2l-1.35-1.25zm-.45-15.2l1.25-1.35c.5-.55.5-1.45-.1-2l-.05-.05c-.55-.5-1.45-.5-2 .1l-1.25 1.35a1.44 1.44 0 0 0 .15 2.05c.55.5 1.45.5 2-.1zm-254.6 80.3c-.4-4.8-4.4-8.6-9.35-8.6a9.29 9.29 0 0 0-8.1 4.7c-.9-.7-2.05-1.15-3.25-1.15-2.85 0-5.2 2.3-5.2 5.2-2.65.65-4.6 3-4.6 5.85a6.02 6.02 0 0 0 6 6H43.3a6.02 6.02 0 0 0 6-6c0-3.3-2.65-6-5.95-6z"/><use href="#E" x="-247.85" y="60.45"/><path d="M54.1 91H54h-.05-.05s-.05 0-.05.05c-1.15.7-2.45 1.1-3.9 1.1a7.49 7.49 0 0 1-7.5-7.5c0-1.05.2-2 .6-2.9 0 0 0-.05.05-.1s0-.05 0-.05a.34.34 0 0 0-.35-.35h-.1c-4.65.6-8.3 4.25-8.9 8.9H34c5.2 0 9.65 3.75 10.65 8.7 1.5.3 2.85 1 3.85 2 3.5-1.65 5.9-5.25 5.9-9.35.05 0 .05-.05.05-.1v-.15c-.05-.15-.2-.25-.35-.25zm51.6 8.5c-.4-4.85-4.5-8.7-9.45-8.7A9.54 9.54 0 0 0 88 95.55c-.9-.75-2.05-1.15-3.3-1.15a5.25 5.25 0 0 0-5.25 5.25c-2.65.65-4.65 3.05-4.65 5.9 0 3.35 2.75 6.1 6.1 6.1h24.75c3.35 0 6.1-2.75 6.1-6.1 0-3.3-2.7-6-6.05-6.05zm11.9-18.8c-.3-3.4-3.15-6.05-6.6-6.05-2.45 0-4.6 1.35-5.75 3.35-.65-.5-1.45-.8-2.3-.8a3.64 3.64 0 0 0-3.65 3.65c-1.85.45-3.25 2.15-3.25 4.15 0 2.35 1.9 4.25 4.25 4.25h17.3c2.35 0 4.25-1.9 4.25-4.25-.05-2.35-1.95-4.25-4.25-4.3zm52.6 16.4a10.29 10.29 0 0 0-10.25-9.4c-3.8 0-7.15 2.1-8.9 5.15a5.62 5.62 0 0 0-3.6-1.25 5.7 5.7 0 0 0-5.7 5.7c-2.85.65-5 3.3-5 6.35a6.63 6.63 0 0 0 6.6 6.6h26.8a6.63 6.63 0 0 0 6.6-6.6c-.05-3.6-2.95-6.55-6.55-6.55zm7-11.1c-.45-5.25-4.85-9.4-10.2-9.4-3.8 0-7.15 2.1-8.9 5.15-1-.8-2.25-1.25-3.6-1.25a5.7 5.7 0 0 0-5.7 5.7c-2.4.6-4.25 2.45-4.85 4.85 1.05-.6 2.25-.95 3.5-.95 1.1 0 2.15.25 3.15.75 2.2-2.9 5.65-4.6 9.35-4.6 5.65 0 10.5 4.1 11.55 9.55 2.2.4 4.1 1.65 5.35 3.45h.35c3.65 0 6.6-2.95 6.6-6.6-.05-3.65-3-6.6-6.6-6.65zm61.8-3.1a10.25 10.25 0 0 0-10.25-9.4c-3.8 0-7.15 2.1-8.9 5.15-.95-.8-2.2-1.25-3.6-1.25a5.7 5.7 0 0 0-5.7 5.7c-2.4.6-4.25 2.45-4.85 4.85 1.05-.6 2.25-.95 3.5-.95 1.1 0 2.15.25 3.15.75 2.2-2.9 5.65-4.6 9.35-4.6 5.65 0 10.5 4.1 11.55 9.55 2.2.4 4.1 1.65 5.35 3.45h.35c3.65 0 6.6-2.95 6.6-6.6-.05-3.7-2.95-6.65-6.55-6.65zm-7.05 11.05c-.4-5.25-4.85-9.4-10.2-9.4-3.8 0-7.15 2.1-8.9 5.15a5.62 5.62 0 0 0-3.6-1.25 5.7 5.7 0 0 0-5.7 5.7c-2.85.7-5.05 3.3-5.05 6.4a6.63 6.63 0 0 0 6.6 6.6h3.25l2.3-4.5c.4-.75 1.3-1.05 2-.65.75.4 1.05 1.3.65 2l-1.55 3.15h4.3l-2.4 4.75c-.4.75-.1 1.65.65 2 .75.4 1.65.1 2-.65l3.15-6.15h-3.3l2.25-4.45c.4-.75 1.3-1.05 2-.65.75.4 1.05 1.3.65 2l-1.6 3.15h4.35l2.3-4.5c.4-.75 1.3-1.05 2-.65.75.4 1.05 1.3.65 2l-1.55 3.1h-3.35l-2.45 4.8c-.4.75-.1 1.65.65 2 .75.4 1.65.1 2-.65l3.1-6.1h4.7a6.63 6.63 0 0 0 6.6-6.6c.05-3.6-2.9-6.55-6.5-6.6z"/><path d="M205.95 111.9c-.4.75-.1 1.65.65 2 .75.4 1.65.1 2-.65l3.15-6.1h-3.35l-2.45 4.75zm89.2-18.8a8.51 8.51 0 0 1 2.25.75c2.55-1.75 4.05-4.85 3.65-8.15a8.71 8.71 0 0 0-9.65-7.65c-3.35.4-6.05 2.65-7.15 5.6 5.35.25 9.9 4.2 10.9 9.45z"/><use href="#B" x="124" y="57.1"/><use href="#F"/><path d="M304.15 94.25l-1.4-1.1c-.6-.5-1.5-.4-2 .25-.5.6-.4 1.5.25 2l1.4 1.1c.6.5 1.5.4 2-.25.5-.6.4-1.5-.25-2zm3.5-9.25c-.1-.8-.8-1.35-1.6-1.25l-1.75.2c-.75.05-1.3.8-1.25 1.55.1.8.8 1.35 1.6 1.25l1.75-.2c.8-.1 1.35-.8 1.25-1.55z"/><use href="#D" x="124" y="57.05"/><path d="M293.85 94.45c-.45-5.25-4.8-9.35-10.15-9.35-3.8 0-7.05 2.05-8.85 5.1-.95-.8-2.2-1.25-3.55-1.25-3.1 0-5.65 2.5-5.65 5.65-2.85.7-5 3.3-5 6.35 0 3.6 2.95 6.55 6.55 6.55h4.75l2.4-4.65c.4-.75 1.3-1.05 2-.65.75.4 1.05 1.3.65 2l-1.65 3.3h4.35l2.4-4.65c.4-.75 1.3-1.05 2-.65.75.4 1.05 1.3.65 2l-1.7 3.3h4.35l2.4-4.65c.4-.75 1.3-1.05 2-.65.75.4 1.05 1.3.65 2l-1.65 3.3h3c3.6 0 6.55-2.95 6.55-6.55-.05-3.55-2.95-6.5-6.5-6.5z"/><path d="M269.6 112.1c-.4.75-.1 1.65.65 2 .75.4 1.65.1 2-.65l3.1-5.95H272l-2.4 4.6zm7.75 0c-.4.75-.1 1.65.65 2 .75.4 1.65.1 2-.65l3.05-5.95h-3.35l-2.35 4.6zm7.7 0c-.4.75-.1 1.65.65 2 .75.4 1.65.1 2-.65l3.1-5.95h-3.35l-2.4 4.6z"/><g fill-rule="evenodd"><path d="M45.85 156.8c-.45-5.25-4.8-9.35-10.15-9.35-3.8 0-7.05 2.05-8.85 5.1-.95-.8-2.2-1.25-3.55-1.25-3.1 0-5.65 2.5-5.65 5.65-2.85.7-5 3.3-5 6.35 0 3.6 2.95 6.55 6.55 6.55h26.6c3.6 0 6.55-2.95 6.55-6.55-.05-3.55-2.95-6.5-6.5-6.5zm1.3-1.35a8.51 8.51 0 0 1 2.25.75c2.55-1.75 4.05-4.85 3.65-8.15-.55-4.75-4.9-8.2-9.65-7.65-3.35.4-6.05 2.65-7.15 5.6 5.35.25 9.9 4.2 10.9 9.45zm-5.5-18.35c.1.8.8 1.35 1.6 1.25s1.35-.8 1.25-1.6l-.25-1.75c-.1-.8-.8-1.35-1.6-1.25s-1.35.8-1.25 1.6l.25 1.75z"/><use href="#F" x="-248" y="62.35"/><path d="M56.15 156.6l-1.35-1.1c-.6-.5-1.5-.4-2 .25-.5.6-.4 1.5.25 2l1.4 1.1c.6.5 1.5.4 2-.25.45-.6.35-1.5-.3-2z"/><use href="#C" x="-124" y="119.4"/><use href="#D" x="-124" y="119.4"/></g><use href="#G"/><use href="#G" x="9.55"/><use href="#G" x="19.1"/><use href="#G" x="4.75" y="4.7"/><use href="#G" x="14.35" y="4.7"/><path d="M108.15 156.6c-.45-5.3-4.9-9.45-10.3-9.45-3.85 0-7.15 2.1-8.95 5.2-1-.8-2.25-1.3-3.6-1.3a5.7 5.7 0 0 0-5.7 5.7c-2.9.75-5.1 3.35-5.1 6.45 0 3.65 3 6.65 6.65 6.65h26.95c3.65 0 6.65-3 6.65-6.65a6.73 6.73 0 0 0-6.6-6.6zm13-11h-.1-.05s-.05 0-.05.05c-1.1.65-2.4 1.05-3.8 1.05a7.26 7.26 0 0 1-7.25-7.25c0-1 .2-1.95.55-2.85 0 0 0-.05.05-.05v-.05a.34.34 0 0 0-.35-.35h-.1c-4.95.65-8.75 4.85-8.75 10 4.1 1.25 7.3 4.75 8.15 9.05 1 .15 1.9.5 2.75 1 5.2-.35 9.3-4.7 9.3-10v-.2-.15a.33.33 0 0 0-.35-.25z" fill-rule="evenodd"/><use href="#G" x="61.95"/><use href="#G" x="71.55"/><use href="#G" x="81.1"/><use href="#G" x="66.75" y="4.7"/><use href="#G" x="76.3" y="4.7"/><path d="M170.2 154.5a10.29 10.29 0 0 0-10.25-9.4c-3.8 0-7.15 2.1-8.9 5.15-1-.8-2.25-1.25-3.6-1.25a5.7 5.7 0 0 0-5.7 5.7c-2.85.7-5 3.3-5 6.4a6.63 6.63 0 0 0 6.6 6.6h6.4l6.05-11.3c.3-.55.9-.9 1.5-.9.5 0 .95.2 1.3.6.35.35.5.85.4 1.35l-.7 6.05 2.95-.2h.05c.65 0 1.2.35 1.5.9s.3 1.25-.05 1.75l-1.1 1.7h8.45c3.65 0 6.6-2.95 6.6-6.6 0-3.55-2.9-6.5-6.5-6.55zm7-11.05c-.45-5.3-4.85-9.4-10.2-9.4-3.8 0-7.15 2.1-8.9 5.15-.95-.8-2.2-1.25-3.6-1.25a5.7 5.7 0 0 0-5.7 5.7c-2.4.6-4.25 2.45-4.85 4.85 1.05-.6 2.25-.95 3.5-.95 1.1 0 2.15.25 3.15.75 2.2-2.9 5.65-4.6 9.35-4.6 5.65 0 10.5 4.1 11.55 9.55 2.2.4 4.1 1.65 5.35 3.45h.35c3.65 0 6.6-2.95 6.6-6.6-.05-3.7-3-6.65-6.6-6.65zm-15.9 21.4l-4.45.25c-.15 0-.25-.1-.25-.25l.85-7.65c.05-.25-.3-.35-.4-.15l-6.25 11.85c-.1.15.05.35.2.35l3.4-.1c.15 0 .25.1.2.25l-1.2 7.7c-.05.25.3.35.4.15l7.7-12.1c.1-.15 0-.35-.2-.3zm80.45.75l-2.35-1.35 1.35-.35c.4-.1.65-.5.55-.95-.1-.4-.5-.65-.95-.55l-2.8.75-2.1-1.2 3.4-.9c.4-.1.65-.5.55-.95-.1-.4-.5-.65-.95-.55l-4.85 1.3-2.1-1.2 5.5-1.45c.4-.1.65-.5.55-.95-.1-.4-.5-.65-.95-.55l-6.95 1.85-1.8-1.05v-3l1.85-1.05 6.95 1.85c.4.1.8-.15.95-.55.1-.4-.15-.8-.55-.95l-5.5-1.45 2.1-1.2 4.85 1.3c.4.1.8-.15.95-.55.1-.4-.15-.8-.55-.95l-3.4-.9 2.1-1.2 2.8.75c.4.1.8-.15.9-.55s-.15-.8-.55-.9l-1.35-.35 2.35-1.35c.35-.25.45-.7.2-1.05-.2-.3-.65-.45-.95-.25l-2.35 1.35.35-1.35c.1-.4-.15-.8-.55-.95-.4-.1-.8.15-.95.55l-.75 2.8-2.1 1.2.9-3.4c.1-.4-.15-.8-.55-.95-.4-.1-.8.15-.95.55l-1.3 4.85-2.1 1.2 1.45-5.5c.1-.4-.15-.8-.55-.95-.4-.1-.8.15-.95.55l-1.85 6.95-1.8 1.05-2.7-1.5v-2.1l5.25-5.05c.3-.3.3-.8 0-1.05-.3-.3-.75-.3-1.05 0l-4 4V145l3.55-3.55c.3-.3.3-.8 0-1.05-.3-.3-.75-.3-1.05 0l-2.5 2.5v-2.4l2.05-2.05c.3-.3.3-.8 0-1.05-.3-.3-.75-.3-1.05 0l-1 1v-2.85a.77.77 0 0 0-.75-.75.77.77 0 0 0-.75.75v2.7l-1-1c-.3-.3-.8-.3-1.05 0-.3.3-.3.75 0 1.05l2.05 2.05v2.4l-2.5-2.5c-.3-.3-.8-.3-1.05 0-.3.3-.3.75 0 1.05l3.55 3.55v2.4l-4-4c-.3-.3-.8-.3-1.05 0-.3.3-.3.75 0 1.05l5 5.2v2.05l-2.65 1.6-1.85-1.05-1.85-6.95c-.1-.4-.5-.65-.95-.55-.4.1-.65.5-.55.95l1.45 5.5-2-1.2-1.3-4.85a.8.8 0 0 0-.95-.55c-.4.1-.65.5-.55.95l.9 3.4-2.1-1.2-.75-2.8c-.1-.4-.5-.65-.95-.55-.4.1-.65.5-.55.95l.35 1.35-2.35-1.35c-.4-.2-.85-.05-1 .35-.15.35-.05.75.25.95l2.35 1.35-1.35.35c-.4.1-.65.5-.55.95.1.4.5.65.95.55l2.8-.75 2.1 1.2-3.35.85c-.4.1-.65.55-.5.95.1.3.4.55.7.55.05 0 .15 0 .2-.05l4.85-1.3 2.1 1.2-5.5 1.45c-.4.1-.65.55-.5.95.1.3.4.55.7.55.05 0 .15 0 .2-.05l6.95-1.85 1.75 1 .05 3.1-1.8 1.05-6.95-1.85c-.4-.1-.8.15-.95.55-.1.4.15.8.55.95l5.5 1.45-2.1 1.2-4.85-1.3c-.4-.1-.8.15-.95.55-.1.4.15.8.55.95l3.4.9-2.1 1.2-2.75-.75c-.4-.1-.8.15-.95.55-.1.4.15.8.55.95l1.35.35-2.35 1.35a.79.79 0 0 0-.3 1.05c.15.25.4.4.65.4.15 0 .25-.05.4-.1l2.35-1.35-.35 1.35c-.1.4.15.8.55.9s.8-.15.9-.55l.75-2.8 2.1-1.2-.9 3.4c-.1.4.15.8.55.95.4.1.8-.15.95-.55l1.3-4.85 2.1-1.2-1.45 5.5c-.1.4.15.8.55.9s.8-.15.9-.55l1.85-6.95 1.75-1 2.7 1.5v2.05l-5.1 5.1c-.3.3-.3.8 0 1.05.3.3.75.3 1.05 0l4-4v2.4l-3.55 3.55c-.3.3-.3.8 0 1.05.3.3.75.3 1.05 0l2.5-2.5v2.4l-2.05 2.05c-.3.3-.3.8 0 1.05.3.3.75.3 1.05 0l1-1v2.7a.77.77 0 0 0 .75.75.77.77 0 0 0 .75-.75v-2.7l1 1c.3.3.75.3 1.05 0s.3-.8 0-1.05l-2.05-2.05v-2.4l2.5 2.5c.3.3.75.3 1.05 0s.3-.8 0-1.05l-3.55-3.55v-2.4l4 4c.3.3.75.3 1.05 0s.3-.8 0-1.05l-5.05-5.1v-2.05l2.65-1.6 1.85 1.05 1.85 6.95c.1.4.5.65.95.55.4-.1.65-.5.55-.9l-1.45-5.5 2.1 1.2 1.3 4.85c.1.4.5.65.95.55.4-.1.65-.5.55-.95l-.9-3.4 2.1 1.2.75 2.8c.1.4.5.65.95.55.4-.1.65-.5.55-.9l-.35-1.35 2.35 1.35c.35.2.85.05 1.05-.3 0-.35-.1-.8-.45-1zM269 144.75h24.15c.95 0 1.75-.8 1.75-1.75s-.8-1.75-1.75-1.75H269c-.95 0-1.75.8-1.75 1.75s.8 1.75 1.75 1.75zM290.45 156c0-.95-.8-1.75-1.75-1.75h-24.15c-.95 0-1.75.8-1.75 1.75s.8 1.75 1.75 1.75h24.15a1.74 1.74 0 0 0 1.75-1.75zm-3.2 12.05H272.6c-.95 0-1.75.8-1.75 1.75s.8 1.75 1.75 1.75h14.65a1.74 1.74 0 0 0 1.75-1.75c0-.95-.8-1.75-1.75-1.75zm9.7 0h-4.2c-.95 0-1.75.8-1.75 1.75s.8 1.75 1.75 1.75h4.2c.95 0 1.75-.8 1.75-1.75s-.8-1.75-1.75-1.75zm7.15-13.8h-10.25c-.95 0-1.75.8-1.75 1.75s.8 1.75 1.75 1.75h10.25a1.74 1.74 0 0 0 1.75-1.75c0-.95-.8-1.75-1.75-1.75zm-20.65-4.5c0 .95.8 1.75 1.75 1.75h15.75c.95 0 1.75-.8 1.75-1.75s-.8-1.75-1.75-1.75H285.2c-.95 0-1.75.8-1.75 1.75zm14.2 10.8H281.9c-.95 0-1.75.8-1.75 1.75s.8 1.75 1.75 1.75h15.75c.95 0 1.75-.8 1.75-1.75s-.8-1.75-1.75-1.75zm-19.4 1.75c0-.95-.8-1.75-1.75-1.75h-6.85c-.95 0-1.75.8-1.75 1.75s.8 1.75 1.75 1.75h6.85c.95 0 1.75-.8 1.75-1.75zM275.6 148c-.95 0-1.75.8-1.75 1.75s.8 1.75 1.75 1.75h4.3c1 0 1.8-.8 1.75-1.75 0-.95-.8-1.75-1.75-1.75h-4.3z"/></g><defs ><path id="B" d="M165.65 17.65c.1.8.8 1.35 1.6 1.25s1.35-.8 1.25-1.6l-.2-1.75c-.1-.8-.8-1.35-1.6-1.25s-1.35.8-1.25 1.6l.2 1.75z"/><path id="C" d="M183.65 27.9c-.1-.8-.8-1.35-1.6-1.25l-1.75.2c-.8.1-1.35.8-1.25 1.6s.8 1.35 1.6 1.25l1.75-.2c.8-.1 1.35-.8 1.25-1.6z"/><path id="D" d="M177.1 21l1.1-1.4c.5-.6.4-1.5-.25-2-.6-.5-1.5-.4-2 .25l-1.1 1.4c-.45.6-.35 1.5.25 2s1.5.4 2-.25z"/><path id="E" d="M305.25 24.15c-.15-1.95-1.8-3.5-3.8-3.5-1.4 0-2.65.8-3.3 1.95-.35-.3-.85-.45-1.35-.45-1.15 0-2.1.95-2.1 2.1-1.1.25-1.9 1.25-1.9 2.4 0 1.35 1.1 2.45 2.45 2.45h10c1.35 0 2.45-1.1 2.45-2.45 0-1.4-1.1-2.5-2.45-2.5z"/><path id="F" d="M280.65 79.1l1.4 1.1c.6.5 1.5.4 2-.25.5-.6.4-1.5-.25-2l-1.4-1.1c-.6-.5-1.5-.4-2 .25-.5.6-.4 1.5.25 2z"/><path id="G" d="M22.55 174.15a1.5 1.5 0 1 0 0-3 1.5 1.5 0 1 0 0 3z"/></defs></svg>