<svg xmlns="http://www.w3.org/2000/svg" width="320" height="188" fill="none" xmlns:v="https://vecta.io/nano"><style><![CDATA[.B{stroke-miterlimit:10}.C{stroke-linecap:round}.D{stroke-width:.375}.E{stroke-width:1.5}.F{stroke:#e6effc}.G{stroke:#f8af18}.H{stroke:#fbbf24}.I{stroke:#72b9d5}.J{stroke-linejoin:round}.K{stroke-width:2.25}]]></style><rect x=".5" y=".5" width="319" height="187" rx="3.5" fill="#0350b1"/><rect x=".5" y=".5" width="319" height="187" rx="3.5" stroke="#0f488e"/><g class="B"><path d="M36 39.875c4.349 0 7.875-3.526 7.875-7.875S40.349 24.125 36 24.125 28.125 27.651 28.125 32s3.526 7.875 7.875 7.875z" fill="url(#A)" class="D G"/><path d="M36 19.783v-4.657m0 33.75v-4.657m8.64-20.857l3.292-3.293M24.068 43.933l3.293-3.292m0-17.25l-3.293-3.293m23.865 23.835L44.64 40.64M23.783 32h-4.657m33.75 0h-4.657" class="C H K"/></g><g class="D"><path d="M108.995 35.15c-1.641.012-3.269-.3-4.79-.917s-2.906-1.529-4.074-2.681a12.49 12.49 0 0 1-2.738-4.037c-.638-1.512-.973-3.136-.983-4.777.003-1.051.142-2.097.413-3.113a12.42 12.42 0 0 0-10.076 7.909 12.42 12.42 0 0 0 2.271 12.606 12.42 12.42 0 0 0 12.203 3.895 12.42 12.42 0 0 0 9.154-8.96l-1.38.075z" fill="url(#B)" class="I J"/><use href="#n" fill="url(#C)" class="B G"/></g><path d="M150.25 19.753v-2.378m0 17.25v-2.377m4.417-10.665l1.68-1.68m-12.195 12.195l1.68-1.68m0-8.835l-1.68-1.68m12.195 12.195l-1.68-1.68M141.625 26h2.378m14.872 0h-2.378" class="B C E H"/><use href="#o" fill="url(#D)" class="B D F"/><g stroke-width=".75" class="B"><path d="M159.25 42.6875C159.768 42.6875 160.188 42.2678 160.188 41.75C160.188 41.2322 159.768 40.8125 159.25 40.8125C158.732 40.8125 158.312 41.2322 158.312 41.75C158.312 42.2678 158.732 42.6875 159.25 42.6875Z" stroke="url(#E)"/><path d="M160.878 42.6875L160.06 42.215M158.44 41.285L157.623 40.8125M159.25 39.875V40.8125M159.25 43.625V42.6875M158.44 42.215L157.623 42.6875M160.878 40.8125L160.06 41.285" stroke="url(#F)" class="C"/><path d="M154 42.6875C154.518 42.6875 154.938 42.2678 154.938 41.75C154.938 41.2322 154.518 40.8125 154 40.8125C153.482 40.8125 153.062 41.2322 153.062 41.75C153.062 42.2678 153.482 42.6875 154 42.6875Z" stroke="url(#G)"/><path d="M155.628 42.6875L154.81 42.215M153.19 41.285L152.373 40.8125M154 39.875V40.8125M154 43.625V42.6875M153.19 42.215L152.373 42.6875M155.628 40.8125L154.81 41.285" stroke="url(#H)" class="C"/><path d="M164.5 42.6875C165.018 42.6875 165.438 42.2678 165.438 41.75C165.438 41.2322 165.018 40.8125 164.5 40.8125C163.982 40.8125 163.562 41.2322 163.562 41.75C163.562 42.2678 163.982 42.6875 164.5 42.6875Z" stroke="url(#I)"/><path d="M166.128 42.6875L165.31 42.215M163.69 41.285L162.873 40.8125M164.5 39.875V40.8125M164.5 43.625V42.6875M163.69 42.215L162.873 42.6875M166.128 40.8125L165.31 41.285" stroke="url(#J)" class="C"/></g><use href="#n" x="62" fill="url(#C)" class="B D G"/><path d="M212.25 19.753v-2.378m0 17.25v-2.377m4.417-10.665l1.68-1.68m-12.195 12.195l1.68-1.68m0-8.835l-1.68-1.68m12.195 12.195l-1.68-1.68M203.625 26h2.378m14.872 0h-2.378" class="B C E H"/><g class="D"><use href="#o" x="62" fill="url(#D)" class="B F"/><path d="M281.998 28.01c-1.045.007-2.081-.192-3.049-.586a7.95 7.95 0 0 1-4.335-4.278c-.407-.963-.619-1.996-.626-3.041a7.88 7.88 0 0 1 .262-1.98c-1.425.177-2.776.739-3.906 1.626s-1.997 2.065-2.508 3.407a7.9 7.9 0 0 0-.391 4.213c.254 1.414.889 2.731 1.837 3.811s2.171 1.881 3.539 2.318 2.83.492 4.228.161a7.9 7.9 0 0 0 5.826-5.704 8.59 8.59 0 0 1-.877.053z" fill="url(#K)" class="I J"/><g class="B F"><use href="#o" x="124" fill="url(#D)"/><path d="M46.875 93.625h-.24c.441-1.819.219-3.735-.625-5.405a7.87 7.87 0 0 0-9.418-3.943 7.87 7.87 0 0 0-4.289 3.348 5.25 5.25 0 0 0-5.269-.05 5.25 5.25 0 0 0-2.658 4.55 5.41 5.41 0 0 0 .075.855c-1.369.268-2.59 1.035-3.425 2.153s-1.225 2.506-1.094 3.895.773 2.679 1.802 3.621 2.372 1.468 3.767 1.476a3.35 3.35 0 0 0 .375 0h21a5.25 5.25 0 0 0 5.25-5.25 5.25 5.25 0 0 0-5.25-5.25z" fill="url(#L)"/><path d="M108.875 93.625h-.24a7.87 7.87 0 0 0-4.608-9.112c-1.726-.723-3.653-.806-5.436-.236a7.87 7.87 0 0 0-4.289 3.348 5.25 5.25 0 0 0-5.269-.05 5.25 5.25 0 0 0-2.658 4.55 5.41 5.41 0 0 0 .075.855c-1.369.268-2.59 1.035-3.425 2.153s-1.225 2.506-1.094 3.895.773 2.679 1.802 3.621 2.372 1.468 3.767 1.476a3.35 3.35 0 0 0 .375 0h21c1.392 0 2.728-.553 3.712-1.538s1.538-2.32 1.538-3.712a5.25 5.25 0 0 0-5.25-5.25z" fill="url(#M)"/><use href="#p" fill="url(#N)"/><use href="#p" x="62" fill="url(#N)"/></g></g><g class="C E B"><path d="M216.293 102.272L215.708 105.977" stroke="url(#O)"/><path d="M221.543 102.272L220.958 105.977" stroke="url(#P)"/><path d="M226.793 102.272L226.208 105.977" stroke="url(#Q)"/></g><use href="#n" x="124" y="62" fill="url(#C)" class="B D G"/><path d="M274.25 81.753v-2.377m0 17.25v-2.377m4.417-10.665l1.68-1.68m-12.195 12.195l1.68-1.68m0-8.835l-1.68-1.68m12.195 12.195l-1.68-1.68M265.625 88h2.378m14.872 0h-2.378" class="B C E H"/><use href="#p" x="124" fill="url(#N)" class="B D F"/><g class="C E B"><path d="M278.293 102.272L277.708 105.977" stroke="url(#R)"/><path d="M283.543 102.272L282.958 105.977" stroke="url(#S)"/><path d="M288.793 102.272L288.208 105.977" stroke="url(#T)"/></g><use href="#n" x="-124" y="124" fill="url(#U)" class="B D G"/><path d="M26.25 143.753v-2.378m0 17.25v-2.377m4.418-10.665l1.68-1.681m-12.195 12.196l1.68-1.681m0-8.834l-1.68-1.681m12.195 12.196l-1.68-1.681M17.625 150h2.378m14.872 0h-2.377" class="B C E H"/><path d="M46.875 155.625h-.24a7.87 7.87 0 0 0-4.608-9.112c-1.726-.722-3.653-.806-5.436-.236s-3.303 1.758-4.289 3.348a5.25 5.25 0 0 0-2.628-.734c-.925-.009-1.836.227-2.641.684a5.25 5.25 0 0 0-1.941 1.917c-.467.799-.714 1.708-.717 2.633a5.41 5.41 0 0 0 .075.855c-1.369.268-2.59 1.036-3.425 2.153s-1.225 2.506-1.094 3.895.773 2.679 1.802 3.621 2.372 1.468 3.767 1.476a3.35 3.35 0 0 0 .375 0h21a5.25 5.25 0 0 0 5.25-5.25 5.25 5.25 0 0 0-5.25-5.25z" fill="url(#V)" class="B D F"/><g class="C E B"><path d="M30.2925 164.272L29.7075 167.977" stroke="url(#W)"/><path d="M35.5425 164.272L34.9575 167.977" stroke="url(#X)"/><path d="M40.7925 164.272L40.2075 167.977" stroke="url(#Y)"/></g><g class="D"><path d="M95.998 152.01c-1.045.007-2.081-.192-3.049-.586s-1.849-.973-2.593-1.708-1.336-1.607-1.742-2.57a7.96 7.96 0 0 1-.626-3.041c.003-.668.091-1.334.263-1.98-1.425.177-2.776.739-3.906 1.626a7.91 7.91 0 0 0-2.508 3.407c-.511 1.343-.646 2.799-.392 4.213s.89 2.732 1.837 3.812 2.171 1.881 3.54 2.318a7.91 7.91 0 0 0 4.228.16 7.9 7.9 0 0 0 5.826-5.703l-.877.052z" fill="url(#Z)" class="I J"/><path d="M108.875 155.625h-.24a7.87 7.87 0 0 0-4.608-9.112 7.87 7.87 0 0 0-5.436-.236c-1.782.571-3.303 1.758-4.289 3.348a5.25 5.25 0 0 0-2.628-.734c-.925-.009-1.837.227-2.641.684a5.25 5.25 0 0 0-1.941 1.917c-.467.799-.714 1.708-.717 2.633a5.41 5.41 0 0 0 .075.855c-1.369.268-2.59 1.036-3.425 2.153s-1.225 2.506-1.094 3.895.773 2.679 1.802 3.621 2.372 1.468 3.767 1.476a3.35 3.35 0 0 0 .375 0h21c1.392 0 2.728-.553 3.712-1.538s1.538-2.32 1.538-3.712-.553-2.728-1.538-3.712-2.32-1.538-3.712-1.538z" fill="url(#a)" class="B F"/></g><g class="C E B"><path d="M92.2925 164.272L91.7075 167.977" stroke="url(#b)"/><path d="M97.5425 164.272L96.9575 167.977" stroke="url(#c)"/><path d="M102.793 164.272L102.208 167.977" stroke="url(#d)"/></g><g class="D B"><use href="#q" fill="url(#e)" class="F"/><path d="M158.5 159l-3 9h3l-1.5 7.5 7.5-10.5H160l3-6h-4.5z" fill="url(#f)" stroke="#f6a823"/><use href="#n" x="62" y="124" fill="url(#U)" class="G"/></g><path d="M212.25 143.753v-2.378m0 17.25v-2.377m4.417-10.665l1.68-1.681m-12.195 12.196l1.68-1.681m0-8.834l-1.68-1.681m12.195 12.196l-1.68-1.681M203.625 150h2.378m14.872 0h-2.378" class="B C E H"/><use href="#q" x="62" fill="url(#e)" class="B D F"/><g stroke-width=".75" class="B"><path d="M221.25 166.688C221.768 166.688 222.188 166.268 222.188 165.75C222.188 165.232 221.768 164.812 221.25 164.812C220.732 164.812 220.312 165.232 220.312 165.75C220.312 166.268 220.732 166.688 221.25 166.688Z" stroke="url(#g)"/><path d="M222.878 166.688L222.06 166.215M220.44 165.285L219.623 164.812M221.25 163.875V164.812M221.25 167.625V166.688M220.44 166.215L219.623 166.688M222.878 164.812L222.06 165.285" stroke="url(#h)" class="C"/><path d="M216 166.688C216.518 166.688 216.938 166.268 216.938 165.75C216.938 165.232 216.518 164.812 216 164.812C215.482 164.812 215.062 165.232 215.062 165.75C215.062 166.268 215.482 166.688 216 166.688Z" stroke="url(#i)"/><path d="M217.628 166.688L216.81 166.215M215.19 165.285L214.373 164.812M216 163.875V164.812M216 167.625V166.688M215.19 166.215L214.373 166.688M217.628 164.812L216.81 165.285" stroke="url(#j)" class="C"/><path d="M226.5 166.688C227.018 166.688 227.438 166.268 227.438 165.75C227.438 165.232 227.018 164.812 226.5 164.812C225.982 164.812 225.562 165.232 225.562 165.75C225.562 166.268 225.982 166.688 226.5 166.688Z" stroke="url(#k)"/><path d="M228.128 166.688L227.31 166.215M225.69 165.285L224.873 164.812M226.5 163.875V164.812M226.5 167.625V166.688M225.69 166.215L224.873 166.688M228.128 164.812L227.31 165.285" stroke="url(#l)" class="C"/></g><g class="K B C"><path d="M272.75 150.75H295.25" stroke="url(#m)"/><path d="M272.75 156H295.25" stroke="url(#m)"/><path d="M272.75 161.25H295.25" stroke="url(#m)"/></g><defs><linearGradient id="A" x1="32.063" y1="25.183" x2="39.938" y2="38.818" href="#r"><stop stop-color="#fbbf24"/><stop offset=".45" stop-color="#fbbf24"/><stop offset="1" stop-color="#f59e0b"/></linearGradient><linearGradient id="B" x1="90.44" y1="22.063" x2="102.89" y2="43.64" href="#r"><stop stop-color="#86c3db"/><stop offset=".45" stop-color="#86c3db"/><stop offset="1" stop-color="#5eafcf"/></linearGradient><linearGradient id="C" x1="148.375" y1="22.753" x2="152.125" y2="29.248" href="#r"><stop stop-color="#fbbf24"/><stop offset=".45" stop-color="#fbbf24"/><stop offset="1" stop-color="#f59e0b"/></linearGradient><linearGradient id="D" x1="152.92" y1="24.47" x2="165.4" y2="46.1" href="#r"><stop stop-color="#f3f7fe"/><stop offset=".45" stop-color="#f3f7fe"/><stop offset="1" stop-color="#deeafb"/></linearGradient><linearGradient id="E" x1="158.59" y1="40.61" x2="159.91" y2="42.89" href="#r"><stop stop-color="#86c3db"/><stop offset=".45" stop-color="#86c3db"/><stop offset="1" stop-color="#5eafcf"/></linearGradient><linearGradient id="F" x1="158.253" y1="40.018" x2="160.248" y2="43.483" href="#r"><stop stop-color="#86c3db"/><stop offset=".45" stop-color="#86c3db"/><stop offset="1" stop-color="#5eafcf"/></linearGradient><linearGradient id="G" x1="153.34" y1="40.61" x2="154.66" y2="42.89" href="#r"><stop stop-color="#86c3db"/><stop offset=".45" stop-color="#86c3db"/><stop offset="1" stop-color="#5eafcf"/></linearGradient><linearGradient id="H" x1="153.003" y1="40.018" x2="154.998" y2="43.483" href="#r"><stop stop-color="#86c3db"/><stop offset=".45" stop-color="#86c3db"/><stop offset="1" stop-color="#5eafcf"/></linearGradient><linearGradient id="I" x1="163.84" y1="40.61" x2="165.16" y2="42.89" href="#r"><stop stop-color="#86c3db"/><stop offset=".45" stop-color="#86c3db"/><stop offset="1" stop-color="#5eafcf"/></linearGradient><linearGradient id="J" x1="163.503" y1="40.018" x2="165.498" y2="43.483" href="#r"><stop stop-color="#86c3db"/><stop offset=".45" stop-color="#86c3db"/><stop offset="1" stop-color="#5eafcf"/></linearGradient><linearGradient id="K" x1="270.185" y1="19.678" x2="278.113" y2="33.403" href="#r"><stop stop-color="#86c3db"/><stop offset=".45" stop-color="#86c3db"/><stop offset="1" stop-color="#5eafcf"/></linearGradient><linearGradient id="L" x1="28.92" y1="86.47" x2="41.4" y2="108.1" href="#r"><stop stop-color="#f3f7fe"/><stop offset=".45" stop-color="#f3f7fe"/><stop offset="1" stop-color="#deeafb"/></linearGradient><linearGradient id="M" x1="90.92" y1="86.47" x2="103.4" y2="108.1" href="#r"><stop stop-color="#f3f7fe"/><stop offset=".45" stop-color="#f3f7fe"/><stop offset="1" stop-color="#deeafb"/></linearGradient><linearGradient id="N" x1="152.92" y1="86.47" x2="165.4" y2="108.1" href="#r"><stop stop-color="#f3f7fe"/><stop offset=".45" stop-color="#f3f7fe"/><stop offset="1" stop-color="#deeafb"/></linearGradient><linearGradient id="O" x1="214.898" y1="102.212" x2="217.103" y2="106.037" href="#r"><stop stop-color="#4286ee"/><stop offset=".45" stop-color="#4286ee"/><stop offset="1" stop-color="#0950bc"/></linearGradient><linearGradient id="P" x1="220.148" y1="102.212" x2="222.353" y2="106.037" href="#r"><stop stop-color="#4286ee"/><stop offset=".45" stop-color="#4286ee"/><stop offset="1" stop-color="#0950bc"/></linearGradient><linearGradient id="Q" x1="225.398" y1="102.212" x2="227.603" y2="106.037" href="#r"><stop stop-color="#4286ee"/><stop offset=".45" stop-color="#4286ee"/><stop offset="1" stop-color="#0950bc"/></linearGradient><linearGradient id="R" x1="276.898" y1="102.212" x2="279.103" y2="106.037" href="#r"><stop stop-color="#4286ee"/><stop offset=".45" stop-color="#4286ee"/><stop offset="1" stop-color="#0950bc"/></linearGradient><linearGradient id="S" x1="282.148" y1="102.212" x2="284.353" y2="106.037" href="#r"><stop stop-color="#4286ee"/><stop offset=".45" stop-color="#4286ee"/><stop offset="1" stop-color="#0950bc"/></linearGradient><linearGradient id="T" x1="287.398" y1="102.212" x2="289.603" y2="106.037" href="#r"><stop stop-color="#4286ee"/><stop offset=".45" stop-color="#4286ee"/><stop offset="1" stop-color="#0950bc"/></linearGradient><linearGradient id="U" x1="148.375" y1="22.752" x2="152.125" y2="29.248" href="#r"><stop stop-color="#fbbf24"/><stop offset=".45" stop-color="#fbbf24"/><stop offset="1" stop-color="#f59e0b"/></linearGradient><linearGradient id="V" x1="28.92" y1="148.47" x2="41.4" y2="170.1" href="#r"><stop stop-color="#f3f7fe"/><stop offset=".45" stop-color="#f3f7fe"/><stop offset="1" stop-color="#deeafb"/></linearGradient><linearGradient id="W" x1="28.898" y1="164.212" x2="31.103" y2="168.037" href="#r"><stop stop-color="#4286ee"/><stop offset=".45" stop-color="#4286ee"/><stop offset="1" stop-color="#0950bc"/></linearGradient><linearGradient id="X" x1="34.148" y1="164.212" x2="36.353" y2="168.037" href="#r"><stop stop-color="#4286ee"/><stop offset=".45" stop-color="#4286ee"/><stop offset="1" stop-color="#0950bc"/></linearGradient><linearGradient id="Y" x1="39.398" y1="164.212" x2="41.603" y2="168.037" href="#r"><stop stop-color="#4286ee"/><stop offset=".45" stop-color="#4286ee"/><stop offset="1" stop-color="#0950bc"/></linearGradient><linearGradient id="Z" x1="84.185" y1="143.677" x2="92.113" y2="157.402" href="#r"><stop stop-color="#86c3db"/><stop offset=".45" stop-color="#86c3db"/><stop offset="1" stop-color="#5eafcf"/></linearGradient><linearGradient id="a" x1="90.92" y1="148.47" x2="103.4" y2="170.1" href="#r"><stop stop-color="#f3f7fe"/><stop offset=".45" stop-color="#f3f7fe"/><stop offset="1" stop-color="#deeafb"/></linearGradient><linearGradient id="b" x1="90.898" y1="164.212" x2="93.103" y2="168.037" href="#r"><stop stop-color="#4286ee"/><stop offset=".45" stop-color="#4286ee"/><stop offset="1" stop-color="#0950bc"/></linearGradient><linearGradient id="c" x1="96.148" y1="164.212" x2="98.353" y2="168.037" href="#r"><stop stop-color="#4286ee"/><stop offset=".45" stop-color="#4286ee"/><stop offset="1" stop-color="#0950bc"/></linearGradient><linearGradient id="d" x1="101.398" y1="164.212" x2="103.603" y2="168.037" href="#r"><stop stop-color="#4286ee"/><stop offset=".45" stop-color="#4286ee"/><stop offset="1" stop-color="#0950bc"/></linearGradient><linearGradient id="e" x1="152.92" y1="148.47" x2="165.4" y2="170.1" href="#r"><stop stop-color="#f3f7fe"/><stop offset=".45" stop-color="#f3f7fe"/><stop offset="1" stop-color="#deeafb"/></linearGradient><linearGradient id="f" x1="156.055" y1="160.41" x2="162.82" y2="172.14" href="#r"><stop stop-color="#f7b23b"/><stop offset=".45" stop-color="#f7b23b"/><stop offset="1" stop-color="#f59e0b"/></linearGradient><linearGradient id="g" x1="220.59" y1="164.61" x2="221.91" y2="166.89" href="#r"><stop stop-color="#86c3db"/><stop offset=".45" stop-color="#86c3db"/><stop offset="1" stop-color="#5eafcf"/></linearGradient><linearGradient id="h" x1="220.253" y1="164.018" x2="222.248" y2="167.482" href="#r"><stop stop-color="#86c3db"/><stop offset=".45" stop-color="#86c3db"/><stop offset="1" stop-color="#5eafcf"/></linearGradient><linearGradient id="i" x1="215.34" y1="164.61" x2="216.66" y2="166.89" href="#r"><stop stop-color="#86c3db"/><stop offset=".45" stop-color="#86c3db"/><stop offset="1" stop-color="#5eafcf"/></linearGradient><linearGradient id="j" x1="215.003" y1="164.018" x2="216.998" y2="167.483" href="#r"><stop stop-color="#86c3db"/><stop offset=".45" stop-color="#86c3db"/><stop offset="1" stop-color="#5eafcf"/></linearGradient><linearGradient id="k" x1="225.84" y1="164.61" x2="227.16" y2="166.89" href="#r"><stop stop-color="#86c3db"/><stop offset=".45" stop-color="#86c3db"/><stop offset="1" stop-color="#5eafcf"/></linearGradient><linearGradient id="l" x1="225.503" y1="164.018" x2="227.498" y2="167.482" href="#r"><stop stop-color="#86c3db"/><stop offset=".45" stop-color="#86c3db"/><stop offset="1" stop-color="#5eafcf"/></linearGradient><linearGradient id="m" x1="nan" y1="nan" x2="nan" y2="nan" href="#r"><stop stop-color="#d4d7dd"/><stop offset=".45" stop-color="#d4d7dd"/><stop offset="1" stop-color="#bec1c6"/></linearGradient><path id="n" d="M150.25 29.75a3.75 3.75 0 1 0 0-7.5 3.75 3.75 0 1 0 0 7.5z"/><path id="o" d="M170.875 31.625h-.24a7.87 7.87 0 0 0-4.608-9.112 7.87 7.87 0 0 0-9.725 3.112 5.25 5.25 0 0 0-5.269-.05 5.25 5.25 0 0 0-2.658 4.55 5.33 5.33 0 0 0 .075.855c-1.369.268-2.59 1.036-3.425 2.153s-1.225 2.506-1.094 3.895.773 2.68 1.802 3.622 2.372 1.468 3.767 1.476a3.17 3.17 0 0 0 .375 0h21a5.25 5.25 0 0 0 5.25-5.25 5.25 5.25 0 0 0-5.25-5.25z"/><path id="p" d="M170.875 93.625h-.24a7.87 7.87 0 0 0-4.608-9.112 7.87 7.87 0 0 0-9.725 3.112 5.25 5.25 0 0 0-5.269-.05 5.25 5.25 0 0 0-2.658 4.55 5.33 5.33 0 0 0 .075.855c-1.369.268-2.59 1.035-3.425 2.153s-1.225 2.506-1.094 3.895.773 2.679 1.802 3.621 2.372 1.468 3.767 1.476a3.35 3.35 0 0 0 .375 0h21c1.392 0 2.728-.553 3.712-1.538s1.538-2.32 1.538-3.712a5.25 5.25 0 0 0-5.25-5.25z"/><path id="q" d="M170.875 155.625h-.24a7.87 7.87 0 0 0-4.608-9.112c-1.726-.722-3.653-.806-5.436-.236s-3.303 1.758-4.289 3.348a5.25 5.25 0 0 0-2.627-.734c-.926-.009-1.837.227-2.642.684a5.25 5.25 0 0 0-1.941 1.917c-.467.799-.714 1.708-.717 2.633.002.287.027.572.075.855-1.369.268-2.59 1.036-3.425 2.153s-1.225 2.506-1.094 3.895.773 2.679 1.802 3.621 2.372 1.468 3.767 1.476a3.35 3.35 0 0 0 .375 0h21c1.392 0 2.728-.553 3.712-1.538s1.538-2.32 1.538-3.712-.553-2.728-1.538-3.712-2.32-1.538-3.712-1.538z"/><linearGradient id="r" gradientUnits="userSpaceOnUse"/></defs></svg>