<svg xmlns="http://www.w3.org/2000/svg" width="172" height="104" fill="none" ><style><![CDATA[.B{fill:#58707f}.C{fill-rule:evenodd}]]></style><rect x=".6" y=".6" width="170.8" height="102.8" rx="2.4" fill="#fff"/><rect x=".6" y=".6" width="170.8" height="102.8" rx="2.4" stroke="#8796a1" stroke-width="1.2"/><path d="M43.5 22v.5h.5 116l2.128.069c.489.066.748.186.933.37s.304.444.37.933c.068.503.069 1.171.069 2.128v66l-.069 2.128c-.066.489-.186.748-.37.933s-.444.305-.933.371c-.504.068-1.171.069-2.128.069H12c-.957 0-1.624-.001-2.128-.069-.489-.066-.748-.186-.933-.371s-.305-.444-.371-.933C8.501 93.624 8.5 92.957 8.5 92V12l.069-2.128c.066-.489.186-.748.371-.933s.444-.305.933-.371C10.376 8.501 11.043 8.5 12 8.5h31.5V22z" fill="#fff" stroke="#58707f"/><path d="M45 8H77V22H45V8Z" class="B"/><path d="M77 8h2v14h-2V8zM43 8h2v15h-2V8z" fill="#fff"/><path d="M9 9h34v2H9V9z" class="B"/><path d="M111 8h2v14h-2V8z" fill="#fff"/><g class="B"><path d="M79 8h32v14H79V8zm34 0h28c1.886 0 2.828 0 3.414.586S145 10.114 145 12v10h-32V8z"/><rect x="16" y="15" width="20" height="3" rx="1.5"/></g><g fill="#fff"><rect x="51" y="14" width="20" height="3" rx="1.5"/><rect x="85" y="14" width="20" height="3" rx="1.5"/><rect x="119" y="14" width="20" height="3" rx="1.5"/></g><rect x="65.5" y="32" width="90" height="54" rx=".5" stroke="#58707f"/><g class="B"><path d="M110 31.5h1v55h-1z"/><use href="#B" class="C"/><rect x="68" y="35.5" width="2" height="2" rx="1"/><rect x="71" y="35.75" width="8" height="1.5" rx=".75"/><rect x="100" y="35.75" width="8" height="1.5" rx=".75"/><rect x="113" y="35.5" width="2" height="2" rx="1"/><rect x="116" y="35.75" width="9" height="1.5" rx=".75"/><rect x="145" y="35.75" width="8" height="1.5" rx=".75"/><use href="#B" y="9" class="C"/><rect x="68" y="44.5" width="2" height="2" rx="1"/><rect x="71" y="44.75" width="8" height="1.5" rx=".75"/><rect x="100" y="44.75" width="8" height="1.5" rx=".75"/><rect x="113" y="44.5" width="2" height="2" rx="1"/><rect x="116" y="44.75" width="9" height="1.5" rx=".75"/><rect x="145" y="44.75" width="8" height="1.5" rx=".75"/><use href="#B" y="18" class="C"/><rect x="68" y="53.5" width="2" height="2" rx="1"/><rect x="71" y="53.75" width="8" height="1.5" rx=".75"/><rect x="100" y="53.75" width="8" height="1.5" rx=".75"/><rect x="113" y="53.5" width="2" height="2" rx="1"/><rect x="116" y="53.75" width="9" height="1.5" rx=".75"/><rect x="145" y="53.75" width="8" height="1.5" rx=".75"/><use href="#B" y="27" class="C"/><rect x="68" y="62.5" width="2" height="2" rx="1"/><rect x="71" y="62.75" width="8" height="1.5" rx=".75"/><rect x="100" y="62.75" width="8" height="1.5" rx=".75"/><rect x="113" y="62.5" width="2" height="2" rx="1"/><rect x="116" y="62.75" width="9" height="1.5" rx=".75"/><rect x="145" y="62.75" width="8" height="1.5" rx=".75"/><use href="#B" y="36" class="C"/><rect x="68" y="71.5" width="2" height="2" rx="1"/><rect x="71" y="71.75" width="8" height="1.5" rx=".75"/><rect x="100" y="71.75" width="8" height="1.5" rx=".75"/><rect x="113" y="71.5" width="2" height="2" rx="1"/><rect x="116" y="71.75" width="9" height="1.5" rx=".75"/><rect x="145" y="71.75" width="8" height="1.5" rx=".75"/><rect x="68" y="80.5" width="2" height="2" rx="1"/><rect x="71" y="80.75" width="8" height="1.5" rx=".75"/><rect x="100" y="80.75" width="8" height="1.5" rx=".75"/><rect x="113" y="80.5" width="2" height="2" rx="1"/><rect x="116" y="80.75" width="9" height="1.5" rx=".75"/><rect x="145" y="80.75" width="8" height="1.5" rx=".75"/><rect x="22.202" y="41" width="32" height="3" rx="1.5"/><rect x="27.202" y="46" width="10" height="2" rx="1"/><rect x="39.202" y="46" width="10" height="2" rx="1"/></g><rect x="27.197" y="72" width="10" height="2" rx="1" fill="#9fabb4"/><g class="B"><rect x="38.197" y="72" width="10" height="2" rx="1"/><rect x="24.197" y="76" width="16" height="2" rx="1"/><rect x="41.197" y="76" width="1" height="2" rx=".5"/><rect x="43.197" y="76" width="8" height="2" rx="1"/><path d="M37.337 58.818h1.265a1.27 1.27 0 0 0 .64-.1 1.47 1.47 0 0 0 .542-.413 2.36 2.36 0 0 0 .373-1.416c.017-.478-.116-.948-.373-1.318a1.45 1.45 0 0 0-.515-.386 1.25 1.25 0 0 0-.605-.102 1.44 1.44 0 0 0-1.058.439 1.58 1.58 0 0 0-.313.534 1.81 1.81 0 0 0-.102.638h-2.178a3.64 3.64 0 0 1 .235-1.464 3.13 3.13 0 0 1 .781-1.173c.728-.708 1.649-1.081 2.593-1.05 1.001-.065 1.988.299 2.779 1.025a3.58 3.58 0 0 1 .762 1.285 4.08 4.08 0 0 1 .212 1.547c-.001.603-.16 1.192-.456 1.685a3.21 3.21 0 0 1-1.265 1.245c.573.222 1.069.66 1.41 1.245.334.565.508 1.24.498 1.929.024.561-.064 1.122-.259 1.635s-.49.965-.861 1.319c-.818.741-1.831 1.121-2.862 1.074-.957.037-1.894-.317-2.655-1.001a3.19 3.19 0 0 1-.853-1.264 3.73 3.73 0 0 1-.225-1.592h2.074a1.95 1.95 0 0 0 .109.705 1.72 1.72 0 0 0 .348.589c.315.343.732.528 1.161.513a1.38 1.38 0 0 0 .661-.115c.211-.093.403-.237.563-.422a1.89 1.89 0 0 0 .358-.65c.079-.244.112-.505.098-.766.039-.281.02-.568-.053-.839a1.87 1.87 0 0 0-.37-.719 1.53 1.53 0 0 0-.607-.444c-.229-.09-.473-.115-.712-.073h-1.265l.124-2.1zm14.373 7.983h-7.611v-1.782l3.609-4.736a11.44 11.44 0 0 0 1.12-1.855 3.61 3.61 0 0 0 .332-1.392c.013-.512-.127-1.012-.394-1.416a1.32 1.32 0 0 0-.484-.421 1.12 1.12 0 0 0-.594-.116 1.17 1.17 0 0 0-.66.139 1.42 1.42 0 0 0-.522.496c-.274.51-.412 1.106-.394 1.709h-2.178a4.91 4.91 0 0 1 .224-1.683 4.39 4.39 0 0 1 .771-1.442 3.68 3.68 0 0 1 1.272-.997c.479-.223.993-.324 1.507-.297.993-.067 1.968.328 2.717 1.099a3.92 3.92 0 0 1 .756 1.341 4.42 4.42 0 0 1 .218 1.589 4.66 4.66 0 0 1-.539 2.27c-.557.972-1.174 1.894-1.846 2.759l-2.074 2.637h4.77v2.099zm2.144-12.75a1.27 1.27 0 0 1 .206-.757.77.77 0 0 1 .27-.225.66.66 0 0 1 .326-.068.67.67 0 0 1 .336.065.79.79 0 0 1 .281.228 1.27 1.27 0 0 1 .206.757 1.24 1.24 0 0 1-.206.757c-.075.098-.168.175-.271.225a.66.66 0 0 1-.325.068.67.67 0 0 1-.336-.065c-.107-.051-.202-.129-.281-.228a1.24 1.24 0 0 1-.206-.757zm.452 0a1.16 1.16 0 0 0 0 .439c.03.057.073.103.124.134a.26.26 0 0 0 .164.037c.051.005.102-.008.146-.039s.079-.077.1-.132c.073-.13.109-.284.103-.439.002-.126-.019-.251-.062-.366-.025-.057-.063-.104-.111-.135a.23.23 0 0 0-.156-.036c-.051-.005-.102.008-.146.039a.28.28 0 0 0-.1.132.98.98 0 0 0-.103.439l.041-.073zm4.686 2.124a1.89 1.89 0 0 1-.087.659 1.67 1.67 0 0 1-.304.561 1.5 1.5 0 0 1-1.13.44 1.25 1.25 0 0 1-.639-.122c-.202-.097-.385-.247-.532-.439a1.98 1.98 0 0 1-.35-.652 2.23 2.23 0 0 1-.102-.764v-.928a2.21 2.21 0 0 1 .431-1.416c.319-.331.727-.514 1.151-.514s.832.183 1.151.514a1.55 1.55 0 0 1 .323.555 1.78 1.78 0 0 1 .088.666h-.781a1.25 1.25 0 0 0-.185-.732c-.08-.088-.174-.155-.276-.197a.67.67 0 0 0-.32-.047.64.64 0 0 0-.283.13c-.085.068-.157.157-.21.261a1.74 1.74 0 0 0-.206.903v.928c-.017.323.063.644.226.903a.78.78 0 0 0 .264.255c.103.059.217.089.332.087a.58.58 0 0 0 .301-.046.68.68 0 0 0 .254-.198c.138-.198.204-.452.185-.708l.699-.098zm-5.138 6.215a1.27 1.27 0 0 1 .206-.757.77.77 0 0 1 .27-.225.66.66 0 0 1 .326-.068.67.67 0 0 1 .336.065.79.79 0 0 1 .281.228 1.27 1.27 0 0 1 .206.757 1.24 1.24 0 0 1-.206.757c-.075.098-.168.175-.271.225a.66.66 0 0 1-.325.068.67.67 0 0 1-.336-.065.79.79 0 0 1-.281-.228 1.24 1.24 0 0 1-.206-.757zm.452 0a1.16 1.16 0 0 0 0 .439c.03.057.073.103.124.134a.26.26 0 0 0 .164.037c.051.005.102-.008.146-.039a.28.28 0 0 0 .1-.132c.073-.13.109-.284.103-.439.002-.126-.019-.251-.062-.366a.3.3 0 0 0-.111-.135.23.23 0 0 0-.156-.036c-.051-.005-.102.008-.146.039s-.079.077-.1.132a.98.98 0 0 0-.103.44l.041-.073zm4.172 1.805h-1.583v2.026h-.792v-4.883h2.731v.757h-1.939v1.343h1.662l-.079.757zm-25.768-.8a3.57 3.57 0 0 1-1.045 2.522c-.669.669-1.576 1.046-2.522 1.047h-9.154A4.09 4.09 0 0 1 16 62.874c0-1.067.417-2.093 1.162-2.857a4.09 4.09 0 0 1 2.827-1.234h.113a3.89 3.89 0 0 1 7.197-.917c.194-.045.392-.068.591-.068.633.003 1.242.237 1.715.659s.774 1.001.849 1.629a3.58 3.58 0 0 1 2.256 3.31h0z"/></g><defs ><path id="B" d="M65 40.5h91v1H65v-1z"/></defs></svg>