<svg xmlns="http://www.w3.org/2000/svg" width="172" height="104" fill="none" ><rect x=".6" y=".6" width="170.8" height="102.8" rx="2.4" fill="#fff"/><rect x=".6" y=".6" width="170.8" height="102.8" rx="2.4" stroke="#8796a1" stroke-width="1.2"/><path d="M43.5 22v.5h.5 116l2.128.069c.489.066.748.186.933.37s.304.444.37.933c.068.503.069 1.171.069 2.128v66l-.069 2.128c-.066.489-.186.748-.37.933s-.444.305-.933.371c-.504.068-1.171.069-2.128.069H12c-.957 0-1.624-.001-2.128-.069-.489-.066-.748-.186-.933-.371s-.305-.444-.371-.933C8.501 93.624 8.5 92.957 8.5 92V12l.069-2.128c.066-.489.186-.748.371-.933s.444-.305.933-.371C10.376 8.501 11.043 8.5 12 8.5h31.5V22z" fill="#fff" stroke="#58707f"/><path d="M45 8H77V22H45V8Z" fill="#58707f"/><path d="M77 8h2v14h-2V8zM43 8h2v15h-2V8z" fill="#fff"/><path d="M9 9h34v2H9V9z" fill="#58707f"/><path d="M111 8h2v14h-2V8z" fill="#fff"/><g fill="#58707f"><path d="M79 8h32v14H79V8zm34 0h28c1.886 0 2.828 0 3.414.586S145 10.114 145 12v10h-32V8z"/><rect x="16" y="15" width="20" height="3" rx="1.5"/></g><g fill="#fff"><rect x="51" y="14" width="20" height="3" rx="1.5"/><rect x="86" y="14" width="20" height="3" rx="1.5"/><rect x="121" y="14" width="20" height="3" rx="1.5"/></g><path d="M103 54a25.94 25.94 0 0 1 9.557-12.329C116.938 38.631 122.155 37 127.5 37s10.562 1.63 14.943 4.671A25.94 25.94 0 0 1 152 54" stroke="#58707f" stroke-width="1.5" stroke-miterlimit="10" stroke-linecap="round"/><rect x="99" y="57" width="8" height="2" rx="1" fill="#9fabb4"/><rect x="97" y="60" width="12" height="2" rx="1" fill="#58707f"/><rect x="147.5" y="57" width="9" height="2" rx="1" fill="#9fabb4"/><rect x="146" y="60" width="12" height="2" rx="1" fill="#58707f"/><rect x="14.5" y="68.5" width="143" height="21" rx=".5" stroke="#58707f"/><g fill="#58707f"><path d="M14 82h144v1H14v-1zm0-7h144v1H14v-1z" fill-rule="evenodd"/><path d="M85 68h1v21h-1z"/><rect x="18" y="78" width="2" height="2" rx="1"/><rect x="21" y="78.25" width="8" height="1.5" rx=".75"/><rect x="69" y="78.25" width="12" height="1.5" rx=".75"/><rect x="18" y="71" width="2" height="2" rx="1"/><rect x="21" y="71.25" width="8" height="1.5" rx=".75"/><rect x="73" y="71.25" width="8" height="1.5" rx=".75"/><rect x="18" y="85" width="2" height="2" rx="1"/><rect x="21" y="85.25" width="10" height="1.5" rx=".75"/><rect x="73" y="85.25" width="8" height="1.5" rx=".75"/><rect x="89" y="78" width="2" height="2" rx="1"/><rect x="92" y="78.25" width="11" height="1.5" rx=".75"/><rect x="146" y="78.25" width="6" height="1.5" rx=".75"/><rect x="89" y="71" width="2" height="2" rx="1"/><rect x="92" y="71.25" width="9" height="1.5" rx=".75"/><rect x="141" y="71.25" width="11" height="1.5" rx=".75"/><rect x="89" y="85" width="2" height="2" rx="1"/><rect x="92" y="85.25" width="9" height="1.5" rx=".75"/><rect x="141" y="85.25" width="11" height="1.5" rx=".75"/><rect x="14" y="29" width="28" height="2" rx="1"/><rect x="14" y="33" width="10" height="2" rx="1"/><rect x="26" y="33" width="10" height="2" rx="1"/></g><rect x="14" y="55" width="10" height="2" rx="1" fill="#9fabb4"/><g fill="#58707f"><rect x="25" y="55" width="10" height="2" rx="1"/><rect x="14" y="59" width="16" height="2" rx="1"/><rect x="31" y="59" width="1" height="2" rx=".5"/><rect x="33" y="59" width="8" height="2" rx="1"/><path d="M32.123 43.987h1.075a1.07 1.07 0 0 0 .544-.086c.174-.076.331-.197.461-.354a2.04 2.04 0 0 0 .317-1.214 1.89 1.89 0 0 0-.317-1.13 1.23 1.23 0 0 0-.438-.331c-.164-.072-.339-.102-.514-.088-.328-.009-.648.125-.898.377a1.37 1.37 0 0 0-.266.458 1.56 1.56 0 0 0-.086.547h-1.85c-.019-.431.05-.862.2-1.255s.378-.738.663-1.005c.618-.607 1.401-.926 2.202-.9.85-.056 1.689.257 2.36.879.283.305.504.681.648 1.101s.205.874.18 1.326c-.001.517-.136 1.021-.387 1.444-.268.467-.64.836-1.075 1.067.487.191.908.565 1.198 1.067.284.484.432 1.063.423 1.653.021.481-.055.962-.22 1.402a3.05 3.05 0 0 1-.731 1.13c-.695.635-1.555.961-2.431.921-.812.032-1.609-.271-2.255-.858-.315-.282-.564-.655-.725-1.083a3.23 3.23 0 0 1-.191-1.365h1.762a1.69 1.69 0 0 0 .092.605 1.48 1.48 0 0 0 .295.504c.268.294.622.452.986.439a1.16 1.16 0 0 0 .561-.098 1.35 1.35 0 0 0 .478-.362c.136-.159.237-.348.304-.557a1.84 1.84 0 0 0 .083-.657 1.83 1.83 0 0 0-.045-.719c-.062-.232-.17-.443-.314-.617a1.29 1.29 0 0 0-.515-.381 1.11 1.11 0 0 0-.605-.062h-1.075l.106-1.8zm12.207 6.842h-6.465v-1.528l3.065-4.06a9.82 9.82 0 0 0 .951-1.59 3.12 3.12 0 0 0 .282-1.193c.011-.439-.108-.868-.335-1.214a1.13 1.13 0 0 0-.411-.361.94.94 0 0 0-.505-.099c-.192-.017-.385.024-.561.119a1.21 1.21 0 0 0-.443.425 2.95 2.95 0 0 0-.335 1.465h-1.85c-.02-.491.045-.982.191-1.443s.368-.881.655-1.236a3.13 3.13 0 0 1 1.08-.855 2.65 2.65 0 0 1 1.28-.254c.843-.057 1.672.281 2.308.942a3.34 3.34 0 0 1 .642 1.149 3.85 3.85 0 0 1 .186 1.362c.011.688-.148 1.365-.458 1.946-.473.833-.997 1.623-1.568 2.365l-1.761 2.26h4.051v1.8zm2.533-10.414a1.09 1.09 0 0 1 .176-.649c.065-.084.144-.15.232-.193a.56.56 0 0 1 .279-.058.57.57 0 0 1 .288.056.68.68 0 0 1 .241.196c.123.183.186.414.176.649.011.235-.051.466-.176.649-.064.084-.144.15-.232.193a.56.56 0 0 1-.279.058.57.57 0 0 1-.288-.056.68.68 0 0 1-.241-.196 1.06 1.06 0 0 1-.176-.649zm.388 0a.99.99 0 0 0 0 .377.28.28 0 0 0 .106.114c.044.025.092.037.141.032.044.005.087-.007.125-.033a.24.24 0 0 0 .086-.113.72.72 0 0 0 .088-.377.85.85 0 0 0-.053-.314.26.26 0 0 0-.095-.116c-.041-.027-.087-.037-.134-.031-.044-.005-.087.007-.125.033a.24.24 0 0 0-.086.113.84.84 0 0 0-.088.377l.035-.063zm4.016 1.82a1.62 1.62 0 0 1-.074.565c-.058.18-.146.344-.261.481-.273.263-.618.397-.969.377a1.08 1.08 0 0 1-.548-.105 1.27 1.27 0 0 1-.456-.376c-.126-.164-.233-.35-.3-.559a1.91 1.91 0 0 1-.088-.655v-.795c-.016-.447.117-.883.37-1.214a1.37 1.37 0 0 1 .986-.441 1.37 1.37 0 0 1 .986.441 1.33 1.33 0 0 1 .277.475 1.52 1.52 0 0 1 .076.571h-.669a1.07 1.07 0 0 0-.158-.628.66.66 0 0 0-.237-.169.57.57 0 0 0-.274-.041.56.56 0 0 0-.243.111.66.66 0 0 0-.18.223c-.126.23-.188.501-.176.774v.795c-.015.277.054.552.194.774a.67.67 0 0 0 .226.218.56.56 0 0 0 .285.075.5.5 0 0 0 .258-.04.59.59 0 0 0 .218-.169.95.95 0 0 0 .159-.607l.599-.084zm4.153-1.82a1.09 1.09 0 0 1 .176-.649c.064-.084.144-.15.232-.193a.56.56 0 0 1 .279-.058.57.57 0 0 1 .288.056.68.68 0 0 1 .241.196c.123.183.186.414.176.649a1.06 1.06 0 0 1-.176.649c-.065.084-.144.15-.232.193a.56.56 0 0 1-.279.058.57.57 0 0 1-.288-.056.68.68 0 0 1-.241-.196 1.06 1.06 0 0 1-.176-.649zm.388 0a.99.99 0 0 0 0 .377.28.28 0 0 0 .106.114c.044.025.092.037.141.032.044.005.087-.007.125-.033a.24.24 0 0 0 .086-.113.72.72 0 0 0 .088-.377.85.85 0 0 0-.053-.314.26.26 0 0 0-.095-.116c-.041-.027-.087-.037-.134-.031-.044-.005-.087.007-.125.033a.24.24 0 0 0-.086.113.84.84 0 0 0-.088.377l.035-.063zm3.575 1.547h-1.357v1.737h-.678v-4.185h2.341v.649h-1.662v1.151h1.425l-.068.649z"/><rect x="53.279" y="39.513" width=".535" height="4.278" rx=".267"/><path d="M28.322 47.91a3.06 3.06 0 0 1-.896 2.162c-.573.574-1.351.896-2.161.898h-7.846a3.51 3.51 0 0 1-2.423-1.058c-.639-.655-.996-1.534-.996-2.449a3.51 3.51 0 0 1 3.419-3.507h.097c.163-.652.519-1.24 1.021-1.686s1.128-.731 1.795-.816 1.344.033 1.942.34 1.09.786 1.411 1.377c.166-.039.336-.058.506-.059.542.003 1.065.204 1.47.565s.663.858.728 1.396c.569.226 1.057.617 1.401 1.122a3.07 3.07 0 0 1 .533 1.715h0z"/></g><g clip-path="url(#A)" fill="#58707f"><path d="M123.407 35.055a.46.46 0 0 0 .648 0 .46.46 0 0 0 0-.648l-.648-.648a.46.46 0 0 0-.648 0 .46.46 0 0 0 0 .648l.648.648zM123.25 37c0-.253-.205-.417-.458-.417h-.917c-.253 0-.458.163-.458.417s.205.417.458.417h.917c.253 0 .458-.164.458-.417zm2.75-2.75c.253 0 .417-.205.417-.458v-.917c0-.253-.164-.458-.417-.458s-.417.205-.417.458v.917c0 .253.164.458.417.458zm2.269.94a.46.46 0 0 0 .324-.134l.648-.648a.46.46 0 0 0 0-.648.46.46 0 0 0-.648 0l-.648.648a.46.46 0 0 0 0 .648c.089.09.207.134.324.134z"/><path d="M126 34.708c-1.263 0-2.292 1.028-2.292 2.292s1.029 2.292 2.292 2.292 2.292-1.028 2.292-2.292-1.028-2.292-2.292-2.292zm-2.593 4.237l-.648.648a.46.46 0 0 0 0 .648c.089.09.207.134.324.134a.46.46 0 0 0 .324-.134l.648-.648a.46.46 0 0 0 0-.648.46.46 0 0 0-.648 0h0zm5.186 0a.46.46 0 0 0-.648 0 .46.46 0 0 0 0 .648l.648.648c.089.09.207.134.324.134a.46.46 0 0 0 .324-.782l-.648-.648zm1.532-2.362h-.917c-.253 0-.458.163-.458.417s.205.417.458.417h.917c.253 0 .458-.164.458-.417s-.205-.417-.458-.417z"/><path d="M126 39.75c-.253 0-.417.205-.417.458v.917c0 .253.164.458.417.458s.417-.205.417-.458v-.917c0-.253-.164-.458-.417-.458z"/></g><defs><clipPath id="A"><path fill="#fff" transform="translate(121 32)" d="M0 0h10v10H0z"/></clipPath></defs></svg>