<svg xmlns="http://www.w3.org/2000/svg" width="24" height="24" fill="none" xmlns:v="https://vecta.io/nano"><path d="M3 0h4v2H3c-.55 0-1 .45-1 1v18c0 .55.45 1 1 1h4v2H3a3.01 3.01 0 0 1-3-3V3a3.01 3.01 0 0 1 3-3zm18 0h-4v2h4c.55 0 1 .45 1 1v18c0 .55-.45 1-1 1h-4v2h4a3.01 3.01 0 0 0 3-3V3a3.01 3.01 0 0 0-3-3z" fill="#f26c0d"/><g clip-path="url(#A)" fill="#f26c0d"><path d="M16.424 9.996c0-.703-.286-1.335-.747-1.78-.46-.46-1.09-.747-1.78-.747-.474 0-.919.13-1.306.359-.273.172-.518.388-.718.645l.015.015c.216.159.403.315.559.489a3.43 3.43 0 0 1 .632.919c.073 0 .159-.015.229-.015.775 0 1.465.315 1.982.819l.172.187a2.6 2.6 0 0 1 .416.689c.143-.187.273-.403.359-.617.128-.306.185-.637.185-.965zm-2.513-3.232a.38.38 0 0 0 .372-.372v-1.02A.38.38 0 0 0 13.911 5a.38.38 0 0 0-.375.372v1.02a.38.38 0 0 0 .375.372zm2.815.947l.718-.718c.143-.143.143-.372 0-.518s-.372-.143-.518 0l-.718.718c-.143.143-.143.372 0 .518s.372.143.518 0zm1.821 1.926h-1.02a.38.38 0 0 0-.372.372.38.38 0 0 0 .372.372h1.02a.38.38 0 0 0 .372-.372c-.013-.2-.17-.372-.372-.372zm-1.821 2.669c-.143-.143-.372-.143-.518 0s-.143.372 0 .518l.718.718c.143.143.372.143.518 0s.143-.372 0-.518l-.718-.718zm-5.643-4.595c.143.143.372.143.518 0s.143-.372 0-.518l-.718-.718c-.13-.159-.372-.159-.518 0-.143.143-.143.372 0 .518l.718.718zm1.777 7.672H5.867c-.267 0-.482.218-.482.485s.216.485.482.485h6.996a.96.96 0 0 1 .963.96c0 .401-.326.725-.727.725s-.725-.326-.725-.727a.482.482 0 1 0-.965 0A1.69 1.69 0 0 0 13.098 19a1.69 1.69 0 0 0 1.689-1.689 1.93 1.93 0 0 0-1.927-1.927z"/><path fill-rule="evenodd" d="M12.475 10.813c.26-.13.546-.187.848-.187.559 0 1.077.231 1.445.601.374.372.604.874.604 1.449 0 .559-.231 1.077-.604 1.449s-.89.601-1.465.617H7.73c.166-.163.27-.391.27-.642a.9.9 0 0 0-1.8 0c0 .236.091.451.239.611a1.71 1.71 0 0 1-.89-.471c-.315-.315-.502-.747-.502-1.22s.187-.905.502-1.22.747-.502 1.22-.502c.07 0 .143-.013.2-.057.086-.057.143-.143.159-.258.101-.674.445-1.278.934-1.694.502-.416 1.134-.674 1.824-.674.59 0 1.134.187 1.595.502.359.231.648.559.877.963-.057.015-.114.044-.172.073a2.78 2.78 0 0 0-.947.689c-.143.145-.13.388.029.518.145.143.388.13.518-.029a1.85 1.85 0 0 1 .69-.518z"/></g><defs><clipPath id="A"><path fill="#fff" transform="translate(5 5)" d="M0 0h14v14H0z"/></clipPath></defs></svg>