<svg xmlns="http://www.w3.org/2000/svg" width="1720" height="88" fill="none" xmlns:v="https://vecta.io/nano"><style><![CDATA[.B{fill:#fff}.C{color-interpolation-filters:sRGB}.D{flood-opacity:0}]]></style><path fill="url(#D)" d="M0 0h1720v88H0z"/><path d="M75.49 38.136c.203-7.028-9.969-10.184-14.2-4.507 1.638 1.158 2.917 2.475 3.765 4.212 3.741-.329 7.339 1.771 8.738 4.984 1.088-1.351 1.721-2.997 1.697-4.689zm-7.841-9.582c1.853.045.968-3.168 1.16-4.133 0-.59-.538-1.101-1.16-1.101-1.853-.045-.968 3.168-1.159 4.133-.012.59.526 1.101 1.159 1.101zm8.786 2.804l2.235-2.123c1.064-.976-.586-2.543-1.614-1.533l-2.235 2.123c-1.064.988.586 2.555 1.614 1.533zm5.69 5.711h-3.18c-1.506 0-1.506 2.214 0 2.214h3.18c1.506 0 1.47-2.214 0-2.214zm-5.69 7.913c-1.028-1.011-2.678.556-1.614 1.533l2.235 2.123c1.028 1.011 2.678-.556 1.614-1.533 0 .011-2.235-2.123-2.235-2.123zM58.815 31.358c1.028 1.01 2.678-.556 1.614-1.533l-2.235-2.123c-.956-1.09-2.701.568-1.614 1.533l2.235 2.123zm11.523 10.434c-5.881-4.859-8.164 1.181-10.937.386-1.434-1.737 2.08-3.202 3.407-3.792-4.375-7.482-15.48-4.348-16.806 3.451-3.108.204-6.06 1.998-6.001 5.279-.024 2.816 2.415 5.132 5.379 5.109h20.392c5.582.102 8.618-6.857 4.566-10.434zm-25.102 7.573c-3.215.045-3.215-4.746 0-4.7 3.215-.045 3.215 4.746 0 4.7zm19.137 4.734H42.535c-1.936-.023-1.96 2.895 0 2.872h21.827c3.18-.204 4.315 4.836.741 4.996-1.243 0-2.259-.965-2.259-2.157.024-1.851-3.036-1.851-3.012 0-.096 6.494 10.65 6.494 10.543 0 .012-3.145-2.689-5.711-6.001-5.711z" fill="#fe8c0f"/><g class="B"><path d="M100.673 49.285c0 .32.039.588.116.78.07.186.189.35.346.473.154.115.346.192.564.23a4.8 4.8 0 0 0 .807.064 5.41 5.41 0 0 0 1.346-.153 10.27 10.27 0 0 0 1.051-.332c.307-.115.551-.243.756-.345s.372-.153.474-.153c.141 0 .257.051.333.141.09.112.136.253.129.396 0 .294-.026.511-.09.639s-.18.23-.372.294c-.748.259-1.521.439-2.307.537-.964.124-1.936.184-2.909.179-.807 0-1.461-.038-1.974-.102s-.91-.192-1.205-.371-.5-.422-.602-.741-.167-.703-.167-1.201V36.862c0-.166-.013-.294-.051-.396a.52.52 0 0 0-.154-.23c-.064-.051-.154-.09-.243-.115s-.192-.026-.308-.026a3.08 3.08 0 0 0-.615.077c-.243.051-.5.128-.769.23-.282.109-.556.237-.82.383a3.94 3.94 0 0 0-.73.524 2.56 2.56 0 0 0-.526.652 1.51 1.51 0 0 0-.205.78c0 .243.026.435.09.575a1.07 1.07 0 0 0 .218.32c.077.077.167.115.256.141a.65.65 0 0 0 .192.026c.192 0 .346-.026.461-.09s.231-.128.32-.204.192-.141.282-.204a.5.5 0 0 1 .295-.09c.09 0 .192.026.282.064.105.046.201.111.282.192.09.09.154.205.218.358s.09.32.09.537c0 .294-.064.562-.179.78a1.88 1.88 0 0 1-.449.55c-.179.153-.397.256-.628.319s-.466.1-.705.102c-.359 0-.679-.064-.974-.192a2.2 2.2 0 0 1-.743-.511 2.12 2.12 0 0 1-.461-.767c-.104-.3-.156-.615-.154-.933 0-.511.09-.984.282-1.419a4.18 4.18 0 0 1 .769-1.163c.32-.345.705-.652 1.153-.907a8.48 8.48 0 0 1 1.423-.652 9.16 9.16 0 0 1 1.602-.383c.564-.077 1.115-.128 1.666-.128.615 0 1.089.064 1.435.179s.59.256.756.422a.89.89 0 0 1 .282.511l.052.447v12.665h.012zm5.806-3.208c0-.984.141-1.84.423-2.582s.667-1.355 1.141-1.853 1.025-.869 1.666-1.112a5.53 5.53 0 0 1 1.987-.371 5.8 5.8 0 0 1 1.986.345c.641.23 1.179.575 1.666 1.048s.859 1.073 1.141 1.789.423 1.572.423 2.569c0 .984-.141 1.853-.423 2.607s-.667 1.393-1.141 1.904a4.76 4.76 0 0 1-1.666 1.176 5.01 5.01 0 0 1-1.986.396c-.693 0-1.346-.128-1.987-.371a4.85 4.85 0 0 1-1.666-1.125c-.487-.498-.859-1.112-1.141-1.853s-.423-1.585-.423-2.569zm6.921-.115l-.064-1.738c-.038-.562-.128-1.048-.243-1.482s-.295-.78-.513-1.035-.526-.383-.884-.383-.667.141-.885.409-.397.639-.512 1.074-.206.959-.231 1.521l-.051 1.751.051 1.764c.029.517.107 1.031.231 1.534.115.447.294.805.512 1.086.104.133.239.24.393.311a1.06 1.06 0 0 0 .492.098c.358 0 .666-.141.884-.422s.397-.665.513-1.125c.128-.516.209-1.042.243-1.572l.064-1.789zm12.189-1.904c-.231 0-.423-.038-.59-.102s-.282-.166-.385-.281c-.097-.117-.171-.252-.217-.396-.052-.14-.064-.294-.064-.46a4.28 4.28 0 0 1 .038-.588c.026-.192.026-.358.013-.511a.52.52 0 0 0-.053-.197.51.51 0 0 0-.127-.161c-.102-.089-.269-.141-.512-.141-.269 0-.539.077-.833.23s-.564.383-.795.703-.436.741-.602 1.24-.231 1.112-.231 1.828c0 .792.077 1.508.218 2.147s.371 1.201.653 1.662a3.09 3.09 0 0 0 1.09 1.061c.436.256.948.371 1.538.371.269 0 .512-.026.743-.09a3.75 3.75 0 0 0 .667-.243c.21-.107.412-.231.602-.371l.564-.447.282.268c-.167.23-.397.486-.667.767s-.602.537-.974.78-.833.447-1.345.613c-.513.153-1.09.243-1.743.243s-1.303-.127-1.91-.371a5.04 5.04 0 0 1-1.653-1.099 5.21 5.21 0 0 1-1.154-1.751c-.282-.69-.436-1.47-.436-2.339a6.71 6.71 0 0 1 .257-1.879c.166-.575.41-1.086.705-1.559s.64-.869 1.038-1.227.807-.652 1.243-.882.884-.409 1.333-.537.897-.179 1.307-.179c.551 0 1.038.064 1.448.192s.757.294 1.026.511.474.447.615.728.205.562.205.843a2.06 2.06 0 0 1-.09.626 1.71 1.71 0 0 1-.243.511c-.103.141-.244.268-.41.345s-.334.141-.551.141z"/><path d="M131.817 41.093c-.257 0-.487.026-.705.09a2.57 2.57 0 0 0-.564.23c-.154.09-.282.192-.372.294s-.141.217-.141.307c0 .115.064.192.18.243l.384.166c.143.066.274.157.385.268s.179.294.179.537a.98.98 0 0 1-.09.434c-.066.128-.153.245-.256.345a.97.97 0 0 1-.385.23c-.153.051-.294.09-.461.09-.423 0-.756-.141-1.025-.422s-.385-.665-.385-1.137c0-.46.116-.844.359-1.176s.551-.588.936-.805a4.16 4.16 0 0 1 1.307-.46c.487-.089.974-.153 1.461-.153.59 0 1.141.064 1.679.192a4.39 4.39 0 0 1 1.41.601 2.99 2.99 0 0 1 .974 1.061c.243.434.371.946.371 1.546v6.352c0 .064 0 .141.013.23a1.21 1.21 0 0 0 .052.23c.025.077.076.128.141.166s.141.064.256.064c.141 0 .256-.051.372-.153s.217-.205.307-.307l.282.23-.41.511c-.174.194-.367.369-.577.524-.244.176-.512.318-.794.422a2.88 2.88 0 0 1-1.026.166c-.474 0-.897-.141-1.256-.422-.371-.281-.602-.716-.717-1.304-.244.32-.487.588-.744.805-.241.208-.508.384-.794.524a3.96 3.96 0 0 1-.821.294c-.282.064-.551.089-.833.089-.359 0-.705-.051-1.051-.166a2.53 2.53 0 0 1-.91-.537c-.269-.243-.487-.562-.64-.946s-.244-.869-.244-1.431c0-.677.141-1.24.41-1.674a3.62 3.62 0 0 1 1.064-1.099c.436-.294.936-.55 1.499-.754l1.718-.665c.436-.166.756-.434.948-.767a2.09 2.09 0 0 0 .295-1.048c0-.55-.167-.997-.487-1.329s-.731-.486-1.294-.486zm1.794 4.92c0-.192-.064-.332-.18-.422s-.269-.141-.461-.141a1.63 1.63 0 0 0-.743.179c-.231.115-.449.294-.628.524s-.321.524-.423.856c-.109.387-.161.787-.154 1.189 0 .434.026.792.09 1.074s.153.511.256.677a.99.99 0 0 0 .372.358.92.92 0 0 0 .448.102 1.05 1.05 0 0 0 .551-.153c.17-.103.321-.232.449-.383s.231-.332.308-.524.115-.383.115-.588v-2.748zm9.497-4.882v8.307c0 .396.077.677.231.831s.358.23.615.23a.87.87 0 0 0 .538-.166c.154-.115.295-.243.41-.383a2.01 2.01 0 0 0 .346-.55l.346.153-.397.792c-.159.297-.367.564-.615.792a3.27 3.27 0 0 1-.962.613c-.384.166-.871.243-1.461.243-.333 0-.653-.051-.948-.141s-.577-.256-.807-.46-.423-.473-.564-.792a2.77 2.77 0 0 1-.218-1.138v-8.32h-1.256v-.805c.205 0 .5-.051.884-.166s.756-.294 1.154-.55.756-.601 1.102-1.022.577-.959.718-1.585h.897v3.31h1.832c.603 0 .898-.102.898-.307a.15.15 0 0 0-.116-.153c-.077-.026-.154-.064-.256-.102s-.18-.102-.256-.179-.116-.204-.116-.371c0-.204.064-.371.192-.498s.308-.179.513-.179c.141 0 .256.026.359.089s.192.128.256.23a1.46 1.46 0 0 1 .154.319c.039.115.051.243.051.358 0 .486-.141.869-.423 1.163s-.73.434-1.358.434h-1.743z"/><path d="M150.465 50.818a1.31 1.31 0 0 1-.051.358.97.97 0 0 1-.231.396c-.128.128-.307.23-.538.32s-.551.128-.948.128-.705-.051-.936-.141a1.31 1.31 0 0 1-.512-.332c-.105-.11-.177-.247-.206-.396a1.96 1.96 0 0 1-.038-.319v-8.678c0-.217-.051-.409-.154-.562s-.269-.243-.512-.243a.8.8 0 0 0-.321.064 1.15 1.15 0 0 0-.295.192l-.23-.281c.166-.14.371-.281.576-.422s.449-.256.693-.371c.254-.114.521-.2.794-.256a4.11 4.11 0 0 1 .897-.102c.487 0 .872.064 1.141.192s.474.294.602.486a1.39 1.39 0 0 1 .231.613c.026.217.038.409.038.575v8.78zm-3.806-13.215a1.42 1.42 0 0 1 .141-.601 1.49 1.49 0 0 1 .397-.498 1.77 1.77 0 0 1 .59-.332c.231-.077.461-.128.73-.128.257 0 .5.038.718.128a2.16 2.16 0 0 1 .577.332c.167.14.295.307.384.498a1.42 1.42 0 0 1 .141.601c.001.208-.048.414-.141.601a1.52 1.52 0 0 1-.384.486c-.167.141-.359.243-.577.332s-.461.128-.718.128a1.96 1.96 0 0 1-.73-.128 2 2 0 0 1-.59-.332 1.79 1.79 0 0 1-.397-.486c-.103-.179-.141-.383-.141-.601zm5.344 8.473c0-.984.141-1.84.423-2.582s.667-1.355 1.141-1.853 1.025-.869 1.666-1.112 1.295-.371 1.987-.371a5.8 5.8 0 0 1 1.986.345c.641.23 1.179.575 1.666 1.048s.859 1.074 1.141 1.789.423 1.572.423 2.569c0 .984-.141 1.853-.423 2.607s-.666 1.393-1.141 1.904a4.76 4.76 0 0 1-1.666 1.176 5.01 5.01 0 0 1-1.986.396c-.692 0-1.346-.128-1.987-.371a4.86 4.86 0 0 1-1.666-1.125c-.487-.498-.859-1.112-1.141-1.853s-.423-1.585-.423-2.569zm6.934-.115l-.064-1.738c-.038-.562-.115-1.048-.244-1.483s-.294-.78-.512-1.035-.526-.384-.884-.384-.667.141-.885.409-.397.639-.512 1.074a7.29 7.29 0 0 0-.231 1.521l-.051 1.751.051 1.764a8.37 8.37 0 0 0 .231 1.534 2.95 2.95 0 0 0 .512 1.086c.104.133.239.24.393.311s.322.105.492.097c.358 0 .666-.14.884-.422s.397-.665.512-1.125c.129-.516.21-1.042.244-1.572l.064-1.789zm11.65.268c0-.946-.038-1.7-.128-2.262s-.205-.997-.346-1.291-.295-.486-.474-.588a1.02 1.02 0 0 0-.526-.141.99.99 0 0 0-.576.179c-.167.115-.321.243-.436.396a3.2 3.2 0 0 0-.321.447c-.094.158-.153.268-.217.332v7.502c0 .102-.013.217-.052.358-.034.15-.109.287-.218.396-.115.128-.294.23-.512.319s-.539.128-.936.128-.718-.051-.935-.141c-.231-.09-.411-.205-.526-.332s-.192-.256-.231-.396a1.2 1.2 0 0 1-.051-.319v-8.678c0-.217-.051-.409-.154-.562-.102-.166-.269-.243-.512-.243a.8.8 0 0 0-.321.064 1.13 1.13 0 0 0-.295.192l-.23-.281a7.21 7.21 0 0 1 .577-.422 5.89 5.89 0 0 1 .692-.371 3.84 3.84 0 0 1 .794-.256 4.11 4.11 0 0 1 .897-.102c.487 0 .872.077 1.141.243s.474.358.602.575.205.46.231.703l.039.613c.281-.396.589-.754.948-1.061a4.85 4.85 0 0 1 .474-.396c.177-.133.366-.248.564-.345a3.87 3.87 0 0 1 .628-.243 2.42 2.42 0 0 1 .679-.09c.513 0 .962.102 1.359.294s.73.524 1 .971.474 1.061.615 1.815.218 1.687.218 2.799c0 1.086-.103 2.032-.295 2.824s-.449 1.482-.769 2.045-.667 1.022-1.064 1.38a5.43 5.43 0 0 1-1.205.844c-.41.204-.794.345-1.166.422s-.692.128-.961.128l-.128-.46a2.47 2.47 0 0 0 .628-.243 1.75 1.75 0 0 0 .525-.498c.154-.217.295-.498.423-.831.115-.332.218-.754.308-1.252a15.13 15.13 0 0 0 .192-1.776l.051-2.39zm20.712 1.661l.512-1.431.526-1.585.499-1.649.436-1.649-1.089-3.566c-.073-.212-.069-.443.013-.652.077-.192.218-.332.41-.46a2.09 2.09 0 0 1 .666-.281c.256-.064.539-.09.821-.09.243 0 .474.013.666.038a1.87 1.87 0 0 1 .513.141c.141.064.269.166.371.281a1.17 1.17 0 0 1 .231.473l3.23 10.378.538-1.508.551-1.661.513-1.725.436-1.712.294-1.61c.064-.511.103-.984.103-1.406.005-.416-.03-.831-.103-1.24a4.8 4.8 0 0 0-.23-.831l-.231-.55c-.062-.123-.097-.258-.103-.396 0-.153.039-.294.129-.396s.192-.205.32-.281a1.53 1.53 0 0 1 .423-.166 1.73 1.73 0 0 1 .423-.051c.295 0 .551.051.769.141a.74.74 0 0 1 .436.46c.037.117.067.237.089.358l.052.358a3.08 3.08 0 0 1 .012.319v.243c0 .319-.051.741-.153 1.291l-.423 1.853-.603 2.211-.705 2.377-.743 2.339-.705 2.122-.589 1.712-.385 1.099c-.049.157-.132.301-.243.422a1.31 1.31 0 0 1-.346.243 1.48 1.48 0 0 1-.423.102l-.475.025c-.294 0-.551-.025-.743-.089a1.56 1.56 0 0 1-.461-.23c-.115-.089-.193-.192-.244-.294l-.128-.281-2.243-7.349-.756 2.403-.731 2.185-.615 1.751-.423 1.099c-.077.179-.166.319-.269.422a1.61 1.61 0 0 1-.359.243 1.46 1.46 0 0 1-.423.102l-.461.026c-.295 0-.551-.026-.743-.089a1.55 1.55 0 0 1-.462-.23c-.115-.089-.192-.192-.256-.294l-.128-.281-4.012-13.368c-.077-.256-.154-.473-.243-.652a1.43 1.43 0 0 0-.321-.434 1.09 1.09 0 0 0-.448-.243c-.18-.051-.398-.077-.654-.077-.205 0-.449.051-.731.153-.285.109-.553.26-.794.447-.256.192-.462.447-.641.741s-.256.639-.256 1.022c0 .243.025.435.102.575a1.07 1.07 0 0 0 .218.319.57.57 0 0 0 .256.14l.18.026c.192 0 .346-.026.461-.09a1.96 1.96 0 0 0 .321-.204c.089-.077.192-.141.269-.205s.192-.09.295-.09c.089 0 .192.026.282.064a.8.8 0 0 1 .282.192c.089.09.153.205.217.358s.09.319.09.537a1.67 1.67 0 0 1-.179.78 1.91 1.91 0 0 1-.449.55 1.82 1.82 0 0 1-.628.319c-.243.077-.474.102-.705.102a2.3 2.3 0 0 1-.961-.192 2.04 2.04 0 0 1-.705-.511c-.191-.222-.339-.478-.436-.754a2.77 2.77 0 0 1-.153-.933c0-.78.153-1.457.448-2.045a4.27 4.27 0 0 1 1.192-1.457c.501-.391 1.064-.677 1.692-.869s1.281-.281 1.948-.281c.756 0 1.371.115 1.845.345s.872.524 1.167.882a4.36 4.36 0 0 1 .705 1.201l.461 1.316 2.897 9.151zm15.519-1.212a3.54 3.54 0 0 0 .103.78 4.48 4.48 0 0 0 .307.844c.128.282.308.549.5.818a3.19 3.19 0 0 0 .692.69 3.55 3.55 0 0 0 .859.486c.308.128.667.179 1.038.179a2.6 2.6 0 0 0 .731-.09 3.38 3.38 0 0 0 .628-.243 3.93 3.93 0 0 0 .564-.371l.538-.447.282.268c-.167.23-.397.486-.667.767s-.602.537-.974.78-.833.447-1.345.613a6.06 6.06 0 0 1-1.743.243 5.22 5.22 0 0 1-1.91-.358c-.615-.243-1.166-.588-1.653-1.061s-.872-1.061-1.154-1.764c-.295-.703-.436-1.534-.436-2.467a6.71 6.71 0 0 1 .257-1.879 5.61 5.61 0 0 1 .705-1.534 5.83 5.83 0 0 1 1.038-1.201 6.54 6.54 0 0 1 1.243-.856 6.09 6.09 0 0 1 1.333-.511c.448-.115.897-.179 1.307-.179.551 0 1.038.064 1.448.179.37.097.717.261 1.026.486a2.12 2.12 0 0 1 .615.703 1.77 1.77 0 0 1 .205.831 1.55 1.55 0 0 1-.308.946c-.205.281-.474.524-.807.741l-4.422 2.607zm2.269-2.288a1.32 1.32 0 0 0 .243-.179.61.61 0 0 0 .154-.205 1.37 1.37 0 0 0 .09-.294c.025-.115.025-.256.025-.434a3.78 3.78 0 0 0-.064-.626c-.038-.23-.115-.447-.205-.652a1.51 1.51 0 0 0-.371-.511.77.77 0 0 0-.539-.205 1.02 1.02 0 0 0-.692.243c-.193.166-.346.371-.474.626s-.218.55-.295.869-.131.653-.166.984l-.064.946-.013.767 2.371-1.329z"/><path d="M217.303 41.092a2.48 2.48 0 0 0-.705.09 2.58 2.58 0 0 0-.564.23 1.5 1.5 0 0 0-.371.294c-.089.102-.141.217-.141.307 0 .115.051.192.179.243l.385.166a1.31 1.31 0 0 1 .384.268c.116.115.18.294.18.537a1.2 1.2 0 0 1-.09.434c-.066.128-.153.245-.256.345a.97.97 0 0 1-.385.23 1.35 1.35 0 0 1-.461.089c-.423 0-.756-.141-1.013-.422s-.384-.665-.384-1.138c0-.46.115-.843.359-1.176s.551-.588.935-.805.82-.371 1.307-.46a8.1 8.1 0 0 1 1.462-.153c.589 0 1.14.064 1.678.192a4.39 4.39 0 0 1 1.41.601 3.09 3.09 0 0 1 .974 1.061c.244.434.372.946.372 1.546v6.352c0 .064 0 .141.013.23a1.21 1.21 0 0 0 .051.23c.026.077.077.128.141.166a.47.47 0 0 0 .256.064c.141 0 .257-.051.372-.153a3.57 3.57 0 0 0 .308-.307l.282.23-.411.511a3.88 3.88 0 0 1-.576.524 3.34 3.34 0 0 1-.795.422c-.307.115-.641.166-1.025.166-.474 0-.897-.141-1.256-.422-.372-.281-.603-.716-.718-1.304-.243.32-.487.588-.743.805a3.69 3.69 0 0 1-.795.524 3.93 3.93 0 0 1-.82.294 3.69 3.69 0 0 1-.833.09c-.359 0-.705-.051-1.051-.166a2.52 2.52 0 0 1-.91-.537c-.269-.243-.487-.562-.641-.946s-.243-.869-.243-1.431c0-.677.141-1.24.41-1.674a3.63 3.63 0 0 1 1.063-1.099 6.83 6.83 0 0 1 1.5-.754l1.717-.665c.436-.166.757-.434.949-.767.187-.318.289-.679.295-1.048 0-.55-.167-.997-.487-1.329-.308-.32-.744-.486-1.308-.486zm1.782 4.92c0-.192-.064-.332-.18-.422s-.269-.141-.461-.141c-.269 0-.513.064-.743.179a1.74 1.74 0 0 0-.628.524c-.18.23-.321.524-.423.856a4.12 4.12 0 0 0-.154 1.189c0 .434.025.792.09 1.073a2.26 2.26 0 0 0 .256.677.99.99 0 0 0 .372.358.92.92 0 0 0 .448.102 1.05 1.05 0 0 0 .551-.153 1.83 1.83 0 0 0 .449-.383c.128-.151.231-.332.307-.524a1.55 1.55 0 0 0 .116-.588v-2.748zm9.497-4.882v8.307c0 .396.077.677.23.831s.359.23.616.23a.87.87 0 0 0 .538-.166c.154-.115.295-.243.41-.383a2.01 2.01 0 0 0 .346-.55l.346.153-.397.792a3 3 0 0 1-.615.792c-.257.243-.577.447-.962.613s-.871.243-1.461.243a3.34 3.34 0 0 1-.948-.141c-.308-.102-.577-.256-.808-.46s-.422-.473-.563-.792-.218-.69-.218-1.137v-8.32h-1.256v-.805c.205 0 .499-.051.884-.166s.756-.294 1.153-.549.757-.601 1.103-1.023.576-.959.717-1.585h.898v3.31h1.832c.603 0 .897-.102.897-.307 0-.077-.038-.128-.115-.153s-.154-.064-.256-.102a.85.85 0 0 1-.257-.179c-.074-.075-.115-.204-.115-.371a.67.67 0 0 1 .192-.498c.128-.127.308-.179.513-.179.141 0 .256.026.359.09a.73.73 0 0 1 .256.23c.077.102.116.204.154.32a1.17 1.17 0 0 1 .051.358c0 .486-.141.869-.423 1.163s-.73.434-1.358.434h-1.743zm7.023 1.176a5.79 5.79 0 0 1 .949-1.061c.149-.142.307-.274.474-.396a3.44 3.44 0 0 1 .564-.345 3.7 3.7 0 0 1 .628-.243c.218-.064.448-.09.679-.09.5 0 .948.102 1.346.294s.73.524.999.971.475 1.061.616 1.815.217 1.687.217 2.799c0 1.086-.102 2.032-.294 2.824s-.449 1.483-.769 2.045-.667 1.022-1.064 1.38-.795.639-1.205.843-.794.345-1.166.422-.692.128-.974.128l-.116-.46a2.01 2.01 0 0 0 .898-.46c.256-.23.487-.588.666-1.112s.32-1.201.41-2.07.141-1.994.141-3.361c0-.946-.038-1.7-.128-2.262s-.205-.997-.333-1.291-.295-.486-.474-.588a1.06 1.06 0 0 0-.539-.141.99.99 0 0 0-.576.179 2.14 2.14 0 0 0-.436.396 3.2 3.2 0 0 0-.321.447c-.094.158-.153.268-.218.332v7.502a1.31 1.31 0 0 1-.051.358c-.034.15-.109.287-.218.396-.115.128-.294.23-.512.319s-.539.128-.936.128-.718-.051-.948-.141-.41-.204-.526-.332a.82.82 0 0 1-.218-.396l-.051-.32v-14.49c0-.217-.051-.409-.154-.562-.102-.166-.269-.243-.512-.243-.115-.001-.228.021-.334.064-.089.038-.192.102-.294.192l-.231-.268c.167-.141.359-.281.577-.422a5.02 5.02 0 0 1 .692-.371 4.24 4.24 0 0 1 .807-.256 4.11 4.11 0 0 1 .897-.102c.487 0 .872.064 1.141.192s.474.294.602.486a1.4 1.4 0 0 1 .231.601l.038.562v6.109h.026zm11.151 4.372c0 .243.038.498.102.78s.18.562.308.844.308.549.5.818a3.19 3.19 0 0 0 .692.69c.256.205.551.358.859.486s.666.179 1.038.179c.269 0 .512-.026.73-.09s.436-.14.628-.243.385-.23.564-.371l.538-.447.282.268c-.166.23-.397.486-.666.767a5.53 5.53 0 0 1-.974.78c-.372.243-.833.447-1.346.613a6.05 6.05 0 0 1-1.743.243c-.654 0-1.301-.119-1.909-.358a4.94 4.94 0 0 1-1.654-1.061c-.487-.473-.871-1.061-1.153-1.764-.295-.703-.436-1.534-.436-2.467 0-.677.09-1.304.256-1.879a5.61 5.61 0 0 1 .705-1.534 5.86 5.86 0 0 1 1.038-1.201 6.52 6.52 0 0 1 1.244-.856 6.08 6.08 0 0 1 1.332-.511c.449-.115.898-.179 1.308-.179.551 0 1.038.064 1.448.179a3.05 3.05 0 0 1 1.025.486 2.12 2.12 0 0 1 .615.703 1.77 1.77 0 0 1 .206.831 1.55 1.55 0 0 1-.308.946c-.205.281-.474.524-.808.741l-4.421 2.607zm2.268-2.288a1.33 1.33 0 0 0 .244-.179.62.62 0 0 0 .154-.205c.041-.094.071-.193.089-.294.026-.115.026-.256.026-.434 0-.192-.026-.396-.064-.626a2.77 2.77 0 0 0-.205-.652 1.5 1.5 0 0 0-.372-.511c-.154-.141-.333-.205-.538-.205-.269 0-.5.077-.692.243a1.98 1.98 0 0 0-.474.626c-.128.255-.218.55-.295.869a8.4 8.4 0 0 0-.167.984l-.064.946-.013.767 2.371-1.329zm8.522-1.853a8.61 8.61 0 0 1 .91-1.176l.436-.435a4.48 4.48 0 0 1 .487-.383 2.26 2.26 0 0 1 .525-.268c.172-.065.354-.099.538-.102.385 0 .68.115.897.345s.321.55.321.959a4.72 4.72 0 0 1-.064.741c-.039.23-.128.524-.244.856h-.32a1.07 1.07 0 0 0-.321-.575c-.166-.153-.41-.23-.717-.23-.231 0-.462.038-.692.128a4 4 0 0 0-.654.319 5.04 5.04 0 0 0-.602.422l-.526.422v7.285c0 .117-.017.233-.051.345-.039.128-.103.268-.218.383s-.295.217-.513.307-.538.128-.935.128-.718-.051-.936-.141c-.231-.09-.41-.204-.525-.332s-.193-.256-.231-.396a1.24 1.24 0 0 1-.051-.32V42.14c0-.217-.052-.409-.154-.562-.103-.166-.269-.243-.513-.243a.8.8 0 0 0-.32.064 1.13 1.13 0 0 0-.295.192l-.231-.281c.167-.141.372-.281.577-.422a5.9 5.9 0 0 1 .692-.371 3.85 3.85 0 0 1 .795-.256 4.1 4.1 0 0 1 .897-.102c.32 0 .602.038.833.128a1.99 1.99 0 0 1 .564.332 1.99 1.99 0 0 1 .346.46c.084.165.145.342.179.524l.077.511.039.422z"/></g><g filter="url(#A)"><path d="M587.992 65.075a3.68 3.68 0 0 1-3.491 2.517h-24.496l-39.074.26 9.439-10.051 11.738-12.399h17.897 24.496a3.68 3.68 0 0 1 3.491 2.517l2.471 7.415a3.69 3.69 0 0 1 0 2.327l-2.471 7.415z" fill="#8d55ff"/></g><path d="M523.871 64.67l16.098-16.969h43.187a3.68 3.68 0 0 1 3.49 2.511l1.609 4.804a3.68 3.68 0 0 1 0 2.337l-1.609 4.804a3.68 3.68 0 0 1-3.49 2.511h-59.285z" fill="url(#E)"/><path d="M544.894 60.047h-3.732v-8.198h3.732c2.545 0 4.148 1.566 4.148 4.099s-1.603 4.099-4.148 4.099zm0-7.011h-2.422v5.824h2.422c1.897 0 2.753-.808 2.753-2.912s-.856-2.912-2.753-2.912zm11.691 7.011h-6.558v-8.198h6.558v1.187h-5.237v2.3h5.054v1.175h-5.054v2.349h5.237v1.187zm1.886 0h-1.468l3.658-8.198h1.86l3.659 8.198h-1.493l-.942-2.129h-4.332l-.942 2.129zm2.582-5.812l-1.114 2.496h3.28l-1.114-2.496-.477-1.162h-.098l-.477 1.162zm12.113 5.812h-6.374v-8.198h1.321v7.011h5.053v1.187zm4.293.122c-2.447 0-3.695-1.077-3.695-2.802v-.073h1.321v.196c0 .979.575 1.468 2.374 1.468 1.566 0 2.117-.343 2.117-1.114 0-.71-.416-.979-1.456-1.175l-2.007-.33c-1.383-.245-2.361-.881-2.361-2.227 0-1.187.978-2.386 3.524-2.386 2.398 0 3.487 1.199 3.487 2.802v.073h-1.309v-.159c0-1.003-.6-1.505-2.301-1.505-1.493 0-2.08.367-2.08 1.101 0 .71.416.942 1.383 1.15l1.994.343c1.64.294 2.447 1.04 2.447 2.239 0 1.248-1.015 2.398-3.438 2.398z" class="B"/><g clip-path="url(#H)"><path opacity=".5" d="M562.003 28.342c1.395 1.371-10.111 15.345-25.704 31.201-5.646 5.739-11.046 10.937-15.713 15.17l-4.883.14-.041-1.416 36.36-38.513c5.524-4.702 9.285-7.266 9.981-6.582z" fill="url(#F)"/></g><path d="M331.091 64.816c-5.217 0-8.678-3.411-8.678-8.654s3.461-8.654 8.678-8.654c4.741 0 8.052 2.508 8.052 6.522v.351h-2.985v-.351c0-2.559-1.63-3.938-5.042-3.938-3.938 0-5.844 1.881-5.844 6.07s1.906 6.045 5.844 6.045c3.412 0 5.042-1.355 5.042-3.938v-.326h2.985v.326c0 4.038-3.286 6.547-8.052 6.547zm18.676-.25h-2.684v-5.794l-7.374-11.011h3.311l3.963 5.97 1.405 2.132h.2l1.38-2.132 3.938-5.97h3.336l-7.475 11.062v5.744zm18.15 0h-9.757V47.76h9.406c3.211 0 5.142 1.48 5.142 4.139 0 1.982-1.103 3.462-3.662 3.762v.175c2.86.326 4.264 1.881 4.264 4.089 0 2.885-1.931 4.64-5.393 4.64zm-7.073-14.373v4.615h6.346c1.881 0 2.834-.727 2.834-2.308s-.878-2.308-2.759-2.308h-6.421zm0 6.848v5.092h6.772c2.007 0 2.985-.752 2.985-2.584 0-1.756-1.003-2.508-2.985-2.508h-6.772zm27.665 7.525h-13.444V47.76h13.444v2.433h-10.735v4.716h10.359v2.408h-10.359v4.816h10.735v2.433zm4.819 0h-2.709V47.76h8.729c3.813 0 6.171 1.806 6.171 4.941 0 2.784-1.831 4.49-4.992 4.666v.176c1.304.351 1.906 1.104 2.508 2.157l2.81 4.866h-3.111l-2.684-4.64c-.752-1.329-1.53-1.881-3.637-1.881h-3.085v6.522zm0-14.373v5.769h5.995c2.258 0 3.386-.778 3.386-2.885 0-2.057-1.128-2.885-3.386-2.885h-5.995zm21.14 14.373h-2.709V47.76h3.687l4.841 9.732 1.53 3.487h.201l1.48-3.487 4.79-9.732h3.688v16.806h-2.709v-10.31l.1-2.433h-.201l-1.028 2.433-4.64 9.306h-3.261l-4.641-9.306-1.028-2.433h-.201l.101 2.433v10.309zm28.275.25c-5.268 0-8.754-3.411-8.754-8.654s3.486-8.654 8.754-8.654c5.317 0 8.779 3.411 8.779 8.654s-3.462 8.654-8.779 8.654zm0-2.609c3.988 0 5.919-1.856 5.919-6.045s-1.931-6.07-5.919-6.07-5.895 1.881-5.895 6.07 1.906 6.045 5.895 6.045zm13.489 2.359h-2.709V47.76h2.91l7.525 9.833 2.182 3.135h.201l-.126-3.035V47.76h2.709v16.806h-2.909l-7.576-9.808-2.107-2.96h-.2l.1 2.91v9.858zm22.998 0h-7.65V47.76h7.65c5.217 0 8.503 3.211 8.503 8.403s-3.286 8.403-8.503 8.403zm0-14.373h-4.966v11.94h4.966c3.888 0 5.644-1.656 5.644-5.97s-1.756-5.97-5.644-5.97zm12.277 14.373h-3.01l7.5-16.806h3.813l7.5 16.806h-3.06l-1.932-4.365h-8.879l-1.932 4.365zm5.293-11.915l-2.283 5.117h6.723l-2.283-5.117-.978-2.383h-.201l-.978 2.383zm20.393 11.915h-2.684v-5.794l-7.375-11.011h3.311l3.963 5.97 1.405 2.132h.201l1.379-2.132 3.938-5.97h3.336l-7.474 11.062v5.744z" fill="#ff39f8"/><rect x="323.845" y="18.745" width="67.525" height="19.805" rx="9.902" fill="url(#G)"/><rect x="323.845" y="18.745" width="67.525" height="19.805" rx="9.902" stroke="#8d55ff" stroke-width="2.622"/><path d="M336.908 32.746h-4.76v-8.198h4.588c1.567 0 2.509.722 2.509 2.019 0 .967-.539 1.689-1.787 1.835v.086c1.395.159 2.08.918 2.08 1.994 0 1.407-.942 2.264-2.63 2.264zm-3.451-7.011v2.251h3.096c.918 0 1.383-.355 1.383-1.126s-.429-1.126-1.346-1.126h-3.133zm0 3.34v2.484h3.304c.979 0 1.456-.367 1.456-1.26 0-.857-.489-1.224-1.456-1.224h-3.304zm8.259 3.671h-1.322v-8.198h1.322v8.198zm4.992.123c-2.41 0-4.013-1.664-4.013-4.221s1.725-4.221 4.343-4.221c2.325 0 3.94 1.175 3.94 3.071v.098h-1.456v-.098c0-1.175-.819-1.811-2.52-1.811-1.97 0-2.912.918-2.912 2.961s.93 2.949 2.851 2.949c1.957 0 2.728-.538 2.728-1.921v-.11h-3.034v-1.003h4.343v4.185h-1.199v-1.774h-.085c-.343 1.199-1.383 1.897-2.986 1.897zm9.153 0c-2.41 0-4.013-1.664-4.013-4.221s1.725-4.221 4.344-4.221c2.324 0 3.94 1.175 3.94 3.071v.098h-1.457v-.098c0-1.175-.819-1.811-2.52-1.811-1.97 0-2.912.918-2.912 2.961s.93 2.949 2.851 2.949c1.957 0 2.728-.538 2.728-1.921v-.11h-3.034v-1.003h4.344v4.185h-1.2v-1.774h-.085c-.343 1.199-1.383 1.897-2.986 1.897zm11.943-.123h-6.558v-8.198h6.558v1.187h-5.237v2.3h5.053v1.175h-5.053v2.349h5.237v1.187zm4.468.123c-2.448 0-3.696-1.077-3.696-2.802v-.073h1.322v.196c0 .979.575 1.468 2.374 1.468 1.566 0 2.116-.343 2.116-1.113 0-.71-.416-.979-1.456-1.175l-2.006-.33c-1.383-.245-2.362-.881-2.362-2.227 0-1.187.979-2.386 3.524-2.386 2.398 0 3.487 1.199 3.487 2.802v.073h-1.309v-.159c0-1.003-.6-1.505-2.3-1.505-1.493 0-2.08.367-2.08 1.101 0 .71.416.942 1.382 1.15l1.995.343c1.639.294 2.447 1.04 2.447 2.239 0 1.248-1.016 2.398-3.438 2.398zm8.451-.123h-1.31v-7.011h-3.23v-1.187h7.758v1.187h-3.218v7.011z" class="B"/><path d="M410.538 37.27H400.32V19.448h9.85c3.362 0 5.385 1.569 5.385 4.389 0 2.101-1.156 3.671-3.835 3.99v.186c2.994.346 4.465 1.995 4.465 4.336 0 3.059-2.023 4.921-5.647 4.921zm-7.408-15.242v4.894h6.646c1.97 0 2.968-.771 2.968-2.447s-.919-2.447-2.889-2.447h-6.725zm0 7.262v5.4h7.092c2.102 0 3.126-.798 3.126-2.74 0-1.862-1.05-2.66-3.126-2.66h-7.092zm28.578 7.98h-13.686V19.448h2.837V34.69h10.849v2.58zm3.672 0h-3.152l7.854-17.822h3.993l7.854 17.822h-3.205l-2.022-4.628h-9.299l-2.023 4.628zm5.543-12.635l-2.391 5.426h7.04l-2.39-5.426-1.025-2.527h-.21l-1.024 2.527zm20.882 12.901c-5.463 0-9.088-3.618-9.088-9.177s3.625-9.177 9.088-9.177c4.965 0 8.432 2.66 8.432 6.916v.372h-3.126v-.372c0-2.713-1.707-4.176-5.279-4.176-4.124 0-6.121 1.995-6.121 6.437s1.997 6.411 6.121 6.411c3.572 0 5.279-1.436 5.279-4.176v-.346h3.126v.346c0 4.283-3.441 6.943-8.432 6.943zm13.359-.266h-2.837V19.448h2.837v7.607h5.332l5.149-7.607h3.362l-6.147 8.805 6.121 9.017h-3.363l-5.069-7.448h-5.385v7.448zm22.676 0h-2.837V19.448h14.001v2.58H497.84v5.533h10.77v2.554h-10.77v7.155zm16.109 0h-2.836V19.448h9.141c3.992 0 6.461 1.915 6.461 5.24 0 2.953-1.917 4.761-5.227 4.948v.186c1.366.372 1.996 1.17 2.627 2.288l2.942 5.16H523.8l-2.811-4.921c-.788-1.41-1.602-1.995-3.809-1.995h-3.231v6.916zm0-15.242v6.118h6.278c2.364 0 3.546-.825 3.546-3.059 0-2.181-1.182-3.059-3.546-3.059h-6.278zm17.649 15.242h-2.837V19.448h2.837V37.27zm10.796 0h-8.012V19.448h8.012c5.463 0 8.905 3.405 8.905 8.911s-3.442 8.911-8.905 8.911zm0-15.242h-5.201V34.69h5.201c4.071 0 5.91-1.756 5.91-6.331s-1.839-6.331-5.91-6.331zm12.857 15.242h-3.152l7.854-17.822h3.992l7.854 17.822h-3.204l-2.023-4.628h-9.298l-2.023 4.628zm5.542-12.635l-2.39 5.426h7.04l-2.391-5.426-1.024-2.527h-.21l-1.025 2.527zm21.356 12.635h-2.811v-6.145l-7.723-11.677h3.468l4.15 6.331 1.471 2.261h.21l1.445-2.261 4.124-6.331h3.493l-7.827 11.731v6.091z" fill="#00d9ff"/><g class="B"><path d="M763.48 63.562c-13.722 0-19.345-6.017-19.345-19.346 0-13.103 7.367-19.458 18.614-19.458 10.292 0 16.928 4.949 16.928 12.654v.45h-9.392v-.45c0-3.262-2.137-4.555-7.536-4.555-6.917 0-9.616 2.193-9.616 9.898v2.475h.618c1.575-3.037 5.624-5.511 12.372-5.511 9.28 0 14.454 3.768 14.454 11.473 0 7.536-5.905 12.372-17.097 12.372zm-.45-8.098c6.693 0 8.717-1.575 8.717-4.893 0-3.487-1.968-5.005-8.66-5.005-7.086 0-9.28 1.518-9.28 4.893s2.25 5.005 9.223 5.005zm39.485 8.098c-12.147 0-18.84-7.648-18.84-19.402 0-11.697 6.693-19.402 18.84-19.402 12.091 0 18.84 7.705 18.84 19.402 0 11.754-6.749 19.402-18.84 19.402zm0-8.211c7.142 0 9.785-3.093 9.785-11.191s-2.643-11.191-9.785-11.191c-7.198 0-9.785 3.093-9.785 11.191s2.587 11.191 9.785 11.191zm30.917-11.866c-6.243 0-9.898-3.768-9.898-9.392s3.655-9.448 9.898-9.448c6.298 0 9.954 3.824 9.954 9.448s-3.656 9.392-9.954 9.392zM833.657 63h-8.155l31.999-37.679h8.155L833.657 63zm-.225-25.026c2.98 0 3.936-1.069 3.936-3.88s-.956-3.937-3.936-3.937c-2.925 0-3.881 1.125-3.881 3.937s.956 3.88 3.881 3.88zm24.238 25.644c-6.242 0-9.954-3.768-9.954-9.392s3.712-9.392 9.954-9.392 9.954 3.768 9.954 9.392-3.712 9.392-9.954 9.392zm0-5.511c2.924 0 3.937-1.069 3.937-3.88s-1.013-3.937-3.937-3.937-3.937 1.125-3.937 3.937 1.013 3.88 3.937 3.88zm41.152 5.455c-12.485 0-20.246-7.648-20.246-19.402s7.761-19.402 20.246-19.402c12.766 0 20.47 7.648 20.47 19.402s-7.704 19.402-20.47 19.402zm0-8.098c8.267 0 11.472-2.924 11.472-11.304s-3.205-11.304-11.472-11.304-11.304 2.924-11.304 11.304 3.037 11.304 11.304 11.304zM931.407 63h-8.436V25.321h31.887v7.592h-23.451v8.492h22.607v7.536h-22.607V63zm35.478 0h-8.436V25.321h31.887v7.592h-23.451v8.492h22.607v7.536h-22.607V63z"/><rect x="722.175" y="20.219" width="39.481" height="15.881" rx="4.017" transform="rotate(345 722.175 20.219)" fill-opacity=".2"/><path d="M734.42 28.388c-.491.132-.963.154-1.416.068a2.33 2.33 0 0 1-1.19-.638c-.34-.339-.592-.812-.755-1.42l-1.128-4.21 1.164-.312 1.131 4.22c.099.369.241.656.428.862a1.31 1.31 0 0 0 .66.406c.258.056.538.043.842-.038a1.74 1.74 0 0 0 .749-.388c.193-.183.316-.41.369-.681s.038-.593-.06-.961l-1.131-4.22 1.164-.312 1.128 4.21c.163.608.178 1.144.047 1.61a2.31 2.31 0 0 1-.731 1.152c-.356.303-.779.521-1.271.652zm4.487.96l-1.882-7.023 1.038-.278.316.674c.065-.17.152-.335.262-.497a1.79 1.79 0 0 1 .45-.453c.193-.135.425-.238.696-.311.46-.123.894-.118 1.304.015.416.131.777.364 1.081.698.303.328.52.738.652 1.229s.146.959.043 1.402a2.37 2.37 0 0 1-.593 1.126c-.29.314-.662.531-1.114.652-.369.099-.71.117-1.025.056a1.8 1.8 0 0 1-.821-.425l.757 2.823-1.164.312zm1.74-3.71c.272-.073.497-.202.676-.389a1.35 1.35 0 0 0 .349-.676c.06-.266.05-.551-.032-.855-.083-.31-.217-.566-.402-.765-.179-.202-.393-.338-.641-.411s-.508-.072-.779.001a1.44 1.44 0 0 0-.685.392c-.173.185-.289.41-.35.676-.054.264-.04.548.042.852a1.86 1.86 0 0 0 .393.768 1.53 1.53 0 0 0 .64.411c.248.072.511.071.789-.003zm7.947-1.173l-1.567-5.849-1.998.535-.252-.941 5.15-1.38.252.941-1.998.535 1.568 5.849-1.155.309zm5.513-1.352c-.466.125-.915.131-1.347.018a2.47 2.47 0 0 1-1.115-.668c-.311-.332-.533-.748-.666-1.246-.137-.511-.15-.986-.039-1.425.11-.445.32-.824.631-1.136.317-.32.707-.543 1.173-.668a2.48 2.48 0 0 1 1.34-.006 2.31 2.31 0 0 1 1.112.659c.316.324.542.742.679 1.253s.149.986.038 1.424a2.45 2.45 0 0 1-.641 1.139c-.311.312-.7.531-1.165.655zm-.268-.999c.233-.062.427-.177.584-.344.163-.168.271-.385.325-.649s.035-.567-.057-.91-.226-.612-.403-.807c-.172-.203-.371-.337-.596-.402-.219-.066-.445-.068-.678-.006a1.24 1.24 0 0 0-.583.344c-.163.168-.272.384-.326.648-.055.258-.037.558.054.901s.228.615.406.817.378.335.597.402c.225.065.451.066.677.006z"/></g><g clip-path="url(#I)" fill="#fcffff"><path d="M1138.15 44.375c.01-4.214-3.4-7.64-7.61-7.651-4.22-.011-7.64 3.396-7.65 7.61-.01 2.11.86 4.127 2.39 5.574l-1.59 2.789 1.2.692 1.48-2.605a7.6 7.6 0 0 0 8.25 0l1.48 2.605 1.19-.692-1.54-2.789c1.53-1.435 2.39-3.437 2.4-5.533zm-5.05 1.153h-3a.69.69 0 0 1-.69-.692v-3.85a.69.69 0 1 1 1.38 0v3.158h2.31a.692.692 0 1 1 0 1.383zm-6.6-9.877c-.01-.005-.01-.009-.02-.013a3.5 3.5 0 0 0-4.95-.001c-1.37 1.369-1.37 3.588 0 4.956a.68.68 0 0 0 .96.001l3.99-3.965c.28-.266.28-.704.02-.978zm12.96-.012c-.65-.645-1.53-1.009-2.44-1.015-.93-.003-1.81.362-2.47 1.014a.7.7 0 0 0 0 .968l3.97 3.988a.68.68 0 0 0 .96 0 3.49 3.49 0 0 0-.02-4.955z"/></g><path d="M1146.2 50.5V37.409h2.37v11.103h5.77V50.5h-8.14zm10.09 0v-9.818h2.32V50.5h-2.32zm1.16-11.212a1.34 1.34 0 0 1-.94-.364c-.27-.247-.4-.543-.4-.889s.13-.646.4-.889c.26-.247.58-.371.94-.371.38 0 .69.124.95.371.27.243.4.539.4.889s-.13.641-.4.889a1.33 1.33 0 0 1-.95.364zm3.53 11.212v-9.818h2.22v1.668h.11c.21-.562.54-1.001 1.02-1.317.47-.32 1.04-.479 1.69-.479.67 0 1.23.162 1.68.486a2.5 2.5 0 0 1 .97 1.31h.11c.21-.545.58-.98 1.1-1.304s1.13-.492 1.84-.492c.91 0 1.64.285 2.22.856.57.571.85 1.404.85 2.499v6.59h-2.32v-6.232c0-.609-.16-1.055-.48-1.336-.33-.286-.72-.428-1.19-.428-.56 0-1 .175-1.31.524s-.47.795-.47 1.349V50.5h-2.27v-6.328c0-.507-.15-.912-.46-1.215-.3-.303-.7-.454-1.19-.454a1.71 1.71 0 0 0-.91.256c-.27.166-.49.403-.65.709s-.24.656-.24 1.061v5.97h-2.32zm16.16 0v-9.818h2.31V50.5h-2.31zm1.16-11.212a1.34 1.34 0 0 1-.94-.364c-.27-.247-.4-.543-.4-.889s.13-.646.4-.889c.26-.247.58-.371.94-.371.37 0 .69.124.95.371a1.17 1.17 0 0 1 .39.889c0 .345-.13.641-.39.889s-.58.364-.95.364zm8.44 1.393v1.79h-5.65v-1.79h5.65zm-4.26-2.352h2.32v9.217c0 .311.05.55.14.716a.75.75 0 0 0 .38.332 1.48 1.48 0 0 0 .53.09c.14 0 .27-.011.39-.032l.28-.058.39 1.809c-.12.043-.3.09-.53.141-.22.051-.5.081-.83.09-.58.017-1.1-.07-1.56-.262-.47-.196-.84-.499-1.11-.908s-.4-.921-.4-1.534V38.33zm10.43 12.362c-.98 0-1.83-.205-2.55-.614-.71-.413-1.26-.997-1.64-1.751-.39-.759-.58-1.651-.58-2.678 0-1.01.19-1.896.58-2.659s.93-1.364 1.62-1.79c.7-.43 1.51-.646 2.45-.646a4.89 4.89 0 0 1 1.71.294 3.85 3.85 0 0 1 1.43.895c.42.405.75.921.99 1.547s.36 1.364.36 2.224v.709h-8.05v-1.56h5.83c-.01-.443-.1-.837-.29-1.183a2.14 2.14 0 0 0-.78-.825c-.34-.2-.72-.3-1.17-.3-.47 0-.89.115-1.24.345-.36.226-.64.524-.84.895a2.48 2.48 0 0 0-.3 1.208v1.362c0 .571.1 1.061.31 1.47a2.22 2.22 0 0 0 .88.933c.37.213.81.32 1.31.32.34 0 .64-.047.92-.141.27-.098.51-.241.71-.428s.35-.42.45-.697l2.16.243c-.13.571-.39 1.07-.78 1.496a3.76 3.76 0 0 1-1.46.984c-.59.23-1.27.345-2.03.345zm9.97-.019c-.77 0-1.46-.198-2.07-.595s-1.09-.972-1.45-1.726c-.35-.754-.53-1.67-.53-2.749 0-1.091.18-2.011.54-2.761s.85-1.323 1.46-1.707a3.78 3.78 0 0 1 2.05-.582c.58 0 1.05.098 1.42.294s.67.424.89.697c.21.269.38.522.5.761h.1v-4.896h2.32V50.5h-2.28v-1.547h-.14a3.82 3.82 0 0 1-.52.761c-.22.264-.52.49-.89.678s-.84.281-1.4.281zm.64-1.899c.49 0 .91-.132 1.26-.396.34-.268.6-.641.78-1.119s.27-1.033.27-1.668-.09-1.187-.27-1.655c-.17-.469-.43-.833-.78-1.093-.34-.26-.76-.39-1.26-.39-.51 0-.94.134-1.29.403-.34.269-.6.639-.78 1.112-.17.473-.26 1.014-.26 1.624s.09 1.161.26 1.643c.18.477.44.854.79 1.131s.78.409 1.28.409zm11.04-9.377v-1.988h10.45v1.988h-4.05V50.5h-2.35V39.397h-4.05zm12.36 11.103v-9.818h2.31V50.5h-2.31zm1.16-11.212a1.34 1.34 0 0 1-.94-.364c-.27-.247-.4-.543-.4-.889s.13-.646.4-.889c.26-.247.58-.371.94-.371.37 0 .69.124.95.371s.4.539.4.889-.14.641-.4.889-.58.364-.95.364zm3.53 11.212v-9.818h2.22v1.668h.11a2.55 2.55 0 0 1 1.02-1.317c.47-.32 1.03-.479 1.69-.479.67 0 1.23.162 1.68.486a2.5 2.5 0 0 1 .97 1.31h.11c.21-.545.58-.98 1.1-1.304.51-.328 1.13-.492 1.84-.492.91 0 1.64.285 2.21.856.58.571.86 1.404.86 2.499v6.59h-2.32v-6.232c0-.609-.16-1.055-.49-1.336-.32-.286-.72-.428-1.18-.428-.56 0-1 .175-1.31.524-.32.345-.47.795-.47 1.349V50.5h-2.27v-6.328c0-.507-.15-.912-.46-1.215-.3-.303-.7-.454-1.19-.454a1.71 1.71 0 0 0-.91.256c-.27.166-.49.403-.65.709s-.24.656-.24 1.061v5.97h-2.32zm20.5.192c-.98 0-1.83-.205-2.55-.614-.71-.413-1.26-.997-1.64-1.751s-.57-1.651-.57-2.678c0-1.01.19-1.896.57-2.659.39-.767.93-1.364 1.63-1.79.69-.43 1.51-.646 2.44-.646.61 0 1.18.098 1.72.294a3.93 3.93 0 0 1 1.43.895c.42.405.74.921.98 1.547s.36 1.364.36 2.224v.709h-8.05v-1.56h5.83c0-.443-.1-.837-.29-1.183-.18-.349-.44-.624-.78-.825-.33-.2-.72-.3-1.16-.3-.48 0-.89.115-1.25.345s-.64.524-.84.895c-.19.366-.29.769-.3 1.208v1.362c0 .571.11 1.061.31 1.47a2.22 2.22 0 0 0 .88.933c.37.213.81.32 1.32.32.33 0 .64-.047.91-.141s.51-.241.71-.428.35-.42.45-.697l2.16.243c-.13.571-.39 1.07-.78 1.496-.37.422-.86.75-1.45.984-.6.23-1.27.345-2.04.345zm22.59-6.737c0 1.411-.26 2.619-.79 3.624-.52 1.002-1.24 1.768-2.15 2.301-.9.533-1.93.799-3.07.799-1.15 0-2.18-.266-3.08-.799-.91-.537-1.62-1.306-2.15-2.308s-.79-2.212-.79-3.618.26-2.616.79-3.618 1.24-1.775 2.15-2.307c.9-.533 1.93-.799 3.08-.799 1.14 0 2.17.266 3.07.799.91.533 1.63 1.302 2.15 2.307.53 1.002.79 2.207.79 3.618zm-2.38 0c0-.993-.16-1.83-.47-2.512s-.73-1.204-1.28-1.553c-.54-.354-1.17-.531-1.88-.531s-1.34.177-1.89.531c-.54.349-.97.867-1.28 1.553s-.46 1.519-.46 2.512.15 1.832.46 2.518.74 1.2 1.28 1.553c.55.349 1.18.524 1.89.524s1.34-.175 1.88-.524c.55-.354.97-.871 1.28-1.553s.47-1.526.47-2.518zm9.5-3.273v1.79h-5.81v-1.79h5.81zm-4.36 9.818V39.755c0-.661.14-1.21.41-1.649.28-.439.65-.767 1.11-.984.47-.217.98-.326 1.55-.326.4 0 .76.032 1.07.096l.69.173-.46 1.79c-.1-.03-.22-.06-.37-.09a2.28 2.28 0 0 0-.5-.051c-.43 0-.74.104-.92.313-.17.205-.26.499-.26.882V50.5h-2.32zm11.14-9.818v1.79h-5.8v-1.79h5.8zm-4.35 9.818V39.755c0-.661.13-1.21.41-1.649.27-.439.64-.767 1.11-.984.46-.217.98-.326 1.55-.326.4 0 .75.032 1.06.096l.69.173-.46 1.79a3.38 3.38 0 0 0-.37-.09c-.15-.034-.31-.051-.5-.051-.43 0-.73.104-.91.313-.17.205-.26.499-.26.882V50.5h-2.32zm10.14.192c-.98 0-1.83-.205-2.55-.614-.71-.413-1.26-.997-1.64-1.751-.39-.759-.58-1.651-.58-2.678 0-1.01.19-1.896.58-2.659a4.32 4.32 0 0 1 1.62-1.79c.69-.43 1.51-.646 2.45-.646.6 0 1.17.098 1.71.294a3.85 3.85 0 0 1 1.43.895c.42.405.75.921.99 1.547s.36 1.364.36 2.224v.709h-8.05v-1.56h5.83c-.01-.443-.1-.837-.29-1.183s-.45-.624-.79-.825c-.33-.2-.72-.3-1.16-.3-.47 0-.89.115-1.25.345a2.42 2.42 0 0 0-.83.895 2.48 2.48 0 0 0-.3 1.208v1.362c0 .571.1 1.061.31 1.47a2.22 2.22 0 0 0 .88.933c.37.213.81.32 1.31.32.34 0 .64-.047.92-.141.27-.098.51-.241.71-.428s.35-.42.45-.697l2.16.243a3.44 3.44 0 0 1-.78 1.496c-.38.422-.87.75-1.46.984s-1.27.345-2.03.345zm6.32-.192v-9.818h2.25v1.636h.1c.18-.567.49-1.004.92-1.31.44-.311.94-.467 1.5-.467l.43.019c.16.008.3.023.4.045v2.129a2.42 2.42 0 0 0-.46-.09 4.4 4.4 0 0 0-.61-.045c-.42 0-.8.092-1.14.275-.33.179-.59.428-.79.748-.19.32-.28.688-.28 1.106V50.5h-2.32zm8.73-1.79l-.08.703a10.91 10.91 0 0 1-.32 1.636l-.47 1.541-.41 1.106h-1.56l.25-1.061.3-1.509c.1-.558.17-1.125.2-1.7l.05-.716h2.04zm15.53-7.121c-.11-.345-.26-.654-.44-.927-.19-.277-.41-.514-.67-.709s-.55-.343-.88-.441a3.7 3.7 0 0 0-1.09-.153c-.7 0-1.33.177-1.88.531s-.98.874-1.3 1.56c-.31.682-.46 1.513-.46 2.493 0 .989.15 1.826.46 2.512.32.686.75 1.208 1.3 1.566.56.354 1.2.531 1.93.531.67 0 1.24-.128 1.73-.384s.87-.618 1.13-1.087.4-1.027.4-1.662l.53.083h-3.55v-1.854h5.31v1.572c0 1.121-.24 2.09-.71 2.908-.48.818-1.14 1.449-1.97 1.892-.84.439-1.8.658-2.88.658-1.21 0-2.26-.271-3.18-.812-.9-.545-1.61-1.319-2.13-2.32-.5-1.006-.76-2.199-.76-3.58 0-1.057.15-2.001.45-2.832s.73-1.536 1.27-2.116 1.17-1.027 1.9-1.33 1.52-.46 2.38-.46a6.31 6.31 0 0 1 2.03.32c.62.209 1.18.507 1.66.895a4.91 4.91 0 0 1 1.21 1.381c.32.533.52 1.121.62 1.764h-2.41zm9.06 9.102c-.99 0-1.84-.205-2.55-.614s-1.26-.997-1.64-1.751c-.39-.759-.58-1.651-.58-2.678 0-1.01.19-1.896.58-2.659.38-.767.92-1.364 1.62-1.79.69-.43 1.51-.646 2.45-.646.6 0 1.17.098 1.71.294a3.85 3.85 0 0 1 1.43.895c.42.405.75.921.99 1.547s.35 1.364.35 2.224v.709h-8.04v-1.56h5.83c-.01-.443-.1-.837-.29-1.183s-.45-.624-.79-.825c-.33-.2-.72-.3-1.16-.3-.47 0-.89.115-1.25.345a2.34 2.34 0 0 0-.83.895c-.2.366-.3.769-.31 1.208v1.362c0 .571.11 1.061.32 1.47a2.26 2.26 0 0 0 .87.933c.38.213.82.32 1.32.32a2.75 2.75 0 0 0 .91-.141c.28-.098.51-.241.71-.428s.36-.42.46-.697l2.16.243a3.44 3.44 0 0 1-.78 1.496c-.38.422-.87.75-1.46.984s-1.27.345-2.03.345zm11.22-10.01v1.79h-5.64v-1.79h5.64zM1341 38.33h2.32v9.217c0 .311.04.55.14.716a.75.75 0 0 0 .38.332 1.48 1.48 0 0 0 .53.09c.14 0 .27-.011.39-.032l.28-.058.39 1.809c-.12.043-.3.09-.53.141-.22.051-.5.081-.83.09-.58.017-1.1-.07-1.56-.262-.47-.196-.84-.499-1.11-.908s-.4-.921-.4-1.534V38.33zm10.65 12.17v-9.818h2.32V50.5h-2.32zm1.17-11.212c-.37 0-.68-.122-.95-.364-.26-.247-.39-.543-.39-.889a1.17 1.17 0 0 1 .39-.889 1.35 1.35 0 0 1 .95-.371 1.31 1.31 0 0 1 .94.371c.27.243.4.539.4.889s-.13.641-.4.889a1.32 1.32 0 0 1-.94.364zm8.43 1.393v1.79h-5.64v-1.79h5.64zM1357 38.33h2.31v9.217c0 .311.05.55.14.716a.77.77 0 0 0 .39.332c.16.06.33.09.52.09a2.27 2.27 0 0 0 .4-.032l.28-.058.39 1.809c-.12.043-.3.09-.53.141s-.5.081-.83.09c-.58.017-1.1-.07-1.57-.262a2.43 2.43 0 0 1-1.1-.908c-.27-.409-.4-.921-.4-1.534V38.33zm21.51-.92V50.5h-2.11l-6.17-8.917h-.11V50.5h-2.37V37.409h2.13l6.16 8.923h.11v-8.923h2.36zm6.77 13.283c-.96 0-1.79-.211-2.5-.633a4.25 4.25 0 0 1-1.63-1.77c-.39-.759-.58-1.645-.58-2.659s.19-1.903.58-2.666c.38-.763.93-1.355 1.63-1.777.71-.422 1.54-.633 2.5-.633.95 0 1.79.211 2.49.633s1.24 1.014 1.63 1.777.58 1.651.58 2.666-.19 1.901-.58 2.659-.93 1.349-1.63 1.77-1.54.633-2.49.633zm.01-1.854c.52 0 .95-.143 1.3-.428s.61-.678.78-1.163c.18-.486.26-1.027.26-1.623s-.08-1.144-.26-1.63c-.17-.49-.43-.88-.78-1.17s-.78-.435-1.3-.435c-.53 0-.98.145-1.33.435s-.61.68-.79 1.17c-.17.486-.25 1.029-.25 1.63s.08 1.138.25 1.624c.18.486.44.874.79 1.163s.8.428 1.33.428zm8.4 1.662l-2.78-9.818h2.36l1.73 6.903h.09l1.76-6.903h2.34l1.76 6.865h.1l1.7-6.865h2.36l-2.78 9.818h-2.41l-1.84-6.635h-.13l-1.84 6.635h-2.42zm15.87-13.091l-.21 9.243h-2.06l-.21-9.243h2.48zm-1.24 13.231c-.39 0-.72-.136-1-.409-.27-.273-.41-.605-.41-.997 0-.383.14-.712.41-.984.28-.273.61-.409 1-.409.38 0 .71.136.98.409.28.273.42.601.42.984a1.33 1.33 0 0 1-.19.709 1.51 1.51 0 0 1-.51.511c-.21.123-.45.185-.7.185z" class="B"/><g filter="url(#B)"><rect x="1471.5" y="18.964" width="157.5" height="50.073" rx="24.792" fill="#ff39f8" shape-rendering="crispEdges"/><g filter="url(#C)" class="B"><path d="M1502.07 42.08a3.4 3.4 0 0 0-.39-.824 2.69 2.69 0 0 0-.59-.631c-.23-.174-.49-.305-.79-.392-.29-.091-.62-.136-.96-.136-.63 0-1.19.157-1.68.472-.48.314-.87.777-1.15 1.386s-.41 1.345-.41 2.216c0 .879.13 1.623.41 2.233s.66 1.074 1.15 1.392c.5.314 1.07.472 1.72.472.59 0 1.1-.114 1.53-.341a2.36 2.36 0 0 0 1.01-.966c.24-.42.35-.913.35-1.477l.48.074h-3.16v-1.648h4.72v1.398c0 .996-.21 1.858-.63 2.585a4.4 4.4 0 0 1-1.75 1.682c-.75.39-1.6.585-2.56.585-1.07 0-2.01-.241-2.82-.722s-1.44-1.172-1.9-2.062c-.45-.894-.67-1.955-.67-3.182 0-.939.13-1.778.4-2.517.26-.739.64-1.365 1.12-1.881s1.05-.913 1.69-1.182c.65-.273 1.36-.409 2.12-.409.64 0 1.24.095 1.8.284.55.186 1.05.451 1.48.796.44.345.79.754 1.07 1.227.29.473.47.996.56 1.568h-2.15zm4.19 7.92v-8.727h1.99v1.455h.1a2.15 2.15 0 0 1 .81-1.165c.39-.276.84-.415 1.34-.415l.38.017c.14.008.26.021.36.04v1.892a2.28 2.28 0 0 0-.42-.08c-.18-.027-.36-.04-.54-.04a2.09 2.09 0 0 0-1.01.244c-.29.159-.53.381-.7.665s-.25.612-.25.983V50h-2.06zm8.7.176c-.55 0-1.05-.098-1.5-.295-.43-.201-.78-.496-1.04-.886-.25-.39-.38-.871-.38-1.443 0-.492.09-.9.27-1.222a2.07 2.07 0 0 1 .75-.773c.31-.193.66-.339 1.06-.437a8.77 8.77 0 0 1 1.23-.222l1.25-.142c.31-.045.54-.114.69-.205s.22-.24.22-.437v-.034c0-.428-.13-.759-.38-.994s-.62-.352-1.1-.352c-.5 0-.9.11-1.2.33-.29.22-.48.479-.59.778l-1.92-.273c.15-.53.4-.973.75-1.33s.78-.629 1.28-.807 1.06-.273 1.67-.273a5.5 5.5 0 0 1 1.26.148c.41.098.79.261 1.14.489a2.51 2.51 0 0 1 .83.915c.21.386.32.869.32 1.449V50h-1.98v-1.199h-.07c-.12.242-.3.47-.53.682-.22.208-.5.377-.84.506s-.74.188-1.19.188zm.53-1.511c.42 0 .77-.081 1.08-.244.3-.167.53-.386.7-.659a1.74 1.74 0 0 0 .25-.892v-1.028c-.07.053-.18.102-.33.148a5.32 5.32 0 0 1-.52.119l-.56.091-.48.068c-.31.042-.58.11-.82.205-.25.095-.44.227-.58.398s-.21.383-.21.648c0 .379.14.665.42.858.27.193.62.29 1.05.29zm6.24 1.335V38.364h2.05v4.352h.09c.1-.212.25-.437.45-.676.19-.242.45-.449.78-.619s.75-.261 1.26-.261a3.35 3.35 0 0 1 1.83.517c.54.341.97.847 1.29 1.517s.48 1.485.48 2.455c0 .958-.15 1.773-.47 2.443-.31.671-.74 1.182-1.28 1.534s-1.16.528-1.84.528c-.5 0-.92-.083-1.25-.25s-.59-.367-.79-.602a3.74 3.74 0 0 1-.46-.676h-.12V50h-2.02zm2.01-4.364c0 .564.08 1.059.24 1.483s.4.756.7.994c.31.235.68.352 1.11.352.46 0 .84-.121 1.15-.364.3-.246.53-.581.69-1.006s.24-.915.24-1.46-.08-1.023-.24-1.443c-.15-.42-.38-.75-.69-.989s-.69-.358-1.15-.358c-.44 0-.81.115-1.12.347a2.1 2.1 0 0 0-.69.972c-.16.417-.24.907-.24 1.472zm16.3-4.364v1.591h-5.02v-1.591h5.02zm-3.78-2.091h2.06v8.193c0 .276.04.489.12.636.09.144.2.242.34.295s.3.08.47.08a1.93 1.93 0 0 0 .35-.028l.25-.051.35 1.608c-.11.038-.27.08-.47.125s-.45.072-.74.08c-.52.015-.98-.062-1.39-.233-.42-.174-.74-.443-.99-.807-.24-.364-.35-.818-.35-1.364v-8.534zm7.74 5.705V50h-2.05V38.364h2.01v4.392h.1c.21-.492.52-.881.95-1.165s.98-.432 1.65-.432c.6 0 1.13.127 1.58.381s.8.625 1.05 1.114.37 1.085.37 1.79V50h-2.05v-5.239c0-.587-.15-1.044-.46-1.369-.3-.33-.72-.494-1.26-.494-.36 0-.69.08-.98.239a1.74 1.74 0 0 0-.67.676c-.16.295-.24.653-.24 1.074zm11.62 5.284c-.87 0-1.63-.182-2.26-.545-.64-.367-1.12-.886-1.46-1.557s-.52-1.468-.52-2.381c0-.898.18-1.686.52-2.364a3.81 3.81 0 0 1 1.44-1.591c.62-.383 1.34-.574 2.18-.574.53 0 1.04.087 1.52.261a3.46 3.46 0 0 1 1.27.795c.37.36.66.818.88 1.375.21.553.31 1.212.31 1.977v.631h-7.15v-1.386h5.18c0-.394-.09-.744-.25-1.051a1.88 1.88 0 0 0-.7-.733c-.3-.178-.64-.267-1.04-.267-.42 0-.79.102-1.1.307a2.13 2.13 0 0 0-.75.795c-.17.326-.26.684-.27 1.074v1.21c0 .508.1.943.28 1.307a2.04 2.04 0 0 0 .78.83c.33.189.73.284 1.17.284a2.46 2.46 0 0 0 .81-.125c.25-.087.46-.214.64-.381a1.66 1.66 0 0 0 .4-.619l1.92.216c-.12.508-.35.951-.69 1.329s-.77.667-1.3.875-1.13.307-1.81.307zm13.63-.17h-3.95V38.364h4.03c1.15 0 2.14.233 2.97.699.84.462 1.48 1.127 1.92 1.994.45.867.67 1.905.67 3.114s-.22 2.254-.67 3.125-1.09 1.54-1.94 2.006c-.84.466-1.85.699-3.03.699zm-1.84-1.824h1.73c.82 0 1.49-.148 2.03-.443s.95-.744 1.22-1.335c.28-.595.41-1.337.41-2.227s-.13-1.629-.41-2.216c-.27-.591-.67-1.032-1.21-1.324-.53-.295-1.18-.443-1.97-.443h-1.8v7.989zm13.26 1.994c-.87 0-1.63-.182-2.27-.545-.63-.367-1.12-.886-1.46-1.557s-.51-1.468-.51-2.381c0-.898.17-1.686.51-2.364.35-.682.83-1.212 1.45-1.591.61-.383 1.34-.574 2.17-.574.54 0 1.05.087 1.53.261a3.46 3.46 0 0 1 1.27.795c.37.36.66.818.87 1.375.22.553.32 1.212.32 1.977v.631h-7.15v-1.386h5.18c0-.394-.09-.744-.26-1.051-.16-.311-.4-.555-.7-.733-.29-.178-.64-.267-1.03-.267-.42 0-.79.102-1.11.307s-.56.466-.74.795-.26.684-.27 1.074v1.21c0 .508.09.943.28 1.307a2.04 2.04 0 0 0 .78.83c.33.189.72.284 1.17.284a2.46 2.46 0 0 0 .81-.125 1.84 1.84 0 0 0 .63-.381c.18-.167.31-.373.41-.619l1.92.216c-.13.508-.36.951-.7 1.329-.33.375-.77.667-1.29.875-.53.205-1.13.307-1.81.307zm8.13.006c-.55 0-1.05-.098-1.49-.295a2.46 2.46 0 0 1-1.05-.886c-.25-.39-.38-.871-.38-1.443 0-.492.09-.9.27-1.222.19-.322.43-.58.75-.773.31-.193.67-.339 1.06-.437a8.77 8.77 0 0 1 1.23-.222l1.25-.142c.32-.045.55-.114.69-.205.15-.095.22-.24.22-.437v-.034c0-.428-.12-.759-.38-.994-.25-.235-.62-.352-1.09-.352-.51 0-.91.11-1.2.33s-.49.479-.59.778l-1.92-.273c.15-.53.4-.973.75-1.33.34-.36.77-.629 1.27-.807.51-.182 1.07-.273 1.68-.273.42 0 .83.049 1.25.148a3.45 3.45 0 0 1 1.14.489c.35.223.62.528.83.915s.32.869.32 1.449V50h-1.98v-1.199h-.06c-.13.242-.31.47-.53.682-.23.208-.51.377-.85.506s-.73.188-1.19.188zm.54-1.511c.41 0 .77-.081 1.07-.244s.54-.386.7-.659a1.65 1.65 0 0 0 .25-.892v-1.028c-.07.053-.17.102-.33.148-.15.046-.32.085-.51.119l-.56.091-.49.068c-.3.042-.58.11-.82.205a1.37 1.37 0 0 0-.57.398c-.14.167-.21.383-.21.648 0 .379.13.665.41.858s.63.29 1.06.29zm8.2-10.301V50h-2.06V38.364h2.06zm9.01 5.216l-1.88.205a1.36 1.36 0 0 0-.28-.534c-.12-.167-.3-.301-.52-.403s-.49-.153-.8-.153c-.43 0-.79.093-1.08.278s-.43.426-.43.722c0 .254.09.46.28.619s.51.29.95.392l1.49.318c.83.178 1.44.46 1.84.847.41.386.61.892.62 1.517-.01.549-.17 1.034-.49 1.454-.31.417-.75.742-1.31.977s-1.2.352-1.93.352c-1.07 0-1.93-.223-2.58-.67s-1.04-1.078-1.17-1.881l2.01-.193c.09.394.28.691.58.892.29.201.68.301 1.15.301.49 0 .88-.1 1.18-.301s.45-.449.45-.744c0-.25-.1-.456-.29-.619s-.49-.288-.89-.375l-1.49-.312c-.83-.174-1.45-.468-1.85-.881-.41-.417-.61-.943-.6-1.58-.01-.538.14-1.004.44-1.398s.71-.705 1.24-.921 1.15-.329 1.85-.329c1.02 0 1.82.218 2.41.653s.96 1.025 1.1 1.767z"/></g></g><defs><filter id="A" x="518.051" y="43.482" width="77.4" height="30.129" filterUnits="userSpaceOnUse" class="C"><feFlood result="A" class="D"/><feColorMatrix in="SourceAlpha" values="0 0 0 0 0 0 0 0 0 0 0 0 0 0 0 0 0 0 127 0" result="B"/><feOffset dx="0.959897" dy="1.91979"/><feGaussianBlur stdDeviation="1.92"/><feComposite in2="B" operator="out"/><feColorMatrix values="0 0 0 0 0 0 0 0 0 0 0 0 0 0 0 0 0 0 0.2 0"/><feBlend in2="A"/><feBlend in="SourceGraphic"/></filter><filter id="B" x="1466.19" y="13.651" width="175.208" height="67.781" filterUnits="userSpaceOnUse" class="C"><feFlood result="A" class="D"/><feColorMatrix in="SourceAlpha" values="0 0 0 0 0 0 0 0 0 0 0 0 0 0 0 0 0 0 127 0" result="B"/><feOffset dx="3.54167" dy="3.54167"/><feGaussianBlur stdDeviation="4.427"/><feComposite in2="B" operator="out"/><feColorMatrix values="0 0 0 0 0 0 0 0 0 0 0 0 0 0 0 0 0 0 0.2 0"/><feBlend in2="A"/><feBlend in="SourceGraphic"/></filter><filter id="C" x="1492.98" y="37.205" width="116.759" height="15.971" filterUnits="userSpaceOnUse" class="C"><feFlood result="A" class="D"/><feColorMatrix in="SourceAlpha" values="0 0 0 0 0 0 0 0 0 0 0 0 0 0 0 0 0 0 127 0" result="B"/><feOffset dx="1" dy="1"/><feGaussianBlur stdDeviation="1"/><feComposite in2="B" operator="out"/><feColorMatrix values="0 0 0 0 0 0 0 0 0 0 0 0 0 0 0 0 0 0 0.25 0"/><feBlend in2="A"/><feBlend in="SourceGraphic"/></filter><linearGradient id="D" x1="0" y1="44" x2="1720" y2="44" href="#J"><stop stop-color="#130340"/><stop offset=".505" stop-color="#3f1787"/><stop offset="1" stop-color="#130340"/></linearGradient><radialGradient id="E" cx="0" cy="0" r="1" gradientTransform="translate(554.358 41.3991) scale(53.1345 64.8339)" href="#J"><stop offset=".095" stop-color="#311171"/><stop offset=".239" stop-color="#4b2499"/><stop offset=".716" stop-color="#280d64"/><stop offset=".777" stop-color="#1e005d"/></radialGradient><radialGradient id="F" cx="0" cy="0" r="1" gradientTransform="matrix(28.2401 -28.7183 2.53149 2.48819 530.743 57.0569)" href="#J"><stop/><stop offset=".563" stop-opacity="0"/></radialGradient><radialGradient id="G" cx="0" cy="0" r="1" gradientTransform="translate(355.549 9.10577) scale(57.5407 85.6861)" href="#J"><stop offset=".095" stop-color="#311171"/><stop offset=".239" stop-color="#4b2499"/><stop offset=".716" stop-color="#280d64"/><stop offset=".777" stop-color="#1e005d"/></radialGradient><clipPath id="H"><path transform="matrix(.727136 .686494 -.686494 .727136 550.52 36.5144)" d="M0 0h3.496v49.627H0z" class="B"/></clipPath><clipPath id="I"><path transform="translate(1120.5 34)" d="M0 0h20v20H0z" class="B"/></clipPath><linearGradient id="J" gradientUnits="userSpaceOnUse"/></defs></svg>