<svg xmlns="http://www.w3.org/2000/svg" width="172" height="104" fill="none" xmlns:v="https://vecta.io/nano"><style><![CDATA[.B{fill:#58707f}.C{fill:#fff}.D{stroke:#58707f}.E{stroke-width:1.433}.F{fill:#9fabb4}]]></style><rect x=".6" y=".6" width="170.8" height="102.8" rx="3.4" class="C"/><rect x=".6" y=".6" width="170.8" height="102.8" rx="3.4" stroke="#8796a1" stroke-width="1.2"/><rect x="15.037" y="8.717" width="141.567" height="48.567" rx="2.15" class="C D E"/><g clip-path="url(#D)" class="B"><path d="M112.68 13.665c.052.116.145.199.255.241s.235.042.35-.01c.232-.103.335-.374.232-.605l-.374-.837a.46.46 0 0 0-.605-.232.46.46 0 0 0-.232.605l.374.837zm-.841 1.76c.09-.236-.043-.462-.28-.553l-.856-.327c-.236-.09-.486-.011-.577.225s.043.462.28.553l.856.328c.236.091.486.011.577-.225zm3.551-1.586c.236.091.462-.043.553-.279l.327-.856c.09-.236.011-.486-.225-.577s-.463.043-.553.279l-.328.856c-.09.236-.011.486.226.577zm1.783 1.688a.46.46 0 0 0 .351-.01l.837-.374c.231-.103.334-.374.231-.605a.46.46 0 0 0-.605-.231l-.837.374a.46.46 0 0 0 .023.847zm-1.947-1.26c-1.18-.451-2.508.142-2.959 1.322s.141 2.508 1.321 2.959 2.508-.142 2.96-1.322-.142-2.508-1.322-2.959zm-3.935 3.03l-.837.374a.46.46 0 0 0-.232.605c.052.116.145.199.255.241s.235.042.351-.01l.836-.374a.46.46 0 0 0 .232-.605.46.46 0 0 0-.605-.232h0zm4.843 1.853a.46.46 0 0 0-.605-.232.46.46 0 0 0-.232.605l.374.837c.052.116.145.199.255.241a.46.46 0 0 0 .582-.615l-.374-.837zm2.275-1.658l-.856-.328c-.237-.09-.487-.011-.577.225s.042.462.279.553l.856.328c.237.091.487.011.577-.225s-.043-.462-.279-.553z"/><path d="M113.425 18.976c-.237-.09-.463.043-.553.279l-.328.856c-.09.236-.011.486.226.577s.462-.043.553-.279l.327-.856c.091-.236.011-.486-.225-.577z"/></g><rect x="23.32" y="34.81" width="14.333" height="2.15" rx="1.075" class="F"/><rect x="39.087" y="34.81" width="14.333" height="2.15" rx="1.075" class="B"/><path d="M105.439 27.644c1.363-3.708 3.837-6.909 7.085-9.17S119.64 15 123.603 15s7.831 1.213 11.08 3.474 5.722 5.462 7.085 9.17" stroke-width="2.15" stroke-miterlimit="10" stroke-linecap="round" class="D"/><rect x="100.437" y="30.511" width="10.033" height="2.15" rx="1.075" class="F"/><rect x="98.287" y="34.094" width="14.333" height="2.15" rx="1.075" class="B"/><rect x="136.27" y="30.511" width="10.033" height="2.15" rx="1.075" class="F"/><g class="B"><rect x="134.12" y="34.094" width="14.333" height="2.15" rx="1.075"/><path d="M45.063 22.133h1.283a1.28 1.28 0 0 0 .649-.102c.207-.091.395-.235.55-.422.27-.412.405-.928.379-1.45.017-.49-.117-.97-.379-1.35a1.47 1.47 0 0 0-.523-.395 1.26 1.26 0 0 0-.613-.105c-.392-.011-.774.149-1.073.45-.137.154-.245.34-.318.547s-.108.429-.103.653h-2.209a3.76 3.76 0 0 1 .239-1.499c.179-.47.451-.881.792-1.201.738-.725 1.673-1.107 2.63-1.075 1.016-.066 2.017.306 2.819 1.05a3.67 3.67 0 0 1 .773 1.315c.171.502.245 1.043.215 1.584a3.4 3.4 0 0 1-.463 1.725c-.32.558-.765.999-1.283 1.275.581.228 1.084.675 1.431 1.275.339.579.516 1.27.505 1.974.025.575-.065 1.148-.263 1.674s-.497.988-.873 1.35c-.83.758-1.857 1.147-2.904 1.1-.97.038-1.922-.324-2.693-1.025a3.27 3.27 0 0 1-.866-1.294 3.87 3.87 0 0 1-.229-1.63h2.104c-.007.247.03.494.11.722a1.76 1.76 0 0 0 .353.603c.32.352.743.54 1.178.525a1.39 1.39 0 0 0 .67-.117c.214-.095.409-.242.571-.433a1.94 1.94 0 0 0 .364-.665 2.18 2.18 0 0 0 .099-.784 2.18 2.18 0 0 0-.054-.859 1.94 1.94 0 0 0-.376-.737c-.172-.207-.383-.363-.616-.455s-.48-.117-.722-.074h-1.284l.126-2.15zm14.581 8.173h-7.722v-1.825l3.661-4.849a11.63 11.63 0 0 0 1.136-1.9c.203-.438.318-.925.337-1.425.013-.524-.128-1.037-.4-1.45-.133-.188-.301-.336-.491-.431s-.397-.136-.603-.118a1.18 1.18 0 0 0-.67.142c-.21.114-.392.288-.529.508-.278.522-.418 1.132-.4 1.75h-2.209a5.07 5.07 0 0 1 .228-1.723 4.52 4.52 0 0 1 .782-1.476 3.73 3.73 0 0 1 1.29-1.021c.486-.228 1.007-.332 1.529-.304 1.007-.069 1.997.335 2.756 1.125a4.02 4.02 0 0 1 .767 1.373c.171.517.246 1.072.221 1.627.013.822-.177 1.63-.547 2.325a24.24 24.24 0 0 1-1.873 2.824l-2.104 2.699h4.839v2.149zm3.025-12.439a1.3 1.3 0 0 1 .21-.775c.077-.1.171-.179.277-.231a.67.67 0 0 1 .333-.069.7.7 0 0 1 .344.066.81.81 0 0 1 .287.234 1.3 1.3 0 0 1 .21.775 1.27 1.27 0 0 1-.21.775.8.8 0 0 1-.277.231.67.67 0 0 1-.333.069.69.69 0 0 1-.344-.066.81.81 0 0 1-.287-.234 1.27 1.27 0 0 1-.21-.775zm.463 0a1.18 1.18 0 0 0 0 .45.35.35 0 0 0 .127.137c.052.031.11.044.168.038a.22.22 0 0 0 .15-.04c.045-.031.081-.079.103-.135.075-.133.111-.291.105-.45a1.03 1.03 0 0 0-.063-.375.3.3 0 0 0-.114-.138c-.049-.031-.105-.044-.16-.037a.22.22 0 0 0-.15.04c-.045.031-.081.079-.103.135a1 1 0 0 0-.105.45l.042-.075zm4.798 2.174a1.94 1.94 0 0 1-.089.675 1.71 1.71 0 0 1-.311.575c-.326.314-.738.474-1.157.45a1.29 1.29 0 0 1-.655-.125 1.52 1.52 0 0 1-.544-.45c-.157-.191-.278-.419-.358-.668s-.115-.516-.105-.782v-.95c-.02-.534.139-1.055.442-1.45.326-.339.745-.526 1.178-.526s.852.187 1.178.526c.145.157.258.351.331.568s.104.45.09.682h-.8a1.28 1.28 0 0 0-.189-.75c-.082-.09-.178-.158-.283-.201a.68.68 0 0 0-.327-.049c-.104.019-.203.064-.29.133a.8.8 0 0 0-.215.267 1.77 1.77 0 0 0-.21.925v.95a1.59 1.59 0 0 0 .232.925.8.8 0 0 0 .27.261.66.66 0 0 0 .34.089c.105.012.21-.004.308-.047a.71.71 0 0 0 .26-.202 1.13 1.13 0 0 0 .189-.725l.715-.1zm4.96-2.174a1.3 1.3 0 0 1 .21-.775.8.8 0 0 1 .277-.231.67.67 0 0 1 .333-.069.7.7 0 0 1 .344.066.81.81 0 0 1 .287.234 1.3 1.3 0 0 1 .21.775 1.27 1.27 0 0 1-.21.775c-.077.1-.171.179-.277.231a.67.67 0 0 1-.333.069.69.69 0 0 1-.344-.066.81.81 0 0 1-.288-.234 1.27 1.27 0 0 1-.21-.775zm.463 0a1.18 1.18 0 0 0 0 .45.35.35 0 0 0 .127.137c.052.031.11.044.168.038a.22.22 0 0 0 .15-.04.29.29 0 0 0 .103-.135.86.86 0 0 0 .105-.45 1.02 1.02 0 0 0-.063-.375.3.3 0 0 0-.114-.138c-.049-.031-.105-.044-.16-.037a.22.22 0 0 0-.15.04c-.045.031-.081.079-.103.135a1 1 0 0 0-.105.45l.042-.075zm4.271 1.848h-1.621v2.075h-.811v-5h2.796v.775h-1.986v1.375h1.702l-.081.775z"/><rect x="70.333" y="16.79" width=".639" height="5.11" rx=".319"/><path d="M40.52 26.877c-.001.974-.388 1.908-1.076 2.597a3.68 3.68 0 0 1-2.596 1.078h-9.423c-1.098-.028-2.142-.484-2.909-1.271s-1.196-1.842-1.196-2.941.429-2.154 1.196-2.941 1.811-1.242 2.909-1.27h.116c.195-.783.623-1.489 1.226-2.025s1.355-.878 2.155-.98 1.614.04 2.332.408 1.309.944 1.695 1.653c.2-.047.404-.07.608-.07a2.67 2.67 0 0 1 2.639 2.355 3.68 3.68 0 0 1 1.683 1.348c.414.607.637 1.324.64 2.059h0z"/></g><rect x="23.037" y="41.217" width="124.567" height="9.567" rx=".717" class="D E"/><g class="B"><path d="M83.887 40.7h1.433v10.5h-1.433z"/><rect x="27.27" y="44.467" width="2.867" height="2.867" rx="1.433"/><rect x="31.57" y="44.825" width="11.467" height="2.15" rx="1.075"/><rect x="68.837" y="44.825" width="11.467" height="2.15" rx="1.075"/><rect x="88.903" y="44.467" width="2.867" height="2.867" rx="1.433"/><rect x="93.203" y="44.825" width="12.9" height="2.15" rx="1.075"/><rect x="131.903" y="44.825" width="11.467" height="2.15" rx="1.075"/></g><path d="M15.753 65.867c0-1.583 1.283-2.867 2.867-2.867h134.733c1.584 0 2.867 1.284 2.867 2.867V75.9H15.753V65.867z" fill="#dee2e5"/><path fill="#e6eaec" d="M15.753 85H156.22v9.9H15.753z"/><g class="D E"><rect x="15.037" y="63.717" width="141.9" height="31.533" rx="2.15"/><rect x="40.837" y="63.717" width="41.567" height="31.533" rx=".717"/></g><mask id="A" class="C"><path d="M40.12 65.867c0-1.351 0-2.027.42-2.447s1.095-.42 2.447-.42h15.767c1.351 0 2.027 0 2.447.42s.42 1.095.42 2.447V93.1c0 1.351 0 2.027-.42 2.447s-1.096.42-2.447.42H42.987c-1.351 0-2.027 0-2.447-.42s-.42-1.095-.42-2.447V65.867z"/></mask><path d="M40.12 63h21.5-21.5zm21.5 32.967h-21.5 21.5zm-21.5 0V63v32.967zM60.187 63c1.583 0 2.867 1.284 2.867 2.867V93.1c0 1.583-1.284 2.867-2.867 2.867v-1.433-30.1V63z" mask="url(#A)" class="B"/><mask id="B" class="C"><path d="M81.687 65.867c0-1.351 0-2.027.42-2.447s1.096-.42 2.447-.42h19.589c1.351 0 2.027 0 2.447.42s.42 1.095.42 2.447V93.1c0 1.351 0 2.027-.42 2.447s-1.096.42-2.447.42H84.553c-1.351 0-2.027 0-2.447-.42s-.42-1.095-.42-2.447V65.867z"/></mask><path d="M81.687 63h25.322-25.322zm25.322 32.967H81.687h25.322zm-25.322 0V63v32.967zM105.575 63c1.584 0 2.867 1.284 2.867 2.867V93.1c0 1.583-1.283 2.867-2.867 2.867v-1.433-30.1V63z" mask="url(#B)" class="B"/><mask id="C" class="C"><path d="M106.053 65.867c0-1.351 0-2.027.42-2.447s1.096-.42 2.447-.42h19.589c1.351 0 2.027 0 2.447.42s.419 1.095.419 2.447V93.1c0 1.351 0 2.027-.419 2.447s-1.096.42-2.447.42H108.92c-1.351 0-2.027 0-2.447-.42s-.42-1.095-.42-2.447V65.867z"/></mask><g class="B"><path d="M106.053 63h25.322-25.322zm25.322 32.967h-25.322 25.322zm-25.322 0V63v32.967zM129.942 63a2.87 2.87 0 0 1 2.867 2.867V93.1a2.87 2.87 0 0 1-2.867 2.867v-1.433-30.1V63z" mask="url(#C)"/><rect x="43.703" y="78.767" width="2.867" height="2.867" rx="1.433"/><rect x="48.003" y="79.125" width="8.6" height="2.15" rx="1.075"/><rect x="63.77" y="79.125" width="11.467" height="2.15" rx="1.075"/><rect x="85.27" y="79.125" width="11.467" height="2.15" rx="1.075"/><rect x="108.92" y="79.125" width="11.467" height="2.15" rx="1.075"/><rect x="134.003" y="79.125" width="12.9" height="2.15" rx="1.075"/><rect x="150.684" y="78.606" width="1.433" height="2.867" rx=".717" transform="rotate(20.792 150.684 78.606)"/><rect x="43.703" y="88.8" width="2.867" height="2.867" rx="1.433"/><rect x="48.003" y="89.158" width="8.6" height="2.15" rx="1.075"/><rect x="63.77" y="89.158" width="11.467" height="2.15" rx="1.075"/><rect x="85.27" y="89.158" width="14.333" height="2.15" rx="1.075"/><rect x="108.92" y="89.158" width="14.333" height="2.15" rx="1.075"/><rect x="134.003" y="89.158" width="12.9" height="2.15" rx="1.075"/><rect x="150.684" y="88.639" width="1.433" height="2.867" rx=".717" transform="rotate(20.792 150.684 88.639)"/><path fill-rule="evenodd" d="M14.32 84.5h141.9v1.433H14.32V84.5z"/><path d="M14.32 74.467h141.9V75.9H14.32z"/><path d="M40.12 63h1.433v31.533H40.12z"/><rect x="18.62" y="68.017" width="14.333" height="2.867" rx="1.433"/><rect x="45.853" y="68.017" width="10.033" height="2.867" rx="1.433"/><rect x="65.92" y="68.017" width="10.033" height="2.867" rx="1.433"/><rect x="18.62" y="78.767" width="11.467" height="2.867" rx="1.433"/><rect x="18.62" y="88.8" width="17.2" height="2.867" rx="1.433"/><rect x="85.27" y="68.017" width="15.767" height="2.867" rx="1.433"/><rect x="109.164" y="68.017" width="14.333" height="2.867" rx="1.433"/><rect x="133.53" y="68.017" width="14.333" height="2.867" rx="1.433"/></g><defs><clipPath id="D"><path transform="matrix(.934004 .357261 -.357261 .934004 111.523 9.95093)" d="M0 0h10v10H0z" class="C"/></clipPath></defs></svg>