<svg xmlns="http://www.w3.org/2000/svg" width="172" height="104" fill="none" xmlns:v="https://vecta.io/nano"><rect x=".75" y=".75" width="170.5" height="102.5" rx="3.25" fill="#fff"/><rect x=".75" y=".75" width="170.5" height="102.5" rx="3.25" stroke="#8796a1" stroke-width="1.5"/><path fill="#dee2e5" d="M15.767 10.433h140.467v14.333H15.767z"/><g stroke="#58707f" stroke-width="1.433"><rect x="15.05" y="9.717" width="141.9" height="44.433" rx="2.15"/><rect x="72.383" y="24.05" width="41.567" height="30.1" rx=".717"/></g><g fill="#58707f"><rect x="75.25" y="27.633" width="2.867" height="2.867" rx="1.433"/><rect x="79.55" y="27.992" width="11.467" height="2.15" rx="1.075"/><rect x="99.617" y="27.992" width="11.467" height="2.15" rx="1.075"/><rect x="118.25" y="27.633" width="2.867" height="2.867" rx="1.433"/><rect x="122.55" y="27.992" width="11.467" height="2.15" rx="1.075"/><rect x="142.617" y="27.992" width="11.467" height="2.15" rx="1.075"/><path fill-rule="evenodd" d="M71.667 33.367h84.566V34.8H71.667v-1.433z"/><rect x="75.25" y="37.667" width="2.867" height="2.867" rx="1.433"/><rect x="79.55" y="38.025" width="8.6" height="2.15" rx="1.075"/><rect x="96.75" y="38.025" width="14.333" height="2.15" rx="1.075"/><rect x="118.25" y="37.667" width="2.867" height="2.867" rx="1.433"/><rect x="122.55" y="38.025" width="8.6" height="2.15" rx="1.075"/><rect x="139.75" y="38.025" width="14.333" height="2.15" rx="1.075"/><path fill-rule="evenodd" d="M71.667 43.4h84.566v1.433H71.667V43.4z"/><rect x="75.25" y="47.7" width="2.867" height="2.867" rx="1.433"/><rect x="79.55" y="48.058" width="11.467" height="2.15" rx="1.075"/><rect x="99.617" y="48.058" width="11.467" height="2.15" rx="1.075"/><rect x="118.25" y="47.7" width="2.867" height="2.867" rx="1.433"/><rect x="122.55" y="48.058" width="11.467" height="2.15" rx="1.075"/><rect x="142.617" y="48.058" width="11.467" height="2.15" rx="1.075"/><path d="M14.333 23.333h141.9v1.433h-141.9z"/><path d="M71.667 9H73.1v14.333h-1.433z"/><rect x="31.533" y="15.45" width="22.933" height="2.867" rx="1.433"/><rect x="103.917" y="15.45" width="22.933" height="2.867" rx="1.433"/><path d="M43.243 37.89h1.284c.22.023.442-.012.649-.102s.395-.235.55-.422c.27-.412.405-.928.379-1.45.017-.49-.117-.97-.379-1.35a1.47 1.47 0 0 0-.523-.395 1.26 1.26 0 0 0-.613-.105c-.392-.011-.774.149-1.073.45-.137.154-.245.34-.318.547a1.87 1.87 0 0 0-.103.653h-2.209a3.74 3.74 0 0 1 .239-1.499 3.22 3.22 0 0 1 .792-1.201c.738-.725 1.673-1.107 2.63-1.075 1.016-.066 2.017.306 2.819 1.05.338.364.602.813.773 1.315s.245 1.043.215 1.584a3.4 3.4 0 0 1-.463 1.725c-.32.558-.765.999-1.283 1.275.581.227 1.084.675 1.431 1.275a3.81 3.81 0 0 1 .505 1.975c.025.575-.065 1.148-.263 1.674s-.497.988-.873 1.35c-.83.758-1.857 1.147-2.904 1.1-.97.038-1.922-.324-2.693-1.025-.376-.337-.674-.782-.865-1.294a3.87 3.87 0 0 1-.229-1.63h2.104c-.007.247.03.494.11.722s.2.434.353.602c.32.352.743.54 1.178.525a1.4 1.4 0 0 0 .67-.117c.214-.094.409-.242.571-.433a1.94 1.94 0 0 0 .363-.665 2.2 2.2 0 0 0 .099-.784 2.18 2.18 0 0 0-.054-.859 1.94 1.94 0 0 0-.376-.737c-.172-.207-.383-.363-.616-.455s-.48-.117-.722-.074h-1.283l.126-2.149zm14.581 8.173h-7.722v-1.825l3.661-4.849a11.72 11.72 0 0 0 1.136-1.9 3.72 3.72 0 0 0 .337-1.425 2.54 2.54 0 0 0-.4-1.45c-.133-.188-.301-.336-.491-.431a1.12 1.12 0 0 0-.603-.118 1.18 1.18 0 0 0-.67.142c-.21.114-.392.288-.529.508-.278.522-.418 1.132-.4 1.75h-2.209a5.07 5.07 0 0 1 .228-1.723 4.52 4.52 0 0 1 .782-1.476c.365-.445.804-.793 1.29-1.021s1.007-.332 1.529-.304c1.007-.069 1.997.335 2.756 1.125a4.02 4.02 0 0 1 .767 1.373 4.57 4.57 0 0 1 .221 1.627c.013.822-.177 1.63-.547 2.325a24.23 24.23 0 0 1-1.873 2.824l-2.104 2.699h4.839v2.15zm2.378-12.44a1.3 1.3 0 0 1 .21-.775c.077-.1.171-.179.277-.231a.67.67 0 0 1 .333-.069.69.69 0 0 1 .344.066.81.81 0 0 1 .288.234 1.3 1.3 0 0 1 .21.775 1.27 1.27 0 0 1-.21.775.8.8 0 0 1-.277.231.67.67 0 0 1-.333.069.69.69 0 0 1-.344-.066.81.81 0 0 1-.287-.234 1.27 1.27 0 0 1-.21-.775zm.463 0a1.18 1.18 0 0 0 0 .45c.031.059.075.106.127.137s.11.044.168.038a.22.22 0 0 0 .15-.04c.045-.031.081-.079.103-.135.075-.133.111-.29.105-.45a1.03 1.03 0 0 0-.063-.375.3.3 0 0 0-.114-.138c-.049-.031-.105-.044-.16-.037a.22.22 0 0 0-.15.04c-.045.031-.081.079-.103.135a1 1 0 0 0-.105.45l.042-.075zm4.797 2.174a1.94 1.94 0 0 1-.088.675 1.71 1.71 0 0 1-.311.575c-.326.314-.738.474-1.157.45a1.29 1.29 0 0 1-.655-.125 1.52 1.52 0 0 1-.545-.45c-.156-.191-.278-.418-.358-.668s-.115-.515-.105-.782v-.95c-.019-.534.139-1.055.442-1.45.326-.339.745-.526 1.178-.526s.852.187 1.178.526c.145.157.258.351.331.568s.104.45.09.682h-.799c.014-.269-.053-.535-.189-.75-.082-.09-.178-.158-.283-.201a.68.68 0 0 0-.327-.049c-.104.019-.203.064-.29.133a.8.8 0 0 0-.215.267 1.77 1.77 0 0 0-.21.925v.95a1.59 1.59 0 0 0 .232.925.8.8 0 0 0 .27.261.66.66 0 0 0 .34.089c.104.012.21-.004.308-.047a.7.7 0 0 0 .26-.202 1.13 1.13 0 0 0 .189-.725l.715-.1zm-5.26 6.529a1.3 1.3 0 0 1 .21-.775.8.8 0 0 1 .277-.231.67.67 0 0 1 .333-.069.69.69 0 0 1 .344.066.81.81 0 0 1 .287.234 1.3 1.3 0 0 1 .21.775 1.27 1.27 0 0 1-.21.775.8.8 0 0 1-.277.231.67.67 0 0 1-.333.069.69.69 0 0 1-.344-.066.81.81 0 0 1-.287-.234 1.27 1.27 0 0 1-.21-.775zm.463 0a1.18 1.18 0 0 0 0 .45c.031.059.075.106.127.137s.11.044.168.038c.052.005.104-.008.15-.04s.081-.079.103-.135c.075-.133.111-.291.105-.45a1.02 1.02 0 0 0-.063-.375.3.3 0 0 0-.114-.138.24.24 0 0 0-.16-.037.22.22 0 0 0-.15.04c-.045.031-.081.079-.103.135-.069.136-.105.291-.105.45l.042-.075zm4.27 1.848h-1.621v2.075h-.81V41.25H65.3v.775h-1.986V43.4h1.702l-.081.775zM38.7 42.633c-.001.974-.388 1.908-1.076 2.596a3.68 3.68 0 0 1-2.596 1.078h-9.423a4.21 4.21 0 0 1-4.106-4.211c0-1.099.429-2.154 1.196-2.941a4.21 4.21 0 0 1 2.909-1.27h.116c.195-.783.623-1.489 1.226-2.025a4.01 4.01 0 0 1 2.155-.98c.8-.102 1.614.04 2.332.408s1.309.944 1.695 1.653c.2-.047.404-.07.608-.07a2.67 2.67 0 0 1 2.639 2.355 3.68 3.68 0 0 1 2.323 3.407h0z"/></g><g fill="#dee2e5"><path d="M15.767 73.5h25.8v20.067h-25.8z"/><path d="M15.767 64.9c0-1.583 1.284-2.867 2.867-2.867h134.734c1.583 0 2.866 1.284 2.866 2.867v10.033H15.767V64.9z"/></g><g stroke="#58707f" stroke-width="1.433"><rect x="15.05" y="62.75" width="141.9" height="31.533" rx="2.15"/><rect x="40.85" y="62.75" width="41.567" height="31.533" rx=".717"/></g><mask id="A" fill="#fff"><path d="M40.133 64.9c0-1.351 0-2.027.42-2.447s1.096-.42 2.447-.42h15.767c1.351 0 2.027 0 2.447.42s.42 1.096.42 2.447v27.233c0 1.351 0 2.027-.42 2.447s-1.096.42-2.447.42H43c-1.351 0-2.027 0-2.447-.42s-.42-1.096-.42-2.447V64.9z"/></mask><path d="M40.133 62.033h21.5-21.5zM61.633 95h-21.5 21.5zm-21.5 0V62.033 95zM60.2 62.033c1.583 0 2.867 1.284 2.867 2.867v27.233c0 1.583-1.283 2.867-2.867 2.867v-1.433-30.1-1.433z" fill="#58707f" mask="url(#A)"/><mask id="B" fill="#fff"><path d="M81.7 64.9c0-1.351 0-2.027.42-2.447s1.096-.42 2.447-.42h19.588c1.352 0 2.027 0 2.447.42s.42 1.096.42 2.447v27.233c0 1.351 0 2.027-.42 2.447s-1.095.42-2.447.42H84.567c-1.351 0-2.027 0-2.447-.42s-.42-1.096-.42-2.447V64.9z"/></mask><path d="M81.7 62.033h25.322H81.7zM107.022 95H81.7h25.322zM81.7 95V62.033 95zm23.889-32.967c1.583 0 2.866 1.284 2.866 2.867v27.233c0 1.583-1.283 2.867-2.866 2.867v-1.433-30.1-1.433z" fill="#58707f" mask="url(#B)"/><mask id="C" fill="#fff"><path d="M106.066 64.9c0-1.351 0-2.027.42-2.447s1.096-.42 2.447-.42h19.589c1.351 0 2.027 0 2.447.42s.42 1.096.42 2.447v27.233c0 1.351 0 2.027-.42 2.447s-1.096.42-2.447.42h-19.589c-1.351 0-2.027 0-2.447-.42s-.42-1.096-.42-2.447V64.9z"/></mask><g fill="#58707f"><path d="M106.066 62.033h25.323-25.323zM131.389 95h-25.323 25.323zm-25.323 0V62.033 95zm23.889-32.967c1.584 0 2.867 1.284 2.867 2.867v27.233c0 1.583-1.283 2.867-2.867 2.867v-1.433-30.1-1.433z" mask="url(#C)"/><rect x="43.717" y="77.8" width="2.867" height="2.867" rx="1.433"/><rect x="48.017" y="78.158" width="8.6" height="2.15" rx="1.075"/><rect x="63.783" y="78.158" width="11.467" height="2.15" rx="1.075"/><rect x="85.283" y="78.158" width="11.467" height="2.15" rx="1.075"/><rect x="108.933" y="78.158" width="11.467" height="2.15" rx="1.075"/><rect x="134.016" y="78.158" width="12.9" height="2.15" rx="1.075"/><rect x="150.697" y="77.639" width="1.433" height="2.867" rx=".717" transform="rotate(20.792 150.697 77.639)"/><rect x="43.717" y="87.833" width="2.867" height="2.867" rx="1.433"/><rect x="48.017" y="88.192" width="8.6" height="2.15" rx="1.075"/><rect x="63.783" y="88.192" width="11.467" height="2.15" rx="1.075"/><rect x="85.283" y="88.192" width="14.333" height="2.15" rx="1.075"/><rect x="108.933" y="88.192" width="14.333" height="2.15" rx="1.075"/><rect x="134.016" y="88.192" width="12.9" height="2.15" rx="1.075"/><rect x="150.697" y="87.672" width="1.433" height="2.867" rx=".717" transform="rotate(20.792 150.697 87.672)"/><path fill-rule="evenodd" d="M14.333 83.533h141.9v1.433h-141.9v-1.433z"/><path d="M14.333 73.5h141.9v1.433h-141.9z"/><path d="M40.133 62.033h1.433v31.533h-1.433z"/><rect x="18.633" y="67.05" width="14.333" height="2.867" rx="1.433"/><rect x="45.867" y="67.05" width="10.033" height="2.867" rx="1.433"/><rect x="65.933" y="67.05" width="10.033" height="2.867" rx="1.433"/><rect x="18.633" y="77.8" width="11.467" height="2.867" rx="1.433"/><rect x="18.633" y="87.833" width="17.2" height="2.867" rx="1.433"/><rect x="85.283" y="67.05" width="15.767" height="2.867" rx="1.433"/><rect x="109.177" y="67.05" width="14.333" height="2.867" rx="1.433"/><rect x="133.543" y="67.05" width="14.333" height="2.867" rx="1.433"/></g></svg>