<svg xmlns="http://www.w3.org/2000/svg" width="172" height="104" fill="none" xmlns:v="https://vecta.io/nano"><style><![CDATA[.B{fill:#58707f}.C{fill:#fff}.D{fill:#9fabb4}.E{stroke:#58707f}.F{fill-rule:evenodd}]]></style><rect x=".6" y=".6" width="170.8" height="102.8" rx="2.4" class="C"/><rect x=".6" y=".6" width="170.8" height="102.8" rx="2.4" stroke="#8796a1" stroke-width="1.2"/><rect x="8.5" y="8.5" width="75" height="36" rx="2.367" class="C E"/><rect x="12" y="12" width="12.9" height="2.15" rx="1.075" class="B"/><rect x="12" y="15.583" width="8.6" height="2.15" rx="1.075" class="D"/><rect x="62.8" y="12" width="17.2" height="2.15" rx="1.075" class="B"/><rect x="68.533" y="15.583" width="11.467" height="2.15" rx="1.075" class="D"/><path d="M26.822 25.014h.875a.87.87 0 0 0 .443-.07 1.02 1.02 0 0 0 .375-.288 1.66 1.66 0 0 0 .258-.988c.012-.334-.08-.661-.258-.92a1 1 0 0 0-.356-.269.86.86 0 0 0-.418-.071.99.99 0 0 0-.732.307c-.093.105-.167.232-.216.373s-.073.293-.07.445h-1.506a2.56 2.56 0 0 1 .163-1.022 2.17 2.17 0 0 1 .54-.818c.503-.494 1.14-.754 1.793-.733.692-.045 1.375.209 1.922.716a2.5 2.5 0 0 1 .527.897 2.87 2.87 0 0 1 .147 1.08c-.001.421-.111.832-.316 1.176-.218.38-.521.681-.875.869.396.155.739.46.975.869a2.59 2.59 0 0 1 .344 1.346 2.9 2.9 0 0 1-.179 1.141c-.135.358-.339.674-.596.92-.566.517-1.266.782-1.979.75-.662.026-1.31-.221-1.836-.699a2.23 2.23 0 0 1-.59-.882 2.63 2.63 0 0 1-.156-1.111h1.434a1.37 1.37 0 0 0 .075.492 1.2 1.2 0 0 0 .241.411c.218.24.506.368.803.358a.94.94 0 0 0 .457-.08c.146-.065.278-.165.389-.295a1.31 1.31 0 0 0 .248-.454 1.5 1.5 0 0 0 .068-.535 1.48 1.48 0 0 0-.037-.585 1.33 1.33 0 0 0-.256-.502 1.05 1.05 0 0 0-.42-.31.9.9 0 0 0-.492-.051h-.875l.086-1.465zm9.94 5.571h-5.264v-1.244l2.496-3.305a7.99 7.99 0 0 0 .774-1.295 2.54 2.54 0 0 0 .23-.971c.009-.357-.087-.706-.273-.988a.91.91 0 0 0-.335-.294c-.13-.065-.27-.093-.411-.081a.8.8 0 0 0-.457.097c-.143.078-.267.197-.361.346a2.4 2.4 0 0 0-.272 1.193h-1.506a3.46 3.46 0 0 1 .155-1.175 3.07 3.07 0 0 1 .533-1.006c.249-.303.548-.54.88-.696a2.17 2.17 0 0 1 1.042-.207c.687-.047 1.361.229 1.879.767a2.74 2.74 0 0 1 .523.936c.116.353.168.731.151 1.109a3.28 3.28 0 0 1-.373 1.585 16.47 16.47 0 0 1-1.277 1.925l-1.434 1.84h3.299v1.465zm1.55-9.034a.73.73 0 0 1 .118-.435.45.45 0 0 1 .156-.13c.06-.03.123-.042.187-.039a.38.38 0 0 1 .193.037c.061.029.116.074.161.131a.73.73 0 0 1 .118.435.71.71 0 0 1-.118.435c-.043.056-.096.1-.155.129s-.123.042-.187.039a.38.38 0 0 1-.193-.037c-.061-.029-.116-.074-.161-.131a.71.71 0 0 1-.118-.435zm.26 0c-.016.083-.016.17 0 .253.017.033.042.059.071.077s.062.025.094.022c.029.003.059-.005.084-.022a.16.16 0 0 0 .058-.076.48.48 0 0 0 .059-.253.57.57 0 0 0-.035-.21c-.014-.033-.037-.06-.064-.078s-.059-.025-.09-.021c-.029-.003-.059.005-.084.022a.16.16 0 0 0-.058.076.56.56 0 0 0-.059.253l.024-.042zm2.693 1.221c.006.129-.011.258-.05.379a.96.96 0 0 1-.175.323c-.183.176-.414.266-.65.253a.72.72 0 0 1-.368-.07c-.117-.056-.221-.142-.306-.252a1.14 1.14 0 0 1-.201-.375 1.27 1.27 0 0 1-.059-.439v-.533a1.27 1.27 0 0 1 .248-.814.92.92 0 0 1 .662-.295c.244 0 .478.105.661.295a.89.89 0 0 1 .186.319 1.02 1.02 0 0 1 .051.383h-.449c.008-.151-.03-.3-.106-.421a.44.44 0 0 0-.159-.113c-.059-.024-.122-.034-.184-.027s-.114.036-.163.075a.45.45 0 0 0-.121.15 1 1 0 0 0-.118.519v.533a.89.89 0 0 0 .13.519.45.45 0 0 0 .152.146.37.37 0 0 0 .191.05c.059.007.118-.002.173-.027a.39.39 0 0 0 .146-.114c.079-.114.117-.26.106-.407l.402-.056z" class="B"/><g class="D"><path d="M44.049 21.551a.73.73 0 0 1 .118-.435c.043-.056.096-.1.155-.13a.37.37 0 0 1 .187-.039.38.38 0 0 1 .193.037c.061.029.116.074.161.131a.73.73 0 0 1 .118.435.71.71 0 0 1-.118.435c-.043.056-.096.1-.156.129s-.123.042-.187.039a.38.38 0 0 1-.193-.037c-.061-.029-.116-.074-.161-.131a.71.71 0 0 1-.118-.435zm.26 0c-.016.083-.016.17 0 .253.017.033.042.059.071.077s.062.025.094.022c.029.003.059-.005.084-.022a.16.16 0 0 0 .058-.076.48.48 0 0 0 .059-.253.57.57 0 0 0-.035-.21.17.17 0 0 0-.064-.078c-.028-.018-.059-.025-.09-.021-.029-.003-.059.005-.084.022a.16.16 0 0 0-.058.076.56.56 0 0 0-.059.253l.024-.042zm2.398 1.037h-.91v1.165h-.455v-2.806h1.569v.435h-1.115v.772h.955l-.046.435z"/><rect x="42.614" y="20.947" width=".359" height="2.869" rx=".179"/></g><g class="B"><path d="M23.725 28.248c-.001.664-.264 1.3-.734 1.77s-1.106.734-1.769.735h-6.423A2.87 2.87 0 0 1 12 27.882a2.87 2.87 0 0 1 2.799-2.871h.079a2.73 2.73 0 0 1 2.305-2.048 2.73 2.73 0 0 1 2.745 1.405c.136-.032.275-.048.415-.048a1.82 1.82 0 0 1 1.799 1.605 2.51 2.51 0 0 1 1.583 2.322h0z"/><rect x="62.8" y="23.49" width="17.2" height="2.15" rx="1.075"/></g><g class="D"><rect x="68.533" y="27.073" width="11.467" height="1.433" rx=".717"/><rect x="12.3" y="34.263" width="8.6" height="1.72" rx=".86"/></g><g class="B"><rect x="12.3" y="38.492" width="14.333" height="2.15" rx="1.075"/><rect x="28.067" y="38.134" width="2.867" height="2.867" rx="1.433"/></g><rect x="40.983" y="34.622" width="8.6" height="1.72" rx=".86" class="D"/><rect x="40.983" y="38.492" width="14.333" height="2.15" rx="1.075" class="B"/><rect x="65.367" y="34.622" width="8.6" height="1.72" rx=".86" class="D"/><g class="B"><rect x="65.367" y="38.492" width="14.333" height="2.15" rx="1.075"/><g class="F"><path d="M119.024 12.819h0zm14.352 1.528c0-.066.133-.066.133-.066.133-.066.199-.133.199-.199 0-.133 0-.266-.133-.332-.066-.066-.133-.066-.266-.133v-.066s0-.066.067-.066c.199 0 .332-.067.531-.067s.399-.199.532-.332c.066-.066.066-.133.133-.199s.066-.133 0-.199c-.067-.133-.067-.133.066-.199.2-.066.2-.133.067-.332v-.066l.066-.066c.199-.133.399-.199.665-.332l.93-.199c.066 0 .066-.066.133-.066v-.066c-.067 0-.067 0-.133-.066-.332 0-.665-.066-.997 0h-.332c-.067 0-.133 0-.133-.066a.51.51 0 0 0-.332-.133c-.598-.199-1.13-.266-1.661-.199-.266.066-.598.133-.864.066-.465-.066-.93 0-1.395.133h-.266-.2c-.332 0-.73 0-1.063.066-.664.066-1.395.066-2.059.266-.067 0-.133 0-.2.066-.199 0-.332.067-.531.067-.067 0-.2.066-.2.199 0 .066-.133.066-.133.066-.265.066-.598.066-.863.133h-.133c-.133.066-.266 0-.399.133.066.133.066.266.133.399 0 .066.066.066.133.066.133.066.332.133.465.066.332-.066.664 0 .93.066.399.066.598.399.532.797 0 .066-.067.133-.067.199s0 .133.067.133c.133 0 .199.066.332.066.066 0 .133.066.066.133h-.066c-.266 0-.332.066-.133.332 0 0 0 .066.067.066.066.066 0 .133-.067.133s-.133 0-.199.066c-.332.066-.532.332-.532.664s.067.664.133.997c0 .133.133.332.199.465s.133.199.333.199c.199-.066.332 0 .398.133l.133.133c.067.066.2.066.266 0 .199-.199.465-.332.532-.665 0-.066.066-.133.132-.133.2-.066.333-.266.399-.465.067-.066.133-.133.133-.199.066-.067.199-.133.266-.133.133 0 .266 0 .332-.066.133-.066.266.066.332 0h.067c.332-.066.664-.199.93-.465.133-.133.332-.266.531-.199h.133c.465-.066.931-.199 1.329-.332.266 0 .465-.066.532-.199zm-19.801 15.149a1.12 1.12 0 0 0-.664.199.8.8 0 0 0-.332.332v.133h.066c.133 0 .266-.066.332-.133a.74.74 0 0 1 .532 0c.133.067.266.067.332.133.199.067.399.133.532.266a.93.93 0 0 1 .199.266c0 .133.066.133.199.133s.266 0 .399.066h.266c.066 0 .133 0 .199-.066s.066-.199 0-.266-.199-.133-.266-.133c-.199-.133-.398-.199-.598-.399-.332-.266-.731-.399-1.129-.531.066 0 0 0-.067 0zm.598-16.81h.067c.199 0 .398 0 .598-.066.133-.066.265-.133.465-.066-.067.066-.2.133-.266.133s-.066.066-.133.066v.066c.067 0 .067.066.133.066a5.03 5.03 0 0 0 1.993 0c.133 0 .2-.066.266-.199 0-.066 0-.133-.066-.133h-.2c-.133-.133-.199-.133-.332-.066-.066.066-.133.066-.133.133-.066.066-.199.066-.266 0-.199-.133-.465-.133-.598-.332 0 0-.066-.067-.132-.067h-.266c-.399 0-.798.133-1.196.199h-.067c.067.199.067.199.133.266-.066 0-.066 0 0 0zm5.847-.266h-.133a.3.3 0 0 0-.332 0c-.066 0-.066.066-.066.066s0 .066.066.066c.067.066.067.066.133.066.133 0 .266 0 .332-.066h.067s-.067-.066-.067-.133z"/><path d="M120.087 12.619h0c.066 0 0-.066 0 0zm-4.452 18.738c.266.067.532.133.864.067.266-.067.465-.133.731-.133.066 0 .066 0 .133-.066v-.133c-.2-.199-.466-.199-.731-.332-.2.066-.399 0-.598 0-.067 0-.133.066-.067.133 0 .066.067.133.133.266-.133 0-.266.067-.399.067-.066 0-.066 0-.066.066-.133 0-.066.066 0 .066zm18.073-15.083c.133.066.266 0 .399-.067.199-.066.398-.133.598-.266.199 0 .332-.066.398-.199.067-.067.067-.133 0-.133-.133-.133-.199-.332-.465-.266h-.199c-.133 0-.199 0-.266.066-.133 0-.332-.066-.465 0s-.266 0-.399-.066a.41.41 0 0 0-.465.066c0 .133-.066.133-.066.266 0 .067.133.067.199.067h.133l.066.066c-.066.133 0 .266 0 .399.133 0 .333.067.532.067zm-14.618-3.522c.067-.066.067-.066.067-.133s-.067-.066-.133-.066c-.266-.066-.598 0-.798.199-.066-.133-.199-.199-.398-.199-.067 0-.067 0-.133.066 0 .066 0 .133.066.133.067.066.2.066.332.066h.133c.133.199.333.133.598.066.067 0 .133-.133.266-.133zm42.857 21.728c-.066-.133-.133-.266-.332-.266-.133.133-.133.266-.133.399-.066.332 0 .598.133.864.066.133.066.133.199.133.067 0 .133 0 .133-.066.266-.199.332-.332.199-.665l-.199-.399z"/><path d="M118.758 12.088c.133.133.332.133.465.199.133 0 .199 0 .266-.067s.066-.199 0-.199a1.24 1.24 0 0 0-.465-.133c-.067 0-.133 0-.2.066-.133-.066-.133.066-.066.133zm1.329.265c.066 0 .199 0 .266-.066 0 0 .066 0 .066-.067 0 0 0-.066-.066-.066-.133-.066-.266-.066-.399-.133-.067 0-.133 0-.133.066-.066.066 0 .133.066.133 0 .067.067.133.2.133zm-3.322 0c.066.066.132.066.199.066.133 0 .199 0 .332-.133.067 0 0-.067 0-.133-.199-.066-.399-.066-.598.066 0 .067 0 .067.067.133zm.996 18.871c-.066 0-.066.066-.066.133s.066.133.133.133h.066c.133 0 .266-.066.266-.133s-.133-.133-.266-.133c-.066-.067-.133-.067-.133 0zm-2.923-1.927c.066-.133 0-.266-.133-.332h-.067l-.066.066c-.067.133-.067.266.066.332.2 0 .2-.066.2-.066zm25.315 6.91c.067.067.067.067 0 0 .067 0 .067 0 .067-.066-.067 0-.067.066-.067.066zm0 .2c.067 0 .067 0 .067-.066v-.066c-.067 0-.067 0-.067.133 0-.066 0-.066 0 0zm-24.917-7.509c0-.066 0-.066-.066-.066 0 0-.067 0-.067.066 0 0 .067.066.133 0zm37.195 12.853c.045.078.081.14.081.237 0 .053.005.102.009.147.012.123.022.221-.076.318.067.133.067.332-.066.465s-.199.332-.199.531-.067.399-.133.598l-1.728.731c.2-.332.332-.664.2-.997-.067-.199 0-.399.132-.598.067-.066.133-.133.266-.199.038-.038.055-.054.074-.061s.031-.005.059-.005c.332-.067.598-.332.731-.598.066-.133.133-.266.199-.332s.133-.199.2-.332c.066-.066.199-.066.199 0l.052.095z"/><path d="M126.067 38.732c.199.199.399.332.664.399.2.066.266.199.2.332.199.532.133 1.063-.2 1.462l-.365.498-.366.498c-.133.199-.199.465-.133.731.133.332.067.731-.066 1.063-.066.133-.066.199-.066.332l-8.97.532c0-.199 0-.332-.067-.532 0-.081-.049-.137-.102-.198-.034-.04-.071-.082-.097-.134-.266-.266-.532-.465-.93-.598-.466-.133-.665-.399-.864-.797l-.366-.698-.365-.698c-.102-.102-.164-.242-.218-.362l-.048-.103c-.133-.266-.266-.532-.531-.665-.067-.066-.133-.133-.133-.199 0-.133 0-.199-.067-.332 0-.133 0-.199.067-.332.066-.066.066-.133-.2-.066l.023-.044c.056-.106.095-.179-.023-.355-.133-.199-.133-.465 0-.664.067-.066.133-.133.133-.199 0-.199.067-.332.266-.399.066 0 .133-.066.133-.133.066-.133.133-.266.199-.332.399-.399.399-.864.266-1.329-.029-.087-.071-.162-.109-.229-.048-.086-.09-.161-.09-.236 0-.133-.2-.199-.266-.199-.133 0-.199.066-.199.199 0 .199-.2.266-.399.133-.133-.133-.266-.199-.399-.199-.033-.033-.083-.066-.133-.1s-.099-.066-.133-.1c-.132-.199-.265-.332-.465-.399-.133-.066-.199-.199-.133-.332.067-.066.067-.133-.066-.199-.089 0-.118-.059-.148-.118a.29.29 0 0 0-.051-.081c-.067-.199-.266-.332-.532-.332-.066 0-.199 0-.266-.066-.133-.133-.266-.199-.465-.199-.133-.066-.199-.133-.266-.199a.64.64 0 0 0-.133-.166c-.049-.05-.099-.1-.132-.166-.133-.133-.333-.199-.532-.133-.266.066-.532.066-.731-.067-.066 0-.133 0-.133-.066-.033 0-.066-.017-.099-.033s-.067-.033-.1-.033c-.067 0-.133-.066-.133-.066-.066 0-.066 0-.133-.066l-.103-.048c-.12-.054-.26-.116-.362-.218-.033 0-.05-.017-.066-.033s-.034-.033-.067-.033c-.17-.085-.313-.198-.447-.302l-.217-.163c-.266-.199-.333-.399-.266-.664 0-.033.017-.05.033-.066s.033-.033.033-.066a.42.42 0 0 0 0-.399 1.28 1.28 0 0 1-.054-.127c-.022-.057-.037-.098-.079-.139 0-.033-.016-.05-.033-.066s-.033-.033-.033-.067c-.133-.266-.266-.465-.465-.598-.067-.066-.133-.133-.133-.199 0-.259-.121-.478-.238-.688l-.094-.176c-.133-.199-.2-.465-.2-.731v-.199c0-.066-.066-.133-.132-.133-.112-.056-.13-.018-.173.076l-.027.057c0 .133 0 .266.067.332.195.244.283.561.368.87l.097.326c.066.266.133.465.266.665.066.133.066.199.066.332 0 .066 0 .066-.066.133s-.067.066-.133 0c-.034-.033-.067-.083-.1-.133s-.066-.1-.1-.133c-.265-.133-.398-.332-.332-.598.067-.067 0-.133-.066-.133 0 0-.067-.066-.133-.066-.133-.066-.2-.133-.266-.266s-.066-.199.066-.332c.2-.199.2-.199.067-.332-.133-.199-.199-.332-.199-.532 0-.1-.017-.216-.034-.332l-.033-.332a.58.58 0 0 0-.465-.598c-.199-.066-.266-.133-.266-.332-.066-.266-.066-.532-.066-.797 0-.033-.017-.083-.033-.133s-.034-.1-.034-.133c0-.044-.007-.089-.014-.133-.015-.089-.03-.177.014-.266-.052-.156.018-.271.083-.378l.05-.087.2-.399a.69.69 0 0 1 .161-.257.67.67 0 0 0 .104-.142c.1-.166.216-.316.333-.465l.332-.465c.133-.199.266-.399.332-.664.066-.133.066-.266-.066-.332-.133-.133-.2-.266-.2-.399s0-.199.067-.199c.133 0 .133-.066.133-.199 0-.066 0-.133.066-.199.066-.199.066-.332.066-.532 0-.133 0-.266.067-.399.1-.1.087-.199.075-.299l-.009-.1c0-.067 0-.199-.066-.266v-.199-.133c0-.066-.067-.066-.133-.066-.041 0-.057-.025-.078-.06-.014-.022-.029-.047-.055-.073-.066-.133-.133-.266-.266-.332-.125 0-.251-.03-.383-.061-.148-.035-.305-.072-.48-.072-.067 0-.2-.066-.266-.133-.2-.066-.332-.066-.465.067-.133.199-.333.266-.598.332-.158 0-.274.042-.415.092l-.117.041c-.066.066-.133 0-.199-.066-.05-.1-.1-.087-.15-.075a.2.2 0 0 1-.05.008c-.066 0-.132.066-.066.133l-.997.399c-.26.156-.561.271-.839.378l-.224.087a3.24 3.24 0 0 1-.233.1l-.233.1c-.15.1-.299.087-.449.075l-.149-.008c-.067 0-.133 0-.133-.067-.067-.066 0-.133.066-.133.1-.033.183-.083.266-.133s.166-.1.266-.133c.266-.133.465-.266.664-.399.033 0 .05-.017.067-.033s.033-.033.066-.033c.066 0 .066-.066.066-.066h-.066-.199-.199c-.067 0-.133 0-.133-.067 0-.08-.049-.136-.102-.198-.035-.04-.071-.082-.097-.134v-.199s0-.067.067-.067.066-.066.066-.066c.066-.199.266-.332.465-.399l.42-.171c.372-.157.738-.312 1.174-.361-.133-.133-.199-.133-.332-.133-.066.066-.199.066-.266.066s-.133-.066-.133-.133c.067-.066.067-.133.067-.199 0-.199.133-.266.266-.332.199 0 .398 0 .598-.066a.73.73 0 0 1 .531 0h.2c.066-.066.132-.133.066-.199-.033-.033-.05-.083-.066-.133s-.034-.1-.067-.133c-.066-.066-.066-.133.067-.199s.265-.133.332-.199c.266 0 .465-.066.664-.133h.067c.531-.199 1.063-.332 1.594-.332.2 0 .333 0 .532-.066h.266c.109 0 .199.02.28.038.065.015.125.028.185.028l1.196.199h.664.2c.151.114.303.141.455.168.114.02.228.041.342.098.022 0 .044.007.066.015.045.015.089.029.133-.015.133-.033.266-.05.399-.066l.399-.066c.066 0 .132-.017.199-.033a.83.83 0 0 1 .199-.033c.2-.066.332-.066.465-.066s.266 0 .399.066c.133-.066.199-.066.266.066s.133.133.266.066h.265.333c.199 0 .398 0 .531.133a.6.6 0 0 0 .332.066c.133 0 .2 0 .2-.133 0-.066 0-.133.066-.133.161-.054.149-.194.138-.316l-.005-.083c-.266 0-.465.066-.664.133s-.399.066-.532-.066a.19.19 0 0 1 0-.332c.465-.266.93-.532 1.462-.598.047 0 .086-.008.122-.016.066-.014.124-.027.21.016h.133c.199.066.332.066.532.066.132 0 .265.066.332.199.066.066.133.133.266.133.042 0 .09.007.142.014.11.015.232.032.323-.014.077-.039.132-.01.191.021.042.022.085.045.141.045.399-.332.465-.332.731-.066.044.044.029.089.015.133a.2.2 0 0 0-.015.066c-.067.066-.067.199-.067.399 0 .028 0 .044.005.059s.024.036.062.074c.066 0 .133.066.133.066.133.133.066.266-.067.332s-.266.133-.332.199-.133.066-.266.066c-.072 0-.136-.009-.194-.017-.101-.014-.186-.026-.271.017.133.067.266.067.399.067.199-.067.398-.067.598-.067.066 0 .133-.066.066-.133 0-.066 0-.133.067-.133.085-.085.197-.116.302-.144.059-.016.115-.031.163-.055.044-.044.088-.03.133-.015.022.007.044.015.066.015.022.022.052.037.081.052.059.03.118.059.118.148 0 .133-.132.133-.199.133 0 .041.025.031.061.018.021-.008.047-.018.072-.018.025-.025.059-.04.095-.057.061-.028.129-.059.171-.143v-.066c-.133-.199-.067-.332.066-.465v-.066c-.266 0-.465-.066-.598-.199-.133-.066-.066-.199 0-.266h.133c.067 0 .133 0 .199-.133 0-.133.133-.199.266-.199h.532c.133 0 .199.066.133.199l-.041.076a.56.56 0 0 0-.092.322c-.067.067-.067.133 0 .133 0 .066.066 0 .066 0 0-.033.017-.05.033-.066s.034-.033.034-.067c.104-.208.248-.294.402-.385l.129-.08c.067-.066.133-.066.2-.066-.067-.066-.067-.199-.067-.266h.067c.132-.066.265-.066.398-.066s.2.066.133.199c-.066.066-.066.066-.066.133.052.026.104.032.152.037.074.008.139.015.18.096h.133c.266-.066.598-.133.93-.066h.399v-.066c-.266-.133-.598-.133-.931-.133-.199 0-.332 0-.465-.066-.133 0-.133-.066-.066-.133s.133-.133.199-.266c.067-.066.067-.066.133-.066.133-.066.266-.066.399.066.033 0 .05.017.066.033s.033.033.067.033.033-.017.033-.042 0-.058.033-.091c.085-.085.198-.116.303-.144.058-.016.115-.031.162-.055s.089-.037.133-.052c.089-.03.177-.059.266-.148-.086-.043-.144-.03-.21-.016a.55.55 0 0 1-.122.016c-.067.066-.2.066-.266.066-.027 0-.053-.003-.08-.005-.106-.011-.212-.021-.319.138-.133-.133-.133-.266.067-.332.161-.107.365-.171.543-.227l.121-.039a.3.3 0 0 1 .332 0c.2.066.333.133.532.266.066.066.066.133 0 .199s-.133.067-.199.067c-.133 0-.266 0-.399.066.332.066.598 0 .797-.133.081-.08.088-.137.096-.198.005-.04.011-.082.037-.134-.038-.019-.088-.033-.14-.047-.13-.036-.278-.077-.325-.218.066-.066.199-.066.266-.066l1.196-.199c.465-.066.93-.133 1.395 0h.997c.199-.066.465-.066.664-.066a.65.65 0 0 1 .337-.014c.044.007.086.014.128.014.067 0 .2 0 .2.066 0 .133-.133.133-.2.133l-.93.233-.93.232c-.067.133-.199.133-.332.133-.1 0-.216.017-.333.033l-.332.033c0 .066-.066.066-.133.066-.199.133-.465.199-.731.266-.132 0-.265.066-.398.199-.067.066-.133.066-.2.066h-.265-.133c-.067 0-.133 0-.133.066.066.066.066.133 0 .199-.097.097-.195.123-.318.156l-.147.043c-.067.033-.116.033-.158.033s-.075 0-.108.033v.066c.115 0 .13.05.175.191l.024.075v-.199c0-.066.067-.133.133-.133a.65.65 0 0 1 .337-.014.82.82 0 0 0 .128.014c.266.066.266.066.333.332v.066c.199.133.398.199.664.266.133 0 .199.066.266.133s.199.199.199.332a.43.43 0 0 1-.081.237l-.052.095c.067.066.15.1.233.133s.166.067.232.133c.133.066.2.199.2.399 0 .054-.044.064-.201.101l-.132.032a.66.66 0 0 0-.166.133c-.049.05-.099.1-.166.133-.199.133-.266.133-.465-.133l-.133-.133c-.066-.133-.133-.133-.266 0 .067 0 .133.066.2.133.133.199.133.332.066.532a.5.5 0 0 1-.465.266h-.133v.133c0 .062-.006.105-.019.135-.037.007-.073.031-.109.063-.021.002-.045.002-.071.002-.284 0-.471-.097-.685-.208l-.086-.044c-.007-.061-.05-.103-.093-.146a.43.43 0 0 1-.06-.025c-.004-.015-.006-.029-.006-.041-.059-.177-.17-.249-.334-.263l-.065-.069c-.066-.066-.133-.133-.266-.066-.043.043-.113.03-.194.016-.044-.008-.091-.016-.138-.016-.033 0-.083-.017-.133-.033l-.091-.027c.003-.021.011-.046.025-.072l.076-.082c.09-.101.165-.184.322-.184.078 0 .156.023.221.042a.46.46 0 0 0 .112.025c.199.066.398 0 .531-.199.033-.033.083-.066.133-.1s.1-.066.133-.1c.066 0 .133-.066.199-.133s.067-.133 0-.199l-.066-.066c-.133-.066-.2-.133-.266-.266-.033 0-.066-.017-.1-.033s-.066-.033-.099-.033h-.798c0 .199-.066.332-.199.399-.066 0-.066.067-.066.133-.097.193-.264.281-.424.365l-.174.1c-.133.066-.266.066-.333.066s-.133 0-.133.066a2.04 2.04 0 0 1 .333.465c.015.03.023.06.025.088-.038.055-.072.109-.099.168-.018.006-.038.01-.059.01-.133.066-.2.066-.266 0-.199-.066-.332 0-.465.066-.033 0-.067.017-.1.033s-.066.033-.099.033h-.266l-.2-.199c-.037-.075-.011-.107.018-.145.023-.029.049-.062.049-.12a2.45 2.45 0 0 0-.731.332c-.199.133-.399.266-.664.266-.266.066-.399.133-.598.266s-.399.266-.598-.067c-.042 0-.057.025-.079.061a.37.37 0 0 1-.054.072c-.067.066-.1.1-.1.133s.033.066.1.133v.133c-.067.133-.067.199-.067.266s.067.066.067.066c.265-.066.531.066.731.266a1.1 1.1 0 0 0 .797.332c.066 0 .199 0 .332.066.067.066.067.066.067.133a1.12 1.12 0 0 0-.055.127c-.022.057-.037.098-.078.139-.067.067-.133.199-.2.332v.199c.067.133.133.199.333.133.132-.066.199-.199.265-.332s.133-.332.133-.465.067-.199.2-.266c.099-.033.199-.083.299-.133l.299-.133c.132-.066.265-.133.332-.266.133-.133.199-.266.066-.465-.066-.133 0-.266.133-.332.033 0 .05-.017.067-.033s.033-.033.066-.033c.199-.066.266-.133.266-.332 0-.11.022-.197.059-.276.067-.024.105-.091.099-.168l.04-.057.068-.098c.066-.133.199-.133.398-.133a.19.19 0 0 1 .042.006c-.012.085.051.127.158.127a2.5 2.5 0 0 1 .332.033l.332.033.065.003.033.036c.089.1.185.208.307.268.018.069.072.158.127.158l.026.013c.004.033-.003.072-.026.119 0 .033-.017.067-.034.1s-.033.066-.033.1c0 .133 0 .199.067.266s.132.133.265.067c.034 0 .05-.017.067-.033s.033-.033.066-.033c.067-.033.133-.083.2-.133a1.33 1.33 0 0 1 .199-.133l.071-.068c.052-.004.088-.017.109-.063.086-.068.219-.002.219.065.111.223.176.492.233.73l.032.134c.048.096.027.191.012.262-.006.028-.012.052-.012.07.067.199.133.332.333.399 0 0 .066.066.132.066.067.067.133.133.133.199s.067.133.067.133c.266.199.199.465.066.731 0 .033-.016.05-.033.066s-.033.033-.033.066c0 .133-.067.266-.133.399 0 .133 0 .199.133.199h.266c.066 0 .132.066.132.199-.033.033-.049.083-.066.133s-.033.1-.066.133c-.067.066-.067.133 0 .199s.132.133.066.199c-.016.016-.031.035-.048.056-.053.066-.116.144-.218.144-.133.066-.266 0-.398-.066-.2-.133-.333-.133-.532-.133h-.598c-.066 0-.133-.066-.066-.133 0-.066 0-.133.066-.133.275-.165.459-.421.627-.655l.104-.143.133-.133c-.067-.066-.067-.066-.133-.066-.033 0-.05.017-.067.033s-.033.033-.066.033c-.266.266-.598.332-.997.332h-.996c-.067 0-.2 0-.266.066.066.066.066.066.133.066.133 0 .266 0 .332.067.133.066.199.199.066.332l-.132.133a.5.5 0 0 0-.133.266c0 .199.066.332.265.399.067.033.133.05.2.066s.133.033.199.066c.067.066.067.066.067.133s0 .133-.067.133l-.598.199c-.199.066-.399.133-.531.266-.067.067-.2.133-.266.133-.133 0-.2-.066-.2-.199s.067-.199.133-.266c-.041-.041-.056-.031-.078-.018-.013.008-.029.018-.055.018l-.93.399c-.266.133-.465.266-.465.531 0 .133-.066.199-.133.199-.033 0-.083.017-.133.033a.5.5 0 0 1-.133.033c-.265.066-.531.199-.797.399 0 .041-.025.057-.06.078a.38.38 0 0 0-.073.055l-.398.399-.2.199a.51.51 0 0 0-.133.332c0 .266-.066.465-.265.598 0 .033-.017.05-.034.066s-.033.033-.033.066c-.066.066-.133.133-.199.133-.133 0-.332.066-.399.199 0 .067-.066.067-.066.067-.248.083-.445.242-.638.399l-.359.265c-.033.033-.05.066-.066.1s-.034.066-.067.1l-.025.074c-.056.161-.099.284-.041.457.066.266.133.598.133.93.066.266 0 .399-.2.532-.133.133-.266.133-.332 0-.199-.266-.332-.598-.332-.997v-.199c0-.133-.133-.266-.266-.199-.133 0-.266 0-.332-.133s-.2-.133-.332-.133a1.21 1.21 0 0 0-.28.038.86.86 0 0 1-.186.028c-.132 0-.265.067-.265.199s-.133.133-.2.133c-.133-.033-.265-.05-.398-.066l-.399-.066c-.174-.058-.297-.015-.457.041l-.075.025c-.265.133-.531.266-.797.465a.5.5 0 0 0-.266.465c.058.172-.034.345-.103.474l-.03.057c-.265.532-.265.997-.133 1.528a1.04 1.04 0 0 0 .399.532l.056.029c.1.054.173.094.343.037h.465c.266 0 .332 0 .399-.266.033-.066.049-.133.066-.199s.033-.133.067-.199l.199-.199c.266-.066.598-.133.864-.133.038.038.054.055.074.061.014.005.03.005.059.005.066.066.132.133.066.266a1.06 1.06 0 0 0-.152.367l-.047.164-.2.399c-.133.199-.199.465-.265.731.066.066.132.066.199.066a.43.43 0 0 0 .178-.042c.033-.013.06-.025.088-.025.332-.133.664 0 .93.199.038.038.054.055.061.074.005.014.005.031.005.059 0 .199 0 .332-.066.532l-.199.731c-.067.199 0 .399.199.532l.133.133c.199.133.332.199.531.066 0-.066.067-.066.067-.066.266-.133.465-.133.731 0 .066.066.133.133.199.133.101 0 .164-.078.218-.144a.57.57 0 0 1 .048-.056c0-.033.016-.066.033-.1a.23.23 0 0 0 .033-.1c.067-.266.266-.399.532-.465l.149-.034c.193-.041.342-.072.449-.232.066-.066.133-.066.199-.066.133 0 .199.066.266.199v.066c.066 0 .133 0 .066-.199.028-.028.044-.044.063-.048.027-.007.059.01.137.048.078.053.157.095.231.134.115.061.22.117.3.198.067.066.133.066.2.066.199 0 .332.066.465.133.066.066.199.066.265 0 .2-.133.399-.133.598-.133h.399c.199 0 .199.066.199.199v.133c0 .332 0 .332.333.465.133.066.265.199.332.332s.133.199.199.266c.2.199.399.266.665.266.232 0 .432.065.622.127l.241.073c.048.048.104.096.162.146.182.157.386.333.436.585l.2.532c.066.066.066.133.066.266 0 .199.067.332.266.332.066 0 .116.05.166.1s.1.1.166.1c.067.033.133.05.2.066s.132.033.199.066a1.13 1.13 0 0 0 .214.103c.148.059.295.118.384.295.066.066.066.066.133.066.199 0 .332.066.465.133.199.066.399.066.598.066.066-.066.199-.066.266 0 .199.066.332.199.465.332zm-7.31-25.018l-.066.034s-.066.067-.066.133c.066 0 .066.066.066.133v.332c0 .133 0 .199.133.199.266 0 .266.066.266.399v.066c.266-.133.465-.266.598-.532-.042-.083-.109-.114-.171-.142-.036-.017-.07-.032-.095-.057-.133-.066-.199-.199-.133-.332 0-.066.067-.133.133-.199s.2-.199.333-.266v-.067c-.034 0-.05.017-.067.033s-.033.033-.066.033c-.2.133-.399.199-.598.199-.11-.055-.174-.019-.267.032zm-5.252 1.02c-.071-.015-.166-.037-.262.011 0 .064 0 .097.014.121s.05.043.119.078c.133-.067.266-.067.399-.067-.034-.033-.067-.05-.1-.066s-.067-.033-.1-.066c-.018 0-.042-.005-.07-.011z"/><path d="M163.143 13.616l-.647-.051-1.28-.149c-.133 0-.266 0-.398.067s-.2.066-.333.066h-.066v-.066c.066-.033.116-.067.166-.1l.166-.1c.133-.066.133-.199 0-.332-.097-.097-.194-.123-.318-.156l-.147-.043c-.266-.066-.465-.066-.731-.066l-.531-.1-.532-.1c.399-.266.066-.266-.133 0l-.066.066h-.266c-.12-.04-.239-.008-.359.024-.08.021-.159.042-.239.042-.399.066-.798.133-1.13.266-.066 0-.133.066-.133.133 0 .133-.066.133-.199.133-.199 0-.332 0-.532.066h-.199c-.133 0-.133.133-.066.266 0 .133 0 .133-.067.133-.133 0-.266 0-.332.066-.093.046-.153.028-.204.013-.022-.007-.042-.013-.062-.013-.133-.066-.199-.133-.199-.133-.067 0-.067 0-.133.066-.033.066-.066.116-.1.166l-.099.166h-.067c-.066-.066-.066-.133-.066-.133 0-.133-.067-.199-.2-.266a.57.57 0 0 0-.465 0c-.133 0-.265 0-.265.199 0 .097-.036.159-.081.237l-.052.095c-.067.066-.067.133 0 .199s.133.133.133.266c0 .033 0 .05-.009.058s-.025.008-.058.008-.066-.017-.1-.033-.066-.033-.099-.033c-.332-.133-.598-.133-.93-.133-.067 0-.133.066-.133.133v.066a.55.55 0 0 1-.122-.016c-.067-.014-.125-.027-.211.016-.059 0-.119.013-.185.028-.08.018-.17.038-.28.038a.57.57 0 0 1-.465 0 .3.3 0 0 0-.332 0l-.797.199c-.133 0-.2.067-.266.199s-.133.133-.199.066c-.133-.066-.133-.066-.067-.199.039-.078.055-.11.049-.137-.005-.019-.021-.035-.049-.063-.033 0-.05-.017-.066-.033s-.034-.033-.067-.033c-.05 0-.099-.004-.149-.008-.15-.012-.299-.025-.449.075.067.133.067.199.067.332 0 .064 0 .097-.015.121s-.049.043-.118.078c-.135.045-.24.09-.335.135l.003-.002c.066-.066.066-.199 0-.332-.067-.066-.133-.133-.2-.133-.332-.133-.664-.266-.996-.332l-.466-.1-.465-.1c-.066 0-.133 0-.199-.066-.066-.133-.199-.133-.266-.133-.465-.067-.864-.067-1.329-.067-.066 0-.199 0-.265.067-.2.133-.399.199-.665.133-.133 0-.199 0-.332.133s-.266.266-.465.332c-.067 0-.133.066-.133.133-.087.13-.202.232-.327.343l-.205.189c-.012.012-.027.025-.042.038-.069.058-.157.132-.157.294-.133.133-.266.266-.399.332-.059 0-.106.013-.157.028-.062.018-.132.038-.241.038-.067 0-.2.067-.266.133-.1.033-.183.083-.266.133s-.166.1-.266.133c-.133.066-.199.133-.199.332 0 .332.066.598.199.864.067.133.2.199.332.199.2 0 .333-.066.466-.133.052-.026.094-.063.134-.097.061-.053.117-.102.198-.102.092 0 .153.097.203.178.022.035.042.068.063.088.033.066.083.133.132.199s.1.133.133.199c.067.066 0 .133-.066.133s-.133.067-.133.067c-.133.066-.133.066-.133.266v.199h-.066c-.133 0-.266-.133-.2-.266.079-.118.088-.236.096-.34.005-.072.01-.137.037-.192 0-.067 0-.133-.066-.133h-.133c-.067.066-.199.133-.266.133-.199.133-.332.399-.199.664 0 .066.066.133.066.133.067.133 0 .199-.133.266l-.365.1-.366.1c-.066 0-.199.066-.199.133-.133.266-.332.399-.598.532h-.133l-.133-.133c.067-.066.133-.133.133-.266.067-.067 0-.133-.066-.199-.2-.066-.332-.199-.399-.465v-.066c-.11-.073-.18-.187-.253-.308-.06-.098-.123-.201-.212-.29.266-.332.199-.465-.199-.532 0-.022.007-.044.014-.066.015-.044.03-.089-.014-.133-.2-.133-.399-.067-.532.133l-.199.199c-.067.066-.067.133-.067.199.067.133.067.266.067.399 0 0 .066.067.066.133.062.062.066.066.012.121-.015-.006-.03-.014-.045-.021-.033-.017-.066-.033-.1-.033v.061c-.036-.006-.068-.017-.099-.027-.05-.017-.1-.033-.166-.033-.133 0-.266 0-.399.133-.067.067-.133.133-.266.133-.199.067-.266.133-.199.332v.066c.066.066 0 .133 0 .133l-.133.133-.067.066c.067.199.2.332.399.199a1.3 1.3 0 0 0 .133-.081c.089-.059.177-.118.266-.118.199 0 .266-.133.332-.332 0-.066 0-.199.066-.266.113-.113.13-.225.133-.338.021.004.043.006.067.006h.066l.012-.012c.018.007.037.012.055.012.157 0 .19.083.23.184l.035.082c.067.133 0 .199-.066.199a.75.75 0 0 1-.094.037c-.111.039-.209.073-.105.229l-.067.066c-.133.133-.133.133.067.266l.066.066c-.029.058-.082.09-.139.125-.075.045-.155.094-.193.207v.066c0 .067.066.067.066.067.067 0 .2 0 .266-.067.133-.066.266-.066.399-.066.199 0 .332 0 .531-.066.133 0 .2 0 .333-.066 0 0 .066 0 .066.066v.066c-.089.089-.177.118-.266.148l-.133.052h-.133c-.033 0-.049-.017-.066-.033s-.033-.033-.066-.033c-.133 0-.2 0-.2.133-.066.199-.066.199-.199.133h-.332c-.067 0-.133 0-.2.066l-.066.067c0 .133.066.199.199.266.067 0 .133 0 .2.067.265.133.465.332.531.664.067.266 0 .465-.199.731l.332-.216h4.17l-.05-.05c-.133-.133-.133-.199 0-.399.066 0 .199 0 .265.066.028.027.067.055.112.087a1.58 1.58 0 0 1 .221.178c.027.042.061.081.099.117l2.027-.05 10.963.111v6.733a1.93 1.93 0 0 1 .332.066c.333.067.731.067 1.064 0 .099 0 .182-.017.265-.033s.166-.033.266-.033c.067 0 .133 0 .199.066.089.177.237.295.384.413l.215.185c.012.012.027.025.042.038.069.058.157.132.157.294 0 .067.066.133.066.133.067.033.117.083.166.133s.1.1.167.133c.066.133.199.199.332.133.033 0 .083-.017.133-.033a.5.5 0 0 1 .133-.033c.066 0 .132 0 .132.066v.133c0 .22.046.395.099.599l.034.132c.067.465.266.93.532 1.329.066.066.133.199.133.266.088.31.236.62.384.93l.214.465.036.078c.037.084.059.135.163.187.133.133.266.199.399 0 .199-.199.332-.332.465-.598l.012-.024.007-.013.015-.027c.052-.093.087-.158.032-.267-.042-.085-.03-.169-.016-.271.008-.058.016-.121.016-.194-.066-.266-.066-.399-.066-.598v-.332c-.067-.199 0-.266.133-.399.133-.066.332-.199.398-.332 0-.066.067-.066.133-.066.086-.043.144-.114.21-.194l.123-.138c.132-.199.332-.399.531-.532.133-.066.199-.199.199-.332s.067-.199.2-.266l-.399-16.611zm-21.727 8.306c0-.033-.017-.05-.034-.067s-.033-.033-.033-.066c.067.066.067.066.067.133zm5.944-6.41l.036-.036.13-.064a.47.47 0 0 1-.166.1zm-.486.049c.103.013.2.023.322-.018.057 0 .113-.012.164-.031-.052.055-.097.109-.097.164-.033 0-.083-.017-.133-.033s-.1-.033-.133-.033l-.123-.048zm-.2-.018c.057-.026.111-.014.2.018l-.02-.003-.18-.016zm0 0c-.049.033-.082.115-.142.266-.133.066-.199-.066-.199-.133s0-.133.066-.133h.266.009zm8.458 14.234l-.029 1.049h-5.747c.05.05.099.1.166.133l.052.095c.045.078.081.14.081.237.025.025.04.059.057.095.028.061.059.129.142.171.199.133.266.332.266.598a1.13 1.13 0 0 0 .092.414l.041.117c.199.067.199.199.133.332-.067 0-.067 0-.133-.066l-.266-.266c-.066-.133-.199-.199-.332-.266-.266-.067-.399-.266-.465-.598 0-.266-.133-.465-.333-.532-.132-.066-.199-.266-.265-.465l-13.156.108v-5.49c-.067.133-.2.266-.399.332-.399.199-.598.531-.665.997 0 .199-.066.399-.265.532l-.129.09c-.138.1-.264.191-.469.242-.133 0-.2.067-.2.199s-.066.266-.199.332-.266.199-.266.332v.199c0 .067-.066.199-.133.199-.133.066-.199.133-.265.266a2.47 2.47 0 0 0-.333.731c0 .033-.004.066-.008.1-.012.1-.025.199.075.299 0 0 .066.066.066.133l.009.299c.012.299.024.598-.075.897-.033.067-.067.149-.1.233l-.1.232a.3.3 0 0 0 0 .332c.067.066.067.199.067.332-.067.199 0 .399.199.531.033.033.067.05.1.067s.066.033.1.066c.332.266.598.598.73.997 0 .033.017.066.034.1s.033.066.033.1c.025.025.041.051.054.072.022.035.038.06.079.06a.68.68 0 0 1 .398.332c0 .066.067.066.133.066a2.57 2.57 0 0 0 .333.266c.116.083.232.166.332.266.133.133.266.133.465.066l.598-.199a.3.3 0 0 1 .332 0c.133.066.332.066.465.066.047.046.125.028.191.013.029-.007.055-.013.075-.013.1-.033.216-.083.332-.133l.332-.133c.266-.133.532-.199.731-.199.333 0 .465.066.598.399 0 .066.067.133.133.199 0 .067.067.067.133.067.089.044.177.029.266.015.044-.007.089-.015.133-.015h.133.265l.067.066c.199.133.266.332.199.598 0 .066 0 .066-.066.133 0 .047-.009.086-.016.122-.015.066-.027.124.016.21 0 .199 0 .332-.133.465-.067.133-.067.266 0 .332a1.32 1.32 0 0 0 .215.367l.117.164c.067.1.133.183.199.266l.2.266a.51.51 0 0 1 .133.332c0 .199.066.332.133.465s.132.266.199.465c-.067.266-.067.598.133.864 0 .066 0 .066.066.133.067.199 0 .399-.133.532-.181.181-.252.473-.314.724l-.018.073c.266.465.266.731.266.997 0 .133 0 .266.133.399l.199.399 7.163-.24c.14-.152.287-.31.478-.425.034 0 .05 0 .058-.008s.009-.025.009-.058c.125-.042.224-.11.313-.171l.152-.095c.266-.199.399-.532.332-.864 0-.133 0-.199-.066-.332 0-.199 0-.399-.067-.532 0-.047.009-.086.016-.122.015-.066.027-.124-.016-.21 0-.133-.066-.199-.133-.266a.6.6 0 0 1-.199-.465c0-.199 0-.332.066-.532.067-.133 0-.199-.132-.199-.067-.067-.067-.199 0-.266l.097-.203c.104-.22.217-.459.368-.66l.199-.199c.199-.133.332-.332.465-.532.067-.133.199-.266.332-.399.133-.199.266-.332.465-.399a1.56 1.56 0 0 0 .598-.532c.2-.266.399-.598.532-.93.1-.166.183-.349.266-.532l.266-.532c.099-.199.087-.399.074-.598l-.008-.199v-.066c-.066-.066-.066-.066-.133-.066-.033 0-.066.017-.1.033s-.066.033-.099.033a4.55 4.55 0 0 1-.532.199c-.133 0-.332 0-.465.133-.044.044-.088.029-.133.015-.022-.007-.044-.015-.066-.015-.015 0-.033-.003-.054-.007-.069-.013-.16-.029-.212.074h-.133c-.133 0-.266-.066-.332-.199s-.067-.266-.067-.465a.8.8 0 0 1 .133.015c.089.015.178.029.266-.015l.081-.043c.126-.069.288-.157.451-.157.033 0 .066-.017.099-.033s.067-.033.1-.033c.084-.056.191-.088.301-.122.154-.046.314-.095.43-.211.033-.033.066-.033.1-.033s.066 0 .099-.033c.133 0 .266-.066.399-.133.041 0 .057-.025.078-.061.014-.022.029-.047.055-.072.066 0 .066-.067.066-.133 0-.133.133-.266.266-.266h.066l.042-.014.034-.011c.187-.06.414-.133.589-.308.148-.049.223-.135.305-.23l.094-.102c.132 0 .265-.066.265-.199a.51.51 0 0 1 .133-.332c.133-.133.2-.332.266-.532v-.199c-.097-.097-.159-.195-.237-.318zm-19.696-4.998l.132-2.259.997.066c-.332-.066-.664-.066-.997-.066a1.25 1.25 0 0 0-.531.133c-.028.028-.045.044-.054.064-.013.026-.013.059-.013.135.067.399 0 .731-.132 1.063 0 .067-.067.133-.067.133 0 .025-.01.051-.018.072-.013.035-.023.06.018.06.08.08.088.16.096.239a.42.42 0 0 0 .037.16c0 .108.044.128.133.168l.066.031h.333zm6.046-5.914c-.133-.066-.199-.066-.266-.066-.025 0-.041.01-.054.018-.022.013-.038.023-.079-.018 0 .066 0 .066.067.066.133 0 .266.066.332.133.052.103.143.086.212.073l.054-.007.332-.1.332-.1c.047 0 .094-.008.139-.016.08-.014.151-.027.194.016.132.066.265 0 .332-.066a.34.34 0 0 0 .066-.1c.017-.033.033-.066.067-.1 0-.133 0-.266.066-.399.067-.266.199-.332.465-.266 0 0 .067.066.133.066s.067-.066.067-.066v-.199c-.067-.066-.067-.199 0-.266 0-.067.132-.133.199-.133.13-.043.232-.03.343-.016l.188.016c.133.066.2 0 .266-.199h-.332c0 .067-.066.067-.133.067h-.199c-.266.133-.532.133-.798.066-.132 0-.265-.133-.265-.266 0-.033-.017-.066-.034-.1s-.033-.067-.033-.1c-.066-.266-.066-.399.2-.598.199-.066.332-.199.465-.332 0-.033.016-.066.033-.1s.033-.066.033-.1h-.465c-.025.025-.051.041-.072.055-.036.022-.061.037-.061.078 0 .199-.133.332-.266.399-.101.102-.242.164-.361.218l-.104.048c-.133.066-.199.199-.199.332v.199c.133.067.266.199.332.266s.067.133 0 .266-.133.199-.266.266c-.066 0-.133.066-.199.133 0 .1-.017.183-.033.266s-.034.166-.034.266c0 .133-.066.199-.199.199-.066 0-.133.066-.199.133s-.2.066-.266.066z"/></g></g><rect x="88.5" y="8.5" width="75" height="36" rx="2.367" class="E"/><mask id="A" class="C"><path d="M135.936 21.8a.67.67 0 0 0-.669.669v8.027a.67.67 0 0 0 .669.669h7.304l1.784 2.403c.137.185.415.185.552 0l1.783-2.402h7.305a.67.67 0 0 0 .669-.669v-8.027a.67.67 0 0 0-.669-.669h-18.728z" class="F"/></mask><path d="M135.936 21.8a.67.67 0 0 0-.669.669v8.027a.67.67 0 0 0 .669.669h7.304l1.784 2.403c.137.185.415.185.552 0l1.783-2.402h7.305a.67.67 0 0 0 .669-.669v-8.027a.67.67 0 0 0-.669-.669h-18.728z" class="C F"/><path d="M143.24 31.165l.288-.214-.107-.145h-.181v.358zm1.784 2.403l.288-.214h0l-.288.214zm.552 0l-.288-.214h0l.288.214zm1.783-2.402v-.358h-.18l-.107.145.287.214zm-11.734-8.696a.31.31 0 0 1 .311-.311v-.717a1.03 1.03 0 0 0-1.028 1.027h.717zm0 8.027v-8.027h-.717v8.027h.717zm.311.311a.31.31 0 0 1-.311-.311h-.717a1.03 1.03 0 0 0 1.028 1.027v-.717zm7.304 0h-7.304v.717h7.304v-.717zm2.072 2.547l-1.784-2.402-.575.427 1.783 2.402.576-.427zm-.024 0c.019-.004.021-.003.022-.002l-.574.429c.281.378.847.378 1.128 0l-.576-.427zm1.784-2.402l-1.784 2.403.576.427 1.783-2.402-.575-.427zm7.592-.145h-7.305v.717h7.305v-.717zm.311-.311a.31.31 0 0 1-.311.311v.717a1.03 1.03 0 0 0 1.028-1.027h-.717zm0-8.027v8.027h.717v-8.027h-.717zm-.311-.311a.31.31 0 0 1 .311.311h.717a1.03 1.03 0 0 0-1.028-1.027v.717zm-18.728 0h18.728v-.717h-18.728v.717z" fill="#647580" mask="url(#A)"/><path d="M152.837 26.009a.91.91 0 0 1-.471-.125.97.97 0 0 1-.337-.338c-.083-.142-.125-.299-.125-.471s.042-.327.125-.467a.95.95 0 0 1 .337-.338.9.9 0 0 1 .471-.127.89.89 0 0 1 .469.127c.142.084.255.196.338.338s.126.296.126.467a.91.91 0 0 1-.126.471.95.95 0 0 1-.338.338.9.9 0 0 1-.469.125zm0-.54a.38.38 0 0 0 .199-.053c.06-.036.107-.083.141-.143a.4.4 0 0 0 .053-.2.38.38 0 0 0-.053-.198c-.035-.06-.081-.107-.141-.143a.38.38 0 0 0-.199-.053.38.38 0 0 0-.198.053c-.059.035-.107.083-.142.143s-.054.125-.054.198a.38.38 0 0 0 .054.2c.035.059.083.107.142.143a.38.38 0 0 0 .198.053zm-2.942 2.643c-.268 0-.508-.049-.718-.148s-.375-.235-.498-.409a1.05 1.05 0 0 1-.192-.597h.798c.009.151.072.273.19.367s.258.141.42.141c.129 0 .243-.029.342-.085a.61.61 0 0 0 .234-.241.73.73 0 0 0 .085-.357.73.73 0 0 0-.087-.361.62.62 0 0 0-.237-.243c-.102-.058-.218-.088-.348-.089a.83.83 0 0 0-.333.07.61.61 0 0 0-.249.192l-.731-.131.184-2.052h2.379v.673h-1.701l-.1.975h.023a.75.75 0 0 1 .309-.24 1.1 1.1 0 0 1 .464-.095c.234 0 .443.055.627.165s.329.262.435.454a1.32 1.32 0 0 1 .158.661c.001.262-.06.495-.183.699a1.29 1.29 0 0 1-.511.479c-.219.117-.471.173-.76.173zm-3.51 0a1.86 1.86 0 0 1-.758-.146 1.29 1.29 0 0 1-.523-.407 1.02 1.02 0 0 1-.195-.601h.828a.43.43 0 0 0 .093.251.57.57 0 0 0 .232.165.86.86 0 0 0 .325.059.79.79 0 0 0 .332-.067c.096-.045.172-.106.227-.184a.46.46 0 0 0 .081-.272.46.46 0 0 0-.087-.276c-.058-.08-.139-.144-.247-.19a.96.96 0 0 0-.38-.068h-.363v-.604h.363a.79.79 0 0 0 .329-.065.53.53 0 0 0 .224-.179c.053-.077.08-.167.08-.27s-.024-.183-.071-.257a.46.46 0 0 0-.194-.175c-.082-.042-.178-.063-.288-.063a.75.75 0 0 0-.306.061c-.093.039-.167.096-.223.169a.45.45 0 0 0-.089.259h-.789c.004-.224.068-.422.192-.593a1.25 1.25 0 0 1 .502-.401c.212-.098.45-.146.716-.146s.504.049.705.146a1.16 1.16 0 0 1 .47.395.95.95 0 0 1 .167.555.76.76 0 0 1-.203.545.93.93 0 0 1-.531.277v.03c.287.037.505.136.654.298s.226.362.224.604a.94.94 0 0 1-.192.591 1.28 1.28 0 0 1-.53.407c-.226.099-.484.148-.775.148z" class="B"/><g stroke-width=".076" stroke-miterlimit="10"><path d="M142.759 25.45h-.049c.09-.37.045-.76-.127-1.099a1.6 1.6 0 0 0-1.916-.802 1.6 1.6 0 0 0-.872.681 1.07 1.07 0 0 0-1.072-.01c-.164.093-.3.227-.395.39a1.07 1.07 0 0 0-.146.535c.001.058.006.116.016.174-.279.055-.527.211-.697.438s-.249.51-.223.792a1.15 1.15 0 0 0 .367.737c.209.192.482.299.766.3a.64.64 0 0 0 .076 0h4.272c.283 0 .555-.113.755-.313a1.07 1.07 0 0 0 0-1.51c-.2-.2-.472-.313-.755-.313z" fill="url(#G)" stroke="#e6effc"/><path d="M140.242 26.136l-.61 1.831h.61l-.305 1.526 1.525-2.136h-.915l.61-1.22h-.915z" fill="url(#H)" stroke="#f6a823"/></g><mask id="B" class="C"><path d="M132 49h28c1.886 0 2.828 0 3.414.586S164 51.114 164 53v40c0 1.886 0 2.828-.586 3.414S161.886 97 160 97h-28V49z"/></mask><path d="M132 49h28c1.886 0 2.828 0 3.414.586S164 51.114 164 53v40c0 1.886 0 2.828-.586 3.414S161.886 97 160 97h-28V49z" class="C"/><path d="M132 49v-1h-1v1h1zm0 48h-1v1h1v-1zm31.414-.586l-.707-.707.707.707zm0-46.828l-.707.707.707-.707zM132 50h28v-2h-28v2zm31 3v40h2V53h-2zm-3 43h-28v2h28v-2zm-27 1V49h-2v48h2zm30-4l-.064 2.061c-.059.434-.153.57-.229.646l1.414 1.414c.51-.51.709-1.138.797-1.794.084-.627.082-1.413.082-2.328h-2zm-3 5l2.328-.082c.655-.088 1.284-.287 1.793-.797l-1.414-1.414c-.076.076-.212.17-.646.229-.462.062-1.09.064-2.061.064v2zm0-48l2.061.064c.434.058.57.152.646.229l1.414-1.414c-.509-.51-1.138-.708-1.793-.797-.627-.084-1.413-.082-2.328-.082v2zm5 3l-.082-2.328c-.088-.655-.287-1.284-.797-1.793l-1.414 1.414c.076.076.17.212.229.646.062.463.064 1.09.064 2.061h2z" mask="url(#B)" class="B"/><mask id="C" class="C"><path d="M101 49h32v48h-32V49z"/></mask><path d="M101 49h32v48h-32V49z" class="C"/><path d="M101 49v-1h-1v1h1zm32 0h1v-1h-1v1zm0 48v1h1v-1h-1zm-32 0h-1v1h1v-1zm0-47h32v-2h-32v2zm31-1v48h2V49h-2zm1 47h-32v2h32v-2zm-31 1V49h-2v48h2z" mask="url(#C)" class="B"/><mask id="D" class="C"><path d="M8 53c0-1.886 0-2.828.586-3.414S10.114 49 12 49h28v48H12c-1.886 0-2.828 0-3.414-.586S8 94.886 8 93V53z"/></mask><path d="M8 53c0-1.886 0-2.828.586-3.414S10.114 49 12 49h28v48H12c-1.886 0-2.828 0-3.414-.586S8 94.886 8 93V53z" class="C"/><path d="M40 49h1v-1h-1v1zm0 48v1h1v-1h-1zm-31.414-.586l.707-.707-.707.707zM12 50h28v-2H12v2zm27-1v48h2V49h-2zm1 47H12v2h28v-2zM9 93V53H7v40h2zm3 3c-.971 0-1.599-.002-2.061-.064-.434-.058-.57-.153-.646-.229l-1.414 1.414c.51.51 1.138.708 1.794.797.627.084 1.413.082 2.328.082v-2zm-5-3l.082 2.328c.088.656.287 1.284.797 1.794l1.414-1.414c-.076-.076-.17-.212-.229-.646C9.002 94.599 9 93.971 9 93H7zm5-45c-.915 0-1.701-.002-2.328.082-.656.088-1.284.287-1.794.797l1.414 1.414c.076-.076.212-.17.646-.229.462-.062 1.09-.064 2.061-.064v-2zm-3 5l.064-2.061c.058-.434.152-.57.229-.646l-1.414-1.414c-.51.51-.708 1.138-.797 1.793C6.998 51.299 7 52.086 7 53h2z" mask="url(#D)" class="B"/><mask id="E" class="C"><path d="M39 49H71V97H39V49Z"/></mask><path d="M39 49H71V97H39V49Z" class="C"/><path d="M39 49v-1h-1v1h1zm32 0h1v-1h-1v1zm0 48v1h1v-1h-1zm-32 0h-1v1h1v-1zm0-47h32v-2H39v2zm31-1v48h2V49h-2zm1 47H39v2h32v-2zm-31 1V49h-2v48h2z" mask="url(#E)" class="B"/><mask id="F" class="C"><path d="M70 49h32v48H70V49z"/></mask><path d="M70 49h32v48H70V49z" class="C"/><g class="B"><path d="M70 49v-1h-1v1h1zm32 0h1v-1h-1v1zm0 48v1h1v-1h-1zm-32 0h-1v1h1v-1zm0-47h32v-2H70v2zm31-1v48h2V49h-2zm1 47H70v2h32v-2zm-31 1V49h-2v48h2z" mask="url(#F)"/><rect x="49.267" y="55.35" width="11.467" height="2.15" rx="1.075"/><rect x="47.117" y="60.5" width="7.167" height="2.15" rx="1.075"/><rect x="55.717" y="60.5" width="7.167" height="2.15" rx="1.075"/><path d="M58.498 67.545a.91.91 0 0 1-.471-.125.96.96 0 0 1-.336-.338.91.91 0 0 1-.125-.471c0-.171.042-.327.125-.468s.196-.255.336-.338a.9.9 0 0 1 .471-.127.89.89 0 0 1 .469.127.94.94 0 0 1 .338.338c.084.141.126.296.126.468a.91.91 0 0 1-.126.471.96.96 0 0 1-.338.338.9.9 0 0 1-.469.125zm0-.54a.39.39 0 0 0 .341-.196c.035-.059.053-.126.053-.199a.38.38 0 0 0-.053-.198.39.39 0 0 0-.341-.196.38.38 0 0 0-.198.053c-.059.035-.107.083-.142.143a.38.38 0 0 0-.053.198c0 .073.018.14.053.199s.083.107.142.143a.38.38 0 0 0 .198.053zm-2.942 2.643a1.67 1.67 0 0 1-.718-.148 1.25 1.25 0 0 1-.498-.409 1.05 1.05 0 0 1-.192-.597h.798c.009.151.072.273.19.367s.258.141.42.141c.129 0 .243-.029.342-.085a.61.61 0 0 0 .234-.241.73.73 0 0 0 .086-.357c0-.137-.029-.257-.087-.361a.62.62 0 0 0-.237-.243.7.7 0 0 0-.348-.089c-.114 0-.225.023-.333.07a.6.6 0 0 0-.249.192l-.732-.131.184-2.052h2.379v.673h-1.701l-.101.975h.023a.75.75 0 0 1 .31-.239 1.1 1.1 0 0 1 .464-.095c.234 0 .443.055.627.165a1.19 1.19 0 0 1 .435.454 1.33 1.33 0 0 1 .158.661c.001.262-.059.495-.182.699a1.29 1.29 0 0 1-.511.479c-.219.117-.471.173-.76.173zm-3.51 0c-.284 0-.536-.049-.758-.146s-.395-.234-.523-.407a1.02 1.02 0 0 1-.196-.6h.828a.43.43 0 0 0 .093.251c.057.072.136.126.232.165a.86.86 0 0 0 .325.059.8.8 0 0 0 .333-.066.54.54 0 0 0 .226-.184c.054-.078.082-.169.082-.272s-.029-.196-.087-.275a.58.58 0 0 0-.247-.19.96.96 0 0 0-.38-.069h-.363v-.604h.363a.79.79 0 0 0 .329-.065.53.53 0 0 0 .224-.179c.053-.077.08-.167.08-.27s-.023-.183-.07-.257a.48.48 0 0 0-.194-.175.63.63 0 0 0-.289-.063.75.75 0 0 0-.306.061c-.093.041-.167.096-.222.169a.45.45 0 0 0-.089.258h-.789c.004-.224.068-.422.192-.593a1.24 1.24 0 0 1 .502-.401 1.69 1.69 0 0 1 .716-.146 1.6 1.6 0 0 1 .705.146c.202.098.358.229.469.395a.95.95 0 0 1 .167.555.76.76 0 0 1-.203.545c-.136.145-.312.238-.53.277v.03c.286.037.504.136.654.298s.225.362.224.604a.95.95 0 0 1-.192.591c-.128.172-.305.308-.53.407a1.91 1.91 0 0 1-.775.148zm.454 6.397c0 .425-.158.832-.438 1.133s-.66.47-1.056.47h-3.835c-.447-.012-.872-.211-1.184-.554a1.91 1.91 0 0 1-.487-1.283 1.91 1.91 0 0 1 .487-1.283c.312-.343.737-.542 1.184-.554h.047c.08-.342.253-.65.499-.884a1.58 1.58 0 0 1 .877-.427 1.54 1.54 0 0 1 .949.178 1.69 1.69 0 0 1 .69.721c.081-.02.164-.031.248-.031.265.001.52.107.718.296s.324.449.356.732c.278.118.516.323.685.588a1.69 1.69 0 0 1 .26.898h0z"/><rect x="54.5" y="74.148" width="10" height="2" rx="1"/><rect x="18.267" y="55.35" width="11.467" height="2.15" rx="1.075"/><rect x="16.117" y="60.5" width="7.167" height="2.15" rx="1.075"/><rect x="24.717" y="60.5" width="7.167" height="2.15" rx="1.075"/><path d="M27.498 67.545a.91.91 0 0 1-.471-.125.96.96 0 0 1-.336-.338.91.91 0 0 1-.125-.471c0-.171.042-.327.125-.468s.196-.255.336-.338a.9.9 0 0 1 .471-.127.89.89 0 0 1 .469.127.94.94 0 0 1 .338.338c.084.141.126.296.126.468a.91.91 0 0 1-.126.471.96.96 0 0 1-.338.338.9.9 0 0 1-.469.125zm0-.54a.39.39 0 0 0 .341-.196c.035-.059.053-.126.053-.199a.38.38 0 0 0-.053-.198.39.39 0 0 0-.341-.196.38.38 0 0 0-.198.053c-.059.035-.107.083-.143.143a.38.38 0 0 0-.053.198c0 .073.018.14.053.199s.083.107.143.143a.38.38 0 0 0 .198.053zm-2.942 2.643a1.67 1.67 0 0 1-.718-.148 1.25 1.25 0 0 1-.498-.409 1.05 1.05 0 0 1-.192-.597h.798c.009.151.072.273.19.367s.258.141.42.141c.129 0 .243-.029.342-.085a.61.61 0 0 0 .234-.241.73.73 0 0 0 .086-.357c0-.137-.029-.257-.087-.361a.62.62 0 0 0-.238-.243.7.7 0 0 0-.348-.089.82.82 0 0 0-.332.07.6.6 0 0 0-.249.192l-.732-.131.184-2.052h2.379v.673h-1.701l-.101.975h.023a.75.75 0 0 1 .31-.239 1.1 1.1 0 0 1 .464-.095c.234 0 .443.055.627.165a1.19 1.19 0 0 1 .435.454 1.33 1.33 0 0 1 .158.661c.001.262-.059.495-.182.699a1.29 1.29 0 0 1-.511.479c-.219.117-.471.173-.76.173zm-3.51 0a1.87 1.87 0 0 1-.758-.146 1.27 1.27 0 0 1-.523-.407 1.02 1.02 0 0 1-.196-.6h.829a.43.43 0 0 0 .093.251c.057.072.136.126.232.165a.86.86 0 0 0 .325.059.8.8 0 0 0 .333-.066.54.54 0 0 0 .226-.184c.054-.078.082-.169.082-.272s-.029-.196-.087-.275a.58.58 0 0 0-.247-.19.96.96 0 0 0-.38-.069h-.363v-.604h.363a.79.79 0 0 0 .329-.065.53.53 0 0 0 .224-.179c.053-.077.08-.167.08-.27s-.023-.183-.07-.257a.48.48 0 0 0-.194-.175.63.63 0 0 0-.289-.063.75.75 0 0 0-.306.061c-.093.041-.167.096-.222.169s-.086.16-.089.258h-.789c.004-.224.068-.422.192-.593a1.24 1.24 0 0 1 .502-.401 1.69 1.69 0 0 1 .716-.146 1.6 1.6 0 0 1 .705.146 1.16 1.16 0 0 1 .469.395.95.95 0 0 1 .167.555.76.76 0 0 1-.203.545c-.136.145-.312.238-.53.277v.03c.286.037.504.136.654.298s.226.362.224.604a.95.95 0 0 1-.192.591c-.128.172-.305.308-.53.407a1.91 1.91 0 0 1-.775.148zm.454 6.397c0 .425-.158.832-.438 1.133s-.66.47-1.056.47h-3.835c-.447-.012-.872-.211-1.184-.554a1.91 1.91 0 0 1-.487-1.283 1.91 1.91 0 0 1 .487-1.283c.312-.343.737-.542 1.184-.554h.047c.079-.342.253-.65.499-.884a1.58 1.58 0 0 1 .877-.427 1.54 1.54 0 0 1 .949.178 1.69 1.69 0 0 1 .69.721c.081-.02.164-.031.248-.031.265.001.521.107.718.296a1.2 1.2 0 0 1 .356.732c.278.118.516.323.685.588a1.69 1.69 0 0 1 .26.898h0z"/><rect x="23.5" y="74.148" width="10" height="2" rx="1"/><rect x="80.267" y="55.35" width="11.467" height="2.15" rx="1.075"/><rect x="78.117" y="60.5" width="7.167" height="2.15" rx="1.075"/><rect x="86.717" y="60.5" width="7.167" height="2.15" rx="1.075"/><path d="M89.498 67.545a.91.91 0 0 1-.471-.125.96.96 0 0 1-.336-.338.91.91 0 0 1-.125-.471c0-.171.042-.327.125-.468s.196-.255.336-.338a.9.9 0 0 1 .471-.127.89.89 0 0 1 .469.127.94.94 0 0 1 .338.338c.084.141.126.296.126.468a.91.91 0 0 1-.126.471.96.96 0 0 1-.338.338.9.9 0 0 1-.469.125zm0-.54a.39.39 0 0 0 .341-.196c.035-.059.053-.126.053-.199a.38.38 0 0 0-.053-.198.39.39 0 0 0-.341-.196.38.38 0 0 0-.198.053c-.059.035-.107.083-.142.143a.38.38 0 0 0-.053.198c0 .073.018.14.053.199s.083.107.142.143a.38.38 0 0 0 .198.053zm-2.942 2.643a1.67 1.67 0 0 1-.718-.148 1.25 1.25 0 0 1-.498-.409 1.05 1.05 0 0 1-.192-.597h.798c.009.151.072.273.19.367s.258.141.42.141c.129 0 .243-.029.342-.085a.61.61 0 0 0 .234-.241.73.73 0 0 0 .085-.357c0-.137-.029-.257-.087-.361a.62.62 0 0 0-.238-.243.7.7 0 0 0-.348-.089.82.82 0 0 0-.332.07.6.6 0 0 0-.249.192l-.732-.131.184-2.052h2.379v.673h-1.701l-.101.975h.023a.75.75 0 0 1 .31-.239 1.1 1.1 0 0 1 .464-.095c.234 0 .443.055.627.165a1.19 1.19 0 0 1 .435.454 1.33 1.33 0 0 1 .158.661c.001.262-.059.495-.182.699a1.29 1.29 0 0 1-.511.479c-.219.117-.471.173-.76.173zm-3.51 0a1.87 1.87 0 0 1-.758-.146 1.26 1.26 0 0 1-.522-.407 1.02 1.02 0 0 1-.196-.6h.829a.43.43 0 0 0 .093.251.55.55 0 0 0 .232.165c.097.039.205.059.325.059a.8.8 0 0 0 .333-.066.54.54 0 0 0 .226-.184c.054-.078.082-.169.082-.272s-.029-.196-.087-.275a.58.58 0 0 0-.247-.19.96.96 0 0 0-.38-.069h-.363v-.604h.363a.79.79 0 0 0 .329-.065.53.53 0 0 0 .224-.179c.053-.077.08-.167.08-.27s-.023-.183-.07-.257a.48.48 0 0 0-.194-.175.63.63 0 0 0-.289-.063.75.75 0 0 0-.306.061c-.093.041-.167.096-.222.169a.45.45 0 0 0-.089.258h-.789c.004-.224.068-.422.192-.593a1.24 1.24 0 0 1 .502-.401 1.69 1.69 0 0 1 .716-.146 1.6 1.6 0 0 1 .705.146 1.16 1.16 0 0 1 .469.395.95.95 0 0 1 .167.555c.001.218-.066.4-.203.545a.93.93 0 0 1-.53.277v.03c.286.037.504.136.654.298s.225.362.224.604a.95.95 0 0 1-.192.591c-.128.172-.305.308-.53.407a1.91 1.91 0 0 1-.775.148zm.454 6.397c0 .425-.158.832-.438 1.133s-.66.47-1.056.47h-3.835c-.447-.012-.872-.211-1.184-.554a1.91 1.91 0 0 1-.487-1.283 1.91 1.91 0 0 1 .487-1.283c.312-.343.737-.542 1.184-.554h.047c.079-.342.253-.65.499-.884a1.58 1.58 0 0 1 .877-.427 1.54 1.54 0 0 1 .949.178 1.69 1.69 0 0 1 .69.721c.081-.02.164-.031.248-.031.265.001.52.107.718.296s.324.449.356.732c.278.118.516.323.685.588a1.69 1.69 0 0 1 .26.898h0z"/><rect x="85.5" y="74.148" width="10" height="2" rx="1"/><rect x="111.267" y="55.35" width="11.467" height="2.15" rx="1.075"/><rect x="109.117" y="60.5" width="7.167" height="2.15" rx="1.075"/><rect x="117.717" y="60.5" width="7.167" height="2.15" rx="1.075"/><use href="#N"/><use href="#O"/><use href="#P"/><use href="#Q"/><rect x="116.5" y="74.148" width="10" height="2" rx="1"/><rect x="142.267" y="55.35" width="11.467" height="2.15" rx="1.075"/><rect x="140.117" y="60.5" width="7.167" height="2.15" rx="1.075"/><rect x="148.717" y="60.5" width="7.167" height="2.15" rx="1.075"/><use href="#N" x="31"/><use href="#O" x="31"/><use href="#P" x="31"/><use href="#Q" x="31"/><rect x="147.5" y="74.148" width="10" height="2" rx="1"/><rect x="11" y="91" width="8.167" height="2.15" rx="1.075"/><rect x="23" y="82" width="6.167" height="2.15" rx="1.075"/><rect x="30.6" y="82" width="6.167" height="2.15" rx="1.075"/><rect x="23.4" y="87" width="5.167" height="2.15" rx="1.075"/><rect x="30.997" y="87" width="5.167" height="2.15" rx="1.075"/><rect x="23.4" y="91" width="5.167" height="2.15" rx="1.075"/><rect x="30.997" y="91" width="5.167" height="2.15" rx="1.075"/><rect x="11" y="87" width="8.167" height="2.15" rx="1.075"/></g><path d="M9 86a2 2 0 0 1 2-2h26a2 2 0 0 1 2 2v10H9V86z" fill="url(#I)"/><g class="B"><rect x="54" y="82" width="6.167" height="2.15" rx="1.075"/><rect x="61.6" y="82" width="6.167" height="2.15" rx="1.075"/><rect x="54.4" y="87" width="5.167" height="2.15" rx="1.075"/><rect x="61.997" y="87" width="5.167" height="2.15" rx="1.075"/><rect x="54.4" y="91" width="5.167" height="2.15" rx="1.075"/><rect x="61.997" y="91" width="5.167" height="2.15" rx="1.075"/><rect x="42" y="87" width="8.167" height="2.15" rx="1.075"/></g><path d="M40 86a2 2 0 0 1 2-2h26a2 2 0 0 1 2 2v10H40V86z" fill="url(#J)"/><g class="B"><rect x="85" y="82" width="6.167" height="2.15" rx="1.075"/><rect x="92.6" y="82" width="6.167" height="2.15" rx="1.075"/><rect x="85.4" y="87" width="5.167" height="2.15" rx="1.075"/><rect x="92.997" y="87" width="5.167" height="2.15" rx="1.075"/><rect x="85.4" y="91" width="5.167" height="2.15" rx="1.075"/><rect x="92.997" y="91" width="5.167" height="2.15" rx="1.075"/><rect x="73" y="87" width="8.167" height="2.15" rx="1.075"/></g><path d="M71 86a2 2 0 0 1 2-2h26a2 2 0 0 1 2 2v10H71V86z" fill="url(#K)"/><g class="B"><rect x="116" y="82" width="6.167" height="2.15" rx="1.075"/><rect x="123.6" y="82" width="6.167" height="2.15" rx="1.075"/><rect x="116.4" y="87" width="5.167" height="2.15" rx="1.075"/><rect x="123.997" y="87" width="5.167" height="2.15" rx="1.075"/><rect x="116.4" y="91" width="5.167" height="2.15" rx="1.075"/><rect x="123.997" y="91" width="5.167" height="2.15" rx="1.075"/><rect x="104" y="87" width="8.167" height="2.15" rx="1.075"/></g><use href="#R" fill="url(#L)"/><g class="B"><rect x="147" y="82" width="6.167" height="2.15" rx="1.075"/><rect x="154.6" y="82" width="6.167" height="2.15" rx="1.075"/><rect x="147.4" y="87" width="5.167" height="2.15" rx="1.075"/><rect x="154.997" y="87" width="5.167" height="2.15" rx="1.075"/><rect x="147.4" y="91" width="5.167" height="2.15" rx="1.075"/><rect x="154.997" y="91" width="5.167" height="2.15" rx="1.075"/><rect x="135" y="87" width="8.167" height="2.15" rx="1.075"/></g><use href="#R" x="31" fill="url(#L)"/><rect x="68.75" y="82.75" width="33.94" height="8.5" rx=".45" class="C"/><rect x="68.75" y="82.75" width="33.94" height="8.5" rx=".45" stroke-width=".5" class="E"/><g class="B"><path d="M91.391 88.768c-.198 0-.376-.032-.534-.095s-.291-.154-.402-.267-.192-.245-.25-.395a1.33 1.33 0 0 1-.088-.482v-.094a1.63 1.63 0 0 1 .083-.532 1.25 1.25 0 0 1 .236-.418c.104-.118.23-.209.378-.272a1.24 1.24 0 0 1 .501-.097c.181 0 .342.03.482.09s.258.145.352.255.169.243.218.397.073.323.073.51v.284h-2.032v-.454h1.364v-.052a.59.59 0 0 0-.052-.253.4.4 0 0 0-.151-.18c-.068-.044-.154-.066-.26-.066-.09 0-.167.02-.232.059s-.117.094-.158.165-.069.154-.09.25-.028.199-.028.312v.094a.91.91 0 0 0 .043.284.69.69 0 0 0 .125.225.57.57 0 0 0 .199.147c.079.035.168.052.267.052.123 0 .237-.024.343-.071a.74.74 0 0 0 .277-.22l.331.359c-.054.077-.127.151-.22.222s-.202.129-.331.175-.276.066-.442.066z"/><path d="M89.169 86.721v1.999h-.681v-2.557h.64l.04.558zm.77-.574l-.012.631-.121-.012-.125-.007a.75.75 0 0 0-.251.038c-.069.024-.128.059-.175.106a.45.45 0 0 0-.104.173c-.024.068-.035.145-.038.232l-.137-.043a1.97 1.97 0 0 1 .05-.456 1.26 1.26 0 0 1 .144-.366.71.71 0 0 1 .236-.241.6.6 0 0 1 .319-.085c.038 0 .076.003.116.009a.42.42 0 0 1 .097.021zm-4.291 1.321v-.05a1.61 1.61 0 0 1 .08-.517 1.22 1.22 0 0 1 .234-.414 1.05 1.05 0 0 1 .378-.272c.15-.066.321-.099.515-.099a1.28 1.28 0 0 1 .517.099c.151.065.278.155.381.272a1.18 1.18 0 0 1 .236.414 1.6 1.6 0 0 1 .08.517v.05c0 .186-.027.358-.08.517a1.19 1.19 0 0 1-.236.414 1.05 1.05 0 0 1-.378.272 1.29 1.29 0 0 1-.515.097c-.194 0-.366-.032-.517-.097a1.07 1.07 0 0 1-.38-.272 1.23 1.23 0 0 1-.234-.414 1.61 1.61 0 0 1-.08-.517zm.681-.05v.05a1.5 1.5 0 0 0 .028.3c.019.093.049.175.09.246s.098.124.165.163.15.059.248.059.176-.02.243-.059a.45.45 0 0 0 .163-.163.81.81 0 0 0 .09-.246c.02-.093.031-.193.031-.3v-.05c0-.104-.01-.202-.031-.293a.77.77 0 0 0-.092-.246.45.45 0 0 0-.163-.17c-.068-.041-.15-.061-.246-.061s-.178.02-.246.061-.121.098-.163.17a.8.8 0 0 0-.09.246 1.45 1.45 0 0 0-.028.293zm-4.446-2.138h.6l.884 2.526.884-2.526h.6l-1.243 3.441h-.482l-1.243-3.441zm-.324 0h.598l.109 2.463v.978h-.707V85.28zm3.018 0h.6v3.441h-.709v-.978l.109-2.463zm-5.702 3.488c-.199 0-.377-.032-.534-.095a1.17 1.17 0 0 1-.402-.267c-.111-.113-.192-.245-.251-.395a1.33 1.33 0 0 1-.087-.482v-.094a1.63 1.63 0 0 1 .083-.532 1.25 1.25 0 0 1 .236-.418 1.04 1.04 0 0 1 .378-.272 1.24 1.24 0 0 1 .501-.097c.181 0 .342.03.482.09s.258.145.352.255a1.1 1.1 0 0 1 .217.397c.049.153.073.323.073.51v.284h-2.032v-.454h1.364v-.052a.59.59 0 0 0-.052-.253.4.4 0 0 0-.151-.18c-.068-.044-.154-.066-.26-.066-.09 0-.167.02-.232.059s-.117.094-.158.165a.9.9 0 0 0-.09.25c-.019.095-.028.199-.028.312v.094c0 .102.014.197.043.284a.69.69 0 0 0 .125.225.57.57 0 0 0 .198.147c.079.035.168.052.267.052a.83.83 0 0 0 .343-.071.74.74 0 0 0 .276-.22l.331.359a1 1 0 0 1-.22.222c-.093.071-.202.129-.331.175s-.276.066-.442.066z"/><path d="M76.261 88.768c-.198 0-.377-.032-.534-.095a1.17 1.17 0 0 1-.402-.267c-.111-.113-.192-.245-.251-.395a1.33 1.33 0 0 1-.087-.482v-.094a1.63 1.63 0 0 1 .083-.532 1.25 1.25 0 0 1 .236-.418 1.04 1.04 0 0 1 .378-.272 1.24 1.24 0 0 1 .501-.097c.181 0 .342.03.482.09s.258.145.352.255a1.1 1.1 0 0 1 .217.397 1.67 1.67 0 0 1 .073.51v.284h-2.032v-.454h1.364v-.052a.59.59 0 0 0-.052-.253.4.4 0 0 0-.151-.18c-.068-.044-.154-.066-.26-.066-.09 0-.167.02-.232.059s-.117.094-.158.165a.9.9 0 0 0-.09.25c-.019.095-.028.199-.028.312v.094a.91.91 0 0 0 .043.284.69.69 0 0 0 .125.225.57.57 0 0 0 .199.147c.079.035.168.052.267.052a.83.83 0 0 0 .343-.071.74.74 0 0 0 .277-.22l.331.359a1.01 1.01 0 0 1-.22.222c-.091.071-.202.129-.331.175s-.276.066-.442.066zm-2.325-.948a.45.45 0 0 0-.028-.165.34.34 0 0 0-.099-.137.88.88 0 0 0-.206-.125 2.91 2.91 0 0 0-.343-.128 4.33 4.33 0 0 1-.444-.17 1.82 1.82 0 0 1-.369-.22.99.99 0 0 1-.251-.296c-.06-.112-.09-.242-.09-.39s.032-.273.095-.39a.91.91 0 0 1 .265-.303c.114-.084.247-.15.402-.196a1.82 1.82 0 0 1 .513-.069 1.51 1.51 0 0 1 .664.137c.189.091.336.217.44.376s.158.341.158.546h-.704a.53.53 0 0 0-.064-.265.43.43 0 0 0-.189-.182c-.084-.044-.189-.066-.317-.066s-.225.019-.307.057a.41.41 0 0 0-.184.149c-.041.061-.062.131-.062.208 0 .058.014.111.043.158a.48.48 0 0 0 .132.132c.058.041.13.079.215.116s.184.072.295.106a3.14 3.14 0 0 1 .494.191 1.53 1.53 0 0 1 .359.239.89.89 0 0 1 .217.3.94.94 0 0 1 .073.38.9.9 0 0 1-.087.402c-.058.118-.143.218-.253.3s-.242.144-.395.187a1.91 1.91 0 0 1-.513.064c-.17 0-.338-.022-.503-.066a1.53 1.53 0 0 1-.451-.206c-.134-.091-.241-.208-.321-.35a1.01 1.01 0 0 1-.121-.503h.711c0 .107.017.198.05.272s.08.134.139.18a.6.6 0 0 0 .217.099 1.19 1.19 0 0 0 .279.031c.123 0 .224-.017.303-.052s.139-.083.177-.144a.39.39 0 0 0 .059-.208z"/></g><g clip-path="url(#M)" class="B"><path d="M96.94 88.425a.35.35 0 0 1-.248-.103l-2.15-2.15a.35.35 0 1 1 .495-.495l1.902 1.902 1.902-1.902a.35.35 0 1 1 .495.495l-2.15 2.15a.35.35 0 0 1-.248.102z"/></g><defs><linearGradient id="G" x1="139.107" y1="23.994" x2="141.645" y2="28.394" href="#S"><stop stop-color="#f3f7fe"/><stop offset=".45" stop-color="#f3f7fe"/><stop offset="1" stop-color="#deeafb"/></linearGradient><linearGradient id="H" x1="139.744" y1="26.423" x2="141.12" y2="28.809" href="#S"><stop stop-color="#f7b23b"/><stop offset=".45" stop-color="#f7b23b"/><stop offset="1" stop-color="#f59e0b"/></linearGradient><linearGradient id="I" x1="24" y1="84" x2="24" y2="96" href="#S"><stop stop-color="#e9ebed" stop-opacity="0"/><stop offset=".765" stop-color="#ced8df"/></linearGradient><linearGradient id="J" x1="55" y1="84" x2="55" y2="96" href="#S"><stop stop-color="#e9ebed" stop-opacity="0"/><stop offset=".765" stop-color="#ced8df"/></linearGradient><linearGradient id="K" x1="86" y1="84" x2="86" y2="96" href="#S"><stop stop-color="#e9ebed" stop-opacity="0"/><stop offset=".765" stop-color="#ced8df"/></linearGradient><linearGradient id="L" x1="117" y1="84" x2="117" y2="96" href="#S"><stop stop-color="#e9ebed" stop-opacity="0"/><stop offset=".765" stop-color="#ced8df"/></linearGradient><clipPath id="M"><path transform="matrix(-1 0 0 -1 99.44 89.5)" d="M0 0h5v5H0z" class="C"/></clipPath><path id="N" d="M120.498 67.545a.91.91 0 0 1-.472-.125c-.14-.085-.252-.198-.336-.338s-.125-.299-.125-.471.041-.327.125-.468.196-.255.336-.338a.9.9 0 0 1 .472-.127.89.89 0 0 1 .469.127c.142.084.255.196.338.338s.126.296.126.468-.042.329-.126.471-.196.253-.338.338a.9.9 0 0 1-.469.125zm0-.54a.38.38 0 0 0 .199-.053c.06-.035.107-.083.141-.143s.053-.126.053-.199-.018-.138-.053-.198-.081-.107-.141-.143a.38.38 0 0 0-.199-.053.38.38 0 0 0-.198.053c-.06.035-.107.083-.143.143s-.053.125-.053.198.018.14.053.199.083.107.143.143a.38.38 0 0 0 .198.053z"/><path id="O" d="M117.556 69.648c-.269 0-.508-.049-.718-.148a1.25 1.25 0 0 1-.498-.409c-.123-.173-.187-.372-.192-.597h.798c.009.151.072.273.19.367s.258.141.42.141c.129 0 .243-.029.342-.085s.178-.139.234-.241a.73.73 0 0 0 .085-.357c0-.137-.029-.257-.087-.361s-.136-.185-.238-.243-.217-.088-.347-.089a.83.83 0 0 0-.333.07c-.106.047-.189.111-.249.192l-.731-.131.184-2.052h2.379v.673h-1.701l-.1.975h.022c.069-.096.172-.176.31-.239a1.1 1.1 0 0 1 .464-.095c.234 0 .443.055.627.165s.329.262.435.454a1.33 1.33 0 0 1 .158.661c.001.262-.06.495-.183.699s-.292.362-.511.479a1.6 1.6 0 0 1-.76.173z"/><path id="P" d="M114.046 69.648c-.284 0-.537-.049-.758-.146s-.395-.234-.523-.407a1.02 1.02 0 0 1-.196-.6h.829a.43.43 0 0 0 .093.251c.058.071.136.126.232.165a.85.85 0 0 0 .325.059c.125 0 .236-.022.332-.066a.54.54 0 0 0 .226-.184.46.46 0 0 0 .082-.272c0-.104-.029-.196-.087-.275s-.14-.144-.247-.19-.233-.069-.38-.069h-.363v-.604h.363c.124 0 .233-.022.328-.065s.171-.103.225-.179.079-.167.079-.27c0-.098-.023-.183-.07-.257s-.11-.133-.194-.175-.178-.063-.289-.063a.76.76 0 0 0-.306.061.54.54 0 0 0-.222.169c-.056.073-.085.16-.089.258h-.789c.004-.224.068-.422.192-.593s.292-.305.502-.401.45-.146.716-.146.504.049.705.146a1.16 1.16 0 0 1 .47.395c.112.165.168.35.167.555a.76.76 0 0 1-.204.545c-.135.146-.312.238-.53.277v.03c.287.037.505.136.654.298s.225.362.224.604c.001.222-.062.419-.192.591s-.304.308-.53.407-.484.148-.775.148z"/><path id="Q" d="M114.5 76.045c0 .425-.158.832-.438 1.133s-.66.47-1.056.47h-3.835c-.447-.012-.872-.211-1.184-.554a1.91 1.91 0 0 1-.487-1.283 1.91 1.91 0 0 1 .487-1.283c.312-.343.737-.542 1.184-.554h.047c.08-.342.254-.65.499-.884s.552-.383.877-.427a1.54 1.54 0 0 1 .95.178 1.69 1.69 0 0 1 .689.721c.081-.02.164-.031.248-.031.265.001.52.107.718.296s.324.449.356.732c.278.118.516.323.685.588a1.69 1.69 0 0 1 .26.898h0z"/><path id="R" d="M102 86a2 2 0 0 1 2-2h26a2 2 0 0 1 2 2v10h-30V86z"/><linearGradient id="S" gradientUnits="userSpaceOnUse"/></defs></svg>