<svg xmlns="http://www.w3.org/2000/svg" width="320" height="188" fill="none" xmlns:v="https://vecta.io/nano"><style><![CDATA[.B{fill:#fff}]]></style><rect x=".5" y=".5" width="319" height="187" rx="3.5" fill="#0350b1"/><rect x=".5" y=".5" width="319" height="187" rx="3.5" stroke="#0f488e"/><g clip-path="url(#A)" class="B"><path d="M49.72 32.56l-1.92-.48c-.48-.16-.96-.48-1.44-.8 0 0-.16 0-.16-.16V26a3.96 3.96 0 0 0-4-4H27.8a3.96 3.96 0 0 0-4 4v4.48L22.2 30l-1.6-.48c-.8 0-1.6.64-1.6 1.44s.48 1.28 1.28 1.44 1.44.32 1.92.64c.48.16.96.48 1.44.64l.16.16v2.08l-1.6-.48c-.48-.16-.96-.32-1.6-.32-.8-.16-1.6.48-1.6 1.44 0 .64.48 1.28 1.28 1.44.8 0 1.44.16 1.92.48.48.16.96.48 1.44.8l.16.16v2.24c-.48-.32-.96-.48-1.6-.64-.48-.16-.96-.32-1.6-.32-.8-.16-1.6.64-1.6 1.44s.48 1.28 1.28 1.44l1.92.48c.48.16.96.48 1.44.8l.16.16v5.12c0 2.08 1.76 3.84 4 3.84h14.4a3.96 3.96 0 0 0 4-4v-1.92c-.48-.16-.8-.48-1.28-.8a14.63 14.63 0 0 0-2.24-1.12V50c0 .32-.16.48-.48.48H27.8c-.32 0-.48-.16-.48-.48v-3.68-3.04-2.56-2.88-2.56-2.88V26c0-.32.16-.48.48-.48h14.4c.32 0 .48.16.48.48v3.68c-.48-.16-.96-.16-1.6-.16h-.8c-3.04 0-4.64.96-6.08 1.76-1.12.8-2.24 1.44-4.48 1.44h-.8v2.88h.8c3.04 0 4.64-.96 6.08-1.76 1.28-.8 2.4-1.44 4.64-1.44h.8c.64 0 1.12.16 1.6.32.8.32 1.6.64 2.24 1.12.32.32.8.48 1.28.8s.96.48 1.6.64c.48.16.96.32 1.6.32.8.16 1.6-.64 1.6-1.44-.16-.8-.64-1.44-1.44-1.6z"/><path d="M49.72 38.16c-1.44-.16-2.4-.64-3.36-1.28 0 0-.16 0-.16-.16-.96-.48-1.92-1.12-3.52-1.44-.64-.16-1.44-.16-2.4-.16-3.04 0-4.64.96-6.08 1.76-1.28.8-2.4 1.44-4.64 1.44h-.8v2.88h.8c3.04 0 4.64-.96 6.08-1.76 1.28-.8 2.4-1.44 4.64-1.44.96 0 1.76.16 2.4.32.8.32 1.6.64 2.24 1.12.32.32.8.48 1.28.8.8.48 1.92.8 3.2.96.8.16 1.6-.64 1.6-1.44 0-.96-.48-1.6-1.28-1.6zm0 5.44c-1.44-.16-2.24-.8-3.36-1.28 0 0-.16 0-.16-.16-.96-.64-1.92-1.12-3.52-1.44-.64-.16-1.44-.16-2.4-.16-3.04 0-4.64.96-6.08 1.76-1.28.8-2.4 1.44-4.64 1.44h-.8v2.88h.8c3.04 0 4.64-.96 6.08-1.76 1.28-.8 2.4-1.44 4.64-1.44.96 0 1.76.16 2.4.32.8.32 1.6.64 2.24 1.12.32.16.8.48 1.28.8.8.48 1.92.8 3.2.96.8.16 1.6-.64 1.6-1.44 0-.96-.64-1.6-1.28-1.6z"/></g><g clip-path="url(#B)" class="B"><path d="M88.04 35.12c-1.12-2.72-3.84-4.48-7.04-4.48-3.36 0-6.08 2.08-7.2 4.96-2.88 1.12-4.8 3.84-4.8 7.04 0 4.16 3.36 7.52 7.52 7.52h10.56c4.16 0 7.52-3.36 7.52-7.52a7.6 7.6 0 0 0-6.56-7.52zm-.96 11.52H76.52a3.96 3.96 0 0 1-4-4c0-1.92 1.28-3.52 3.2-4l1.12-.32.16-1.12c.32-1.76 1.92-3.04 4-3.04 1.92 0 3.68 1.28 4 3.04l.32 1.44h1.76a3.96 3.96 0 0 1 4 4 3.96 3.96 0 0 1-4 4zm8.32-16.8c-.96-2.4-3.36-4-6.24-4-2.08 0-4.16.96-5.28 2.56-.32.48-.16.96.16 1.12.64.16 1.12.48 1.6.8.32.32.8.16 1.28-.16.64-.48 1.44-.8 2.24-.8 1.6 0 2.88.96 3.2 2.4l.32 1.44h1.44c1.92 0 3.52 1.6 3.52 3.52 0 1.12-.48 1.92-1.28 2.56-.32.32-.48.8-.32 1.12.16.48.16 1.12.32 1.76 0 .48.32.8.8.8h.32s.16 0 .16-.16c2.08-1.12 3.52-3.52 3.52-6.08-.16-3.36-2.56-6.24-5.76-6.88z"/></g><g clip-path="url(#C)" class="B"><path d="M148.28 33.68c1.44 0 2.72-1.28 2.72-2.72 0-1.92-1.92-4-2.56-4.64h-.16-.16c-.64.64-2.56 2.88-2.56 4.64.16 1.6 1.28 2.72 2.72 2.72zm-5.44.96h-.16-.16c-.64.64-2.56 2.88-2.56 4.64 0 1.44 1.28 2.72 2.72 2.72s2.72-1.28 2.72-2.72c-.16-1.76-1.92-4-2.56-4.64zm5.76 8.32h-.16-.16c-.64.64-2.56 2.88-2.56 4.64 0 1.44 1.28 2.72 2.72 2.72s2.72-1.28 2.72-2.72c-.16-1.92-1.92-4-2.56-4.64zm-13.92-14.4c0-1.76-.64-3.36-1.92-4.64-1.12-1.28-2.88-1.92-4.48-1.92-3.68 0-6.56 2.88-6.56 6.56V38c-1.76 1.76-2.72 4.16-2.72 6.72a9.29 9.29 0 0 0 9.28 9.28 9.29 9.29 0 0 0 9.28-9.28c0-2.56-.96-4.96-2.72-6.56v-9.6h-.16zm-6.4 21.92c-3.2 0-5.76-2.56-5.76-5.76 0-1.6.64-3.04 1.76-4.16l.96-1.12V28.56c0-1.76 1.44-3.04 3.04-3.04.8 0 1.6.32 2.24.96s.96 1.44.96 2.24v9.6 1.44l.96.96c1.12 1.12 1.76 2.56 1.76 4.16a5.96 5.96 0 0 1-5.92 5.6zm.8-8.8v-7.36c0-.48-.32-.8-.8-.8s-.8.32-.8.8v7.36c-1.28.32-2.4 1.6-2.4 3.04a3.21 3.21 0 0 0 3.2 3.2 3.21 3.21 0 0 0 3.2-3.2c-.16-1.44-1.12-2.72-2.4-3.04z"/></g><path d="M185.64 22.32c-.16-.16-.16-.16 0 0-.32-.32-.48-.32-.64-.32s-.32 0-.48.16l-.16.16c-2.4 2.24-10.88 11.84-10.88 20.16a11.47 11.47 0 1 0 23.04 0c0-8.32-8.64-18.08-10.88-20.16zm1.92 8.48c.64-.64 1.6-.64 2.24 0a1.45 1.45 0 0 1 .48 1.12 1.73 1.73 0 0 1-.48 1.12l-7.36 7.36c-.64.64-1.6.64-2.24 0s-.64-1.6 0-2.24l7.36-7.36zm2.56 8.32c0 .8-.64 1.6-1.6 1.6-.8 0-1.6-.64-1.6-1.6 0-.8.64-1.6 1.6-1.6s1.6.8 1.6 1.6zm-8.8-8.8c.8 0 1.6.64 1.6 1.6s-.64 1.6-1.6 1.6c-.8 0-1.6-.64-1.6-1.6s.8-1.6 1.6-1.6zm3.68 20c-4.16 0-7.52-3.2-7.84-7.2.48.48 1.12.8 2.24.8s1.76-.48 2.24-.96c.48-.32.96-.8 1.76-.8s1.28.32 1.76.8 1.12.96 2.24.96 1.76-.48 2.24-.96c.48-.32.8-.8 1.76-.8.8 0 1.12.32 1.6.64-.48 4.32-3.84 7.52-8 7.52z" class="B"/><g clip-path="url(#D)" class="B"><use href="#Q"/><use href="#R"/><path d="M225.4 37.52c.64.64 1.44.64 2.08 0 .64-.48.64-1.44 0-2.08l-1.6-1.6c-.64-.64-1.44-.64-2.08 0-.48.48-.48 1.44 0 2.08l1.6 1.6zm19.2 0l1.6-1.6c.64-.48.64-1.44 0-2.08s-1.44-.64-2.08 0l-1.6 1.6a1.68 1.68 0 0 0 0 2.08c.64.64 1.6.64 2.08 0z"/><use href="#S"/><use href="#T"/><path d="M231 29.52l2.56-2.56v6.56c0 .64.64 1.28 1.44 1.28s1.44-.64 1.44-1.44v-6.4l2.56 2.56c.32.32.64.48.96.48s.8-.16.96-.48c.64-.64.64-1.44 0-2.08l-5.12-5.12c-.64-.64-1.44-.64-2.08 0l-4.8 5.12c-.64.64-.64 1.44 0 2.08a1.68 1.68 0 0 0 2.08 0z"/></g><g clip-path="url(#E)" class="B"><path d="M285 37.68c-4.96 0-8.96 4-8.96 8.96 0 .96.8 1.76 1.76 1.76s1.76-.8 1.76-1.76c0-3.04 2.4-5.44 5.44-5.44s5.44 2.4 5.44 5.44c0 .96.8 1.76 1.76 1.76s1.76-.8 1.76-1.76c0-4.96-4-8.96-8.96-8.96zm-14.56 8.96h2.4c.8 0 1.44-.64 1.44-1.44s-.64-1.44-1.44-1.44h-2.4c-.8 0-1.44.64-1.44 1.44s.64 1.44 1.44 1.44zm4.96-9.12c.64.64 1.44.64 2.08 0 .64-.48.64-1.44 0-2.08l-1.6-1.6c-.64-.64-1.44-.64-2.08 0-.64.48-.64 1.44 0 2.08l1.6 1.6zm19.2 0l1.6-1.6c.48-.48.48-1.44 0-2.08-.64-.64-1.44-.64-2.08 0l-1.6 1.6c-.64.64-.64 1.44 0 2.08s1.6.64 2.08 0zm1.12 7.68c0 .8.64 1.44 1.44 1.44h2.4c.8 0 1.44-.64 1.44-1.44s-.64-1.44-1.44-1.44h-2.4c-.8 0-1.44.64-1.44 1.44zm3.52 5.28h-28.48c-.96 0-1.76.8-1.76 1.76s.8 1.76 1.76 1.76h28.48c.96 0 1.76-.8 1.76-1.76s-.8-1.76-1.76-1.76zm-15.2-16c.64.64 1.44.64 2.08 0l4.96-4.96c.64-.64.64-1.44 0-2.08s-1.44-.64-2.08 0L286.44 30v-6.56c0-.8-.64-1.44-1.44-1.44s-1.44.64-1.44 1.44V30L281 27.28c-.32-.16-.64-.32-.96-.32s-.8.16-1.12.32c-.64.64-.64 1.44 0 2.08l5.12 5.12z"/></g><g clip-path="url(#F)" class="B"><path d="M49.24 106.48H20.76c-.96 0-1.76.8-1.76 1.76s.8 1.76 1.76 1.76h28.48c.96 0 1.76-.8 1.76-1.76s-.8-1.76-1.76-1.76zM31 85.52l2.56-2.56v6.56c0 .64.64 1.28 1.44 1.28s1.44-.64 1.44-1.44v-6.4L39 85.52c.32.32.64.48.96.48s.8-.16.96-.48c.64-.64.64-1.44 0-2.08l-5.12-5.12c-.64-.64-1.44-.64-2.08 0l-4.8 5.12c-.64.64-.64 1.44 0 2.08a1.68 1.68 0 0 0 2.08 0z"/><use href="#U"/></g><g clip-path="url(#G)" class="B"><path d="M99.24 106.48H70.76c-.96 0-1.76.8-1.76 1.76s.8 1.76 1.76 1.76h28.48c.96 0 1.76-.8 1.76-1.76s-.8-1.76-1.76-1.76zm-15.2-16c.64.64 1.44.64 2.08 0l4.96-4.96c.64-.64.64-1.44 0-2.08s-1.44-.64-2.08 0L86.44 86v-6.56c0-.8-.64-1.44-1.44-1.44s-1.44.64-1.44 1.44V86L81 83.28c-.32-.16-.64-.32-.96-.32s-.8.16-1.12.32c-.64.64-.64 1.44 0 2.08l5.12 5.12zm-7.2 13.76c0 .16.16.16.16.16h16s.16 0 .16-.16c.64-1.6.64-3.36.32-5.12 0-.16-.32-.16-.32 0-.8 1.28-2.24 2.24-4 2.4-2.08.32-4.16-.32-5.44-1.92-1.76-1.92-1.76-4.48-.8-6.56 0-.16 0-.32-.16-.32-1.76.48-3.36 1.44-4.8 3.36s-2.08 4.48-1.44 6.88c0 .48.16.96.32 1.28z"/></g><g clip-path="url(#H)" class="B"><path d="M142.84 83.92h-.32l-.16-.32c-1.44-3.36-4.64-5.44-8.48-5.44a9.01 9.01 0 0 0-8.48 5.92v.32h-.32c-3.52 1.28-5.92 4.8-5.92 8.48 0 3.52 1.92 6.56 4.96 8l1.76-3.04c-1.92-.96-3.2-2.88-3.2-4.96 0-2.56 1.92-4.96 4.48-5.44l1.12-.32.32-1.12c.48-2.56 2.72-4.32 5.6-4.32 2.72 0 4.96 1.76 5.44 4.32l.16 1.28h1.92c3.04 0 5.6 2.56 5.6 5.6 0 2.24-1.28 4.16-3.2 4.96l1.76 3.04c2.88-1.44 4.96-4.64 4.96-8 0-4.48-3.36-8.32-8-8.96zm-5.44 5.6c-.48-.8-1.44-1.44-2.4-1.44s-1.92.48-2.4 1.44l-9.28 16c-.48.8-.48 1.92 0 2.88.48.8 1.44 1.44 2.4 1.44h18.56c.96 0 1.92-.48 2.4-1.44.48-.8.48-1.92 0-2.88l-9.28-16zm-10.4 16.8l8-13.92 8 13.92h-16zm6.88-9.12v3.36a1.12 1.12 0 1 0 2.24 0V97.2a1.12 1.12 0 1 0-2.24 0zm1.12 5.44a1.12 1.12 0 1 0 0 2.24 1.12 1.12 0 1 0 0-2.24z"/></g><path d="M194.12 87.28c-1.6-3.52-5.12-6.08-9.12-6.08-4.8 0-8.96 3.52-9.92 8.16-3.52.96-6.08 4-6.08 7.84a9.06 9.06 0 0 0 .48 2.88c0 .16.16.48.32.64.32.48.8.8 1.44.8.96 0 1.76-.8 1.76-1.76 0-.32 0-.48-.16-.64v-.16c-.16-.48-.32-1.12-.32-1.76 0-1.76.96-3.36 2.56-4 .64-.32 1.28-.64 1.92-.64.48 0 1.12.16 1.6.32-.16-.48-.16-.96-.16-1.6s.16-1.44.32-2.08c.8-2.56 3.36-4.48 6.24-4.48 2.24 0 4.16 1.12 5.44 2.88.48.96.96 2.08.96 3.36.48-.16.96-.32 1.6-.32.8 0 1.44.16 2.08.48 1.44.8 2.4 2.24 2.4 4 0 1.28-.48 2.4-1.28 3.2 0 0-.16 0-.16.16-.32.32-.48.8-.48 1.28 0 .96.8 1.76 1.76 1.76.32 0 .64-.16.96-.32l.16-.16.16-.16.16-.16c1.44-1.44 2.24-3.36 2.24-5.6 0-4-3.04-7.36-6.88-7.84zm-8.64 12.8l1.92-2.4c.64-.8.48-1.92-.32-2.4-.8-.64-1.92-.48-2.4.32l-1.92 2.4c-.64.8-.48 1.92.32 2.4.64.64 1.76.48 2.4-.32zm-5.76 1.44l-1.92 2.4c-.64.8-.48 1.92.32 2.4s1.92.48 2.4-.32l1.92-2.4c.64-.8.48-1.92-.32-2.4-.64-.48-1.76-.48-2.4.32zm10.88-5.92l-1.92 2.4c-.64.8-.48 1.92.32 2.4.8.64 1.92.48 2.4-.32l1.92-2.4c.64-.8.48-1.92-.32-2.4-.64-.64-1.76-.48-2.4.32zm-4.64 5.92l-1.92 2.4c-.64.8-.48 1.92.32 2.4.8.64 1.92.48 2.4-.32l1.92-2.4c.64-.8.48-1.92-.32-2.4-.64-.48-1.76-.48-2.4.32zm-6.56-1.28l1.92-2.4c.64-.8.48-1.92-.32-2.4-.8-.64-1.92-.48-2.56.16l-1.92 2.4c-.48.8-.32 1.92.32 2.4s1.92.48 2.56-.16z" class="B"/><g clip-path="url(#I)" class="B"><path d="M235 78c-8.8 0-16 7.2-16 16s7.2 16 16 16 16-7.2 16-16-7.2-16-16-16zm0 28.48A12.5 12.5 0 0 1 222.52 94 12.5 12.5 0 0 1 235 81.52 12.5 12.5 0 0 1 247.48 94 12.5 12.5 0 0 1 235 106.48zm9.6-8.48h-3.36c-.16 0-.16 0-.32.16-.8 1.12-1.92 2.08-3.2 2.72h-.16c-.8.32-1.6.48-2.56.48s-1.76-.16-2.56-.48h-.16-.16c-1.28-.48-2.4-1.44-3.2-2.56 0-.16-.16-.16-.32-.16h-3.36c-.16 0-.48.32-.32.48.32.8.8 1.76 1.44 2.4 1.92 2.56 5.12 4.16 8.48 4.16.48 0 .96 0 1.44-.16.32 0 .64-.16.96-.16h.16c.96-.16 1.76-.48 2.56-.96l.16-.16c1.28-.64 2.4-1.6 3.2-2.72.64-.8 1.12-1.6 1.44-2.4.16-.48 0-.64-.16-.64zm-9.6.96a3.21 3.21 0 0 0 3.2-3.2c0-1.44-.96-2.56-2.24-3.04l-2.4-3.52c-.32-.32-.8-.16-.8.16l-.16 4.32c-.48.64-.8 1.28-.8 2.08a3.21 3.21 0 0 0 3.2 3.2zm0-2.08c-.64 0-.96-.48-.96-.96 0-.64.48-1.12.96-1.12s1.12.48 1.12 1.12c0 .48-.48.96-1.12.96zm0-8.96c.8 0 1.44-.64 1.44-1.44V84.4c0-.8-.64-1.44-1.44-1.44s-1.44.64-1.44 1.44v2.08c0 .8.64 1.44 1.44 1.44zm-6.24 1.76c.32.32.64.48.96.48s.8-.16.96-.48c.64-.48.64-1.44 0-2.08l-1.44-1.44c-.32-.32-.64-.32-.96-.32s-.8 0-1.12.32a1.68 1.68 0 0 0 0 2.08l1.6 1.44zm-1.28 5.76c.8 0 1.44-.64 1.44-1.44s-.64-1.44-1.44-1.44h-2.08c-.8 0-1.44.64-1.44 1.44s.64 1.44 1.44 1.44h2.08zm16.96-2.88h-2.08c-.8 0-1.44.64-1.44 1.44s.64 1.44 1.44 1.44h2.08c.8 0 1.44-.64 1.44-1.44s-.64-1.44-1.44-1.44zm-4.16-2.4c.32 0 .8-.16.96-.48l1.44-1.44c.64-.64.64-1.44 0-2.08-.32-.32-.64-.48-.96-.48s-.8.16-.96.48l-1.44 1.44c-.64.64-.64 1.44 0 2.08.16.32.64.48.96.48z"/></g><g clip-path="url(#J)" class="B"><use href="#V"/><path d="M288.52 100.24c-.96 0-1.76.8-1.76 1.76v3.04c0 .96.8 1.76 1.76 1.76s1.76-.8 1.76-1.76V102c0-.96-.8-1.76-1.76-1.76zm-5.12 3.2c-.96 0-1.76.8-1.76 1.76v3.04c0 .96.64 1.76 1.76 1.76.96 0 1.76-.8 1.76-1.76v-3.04c0-.96-.8-1.76-1.76-1.76zm4.64-22.56c.16.48.8.8 1.28.48.48-.16.8-.64.48-1.12l-.64-1.44c-.16-.48-.8-.8-1.28-.48-.48.16-.8.8-.48 1.28l.64 1.28zm6.08.64c.48.16 1.12 0 1.28-.48l.8-1.44c.16-.48 0-1.12-.48-1.28s-1.12 0-1.28.48l-.64 1.44c-.32.48-.16 1.12.32 1.28zm4.8 4.16l1.44-.64c.48-.16.8-.8.48-1.28-.16-.48-.8-.8-1.28-.48l-1.44.64c-.48.16-.8.8-.48 1.28.16.48.8.64 1.28.48zm1.28 4.48l-1.44-.64c-.48-.16-1.12 0-1.28.48s0 1.12.48 1.28l1.44.64c.48.16 1.12 0 1.28-.48.32-.48.16-1.12-.48-1.28z"/><path d="M291.24 89.52c-.16-4.64-4-8.32-8.64-8.32-4.8 0-8.64 3.84-8.64 8.64-1.12.32-2.08.96-2.88 1.76-1.28 1.28-2.08 3.2-2.08 5.12 0 2.4 1.12 4.48 2.88 5.92.16 0 .16.16.32.16.32.16.64.32.96.32.96 0 1.76-.8 1.76-1.76 0-.64-.32-1.12-.64-1.44l-.16-.16c-.96-.64-1.6-1.76-1.6-3.04 0-.96.32-1.92 1.12-2.72.32-.32.96-.64 1.44-.96l2.4-.64v-2.56c0-2.88 2.4-5.12 5.12-5.12s4.96 2.24 5.12 4.96l.16 3.2 3.2.16c1.92.16 3.68 1.76 3.68 3.84 0 .96-.48 1.92-1.12 2.72-.32.32-.64.48-.96.64-.48.32-.8.8-.8 1.44 0 .96.8 1.76 1.76 1.76.16 0 .48 0 .64-.16.16 0 .32-.16.48-.32.48-.32.8-.64 1.28-.96 1.28-1.28 2.08-3.2 2.08-5.12.16-4-3.04-7.2-6.88-7.36zm.16-4.48h.32c1.28 0 2.4 1.12 2.4 2.4 0 .48-.16.8-.32 1.28.8.32 1.6.64 2.4 1.28.48-.8.64-1.6.64-2.56a5.33 5.33 0 0 0-5.28-5.28c-.8 0-1.44.16-2.08.48.8.64 1.44 1.6 1.92 2.4z"/></g><g clip-path="url(#K)" class="B"><path d="M48.44 151.12l-5.92 1.6-1.92-1.12v-3.2l2.08-1.12 5.92 1.6h.32a1.54 1.54 0 0 0 1.44-1.12c.16-.8-.32-1.6-.96-1.76l-3.2-.8 1.92-1.12c.64-.32.96-1.28.48-1.92-.32-.64-1.28-.96-1.92-.48l-1.92 1.12.8-3.04c.16-.8-.32-1.6-.96-1.76-.8-.16-1.6.32-1.76.96l-1.6 5.92-2.08 1.12-2.72-1.6V142l4.32-4.32c.64-.64.64-1.44 0-2.08s-1.44-.64-2.08 0l-2.24 2.24v-2.08c0-.8-.64-1.44-1.44-1.44s-1.44.64-1.44 1.44V138l-2.24-2.24c-.64-.64-1.44-.64-2.08 0s-.48 1.44 0 2.08l4.32 4.16v2.4l-2.72 1.6-2.08-1.28-1.6-5.92c-.16-.64-.96-1.12-1.6-.96-.8.32-1.28 1.12-1.12 1.76l.8 3.04-1.76-.96c-.64-.32-1.6-.16-1.92.48s-.16 1.6.48 1.92l1.92 1.12-3.2.8c-.8.32-1.12 1.12-.96 1.76a1.54 1.54 0 0 0 1.44 1.12h.32l5.92-1.6 1.92 1.12v3.2l-2.08 1.12-5.92-1.6c-.8-.16-1.6.32-1.76.96-.16.8.32 1.6.96 1.76l3.2.96-1.92 1.12c-.64.32-.96 1.28-.48 1.92.32.48.8.8 1.28.8.32 0 .48 0 .64-.16l1.92-1.12-.8 3.04c-.16.8.32 1.6.96 1.76h.32a1.54 1.54 0 0 0 1.44-1.12l1.6-5.92 2.08-1.12 2.72 1.6v2.4l-4.32 4.32c-.64.64-.64 1.44 0 2.08.32.32.64.48.96.48s.8-.16.96-.48l2.24-2.24v2.24c0 .8.64 1.44 1.44 1.44s1.44-.64 1.44-1.44v-2.24l2.24 2.24c.64.64 1.44.64 2.08 0s.64-1.44 0-2.08L36.44 158v-2.4l2.72-1.6 2.08 1.12 1.6 5.92a1.54 1.54 0 0 0 1.44 1.12h.32c.8-.16 1.28-.96.96-1.76l-.8-3.04 1.92 1.12c.16.16.48.16.64.16.48 0 .96-.32 1.28-.8.32-.64.16-1.6-.48-1.92l-2.08-1.12 3.04-.8c.8-.16 1.28-.96.96-1.76 0-.8-.8-1.28-1.6-1.12zm-11.36 0L35 152.4l-2.08-1.12v-2.4L35 147.6l2.08 1.12v2.4z"/></g><g clip-path="url(#L)" class="B"><path d="M78.6 134c-3.68 0-6.56 2.88-6.56 6.56V150c-1.76 1.76-2.72 4.16-2.72 6.72A9.29 9.29 0 0 0 78.6 166a9.29 9.29 0 0 0 9.28-9.28c0-2.56-.96-4.96-2.72-6.56v-9.6c-.16-1.76-.8-3.36-2.08-4.64-1.12-1.28-2.88-1.92-4.48-1.92zm0 28.48c-3.2 0-5.76-2.56-5.76-5.76 0-1.6.64-3.04 1.76-4.16l.8-1.12v-10.88c0-1.76 1.44-3.04 3.2-3.04.8 0 1.6.32 2.24.96s.96 1.44.96 2.24v9.6 1.44l.96.96c1.12 1.12 1.76 2.56 1.76 4.16a5.96 5.96 0 0 1-5.92 5.6zm0-16.96c-.48 0-.8.32-.8.8v7.36c-1.28.32-2.4 1.6-2.4 3.04a3.21 3.21 0 0 0 3.2 3.2 3.21 3.21 0 0 0 3.2-3.2c0-1.44-.96-2.72-2.4-3.04v-7.36c0-.48-.48-.8-.8-.8zm8.8-4.8v3.84c.64 0 1.44.32 1.92.96a3.09 3.09 0 0 1 0 4.48c-.32.32-.64.48-.96.64.64 1.12 1.12 2.24 1.44 3.52.8-.32 1.44-.8 2.08-1.44 2.72-2.72 2.88-7.04.16-9.76-1.12-1.44-2.88-2.24-4.64-2.24zm9.76-1.76c-.32 0-.64.16-.8.32l-1.92 1.28c-.64.48-.8 1.28-.32 1.92.32.32.64.64 1.12.64.32 0 .64-.16.8-.32l1.92-1.28c.64-.48.8-1.28.32-1.92-.32-.48-.8-.64-1.12-.64zm-.16 8.8a1.54 1.54 0 0 0-1.44 1.12c-.16.8.48 1.44 1.12 1.6l2.24.32h.16a1.54 1.54 0 0 0 1.44-1.12c.16-.8-.48-1.44-1.12-1.6l-2.24-.32H97zm-3.84 6.4c-.16 0-.48 0-.64.16l-.64.48c-.48.32-.48.96-.16 1.44l1.76 2.56a.88.88 0 0 0 .8.48c.16 0 .48 0 .64-.16l.64-.48c.48-.32.48-.96.16-1.44l-1.76-2.56c-.16-.48-.48-.48-.8-.48zm-4-20.16a1.54 1.54 0 0 0-1.44 1.12l-.32 2.24c-.16.8.48 1.44 1.12 1.6h.16a1.54 1.54 0 0 0 1.44-1.12l.32-2.24c.16-.8-.48-1.44-1.12-1.6h-.16z"/></g><g clip-path="url(#M)" class="B"><path d="M131.8 142.16c1.12-.48 2.08-.64 3.2-.64 3.52 0 6.56 2.08 7.84 5.28.32.8 1.28 1.28 2.08.8l1.6-.64 3.36-1.44a1.54 1.54 0 0 0 1.12-1.44c0-.16 0-.32-.16-.64-.32-.8-1.28-1.28-2.08-.8l-3.36 1.44c-1.12-1.92-2.56-3.36-4.32-4.32l1.44-3.36c.32-.8 0-1.76-.8-2.08s-1.76 0-2.08.8l-1.44 3.36c-.96-.32-2.08-.32-3.04-.32s-2.08.16-3.04.48l-1.6-3.68c-.32-.8-1.28-1.12-2.08-.8s-1.28 1.28-.8 2.08l1.44 3.36c-1.92 1.12-3.36 2.56-4.48 4.32l-3.36-1.44c-.8-.32-1.76 0-2.08.8s0 1.76.8 2.08l3.36 1.44c-.48 1.92-.64 4 0 6.08l-3.36 1.44c-.8.32-1.28 1.28-.8 2.08.32.8 1.28 1.28 2.08.8l3.36-1.44c1.12 1.76 2.56 3.36 4.32 4.32l-1.44 3.36c0 .16-.16.48-.16.64 0 .64.32 1.28.96 1.44.8.32 1.76 0 2.08-.8l1.44-3.36.64-1.6c.32-.8 0-1.6-.64-2.08h-.16c-2.08-.8-3.68-2.4-4.48-4.64-.8-2.08-.8-4.48 0-6.4.8-2.08 2.56-3.68 4.64-4.48zm18.56 10.72a2.03 2.03 0 0 0-2.88 0l-9.6 9.6a2.036 2.036 0 1 0 2.88 2.88l9.6-9.6a2.03 2.03 0 0 0 0-2.88zm-11.04 3.52a2.12 2.12 0 0 0 2.08-2.08 2.12 2.12 0 0 0-2.08-2.08 2.12 2.12 0 0 0-2.08 2.08 2.12 2.12 0 0 0 2.08 2.08zm9.6 5.44a2.12 2.12 0 0 0-2.08 2.08 2.12 2.12 0 0 0 2.08 2.08 2.12 2.12 0 0 0 2.08-2.08 2.12 2.12 0 0 0-2.08-2.08z"/></g><g clip-path="url(#N)" class="B"><path d="M200.36 153.04c-1.92-3.2-6.56-8.64-15.36-8.64-8.96 0-13.44 5.44-15.36 8.64-.48.64-.64 1.44-.64 2.24 0 .64.16 1.44.64 2.08.32.64.8 1.28 1.44 2.08l.48.48s0 .16.16.16c2.24 2.88 6.56 5.92 13.28 5.92 4.48 0 7.84-1.44 10.4-3.2l.48-.48.32-.32c2.08-1.6 3.36-3.52 4.16-4.8.32-.64.64-1.44.64-2.08s-.16-1.44-.64-2.08zm-2.88 2.56c-1.6 2.56-5.28 7.04-12.48 7.04s-10.88-4.32-12.48-7.04a1.02 1.02 0 0 1 0-.96c1.6-2.56 5.28-6.88 12.48-6.88s10.88 4.32 12.48 6.88a1.02 1.02 0 0 1 0 .96zm-7.52-1.12c-.16 0-.16 0 0 0h-.16a3.96 3.96 0 0 1-4-4v-.16c0-.32-.32-.48-.48-.48H185c-3.04 0-5.44 2.4-5.44 5.44s2.4 5.44 5.44 5.44 5.44-2.4 5.44-5.44v-.16c0-.32-.32-.64-.48-.64zM185 142c.96 0 1.76-.64 1.76-1.6v-4.8c0-.8-.8-1.6-1.76-1.6s-1.76.64-1.76 1.6v4.8c0 .8.8 1.6 1.76 1.6zm-11.84 2.24c.48.64 1.6.64 2.4.16s.8-1.6.32-2.24l-3.2-3.84c-.48-.64-1.6-.64-2.4-.16s-.8 1.6-.32 2.24l3.2 3.84zm23.68 0l3.04-3.68c.48-.64.48-1.76-.32-2.24-.8-.64-1.76-.64-2.4.16l-2.88 3.52c-.48.64-.48 1.76.32 2.24.64.64 1.76.64 2.24 0z"/></g><g clip-path="url(#O)" class="B"><path d="M250.52 148.56c-.32-.32-.64-.8-.8-1.12l-.48-1.44c0-.32-.16-.64-.16-.96v-.16c0-.48 0-.96.16-1.44 0-.16 0-.16.16-.32v-.16c0-.16 0-.32-.16-.48.16-.48 0-.48 0-.64-.48-.8-.8-1.6-.8-2.4v-.32c0-.8.16-1.44.48-2.08.16-.16.16-.32.32-.48 0-.16.16-.32.16-.32v-.64c0-.8-.64-1.44-1.44-1.44h-.8c-6.4.64-11.68 4.96-13.6 10.88-.32 1.12-.64 2.24-.64 3.52H223c-.48 0-.64-.16-.8-.32s-.32-.48-.32-.64c0-.48.32-.8.96-.96.8 0 1.44-.8 1.28-1.6 0-.8-.8-1.44-1.6-1.28-1.92.16-3.36 1.76-3.52 3.68 0 .96.32 1.92 1.12 2.72s1.76 1.28 2.88 1.28h9.92c.16 1.28.48 2.72.8 4 2.08 5.76 7.36 9.92 13.6 10.4h.48.48c.64-.16 1.28-.64 1.28-1.44 0-.32-.16-.64-.32-.8s-.32-.48-.32-.64c-.32-.64-.48-1.44-.48-2.24 0-.32 0-.64.16-.8.16-.8.48-1.6.96-2.24l.16-.16c.16-.16.16-.48.16-.64s0-.32-.16-.48c-.16-.48-.32-1.12-.32-1.6v-.32-.32c0-.8.16-1.44.48-2.08 0-.16.16-.16.16-.32.16-.32.48-.8.8-1.12.16-.16.32-.48.32-.8-.16-.64-.32-.96-.64-1.28zm-4.8-11.2c-.16.64-.16 1.12-.16 1.76 0 .96.16 1.76.48 2.56-1.12 0-2.08.16-3.2.48-2.4.48-4.48 1.44-6.24 3.04 1.6-4 4.96-6.88 9.12-7.84zm.16 25.28c-4.32-.96-7.84-4.16-9.44-8.32a15.7 15.7 0 0 0 9.76 3.36 9.06 9.06 0 0 0-.48 2.88c-.16.8 0 1.44.16 2.08zm.48-7.68c-3.36 0-6.56-1.12-8.96-3.52h9.44c-.32.8-.48 1.76-.48 2.72v.8zm-9.28-6.4c1.76-1.76 3.84-3.04 6.4-3.68.96-.16 1.92-.32 2.88-.32v.48c0 1.28.32 2.56.8 3.68h-10.08v-.16zm-5.44-7.36h1.12c.8 0 1.44-.64 1.44-1.44s-.64-1.44-1.44-1.44h-1.12c-.8 0-1.44.64-1.44 1.44s.64 1.44 1.44 1.44zm-9.44 0h5.44c.8 0 1.44-.64 1.44-1.44s-.64-1.44-1.44-1.44h-5.44c-.8 0-1.44.64-1.44 1.44s.64 1.44 1.44 1.44zm6.08 12.96h-7.84c-.8 0-1.44.64-1.44 1.44s.64 1.44 1.44 1.44h3.52 4.16c.8 0 1.6.64 1.6 1.6 0 .8-.64 1.6-1.6 1.6-.48 0-.96-.32-1.28-.64s-.64-.64-1.12-.64c-.8 0-1.44.64-1.44 1.44s.64 1.44 1.28 1.92c.8.48 1.6.8 2.56.8 2.4 0 4.48-1.92 4.48-4.48s-1.92-4.48-4.32-4.48z"/></g><g clip-path="url(#P)" class="B"><path d="M285 134c-8.8 0-16 7.2-16 16s7.2 16 16 16 16-7.2 16-16-7.2-16-16-16zm0 28.48A12.5 12.5 0 0 1 272.52 150 12.5 12.5 0 0 1 285 137.52 12.5 12.5 0 0 1 297.48 150 12.5 12.5 0 0 1 285 162.48zm.48-22.24a.5.5 0 0 0-.96 0l-5.92 17.6c-.16.48.32.8.64.48l5.44-3.04c.16-.16.32-.16.48 0l5.44 3.04c.32.16.8-.16.64-.48l-5.76-17.6z"/></g><defs><clipPath id="A"><path transform="translate(19 22)" d="M0 0h32v32H0z" class="B"/></clipPath><clipPath id="B"><path transform="translate(69 22)" d="M0 0h32v32H0z" class="B"/></clipPath><clipPath id="C"><path transform="translate(119 22)" d="M0 0h32v32H0z" class="B"/></clipPath><clipPath id="D"><path transform="translate(219 22)" d="M0 0h32v32H0z" class="B"/></clipPath><clipPath id="E"><path transform="translate(269 22)" d="M0 0h32v32H0z" class="B"/></clipPath><clipPath id="F"><path transform="translate(19 78)" d="M0 0h32v32H0z" class="B"/></clipPath><clipPath id="G"><path transform="translate(69 78)" d="M0 0h32v32H0z" class="B"/></clipPath><clipPath id="H"><path transform="translate(119 78)" d="M0 0h32v32H0z" class="B"/></clipPath><clipPath id="I"><path transform="translate(219 78)" d="M0 0h32v32H0z" class="B"/></clipPath><clipPath id="J"><path transform="translate(269 78)" d="M0 0h32v32H0z" class="B"/></clipPath><clipPath id="K"><path transform="translate(19 134)" d="M0 0h32v32H0z" class="B"/></clipPath><clipPath id="L"><path transform="translate(69 134)" d="M0 0h32v32H0z" class="B"/></clipPath><clipPath id="M"><path transform="translate(119 134)" d="M0 0h32v32H0z" class="B"/></clipPath><clipPath id="N"><path transform="translate(169 134)" d="M0 0h32v32H0z" class="B"/></clipPath><clipPath id="O"><path transform="translate(219 134)" d="M0 0h32v32H0z" class="B"/></clipPath><clipPath id="P"><path transform="translate(269 134)" d="M0 0h32v32H0z" class="B"/></clipPath><path id="Q" d="M235 37.68c-4.96 0-8.96 4-8.96 8.96 0 .96.8 1.76 1.76 1.76s1.76-.8 1.76-1.76c0-3.04 2.4-5.44 5.44-5.44s5.44 2.4 5.44 5.44c0 .96.8 1.76 1.76 1.76s1.76-.8 1.76-1.76c0-4.96-4-8.96-8.96-8.96z"/><path id="R" d="M220.44 46.64h2.4c.8 0 1.44-.64 1.44-1.44s-.64-1.44-1.44-1.44h-2.4c-.8 0-1.44.64-1.44 1.44s.64 1.44 1.44 1.44z"/><path id="S" d="M245.72 45.2c0 .8.64 1.44 1.44 1.44h2.4c.8 0 1.44-.64 1.44-1.44s-.64-1.44-1.44-1.44h-2.4c-.8 0-1.44.64-1.44 1.44z"/><path id="T" d="M249.24 50.48h-28.48c-.96 0-1.76.8-1.76 1.76s.8 1.76 1.76 1.76h28.48c.96 0 1.76-.8 1.76-1.76s-.8-1.76-1.76-1.76z"/><path id="U" d="M26.84 104.24c0 .16.16.16.16.16h16s.16 0 .16-.16c.64-1.6.64-3.36.32-5.12 0-.16-.32-.16-.32 0-.8 1.28-2.24 2.24-4 2.4-2.08.32-4.16-.32-5.44-1.92-1.76-1.92-1.76-4.48-.8-6.56 0-.16 0-.32-.16-.32-1.76.48-3.36 1.44-4.8 3.36s-2.08 4.48-1.44 6.88c0 .48.16.96.32 1.28z"/><path id="V" d="M278.12 100.24c-.96 0-1.76.8-1.76 1.76v3.04c0 .96.8 1.76 1.76 1.76s1.76-.8 1.76-1.76V102c0-.96-.8-1.76-1.76-1.76z"/></defs></svg>