<svg xmlns="http://www.w3.org/2000/svg" width="320" height="188" fill="none" xmlns:v="https://vecta.io/nano"><style><![CDATA[.B{fill:#fff}]]></style><rect x=".5" y=".5" width="319" height="187" rx="3.5" fill="#0350b1"/><rect x=".5" y=".5" width="319" height="187" rx="3.5" stroke="#0f488e"/><g clip-path="url(#A)" class="B"><path d="M45.867 42.133H20.434c-.667 0-1.233-.567-1.233-1.233s.567-1.233 1.233-1.233h25.433a2.467 2.467 0 1 0 0-4.933c-1.367 0-1.233-.567-1.233-1.233s.567-1.233 1.233-1.233c2.733 0 4.933 2.233 4.933 4.933a4.97 4.97 0 0 1-4.933 4.933zM40.933 54c-1.6 0-3.1-.8-4.033-2.1-.4-.567-.267-1.333.3-1.733s1.333-.267 1.733.3c.467.667 1.233 1.033 2.033 1.033a2.467 2.467 0 1 0 0-4.933H30.333c-.667 0-1.233-.567-1.233-1.233s.567-1.233 1.233-1.233h10.633c2.733 0 4.933 2.233 4.933 4.933a4.97 4.97 0 0 1-4.933 4.933l-.033.033zm-15.566-7.4h-4.933c-.667 0-1.233-.567-1.233-1.233s.567-1.233 1.233-1.233h4.933c.667 0 1.233.567 1.233 1.233s-.567 1.233-1.233 1.233zm13.1-9.4h-3.7c-.667 0-1.233-.567-1.233-1.233s.567-1.233 1.233-1.233h3.7c.667 0 1.233-.567 1.233-1.233s-.567-1.233-1.233-1.233-1.233-.567-1.233-1.233.567-1.233 1.233-1.233c2.033 0 3.7 1.667 3.7 3.7s-1.667 3.7-3.7 3.7zm-12-1.3a6.99 6.99 0 0 1-6.967-6.967c0-3.834 3.133-6.933 6.967-6.933s6.967 3.133 6.967 6.967-3.133 6.967-6.967 6.967V35.9zm0-11.433c-2.467 0-4.5 2-4.5 4.5a4.48 4.48 0 0 0 4.5 4.5 4.48 4.48 0 0 0 4.5-4.5 4.48 4.48 0 0 0-4.5-4.5z"/></g><g clip-path="url(#B)" class="B"><path d="M91.5 53H75.267C71.833 53 69 50.2 69 46.733s.6-3.1 1.667-4.233c.9-.967 2.067-1.6 3.367-1.867a10.16 10.16 0 0 1 3.3-3.533c1.6-1.067 3.5-1.6 5.433-1.6s4.733.867 6.567 2.467c1.533 1.367 2.633 3.133 3.1 5.1 2.333.433 4.067 2.467 4.067 4.9s-2.233 5-5 5V53zm-8.767-15a7.43 7.43 0 0 0-4.067 1.2 7.48 7.48 0 0 0-2.7 3.133c-.2.4-.6.667-1.033.7-.933.067-1.8.5-2.467 1.167-.633.7-1 1.6-1 2.533a3.73 3.73 0 0 0 3.733 3.733h16.267a2.52 2.52 0 0 0 2.5-2.5 2.52 2.52 0 0 0-2.5-2.5h-.133C90.7 45.467 90.2 45 90.1 44.4c-.267-1.767-1.133-3.4-2.467-4.567-1.367-1.2-3.1-1.867-4.9-1.867V38zM96 40.5h-1.533c-.7 0-1.267-.567-1.267-1.267s.567-1.267 1.267-1.267H96a2.52 2.52 0 0 0 2.5-2.5 2.52 2.52 0 0 0-2.5-2.5h-.133c-.633 0-1.133-.467-1.233-1.067-.267-1.767-1.133-3.4-2.467-4.567-1.367-1.2-3.1-1.867-4.9-1.867s-2.833.4-4.067 1.2a7.48 7.48 0 0 0-2.7 3.133c-.2.4-.6.667-1.033.7-1.867.133-3.367 1.667-3.433 3.533a1.26 1.26 0 0 1-1.3 1.2 1.26 1.26 0 0 1-1.2-1.3c.133-2.867 2.267-5.233 5.033-5.8.8-1.433 1.933-2.633 3.3-3.533 1.6-1.067 3.5-1.6 5.433-1.6s4.733.867 6.567 2.467c1.533 1.367 2.633 3.133 3.1 5.1 2.333.433 4.066 2.467 4.066 4.9s-2.233 5-5 5L96 40.5z"/></g><g clip-path="url(#C)" class="B"><path d="M144.733 54h-19.466c-3.434 0-6.267-2.8-6.267-6.267V28.267A6.26 6.26 0 0 1 125.267 22h19.5c3.433 0 6.266 2.8 6.266 6.267v19.5c0 3.433-2.8 6.267-6.266 6.267l-.034-.033zm-19.466-29.5a3.73 3.73 0 0 0-3.734 3.733v19.5a3.73 3.73 0 0 0 3.734 3.733h19.5a3.73 3.73 0 0 0 3.733-3.733V28.267a3.73 3.73 0 0 0-3.733-3.733h-19.5V24.5zm2 11.6a3.5 3.5 0 0 1-3.5-3.5c0-1.933.133-1.367 1.333-3.4l1.233-1.933c.234-.3.567-.5.967-.5s.733.2.967.5c0 .033.633.9 1.233 1.933 1.2 2.033 1.333 2.933 1.333 3.4a3.5 3.5 0 0 1-3.5 3.5h-.066zm0-6l-.167.267c-1 1.7-1 2.233-1 2.233a1.18 1.18 0 0 0 1.167 1.167 1.18 1.18 0 0 0 1.166-1.167s0-.533-1-2.233l-.166-.267zm15.466 6a3.5 3.5 0 0 1-3.5-3.5c0-1.933.134-1.367 1.334-3.4l1.233-1.933c.233-.3.567-.5.967-.5s.733.2.966.5c0 .033.634.9 1.234 1.933 1.2 2.033 1.333 2.933 1.333 3.4a3.5 3.5 0 0 1-3.5 3.5h-.067zm0-6l-.166.267c-1 1.7-1 2.233-1 2.233a1.18 1.18 0 0 0 1.166 1.167A1.18 1.18 0 0 0 143.9 32.6s0-.533-1-2.233l-.167-.267zm-15.466 19.167a3.5 3.5 0 0 1-3.5-3.5c0-1.933.133-1.367 1.333-3.4l1.233-1.933c.234-.3.567-.5.967-.5s.733.2.967.5c0 .033.633.9 1.233 1.933 1.2 2.033 1.333 2.933 1.333 3.4a3.5 3.5 0 0 1-3.5 3.5h-.066zm0-6.033l-.167.267c-1 1.7-1 2.233-1 2.233a1.18 1.18 0 0 0 1.167 1.167 1.18 1.18 0 0 0 1.166-1.167s0-.533-1-2.233l-.166-.267zm15.466 6.033a3.5 3.5 0 0 1-3.5-3.5c0-1.933.134-1.367 1.334-3.4l1.233-1.933c.233-.3.567-.5.967-.5s.733.2.966.5c0 .033.634.9 1.234 1.933 1.2 2.033 1.333 2.933 1.333 3.4a3.5 3.5 0 0 1-3.5 3.5h-.067zm0-6.033l-.166.267c-1 1.7-1 2.233-1 2.233a1.18 1.18 0 0 0 1.166 1.167 1.18 1.18 0 0 0 1.167-1.167s0-.533-1-2.233l-.167-.267zM135 49.267c-.7 0-1.267-.567-1.267-1.267V28c0-.7.567-1.267 1.267-1.267s1.267.567 1.267 1.267v20c0 .7-.567 1.267-1.267 1.267z"/><use href="#Q"/><path d="M136.534 37.067h-3.067c-.7 0-1.267-.567-1.267-1.267s.567-1.267 1.267-1.267h3.067c.7 0 1.266.567 1.266 1.267s-.566 1.267-1.266 1.267zm0 4.733h-3.067c-.7 0-1.267-.567-1.267-1.267s.567-1.267 1.267-1.267h3.067c.7 0 1.266.567 1.266 1.267s-.566 1.267-1.266 1.267zM135 49.267a2.7 2.7 0 1 0 0-5.4 2.7 2.7 0 0 0 0 5.4z"/></g><path d="M185 54c-3.567 0-6.933-1.4-9.467-3.933a13.28 13.28 0 0 1-3.9-9.467c0-3.567 1-4.767 3.067-8.267 1.433-2.433 3.367-5.167 5.667-8.1a5.81 5.81 0 0 1 4.6-2.233c1.8 0 3.5.8 4.6 2.233 2.333 2.967 4.233 5.7 5.666 8.1 2.067 3.5 3.067 6.2 3.067 8.267 0 3.567-1.4 6.933-3.9 9.467C191.867 52.6 188.5 54 184.933 54H185zm0-29.5c-1.033 0-2 .467-2.667 1.3-5.2 6.633-8.2 12.033-8.2 14.8 0 6 4.867 10.9 10.867 10.9s10.867-4.9 10.867-10.9-3-8.167-8.234-14.833a3.3 3.3 0 0 0-2.666-1.3l.033.033zm6.367 15.067c-.267 0-.534-.1-.734-.3-.7-.7-1.633-1.067-2.566-1.067-.9 0-1.8.367-2.5 1.067-.2.2-.5.3-.767.3s-.533-.1-.767-.3c-.7-.7-1.7-1.067-2.633-1.067-.867 0-1.767.4-2.433 1.067-.2.2-.5.333-.8.3-.7 0-1.267.533-1.267 1.233s.567 1.267 1.233 1.267A3.72 3.72 0 0 0 180.7 41c.2-.2.5-.3.767-.3s.6.1.8.3a3.56 3.56 0 0 0 5 0c.2-.2.5-.3.766-.3s.534.1.767.3a3.66 3.66 0 0 0 2.567 1.067c.7 0 1.266-.567 1.266-1.267a1.23 1.23 0 0 0-1.233-1.233h-.033z" class="B"/><g clip-path="url(#D)" class="B"><use href="#R"/><use href="#S"/><use href="#T"/><use href="#U"/><use href="#V"/><path d="M237.5 40.5c-.333 0-.633-.133-.9-.367l-.733-.733a1.23 1.23 0 0 0-.9-.367c-.367 0-.633.133-.9.367l-.733.733c-.5.5-1.267.5-1.767 0s-.5-1.267 0-1.767l.733-.733c1.467-1.467 3.834-1.467 5.3 0l.734.733c.5.5.5 1.267 0 1.767a1.29 1.29 0 0 1-.9.367h.066z"/><path d="M235 43c-.7 0-1.267-.567-1.267-1.267v-3.967c0-.7.567-1.267 1.267-1.267s1.267.567 1.267 1.267v3.967c0 .7-.567 1.267-1.267 1.267zm14.733 5h-29.466c-.7 0-1.267-.567-1.267-1.267s.567-1.267 1.267-1.267h29.5c.7 0 1.266.567 1.266 1.267S250.467 48 249.767 48h-.034z"/><path d="M226.333 48c-.433 0-.866-.233-1.066-.633-1-1.7-1.5-3.633-1.5-5.633 0-6.2 5.033-11.267 11.266-11.267s1.4.067 2.1.2a11.26 11.26 0 0 1 9.167 11.067c0 5.433-.567 1.267-1.267 1.267s-1.266-.567-1.266-1.267c0-4.2-3-7.833-7.134-8.6-.533-.1-1.066-.167-1.633-.167-4.833 0-8.733 3.933-8.733 8.733s.4 3.067 1.166 4.367c.334.6.134 1.367-.466 1.7a1.38 1.38 0 0 1-.634.167V48zM245 53h-20c-.7 0-1.267-.567-1.267-1.267s.567-1.267 1.267-1.267h20c.7 0 1.267.567 1.267 1.267S245.7 53 245 53z"/></g><g clip-path="url(#E)" class="B"><path d="M285 28c-.7 0-1.267-.567-1.267-1.267v-2.5c0-.7.567-1.267 1.267-1.267s1.267.567 1.267 1.267v2.5c0 .7-.567 1.267-1.267 1.267zm-6.833 1.4c-.5 0-.934-.3-1.167-.767l-.967-2.3c-.266-.633 0-1.367.667-1.633.633-.267 1.367 0 1.633.667l.967 2.3c.267.633 0 1.367-.667 1.633-.166.067-.333.1-.5.1h.034zm-5.767 3.933c-.3 0-.633-.1-.867-.367l-1.8-1.733c-.5-.467-.5-1.267 0-1.767.467-.5 1.267-.5 1.767 0l1.8 1.733c.5.467.5 1.267 0 1.767-.233.267-.567.367-.9.367zm19.433-3.933c-.166 0-.333 0-.5-.1a1.25 1.25 0 0 1-.666-1.633l.966-2.3a1.25 1.25 0 0 1 1.634-.667 1.25 1.25 0 0 1 .666 1.633l-.966 2.3c-.2.467-.667.767-1.167.767h.033zm5.767 3.933a1.29 1.29 0 0 1-.9-.367c-.467-.5-.467-1.3 0-1.767l1.8-1.733c.5-.467 1.3-.467 1.767 0 .466.5.466 1.3 0 1.767l-1.8 1.733c-.234.233-.567.367-.867.367zM285 41.967a3.76 3.76 0 0 1-2.667-1.1l-.733-.733c-.5-.5-.5-1.267 0-1.767s1.267-.5 1.767 0l.733.733a1.23 1.23 0 0 0 .9.367c.367 0 .633-.133.9-.367l.733-.733c.5-.5 1.267-.5 1.767 0s.5 1.267 0 1.767l-.733.733a3.76 3.76 0 0 1-2.667 1.1z"/><path d="M285 41.967c-.7 0-1.267-.567-1.267-1.267v-3.967c0-.7.567-1.267 1.267-1.267s1.267.567 1.267 1.267V40.7c0 .7-.567 1.267-1.267 1.267zM299.733 48h-29.466c-.7 0-1.267-.567-1.267-1.267s.567-1.267 1.267-1.267h29.5c.7 0 1.266.567 1.266 1.267S300.467 48 299.767 48h-.034z"/><path d="M276.333 48c-.433 0-.866-.233-1.066-.633-1-1.7-1.5-3.633-1.5-5.633 0-6.2 5.033-11.267 11.266-11.267S296.3 35.5 296.3 41.733 295.733 43 295.033 43s-1.266-.567-1.266-1.267c0-4.833-3.934-8.733-8.734-8.733s-8.733 3.933-8.733 8.733.4 3.067 1.167 4.367c.333.6.133 1.367-.467 1.7-.2.1-.4.167-.633.167l-.034.033zM295 53h-20c-.7 0-1.267-.567-1.267-1.267s.567-1.267 1.267-1.267h20c.7 0 1.267.567 1.267 1.267S295.7 53 295 53z"/></g><g clip-path="url(#F)" class="B"><path d="M49.433 94.733c.867 0 1.567.7 1.567 1.567s-.7 1.567-1.567 1.567-1.567-.7-1.567-1.567.7-1.567 1.567-1.567zm-5.8 7.2c0 .867.7 1.567 1.567 1.567s1.567-.7 1.567-1.567-.7-1.566-1.567-1.566-1.567.7-1.567 1.566zm-6.2-11.5c0 .867.7 1.567 1.567 1.567s1.567-.7 1.567-1.567-.7-1.567-1.567-1.567-1.567.7-1.567 1.567zm13.5 18.7c.2-.666-.167-1.366-.8-1.566-.233-.067-6.167-1.934-15-1.934S20.167 107.5 19.9 107.567a1.255 1.255 0 0 0 .733 2.4c.067 0 6.067-1.834 14.5-1.834s14.2 1.8 14.233 1.8c.133.034.267.067.367.067a1.25 1.25 0 0 0 1.2-.867zM37.7 101.867a11.5 11.5 0 0 0 1.733-1.067c.9-.633 1.333-1.733 1.133-2.833s-1-1.967-2.067-2.233c-2.867-.767-5.3-2.7-6.633-5.367a10.36 10.36 0 0 1-.367-8.5c.4-1.033.2-2.167-.567-3-.767-.767-1.9-1.067-2.933-.733a13.32 13.32 0 0 0-1.9.767c-3.1 1.567-5.367 4.2-6.433 7.467s-.8 6.733.733 9.8a12.94 12.94 0 0 0 7.467 6.433c1.333.433 2.7.667 4.033.667 2 0 3.967-.467 5.8-1.367v-.033zM29.1 80.6c.067.067.133.2.067.367-1.367 3.433-1.2 7.267.467 10.533a12.95 12.95 0 0 0 8.233 6.633c.2.033.233.2.267.267 0 .1 0 .233-.133.333-.433.333-.933.6-1.4.867-5.133 2.567-11.367.5-13.967-4.6-1.233-2.467-1.467-5.267-.6-7.9a10.17 10.17 0 0 1 5.2-6c.5-.233 1-.467 1.533-.633h.1a.38.38 0 0 1 .233.1v.033zm12.7 2.7a1.21 1.21 0 0 1-.867-.367c-.5-.5-.5-1.267 0-1.767l1.967-2c1.6-1.6 4.167-1.6 5.733 0l1.967 2c.5.5.5 1.267 0 1.767s-1.267.5-1.767 0l-1.967-2a1.57 1.57 0 0 0-2.2 0l-1.967 2a1.29 1.29 0 0 1-.9.367zm5.267 8.2v-7.633a1.23 1.23 0 0 0-1.233-1.233c-.667 0-1.233.567-1.233 1.233V91.5a1.23 1.23 0 0 0 1.233 1.233c.667 0 1.233-.567 1.233-1.233z"/></g><g clip-path="url(#G)" class="B"><path d="M99.433 94.733c.867 0 1.567.7 1.567 1.567s-.7 1.567-1.567 1.567-1.567-.7-1.567-1.567.7-1.567 1.567-1.567zm-5.8 7.2c0 .867.7 1.567 1.567 1.567s1.567-.7 1.567-1.567-.7-1.566-1.567-1.566-1.567.7-1.567 1.566zm-9.7-16.566c0 .867.7 1.567 1.567 1.567s1.567-.7 1.567-1.567-.7-1.567-1.567-1.567-1.567.7-1.567 1.567zm17 23.766c.2-.666-.166-1.366-.8-1.566-.233-.067-6.166-1.934-15-1.934S70.167 107.5 69.9 107.567a1.255 1.255 0 1 0 .733 2.4c.067 0 6.067-1.834 14.5-1.834s14.2 1.8 14.233 1.8c.133.034.267.067.367.067.534 0 1.034-.333 1.2-.867zM87.7 101.867a11.5 11.5 0 0 0 1.733-1.067c.9-.633 1.333-1.733 1.133-2.833s-1-1.967-2.067-2.233c-2.867-.767-5.3-2.7-6.633-5.367a10.36 10.36 0 0 1-.367-8.5c.4-1.033.2-2.167-.567-3-.767-.767-1.9-1.067-2.933-.733a13.32 13.32 0 0 0-1.9.767c-3.1 1.567-5.367 4.2-6.433 7.467s-.8 6.733.733 9.8a12.94 12.94 0 0 0 7.467 6.433c1.333.433 2.7.667 4.033.667 2 0 3.967-.467 5.8-1.367v-.033zM79.1 80.6c.067.067.133.2.067.367-1.367 3.433-1.2 7.267.467 10.533a12.95 12.95 0 0 0 8.233 6.633c.2.033.233.2.267.267 0 .1 0 .233-.133.333-.433.333-.933.6-1.4.867-5.133 2.567-11.367.5-13.967-4.6-1.233-2.467-1.467-5.267-.6-7.9a10.17 10.17 0 0 1 5.2-6c.5-.233 1-.467 1.533-.633h.1a.38.38 0 0 1 .233.1v.033zm16.666 12.133a4.04 4.04 0 0 1-2.867-1.2l-1.967-2c-.5-.5-.5-1.267 0-1.767s1.267-.5 1.767 0l1.967 2a1.57 1.57 0 0 0 2.2 0l1.967-2c.5-.5 1.267-.5 1.767 0s.5 1.267 0 1.767l-1.967 2a4.04 4.04 0 0 1-2.867 1.2zm1.3-5.867v-7.6c0-.7-.567-1.267-1.267-1.267a1.23 1.23 0 0 0-1.233 1.233v7.633A1.23 1.23 0 0 0 95.8 88.1c.667 0 1.233-.567 1.233-1.233h.033z"/></g><g clip-path="url(#H)" class="B"><path d="M141.633 110H128.5c-1.433 0-2.7-.733-3.433-1.967-.7-1.233-.7-2.7 0-3.933l6.566-11.2c.7-1.233 2-1.933 3.4-1.933s2.7.733 3.4 1.933l6.534 11.2a3.79 3.79 0 0 1 0 3.933 3.89 3.89 0 0 1-3.4 1.967h.066zm-6.566-16.567c-.234 0-.867.067-1.234.7l-6.566 11.2a1.41 1.41 0 0 0 0 1.434c.133.233.5.733 1.233.733h13.133c.767 0 1.134-.5 1.234-.733.133-.2.366-.8 0-1.434l-6.534-11.2c-.366-.633-1-.7-1.233-.7h-.033zm-11.634 8.5c-.133 0-.266 0-.4-.066-1.133-.367-2.166-1.1-2.9-2.067-.733-1-1.133-2.2-1.133-3.467 0-1.8.833-3.467 2.233-4.533a7.01 7.01 0 0 1-.166-1.433c0-3.6 2.866-6.567 6.433-6.7.433-1.433 1.267-2.7 2.433-3.7a7.82 7.82 0 0 1 5.2-1.967 8.32 8.32 0 0 1 5.567 2.233 8.01 8.01 0 0 1 2.3 4.3c4.5.4 8 4.2 8 8.767s-1.433 5.633-3.8 7.267c-.567.4-1.333.233-1.733-.334s-.234-1.333.333-1.733c1.7-1.167 2.7-3.1 2.7-5.2a6.32 6.32 0 0 0-6.3-6.3h-.267c-.333 0-.666-.1-.9-.333s-.4-.533-.4-.867c-.066-1.433-.633-2.767-1.666-3.767s-2.4-1.533-3.834-1.533-2.6.467-3.566 1.333c-1 .833-1.634 2-1.834 3.3a1.24 1.24 0 0 1-1.4 1.033h-.533a4.24 4.24 0 0 0-4.233 4.233c0 2.333.1 1.033.3 1.533.233.6 0 1.267-.6 1.567a3.27 3.27 0 0 0-1.767 2.9c0 1.2.967 2.7 2.333 3.167a1.22 1.22 0 0 1 .8 1.566c-.166.534-.666.867-1.2.867v-.067zm10.067 2.5c0 .867.7 1.567 1.567 1.567s1.566-.7 1.566-1.567-.7-1.566-1.566-1.566-1.567.7-1.567 1.566zm1.566-2.766c-.7 0-1.266-.567-1.266-1.267v-2.567c0-.7.566-1.233 1.266-1.233s1.267.567 1.267 1.233v2.567c0 .7-.567 1.267-1.267 1.267z"/></g><g clip-path="url(#I)" class="B"><use href="#W"/><use href="#W"/><path d="M185 108.233c-.7 0-1.267-.566-1.267-1.266V92c0-.7.567-1.267 1.267-1.267s1.267.567 1.267 1.267v14.967c0 .7-.567 1.266-1.267 1.266z"/><path d="M185 108.233c-.633 0-1.267-.233-1.767-.733l-2.866-2.867c-.5-.5-.5-1.266 0-1.766s1.266-.5 1.766 0l2.867 2.866 2.867-2.866c.5-.5 1.266-.5 1.766 0s.5 1.266 0 1.766l-2.866 2.867c-.5.5-1.134.733-1.767.733z"/></g><g clip-path="url(#J)" class="B"><path d="M235 85.267h-.134-.133-.133c-.034 0-.067 0-.1-.033s-.067 0-.1-.067c-.034 0-.067-.033-.1-.067s-.067-.033-.1-.067c0 0-.067-.067-.1-.067s-.067-.067-.067-.1c0 0-.033-.067-.067-.1 0-.033-.033-.067-.066-.1 0-.033-.034-.067-.067-.1 0-.033 0-.067-.033-.1v-.133-.133-.133-.133-.133-.133c0-.033 0-.067.033-.1 0-.033.033-.067.067-.1 0-.033.033-.067.066-.1 0-.033.034-.067.067-.1 0 0 .067-.067.067-.1s.066-.067.1-.067c0 0 .066-.067.1-.067s.066-.033.1-.067c.033 0 .066-.033.1-.067s.066 0 .1-.033h.133.133.234.133.133c.034 0 .067 0 .1.033.034 0 .067 0 .1.067.034 0 .067.033.1.067.034 0 .067.033.1.067 0 0 .067.067.1.067 0 0 .067.067.067.1 0 0 .067.067.067.1s.033.067.066.1c0 .033.034.067.067.1 0 .033 0 .067.033.1v.133.133.133.133.133.133c0 .033 0 .067-.033.1s0 .067-.067.1c0 .033-.033.067-.066.1 0 .033-.034.067-.067.1 0 0-.067.067-.067.1 0 0-.066.067-.1.067 0 0-.066.067-.1.067s-.066.033-.1.067c-.033 0-.066.033-.1.067-.033 0-.066 0-.1.033s-.066 0-.133 0h-.133-.134.034zm-7.067 2.9h-.133-.133-.134c-.066 0-.066 0-.1-.033-.033 0-.066 0-.1-.067-.033 0-.066-.033-.1-.067s-.066-.033-.1-.067c0 0-.066-.067-.1-.067 0 0-.066-.067-.066-.1 0 0-.034-.067-.067-.1 0-.033-.033-.067-.067-.1 0-.033-.033-.067-.066-.1s0-.067-.034-.1v-.133-.133-.133-.133-.133-.133c0-.033 0-.067.034-.1s0-.067.066-.1c0-.033.034-.067.067-.1 0-.033.033-.067.067-.1 0 0 .066-.067.066-.1s.067-.067.1-.067c0 0 .067-.067.1-.067s.067-.033.1-.067c.034 0 .067-.033.1-.067.034 0 .067 0 .1-.033s.067 0 .134 0h.133.233.134.133c.033 0 .067 0 .1.033.033 0 .067 0 .1.067.033 0 .067.033.1.067.033 0 .067.033.1.067 0 0 .067.067.1.067s.067.067.067.1c0 0 .066.067.066.1s.034.067.067.1c0 .033.033.067.067.1s0 .067.033.1v.133.133.133.133.133.133c0 .033 0 .067-.033.1s0 .067-.067.1c0 .033-.033.067-.067.1 0 .033-.033.067-.066.1 0 0-.067.067-.067.1 0 0-.067.067-.1.067 0 0-.067.067-.1.067s-.067.033-.1.067c-.033 0-.067.033-.1.067-.033 0-.067 0-.1.033h-.133-.134-.133.033zm14.134 14.166h-.134-.133-.133c-.034 0-.067 0-.1-.033-.034 0-.067 0-.1-.067-.034 0-.067-.033-.1-.066-.034 0-.067-.034-.1-.067 0 0-.067-.067-.1-.067 0 0-.067-.066-.067-.1 0 0-.067-.066-.067-.1s-.033-.066-.066-.1c0-.033-.034-.066-.067-.1 0-.033 0-.066-.033-.1v-.133-.133-.134V101v-.133-.134c0-.033 0-.066.033-.1s0-.066.067-.1c0-.033.033-.066.066-.1 0-.033.034-.066.067-.1 0 0 .067-.066.067-.1 0 0 .066-.066.1-.066 0 0 .066-.067.1-.067s.066-.033.1-.067c.033 0 .066-.033.1-.066.033 0 .066 0 .1-.033h.133.133.234.133.133c.067 0 .067 0 .1.033.034 0 .067 0 .1.066.034 0 .067.034.1.067.034 0 .067.033.1.067 0 0 .067.066.1.066 0 0 .067.067.067.1 0 0 .067.067.067.1s.033.067.066.1c0 .034.034.067.067.1s0 .067.033.1v.134.133.133.134.133.133c0 .034 0 .067-.033.1 0 .034 0 .067-.067.1 0 .034-.033.067-.066.1s-.034.067-.067.1c0 0-.067.067-.067.1s-.066.067-.1.067c0 0-.066.067-.1.067s-.066.033-.1.066c-.033 0-.066.034-.1.067-.033 0-.066 0-.1.033h-.133-.133-.134.034zm0-14.166h-.134-.133-.133c-.034 0-.067 0-.1-.033-.034 0-.067 0-.1-.067-.034 0-.067-.033-.1-.067-.034 0-.067-.033-.1-.067 0 0-.067-.067-.1-.067 0 0-.067-.067-.067-.1 0 0-.067-.067-.067-.1s-.033-.067-.066-.1c0-.033-.034-.067-.067-.1s0-.067-.033-.1v-.133-.133-.133-.133-.133-.133c0-.033 0-.067.033-.1s0-.067.067-.1c0-.033.033-.067.066-.1 0-.033.034-.067.067-.1 0 0 .067-.067.067-.1 0 0 .066-.067.1-.067 0 0 .066-.067.1-.067s.066-.033.1-.067c.033 0 .066-.033.1-.067.033 0 .066 0 .1-.033h.133.133.234.133.133c.034 0 .067 0 .1.033.034 0 .067 0 .1.067.034 0 .067.033.1.067.034 0 .067.033.1.067 0 0 .067.067.1.067s.067.067.067.1c0 0 .067.067.067.1s.033.067.066.1c0 .033.034.067.067.1s0 .067.033.1v.133.133.133.133.133.133c0 .067 0 .067-.033.1s0 .067-.067.1c0 .033-.033.067-.066.1 0 .033-.034.067-.067.1 0 0-.067.067-.067.1 0 0-.066.067-.1.067 0 0-.066.067-.1.067s-.066.033-.1.067c-.033 0-.066.033-.1.067-.033 0-.066 0-.1.033s-.066 0-.133 0h-.133-.134.034zm-14.134 14.166h-.133-.133-.134c-.033 0-.066 0-.1-.033-.033 0-.066 0-.1-.067-.033 0-.066-.033-.1-.066-.033 0-.066-.034-.1-.067 0 0-.066-.067-.1-.067s-.066-.066-.066-.1c0 0-.034-.066-.067-.1 0-.033-.033-.066-.067-.1 0-.033-.033-.066-.066-.1 0-.033 0-.066-.034-.1v-.133-.133-.134V101v-.133-.134c0-.033 0-.066.034-.1s0-.066.066-.1c0-.033.034-.066.067-.1 0-.033.033-.066.067-.1 0 0 .066-.066.066-.1 0 0 .067-.066.1-.066 0 0 .067-.067.1-.067s.067-.033.1-.067c.034 0 .067-.033.1-.066.034 0 .067 0 .1-.033s.067 0 .134 0h.133.233.134.133c.033 0 .067 0 .1.033.033 0 .067 0 .1.066.033 0 .067.034.1.067s.067.033.1.067c0 0 .067.066.1.066 0 0 .067.067.067.1 0 0 .066.067.066.1s.034.067.067.1c0 .034.033.067.067.1s0 .067.033.1v.134.133.133.134.133.133c0 .034 0 .067-.033.1 0 .034 0 .067-.067.1 0 .034-.033.067-.067.1 0 .034-.033.067-.066.1 0 0-.067.067-.067.1s-.067.067-.1.067c0 0-.067.067-.1.067s-.067.033-.1.066c-.033 0-.067.034-.1.067-.033 0-.067 0-.1.033h-.133-.134-.133.033zM225 95.267h-.134-.133-.133c-.034 0-.067 0-.1-.033s-.067 0-.1-.067c-.034 0-.067-.033-.1-.067s-.067-.033-.1-.067c0 0-.067-.067-.1-.067s-.067-.067-.067-.1c0 0-.033-.067-.067-.1 0-.033-.033-.067-.066-.1 0-.033-.034-.067-.067-.1 0-.033 0-.067-.033-.1v-.133-.133-.133-.133-.133-.133c0-.033 0-.067.033-.1 0-.033.033-.067.067-.1 0-.033.033-.067.066-.1 0-.033.034-.067.067-.1 0 0 .067-.067.067-.1s.066-.067.1-.067c0 0 .066-.067.1-.067s.066-.033.1-.067c.033 0 .066-.033.1-.067s.066 0 .1-.033h.133.133.234.133.133c.034 0 .067 0 .1.033.034 0 .067 0 .1.067.034 0 .067.033.1.067.034 0 .067.033.1.067 0 0 .067.067.1.067 0 0 .067.067.067.1a.45.45 0 0 0 .067.1c0 .033.033.067.066.1 0 .033.034.067.067.1 0 .033 0 .067.033.1v.133.133.133.133.133.133c0 .033 0 .067-.033.1s0 .067-.067.1c0 .033-.033.067-.066.1 0 .033-.034.067-.067.1 0 0-.067.067-.067.1 0 0-.066.067-.1.067 0 0-.066.067-.1.067s-.066.033-.1.067c-.033 0-.066.033-.1.067-.033 0-.066 0-.1.033s-.066 0-.133 0h-.133-.134.034zm20 0h-.134-.133-.133c-.034 0-.067 0-.1-.033s-.067 0-.1-.067c-.034 0-.067-.033-.1-.067s-.067-.033-.1-.067c0 0-.067-.067-.1-.067s-.067-.067-.067-.1c0 0-.033-.067-.067-.1 0-.033-.033-.067-.066-.1 0-.033-.034-.067-.067-.1 0-.033 0-.067-.033-.1v-.133-.133-.133-.133-.133-.133c0-.033 0-.067.033-.1 0-.033 0-.067.067-.1 0-.033.033-.067.066-.1 0-.033.034-.067.067-.1 0 0 .067-.067.067-.1s.066-.067.1-.067c0 0 .066-.067.1-.067s.066-.033.1-.067c.033 0 .066-.033.1-.067s.066 0 .1-.033h.133.133.234.133.133c.034 0 .067 0 .1.033.034 0 .067 0 .1.067.034 0 .067.033.1.067.034 0 .067.033.1.067 0 0 .067.067.1.067 0 0 .067.067.067.1a.45.45 0 0 0 .067.1c0 .033.033.067.066.1 0 .033.034.067.067.1 0 .033 0 .067.033.1v.133.133.133.133.133.133c0 .033 0 .067-.033.1s0 .067-.067.1c0 .033-.033.067-.066.1 0 .033-.034.067-.067.1 0 0-.067.067-.067.1 0 0-.066.067-.1.067 0 0-.066.067-.1.067s-.066.033-.1.067c-.033 0-.066.033-.1.067-.033 0-.066 0-.1.033s-.066 0-.133 0h-.133-.134.034zM235 110c-4.267 0-8.3-1.667-11.3-4.7-3.033-3-4.7-7.033-4.7-11.3s1.667-8.3 4.7-11.3c3-3.033 7.033-4.7 11.3-4.7s8.3 1.667 11.3 4.7A15.86 15.86 0 0 1 251 94c0 4.267-1.667 8.3-4.7 11.3A15.86 15.86 0 0 1 235 110zm0-29.5c-3.6 0-7 1.4-9.533 3.967A13.44 13.44 0 0 0 221.5 94c0 3.6 1.4 7 3.967 9.533A13.44 13.44 0 0 0 235 107.5c3.6 0 7-1.4 9.533-3.967A13.44 13.44 0 0 0 248.5 94c0-3.6-1.4-7-3.967-9.533A13.44 13.44 0 0 0 235 80.5zm0 22.233c-2.067 0-3.733-1.666-3.733-3.733s1.666-3.733 3.733-3.733 3.733 1.667 3.733 3.733-1.666 3.733-3.733 3.733zm0-5c-.7 0-1.267.567-1.267 1.267s.567 1.267 1.267 1.267 1.267-.567 1.267-1.267-.567-1.267-1.267-1.267z"/><path d="M235 97.733c-.7 0-1.267-.567-1.267-1.267v-7.5c0-.7.567-1.267 1.267-1.267s1.267.567 1.267 1.267v7.5c0 .7-.567 1.267-1.267 1.267z"/></g><g clip-path="url(#K)" class="B"><path d="M280.867 102.133H274.8c-3.2 0-5.8-2.6-5.8-5.766s.833-3.467 2.233-4.567a7.01 7.01 0 0 1-.166-1.433c0-3.6 2.866-6.567 6.433-6.7.433-1.433 1.267-2.7 2.433-3.7a8.03 8.03 0 0 1 5.2-1.933c1.9 0 4.067.8 5.567 2.233a8.01 8.01 0 0 1 2.3 4.3c4.5.4 8 4.2 8 8.767s-.567 1.233-1.267 1.233a1.26 1.26 0 0 1-1.266-1.233 6.32 6.32 0 0 0-6.3-6.3h-.267c-.333 0-.667-.1-.9-.333s-.4-.533-.4-.867c-.067-1.433-.633-2.767-1.667-3.767s-2.4-1.533-3.833-1.533-2.6.467-3.567 1.333c-1 .833-1.633 2-1.833 3.3a1.24 1.24 0 0 1-1.4 1.033h-.533a4.24 4.24 0 0 0-4.234 4.233c0 2.333.1 1.033.3 1.533.234.6 0 1.267-.6 1.567-1.1.567-1.766 1.7-1.766 2.9 0 1.8 1.5 3.267 3.3 3.267h6.066c.7 0 1.267.567 1.267 1.267s-.567 1.266-1.267 1.266l.034-.1zm7.766 7.3c-.2 0-.433-.066-.633-.166-.6-.334-.8-1.1-.467-1.7l7.367-12.7c.333-.6 1.1-.8 1.7-.467s.8 1.1.466 1.7l-7.366 12.7c-.234.4-.667.633-1.067.633zm-1.333-8.199a3.733 3.733 0 1 1 0-7.467 3.733 3.733 0 1 1 0 7.467zm0-5c-.7 0-1.233.567-1.233 1.267a1.23 1.23 0 0 0 1.233 1.233c.667 0 1.234-.567 1.234-1.233s-.567-1.267-1.234-1.267zM297.267 110c-2.067 0-3.734-1.667-3.734-3.767s1.667-3.733 3.734-3.733a3.73 3.73 0 0 1 3.733 3.733c0 2.067-1.667 3.767-3.733 3.767zm0-5a1.23 1.23 0 0 0-1.234 1.233c0 .667.567 1.267 1.234 1.267s1.233-.567 1.233-1.267a1.23 1.23 0 0 0-1.233-1.233zm-24.334 4.1c-.2 0-.366-.033-.566-.133a1.27 1.27 0 0 1-.567-1.667l.933-1.867a1.27 1.27 0 0 1 1.667-.566c.6.3.867 1.066.567 1.666l-.934 1.867c-.233.433-.666.7-1.1.7zm6.667 0a1.18 1.18 0 0 1-.567-.133 1.27 1.27 0 0 1-.566-1.667l.933-1.867a1.27 1.27 0 0 1 1.667-.566c.6.3.866 1.066.566 1.666l-.933 1.867c-.233.433-.667.7-1.1.7z"/></g><g clip-path="url(#L)" class="B"><path d="M31.767 154h-5.5C22.2 154 19 150.7 19 146.5s2.9-7.2 6.667-7.467c.933-1.4 2.2-2.6 3.633-3.466A11.11 11.11 0 0 1 35 134c4.8 0 9 3.067 10.567 7.533 1.433.134 2.767.767 3.733 1.834 1.067 1.166 1.667 2.733 1.667 4.4s-.4 2.7-1.133 3.766a5.71 5.71 0 0 1-3.2 2.267c-.667.167-1.367-.2-1.533-.867a1.22 1.22 0 0 1 .867-1.533c1.533-.433 2.5-1.833 2.5-3.6s-1.5-3.733-3.5-3.733H44.6a1.25 1.25 0 0 1-1.2-.934c-1-3.866-4.467-6.566-8.433-6.566s-3.067.433-4.4 1.2c-1.3.766-2.367 1.866-3.133 3.166-.233.4-.633.634-1.067.634h-.133a4.66 4.66 0 0 0-3.4 1.433c-.867.933-1.367 2.2-1.367 3.567s.5 2.633 1.367 3.566 2.067 1.434 3.4 1.434h5.5c.7 0 1.267.566 1.267 1.266s-.567 1.267-1.267 1.267l.033-.1z"/><use href="#X"/><use href="#Y"/><path d="M24.266 164.133c-.433 0-.867-.233-1.1-.633-.333-.6-.133-1.367.467-1.7l6.5-3.733c.6-.334 1.367-.134 1.7.466s.133 1.367-.467 1.7l-6.5 3.734c-.2.1-.4.166-.633.166h.033zm15.001-2.633c-.7 0-1.267-.567-1.267-1.267v-7.5c0-.7.567-1.266 1.267-1.266s1.267.566 1.267 1.266v7.5c0 .7-.567 1.267-1.267 1.267z"/><path d="M42.5 159.633c-.2 0-.433-.066-.633-.166l-6.5-3.734c-.6-.333-.8-1.1-.467-1.7s1.1-.8 1.7-.466l6.5 3.733c.6.333.8 1.1.467 1.7-.233.4-.667.633-1.1.633h.033z"/><path d="M36 159.633c-.433 0-.867-.233-1.1-.633-.333-.6-.133-1.367.467-1.7l6.5-3.733c.6-.334 1.367-.134 1.7.466s.133 1.367-.467 1.7l-6.5 3.734c-.2.1-.4.166-.633.166H36z"/></g><g clip-path="url(#M)" class="B"><path d="M77.734 156c-.7 0-1.267-.567-1.267-1.267v-14.466c0-.7.567-1.267 1.267-1.267s1.267.567 1.267 1.267v14.5c0 .7-.567 1.266-1.267 1.266V156zm12.533-2c-.7 0-1.267-.567-1.267-1.267s.567-1.266 1.267-1.266a3.734 3.734 0 1 0 0-7.467C88.2 144 89 143.433 89 142.733s.567-1.266 1.267-1.266c3.433 0 6.267 2.8 6.267 6.266A6.26 6.26 0 0 1 90.267 154z"/><use href="#Z"/><path d="M90.267 144c-.7 0-1.267-.567-1.267-1.267v-5c0-.7.567-1.266 1.267-1.266s1.267.566 1.267 1.266v5c0 .7-.567 1.267-1.267 1.267zm3.533 1.467c-.333 0-.633-.134-.9-.367-.5-.5-.5-1.267 0-1.767l3.533-3.533c.5-.5 1.267-.5 1.767 0s.5 1.267 0 1.767l-3.533 3.533a1.29 1.29 0 0 1-.9.367h.033zm3.533 10.6c-.333 0-.633-.134-.9-.367l-3.533-3.533c-.5-.5-.5-1.267 0-1.767s1.267-.5 1.767 0l3.533 3.533c.5.5.5 1.267 0 1.767a1.29 1.29 0 0 1-.9.367h.033zM99.734 149h-4.5c-.7 0-1.267-.567-1.267-1.267s.567-1.266 1.267-1.266h4.5c.7 0 1.266.566 1.266 1.266S100.433 149 99.734 149zm-19.467 17h-5c-3.433 0-6.267-2.8-6.267-6.267v-19.466A6.26 6.26 0 0 1 75.267 134h5c3.433 0 6.267 2.8 6.267 6.267v19.5c0 3.433-2.8 6.266-6.267 6.266V166zm-5-29.5a3.73 3.73 0 0 0-3.733 3.733v19.5a3.73 3.73 0 0 0 3.733 3.734h5A3.73 3.73 0 0 0 84 159.733v-19.466a3.73 3.73 0 0 0-3.733-3.734h-5v-.033zm2.466 24.5a3.734 3.734 0 1 1 0-7.467 3.734 3.734 0 1 1 0 7.467zm0-5c-.7 0-1.267.567-1.267 1.267s.567 1.266 1.267 1.266S79 157.967 79 157.267 78.433 156 77.733 156z"/><path d="M85.267 144h-2.5c-.7 0-1.267-.567-1.267-1.267s.567-1.266 1.267-1.266h2.5c.7 0 1.267.566 1.267 1.266S85.967 144 85.267 144zm0 5h-2.5c-.7 0-1.267-.567-1.267-1.267s.567-1.266 1.267-1.266h2.5c.7 0 1.267.566 1.267 1.266S85.967 149 85.267 149zm0 5h-2.5c-.7 0-1.267-.567-1.267-1.267s.567-1.266 1.267-1.266h2.5c.7 0 1.267.566 1.267 1.266S85.967 154 85.267 154z"/></g><g clip-path="url(#N)" class="B"><path d="M121.5 151.233h-1.233c-.7 0-1.267-.566-1.267-1.266s.567-1.267 1.267-1.267h1.233c.7 0 1.267.567 1.267 1.267s-.567 1.266-1.267 1.266zm20.533-11.5c-.233 0-.433-.066-.666-.2-.6-.366-.767-1.133-.4-1.733l.666-1.067c.367-.6 1.134-.766 1.734-.4s.766 1.134.4 1.734l-.667 1.066a1.2 1.2 0 0 1-1.067.6zm-13.767-.166a1.29 1.29 0 0 1-1.1-.634l-.633-1.066c-.333-.6-.133-1.367.467-1.7a1.25 1.25 0 0 1 1.7.466l.633 1.067c.333.6.133 1.367-.467 1.7-.2.1-.4.167-.633.167h.033zm-5.033 5.066a1.25 1.25 0 0 1-.6-.166l-1.1-.6c-.6-.334-.8-1.1-.466-1.7s1.1-.8 1.7-.467l1.1.6c.6.333.8 1.1.466 1.7-.233.4-.666.633-1.1.633zm11.567-6.866c-.7 0-1.267-.567-1.267-1.267v-1.233c.034-.7.6-1.267 1.267-1.267a1.29 1.29 0 0 1 1.267 1.267v1.233c0 .7-.567 1.267-1.267 1.267zM122.1 158.4c-.434 0-.867-.233-1.1-.633a1.23 1.23 0 0 1 .5-1.7l1.1-.6a1.23 1.23 0 0 1 1.7.5c.333.6.133 1.366-.5 1.7l-1.1.6c-.2.1-.4.166-.6.166v-.033zm20.6 5.433c-.433 0-.833-.2-1.067-.6l-.666-1.066c-.367-.6-.167-1.367.4-1.734.6-.366 1.366-.166 1.733.4l.667 1.067c.366.6.166 1.367-.4 1.733a1.2 1.2 0 0 1-.667.2zm-15.067.2c-.2 0-.433-.066-.633-.166-.6-.334-.8-1.1-.467-1.7l.633-1.067c.334-.6 1.1-.8 1.7-.467s.8 1.1.467 1.7l-.633 1.067a1.29 1.29 0 0 1-1.1.633h.033zM134.8 166c-.7 0-1.267-.567-1.267-1.267V163.5c0-.7.567-1.267 1.267-1.267s1.267.567 1.267 1.267v1.233c0 .7-.567 1.267-1.267 1.267zm.2-5.7a10.21 10.21 0 0 1-7.3-3.033c-1.933-1.934-3.033-4.534-3.033-7.3s1.066-5.334 3.033-7.3c1.933-1.934 4.533-3.034 7.3-3.034s3.367.4 4.833 1.2a1.253 1.253 0 1 1-1.2 2.2c-1.133-.6-2.4-.9-3.666-.9-4.3 0-7.8 3.5-7.8 7.8s3.5 7.8 7.8 7.8 4.533-1.033 6.033-2.866c.433-.534 1.233-.6 1.767-.167s.6 1.233.166 1.767c-1.966 2.4-4.866 3.766-7.966 3.766l.033.067zm1.933-5.533c-2.233 0-4.066-1.8-4.066-4.034v-4.4c0-.7.566-1.266 1.266-1.266s1.267.566 1.267 1.266v4.4c0 .834.7 1.534 1.567 1.534s1.566-.7 1.566-1.534v-4.4c0-.7.567-1.266 1.267-1.266s1.267.566 1.267 1.266v4.4c0 2.234-1.834 4.034-4.067 4.034h-.067zm10-.034c-1.067 0-2-.6-2.433-1.533-.734-1.533-1.234-4.133-1.667-6.7-.1-.667.333-1.333 1.033-1.433.667-.1 1.334.333 1.434 1.033.233 1.367.766 4.6 1.466 6.033 0 0 .067.134.2.134.1 0 .167-.034.2-.134.334-.733.834-2.366 1.367-6 .1-.666.733-1.166 1.4-1.066s1.167.733 1.067 1.4c-.467 3.133-.967 5.366-1.567 6.666-.433.967-1.367 1.6-2.467 1.6h-.033z"/></g><path d="M185 151.267c.7 0 1.267-.567 1.267-1.267a1.27 1.27 0 0 0-1.267-1.267 1.27 1.27 0 0 0-1.267 1.267 1.27 1.27 0 0 0 1.267 1.267zm11.267-8.167c-1.967-1.633-6.067-4.333-11.267-4.333s-9.3 2.733-11.267 4.333C170.9 145.433 169 148.2 169 150s1.9 4.567 4.733 6.9c1.967 1.633 6.067 4.333 11.267 4.333s9.3-2.733 11.267-4.333c2.833-2.333 4.733-5.1 4.733-6.9s-1.9-4.567-4.733-6.9zm-1.567 11.867c-1.7 1.4-5.233 3.766-9.7 3.766s-7.967-2.366-9.7-3.766c-2.667-2.2-3.8-4.367-3.8-4.967s1.167-2.767 3.8-4.967c1.7-1.4 5.233-3.766 9.7-3.766s7.967 2.366 9.7 3.766c2.667 2.2 3.8 4.367 3.8 4.967s-1.167 2.767-3.8 4.967zm-9.7-11.234c-3.433 0-6.267 2.8-6.267 6.267a6.267 6.267 0 1 0 12.534 0 6.26 6.26 0 0 0-6.267-6.267zm0 10c-2.067 0-3.733-1.667-3.733-3.733a3.73 3.73 0 0 1 3.733-3.734c2.067 0 3.733 1.667 3.733 3.734s-1.666 3.733-3.733 3.733z" class="B"/><g clip-path="url(#O)" class="B"><path d="M243.6 148.767h-23.333a1.23 1.23 0 0 1-1.234-1.234c0-.666.567-1.233 1.234-1.233h23.3a4.91 4.91 0 0 0 4.9-4.9c0-2.7-2.2-4.9-4.934-4.9s-3.5 1.333-3.5 3.167.934 2.2 1.867 2.2 1.233.566 1.233 1.233-.566 1.233-1.233 1.233c-1.167 0-2.3-.533-3.133-1.5-.767-.9-1.234-2.033-1.234-3.2s.634-3.066 1.8-4.133c1.1-1 2.6-1.567 4.2-1.567 4.1 0 7.434 3.3 7.434 7.367s-3.3 7.4-7.4 7.4l.033.067zm7.367 9.866c0-4.066-3.3-7.4-7.4-7.4h-23.3a1.23 1.23 0 0 0-1.234 1.234c0 .666.567 1.233 1.234 1.233h23.3a4.91 4.91 0 0 1 4.9 4.9c0 2.7-2.2 4.9-4.934 4.9s-3.5-1.333-3.5-3.167.934-2.2 1.867-2.2 1.233-.566 1.233-1.233-.566-1.233-1.233-1.233c-1.167 0-2.3.533-3.133 1.5-.767.9-1.234 2.033-1.234 3.2s.634 3.066 1.8 4.133c1.1 1 2.6 1.567 4.2 1.567 4.1 0 7.434-3.3 7.434-7.367v-.067zm-15.834-19.6c0-1.333-.466-2.6-1.366-3.533-.9-.967-2.167-1.5-3.5-1.5-2.467 0-4.567 2-4.567 4.367s.567 1.233 1.233 1.233 1.234-.567 1.234-1.233.966-1.867 2.066-1.867 2.367 1.067 2.367 2.533-1.133 2.567-2.567 2.567h-9.766a1.23 1.23 0 0 0-1.234 1.233c0 .667.567 1.234 1.234 1.234h9.8c2.8 0 5.066-2.267 5.066-5.067v.033zM230.267 166c-2.467 0-4.567-2-4.567-4.367s.567-1.233 1.233-1.233 1.234.567 1.234 1.233.966 1.867 2.066 1.867 2.367-1.067 2.367-2.533-1.133-2.567-2.567-2.567h-9.766a1.23 1.23 0 0 1-1.234-1.233c0-.667.567-1.234 1.234-1.234h9.8c2.8 0 5.066 2.267 5.066 5.067s-.466 2.6-1.366 3.533c-.9.967-2.167 1.5-3.5 1.5V166z"/></g><g clip-path="url(#P)" class="B"><path d="M292.333 156.3c-.5 0-1-.133-1.433-.4l-5.5-3.167c-.133-.066-.267-.1-.4-.1s-.267.034-.4.1l-5.5 3.2c-.433.267-.933.4-1.433.4-1.6 0-2.9-1.3-2.9-2.9 0-.4.066-.8.233-1.166l7.367-16.534c.466-1.033 1.5-1.733 2.633-1.733a2.87 2.87 0 0 1 2.633 1.733l7.334 16.534c.166.366.233.766.233 1.166 0 1.6-1.3 2.9-2.9 2.9l.033-.033zM285 150.533c.5 0 1 .134 1.433.4l5.5 3.2c.134.067.267.1.4.1.434 0 .767-.366.767-.766s0-.234-.067-.334l-7.3-16.566c-.133-.267-.4-.467-.733-.467s-.6.167-.7.467l-7.333 16.533a.97.97 0 0 0-.067.333c0 .434.367.767.767.767s.266-.033.4-.1l5.5-3.2c.433-.267.933-.4 1.433-.4v.033zM285 166c-.567 0-1.067-.467-1.067-1.067v-5.5c0-.566.467-1.066 1.067-1.066a1.05 1.05 0 0 1 1.066 1.066v5.5c0 .567-.466 1.067-1.066 1.067zm3.667-3.667c-.567 0-1.067-.466-1.067-1.066V157.6c0-.567.467-1.067 1.067-1.067a1.05 1.05 0 0 1 1.066 1.067v3.667c0 .566-.466 1.066-1.066 1.066zm-7.334 0c-.566 0-1.066-.466-1.066-1.066V157.6c0-.567.466-1.067 1.066-1.067s1.067.467 1.067 1.067v3.667c0 .566-.467 1.066-1.067 1.066z"/></g><defs><clipPath id="A"><path transform="translate(19 22)" d="M0 0h32v32H0z" class="B"/></clipPath><clipPath id="B"><path transform="translate(69 22)" d="M0 0h32v32H0z" class="B"/></clipPath><clipPath id="C"><path transform="translate(119 22)" d="M0 0h32v32H0z" class="B"/></clipPath><clipPath id="D"><path transform="translate(219 22)" d="M0 0h32v32H0z" class="B"/></clipPath><clipPath id="E"><path transform="translate(269 22)" d="M0 0h32v32H0z" class="B"/></clipPath><clipPath id="F"><path transform="translate(19 78)" d="M0 0h32v32H0z" class="B"/></clipPath><clipPath id="G"><path transform="translate(69 78)" d="M0 0h32v32H0z" class="B"/></clipPath><clipPath id="H"><path transform="translate(119 78)" d="M0 0h32v32H0z" class="B"/></clipPath><clipPath id="I"><path transform="translate(169 78)" d="M0 0h32v32H0z" class="B"/></clipPath><clipPath id="J"><path transform="translate(219 78)" d="M0 0h32v32H0z" class="B"/></clipPath><clipPath id="K"><path transform="translate(269 78)" d="M0 0h32v32H0z" class="B"/></clipPath><clipPath id="L"><path transform="translate(19 134)" d="M0 0h32v32H0z" class="B"/></clipPath><clipPath id="M"><path transform="translate(69 134)" d="M0 0h32v32H0z" class="B"/></clipPath><clipPath id="N"><path transform="translate(119 134)" d="M0 0h32v32H0z" class="B"/></clipPath><clipPath id="O"><path transform="translate(219 134)" d="M0 0h32v32H0z" class="B"/></clipPath><clipPath id="P"><path transform="translate(269 134)" d="M0 0h32v32H0z" class="B"/></clipPath><path id="Q" d="M136.534 32.367h-3.067c-.7 0-1.267-.567-1.267-1.267s.567-1.267 1.267-1.267h3.067c.7 0 1.266.567 1.266 1.267s-.566 1.267-1.266 1.267z"/><path id="R" d="M235 28c-.7 0-1.267-.567-1.267-1.267v-2.5c0-.7.567-1.267 1.267-1.267s1.267.567 1.267 1.267v2.5c0 .7-.567 1.267-1.267 1.267z"/><path id="S" d="M228.167 29.4c-.5 0-.934-.3-1.167-.767l-.967-2.3c-.266-.633 0-1.367.667-1.633.633-.267 1.367 0 1.633.667l.967 2.3c.267.633 0 1.367-.667 1.633-.166.067-.333.1-.5.1h.034z"/><path id="T" d="M222.4 33.333c-.3 0-.633-.1-.867-.367l-1.8-1.733c-.5-.467-.5-1.267 0-1.767.467-.5 1.267-.5 1.767 0l1.8 1.733c.5.467.5 1.267 0 1.767-.233.267-.567.367-.9.367z"/><path id="U" d="M241.833 29.4c-.166 0-.333 0-.5-.1a1.25 1.25 0 0 1-.666-1.633l.966-2.3a1.25 1.25 0 0 1 1.634-.667 1.25 1.25 0 0 1 .666 1.633l-.966 2.3c-.2.467-.667.767-1.167.767h.033z"/><path id="V" d="M247.6 33.333a1.29 1.29 0 0 1-.9-.367c-.467-.5-.467-1.3 0-1.767l1.8-1.733c.5-.467 1.3-.467 1.767 0 .466.5.466 1.3 0 1.767l-1.8 1.733c-.234.233-.567.367-.867.367z"/><path id="W" d="M194.733 99.767H190c-.7 0-1.267-.567-1.267-1.267s.567-1.267 1.267-1.267h4.733a3.73 3.73 0 0 0 3.734-3.733c0-2.067-1.5-3.733-3.5-3.733S193.7 89.2 193.7 88.5a3.73 3.73 0 0 0-3.733-3.733c-2.067 0-.834.067-1.267.233-.5.167-1.067 0-1.4-.4a6.16 6.16 0 0 0-4.833-2.333c-3.434 0-6.267 2.8-6.267 6.267s-.567 1.267-1.267 1.267c-2 0-3.5 1.6-3.5 3.733s1.667 3.733 3.734 3.733h4.733c.7 0 1.267.567 1.267 1.267S180.6 99.8 179.9 99.8h-4.733c-3.434 0-6.267-2.8-6.267-6.267s.6-3.233 1.667-4.4A5.76 5.76 0 0 1 173.7 87.4c.567-4.3 4.233-7.6 8.667-7.6s4.566.967 6.233 2.633a5.65 5.65 0 0 1 1.267-.133A6.23 6.23 0 0 1 196 87.4c1.233.233 2.333.833 3.167 1.767 1.066 1.167 1.666 2.733 1.666 4.4 0 3.433-2.8 6.267-6.266 6.267l.166-.067z"/><path id="X" d="M27.5 166c-.7 0-1.267-.567-1.267-1.267v-7.5c0-.7.567-1.266 1.267-1.266s1.267.566 1.267 1.266v7.5c0 .7-.567 1.267-1.267 1.267z"/><path id="Y" d="M30.733 164.133c-.2 0-.433-.066-.633-.166l-6.5-3.734c-.6-.333-.8-1.1-.467-1.7s1.1-.8 1.7-.466l6.5 3.733c.6.333.8 1.1.467 1.7-.233.4-.667.633-1.1.633h.033z"/><path id="Z" d="M90.267 159c-.7 0-1.267-.567-1.267-1.267v-5c0-.7.567-1.266 1.267-1.266s1.267.566 1.267 1.266v5c0 .7-.567 1.267-1.267 1.267z"/></defs></svg>