<svg xmlns="http://www.w3.org/2000/svg" width="320" height="188" fill="none" xmlns:v="https://vecta.io/nano"><style><![CDATA[.B{fill:#fff}.C{fill:#ffbf00}]]></style><rect x=".5" y=".5" width="319" height="187" rx="3.5" fill="#0350b1"/><rect x=".5" y=".5" width="319" height="187" rx="3.5" stroke="#0f488e"/><g clip-path="url(#A)"><g class="C"><path d="M45.3 46.9c0-2.033 1.633-3.667 3.667-3.667.433 0 .767-.333.767-.767s-.333-.767-.767-.767c-2.033 0-3.667-1.633-3.667-3.667 0-.433-.333-.767-.767-.767s-.767.333-.767.767c0 2.033-1.633 3.667-3.667 3.667-.433 0-.767.333-.767.767s.333.767.767.767c2.033 0 3.667 1.633 3.667 3.667 0 .433.333.767.767.767s.767-.333.767-.767zm4.933 3.033a1.78 1.78 0 0 1-1.767-1.767c0-.433-.333-.767-.767-.767s-.767.333-.767.767a1.78 1.78 0 0 1-1.767 1.767c-.433 0-.767.333-.767.767s.333.767.767.767a1.78 1.78 0 0 1 1.767 1.767c0 .433.333.767.767.767s.767-.333.767-.767a1.78 1.78 0 0 1 1.767-1.767c.433 0 .767-.333.767-.767s-.333-.767-.767-.767zM42.867 48.8c-1.467 0-2.667-1.2-2.667-2.667 0-.433-.333-.767-.767-.767s-.767.333-.767.767c0 1.467-1.2 2.667-2.667 2.667-.433 0-.767.333-.767.767s.333.767.767.767c1.467 0 2.667 1.2 2.667 2.667 0 .433.333.767.767.767s.767-.333.767-.767c0-1.467 1.2-2.667 2.667-2.667.433 0 .767-.333.767-.767s-.333-.767-.767-.767z"/></g><g class="B"><path d="M33.267 25.067c-4.533-1.367-8.833-2.633-13.1-.067-.367.2-.833.1-1.033-.267S19 23.9 19.367 23.7c4.867-2.9 9.667-1.467 14.333-.067 4.533 1.367 8.833 2.633 13.1.067.367-.2.833-.1 1.033.267s.1.833-.267 1.033c-4.667 2.8-9.2 1.633-14.333.067h.033zm0 6.066c-4.533-1.367-8.833-2.633-13.1-.067-.367.2-.833.1-1.033-.267s-.1-.833.267-1.033c4.867-2.9 9.667-1.467 14.333-.067 4.533 1.367 8.833 2.633 13.1.067.367-.2.833-.1 1.033.267s.1.833-.267 1.033c-4.633 2.8-9.1 1.633-14.333.067zm6.8 7.634H40c-2.3-.3-4.567-.8-6.767-1.567-4.533-1.367-8.833-2.633-13.1-.067-.367.2-.833.1-1.033-.267s-.1-.833.267-1.033c4.867-2.9 9.667-1.467 14.333-.067a35.71 35.71 0 0 0 6.467 1.5c.433.033.733.4.7.833-.033.4-.367.7-.767.7l-.033-.033zm-3.2 5.5l-3.6-1c-4.533-1.367-8.833-2.633-13.1-.067-.367.2-.833.1-1.033-.267s-.1-.833.267-1.033c4.867-2.9 9.667-1.467 14.333-.067l3.5 1c.4.1.667.5.567.933s-.5.667-.933.567v-.067zM19.1 49c-.2-.367-.1-.833.267-1.033 4.833-2.9 9.833-1.433 13.8-.233.4.133.633.533.5.933s-.533.633-.933.5c-4.733-1.4-8.633-2.3-12.6.067-.367.2-.833.1-1.033-.267V49z"/></g></g><g clip-path="url(#B)"><path d="M100.333 37.1c0 1.933-1.567 3.533-3.533 3.533h-3.467c-.567-.333-1.233-.533-1.967-.567.3-2.3-1.533-4.4-3.9-4.4s-.9.067-1.3.233c-.733-1.767-2.5-2.967-4.5-2.967s-.833.067-1.233.167c.233-1.6 1.633-2.8 3.267-2.8s.767.067 1.133.2c.533-1.7 2.1-2.9 3.933-2.9s3.167 1.033 3.8 2.5c2.133-.8 4.633.933 4.4 3.533 1.867.1 3.367 1.633 3.367 3.533V37.1z" class="C"/><g class="B"><path d="M97.634 33c-.067-1.167-.633-2.233-1.533-2.967-.933-.7-2.067-1-3.167-.767C92.1 27.8 90.5 26.9 88.8 26.9s-3.567 1.1-4.333 2.767l-.7-.067c-1.833 0-3.4 1.2-3.833 2.933-1.433.5-2.633 1.567-3.267 3a4.22 4.22 0 0 0-.933-.1 4.61 4.61 0 0 0-4.6 4.6c0 2.533.033.8.133 1.167-1.333.7-2.2 2.133-2.2 3.667a4.17 4.17 0 0 0 4.167 4.167h18.033c2.667 0 4.867-2.167 4.867-4.867s-.367-2.133-1-2.933h1.733c2.3 0 4.2-1.867 4.2-4.2 0-2.033-1.433-3.733-3.367-4.1l-.067.067zM91.2 47.767H73.167a2.83 2.83 0 0 1-2.833-2.833c0-1.567.767-2.3 1.933-2.667.167-.067.333-.2.4-.367a.73.73 0 0 0 0-.533c-.167-.4-.267-.833-.267-1.3 0-1.8 1.467-3.267 3.267-3.267s.733.067 1.1.2.733-.067.867-.433c.433-1.433 1.567-2.467 2.967-2.833a4.25 4.25 0 0 1 4.967 2.433.64.64 0 0 0 .833.367 3.18 3.18 0 0 1 3.5.933c.733.833.833 1.633.8 2.633 0 .367.267.667.633.667 1.833.067 3.367 1.567 3.367 3.5a3.56 3.56 0 0 1-3.533 3.533l.033-.033zm5.6-7.8h-3.3c-.4-.233-.933-.4-1.433-.5 0-1.1-.433-2.133-1.167-2.933-1.133-1.233-2.8-1.767-4.367-1.433a5.57 5.57 0 0 0-5.133-2.833c.467-.8 1.333-1.3 2.3-1.3s.6.033.9.167c.167.067.367.033.533 0 .167-.067.3-.233.333-.4a3.44 3.44 0 0 1 3.3-2.433c1.533 0 2.633.833 3.2 2.1a.64.64 0 0 0 .833.367 2.55 2.55 0 0 1 2.467.4C96 31.733 96.4 32.633 96.3 33.6c0 .167.033.367.167.5s.3.233.467.233c1.533.067 2.733 1.333 2.733 2.867 0 1.567-1.267 2.867-2.867 2.867v-.1zM81.667 34.9c-1.267 0-2.4.833-2.767 2.033-.1.333.1.733.433.833s.733-.1.833-.433a1.58 1.58 0 0 1 1.5-1.1c.7 0 .667-.3.667-.667a.67.67 0 0 0-.667-.667z"/></g></g><path d="M129.067 50c-2.634 0-4.8-2.167-4.8-4.8s2.166-4.8 4.8-4.8 4.8 2.167 4.8 4.8-2.167 4.8-4.8 4.8z" class="C"/><g class="B"><path d="M132.667 37.167V25.6c0-1.967-1.6-3.6-3.6-3.6s-3.6 1.6-3.6 3.6v11.567c-3.134 1.4-5.2 4.567-5.2 8.033s3.933 8.8 8.8 8.8 8.8-3.933 8.8-8.8a8.84 8.84 0 0 0-5.2-8.033zm-3.6 15.5c-4.134 0-7.467-3.333-7.467-7.467s1.933-5.867 4.767-6.967a.65.65 0 0 0 .433-.633v-12a2.27 2.27 0 0 1 2.267-2.267c1.266 0 2.266 1 2.266 2.267v12.033c0 .267.167.533.434.633 2.866 1.1 4.766 3.9 4.766 6.967 0 4.133-3.333 7.467-7.466 7.467v-.033zm.666-12.9V27.133a.67.67 0 0 0-.666-.667.67.67 0 0 0-.667.667v12.633c-2.7.333-4.8 2.633-4.8 5.433s2.467 5.467 5.467 5.467 5.466-2.467 5.466-5.467-2.1-5.1-4.8-5.433zm-.666 9.567c-2.267 0-4.134-1.867-4.134-4.133s1.867-4.133 4.134-4.133 4.133 1.867 4.133 4.133-1.867 4.133-4.133 4.133z"/><use href="#L"/><use href="#M"/><use href="#L" y="4.866"/><use href="#M" y="4.833"/></g><path d="M144.8 24.267c-.267-.267-.7-.267-.967 0-.2.2-4.833 5.167-4.833 9.1a5.28 5.28 0 0 0 5.333 5.2c2.9.033 5.3-2.3 5.334-5.2 0-3.933-4.667-8.9-4.834-9.1h-.033zm-.467 13.2a4.17 4.17 0 0 1-4.233-4.1.67.67 0 0 1 .667-.667.67.67 0 0 1 .666.667c.034 1.567 1.334 2.8 2.9 2.767a.67.67 0 0 1 .667.667.67.67 0 0 1-.667.667z" class="C"/><g clip-path="url(#C)"><path d="M199.5 42.967a10.36 10.36 0 1 1-20.733 0c0-5.733 10.366-20.3 10.366-20.3s10.367 14.6 10.367 20.3z" class="C"/><path d="M189.7 22.267c-.133-.167-.333-.267-.533-.267s-.434.1-.534.267c-.333.467-6.733 9.533-9.366 16.167a2.83 2.83 0 0 1-1.234-.4c-1.333-.8-2.966-.8-4.266 0-.9.533-2 .533-2.9 0-.3-.2-.734-.1-.934.233-.2.3-.1.733.234.933 1.333.8 2.966.8 4.266 0a2.83 2.83 0 0 1 2.9 0c.434.267.934.467 1.434.533-.234.7-.4 1.333-.5 1.933-.067-.033-.167-.067-.234-.133-1.3-.8-2.933-.8-4.266 0-.3.167-.4.5-.3.833.133.333.533.5.866.367 0 0 .067 0 .1-.033a2.83 2.83 0 0 1 2.9 0c.267.167.534.267.8.367 0 .733.1 1.467.234 2.167-.1-.033-.234-.1-.334-.167-1.333-.8-2.966-.8-4.266 0a2.83 2.83 0 0 1-2.9 0c-.3-.2-.734-.1-.934.233-.2.3-.1.733.234.933 1.333.8 2.966.8 4.266 0a2.83 2.83 0 0 1 2.9 0c.467.267.934.467 1.467.533 1.533 4.233 5.6 7.267 10.333 7.267S200.167 49.1 200.167 43 190.1 22.867 189.7 22.267zm-.567 30.4c-4 0-7.466-2.467-8.933-5.933.467-.1.967-.267 1.4-.533a2.83 2.83 0 0 1 2.9 0c.667.4 1.4.6 2.133.6s1.467-.2 2.134-.6c.9-.533 1.966-.533 2.866 0a.71.71 0 0 0 .867-.1c.3-.333.2-.8-.133-1.033-1.334-.8-2.967-.8-4.267 0a2.83 2.83 0 0 1-2.9 0c-1.333-.8-2.967-.8-4.267 0-.366.2-.733.333-1.133.4-.167-.7-.3-1.4-.3-2.133.733 0 1.467-.2 2.133-.6a2.83 2.83 0 0 1 2.9 0c.667.4 1.4.6 2.134.6s1.033-.1 1.5-.3c.366-.133.5-.567.3-.867l-.067-.133c-.167-.233-.467-.333-.733-.233-.8.3-1.7.233-2.434-.233-1.333-.8-2.966-.8-4.266 0-.434.267-.9.4-1.367.4.1-.667.333-1.433.6-2.233.5-.1 1-.267 1.433-.533a2.83 2.83 0 0 1 2.9 0c.667.4 1.4.6 2.134.6s1.466-.2 2.133-.6c.9-.533 1.967-.533 2.867 0 .266.167.633.133.866-.1.3-.333.2-.8-.133-1.033-1.333-.8-2.967-.8-4.267 0a2.83 2.83 0 0 1-2.9 0c-1.366-.833-3.033-.8-4.366.067 2.266-5.3 6.766-12.033 8.333-14.3 2.133 3.067 9.7 14.433 9.7 19.133 0 5.367-4.333 9.7-9.667 9.7h-.1z" class="B"/></g><g clip-path="url(#D)"><path d="M243.933 44.1a8.77 8.77 0 0 1-.633 3.267h-16.633c-.4-1-.634-2.1-.634-3.267A8.95 8.95 0 0 1 235 35.133c4.933 0 8.933 4 8.933 8.967z" class="C"/><g class="B"><use href="#N"/><path d="M228.8 34.767c.167.333.6.433.9.233s.433-.6.233-.9l-.8-1.4c-.166-.333-.6-.433-.9-.233s-.433.6-.233.9l.8 1.4zm-5.266 3.566l1.433.833c.333.167.733.067.9-.233.167-.333.067-.733-.233-.9L224.2 37.2c-.333-.167-.733-.067-.9.233-.2.333-.066.733.234.9zm21.966 5.834a.67.67 0 0 0 .667.667h1.533a.67.67 0 0 0 .667-.667.67.67 0 0 0-.667-.667h-1.533a.67.67 0 0 0-.667.667zm-23.367.666h1.667a.67.67 0 0 0 .667-.667.67.67 0 0 0-.667-.667h-1.667a.67.67 0 0 0-.666.667.67.67 0 0 0 .666.667zm22.867-5.7l1.3-.733c.334-.167.434-.6.234-.9s-.6-.433-.9-.233l-1.3.733c-.334.167-.434.6-.234.9s.6.433.9.233zm-4.733-4.1c.333.2.733.067.9-.233l.733-1.267c.433-.767-.7-1.433-1.167-.667L240 34.133c-.2.333-.067.733.233.9h.034zM250.333 46.7h-6.1c.234-.833.367-1.733.367-2.6a9.64 9.64 0 0 0-9.633-9.633 9.62 9.62 0 0 0-9.634 9.633c0 5.333.134 1.767.367 2.6h-6.033a.67.67 0 0 0-.667.667.67.67 0 0 0 .667.667h30.666a.67.67 0 0 0 .667-.667.67.67 0 0 0-.667-.667zm-23.2 0c-.266-.833-.433-1.7-.433-2.6 0-4.567 3.733-8.3 8.3-8.3s8.3 3.733 8.3 8.3-.133 1.767-.433 2.6h-15.734z"/><use href="#O"/><use href="#P"/><path d="M233.566 25.033l.767-.767v4a.67.67 0 0 0 .667.667.67.67 0 0 0 .666-.667v-4l.767.767c.267.267.667.267.933 0s.267-.667 0-.933l-1.866-1.867c-.134-.167-.334-.233-.5-.233s-.334.067-.467.2l-1.9 1.9c-.267.267-.267.667 0 .933s.667.267.933 0z"/></g></g><path d="M293.7 46.033h-17.433c.933-3.967 4.466-6.9 8.7-6.9s7.8 2.933 8.7 6.9h.033z" class="C"/><g class="B"><use href="#N" x="50" y="4"/><path d="M278.8 38.767c.167.333.6.433.9.233s.433-.6.233-.9l-.8-1.4c-.166-.333-.6-.433-.9-.233-.333.167-.433.6-.233.9l.8 1.4zm-5.267 3.566l1.434.833c.333.2.733.067.9-.233.166-.333.066-.733-.234-.9L274.2 41.2c-.333-.167-.733-.067-.9.233-.167.333-.067.733.233.9zm21.467.8l1.3-.733c.334-.167.434-.6.234-.9-.167-.333-.6-.433-.9-.233l-1.3.733c-.334.167-.434.6-.234.9s.6.433.9.233zm-4.733-4.1c.333.2.733.067.9-.233l.733-1.267c.167-.333.067-.733-.233-.9-.333-.167-.733-.067-.9.233l-.733 1.267c-.2.333-.067.733.233.9zm10.066 6.334H294.2a9.59 9.59 0 0 0-9.233-6.9c-4.334 0-8.034 2.8-9.234 6.9h-6.066a.67.67 0 0 0-.667.667.67.67 0 0 0 .667.667h30.666a.67.67 0 0 0 .667-.667.67.67 0 0 0-.667-.667zm-23.166 0C278.3 42.067 281.4 39.8 285 39.8s6.7 2.233 7.833 5.567h-15.666z"/><use href="#O" x="50" y="-1.3"/><use href="#P" x="50" y="-1.334"/><path d="M284.5 30.067c.266.267.7.267.966 0l1.9-1.9c.267-.267.267-.667 0-.933s-.666-.267-.933 0l-.767.767v-4a.67.67 0 0 0-.666-.667.67.67 0 0 0-.667.667v4l-.767-.767c-.266-.267-.666-.267-.933 0s-.267.667 0 .933l1.867 1.867v.033z"/></g><g clip-path="url(#E)"><path d="M48.9 97.133c-.8 2.167-2.133 4.067-3.833 5.6-.533.5-1.1.934-1.733 1.334H27.567c-.6-.4-1.167-.834-1.733-1.334-2.933-2.633-4.767-6.433-4.767-10.7 0-6.133 3.867-11.367 9.3-13.433a14.24 14.24 0 0 0-.933 5.067A14.37 14.37 0 0 0 43.8 98.033c7.933 0 3.5-.333 5.067-.933l.033.033z" class="C"/><g class="B"><path d="M49.334 96.7c-.167-.167-.433-.233-.633-.133-1.533.6-3.167.9-4.867.9-7.6 0-13.767-6.167-13.767-13.767s.3-3.333.9-4.867a.56.56 0 0 0-.133-.633c-.167-.167-.433-.233-.633-.133a15 15 0 0 0-9.733 14c0 6.2 1.733 7.966 4.5 10.7.5.466 1 .933 1.567 1.333h2.2a15.73 15.73 0 0 1-1.967-1.333c-3.1-2.534-5.1-6.367-5.1-10.7s3.067-10.1 7.733-12.367c-.367 1.3-.533 2.633-.567 4 0 8.267 6.733 15 15 15s2.7-.167 4-.533c-.9 1.8-2.167 3.366-3.7 4.6-.6.5-1.267.933-1.967 1.333H44.4c.533-.4 1.067-.867 1.567-1.333 1.533-1.5 2.767-3.334 3.533-5.4.067-.233 0-.467-.133-.633l-.033-.033zM38.267 85.533l.767-.767V90a.67.67 0 0 0 .667.667.67.67 0 0 0 .667-.667v-5.233l.767.767a.64.64 0 0 0 .933 0c.266-.267.267-.667 0-.933L40.2 82.733a.68.68 0 0 0-.5-.2c-.2 0-.333.067-.467.2l-1.9 1.9a.64.64 0 0 0 0 .933c.267.266.667.267.933 0v-.033z"/><path d="M50.234 102.733h-30.5a.67.67 0 0 0-.667.667.67.67 0 0 0 .667.667h30.5a.67.67 0 0 0 .667-.667.67.67 0 0 0-.667-.667zM46.1 105.7H23.9a.67.67 0 0 0-.667.667.67.67 0 0 0 .667.666h22.2a.67.67 0 0 0 .667-.666.67.67 0 0 0-.667-.667zm-5.233 2.967H29.134a.67.67 0 0 0-.667.666.67.67 0 0 0 .667.667H40.9a.67.67 0 0 0 .667-.667.67.67 0 0 0-.667-.666h-.033z"/></g></g><path d="M98.9 98.633c-.333.933-.8 1.8-1.333 2.634-.3.466-.6.9-.967 1.333H74.267l-.967-1.333c-1.433-2.234-2.233-4.867-2.233-7.7 0-6.167 3.867-11.4 9.3-13.467a14.38 14.38 0 0 0-.933 5.067A14.37 14.37 0 0 0 93.8 99.533c7.934 0 3.5-.333 5.067-.933l.033.033z" class="C"/><g class="B"><path d="M99.334 98.2c-.167-.167-.433-.233-.633-.133-1.533.6-3.167.9-4.867.9-7.6 0-13.767-6.167-13.767-13.767s.3-3.333.9-4.867c.1-.233 0-.467-.133-.633-.167-.167-.433-.233-.633-.133-5.833 2.133-9.733 7.767-9.733 13.967s.767 5.467 2.133 7.7a11.73 11.73 0 0 0 .9 1.334h1.567a20.37 20.37 0 0 1-1.033-1.334 13.65 13.65 0 0 1-2.367-7.7 13.83 13.83 0 0 1 7.7-12.367 14.65 14.65 0 0 0-.533 4c0 8.267 6.733 15 15 15s2.7-.167 4-.534c-.3.567-.6 1.134-.967 1.634-.333.466-.667.9-1.033 1.333H97.4a11.8 11.8 0 0 0 .9-1.333c.467-.767.867-1.567 1.167-2.434.067-.233 0-.467-.133-.633zm-8.201-12.033l-.767.767V81.7a.67.67 0 0 0-.667-.667.67.67 0 0 0-.667.667v5.233l-.767-.767a.64.64 0 0 0-.933 0c-.266.267-.267.667 0 .933l1.867 1.867a.68.68 0 0 0 .5.2c.2 0 .333-.067.467-.2l1.9-1.9a.64.64 0 0 0 0-.933c-.267-.266-.667-.267-.933 0v.033z"/><path d="M100.234 101.267h-30.5a.67.67 0 0 0-.667.666.67.67 0 0 0 .667.667h30.5a.67.67 0 0 0 .666-.667.67.67 0 0 0-.666-.666zm-4.134 2.966H73.9a.67.67 0 0 0-.667.667.67.67 0 0 0 .667.667h22.2a.67.67 0 0 0 .667-.667.67.67 0 0 0-.667-.667zm-5.233 2.967H79.134a.67.67 0 0 0-.667.667.67.67 0 0 0 .667.666H90.9a.67.67 0 0 0 .667-.666.67.67 0 0 0-.667-.667h-.033z"/></g><path d="M142.334 106.967h-14.667c-1.167 0-1.867-1.3-1.2-2.267L133.8 94c.567-.833 1.834-.833 2.4 0l7.334 10.7c.666.967 0 2.267-1.2 2.267z" class="C"/><path d="M144.967 88.633A5.68 5.68 0 0 0 143.633 85a5.73 5.73 0 0 0-4.433-2.067c-1.7 0-1.767.2-2.567.6-1.166-1.933-3.266-3.167-5.566-3.167-3.467 0-6.3 2.7-6.5 6.1a5.92 5.92 0 0 0-5.567 5.9c0 3.133 2.633 5.867 5.867 5.867h5.166L125.9 104.3c-.433.667-.5 1.5-.133 2.2s1.066 1.133 1.866 1.133H142.3c.8 0 1.5-.433 1.867-1.133s.333-1.533-.134-2.2l-4.166-6.067h6.2c2.666 0 4.866-2.167 4.866-4.867 0-3.267-3.066-5.467-6.033-4.733h.067zm-1.934 17.234a.78.78 0 0 1-.7.433h-14.666a.78.78 0 0 1-.7-.433c-.134-.267-.134-.567.066-.8l7.334-10.7c.166-.233.4-.333.666-.333s.5.133.667.333l7.333 10.7a.77.77 0 0 1 .067.8h-.067zm3.1-8.967h-7.1l-2.266-3.333c-.4-.567-1.067-.933-1.767-.933a2.11 2.11 0 0 0-1.767.933l-2.266 3.333h-6.1c-2.5 0-4.567-2.033-4.567-4.567s2.4-4.767 4.867-4.533c.2 0 .4-.067.533-.2s.2-.333.167-.533c-.3-2.4 1.933-5.367 5.166-5.367s3.867 1.2 4.7 3.033c.067.167.234.3.434.367s.4 0 .566-.1c.734-.467 1.567-.733 2.434-.733 1.333 0 2.566.6 3.4 1.6s1.2 2.333.933 3.633c-.033.267.067.5.267.667s.466.167.7.067c2.3-1.2 5.133.467 5.133 3.167 0 1.967-1.567 3.533-3.533 3.533l.066-.033zM131.1 83.033c-2.133 0-3.8 1.7-3.833 3.867a.67.67 0 0 0 .666.667.67.67 0 0 0 .667-.667c0-1.433 1.1-2.533 2.5-2.533s.667-.3.667-.667a.67.67 0 0 0-.667-.667zm3.367 19.634h1.066l.134-5.2h-1.334l.134 5.2zm-.167.566h1.433v1.367H134.3v-1.367z" class="B"/><g class="C"><path d="M177.2 105.933a1.85 1.85 0 0 1-1.833 1.834c-1 0-1.834-.834-1.834-1.834s1.834-3.766 1.834-3.766 1.833 2.766 1.833 3.766z"/><use href="#Q"/><use href="#Q" x="9.633"/></g><path d="M196.267 88.167c0-1.3-.5-2.533-1.367-3.533-1.033-1.133-2.467-1.8-4-1.8s-.8.033-1.2.133a6.49 6.49 0 0 0-5.733-3.433c-2.434 0-4.967 1.567-5.967 3.967-.367-.1-.767-.133-1.167-.133-2.966 0-5.366 2.4-5.366 5.367s.066 1 .2 1.467c-1.6.833-2.667 2.467-2.667 4.333 0 2.667 2.167 4.867 4.833 4.867h21.5c3.134 0 5.667-2.533 5.667-5.667s-2.033-5.133-4.767-5.567h.034zm-.934 9.867h-21.466c-1.934 0-3.534-1.567-3.534-3.533s.967-2.833 2.367-3.3c.367-.133.533-.533.4-.9-.2-.5-.333-1.033-.333-1.567 0-2.233 1.8-4.033 4.033-4.033s.933.067 1.367.233a.73.73 0 0 0 .533 0c.167-.067.3-.233.333-.4a5.15 5.15 0 0 1 4.934-3.633c2.267 0 3.933 1.233 4.766 3.133a.64.64 0 0 0 .834.367c.4-.167.866-.233 1.333-.233a4.12 4.12 0 0 1 3 1.333c.767.867 1.133 2 1 3.167 0 .167.033.367.167.5s.3.233.466.233a4.3 4.3 0 0 1 4.134 4.3 4.35 4.35 0 0 1-4.334 4.333zM183.967 82.2a3.79 3.79 0 0 0-3.667 2.7c-.1.333.1.733.434.833s.733-.1.833-.433a2.51 2.51 0 0 1 2.4-1.767c1.133 0 .667-.3.667-.667a.67.67 0 0 0-.667-.667zm-7.134 3.833a2.69 2.69 0 0 0-2.7 2.7c0 1.5.3.667.667.667a.67.67 0 0 0 .667-.667 1.35 1.35 0 0 1 1.366-1.367c.767 0 .667-.3.667-.667a.67.67 0 0 0-.667-.667zm-1.466 15.467c-.234 0-.434.1-.567.3-.467.7-1.933 3-1.933 4.133s1.133 2.5 2.5 2.5a2.52 2.52 0 0 0 2.5-2.5c0-1.366-1.5-3.466-1.934-4.133-.133-.2-.333-.3-.566-.3zm0 5.6a1.18 1.18 0 0 1-1.167-1.167c0-.633.533-1.466 1.167-2.533.633 1.033 1.166 2.133 1.166 2.533a1.18 1.18 0 0 1-1.166 1.167zm9.633-5.6c-.233 0-.433.1-.567.3-.466.7-1.933 3-1.933 4.133s1.133 2.5 2.5 2.5a2.52 2.52 0 0 0 2.5-2.5c0-1.366-1.5-3.466-1.933-4.133-.134-.2-.334-.3-.567-.3zm0 5.6c-.633 0-1.167-.533-1.167-1.167s.534-1.466 1.167-2.533c.633 1.033 1.167 2.133 1.167 2.533 0 .634-.534 1.167-1.167 1.167zm9.633-5.6c-.233 0-.433.1-.566.3-.467.7-1.934 3-1.934 4.133s1.134 2.5 2.5 2.5a2.52 2.52 0 0 0 2.5-2.5c0-1.366-1.5-3.466-1.933-4.133-.133-.2-.333-.3-.567-.3zm0 5.6a1.18 1.18 0 0 1-1.166-1.167c0-.633.533-1.466 1.166-2.533.634 1.033 1.167 2.133 1.167 2.533a1.18 1.18 0 0 1-1.167 1.167z" class="B"/><g clip-path="url(#F)"><path d="M241.367 86.667c-.3.067-7.133 1.533-9.967 4.633-1.766 2-1.6 5.033.4 6.8 1.967 1.733 4.934 1.6 6.734-.3 2.833-3.1 3.733-10.033 3.766-10.333.067-.433-.233-.8-.666-.867h-.267v.067z" class="C"/><g class="B"><path d="M235 78c-8.833 0-16 7.167-16 16s7.167 16 16 16 16-7.167 16-16-7.167-16-16-16zm0 30.467c-3.2 0-6.333-1.067-8.867-3.067 5.234-4.067 12.534-4.067 17.734 0-2.534 1.967-5.667 3.067-8.867 3.067zm10.033-4.067a16 16 0 0 0-20.1 0c-2.633-2.533-4.2-6-4.4-9.633h2.267c.433 0 .767-.333.767-.767s-.334-.767-.767-.767h-2.267c.167-3.3 1.467-6.467 3.7-8.9l1.6 1.6c.3.3.767.3 1.067 0s.3-.767 0-1.067l-1.6-1.6a14.32 14.32 0 0 1 8.9-3.7v2.267c0 .433.333.767.767.767a.75.75 0 0 0 .766-.767v-2.267c3.3.167 6.467 1.467 8.9 3.7l-1.6 1.6c-.3.3-.3.767 0 1.067s.767.3 1.067 0l1.6-1.6a14.32 14.32 0 0 1 3.7 8.9h-2.267c-.433 0-.766.333-.766.767s.333.767.766.767h2.267a14.43 14.43 0 0 1-4.4 9.633h.033zm-13.833 1.267c0 .433.334.766.767.766h6.1c.433 0 .767-.333.767-.766s-.334-.767-.767-.767h-6.1c-.433 0-.767.333-.767.767z"/></g></g><g class="B"><path d="M271.133 105.333a.63.63 0 0 1-.267-.9l2.1-4a.63.63 0 0 1 .9-.266c.334.166.434.566.267.9l-2.1 4a.63.63 0 0 1-.9.266zm5.667 0c-.333-.166-.433-.566-.267-.9l2.1-4a.63.63 0 0 1 .9-.266.66.66 0 0 1 .267.9l-2.1 4c-.167.333-.567.433-.9.266zm-7.433 3.367c-.333-.167-.433-.567-.267-.9l.334-.633a.63.63 0 0 1 .9-.267c.333.2.466.567.266.9l-.333.633a.63.63 0 0 1-.9.267zm13.133-3.367c-.333-.166-.433-.566-.267-.9l2.1-4a.63.63 0 0 1 .9-.266.63.63 0 0 1 .267.9l-2.1 4c-.167.333-.567.433-.9.266zm-7.467 3.367c-.333-.167-.433-.567-.266-.9l.333-.633a.63.63 0 0 1 .9-.267c.333.167.433.567.267.9l-.334.633a.63.63 0 0 1-.9.267zm5.667 0c-.333-.167-.433-.567-.267-.9l.334-.633a.63.63 0 0 1 .9-.267c.333.2.433.567.266.9l-.333.633a.63.63 0 0 1-.9.267zm7.467-3.367a.63.63 0 0 1-.267-.9l2.1-4a.63.63 0 0 1 .9-.266.63.63 0 0 1 .267.9l-2.1 4a.63.63 0 0 1-.9.266z"/><use href="#R"/><path d="M293.333 105.333a.63.63 0 0 1-.266-.9l2.1-4a.63.63 0 0 1 .9-.266.63.63 0 0 1 .266.9l-2.1 4a.63.63 0 0 1-.9.266z"/><use href="#R" x="5.167"/></g><path d="M300.333 92.233a4.18 4.18 0 0 1-4.2 4.2h-21.266a5.21 5.21 0 0 1-5.2-5.2c0-2.867 2.733-5.467 5.6-5.2-.334-2.767 2.166-6.133 5.833-6.133s4.4 1.4 5.3 3.4c.8-.533 1.767-.833 2.833-.833 3.167 0 5.6 2.867 5 6.033.567-.3 1.234-.467 1.934-.467a4.18 4.18 0 0 1 4.2 4.2h-.034z" class="C"/><path d="M296.133 97.1h-21.266c-3.234 0-5.867-2.633-5.867-5.9s2.633-5.733 5.567-5.867c.1-2.967 2.8-6.1 6.533-6.1s4.4 1.233 5.567 3.167c.8-.4 1.666-.6 2.533-.6a5.78 5.78 0 0 1 5.767 5.7c.366-.1.766-.133 1.166-.133 2.667 0 4.867 2.2 4.867 4.867s-2.167 4.867-4.867 4.867zm-25.8-5.9c0 2.5 2.034 4.533 4.567 4.533h21.267c1.966 0 3.533-1.567 3.533-3.533s-1.567-3.533-3.533-3.533-1.134.133-1.6.4c-.234.133-.5.1-.7-.067s-.3-.4-.267-.667c.5-2.733-1.6-5.233-4.367-5.233s-1.733.267-2.433.733c-.167.1-.367.133-.567.1-.2-.067-.333-.2-.433-.367a5.17 5.17 0 0 0-4.7-3.033c-3.167 0-5.467 2.933-5.167 5.367.067.433-.3.767-.733.733-2.467-.233-4.867 1.8-4.867 4.533v.033zm7.567-4.767a.67.67 0 0 1-.667-.667c0-2.167 1.7-3.867 3.834-3.867s.666.3.666.667a.67.67 0 0 1-.666.667c-1.4 0-2.467 1.133-2.5 2.533a.67.67 0 0 1-.667.667z" class="B"/><g clip-path="url(#G)"><path d="M35 153.167A3.17 3.17 0 0 0 38.167 150 3.17 3.17 0 0 0 35 146.833 3.17 3.17 0 0 0 31.834 150 3.17 3.17 0 0 0 35 153.167z" class="C"/><path d="M50 146.033h.133a.68.68 0 0 0 .667-.533.65.65 0 0 0-.533-.767l-3.7-.666 2.133-1.234c.333-.166.433-.6.233-.9-.167-.333-.6-.433-.9-.233l-2.133 1.233 1.267-3.533c.133-.333-.067-.733-.4-.867s-.733.067-.867.4l-1.833 5.034-2.233 1.3 1.267-3.534c.133-.333-.067-.733-.4-.866s-.733.066-.867.4L40 146.3l-2.133 1.233c-.567-.666-1.333-1.133-2.233-1.266v-2.4l3.433-4.1a.68.68 0 0 0-.067-.934c-.267-.233-.7-.2-.933.067l-2.433 2.867v-2.6l3.433-4.1a.68.68 0 0 0-.067-.934c-.267-.233-.7-.2-.933.067l-2.433 2.867v-2.4c.033-.367-.267-.667-.633-.667a.67.67 0 0 0-.667.667v2.433l-2.433-2.867c-.233-.266-.667-.333-.933-.066s-.333.666-.067.933l3.433 4.1v2.567L31.9 138.9c-.233-.267-.667-.333-.933-.067s-.333.667-.067.934l3.433 4.1v2.4c-.9.166-1.667.633-2.233 1.266l-2.133-1.233-1.833-5.033c-.133-.334-.5-.534-.867-.4-.333.133-.533.5-.4.866l1.267 3.534-2.233-1.3-1.833-5.034a.68.68 0 0 0-.867-.4.68.68 0 0 0-.4.867l1.267 3.533-2.133-1.233c-.333-.167-.733-.067-.9.233s-.067.734.233.9l2.133 1.234-3.7.666a.65.65 0 0 0-.533.767c.067.333.333.533.667.533h.133l5.267-.933 2.233 1.3-3.7.667a.65.65 0 0 0-.533.766c.067.334.333.534.667.534h.133l5.267-.934 2.133 1.234A3.62 3.62 0 0 0 31.2 150c0 .467.067.867.233 1.267l-2.033 1.166-5.267-.933a.65.65 0 0 0-.233 1.3l3.7.667-2.233 1.3-5.267-.934a.65.65 0 0 0-.233 1.3l3.7.667-2.133 1.233c-.333.167-.433.6-.233.9.2.334.6.434.9.234l2.133-1.234-1.267 3.534c-.133.333.067.733.4.866s.733-.066.867-.4l1.833-5.033 2.233-1.3-1.267 3.533c-.133.334.067.734.4.867s.733-.067.867-.4l1.833-5.033 2-1.167c.567.7 1.367 1.167 2.3 1.333v2.4l-3.433 4.1a.68.68 0 0 0 .067.934c.267.233.7.2.933-.067l2.433-2.867v2.567L31 164.9c-.233.267-.2.7.067.933s.7.2.933-.066l2.433-2.867v2.433a.67.67 0 0 0 .667.667.67.67 0 0 0 .667-.667V162.9l2.433 2.867c.233.266.667.333.933.066s.333-.666.067-.933l-3.433-4.1v-2.567L38.2 161.1c.233.267.667.333.933.067s.333-.667.067-.934l-3.433-4.1v-2.4c.933-.166 1.733-.633 2.3-1.333l2 1.167L41.9 158.6a.68.68 0 0 0 .867.4.68.68 0 0 0 .4-.867l-1.267-3.566 2.233 1.3 1.833 5.033a.68.68 0 0 0 .867.4.68.68 0 0 0 .4-.867l-1.267-3.533 2.133 1.233c.3.167.733.1.9-.233.2-.333.067-.733-.233-.9l-2.133-1.233 3.7-.667a.65.65 0 0 0-.233-1.3l-5.267.933-2.233-1.3 3.7-.666a.65.65 0 0 0-.233-1.3l-5.267.933-2.033-1.167c.133-.4.233-.833.233-1.266a4.48 4.48 0 0 0-.233-1.334L40.9 147.4l5.267.933h.133a.68.68 0 0 0 .667-.533.65.65 0 0 0-.533-.767l-3.7-.666 2.233-1.3 5.267.933-.233.033zM35 152.5a2.52 2.52 0 0 1-2.5-2.5 2.52 2.52 0 0 1 2.5-2.5 2.52 2.52 0 0 1 2.5 2.5 2.52 2.52 0 0 1-2.5 2.5z" class="B"/></g><path d="M78.833 162c-2.633 0-4.8-2.167-4.8-4.8s2.167-4.8 4.8-4.8 4.8 2.167 4.8 4.8-2.167 4.8-4.8 4.8z" class="C"/><path d="M82.433 149.167V137.6c0-1.967-1.6-3.6-3.6-3.6s-3.6 1.6-3.6 3.6v11.567c-3.133 1.4-5.2 4.566-5.2 8.033s3.933 8.8 8.8 8.8 8.8-3.933 8.8-8.8c0-3.467-2.067-6.633-5.2-8.033zm-3.6 15.5c-4.133 0-7.467-3.334-7.467-7.467s1.933-5.867 4.767-6.967a.65.65 0 0 0 .433-.633v-12a2.27 2.27 0 0 1 2.267-2.267c1.267 0 2.267 1 2.267 2.267v12.033c0 .267.167.534.433.634 2.867 1.1 4.767 3.9 4.767 6.966 0 4.134-3.333 7.467-7.467 7.467v-.033zm.667-12.9v-12.634a.67.67 0 0 0-.667-.666.67.67 0 0 0-.667.666v12.634c-2.7.333-4.8 2.633-4.8 5.433s2.467 5.467 5.467 5.467S84.3 160.2 84.3 157.2s-2.1-5.1-4.8-5.433zm-.667 9.566c-2.267 0-4.133-1.866-4.133-4.133s1.867-4.133 4.133-4.133 4.133 1.866 4.133 4.133-1.867 4.133-4.133 4.133z" class="B"/><path d="M92.2 136.967a.74.74 0 0 0 .733-.734v-.5A.74.74 0 0 0 92.2 135a.74.74 0 0 0-.733.733v.5a.74.74 0 0 0 .733.734zm-.767 12.266v.5a.74.74 0 0 0 .733.734.74.74 0 0 0 .733-.734v-.5a.74.74 0 0 0-.733-.733.74.74 0 0 0-.733.733zm-3.3-10.566c.3-.3.3-.767 0-1.067l-.367-.367c-.3-.3-.767-.3-1.067 0s-.3.767 0 1.067l.367.367c.3.3.767.3 1.067 0zm8.134 9.166l.367.367c.3.3.767.3 1.067 0s.3-.767 0-1.067l-.367-.366c-.3-.3-.767-.3-1.067 0s-.3.766 0 1.066zm-9.833-5.1A.74.74 0 0 0 85.7 142h-.5a.74.74 0 0 0-.733.733.74.74 0 0 0 .733.734h.5a.74.74 0 0 0 .733-.734zm12.266.734h.5a.74.74 0 0 0 .733-.734.74.74 0 0 0-.733-.733h-.5a.74.74 0 0 0-.733.733.74.74 0 0 0 .733.734zM88.133 146.8c-.3-.3-.767-.3-1.067 0l-.367.367c-.3.3-.3.766 0 1.066s.767.3 1.067 0l.367-.366c.3-.3.3-.767 0-1.067zm9.2-8.133l.367-.367c.3-.3.3-.767 0-1.067s-.767-.3-1.067 0l-.367.367c-.3.3-.3.767 0 1.067s.767.3 1.067 0zm-5.133 8.8a4.73 4.73 0 0 0 4.733-4.734c0-2.6-2.133-4.733-4.733-4.733s-4.733 2.133-4.733 4.733a4.73 4.73 0 0 0 4.733 4.734zm0-7.867a3.13 3.13 0 0 1 3.133 3.133c0 .334-.267.634-.633.634a.61.61 0 0 1-.633-.634c0-1.033-.833-1.866-1.867-1.866-.333 0-.633-.267-.633-.634a.61.61 0 0 1 .633-.633z" class="C"/><g clip-path="url(#H)"><g class="B"><path d="M135 161.433c-6.3 0-11.433-5.133-11.433-11.433S128.7 138.567 135 138.567 146.434 143.7 146.434 150 141.3 161.433 135 161.433zm0-21.333c-5.466 0-9.9 4.433-9.9 9.9s4.434 9.9 9.9 9.9 9.9-4.433 9.9-9.9-4.433-9.9-9.9-9.9zm-14.233 10.667h-1c-.434 0-.767-.334-.767-.767s.333-.767.767-.767h1c.433 0 .766.334.766.767s-.333.767-.766.767zm29.466 0h-1c-.433 0-.766-.334-.766-.767s.333-.767.766-.767h1c.434 0 .767.334.767.767s-.333.767-.767.767zM135 136.533c-.433 0-.767-.333-.767-.766v-1c0-.434.334-.767.767-.767s.767.333.767.767v1c0 .433-.334.766-.767.766zM135 166c-.433 0-.767-.333-.767-.767v-1c0-.433.334-.766.767-.766s.767.333.767.766v1c0 .434-.334.767-.767.767zm-10.066-25.3c-.2 0-.4-.067-.534-.233l-.733-.734c-.3-.3-.3-.766 0-1.066s.767-.3 1.067 0l.733.733c.3.3.3.767 0 1.067-.133.133-.333.233-.533.233zm20.833 20.833c-.2 0-.4-.066-.534-.233l-.733-.733c-.3-.3-.3-.767 0-1.067s.767-.3 1.067 0l.733.733c.3.3.3.767 0 1.067s-.333.233-.533.233zm-.701-20.833c-.2 0-.4-.067-.533-.233-.3-.3-.3-.767 0-1.067l.733-.733c.3-.3.767-.3 1.067 0s.3.766 0 1.066l-.733.734a.79.79 0 0 1-.534.233zm-20.833 20.833c-.2 0-.4-.066-.533-.233-.3-.3-.3-.767 0-1.067l.733-.733c.3-.3.767-.3 1.067 0s.3.767 0 1.067l-.733.733a.79.79 0 0 1-.534.233z"/></g><g class="C"><path d="M131.7 153.8a2.53 2.53 0 0 1-2.533-2.533v-4.334c0-.433.333-.766.766-.766s.767.333.767.766v4.334a1.04 1.04 0 0 0 1.033 1.033 1.04 1.04 0 0 0 1.034-1.033v-4.334c0-.433.333-.766.766-.766s.767.333.767.766v4.334a2.53 2.53 0 0 1-2.533 2.533h-.067zm6.867 0c-.334 0-.6-.2-.734-.533l-2.033-6.1c-.133-.4.067-.834.467-.967s.833.067.966.467l1.3 3.933 1.3-3.933c.134-.4.567-.6.967-.467s.6.567.467.967l-2.034 6.1c-.1.3-.4.533-.733.533h.067z"/></g></g><g clip-path="url(#I)"><path d="M198.2 157.8c-.266-2.7-2.7-4.667-5.4-4.367-1.433.134-2.733.9-3.533 2.1-1.367-.266-2.667.634-2.9 2-.033.2-.067.4-.033.634-2 1.166-2.7 3.766-1.5 5.766.766 1.3 2.133 2.1 3.633 2.1h8.3A4.24 4.24 0 0 0 201 161.8c0-1.767-1.133-3.367-2.8-3.967v-.033zm.5 4.733c-.433 0-.766-.333-.766-.766 0-.567-.4-1.034-.934-1.167a.81.81 0 0 1-.6-.9c.067-.4.5-.667.9-.6 1.267.267 2.167 1.367 2.167 2.633 0 .434-.333.767-.767.767v.033z" class="C"/><g class="B"><path d="M185 147.467a3.8 3.8 0 0 0 0 7.6 3.8 3.8 0 1 0 0-7.6zm0 6.1c-1.266 0-2.3-1.034-2.3-2.3s1.034-2.3 2.3-2.3 2.3 1.033 2.3 2.3-1.033 2.3-2.3 2.3zm0-13.734c.433 0 .767-.333.767-.766v-4.3c0-.434-.334-.767-.767-.767s-.767.333-.767.767v4.333c0 .433.334.767.767.767v-.034zm-5.467 0c.167.4.6.567 1 .4s.567-.6.4-1l-1.466-3.533c-.167-.4-.6-.567-1-.4s-.567.6-.4 1l1.466 3.533zM174.7 141.8c.3.3.767.3 1.067 0s.3-.767 0-1.067L174.033 139c-.3-.3-.766-.3-1.066 0s-.3.767 0 1.067l1.733 1.733zm14.767-1.567c.4.167.833 0 1-.4l1.466-3.533c.167-.4 0-.833-.4-1s-.833 0-1 .4l-1.466 3.533c-.167.4 0 .834.4 1zm5.833 1.567l1.733-1.733c.3-.3.3-.767 0-1.067s-.766-.3-1.066 0l-1.734 1.733c-.3.3-.3.767 0 1.067s.767.3 1.067 0zm5.6 9.1c-3.1-5.9-9.233-9.567-15.9-9.533-6.667-.034-12.8 3.633-15.9 9.533-.133.233-.133.5 0 .733 2.633 4.934 7.433 8.367 12.933 9.3.967.134 1.334-1.366.4-1.666-4.4-1.4-6.833-6.134-5.433-10.534s6.133-6.833 10.533-5.433c3.434 1.1 5.8 4.267 5.834 7.867 0 .433.366.766.766.766.434 0 .767-.366.767-.766-.033-2.467-1-4.834-2.667-6.634 3 1.467 5.5 3.834 7.134 6.734a22.53 22.53 0 0 1-1.234 1.866c-.266.334-.2.8.134 1.067a.75.75 0 0 0 1.066-.133c.567-.767 1.1-1.567 1.567-2.4.133-.234.133-.5 0-.734v-.033zm-25.8.367c0 2.466.933 4.833 2.6 6.666-2.967-1.466-5.4-3.8-7.033-6.666a16.67 16.67 0 0 1 7.1-6.734c-1.7 1.834-2.667 4.234-2.667 6.734z"/></g></g><g clip-path="url(#J)"><g class="B"><path d="M251 163.867c0-2.2-.933-4.334-2.567-5.8-3.466-3.167-7.4-1.7-9.033-1.767a15.09 15.09 0 0 0-4.367-.967c-.433 0-.766.3-.8.7 0 .434.3.767.7.8a13.43 13.43 0 0 1 3.434.734l.6 2.466A7.88 7.88 0 0 0 246.6 166h3.6c.433 0 .767-.333.767-.767v-1.366H251zm-3.6-4.667c1.167 1.067 1.867 2.5 2.033 4.033-2.133-2.233-4.6-4.133-7.266-5.633a6.41 6.41 0 0 1 5.233 1.6zm-6.9.467l-.333-1.367c3.7 1.733 6.766 4.567 8.366 6.2h-1.866c-2.9 0-5.467-1.967-6.167-4.8v-.033zm5-25.6c-.367-.2-.833-.034-1.033.333s-.034.833.333 1.033c3.133 1.567 4.667 3.667 4.667 6.434s-3.034 6.733-7.9 9c-6.3 2.933-15.334 3.6-21.334-1.434-.333-.266-.8-.233-1.066.1s-.234.8.1 1.067c3.433 2.9 7.766 4.067 12.066 4.067a25.97 25.97 0 0 0 10.867-2.4c5.5-2.567 8.8-6.434 8.8-10.367s-1.867-6-5.5-7.833zM239.067 166c.433 0 .766-.333.766-.767 0-.4-.3-.733-.7-.766-13.633-.967-18.666-8.7-18.7-8.8a.76.76 0 0 0-1.066-.234c-.367.234-.467.7-.234 1.034.2.333 5.467 8.466 19.9 9.5h.067l-.033.033zm-3.6-4.567c.433 0 .766-.3.8-.7s-.3-.766-.7-.8c-7.067-.466-9.534-3.7-9.6-3.733-.234-.333-.734-.433-1.067-.167-.333.234-.433.734-.167 1.067.1.167 2.834 3.867 10.734 4.367v-.034zm15.366-9.933c.267-.333.2-.8-.133-1.067s-.8-.2-1.067.134c-1.8 2.266-5.566 2.766-5.6 2.766-.433.067-.7.434-.666.867.066.4.433.7.833.667.167 0 4.4-.567 6.6-3.334l.033-.033zm-12.566-3.2c-.4.167-.567.6-.4 1s.6.567 1 .4c2.6-1.1 5.5-3.267 5.8-5.967.233-1.933-.833-3.766-3.1-5.5-.333-.266-.8-.2-1.067.167s-.2.8.167 1.067c1.833 1.366 2.667 2.733 2.5 4.1-.233 2.066-2.8 3.866-4.9 4.766v-.033z"/></g><path d="M235.067 147.2a11.13 11.13 0 0 1-2.334-.433c-5.6-1.7-8.7-7.7-8.733-7.767-.2-.367-.033-.833.333-1.033s.834-.034 1.034.333c.033.067 2.7 5.167 7.366 6.867V142.9c-.033-4.933-4-8.9-8.9-8.9h-4.066c-.434 0-.767.333-.767.767v4.066c0 4.9 3.967 8.867 8.9 8.9h2.967c1.3.567 2.7.934 4.1 1 .433 0 .766-.3.8-.7 0-.433-.3-.766-.7-.8v-.033z" class="C"/></g><g clip-path="url(#K)"><g class="C"><path d="M275.267 160.5a1.32 1.32 0 0 0-1.267.967l-1 3.866h4.533l-1-3.866c-.133-.567-.666-.967-1.266-.967zm-1.1-21.2h2.233c.067 0 .133.033.133.133v5.9c0 .067-.033.134-.133.134h-2.233c-.067 0-.134-.034-.134-.134v-5.9c0-.066.034-.133.134-.133zm7.133-4.633v15.366l4.633-1.133v-13.1l-4.633-1.133zm9.3 2.233v10.9l4.633-1.133v-8.634L290.6 136.9z"/></g><g class="B"><path d="M299.033 138.267l-17.533-4.234c-.267-.066-.6.034-.733.267l-3.634 5.3a1.28 1.28 0 0 0-1.166-.967v-2.666a.67.67 0 0 0-.667-.667.67.67 0 0 0-.667.667v2.666c-.666 0-1.233.6-1.233 1.3v4.867c0 .7.533 1.267 1.233 1.3v13.867c-.6.233-1.066.7-1.233 1.366l-.867 3.367h-2.4a.67.67 0 0 0-.666.667.67.67 0 0 0 .666.666h13.5a.67.67 0 0 0 .667-.666.67.67 0 0 0-.667-.667h-5.566l-.867-3.367c-.167-.633-.633-1.133-1.233-1.366V146.1c.566 0 1.033-.433 1.166-.967l3.6 5.267c.134.233.434.367.734.3l17.566-4.233c.9-.2 1.5-1 1.5-1.934v-4.366c0-1.567-1.466-1.9-1.5-1.934v.034zM285.3 148.4l-3.3.8v-13.7l3.3.8v12.067.033zm-10.6-8.433h1.133v4.8H274.7v-4.8zm-.833 24.7l.8-3.034c.066-.266.333-.466.633-.466s.533.2.633.466l.8 3.034h-2.8-.066zm3.3-22.8l3.466-5.067v11.067l-3.466-5.034v-.966zm9.433-5.234l3.3.8v9.834l-3.3.8v-11.434zm4.667 1.134l3.3.8v7.6l-3.3.8v-9.2zm7.933 6.766c0 .3-.2.534-.5.634l-2.833.666v-6.966l2.833.666c.3.067.5.334.5.634v4.366zm-10.3 9.867h-7.567a.67.67 0 0 0-.666.667.67.67 0 0 0 .666.666h7.567c1.3 0 2.367-1.066 2.367-2.366A2.38 2.38 0 0 0 288.9 151c-1.3 0-1.633.433-2.033 1.167-.2.333-.067.733.233.9s.733.066.9-.234.533-.5.9-.5a1.04 1.04 0 0 1 1.033 1.034 1.04 1.04 0 0 1-1.033 1.033zm3.8 4.467h-7.533a.67.67 0 0 0-.667.666.67.67 0 0 0 .667.667h7.533a1.04 1.04 0 0 1 1.033 1.033 1.04 1.04 0 0 1-1.033 1.034c-.567 0-.7-.2-.9-.5s-.6-.434-.9-.234c-.333.2-.433.6-.233.9a2.35 2.35 0 0 0 2.033 1.167 2.38 2.38 0 0 0 2.367-2.367c0-1.3-1.034-2.366-2.334-2.366h-.033zm3.9-2.3h-7.167a.67.67 0 0 0-.666.666.67.67 0 0 0 .666.667h7.167a.67.67 0 0 0 .667-.667.67.67 0 0 0-.667-.666z"/></g></g><defs><clipPath id="A"><path transform="translate(19 22)" d="M0 0h32v32H0z" class="B"/></clipPath><clipPath id="B"><path transform="translate(69 22)" d="M0 0h32v32H0z" class="B"/></clipPath><clipPath id="C"><path transform="translate(169 22)" d="M0 0h32v32H0z" class="B"/></clipPath><clipPath id="D"><path transform="translate(219 22)" d="M0 0h32v32H0z" class="B"/></clipPath><clipPath id="E"><path transform="translate(19 78)" d="M0 0h32v32H0z" class="B"/></clipPath><clipPath id="F"><path transform="translate(219 78)" d="M0 0h32v32H0z" class="B"/></clipPath><clipPath id="G"><path transform="translate(19 134)" d="M0 0h32v32H0z" class="B"/></clipPath><clipPath id="H"><path transform="translate(119 134)" d="M0 0h32v32H0z" class="B"/></clipPath><clipPath id="I"><path transform="translate(169 134)" d="M0 0h32v32H0z" class="B"/></clipPath><clipPath id="J"><path transform="translate(219 134)" d="M0 0h32v32H0z" class="B"/></clipPath><clipPath id="K"><path transform="translate(269 134)" d="M0 0h32v32H0z" class="B"/></clipPath><path id="L" d="M134.533 27.167h2.1a.67.67 0 0 0 .667-.667.67.67 0 0 0-.667-.667h-2.1a.67.67 0 0 0-.666.667.67.67 0 0 0 .666.667z"/><path id="M" d="M134.533 29.6h1.034a.67.67 0 0 0 .666-.667.67.67 0 0 0-.666-.667h-1.034a.67.67 0 0 0-.666.667.67.67 0 0 0 .666.667z"/><path id="N" d="M234.966 30.667a.67.67 0 0 0-.666.667v1.6a.67.67 0 0 0 .666.667.67.67 0 0 0 .667-.667v-1.6a.67.67 0 0 0-.667-.667z"/><path id="O" d="M246.167 49.667h-22.334a.67.67 0 0 0-.666.667.67.67 0 0 0 .666.667h22.3a.67.67 0 0 0 .667-.667.67.67 0 0 0-.667-.667h.034z"/><path id="P" d="M240.9 52.667h-11.8a.67.67 0 0 0-.667.667.67.67 0 0 0 .667.667h11.8a.67.67 0 0 0 .666-.667.67.67 0 0 0-.666-.667z"/><path id="Q" d="M186.833 105.933a1.85 1.85 0 0 1-1.833 1.834 1.85 1.85 0 0 1-1.833-1.834c0-1 1.833-3.766 1.833-3.766s1.833 2.766 1.833 3.766z"/><path id="R" d="M286.366 108.7a.63.63 0 0 1-.266-.9l.333-.633a.63.63 0 0 1 .9-.267c.333.2.467.567.267.9l-.334.633a.63.63 0 0 1-.9.267z"/></defs></svg>