<svg xmlns="http://www.w3.org/2000/svg" width="322" height="190" fill="#0350B1" xmlns:v="https://vecta.io/nano"><style><![CDATA[.B{fill:#fff}]]></style><rect x=".5" y=".5" width="321" height="189" rx="4.5"/><rect x=".5" y=".5" width="321" height="189" rx="4.5" stroke="#0f488e"/><g clip-path="url(#A)" class="B"><path d="M44.64 47.8v4.48a.69.69 0 0 1-.64.64H28a.69.69 0 0 1-.64-.64v-5.12-2.08-1.92-2.08-1.92-1.76-1.92-2.08-7.84a.69.69 0 0 1 .64-.64h16a.69.69 0 0 1 .64.64v6.24c-.96-.32-2.08-.64-3.68-.64-2.72 0-4.16.8-5.44 1.6s-2.24 1.44-4.48 1.44c-.64 0-1.28 0-1.76-.16v1.92c.48 0 1.12.16 1.76.16.96 0 1.76-.16 2.4-.32.8-.16 1.44-.64 2.08-.96.96-.48 1.92-1.12 3.36-1.44h.32c.48-.16 1.12-.16 1.92-.16s1.28 0 1.92.16h.32c.48.16.96.32 1.44.64.16.16.48.32.8.48s.64.32.96.64c.64.16 1.28.48 2.08.64.64.16 1.44.32 2.4.32.48 0 .96-.48.96-.96s-.48-.96-.96-.96c-2.24 0-3.2-.64-4.48-1.28v-7.36c0-1.44-1.12-2.56-2.56-2.56H28c-1.44 0-2.56 1.12-2.56 2.56v6.72c-1.12-.64-2.4-1.12-4.48-1.12-.48 0-.96.48-.96.96s.48.96.96.96c.8 0 1.28 0 1.92.16h.32c.96.16 1.6.64 2.24 1.12v1.76c-.64-.16-1.28-.48-2.08-.64s-1.44-.32-2.4-.32c-.48 0-.96.48-.96.96s.48.96.96.96c.96 0 1.6.16 2.24.32.96.32 1.6.64 2.24.96v1.76c-.64-.32-1.28-.64-2.08-.8-.64-.16-1.44-.32-2.4-.32-.48 0-.96.48-.96.96s.48.96.96.96c.96 0 1.6.16 2.24.32h.16c.8.16 1.44.64 2.08.96v1.76c-.64-.16-1.28-.48-2.08-.64-.64-.16-1.44-.32-2.4-.32-.48 0-.96.48-.96.96s.48.96.96.96c.96 0 1.76.16 2.4.32.8.16 1.44.64 2.08.96v6.08c0 1.6 1.12 2.72 2.56 2.72h16c1.44 0 2.56-1.12 2.56-2.56v-3.52c-.32-.16-.64-.32-.96-.64l-.96-.48z"/><path d="M51.04 38.2c-.96 0-1.76-.16-2.4-.32-.8-.16-1.44-.48-2.08-.8-.32-.16-.64-.32-.96-.64l-.96-.48c-.48-.16-.8-.48-1.28-.48-.64-.16-1.44-.32-2.4-.32s-1.76.16-2.4.32c-1.44.32-2.24.8-3.2 1.44-.48.32-1.12.64-1.92.96-.64.16-1.44.32-2.4.32-.64 0-1.28 0-1.76-.16v1.92c.48 0 1.12.16 1.76.16.96 0 1.76-.16 2.4-.32h.16c.64-.16 1.28-.64 1.92-.96.8-.48 1.76-1.12 3.2-1.44.64-.16 1.44-.32 2.24-.32.96 0 1.76.16 2.24.32l1.28.48.96.48c.32.16.64.32.96.64.48.32 1.12.48 1.92.64h.16c.64.16 1.44.32 2.4.32.48 0 .96-.48.96-.96s-.32-.8-.8-.8zm0 4c-.96 0-1.76-.16-2.4-.32-.8-.16-1.6-.48-2.08-.8-.32-.16-.64-.32-.96-.64l-.96-.48c-.48-.16-.8-.48-1.28-.48-.64-.16-1.44-.32-2.4-.32s-1.76.16-2.4.32a14.63 14.63 0 0 0-2.24 1.12c-.8.48-1.76 1.12-3.2 1.44-.48 0-1.12.16-2.08.16-.64 0-1.28 0-1.76-.16v1.92c.48 0 1.12.16 1.76.16.96 0 1.6-.16 2.4-.32.16 0 .16 0 .32-.16 1.28-.32 2.08-.8 2.88-1.28.64-.48 1.28-.8 2.24-1.12.64-.16 1.44-.32 2.24-.32.96 0 1.76.16 2.24.32l1.28.48.96.48c.32.16.64.32.96.64.64.32 1.28.64 2.08.8.64.16 1.44.32 2.4.32.48 0 .96-.48.96-.96s-.48-.8-.96-.8zm0 3.84c-.96 0-1.76-.16-2.4-.32-.8-.16-1.6-.48-2.08-.8-.32-.16-.64-.32-.96-.64l-.96-.48c-.32-.16-.8-.32-1.28-.48-.64-.16-1.44-.32-2.4-.32s-1.76.16-2.4.32c-.8.16-1.44.64-2.24.96-.8.48-1.76 1.12-3.2 1.44-.64.16-1.28.32-2.24.32-.64 0-1.28 0-1.76-.16v1.92c.48.16 1.12.16 1.76.16.96 0 1.6-.16 2.4-.32 1.44-.32 2.24-.8 3.2-1.44.64-.48 1.28-.8 2.24-.96.64-.16 1.44-.32 2.4-.32s1.76.16 2.4.32l1.28.48.96.48c.32.16.64.32.96.64.64.32 1.28.64 2.08.8.64.16 1.44.32 2.4.32.48 0 .96-.48.96-.96s-.64-.96-1.12-.96z"/></g><g clip-path="url(#B)" class="B"><path d="M95.6 43.16v-.32c0-4.96-4-8.96-8.96-8.96-3.52 0-6.72 2.08-8.16 5.28-.32-.16-.8-.16-1.28-.16-3.52 0-6.4 2.56-6.88 5.92 0 .32-.16.8-.16 1.12 0 3.84 3.2 7.04 7.04 7.04H94a5.05 5.05 0 0 0 5.12-5.12c0-1.28-.48-2.56-1.44-3.52-.48-.64-1.28-1.12-2.08-1.28zm-1.6 8H77.2a5.05 5.05 0 0 1-5.12-5.12v-.8c.32-2.4 2.56-4.32 5.12-4.32.64 0 1.12.16 1.6.32 1.76.64 3.2 2.24 3.36 4 0 .48.64.8 1.12.8s.96-.64.8-1.12a6.86 6.86 0 0 0-3.68-5.12c1.12-2.4 3.52-4 6.24-4 3.84 0 7.04 3.2 7.04 7.04-1.28.16-2.56.64-3.36 1.6-.32.32-.32.96 0 1.28s.96.32 1.28 0c.64-.64 1.44-.96 2.24-.96h.48c.64.16 1.44.48 1.92.96.64.64.96 1.44.96 2.24a3.21 3.21 0 0 1-3.2 3.2zm6.88-18.4c-.48-.48-1.12-.8-1.76-1.12v-.16c0-4.16-3.36-7.52-7.52-7.52-2.88 0-5.6 1.76-6.72 4.32-.32 0-.64-.16-.96-.16-3.04.16-5.6 2.24-5.92 5.12 0 .32-.16.64-.16.96v.8c.16.48.48.8.96.8h.16c.48 0 .96-.64.8-1.12v-.48-.64c.32-2.4 2.88-4 5.28-3.2h.16c.32 0 .64 0 .96-.32 0-.16.16-.16.16-.32.8-2.24 2.88-3.84 5.28-3.84 3.04 0 5.6 2.56 5.6 5.6v.64.32c0 .16 0 .16.16.32 0 .16.16.16.16.16.16 0 .16.16.32.16.48 0 1.12.32 1.44.8.48.48.64 1.12.64 1.76 0 1.44-1.12 2.4-2.4 2.4h-.32c-.48 0-.96.48-.96.96s.48.96.96.96h.48a4.3 4.3 0 0 0 4.32-4.32c0-.96-.32-2.08-1.12-2.88z"/></g><g clip-path="url(#C)" class="B"><path d="M148.32 32.6c2.08 0 3.68-1.6 3.68-3.52 0-2.56-2.72-5.28-2.88-5.44-.48-.48-1.12-.48-1.76 0-.16.16-2.72 2.72-2.72 5.28 0 2.08 1.6 3.68 3.68 3.68zm0-7.04c.8.96 1.76 2.4 1.76 3.52 0 .96-.8 1.76-1.76 1.76s-1.76-.8-1.76-1.76c0-1.12.96-2.56 1.76-3.52zm-2.08 11.68c0-2.56-2.72-5.28-2.72-5.28l-.16-.16c-.48-.32-1.12-.48-1.76.16-.16.16-2.72 2.72-2.72 5.28 0 2.08 1.6 3.68 3.68 3.68s3.68-1.6 3.68-3.68zM142.56 39c-.96 0-1.76-.8-1.76-1.76 0-1.12.96-2.56 1.76-3.52.8.96 1.76 2.4 1.76 3.52 0 .96-.8 1.76-1.76 1.76zm6.72 1.28c-.48-.48-1.28-.48-1.76 0-.16.16-2.72 2.72-2.72 5.28 0 2.08 1.6 3.68 3.68 3.68s3.68-1.6 3.68-3.68c-.16-2.24-2.4-4.64-2.88-5.28zm.8 5.28c0 .96-.8 1.76-1.76 1.76s-1.76-.8-1.76-1.76c0-1.12.96-2.56 1.76-3.52.8.96 1.76 2.4 1.76 3.52zm-14.56-8.16v-8.64c0-3.2-2.56-5.76-5.76-5.76S124 25.56 124 28.76v8.64c-2.56 1.92-4 4.8-4 7.84 0 5.44 4.32 9.76 9.76 9.76s9.76-4.32 9.76-9.76c0-3.2-1.44-6.08-4-7.84zm-5.76 15.68c-4.32 0-7.84-3.52-7.84-7.84 0-2.72 1.28-5.12 3.52-6.56l.48-.32v-9.6c0-2.08 1.76-3.84 3.84-3.84s3.84 1.76 3.84 3.84v9.6l.48.32c2.24 1.44 3.52 3.84 3.52 6.56 0 4.32-3.52 7.84-7.84 7.84zm.96-10.72V32.12c0-.48-.48-.96-.96-.96s-.96.48-.96.96v10.4c-1.28.48-2.24 1.6-2.24 3.04a3.21 3.21 0 0 0 3.2 3.2 3.21 3.21 0 0 0 3.2-3.2c0-1.44-.96-2.72-2.24-3.2z"/></g><g clip-path="url(#D)" class="B"><path d="M187.6 23.8c-.96-.8-2.24-.8-3.04 0h-.16c-3.52 3.52-10.08 12.16-10.08 19.52 0 6.4 5.28 11.84 11.68 11.84s11.68-5.28 11.68-11.84c0-7.36-6.56-16-10.08-19.52zm-1.92 1.6c.16-.16.16-.16.32-.16h.32c2.72 2.72 9.44 10.88 9.6 17.76-1.12.32-1.76.8-2.4 1.44s-1.12.96-1.92.96c-.96 0-1.44-.48-1.92-.96-.8-.64-1.6-1.6-3.36-1.6s-2.56.8-3.36 1.6c-.64.64-1.12.96-1.92.96-.96 0-1.44-.48-1.92-.96-.64-.64-1.44-1.28-2.72-1.44 0-6.72 6.4-14.72 9.28-17.6zm.32 27.68c-4.8 0-8.8-3.52-9.6-8.16.48.16.8.48 1.28.96.8.64 1.6 1.6 3.36 1.6s2.56-.8 3.36-1.6c.64-.64.96-.96 1.92-.96s1.44.48 1.92.96c.64.64 1.6 1.6 3.36 1.6s2.56-.8 3.36-1.6c.32-.32.48-.48.8-.64-.96 4.48-4.96 7.84-9.76 7.84zm-3.84-12.32a.77.77 0 0 0 1.12 0l6.56-6.56a.792.792 0 1 0-1.12-1.12l-6.56 6.56a.77.77 0 0 0 0 1.12zm6.56.32a1.44 1.44 0 1 0 0-2.88 1.44 1.44 0 1 0 0 2.88zm-5.44-5.6a1.44 1.44 0 0 0 0-2.88 1.44 1.44 0 0 0 0 2.88z"/></g><g clip-path="url(#E)" class="B"><path d="M251.04 51h-7.52l-5.6-5.6c-1.12-.96-2.88-.96-3.84 0l-5.6 5.6h-7.52c-.48 0-.96.48-.96.96s.48.96.96.96h5.6 2.72L231.2 51l4.32-4.32c.16-.16.32-.32.64-.32s.48.16.64.32l4.32 4.32 1.92 1.92h2.72 5.6c.48 0 .96-.48.96-.96-.32-.48-.8-.96-1.28-.96zm-21.92-4.96c.16 0 .32 0 .48-.16.48-.32.64-.8.32-1.28-.64-.96-.96-2.24-.96-3.52 0-3.84 3.2-7.04 7.04-7.04s7.04 3.2 7.04 7.04c0 1.28-.32 2.4-.96 3.52-.32.48-.16 1.12.32 1.28.48.32 1.12.16 1.28-.32.8-1.28 1.12-2.88 1.12-4.32 0-4.96-4-8.96-8.96-8.96s-8.96 4-8.96 8.96c0 1.6.48 3.04 1.12 4.48.48.16.8.32 1.12.32zm-8.16-4h2.72c.48 0 .96-.48.96-.96s-.48-.96-.96-.96h-2.72c-.48 0-.96.48-.96.96s.48.96.96.96z"/><use href="#Q"/><use href="#R"/><use href="#S"/><path d="M236 29.72c.48 0 .96-.48.96-.96v-2.72c0-.48-.48-.96-.96-.96s-.96.48-.96.96v2.72c0 .64.48.96.96.96zM229.12 31c.32.48.8.64 1.28.32s.64-.8.32-1.28l-1.44-2.4c-.16-.48-.8-.64-1.28-.48-.48.32-.64.96-.32 1.44l1.44 2.4zm-6.56 3.36l2.4 1.44c.48.32 1.12.16 1.28-.32.32-.48.16-1.12-.32-1.44l-2.4-1.28c-.48-.32-1.12-.16-1.28.32-.32.48-.16.96.32 1.28z"/></g><g clip-path="url(#F)" class="B"><path d="M301.04 48.6h-7.52l-5.6 5.76c-1.12.96-2.88.96-3.84 0l-5.6-5.76h-7.52c-.48 0-.96-.48-.96-.96s.48-.96.96-.96h5.6 2.72l1.92 1.92 4.32 4.32c.16.16.32.32.64.32s.48-.16.64-.32l4-4.32 1.92-1.92h2.72 5.6c.48 0 .96.48.96.96s-.48.96-.96.96zm-21.92-4.64c.16 0 .32 0 .48-.16.48-.32.64-.8.32-1.28-.64-1.12-.96-2.24-.96-3.52 0-3.84 3.2-7.04 7.04-7.04s7.04 3.2 7.04 7.04c0 1.28-.32 2.4-.96 3.52-.32.48-.16 1.12.32 1.28.48.32 1.12.16 1.28-.32.8-1.28 1.12-2.88 1.12-4.48 0-4.96-4-8.96-8.96-8.96s-8.8 4-8.8 8.96c0 1.6.48 3.04 1.12 4.48.32.32.64.48.96.48zm-8.16-4h2.72c.64 0 1.12-.48 1.12-.96s-.48-.96-.96-.96h-2.88c-.48 0-.96.48-.96.96s.48.96.96.96zM297.2 39c0 .48.48.96.96.96h2.72c.48 0 .96-.48.96-.96s-.48-.96-.96-.96h-2.72c-.48 0-.96.48-.96.96zm-.16-5.28l2.4-1.44c.48-.32.64-.8.32-1.28s-.8-.64-1.28-.32l-2.4 1.44c-.48.32-.64.8-.32 1.28s.8.64 1.28.32zm-5.44-4.48c.48.32 1.12.16 1.28-.32l1.44-2.4c.32-.48.16-1.12-.32-1.28-.48-.32-1.12-.16-1.28.32l-1.44 2.4c-.32.48-.16.96.32 1.28zM286 27.8c.48 0 .96-.48.96-.96v-2.88c0-.48-.48-.96-.96-.96s-.96.48-.96.96v2.88c0 .48.48.96.96.96z"/><path d="M279.12 28.92c.16.48.8.64 1.28.32s.64-.8.32-1.28l-1.44-2.4c-.16-.48-.8-.64-1.28-.48-.48.32-.64.96-.32 1.44l1.44 2.4zm-6.56 3.36l2.4 1.44c.48.32 1.12.16 1.28-.32.32-.48.16-1.12-.32-1.28l-2.4-1.44c-.48-.32-1.12-.16-1.28.32-.32.48-.16 1.12.32 1.28z"/></g><g clip-path="url(#G)" class="B"><path d="M51.04 107h-7.52l-5.6-5.6c-1.12-.96-2.88-.96-3.84 0l-5.6 5.6h-7.52c-.48 0-.96.48-.96.96s.48.96.96.96h5.6 2.72L31.2 107l4.32-4.32c.16-.16.32-.32.64-.32s.48.16.64.32l4.32 4.32 1.92 1.92h2.72 5.6c.48 0 .96-.48.96-.96-.32-.48-.8-.96-1.28-.96zm-21.44-5.6c.48.32.96.16 1.28-.16.32-.48.16-1.12-.16-1.44-2.4-1.76-3.84-4.48-3.84-7.52 0-4.64 3.36-8.32 7.84-9.12-.16.8-.32 1.6-.32 2.4 0 4.64 3.84 8.48 8.48 8.48.8 0 1.6-.16 2.24-.32-.32 2.4-1.76 4.8-3.84 6.24-.48.32-.48.96-.16 1.28a.88.88 0 0 0 .8.48c.16 0 .32 0 .48-.16 2.88-2.08 4.64-5.44 4.64-9.28a.88.88 0 0 0-.48-.8 1.02 1.02 0 0 0-.96 0c-.96.48-1.92.64-2.88.64-3.52 0-6.56-2.88-6.56-6.56 0-.96.32-1.92.64-2.88.16-.32 0-.64-.16-.96s-.48-.48-.96-.48c-6.08 0-11.2 4.96-11.2 11.04.48 3.68 2.08 7.04 5.12 9.12z"/></g><g clip-path="url(#H)" class="B"><path d="M101.04 102.68h-5.6-2.72l-1.92 1.92-4.32 4.32c-.16.16-.32.32-.64.32s-.48-.16-.64-.32l-4-4.32-1.92-1.92h-2.72-5.6c-.48 0-.96.32-.96.96 0 .48.48.96.96.96h7.52l5.6 5.76c1.12.96 2.88.96 3.84 0l5.6-5.76h7.52c.48 0 .96-.48.96-.96 0-.64-.48-.96-.96-.96zM79.6 99.32c.48.32.96.16 1.28-.16.32-.48.16-.96-.16-1.28-2.4-1.76-3.84-4.48-3.84-7.52 0-4.64 3.36-8.32 7.84-9.12-.16.8-.32 1.44-.32 2.24 0 4.64 3.84 8.48 8.48 8.48.8 0 1.6-.16 2.24-.32-.32 2.4-1.76 4.8-3.84 6.24-.48.32-.48.96-.16 1.28a.88.88 0 0 0 .8.48c.16 0 .32 0 .48-.16 2.88-2.08 4.64-5.44 4.64-9.28a.88.88 0 0 0-.48-.8 1.02 1.02 0 0 0-.96 0c-.96.48-1.92.64-2.88.64-3.52 0-6.56-2.88-6.56-6.56 0-.96.32-1.92.64-2.88.16-.32 0-.64-.16-.96s-.48-.48-.96-.48c-6.08 0-11.2 4.96-11.2 11.04.48 3.68 2.08 7.04 5.12 9.12z"/></g><g clip-path="url(#I)" class="B"><path d="M150.4 90.68c-.64-.8-1.44-1.28-2.4-1.6v-.32c0-5.44-4.48-9.76-9.76-9.76-3.84 0-7.36 2.4-8.96 5.92-.48-.16-1.12-.16-1.6-.16-3.84 0-7.04 2.88-7.52 6.4-.16.48-.16.8-.16 1.28 0 3.52 2.24 6.56 5.6 7.36h.32c.48 0 .8-.32.96-.64.16-.48-.16-1.12-.64-1.12-2.56-.8-4.32-3.04-4.32-5.6 0-.32 0-.64.16-.96.48-3.36 4-5.6 7.52-4.64.48.16 1.12-.16 1.28-.64 1.12-3.2 4-5.28 7.52-5.28 4.32 0 7.84 3.52 7.84 7.84v.96.16.16.16s0 .16.16.16l.16.16c.16 0 .16.16.32.16.8.16 1.6.48 2.08 1.12.64.64.96 1.6.96 2.56 0 2.08-1.6 3.68-3.68 3.68h-.16c-.48 0-.96.48-.96.96s.48.96.96.96c3.04 0 5.6-2.56 5.6-5.6.32-1.28-.16-2.72-1.28-3.68zm-11.68.64a3.14 3.14 0 0 0-2.72-1.44 3.14 3.14 0 0 0-2.72 1.44L124 106.04c-.64.96-.64 2.24-.16 3.2.64 1.12 1.6 1.6 2.88 1.6h18.56c1.12 0 2.24-.64 2.88-1.6.64-1.12.48-2.24-.16-3.2l-9.28-14.72zm7.68 17.12c-.16.48-.64.64-1.12.64h-18.56c-.48 0-.96-.32-1.12-.64-.16-.48-.16-.96 0-1.28l9.28-14.72c.48-.8 1.76-.8 2.24 0l9.28 14.72c.32.32.32.8 0 1.28zM136 96.28c-.48 0-.96.48-.96.96v5.28c0 .48.48.96.96.96s.96-.48.96-.96v-5.28c0-.48-.48-.96-.96-.96zm0 8.48c-.48 0-.96.48-.96.96s.48.96.96.96.96-.48.96-.96-.48-.96-.96-.96z"/></g><g class="B"><path d="M200.4 92.12c-.64-.8-1.44-1.28-2.4-1.44v-.32c0-5.44-4.48-9.76-9.76-9.76-3.84-.32-7.36 2.08-8.96 5.6-.48-.16-1.12-.16-1.6-.16a7.6 7.6 0 0 0-7.52 6.56c-.16.32-.16.8-.16 1.12 0 4.32 3.52 7.68 7.68 7.68h18.72c3.04 0 5.6-2.56 5.6-5.6 0-1.44-.48-2.72-1.6-3.68zm-4 7.36h-18.72c-3.2 0-5.76-2.56-5.76-5.76 0-.32 0-.64.16-.96.32-2.72 2.72-4.8 5.6-4.8.64 0 1.28.16 1.92.32 2.08.64 3.52 2.4 3.84 4.64 0 .48.48.96 1.12.8.48 0 .96-.64.8-1.12-.48-2.56-1.92-4.64-4.16-5.76 1.28-2.72 4-4.64 7.04-4.64 4.32 0 7.84 3.52 7.84 7.84v.16c-1.44 0-2.72.64-3.84 1.76-.32.32-.32.96 0 1.28s.96.32 1.28 0c.64-.8 1.6-1.12 2.72-1.12h.48c.8.16 1.6.48 2.24 1.12s.96 1.6.96 2.56c.16 2.08-1.44 3.68-3.52 3.68z"/><use href="#T"/><use href="#T" x="5.44"/><use href="#T" x="10.88"/><use href="#T" x="16.32"/></g><g clip-path="url(#J)" class="B"><path d="M236 111c-8.8 0-16-7.2-16-16s7.2-16 16-16 16 7.2 16 16-7.2 16-16 16zm0-30.08c-7.84 0-14.08 6.24-14.08 14.08s6.24 14.08 14.08 14.08 14.08-6.24 14.08-14.08-6.24-14.08-14.08-14.08zm7.84 18.72c-.16 0-.32.16-.48.32-1.6 2.4-4.32 4-7.36 4s-5.76-1.6-7.36-4c-.16-.16-.32-.32-.48-.32h-2.24c-.48 0-.8.48-.48.8 1.92 3.84 6.08 6.56 10.72 6.56s8.64-2.72 10.72-6.56c.16-.32-.16-.8-.48-.8h-2.56zM236 87c-.48 0-.96-.48-.96-.96v-2.08c0-.48.48-.96.96-.96s.96.48.96.96v2.08c0 .48-.48.96-.96.96zm.32 6.88h-.16l-1.12-3.36c-.16-.48-.64-.8-1.12-.64s-.8.64-.64 1.12l.96 3.36c-.64.48-1.12 1.12-1.28 2.08-.16 1.6.96 3.04 2.56 3.36s3.04-.96 3.36-2.56c.32-1.76-.96-3.2-2.56-3.36zm-.48 4c-.64 0-.96-.64-.96-1.12 0-.64.64-.96 1.12-.96.64 0 .96.64.96 1.12s-.48.96-1.12.96zm-5.44-8.64c-.32.32-.96.32-1.28 0l-1.6-1.44c-.32-.32-.32-.96 0-1.28s.96-.32 1.28 0l1.44 1.44c.48.32.48.96.16 1.28zm-2.4 5.6c0 .48-.48.96-.96.96h-2.08c-.48 0-.96-.48-.96-.96s.48-.96.96-.96h2.08c.48 0 .96.48.96.96zm15.84.16c0-.48.48-.96.96-.96h2.08c.48 0 .96.48.96.96s-.48.96-.96.96h-2.08c-.48 0-.96-.48-.96-.96zm-2.24-5.6c-.32-.32-.32-.96 0-1.28l1.44-1.44c.32-.32.96-.32 1.28 0s.32.96 0 1.28l-1.44 1.44c-.32.32-.96.32-1.28 0z"/><path d="M246.08 99.64c.48 0 .8.48.48.8-1.92 3.84-6.08 6.56-10.72 6.56s-8.64-2.72-10.72-6.56c-.16-.32.16-.8.48-.8h2.4c.16 0 .32.16.48.32 1.6 2.4 4.32 4 7.36 4s5.76-1.6 7.36-4c.16-.16.32-.32.48-.32h2.4z"/></g><g clip-path="url(#K)" class="B"><path d="M300.72 94.68c-.48-.64-1.12-.96-1.92-1.28v-.16c0-4.48-3.68-8-8-8-3.2 0-5.92 1.92-7.36 4.64-.32 0-.8-.16-1.12-.16-3.2 0-5.76 2.4-6.24 5.44 0 .32-.16.64-.16.96a6.42 6.42 0 0 0 6.4 6.4h15.04c2.56 0 4.64-2.08 4.64-4.64 0-1.12-.48-2.4-1.28-3.2zm-3.36 5.92h-15.04c-2.4 0-4.48-2.08-4.48-4.48v-.64c.32-2.08 2.24-3.68 4.48-3.68.48 0 .96 0 1.44.16 1.6.48 2.72 1.92 3.04 3.52 0 .48.64.96 1.12.8.48 0 .96-.64.8-1.12-.32-2.08-1.6-3.68-3.36-4.64.96-2.08 3.2-3.36 5.44-3.36a6.08 6.08 0 0 1 6.08 6.08c-1.12.16-2.24.64-3.04 1.44-.32.32-.32.96 0 1.28s.96.32 1.28 0c.48-.48 1.28-.8 1.92-.8h.32c.64 0 1.12.32 1.6.8a2.65 2.65 0 0 1 .8 1.92c.32 1.6-.96 2.72-2.4 2.72zm-20.64-10.72c0-1.92 1.6-3.52 3.52-3.52.96 0 1.76.32 2.4.96.32-.48.8-.96 1.28-1.44-.8-.96-2.08-1.6-3.52-1.6-3.04 0-5.6 2.56-5.6 5.6 0 .64.16 1.28.48 1.92.32-.64.96-1.28 1.44-1.92zm4.32-7.04c.48 0 .96-.32 1.12-.8l.16-1.44c0-.48-.32-.96-.8-1.12-.48 0-.96.32-1.12.8l-.16 1.6c-.16.48.32.96.8.96zm-4.8.16c.16.48.8.64 1.28.48s.64-.8.48-1.28l-.64-1.28c-.16-.48-.8-.8-1.28-.48-.48.16-.64.8-.48 1.28l.64 1.28zm-2.88.64c-.48-.32-1.12-.32-1.44.16s-.16.96.32 1.28l1.12.8c.48.32.96.16 1.28-.16s.16-.96-.16-1.28l-1.12-.8zm-1.12 6.4c.48 0 .96-.32 1.12-.8s-.32-1.12-.8-1.12l-1.44-.16c-.48 0-.96.32-1.12.8 0 .48.32.96.8 1.12l1.44.16zm.48 2.24l-1.28.64c-.48.16-.8.8-.48 1.28.16.48.8.64 1.28.48l1.28-.64c.48-.16.64-.8.48-1.28-.32-.48-.8-.64-1.28-.48zm13.12-8.32l.8-1.12c.32-.48.16-.96-.16-1.28-.48-.48-1.12-.32-1.44.16l-.8 1.12c-.32.48-.16.96.16 1.28.48.32 1.12.32 1.44-.16z"/><use href="#U"/><use href="#V"/><path d="M291.28 105.08c-.48 0-.96.48-.96.96v3.52c0 .48.48.96.96.96s.96-.48.96-.96v-3.52c0-.64-.48-.96-.96-.96zm4.48 0c-.48 0-.96.48-.96.96v3.52c0 .48.48.96.96.96s.96-.48.96-.96v-3.52c0-.64-.32-.96-.96-.96z"/></g><g clip-path="url(#L)" class="B"><path d="M51.2 154.2c-.16-.48-.64-.8-1.12-.64L44.8 155l-3.68-2.08v-3.84L44.8 147l5.28 1.44h.32c.48 0 .8-.32.96-.64.16-.48-.16-1.12-.64-1.12l-3.52-.96 2.4-1.44c.48-.32.64-.8.32-1.28s-.8-.64-1.28-.32l-2.4 1.44.96-3.36c.16-.48-.16-1.12-.64-1.12-.48-.16-1.12.16-1.12.64L44 145.56l-3.68 2.08-3.2-1.92v-4.32l3.68-3.84c.32-.32.32-.96 0-1.44-.32-.32-.96-.32-1.44 0l-2.4 2.4v-2.56c0-.48-.48-.96-.96-.96s-.96.48-.96.96v2.72l-2.4-2.4c-.48-.48-1.12-.48-1.44 0-.32.32-.32.96 0 1.28l3.84 3.84v4.16l-3.2 1.92-3.68-2.08-1.44-5.28c0-.48-.64-.8-1.12-.64s-.8.64-.64 1.12l.96 3.36-2.4-1.28c-.48-.32-1.12-.16-1.44.32-.16.48 0 1.12.48 1.28l2.24 1.44-3.36.8c-.48.16-.8.8-.64 1.28s.48.64.96.64h.32l5.28-1.44 3.68 2.08v3.68l-3.68 2.08-5.28-1.44c-.48-.16-1.12.16-1.12.64-.16.48.16 1.12.64 1.12l3.2 1.12-2.4 1.44c-.48.32-.64.8-.32 1.28s.8.64 1.28.32l2.4-1.44-.96 3.36c-.16.48.16 1.12.64 1.12h.32c.48 0 .8-.32.96-.64l1.44-5.28 3.68-2.08 3.2 1.92v4.32l-3.84 3.84c-.32.32-.32.96 0 1.44.32.32.96.32 1.44 0l2.4-2.4v2.72c0 .48.48.96.96.96s.96-.48.96-.96v-2.72l2.4 2.4c.16.16.48.32.64.32.32 0 .48-.16.64-.32.32-.32.32-.96 0-1.44l-3.68-3.84v-4.16l3.2-1.92 3.68 2.08 1.44 5.28c.16.48.48.64.96.64h.32c.48-.16.8-.64.64-1.12l-.96-3.36 2.4 1.44c.48.32 1.12.16 1.28-.32.32-.48.16-1.12-.32-1.28l-2.4-1.6 3.36-.96c.48 0 .8-.64.64-1.12zm-12-1.28l-3.2 1.92-3.2-1.92v-3.84l3.2-1.92 3.2 1.92v3.84z"/></g><g clip-path="url(#M)" class="B"><path d="M86.64 149.4v-8.64c0-3.2-2.56-5.76-5.76-5.76s-5.92 2.56-5.92 5.76v8.64c-2.56 1.92-4 4.8-4 7.84 0 5.44 4.32 9.76 9.76 9.76s9.76-4.32 9.76-9.76c.16-3.2-1.44-6.08-3.84-7.84zm-5.92 15.68c-4.32 0-7.84-3.52-7.84-7.84 0-2.72 1.28-5.12 3.52-6.56l.48-.32v-9.6c0-2.08 1.76-3.84 3.84-3.84s3.84 1.76 3.84 3.84v9.6l.48.32c2.24 1.44 3.52 3.84 3.52 6.56.16 4.32-3.36 7.84-7.84 7.84zm1.121-10.72v-10.24c0-.48-.48-.96-.96-.96s-1.12.48-1.12.96v10.4c-1.28.48-2.24 1.6-2.24 3.04a3.21 3.21 0 0 0 3.2 3.2 3.21 3.21 0 0 0 3.2-3.2c.16-1.44-.8-2.72-2.08-3.2zm14.72-3.52c-.32.48-.16 1.12.32 1.28l1.28.8c.48.32 1.12.16 1.28-.32.32-.48.16-1.12-.32-1.28l-1.28-.8c-.32-.32-.96-.16-1.28.32zm2.079-4.48c-.48 0-.96.48-.96.96s.48.96.96.96h1.44c.48 0 .96-.48.96-.96s-.48-.96-.96-.96h-1.44zm.64-2.88c.48-.32.64-.8.32-1.28s-.8-.64-1.28-.32l-1.12.64c-.48.32-.64.8-.32 1.28s.8.64 1.28.32l1.12-.64zm-5.279-3.68c-.32.48-.16 1.12.32 1.28.32.32.96.16 1.28-.16l.8-1.28c.32-.48.16-1.12-.32-1.28-.48-.32-1.12-.16-1.44.32l-.64 1.12zm-2.241-.64v-1.44c0-.48-.48-.96-.96-.96s-.96.48-.96.96v1.44c0 .48.48.96.96.96s.96-.32.96-.96zm1.921 15.52l.64 1.28c.32.48.8.64 1.28.32s.64-.8.32-1.28l-.64-1.28c-.32-.48-.8-.64-1.28-.32-.48.16-.64.8-.32 1.28zm-1.281-2.4c-.32 0-.64-.16-.8-.64s0-1.12.48-1.28c1.28-.64 2.24-1.92 2.24-3.36 0-1.92-1.6-3.68-3.68-3.68H90c-.48.16-.96-.16-1.12-.8-.16-.48.16-.96.8-1.12.32 0 .64-.16.96-.16 3.04 0 5.6 2.56 5.6 5.6 0 2.24-1.28 4.16-3.36 5.12-.32.32-.32.32-.48.32z"/></g><g clip-path="url(#N)" class="B"><path d="M127.68 143.96c.32.32.96.32 1.28 0s.32-.96 0-1.28l-2.88-3.04c-.32-.32-.96-.32-1.28 0s-.32.96 0 1.28l2.88 3.04zm-1.6 7.04c0-.48-.48-.96-.96-.96h-4.16c-.48 0-.96.48-.96.96s.48.96.96.96h4.16c.48 0 .96-.48.96-.96zm1.6 7.04l-2.88 2.88c-.32.32-.32.96 0 1.28s.96.32 1.28 0l2.88-2.88c.32-.32.32-.96 0-1.28s-.96-.32-1.28 0zm16.64-14.08l2.88-2.88c.32-.32.32-.96 0-1.28s-.96-.32-1.28 0l-2.88 2.88c-.32.32-.32.96 0 1.28s.96.48 1.28 0zm-8.32 1.28c2.88 0 5.44 2.08 5.76 4.96 0 .48.48.96 1.12.8.48 0 .96-.48.8-1.12-.48-3.68-3.84-6.56-7.68-6.56-4.32 0-7.84 3.52-7.84 7.84 0 3.84 2.88 7.2 6.72 7.68h.16c.48 0 .96-.32.96-.8s-.32-.96-.8-1.12c-2.88-.32-5.12-2.88-5.12-5.76.16-3.36 2.72-5.92 5.92-5.92zm0-4.16c.48 0 .96-.48.96-.96v-4.16c0-.48-.48-.96-.96-.96s-.96.48-.96.96v4.16c0 .48.48.96.96.96zm-5.12.32c.16.48.8.64 1.28.48s.64-.8.48-1.28l-.48-.96c-.16-.48-.8-.8-1.28-.48-.48.16-.64.8-.48 1.28l.48.96zm-6.401 6.08l1.12.48c.48.16 1.12 0 1.28-.48s0-1.12-.48-1.28l-1.12-.48c-.48-.16-1.12 0-1.28.48s0 1.12.48 1.28zm.961 9.12l.96-.32c.48-.16.64-.8.48-1.28s-.8-.64-1.28-.48l-.96.48c-.48.16-.64.8-.48 1.28.16.32.64.64 1.28.32zm6.88 3.68c-.48-.16-1.12 0-1.28.48l-.48 1.12c-.16.48 0 1.12.48 1.28s1.12 0 1.28-.48l.48-1.28c.32-.48 0-.96-.48-1.12zm14.24-14.88l-.96.48c-.48.16-.64.8-.48 1.28s.8.64 1.28.48l.96-.48c.48-.16.64-.8.48-1.28s-.64-.64-1.28-.48zm-6.88-3.52c.48.16 1.12 0 1.28-.48l.48-1.12c.16-.48 0-1.12-.48-1.28s-1.12 0-1.28.48l-.48 1.12c-.32.48 0 .96.48 1.28zm12 13.28c-.48-.48-1.28-.48-1.76 0l-9.76 9.76c-.48.48-.48 1.28 0 1.76s1.28.48 1.76 0l9.76-9.76c.48-.48.48-1.28 0-1.76zm-1.76 7.84a2.12 2.12 0 0 0-2.08 2.08 2.12 2.12 0 0 0 2.08 2.08 2.12 2.12 0 0 0 2.08-2.08 2.12 2.12 0 0 0-2.08-2.08zm-8-4.16a1.92 1.92 0 1 0 0-3.84 1.92 1.92 0 1 0 0 3.84z"/></g><g clip-path="url(#O)" class="B"><path d="M186 166.68c-8.48 0-16-7.36-16-10.72 0-3.52 7.36-10.72 16-10.72 8.96 0 16 7.68 16 10.72s-7.04 10.72-16 10.72zm0-19.52c-7.68 0-14.08 6.72-14.08 8.8 0 1.92 5.92 8.8 14.08 8.8 8 0 14.08-7.04 14.08-8.8s-6.08-8.8-14.08-8.8zm0-4.96c-.64 0-1.28-.48-1.28-1.12v-4.48a1.09 1.09 0 0 1 1.12-1.12c.64 0 1.28.48 1.28 1.12v4.48c.16.64-.48 1.12-1.12 1.12zm8.64 1.6c-.64-.32-.8-.96-.64-1.6l2.08-4c.32-.64.96-.8 1.6-.64.64.32.8.96.64 1.6l-1.92 4.16c-.32.64-1.12.8-1.76.48zm-17.28 0c.64-.32.8-.96.64-1.6l-2.08-4c-.32-.64-.96-.8-1.6-.64-.64.32-.8.96-.64 1.6l1.92 4.16c.32.64 1.12.8 1.76.48zm14.08 11.2c0-.16 0-.16 0 0 0-.16-.16-.32-.16-.32l-.16-.16h-.16-.16-.16-.16-.16-.16c-.32.16-.64.32-1.12.32-1.28 0-2.24-.96-2.24-2.24 0-.32.16-.64.32-.96a.84.84 0 0 0-.32-1.12c-.16 0-.16 0-.32-.16-3.2-.32-6.24 2.24-6.24 5.6 0 3.04 2.56 5.6 5.6 5.6s5.6-2.56 5.6-5.6a1.02 1.02 0 0 0 0-.96zm-5.44 4.96a3.96 3.96 0 0 1-4-4 3.98 3.98 0 0 1 3.36-4v.64c0 2.08 1.76 3.84 3.84 3.84.32 0 .64 0 .8-.16-.16 2.08-1.92 3.68-4 3.68z"/></g><g clip-path="url(#P)" class="B"><path d="M220.96 147.16h9.12a6.08 6.08 0 1 0-6.08-6.08v.48c0 .48.64.96 1.12.8.48 0 .96-.64.8-1.12v-.16c0-2.24 1.92-4.16 4.16-4.16s4.16 1.92 4.16 4.16-1.92 4.16-4.16 4.16h-9.12c-.48 0-.96.48-.96.96s.48.96.96.96zm24-9.28c-3.84 0-7.04 3.2-7.04 7.04 0 .48 0 .96.16 1.44s.64.8 1.12.64.8-.64.64-1.12c0-.32-.16-.64-.16-1.12a5.12 5.12 0 1 1 10.24 0c0 .32 0 .8-.16 1.12-.48 2.4-2.56 4-4.96 4h-24c-.32.16-.8.64-.8 1.12s.48.96.96.96h24c3.36 0 6.24-2.4 6.88-5.44.16-.64.16-1.12.16-1.6 0-3.84-3.2-7.04-7.04-7.04zM240 154.84h-19.04c-.48 0-.96.48-.96.96s.48.96.96.96H240c2.24 0 4.16 1.92 4.16 4.16s-1.92 4.16-4.16 4.16-4.16-1.92-4.16-4.32c.16-.48-.32-.96-.8-1.12s-.96.32-1.12.8v.48a6.08 6.08 0 1 0 6.08-6.08z"/></g><path d="M286.64 139.64c-.16-.48-1.12-.48-1.28 0l-9.12 22.24c-.16.48.48.96.96.64l8.32-4a.49.49 0 0 1 .64 0l8.32 4c.64.32 1.28-.16.96-.64l-8.8-22.24z" stroke="#fff" stroke-width="1.92" stroke-miterlimit="10"/><defs><clipPath id="A"><path transform="translate(20 23)" d="M0 0h32v32H0z" class="B"/></clipPath><clipPath id="B"><path transform="translate(70 23)" d="M0 0h32v32H0z" class="B"/></clipPath><clipPath id="C"><path transform="translate(120 23)" d="M0 0h32v32H0z" class="B"/></clipPath><clipPath id="D"><path transform="translate(170 23)" d="M0 0h32v32H0z" class="B"/></clipPath><clipPath id="E"><path transform="translate(220 23)" d="M0 0h32v32H0z" class="B"/></clipPath><clipPath id="F"><path transform="translate(270 23)" d="M0 0h32v32H0z" class="B"/></clipPath><clipPath id="G"><path transform="translate(20 79)" d="M0 0h32v32H0z" class="B"/></clipPath><clipPath id="H"><path transform="translate(70 79)" d="M0 0h32v32H0z" class="B"/></clipPath><clipPath id="I"><path transform="translate(120 79)" d="M0 0h32v32H0z" class="B"/></clipPath><clipPath id="J"><path transform="translate(220 79)" d="M0 0h32v32H0z" class="B"/></clipPath><clipPath id="K"><path transform="translate(270 79)" d="M0 0h32v32H0z" class="B"/></clipPath><clipPath id="L"><path transform="translate(20 135)" d="M0 0h32v32H0z" class="B"/></clipPath><clipPath id="M"><path transform="translate(70 135)" d="M0 0h32v32H0z" class="B"/></clipPath><clipPath id="N"><path transform="translate(120 135)" d="M0 0h32v32H0z" class="B"/></clipPath><clipPath id="O"><path transform="translate(170 135)" d="M0 0h32v32H0z" class="B"/></clipPath><clipPath id="P"><path transform="translate(220 135)" d="M0 0h32v32H0z" class="B"/></clipPath><path id="Q" d="M247.2 41.08c0 .48.48.96.96.96h2.72c.48 0 .96-.48.96-.96s-.48-.96-.96-.96h-2.72c-.48 0-.96.48-.96.96z"/><path id="R" d="M247.04 35.8l2.4-1.44c.48-.32.64-.8.32-1.28s-.8-.64-1.28-.32l-2.4 1.44c-.48.32-.64.8-.32 1.28s.8.64 1.28.32z"/><path id="S" d="M241.6 31.32c.48.32 1.12.16 1.28-.32l1.44-2.4c.32-.48.16-1.12-.32-1.28-.48-.32-1.12-.16-1.28.32l-1.44 2.4c-.32.48-.16.96.32 1.28z"/><path id="T" d="M178.32 104.44l-2.56 3.68c-.32.48-.16.96.16 1.28s.96.16 1.28-.16l2.56-3.68c.32-.48.16-.96-.16-1.28s-.96-.16-1.28.16z"/><path id="U" d="M282 105.08c-.48 0-.96.48-.96.96v3.52c0 .48.48.96.96.96s.96-.48.96-.96v-3.52c0-.64-.32-.96-.96-.96z"/><path id="V" d="M286.64 105.08c-.48 0-.96.48-.96.96v3.52c0 .48.48.96.96.96s.96-.48.96-.96v-3.52c0-.64-.48-.96-.96-.96z"/></defs></svg>