<svg xmlns="http://www.w3.org/2000/svg" width="322" height="190" fill="none" xmlns:v="https://vecta.io/nano"><style><![CDATA[.B{fill:#fff}]]></style><rect x=".5" y=".5" width="321" height="189" rx="4.5" fill="#0350b1"/><rect x=".5" y=".5" width="321" height="189" rx="4.5" stroke="#0f488e"/><g clip-path="url(#A)" class="B"><path d="M29.6 42.84v-.96c.48.16 1.12.16 1.6.16 2.88 0 4.48-.96 5.6-1.92 1.12-.8 1.92-1.28 3.84-1.28.64 0 1.28 0 1.76.16.8.16 1.44.64 2.08 1.12.48.32 1.12.64 1.76.96.96.48 2.24.8 4 .8.96 0 1.6-.64 1.6-1.6 0-.8-.64-1.6-1.6-1.6-1.92 0-2.72-.64-3.84-1.28-.96-.64-2.08-1.44-3.84-1.6-.48-.16-1.12-.16-1.76-.16-2.88 0-4.48.96-5.6 1.92-1.12.64-2.08 1.28-4 1.28-.64 0-1.28 0-1.6-.16v-1.12-.96-.96c.48.16 1.12.16 1.6.16 2.88 0 4.48-.96 5.6-1.92 1.12-.8 1.92-1.28 3.84-1.28.64 0 1.28.16 1.76.16.8.16 1.44.64 2.08 1.12.48.32 1.12.64 1.76.96.96.48 2.24.8 4 .8.96 0 1.6-.64 1.6-1.6s-.64-1.6-1.6-1.6c-1.92 0-2.72-.64-3.84-1.28v-2.24-2.88c0-1.6-1.28-3.04-3.04-3.04h-.8-3.84-5.28-3.84-.96c-1.6 0-2.88 1.28-3.04 2.88v.16 2.08 2.08a8.63 8.63 0 0 0-4-.96c-.96 0-1.6.64-1.6 1.6s.64 1.6 1.6 1.6c1.92 0 2.72.64 3.84 1.28v.48 1.76.32c-.8-.32-2.08-.64-3.84-.64-.96 0-1.6.8-1.6 1.6 0 .96.64 1.6 1.6 1.6 1.92 0 2.72.64 3.84 1.28v.48 1.76.32c-.8-.48-2.08-.8-3.84-.8-.96 0-1.6.8-1.6 1.6 0 .96.64 1.6 1.6 1.6 1.92 0 2.72.64 3.84 1.28v2.24 3.2.16c0 1.6 1.44 2.88 3.04 2.88h.8 3.84 5.28 3.84.8c1.6 0 3.04-1.28 3.04-3.04v-2.4c-1.28-.48-2.08-1.12-2.72-1.44-.48-.32-.8-.48-1.12-.64-.16-.16-.64-.32-1.44-.32-.96 0-1.44.16-2.08.48-.16.16-.48.32-.64.48-.96.64-2.4 1.6-4.48 1.92-.8.16-1.6.32-2.4.32-.64 0-1.12 0-1.6-.16v-1.92c.48.16 1.12.16 1.6.16 2.88 0 4.48-.96 5.6-1.92 1.12-.8 1.92-1.28 3.84-1.28.64 0 1.28 0 1.76.16.8.16 1.44.64 2.08 1.12.48.32 1.12.64 1.76.96.96.48 2.24.8 4 .8.96 0 1.6-.64 1.6-1.6 0-.8-.64-1.6-1.6-1.6-1.92 0-2.72-.64-3.84-1.28-.96-.64-2.08-1.44-3.84-1.6-.48-.16-1.12-.16-1.76-.16-2.88 0-4.48 1.12-5.6 1.92s-1.92 1.28-3.84 1.28c-.64 0-1.28 0-1.6-.16V43.8v-.96h-.16z"/></g><g clip-path="url(#B)" class="B"><path d="M91.12 39.96c-.64-4.16-4-7.36-8.32-7.36s-8 3.36-8.32 7.68C71.92 41.4 70 43.8 70 46.68c0 3.84 3.04 6.88 6.88 6.88h14.08c3.84 0 6.88-3.04 6.88-6.88 0-3.68-3.04-6.72-6.72-6.72zM102 36.28c0 1.6-.8 3.04-1.92 4l-1.44.96c-1.28-1.76-3.2-3.04-5.44-3.52-1.6-4.32-5.6-7.52-10.4-7.52-.64 0-1.28 0-1.92.16.64-3.36 4.16-5.92 8.32-5.92 4.32 0 8 2.88 8.32 6.4 2.56.8 4.48 3.04 4.48 5.44z"/></g><g clip-path="url(#C)" class="B"><path d="M149.28 34.68c1.44 0 2.72-1.28 2.72-2.72 0-1.92-1.92-4-2.56-4.64h-.16-.16c-.64.64-2.56 2.88-2.56 4.64.16 1.6 1.28 2.72 2.72 2.72zm-5.44.96h-.16-.16c-.64.64-2.56 2.88-2.56 4.64 0 1.44 1.28 2.72 2.72 2.72s2.72-1.28 2.72-2.72c-.16-1.76-1.92-4-2.56-4.64zm5.76 8.32h-.16-.16c-.64.64-2.56 2.88-2.56 4.64 0 1.44 1.28 2.72 2.72 2.72s2.72-1.28 2.72-2.72c-.16-1.92-1.92-4-2.56-4.64zM136 38.2v-8.8a6.42 6.42 0 0 0-6.4-6.4c-3.36 0-6.24 2.88-6.24 6.4v8.8c-2.08 1.76-3.36 4.32-3.36 7.2 0 5.28 4.32 9.6 9.6 9.6s9.6-4.32 9.6-9.6c0-2.88-1.28-5.44-3.2-7.2zm-6.4 10.4a3.21 3.21 0 0 1-3.2-3.2c0-1.12.64-2.24 1.6-2.72v-9.76c0-.8.8-1.6 1.6-1.6h.16c.8 0 1.44.8 1.44 1.6v9.76c.96.48 1.6 1.6 1.6 2.72a3.21 3.21 0 0 1-3.2 3.2z"/></g><path d="M186 23c-3.04 0-12 11.36-12 20 0 6.56 5.44 12 12 12s12-5.44 12-12c0-8.48-9.12-20-12-20zm3.36 27.52c-.8 0-1.44-.64-1.44-1.44s.64-1.44 1.44-1.44 1.44.64 1.44 1.44-.64 1.44-1.44 1.44zm.96-7.04l-6.72 6.72c-.64.64-1.44.64-2.08 0-.48-.48-.48-1.44 0-1.92l6.72-6.72c.48-.48 1.44-.48 1.92 0 .8.32.8 1.28.16 1.92zm-9.12-1.12c0-.8.64-1.44 1.44-1.44s1.44.64 1.44 1.44-.64 1.44-1.44 1.44-1.44-.64-1.44-1.44zm8.48-4.48c-1.92 0-1.92-1.28-3.68-1.28-1.92 0-1.92 1.12-3.68 1.12s-1.92-1.12-3.52-1.28c1.92-4.48 5.44-8.8 7.2-10.08 1.76 1.28 5.28 5.6 7.2 10.24-1.6.16-1.76 1.28-3.52 1.28z" class="B"/><g clip-path="url(#D)" class="B"><use href="#Q"/><use href="#R"/><use href="#S"/><use href="#T"/><use href="#U"/><path d="M236.96 23.48c-.64-.64-1.44-.64-2.08 0l-4.96 4.96c-.64.64-.64 1.44 0 2.08a1.68 1.68 0 0 0 2.08 0l2.56-2.56v6.56c0 .64.64 1.28 1.44 1.28s1.44-.64 1.44-1.44v-6.4l2.56 2.56c.32.32.64.48.96.48s.8-.16.96-.48c.64-.64.64-1.44 0-2.08l-4.96-4.96z"/><use href="#V"/></g><g clip-path="url(#E)" class="B"><path d="M271.44 47.64h2.4c.8 0 1.44-.64 1.44-1.44s-.64-1.44-1.44-1.44h-2.4c-.8 0-1.44.64-1.44 1.44s.64 1.44 1.44 1.44zm4.96-9.12c.64.64 1.44.64 2.08 0 .64-.48.64-1.44 0-2.08l-1.6-1.6c-.64-.64-1.44-.64-2.08 0-.64.48-.64 1.44 0 2.08l1.6 1.6zm19.2 0l1.6-1.6c.48-.48.48-1.44 0-2.08-.64-.64-1.44-.64-2.08 0l-1.6 1.6c-.64.64-.64 1.44 0 2.08s1.6.64 2.08 0zm1.12 7.68c0 .8.64 1.44 1.44 1.44h2.4c.8 0 1.44-.64 1.44-1.44s-.64-1.44-1.44-1.44h-2.4c-.8 0-1.44.64-1.44 1.44zm3.52 5.28h-28.48c-.96 0-1.76.8-1.76 1.76s.8 1.76 1.76 1.76h28.48c.96 0 1.76-.8 1.76-1.76s-.8-1.76-1.76-1.76zm-15.2-16c.64.64 1.44.64 2.08 0l4.96-4.96c.64-.64.64-1.44 0-2.08s-1.44-.64-2.08 0L287.44 31v-6.56c0-.8-.64-1.44-1.44-1.44s-1.44.64-1.44 1.44V31L282 28.28c-.32-.16-.64-.32-.96-.32s-.8.16-1.12.32c-.64.64-.64 1.44 0 2.08l5.12 5.12zm.96 3.36c4.96 0 8.8 4 8.8 8.8 0 .48-.32.8-.8.8h-16c-.48 0-.8-.32-.8-.8 0-4.8 3.84-8.8 8.8-8.8z"/></g><g clip-path="url(#F)" class="B"><path d="M50.24 107.48H21.76c-.96 0-1.76.8-1.76 1.76s.8 1.76 1.76 1.76h28.48c.96 0 1.76-.8 1.76-1.76s-.8-1.76-1.76-1.76zm-13.28-28c-.64-.64-1.44-.64-2.08 0l-4.96 4.96c-.64.64-.64 1.44 0 2.08a1.68 1.68 0 0 0 2.08 0l2.56-2.56v6.56c0 .64.64 1.28 1.44 1.28s1.44-.64 1.44-1.44v-6.4L40 86.52c.32.32.64.48.96.48s.8-.16.96-.48c.64-.64.64-1.44 0-2.08l-4.96-4.96z"/><use href="#W"/></g><g clip-path="url(#G)" class="B"><path d="M100.24 107.48H71.76c-.96 0-1.76.8-1.76 1.76s.8 1.76 1.76 1.76h28.48c.96 0 1.76-.8 1.76-1.76s-.8-1.76-1.76-1.76zm-15.2-16c.64.64 1.44.64 2.08 0l4.96-4.96c.64-.64.64-1.44 0-2.08s-1.44-.64-2.08 0L87.44 87v-6.56c0-.8-.64-1.44-1.44-1.44s-1.44.64-1.44 1.44V87L82 84.28c-.32-.16-.64-.32-.96-.32s-.8.16-1.12.32c-.64.64-.64 1.44 0 2.08l5.12 5.12zm-7.68 12.64c0 .16 0 .16 0 0 0 .16.16.16.16.16h16.96c.16 0 .16 0 .16-.16.64-1.6.8-3.52.32-5.44 0-.16-.32-.16-.32 0-.96 1.28-2.4 2.24-4.16 2.56-2.08.32-4.48-.48-5.76-2.08-1.92-1.92-1.92-4.64-.96-6.72 0-.16 0-.32-.16-.32-1.92.48-3.68 1.6-5.12 3.52-1.44 2.08-2.08 4.8-1.6 7.2l.48 1.28z"/></g><g clip-path="url(#H)" class="B"><path d="M152 95.16c0 3.2-1.92 5.92-4.48 7.04l-7.04-11.04a5.54 5.54 0 0 0-4.48-2.4c-1.76 0-3.52 1.12-4.48 2.56l-7.04 11.04c-.8-.32-1.6-.96-2.24-1.6-1.44-1.44-2.24-3.36-2.24-5.6 0-3.36 2.08-6.24 5.12-7.36.48-4.96 4.48-8.8 9.6-8.8 4.8 0 8.8 3.68 9.44 8.32 2.08 0 4.16.96 5.6 2.4s2.24 3.36 2.24 5.44zm-4.32 12L138.4 92.6c-.48-.8-1.44-1.28-2.4-1.28s-1.92.48-2.4 1.28l-9.28 14.56c-.48.8-.48 1.76 0 2.56s1.44 1.28 2.4 1.28h18.56c.96 0 1.92-.48 2.4-1.28s.48-1.76 0-2.56zm-11.68.96c-.8 0-1.6-.64-1.6-1.6s.8-1.6 1.6-1.6 1.6.64 1.6 1.6c0 .8-.8 1.6-1.6 1.6zm1.6-5.92c0 .8-.8 1.6-1.6 1.6s-1.6-.8-1.6-1.6v-4.64c0-.8.8-1.6 1.6-1.6s1.6.8 1.6 1.6v4.64z"/></g><g clip-path="url(#I)" class="B"><path d="M199.76 89.88c-1.44-1.44-3.36-2.24-5.6-2.4-.64-4.64-4.64-8.32-9.44-8.32-5.12 0-9.12 3.84-9.6 8.8-3.04 1.12-5.12 4-5.12 7.36 0 2.08.96 4.16 2.4 5.6s3.36 2.24 5.6 2.24h16.32c4.32 0 7.84-3.52 7.84-7.84-.16-2.08-.96-4-2.4-5.44zm-17.44 8.64l-1.76 2.4c-.64.8-1.76.96-2.56.32s-.8-1.76-.32-2.4l1.92-2.56c.64-.8 1.76-.96 2.4-.32.8.64.8 1.76.32 2.56zm6.4 0l-1.92 2.4c-.64.8-1.76.96-2.4.32-.8-.64-.96-1.76-.32-2.4l1.92-2.4c.64-.8 1.76-.96 2.4-.32.8.48.96 1.6.32 2.4zm6.4 0l-1.76 2.4c-.64.8-1.76.96-2.4.32-.8-.64-.96-1.76-.32-2.4l1.92-2.4c.64-.8 1.76-.96 2.4-.32.64.48.8 1.6.16 2.4zm-15.36 11.68l1.92-2.4c.64-.8.48-1.92-.32-2.4-.8-.64-1.92-.48-2.4.32l-1.92 2.4a1.61 1.61 0 0 0 .16 2.4c.8.64 1.92.48 2.56-.32zm5.44-4.48l-1.92 2.4c-.64.8-.48 1.92.32 2.4.8.64 1.92.48 2.4-.32l1.92-2.4c.64-.8.48-1.92-.32-2.4-.64-.48-1.76-.48-2.4.32zm-12 4.48l1.92-2.4c.64-.8.48-1.92-.32-2.4-.8-.64-1.92-.48-2.4.32l-1.92 2.4c-.64.8-.48 1.92.32 2.4s1.92.48 2.4-.32z"/></g><g clip-path="url(#J)" class="B"><path d="M236 79c-8.8 0-16 7.2-16 16s7.2 16 16 16 16-7.2 16-16-7.2-16-16-16zm11.36 21.12c-.48.96-.96 1.92-1.6 2.72-.96 1.28-2.24 2.4-3.68 3.2l-.16.16c-.96.48-1.92.8-3.04 1.12h-.16c-.32 0-.8.16-1.12.16-.48 0-.96.16-1.6.16-4 0-7.52-1.76-9.76-4.64-.64-.8-1.28-1.76-1.6-2.72-.16-.48.16-.8.32-.8h3.84c.16 0 .32 0 .32.16.96 1.28 2.24 2.4 3.68 3.04h.16.16c.96.32 1.92.48 3.04.48a9.06 9.06 0 0 0 2.88-.48h.16c1.6-.64 2.88-1.6 3.68-3.04 0-.16.16-.16.32-.16h3.84c.16 0 .48.32.32.64zm-14.88-3.2c0-.8.32-1.6.8-2.24l.16-4.8c0-.48.64-.64.8-.16l2.72 4c1.44.48 2.4 1.76 2.4 3.36 0 1.92-1.6 3.52-3.52 3.52-1.76-.16-3.36-1.6-3.36-3.68zm12.8-.96c-.64 0-1.28-.48-1.28-1.28 0-.64.48-1.28 1.28-1.28h1.28c-.32-2.08-1.12-4-2.4-5.44l-.96.96c-.48.48-1.28.48-1.76 0s-.48-1.28 0-1.76l.96-.96c-1.6-1.28-3.52-1.92-5.6-2.24v1.44c0 .64-.48 1.28-1.28 1.28-.64 0-1.28-.48-1.28-1.28v-1.12c-1.76.32-3.68 1.12-5.12 2.4l.96.96c.48.48.48 1.28 0 1.76s-1.28.48-1.76 0l-.8-.96c-1.28 1.6-1.92 3.52-2.24 5.6h1.44c.64 0 1.28.48 1.28 1.28 0 .64-.48 1.28-1.28 1.28h-3.04v-1.44-.96c.16-2.56 1.12-4.8 2.56-6.72.48-.64 1.12-1.12 1.6-1.76 1.76-1.6 4.16-2.56 6.56-2.88h1.44.96c2.56.16 4.8 1.12 6.72 2.56.64.48 1.12 1.12 1.76 1.6 1.6 1.76 2.72 4.16 2.88 6.56 0 .48.16.96.16 1.44v.96h-3.04z"/></g><g clip-path="url(#K)" class="B"><path d="M291.12 91c-.48-4.16-4-7.2-8.32-7.2s-8 3.36-8.32 7.68c-2.56.96-4.48 3.52-4.48 6.4.16 3.68 3.2 6.72 6.88 6.72h14.08c3.84 0 6.88-3.04 6.88-6.88 0-3.68-3.04-6.72-6.72-6.72zm7.36-2.88c0 1.28-.48 2.56-1.28 3.52-1.28-1.28-2.72-2.08-4.48-2.4-.64-2.24-1.92-4-3.68-5.28.96-.8 2.4-1.44 3.68-1.44 3.2 0 5.76 2.56 5.76 5.6zm-7.52-6.24c-.48.16-1.12-.16-1.12-.64l-.32-.8c-.16-.48.16-1.12.64-1.12.48-.16 1.12.16 1.12.64l.32.64c.16.48-.16 1.12-.64 1.28zm8.32 7.84c.16-.48.64-.8 1.12-.64l.8.16c.48.16.8.64.8 1.12-.16.48-.64.8-1.12.64l-.8-.16c-.64-.16-.96-.64-.8-1.12zm-.64-4.48c-.16-.48 0-1.12.48-1.28l.8-.48c.48-.16 1.12 0 1.28.48s0 1.12-.48 1.28l-.8.48c-.32.16-.96 0-1.28-.48zm-3.2-3.2c-.48-.16-.64-.8-.48-1.28l.32-.8c.16-.48.8-.64 1.28-.48s.64.8.48 1.28l-.32.8c-.16.48-.8.8-1.28.48z"/><use href="#X"/><path d="M284.08 111a2.4 2.4 0 0 0 0-4.8 2.4 2.4 0 0 0 0 4.8zm7.36 0a2.4 2.4 0 0 0 0-4.8 2.4 2.4 0 0 0 0 4.8z"/></g><g clip-path="url(#L)" class="B"><path d="M49.44 152.12l-5.92 1.6-1.92-1.12v-3.2l2.08-1.12 5.92 1.6h.32a1.54 1.54 0 0 0 1.44-1.12c.16-.8-.32-1.6-.96-1.76l-3.2-.8 1.92-1.12c.64-.32.96-1.28.48-1.92s-1.28-.96-1.92-.48l-2.08 1.12.8-3.04c.16-.8-.32-1.6-.96-1.76s-1.6.32-1.76.96l-1.6 5.92L40 147l-2.72-1.6V143l4.32-4.32c.48-.48.48-1.44 0-2.08a1.68 1.68 0 0 0-2.08 0l-2.24 2.24v-2.08c0-.8-.64-1.44-1.44-1.44s-1.28.64-1.28 1.44V139l-2.24-2.24c-.48-.64-1.44-.64-2.08 0-.48.48-.48 1.44 0 2.08l4.32 4.16v2.4l-2.72 1.6-1.92-1.28-1.6-5.92c-.32-.64-1.12-1.12-1.76-.96-.8.32-1.28 1.12-1.12 1.76l.8 3.04-1.76-.96c-.64-.32-1.6-.16-1.92.48s-.16 1.6.48 1.92l1.76 1.12-3.04.8c-.64.32-1.12 1.12-.96 1.76a1.54 1.54 0 0 0 1.44 1.12h.32l5.92-1.6 1.92 1.12v3.2l-2.08 1.12-5.92-1.6c-.8-.16-1.6.32-1.76.96-.16.8.32 1.6.96 1.76l3.2.96-1.92 1.12c-.64.32-.96 1.28-.48 1.92.32.48.8.64 1.28.64.32 0 .48 0 .8-.16l1.92-1.12-.8 3.04c-.16.8.32 1.6.96 1.76h.32a1.54 1.54 0 0 0 1.44-1.12l1.6-5.92 2.08-1.12 2.72 1.6V159l-4.32 4.32a1.68 1.68 0 0 0 0 2.08c.32.32.64.48.96.48s.8-.16.96-.48l2.24-2.24v2.24c0 .8.64 1.44 1.44 1.44s1.44-.64 1.44-1.44v-2.24l2.24 2.24c.48.64 1.44.64 2.08 0 .48-.48.48-1.44 0-2.08L37.44 159v-2.4l2.72-1.6 2.08 1.12 1.6 5.92a1.54 1.54 0 0 0 1.44 1.12h.32c.8-.16 1.28-.96.96-1.76l-.8-3.04 1.92 1.12c.16.16.48.16.8.16.48 0 .96-.32 1.28-.8.32-.64.16-1.6-.48-1.92l-2.08-1.12 3.04-.8c.8-.16 1.28-.96.96-1.76s-.96-1.28-1.76-1.12z"/></g><g clip-path="url(#M)" class="B"><path d="M98.48 139.96c-.32 0-.64.16-.8.32l-1.92 1.28c-.64.48-.8 1.28-.32 1.92.32.32.64.64 1.12.64.32 0 .64-.16.8-.32l1.92-1.28c.64-.48.8-1.28.32-1.92-.32-.48-.8-.64-1.12-.64zm-.16 8.8a1.54 1.54 0 0 0-1.44 1.12c-.16.8.48 1.44 1.12 1.6l2.24.32h.16a1.54 1.54 0 0 0 1.44-1.12c.16-.8-.48-1.44-1.12-1.6l-2.24-.32h-.16zm-3.84 6.4c-.16 0-.48 0-.64.16l-.64.48c-.48.32-.48.96-.16 1.44l1.76 2.56a.88.88 0 0 0 .8.48c.16 0 .48 0 .64-.16l.64-.48c.48-.32.48-.96.16-1.44l-1.76-2.56c-.16-.48-.48-.48-.8-.48zm-4-20.16a1.54 1.54 0 0 0-1.44 1.12l-.32 2.24c-.16.8.48 1.44 1.12 1.6H90a1.54 1.54 0 0 0 1.44-1.12l.32-2.24c.16-.8-.48-1.44-1.12-1.6h-.16zm-4.64 15.2v-8.8c0-3.52-2.72-6.4-6.24-6.4s-6.24 2.88-6.24 6.4v8.8c-2.08 1.76-3.36 4.32-3.36 7.2 0 5.28 4.32 9.6 9.6 9.6s9.6-4.32 9.6-9.6c0-2.88-1.28-5.44-3.36-7.2zm-6.24 10.4a3.21 3.21 0 0 1-3.2-3.2c0-1.12.64-2.24 1.6-2.72v-9.76c0-.8.64-1.44 1.44-1.44h.16c.96-.16 1.6.64 1.6 1.44v9.76c.96.48 1.6 1.6 1.6 2.72a3.21 3.21 0 0 1-3.2 3.2zm15.84-12c0 2.88-1.6 5.28-4.16 6.4 0-.16-.16-.48-.16-.64a10.93 10.93 0 0 0-2.88-5.12v-7.52h.16c4 0 7.04 3.04 7.04 6.88z"/></g><g clip-path="url(#N)" class="B"><path d="M136 141.4c-5.28 0-9.6 4.32-9.6 9.6s4.32 9.6 9.6 9.6 9.6-4.32 9.6-9.6-4.32-9.6-9.6-9.6zm-3.36 4.8c.8 0 1.44.64 1.44 1.44s-.64 1.44-1.44 1.44-1.44-.64-1.44-1.44.64-1.44 1.44-1.44zm6.72 9.6c-.8 0-1.44-.64-1.44-1.44s.64-1.44 1.44-1.44 1.44.64 1.44 1.44-.64 1.44-1.44 1.44zm.96-7.2l-6.72 6.72a1.68 1.68 0 0 1-2.08 0c-.48-.48-.48-1.44 0-1.92l6.72-6.72c.48-.48 1.44-.48 1.92 0 .8.48.8 1.44.16 1.92zm-4.32-8.8c-.96 0-1.6-.64-1.6-1.6v-1.6c0-.96.64-1.6 1.6-1.6s1.6.64 1.6 1.6v1.6c0 .96-.64 1.6-1.6 1.6zm-7.84 3.36c-.64.64-1.6.64-2.24 0l-1.28-1.12c-.64-.64-.64-1.6 0-2.24s1.6-.64 2.24 0l1.12 1.12c.8.48.8 1.6.16 2.24zM124.8 151c0 .96-.64 1.6-1.6 1.6h-1.6c-.96 0-1.6-.64-1.6-1.6s.64-1.6 1.6-1.6h1.6c.96 0 1.6.64 1.6 1.6zm3.36 7.84c.64.64.64 1.6 0 2.24l-1.12 1.12c-.64.64-1.6.64-2.24 0s-.64-1.6 0-2.24l1.12-1.12c.48-.64 1.6-.64 2.24 0zm7.84 3.36c.96 0 1.6.64 1.6 1.6v1.6c0 .96-.64 1.6-1.6 1.6s-1.6-.64-1.6-1.6v-1.6c0-.96.64-1.6 1.6-1.6zm7.84-3.36c.64-.64 1.6-.64 2.24 0l1.12 1.12c.64.64.64 1.6 0 2.24s-1.6.64-2.24 0l-1.12-1.12c-.64-.48-.64-1.6 0-2.24zm3.36-7.84c0-.96.64-1.6 1.6-1.6h1.6c.96 0 1.6.64 1.6 1.6s-.64 1.6-1.6 1.6h-1.6c-.96 0-1.6-.64-1.6-1.6zm-3.36-7.84c-.64-.64-.64-1.6 0-2.24l1.12-1.12c.64-.64 1.6-.64 2.24 0s.64 1.6 0 2.24l-1.12 1.12c-.48.64-1.6.64-2.24 0z"/></g><g clip-path="url(#O)" class="B"><path d="M201.36 154.04c-1.92-3.2-6.4-8.64-15.36-8.64s-13.44 5.44-15.36 8.64c-.48.64-.64 1.44-.64 2.24s.16 1.44.64 2.08c.32.64.8 1.28 1.44 1.92l.48.48s0 .16.16.16c2.24 3.04 6.56 6.08 13.28 6.08 4.48 0 7.84-1.44 10.4-3.2.16-.16.32-.32.48-.32l.32-.32c2.08-1.6 3.36-3.52 4.16-4.8.32-.64.64-1.44.64-2.08 0-.8-.16-1.6-.64-2.24zm-9.92 2.08c0 3.2-2.4 5.6-5.44 5.6s-5.44-2.4-5.44-5.44 2.4-5.6 5.44-5.6h.16c.32 0 .48.32.48.48v.16a3.96 3.96 0 0 0 4 4h.16c.32.16.64.48.64.8 0-.16 0-.16 0 0zM186 143c.96 0 1.76-.64 1.76-1.6v-4.8c0-.8-.8-1.6-1.76-1.6s-1.76.64-1.76 1.6v4.8c0 .8.8 1.6 1.76 1.6zm-11.84 2.24c.48.64 1.6.64 2.4.16s.8-1.6.32-2.24l-3.2-3.84c-.48-.64-1.6-.64-2.4-.16s-.8 1.6-.32 2.24l3.2 3.84zm23.68 0l3.04-3.68c.48-.64.48-1.76-.32-2.24-.8-.64-1.76-.64-2.4.16l-2.88 3.52c-.48.64-.48 1.76.32 2.24.64.64 1.76.64 2.24 0z"/></g><g clip-path="url(#P)" class="B"><path d="M239.52 153.56l4.8-.96v-10.88l-4.8-.96v12.8zM251.04 143l-3.84-.64v9.92l3.84-.64c.64-.16.96-.64.96-1.12v-6.24c0-.64-.48-1.12-.96-1.28zm-16-3.04l-2.72-.48h-.16c-.64 0-.96.32-1.12.64l-6.88 4.8v-5.76-.16c.32-.32.64-.96.64-1.6 0-1.28-1.12-2.4-2.4-2.4s-2.4 1.12-2.4 2.4c0 .64.32 1.28.64 1.6v.16 26.08c0 .96.8 1.76 1.76 1.76s1.76-.8 1.76-1.76V149.4l6.72 4.8c.16.48.64.8 1.12.8h.16l2.72-.48c.48-.16 1.12-.16 1.6-.32v-13.92l-1.44-.32zm-5.6 4.96c-.16.64-.16 1.44-.16 2.08v1.6c0 .32 0 .64.16.96l-3.36-2.4 3.36-2.24z"/></g><path d="M286.64 139c-.16-.64-1.12-.64-1.44 0l-9.6 23.52c-.16.48.48.96 1.12.8l8.8-4.16c.16-.16.48-.16.8 0l8.8 4.16c.64.32 1.28-.16 1.12-.8l-9.6-23.52z" class="B"/><defs><clipPath id="A"><path transform="translate(20 23)" d="M0 0h32v32H0z" class="B"/></clipPath><clipPath id="B"><path transform="translate(70 23)" d="M0 0h32v32H0z" class="B"/></clipPath><clipPath id="C"><path transform="translate(120 23)" d="M0 0h32v32H0z" class="B"/></clipPath><clipPath id="D"><path transform="translate(220 23)" d="M0 0h32v32H0z" class="B"/></clipPath><clipPath id="E"><path transform="translate(270 23)" d="M0 0h32v32H0z" class="B"/></clipPath><clipPath id="F"><path transform="translate(20 79)" d="M0 0h32v32H0z" class="B"/></clipPath><clipPath id="G"><path transform="translate(70 79)" d="M0 0h32v32H0z" class="B"/></clipPath><clipPath id="H"><path transform="translate(120 79)" d="M0 0h32v32H0z" class="B"/></clipPath><clipPath id="I"><path transform="translate(170 79)" d="M0 0h32v32H0z" class="B"/></clipPath><clipPath id="J"><path transform="translate(220 79)" d="M0 0h32v32H0z" class="B"/></clipPath><clipPath id="K"><path transform="translate(270 79)" d="M0 0h32v32H0z" class="B"/></clipPath><clipPath id="L"><path transform="translate(20 135)" d="M0 0h32v32H0z" class="B"/></clipPath><clipPath id="M"><path transform="translate(70 135)" d="M0 0h32v32H0z" class="B"/></clipPath><clipPath id="N"><path transform="translate(120 135)" d="M0 0h32v32H0z" class="B"/></clipPath><clipPath id="O"><path transform="translate(170 135)" d="M0 0h32v32H0z" class="B"/></clipPath><clipPath id="P"><path transform="translate(220 135)" d="M0 0h32v32H0z" class="B"/></clipPath><path id="Q" d="M221.44 47.64h2.4c.8 0 1.44-.64 1.44-1.44s-.64-1.44-1.44-1.44h-2.4c-.8 0-1.44.64-1.44 1.44s.64 1.44 1.44 1.44z"/><path id="R" d="M226.4 38.52c.64.64 1.44.64 2.08 0 .64-.48.64-1.44 0-2.08l-1.6-1.6c-.64-.64-1.44-.64-2.08 0-.64.48-.64 1.44 0 2.08l1.6 1.6z"/><path id="S" d="M245.6 38.52l1.6-1.6c.48-.48.48-1.44 0-2.08-.64-.64-1.44-.64-2.08 0l-1.6 1.6c-.64.64-.64 1.44 0 2.08s1.6.64 2.08 0z"/><path id="T" d="M246.72 46.2c0 .8.64 1.44 1.44 1.44h2.4c.8 0 1.44-.64 1.44-1.44s-.64-1.44-1.44-1.44h-2.4c-.8 0-1.44.64-1.44 1.44z"/><path id="U" d="M250.24 51.48h-28.48c-.96 0-1.76.8-1.76 1.76s.8 1.76 1.76 1.76h28.48c.96 0 1.76-.8 1.76-1.76s-.8-1.76-1.76-1.76z"/><path id="V" d="M236 38.84c4.96 0 8.8 4 8.8 8.8 0 .48-.32.8-.8.8h-16c-.48 0-.8-.32-.8-.8 0-4.8 3.84-8.8 8.8-8.8z"/><path id="W" d="M27.36 104.12c0 .16 0 .16 0 0 0 .16.16.16.16.16h16.96c.16 0 .16 0 .16-.16.64-1.6.8-3.52.32-5.44 0-.16-.32-.16-.32 0-.96 1.28-2.4 2.24-4.16 2.56-2.08.32-4.48-.48-5.76-2.08-1.92-1.92-1.92-4.64-.96-6.72 0-.16 0-.32-.16-.32-1.92.48-3.68 1.6-5.12 3.52-1.44 2.08-2.08 4.8-1.6 7.2l.48 1.28z"/><path id="X" d="M276.72 111a2.4 2.4 0 0 0 0-4.8 2.4 2.4 0 0 0 0 4.8z"/></defs></svg>